<svg xmlns="http://www.w3.org/2000/svg" xmlns:xlink="http://www.w3.org/1999/xlink"><defs><symbol viewBox="0 0 16 16" id="ec-rounded-books"><defs><path d="M8 1a7 7 0 110 14A7 7 0 018 1zm2.5 2.833h-5a.836.836 0 00-.833.834v6.666c0 .459.375.834.833.834h5a.836.836 0 00.833-.834V4.667a.836.836 0 00-.833-.834zm-4.583.834v3.75l1.25-.938 1.25.938v-3.75H10.5v6.666h-5V4.667h.417zm1.666 0V6.75l-.416-.313-.417.313V4.667h.833z" id="ec-rounded-books_a" /></defs><use xlink:href="#ec-rounded-books_a" fill-rule="evenodd" /></symbol><symbol viewBox="0 0 14 14" id="ec-rounded-calendar"><path d="M7 0a7 7 0 110 14A7 7 0 017 0zM5.222 3h-.889v.8H3.89c-.493 0-.885.36-.885.8L3 10.2c0 .44.396.8.889.8h6.222c.489 0 .889-.36.889-.8V4.6c0-.44-.4-.8-.889-.8h-.444V3h-.89v.8H5.223V3zM10 5.5V10H4V5.5h6zm-3 1H5v2h2v-2z" fill-rule="evenodd" /></symbol><symbol viewBox="0 0 16 16" id="ec-rounded-cancelled"><path d="M8 1c3.864 0 7 3.136 7 7s-3.136 7-7 7-7-3.136-7-7 3.136-7 7-7zm0 2C5.24 3 3 5.24 3 8s2.24 5 5 5 5-2.24 5-5-2.24-5-5-5zm3.155 2.55c.53.675.845 1.525.845 2.45 0 2.21-1.79 4-4 4a3.951 3.951 0 01-2.45-.845l5.605-5.605zM8 4c.925 0 1.775.315 2.45.845L4.845 10.45A3.951 3.951 0 014 8c0-2.21 1.79-4 4-4z" fill-rule="nonzero" /></symbol><symbol viewBox="0 0 16 16" id="ec-rounded-check"><defs><path d="M8 1a7 7 0 110 14A7 7 0 018 1zm3.373 4.151L6.667 9.853 4.813 8l-.63.627 2.484 2.484L12 5.778l-.627-.627z" id="ec-rounded-check_a" /></defs><use xlink:href="#ec-rounded-check_a" fill-rule="evenodd" /></symbol><symbol viewBox="0 0 16 16" id="ec-rounded-documents"><defs><path d="M8 1a7 7 0 110 14A7 7 0 018 1zm.833 2.833H5.5a.836.836 0 00-.833.834v6.666c0 .459.37.834.829.834H10.5a.836.836 0 00.833-.834v-5l-2.5-2.5zm-.416.834V6.75H10.5v4.583h-5V4.667h2.917zm1.25 5H6.333v.833h3.334v-.833zm0-1.667H6.333v.833h3.334V8z" id="ec-rounded-documents_a" /></defs><use xlink:href="#ec-rounded-documents_a" fill-rule="evenodd" /></symbol><symbol viewBox="0 0 16 16" id="ec-rounded-euro"><path d="M8 15A7 7 0 118 1a7 7 0 010 14zm.667-4.111a2.88 2.88 0 01-2.56-1.556h2.56v-.889H5.813A2.949 2.949 0 015.778 8c0-.151.013-.298.035-.444h2.854v-.89h-2.56a2.885 2.885 0 014.44-.857l.786-.787A3.98 3.98 0 008.667 4a4.002 4.002 0 00-3.77 2.667H3.334v.889h1.36a3.672 3.672 0 000 .888h-1.36v.89h1.565A4.002 4.002 0 008.667 12c1.026 0 1.96-.387 2.666-1.022l-.79-.787a2.847 2.847 0 01-1.876.698z" fill-rule="evenodd" /></symbol><symbol viewBox="0 0 16 16" id="ec-rounded-hourglass"><path d="M8 1a7 7 0 110 14A7 7 0 018 1zm2.667 2.556H5.333v2.666h.005l-.005.005L7.111 8 5.333 9.778l.005.004h-.005v2.662h5.334V9.782h-.005l.005-.004L8.889 8l1.778-1.773-.005-.005h.005V3.556zM8 8.222L9.778 10v1.556H6.222V10L8 8.222zm1.778-3.778V6L8 7.778 6.222 6V4.444h3.556z" fill-rule="evenodd" /></symbol><symbol viewBox="0 0 16 16" id="ec-rounded-info"><path d="M8 1a7 7 0 100 14A7 7 0 008 1zm.6 5.2H7.4V5h1.2v1.2zm0 4.8H7.4V7.4h1.2V11zm-.594 3A5.997 5.997 0 0014 8c0-3.312-2.682-6-5.994-6A6.003 6.003 0 002 8c0 3.312 2.688 6 6.006 6zM8 3.2c2.652 0 4.8 2.148 4.8 4.8 0 2.652-2.148 4.8-4.8 4.8A4.799 4.799 0 013.2 8c0-2.652 2.148-4.8 4.8-4.8z" fill-rule="evenodd" /></symbol><symbol viewBox="0 0 16 16" id="ec-rounded-notification"><circle class="ec-icon-rounded-notification__outer-circle" stroke="transparent" stroke-width="3" fill-rule="nonzero" cx="8" cy="8" r="6" /></symbol><symbol viewBox="0 0 16 16" id="ec-rounded-open"><path d="M8 1a7 7 0 110 14A7 7 0 018 1zm.578 4H7.465l.066 2.437-2.196-.794L5 7.713l2.196.638-1.461 1.955.909.644 1.309-1.99L9.305 11l.902-.666-1.44-1.92L11 7.77l-.335-1.077-2.16.78L8.578 5z" fill-rule="evenodd" /></symbol><symbol viewBox="0 0 16 16" id="ec-rounded-pause"><path d="M8 15A7 7 0 118 1a7 7 0 010 14zm-2.667-3.889h1.778V4.89H5.333v6.222zM8.89 4.89v6.222h1.778V4.89H8.889z" fill-rule="evenodd" /></symbol><symbol viewBox="0 0 16 16" id="ec-rounded-settings"><defs><path d="M8 1a7 7 0 110 14A7 7 0 018 1zm.823 3H7.177a.198.198 0 00-.2.17l-.155 1.06c-.252.1-.483.235-.694.39l-1.023-.4a.206.206 0 00-.253.09L4.03 6.695a.19.19 0 00.051.255l.87.66c-.021.125-.037.26-.037.39s.01.265.031.39l-.87.66a.203.203 0 00-.05.255l.822 1.385c.052.09.16.12.252.09l1.024-.4c.216.16.442.29.694.39l.154 1.06c.021.1.103.17.206.17h1.646c.103 0 .19-.07.2-.17l.155-1.06c.252-.1.483-.235.694-.39l1.023.4c.093.035.201 0 .253-.09l.822-1.385a.19.19 0 00-.051-.255l-.859-.66c.016-.125.026-.255.026-.39s-.01-.265-.031-.39l.87-.66a.203.203 0 00.05-.255l-.822-1.385c-.052-.09-.16-.12-.252-.09l-1.024.4a3.035 3.035 0 00-.694-.39l-.154-1.06A.204.204 0 008.823 4zM8 6.5c.825 0 1.5.675 1.5 1.5S8.825 9.5 8 9.5 6.5 8.825 6.5 8 7.175 6.5 8 6.5z" id="ec-rounded-settings_a" /></defs><use xlink:href="#ec-rounded-settings_a" fill-rule="evenodd" /></symbol><symbol viewBox="0 0 16 16" id="ec-rounded-thumb-down"><path d="M8 15A7 7 0 118 1a7 7 0 010 14zM9.167 4.5h-3.5a.773.773 0 00-.716.474L3.777 7.716A.768.768 0 003.722 8v.743l.004.004-.004.03c0 .429.35.779.778.779h2.454l-.37 1.777-.011.124c0 .16.066.307.17.412l.413.409L9.72 9.715a.773.773 0 00.225-.548v-3.89a.78.78 0 00-.777-.777zm1.555 0v4.667h1.556V4.5h-1.556z" fill-rule="evenodd" /></symbol><symbol viewBox="0 0 16 16" id="ec-rounded-thumb-up"><path d="M8 15A7 7 0 118 1a7 7 0 010 14zm-4-3.222h1.556V7.11H4v4.667zM12.556 7.5a.78.78 0 00-.778-.778H9.324l.37-1.777.011-.124a.585.585 0 00-.171-.413L9.122 4l-2.56 2.563a.76.76 0 00-.229.548V11c0 .428.35.778.778.778h3.5a.773.773 0 00.716-.475L12.5 8.562a.768.768 0 00.055-.284v-.743l-.004-.004.004-.031z" fill-rule="evenodd" /></symbol><symbol viewBox="0 0 16 16" id="ec-rounded-thumb-up-down"><path d="M8 15A7 7 0 118 1a7 7 0 010 14zm-.333-8.667a.39.39 0 00-.39-.389H5.264l.257-1.236.008-.09c0-.12-.05-.23-.129-.31L5.092 4l-1.92 1.921A.585.585 0 003 6.333v2.528c0 .323.26.583.583.583h2.625a.587.587 0 00.537-.353l.879-2.058a.567.567 0 00.043-.214v-.486zM12.383 7H9.758a.587.587 0 00-.536.354l-.88 2.057a.567.567 0 00-.042.214v.486a.39.39 0 00.389.389h2.014l-.256 1.237-.008.093c0 .12.05.23.128.311l.307.303 1.922-1.92a.585.585 0 00.17-.413V7.583A.583.583 0 0012.384 7z" fill-rule="evenodd" /></symbol><symbol viewBox="0 0 16 16" id="ec-rounded-trade"><path d="M8 15A7 7 0 118 1a7 7 0 010 14zM5.29 7.444L3 9.741l2.29 2.296v-1.722h4.025V9.167H5.29V7.444zm8.043-1.148L11.043 4v1.722H7.019V6.87h4.024v1.723l2.29-2.297z" fill-rule="evenodd" /></symbol><symbol viewBox="0 0 16 16" id="ec-rounded-unknown"><path d="M8 1a7 7 0 110 14A7 7 0 018 1zm.469 10.047H7.53v.937h.938v-.937zM8 4.016a2.346 2.346 0 00-2.344 2.343h.938c0-.775.63-1.406 1.406-1.406a1.408 1.408 0 011.048 2.344L7.53 8.993v1.116h.938v-.758l1.278-1.43a2.34 2.34 0 00.597-1.562A2.346 2.346 0 008 4.016z" fill-rule="evenodd" /></symbol><symbol viewBox="0 0 16 16" id="ec-rounded-verified"><path d="M8 15A7 7 0 118 1a7 7 0 010 14zM8 3.722L4.5 5.278V7.61c0 2.158 1.493 4.177 3.5 4.667 2.007-.49 3.5-2.509 3.5-4.667V5.278L8 3.722zm-.778 6.222L5.667 8.39l.548-.548 1.007 1.003L9.785 6.28l.548.552-3.11 3.111z" fill-rule="evenodd" /></symbol></defs></svg>