<svg xmlns="http://www.w3.org/2000/svg" xmlns:xlink="http://www.w3.org/1999/xlink"><defs><symbol viewBox="0 0 16 16" id="ec-rounded-books"><!--Generator: Sketch 58 (84663) - https://sketch.com--><title>Graphics / 00 Icon / Rounded / Books</title><desc>Created with Sketch.</desc><defs><path d="M8,1 C11.8659932,1 15,4.13400675 15,8 C15,11.8659932 11.8659932,15 8,15 C4.13400675,15 1,11.8659932 1,8 C1,4.13400675 4.13400675,1 8,1 Z M10.5,3.83333333 L5.5,3.83333333 C5.04166667,3.83333333 4.66666667,4.20833333 4.66666667,4.66666667 L4.66666667,11.3333333 C4.66666667,11.7916667 5.04166667,12.1666667 5.5,12.1666667 L10.5,12.1666667 C10.9583333,12.1666667 11.3333333,11.7916667 11.3333333,11.3333333 L11.3333333,4.66666667 C11.3333333,4.20833333 10.9583333,3.83333333 10.5,3.83333333 Z M5.91666667,4.66666667 L5.91666667,8.41666667 L7.16666667,7.47916667 L8.41666667,8.41666667 L8.41666667,4.66666667 L10.5,4.66666667 L10.5,11.3333333 L5.5,11.3333333 L5.5,4.66666667 L5.91666667,4.66666667 Z M7.58333333,4.66666667 L7.58333333,6.75 L7.16666667,6.4375 L6.75,6.75 L6.75,4.66666667 L7.58333333,4.66666667 Z" id="ec-rounded-books_path-1" /></defs><g id="ec-rounded-books_Graphics-/-00-Icon-/-Rounded-/-Books" stroke="none" stroke-width="1" fill-rule="evenodd"><use id="ec-rounded-books_Combined-Shape" xlink:href="#ec-rounded-books_path-1" /></g></symbol><mask id="ec-rounded-books_mask-2"><use xlink:href="#ec-rounded-books_path-1" /></mask><symbol viewBox="0 0 14 14" id="ec-rounded-calendar"><!--Generator: Sketch 61.2 (89653) - https://sketch.com--><title>Graphics / 00 Icon / Rounded / Calendar</title><desc>Created with Sketch.</desc><g id="ec-rounded-calendar_New-Balances---Account-Panel" stroke="none" stroke-width="1" fill-rule="evenodd"><g id="ec-rounded-calendar_Graphics-/-00-Icon-/-Rounded-/-Calendar" transform="translate(-1.000000, -1.000000)"><path d="M8,1 C11.8659932,1 15,4.13400675 15,8 C15,11.8659932 11.8659932,15 8,15 C4.13400675,15 1,11.8659932 1,8 C1,4.13400675 4.13400675,1 8,1 Z M6.22222222,4 L5.33333333,4 L5.33333333,4.8 L4.88888889,4.8 C4.39555556,4.8 4.00444444,5.16 4.00444444,5.6 L4,11.2 C4,11.64 4.39555556,12 4.88888889,12 L11.1111111,12 C11.6,12 12,11.64 12,11.2 L12,5.6 C12,5.16 11.6,4.8 11.1111111,4.8 L10.6666667,4.8 L10.6666667,4 L9.77777778,4 L9.77777778,4.8 L6.22222222,4.8 L6.22222222,4 Z M11,6.5 L11,11 L5,11 L5,6.5 L11,6.5 Z M8,7.5 L6,7.5 L6,9.5 L8,9.5 L8,7.5 Z" id="ec-rounded-calendar_Combined-Shape" /></g></g></symbol><symbol viewBox="0 0 16 16" id="ec-rounded-cancelled"><!--Generator: Sketch 58 (84663) - https://sketch.com--><title>Graphics / 00 Icon / Rounded / Cancelled</title><desc>Created with Sketch.</desc><g id="ec-rounded-cancelled_Graphics-/-00-Icon-/-Rounded-/-Cancelled" stroke="none" stroke-width="1" fill-rule="evenodd"><path d="M8,1 C11.864,1 15,4.136 15,8 C15,11.864 11.864,15 8,15 C4.136,15 1,11.864 1,8 C1,4.136 4.136,1 8,1 Z M8,3 C5.24,3 3,5.24 3,8 C3,10.76 5.24,13 8,13 C10.76,13 13,10.76 13,8 C13,5.24 10.76,3 8,3 Z M11.155,5.55 C11.685,6.225 12,7.075 12,8 C12,10.21 10.21,12 8,12 C7.075,12 6.225,11.685 5.55,11.155 L11.155,5.55 Z M8,4 C8.925,4 9.775,4.315 10.45,4.845 L4.845,10.45 C4.315,9.775 4,8.925 4,8 C4,5.79 5.79,4 8,4 Z" id="ec-rounded-cancelled_Cancelled" fill-rule="nonzero" /></g></symbol><symbol viewBox="0 0 16 16" id="ec-rounded-check"><!--Generator: Sketch 58 (84663) - https://sketch.com--><title>Graphics / 00 Icon / Rounded / Check</title><desc>Created with Sketch.</desc><defs><path d="M8,1 C11.8659932,1 15,4.13400675 15,8 C15,11.8659932 11.8659932,15 8,15 C4.13400675,15 1,11.8659932 1,8 C1,4.13400675 4.13400675,1 8,1 Z M11.3733333,5.15111111 L6.66666667,9.85333333 L4.81333333,8 L4.18222222,8.62666667 L6.66666667,11.1111111 L12,5.77777778 L11.3733333,5.15111111 Z" id="ec-rounded-check_path-1" /></defs><g id="ec-rounded-check_Graphics-/-00-Icon-/-Rounded-/-Check" stroke="none" stroke-width="1" fill-rule="evenodd"><use id="ec-rounded-check_Check" xlink:href="#ec-rounded-check_path-1" /></g></symbol><mask id="ec-rounded-check_mask-2"><use xlink:href="#ec-rounded-check_path-1" /></mask><symbol viewBox="0 0 16 16" id="ec-rounded-documents"><!--Generator: Sketch 58 (84663) - https://sketch.com--><title>Graphics / 00 Icon / Rounded / Documents</title><desc>Created with Sketch.</desc><defs><path d="M8,1 C11.8659932,1 15,4.13400675 15,8 C15,11.8659932 11.8659932,15 8,15 C4.13400675,15 1,11.8659932 1,8 C1,4.13400675 4.13400675,1 8,1 Z M8.83333333,3.83333333 L5.5,3.83333333 C5.04166667,3.83333333 4.66666667,4.20833333 4.66666667,4.66666667 L4.66666667,11.3333333 C4.66666667,11.7916667 5.0375,12.1666667 5.49583333,12.1666667 L10.5,12.1666667 C10.9583333,12.1666667 11.3333333,11.7916667 11.3333333,11.3333333 L11.3333333,6.33333333 L8.83333333,3.83333333 Z M8.41666667,4.66666667 L8.41666667,6.75 L10.5,6.75 L10.5,11.3333333 L5.5,11.3333333 L5.5,4.66666667 L8.41666667,4.66666667 Z M9.66666667,9.66666667 L6.33333333,9.66666667 L6.33333333,10.5 L9.66666667,10.5 L9.66666667,9.66666667 Z M9.66666667,8 L6.33333333,8 L6.33333333,8.83333333 L9.66666667,8.83333333 L9.66666667,8 Z" id="ec-rounded-documents_path-1" /></defs><g id="ec-rounded-documents_Graphics-/-00-Icon-/-Rounded-/-Documents" stroke="none" stroke-width="1" fill-rule="evenodd"><use id="ec-rounded-documents_Combined-Shape" xlink:href="#ec-rounded-documents_path-1" /></g></symbol><mask id="ec-rounded-documents_mask-2"><use xlink:href="#ec-rounded-documents_path-1" /></mask><symbol viewBox="0 0 16 16" id="ec-rounded-euro"><!--Generator: Sketch 55.2 (78181) - https://sketchapp.com--><title>Graphics / 00 Icon / Rounded / Euro</title><desc>Created with Sketch.</desc><g id="ec-rounded-euro_Graphics-/-00-Icon-/-Rounded-/-Euro" stroke="none" stroke-width="1" fill-rule="evenodd"><path d="M8,15 C4.13400675,15 1,11.8659932 1,8 C1,4.13400675 4.13400675,1 8,1 C11.8659932,1 15,4.13400675 15,8 C15,11.8659932 11.8659932,15 8,15 Z M8.66666667,10.8888889 C7.55111111,10.8888889 6.58666667,10.2577778 6.10666667,9.33333333 L8.66666667,9.33333333 L8.66666667,8.44444444 L5.81333333,8.44444444 C5.79111111,8.29777778 5.77777778,8.15111111 5.77777778,8 C5.77777778,7.84888889 5.79111111,7.70222222 5.81333333,7.55555556 L8.66666667,7.55555556 L8.66666667,6.66666667 L6.10666667,6.66666667 C6.58666667,5.74222222 7.55555556,5.11111111 8.66666667,5.11111111 C9.38222222,5.11111111 10.04,5.37333333 10.5466667,5.80888889 L11.3333333,5.02222222 C10.6266667,4.38666667 9.68888889,4 8.66666667,4 C6.92444444,4 5.44888889,5.11555556 4.89777778,6.66666667 L3.33333333,6.66666667 L3.33333333,7.55555556 L4.69333333,7.55555556 C4.67555556,7.70222222 4.66666667,7.84888889 4.66666667,8 C4.66666667,8.15111111 4.67555556,8.29777778 4.69333333,8.44444444 L3.33333333,8.44444444 L3.33333333,9.33333333 L4.89777778,9.33333333 C5.44888889,10.8844444 6.92444444,12 8.66666667,12 C9.69333333,12 10.6266667,11.6133333 11.3333333,10.9777778 L10.5422222,10.1911111 C10.04,10.6266667 9.38666667,10.8888889 8.66666667,10.8888889 Z" id="ec-rounded-euro_Colour" /></g></symbol><symbol viewBox="0 0 16 16" id="ec-rounded-hourglass"><!--Generator: Sketch 58 (84663) - https://sketch.com--><title>Graphics / 00 Icon / Rounded / Hourglass</title><desc>Created with Sketch.</desc><g id="ec-rounded-hourglass_Graphics-/-00-Icon-/-Rounded-/-Hourglass" stroke="none" stroke-width="1" fill-rule="evenodd"><path d="M8,1 C11.8659932,1 15,4.13400675 15,8 C15,11.8659932 11.8659932,15 8,15 C4.13400675,15 1,11.8659932 1,8 C1,4.13400675 4.13400675,1 8,1 Z M10.6666667,3.55555556 L5.33333333,3.55555556 L5.33333333,6.22222222 L5.33777778,6.22222222 L5.33333333,6.22666667 L7.11111111,8 L5.33333333,9.77777778 L5.33777778,9.78222222 L5.33333333,9.78222222 L5.33333333,12.4444444 L10.6666667,12.4444444 L10.6666667,9.78222222 L10.6622222,9.78222222 L10.6666667,9.77777778 L8.88888889,8 L10.6666667,6.22666667 L10.6622222,6.22222222 L10.6666667,6.22222222 L10.6666667,3.55555556 Z M8,8.22222222 L9.77777778,10 L9.77777778,11.5555556 L6.22222222,11.5555556 L6.22222222,10 L8,8.22222222 Z M9.77777778,4.44444444 L9.77777778,6 L8,7.77777778 L6.22222222,6 L6.22222222,4.44444444 L9.77777778,4.44444444 Z" id="ec-rounded-hourglass_Colour" /></g></symbol><symbol viewBox="0 0 16 16" id="ec-rounded-info"><title>Graphics/00 Icon/Rounded/Info</title><g id="ec-rounded-info_Graphics/00-Icon/Rounded/Info" stroke="none" stroke-width="1" fill-rule="evenodd"><path d="M8,15 C11.8659932,15 15,11.8659932 15,8 C15,4.13400675 11.8659932,1 8,1 C4.13400675,1 1,4.13400675 1,8 C1,11.8659932 4.13400675,15 8,15 Z M7.4,9.8 L8.6,9.8 L8.6,11 L7.4,11 L7.4,9.8 Z M7.4,5 L8.6,5 L8.6,8.6 L7.4,8.6 L7.4,5 Z M7.994,2 C4.682,2 2,4.688 2,8 C2,11.312 4.682,14 7.994,14 C11.312,14 14,11.312 14,8 C14,4.688 11.312,2 7.994,2 Z M8,12.8 C5.348,12.8 3.2,10.652 3.2,8 C3.2,5.348 5.348,3.2 8,3.2 C10.652,3.2 12.8,5.348 12.8,8 C12.8,10.652 10.652,12.8 8,12.8 Z" id="ec-rounded-info_Colour" transform="translate(8.000000, 8.000000) rotate(-180.000000) translate(-8.000000, -8.000000) " /></g></symbol><symbol viewBox="0 0 16 16" id="ec-rounded-notification"><!--Generator: Sketch 58 (84663) - https://sketch.com--><title>Graphics / 00 Icon / Rounded / Notification</title><desc>Created with Sketch.</desc><g id="ec-rounded-notification_Graphics-/-00-Icon-/-Rounded-/-Notification" stroke="none" stroke-width="1" fill-rule="evenodd"><circle id="ec-rounded-notification_Warning-Icon" class="ec-icon-rounded-notification__outer-circle" stroke="transparent" stroke-width="3" fill-rule="nonzero" cx="8" cy="8" r="6" /></g></symbol><symbol viewBox="0 0 16 16" id="ec-rounded-open"><!--Generator: Sketch 58 (84663) - https://sketch.com--><title>Graphics / 00 Icon / Rounded / Open</title><desc>Created with Sketch.</desc><g id="ec-rounded-open_Graphics-/-00-Icon-/-Rounded-/-Open" stroke="none" stroke-width="1" fill-rule="evenodd"><path d="M8,1 C11.8659932,1 15,4.13400675 15,8 C15,11.8659932 11.8659932,15 8,15 C4.13400675,15 1,11.8659932 1,8 C1,4.13400675 4.13400675,1 8,1 Z M8.57818182,5 L7.46545455,5 L7.53090909,7.43683589 L5.33454545,6.64344746 L5,7.71310508 L7.19636364,8.35064935 L5.73454545,10.3057851 L6.64363636,10.9504132 L7.95272727,8.95985832 L9.30545455,11 L10.2072727,10.3341204 L8.76727273,8.41440378 L11,7.76977568 L10.6654545,6.69303424 L8.50545455,7.47225502 L8.57818182,5 Z" id="ec-rounded-open_Combined-Shape" /></g></symbol><symbol viewBox="0 0 16 16" id="ec-rounded-partial"><title>Graphics / 00 Icon / Rounded / Partial</title><g id="ec-rounded-partial_Graphics-/-00-Icon-/-Rounded-/-Partial" stroke="none" stroke-width="1" fill-rule="evenodd"><g id="ec-rounded-partial_Group" transform="translate(1.000000, 1.070889)"><path d="M6,13.8582223 C2.60770586,13.3729926 0,10.4555831 0,6.92911114 C0,3.40263923 2.60770586,0.485229661 6,2.30926389e-14 L6,13.8582223 Z" id="ec-rounded-partial_Left-side" /><path class="tw-fill-gray-4" d="M8,2.30926389e-14 C11.3922941,0.485229661 14,3.40263923 14,6.92911114 C14,10.4555831 11.3922941,13.3729926 8,13.8582223 L8,2.30926389e-14 Z" id="ec-rounded-partial_Right-side" /></g></g></symbol><symbol viewBox="0 0 16 16" id="ec-rounded-pause"><!--Generator: Sketch 55.2 (78181) - https://sketchapp.com--><title>Graphics / 00 Icon / Rounded / Pause</title><desc>Created with Sketch.</desc><g id="ec-rounded-pause_Graphics-/-00-Icon-/-Rounded-/-Pause" stroke="none" stroke-width="1" fill-rule="evenodd"><path d="M8,15 C4.13400675,15 1,11.8659932 1,8 C1,4.13400675 4.13400675,1 8,1 C11.8659932,1 15,4.13400675 15,8 C15,11.8659932 11.8659932,15 8,15 Z M5.33333333,11.1111111 L7.11111111,11.1111111 L7.11111111,4.88888889 L5.33333333,4.88888889 L5.33333333,11.1111111 Z M8.88888889,4.88888889 L8.88888889,11.1111111 L10.6666667,11.1111111 L10.6666667,4.88888889 L8.88888889,4.88888889 Z" id="ec-rounded-pause_Colour" /></g></symbol><symbol viewBox="0 0 16 16" id="ec-rounded-returned"><title>Graphics / 00 Icon / Rounded / Returned</title><g id="ec-rounded-returned_Graphics-/-00-Icon-/-Rounded-/-Returned" stroke="none" stroke-width="1" fill-rule="evenodd"><path d="M8,1 C11.8659932,1 15,4.13400675 15,8 C15,11.8659932 11.8659932,15 8,15 C4.13400675,15 1,11.8659932 1,8 C1,4.13400675 4.13400675,1 8,1 Z M6.83333333,4.5 L4.5,6.83333333 L6.83333333,9.16666667 L7.38555556,8.61444444 L5.98944444,7.22222222 L9.55555556,7.22222222 L9.55555556,10.3387451 L5.66666667,10.3387451 L5.66666667,11.1111111 L10.3333333,11.1111111 L10.3333333,6.44444444 L5.98944444,6.44444444 L7.38555556,5.05222222 L6.83333333,4.5 Z" id="ec-rounded-returned_Combined-Shape" /></g></symbol><symbol viewBox="0 0 16 16" id="ec-rounded-settings"><!--Generator: Sketch 59.1 (86144) - https://sketch.com--><title>Graphics / 00 Icon / Rounded / Settings</title><desc>Created with Sketch.</desc><defs><path d="M8,1 C11.8659932,1 15,4.13400675 15,8 C15,11.8659932 11.8659932,15 8,15 C4.13400675,15 1,11.8659932 1,8 C1,4.13400675 4.13400675,1 8,1 Z M8.82287645,4 L7.17712355,4 C7.074264,4 6.99197635,4.07 6.97654742,4.17 L6.82225809,5.23 C6.57025217,5.33 6.33881817,5.465 6.12795609,5.62 L5.10450351,5.22 C5.0119299,5.185 4.90392737,5.22 4.85249759,5.31 L4.02962115,6.695 C3.97819137,6.785 3.99876328,6.89 4.08105093,6.95 L4.95021417,7.61 C4.92964226,7.735 4.91421333,7.87 4.91421333,8 C4.91421333,8.13 4.92449928,8.265 4.94507119,8.39 L4.07590795,9.05 C3.99876328,9.11 3.97819137,9.22 4.02447817,9.305 L4.84735462,10.69 C4.89878439,10.78 5.00678693,10.81 5.09936053,10.78 L6.12281311,10.38 C6.33881817,10.54 6.5651092,10.67 6.81711511,10.77 L6.97140444,11.83 C6.99197635,11.93 7.074264,12 7.17712355,12 L8.82287645,12 C8.925736,12 9.01316662,11.93 9.02345258,11.83 L9.17774191,10.77 C9.42974783,10.67 9.66118183,10.535 9.87204391,10.38 L10.8954965,10.78 C10.9880701,10.815 11.0960726,10.78 11.1475024,10.69 L11.9703789,9.305 C12.0218086,9.215 12.0012367,9.11 11.9189491,9.05 L11.0600718,8.39 C11.0755007,8.265 11.0857867,8.135 11.0857867,8 C11.0857867,7.865 11.0755007,7.735 11.0549288,7.61 L11.9240921,6.95 C12.0012367,6.89 12.0218086,6.78 11.9755218,6.695 L11.1526454,5.31 C11.1012156,5.22 10.9932131,5.19 10.9006395,5.22 L9.87718689,5.62 C9.66118183,5.46 9.4348908,5.33 9.18288489,5.23 L9.02859556,4.17 C9.01316662,4.07 8.925736,4 8.82287645,4 Z M8,6.5 C8.825,6.5 9.5,7.175 9.5,8 C9.5,8.825 8.825,9.5 8,9.5 C7.175,9.5 6.5,8.825 6.5,8 C6.5,7.175 7.175,6.5 8,6.5 Z" id="ec-rounded-settings_path-1" /></defs><g id="ec-rounded-settings_Graphics-/-00-Icon-/-Rounded-/-Settings" stroke="none" stroke-width="1" fill-rule="evenodd"><use id="ec-rounded-settings_Combined-Shape" xlink:href="#ec-rounded-settings_path-1" /></g></symbol><mask id="ec-rounded-settings_mask-2"><use xlink:href="#ec-rounded-settings_path-1" /></mask><symbol viewBox="0 0 16 16" id="ec-rounded-thumb-down"><!--Generator: Sketch 55.2 (78181) - https://sketchapp.com--><title>Graphics / 00 Icon / Rounded / Thumb Down</title><desc>Created with Sketch.</desc><g id="ec-rounded-thumb-down_Graphics-/-00-Icon-/-Rounded-/-Thumb-Down" stroke="none" stroke-width="1" fill-rule="evenodd"><path d="M8,15 C4.13400675,15 1,11.8659932 1,8 C1,4.13400675 4.13400675,1 8,1 C11.8659932,1 15,4.13400675 15,8 C15,11.8659932 11.8659932,15 8,15 Z M9.16666667,4.5 L5.66666667,4.5 C5.34388889,4.5 5.06777778,4.69444444 4.95111111,4.97444444 L3.77666667,7.71611111 C3.74166667,7.80555556 3.72222222,7.89888889 3.72222222,8 L3.72222222,8.74277778 L3.72611111,8.74666667 L3.72222222,8.77777778 C3.72222222,9.20555556 4.07222222,9.55555556 4.5,9.55555556 L6.95388889,9.55555556 L6.58444444,11.3327778 L6.57277778,11.4572222 C6.57277778,11.6166667 6.63888889,11.7644444 6.74388889,11.8694444 L7.15611111,12.2777778 L9.71888889,9.715 C9.85888889,9.575 9.94444444,9.38055556 9.94444444,9.16666667 L9.94444444,5.27777778 C9.94444444,4.85 9.59444444,4.5 9.16666667,4.5 Z M10.7222222,4.5 L10.7222222,9.16666667 L12.2777778,9.16666667 L12.2777778,4.5 L10.7222222,4.5 Z" id="ec-rounded-thumb-down_Colour" /></g></symbol><symbol viewBox="0 0 16 16" id="ec-rounded-thumb-up"><!--Generator: Sketch 55.2 (78181) - https://sketchapp.com--><title>Graphics / 00 Icon / Rounded / Thumb Up</title><desc>Created with Sketch.</desc><g id="ec-rounded-thumb-up_Graphics-/-00-Icon-/-Rounded-/-Thumb-Up" stroke="none" stroke-width="1" fill-rule="evenodd"><path d="M8,15 C4.13400675,15 1,11.8659932 1,8 C1,4.13400675 4.13400675,1 8,1 C11.8659932,1 15,4.13400675 15,8 C15,11.8659932 11.8659932,15 8,15 Z M4,11.7777782 L5.55555564,11.7777782 L5.55555564,7.11111127 L4,7.11111127 L4,11.7777782 Z M12.555556,7.5 C12.555556,7.07222238 12.205556,6.72222236 11.7777782,6.72222236 L9.32388917,6.72222236 L9.69333363,4.94500005 L9.7050003,4.8205556 C9.7050003,4.66111115 9.63888918,4.51333336 9.53388918,4.40833335 L9.12166693,4 L6.56277791,6.56277791 C6.41888901,6.70277792 6.33333345,6.89722237 6.33333345,7.11111127 L6.33333345,11 C6.33333345,11.4277782 6.68333347,11.7777782 7.11111127,11.7777782 L10.6111115,11.7777782 C10.9338892,11.7777782 11.2100004,11.5833337 11.326667,11.3033337 L12.5011116,8.5616669 C12.5361116,8.47222245 12.555556,8.37888912 12.555556,8.277778 L12.555556,7.53500018 L12.5516671,7.53111129 L12.555556,7.5 Z" id="ec-rounded-thumb-up_Colour" /></g></symbol><symbol viewBox="0 0 16 16" id="ec-rounded-thumb-up-down"><!--Generator: Sketch 55.2 (78181) - https://sketchapp.com--><title>Graphics / 00 Icon / Rounded / Thumb Up-Down</title><desc>Created with Sketch.</desc><g id="ec-rounded-thumb-up-down_Graphics-/-00-Icon-/-Rounded-/-Thumb-Up-Down" stroke="none" stroke-width="1" fill-rule="evenodd"><path d="M8,15 C4.13400675,15 1,11.8659932 1,8 C1,4.13400675 4.13400675,1 8,1 C11.8659932,1 15,4.13400675 15,8 C15,11.8659932 11.8659932,15 8,15 Z M7.66666667,6.33333333 C7.66666667,6.11944444 7.49166667,5.94444444 7.27777778,5.94444444 L5.26333333,5.94444444 L5.52,4.70777778 L5.52777778,4.61833333 C5.52777778,4.49777778 5.47722222,4.38888889 5.39944444,4.30722222 L5.09222222,4 L3.17111111,5.92111111 C3.06611111,6.02611111 3,6.17388889 3,6.33333333 L3,8.86111111 C3,9.18388889 3.26055556,9.44444444 3.58333333,9.44444444 L6.20833333,9.44444444 C6.44944444,9.44444444 6.65555556,9.29666667 6.745,9.09055556 L7.62388889,7.03333333 C7.65111111,6.96722222 7.66666667,6.89333333 7.66666667,6.81944444 L7.66666667,6.33333333 Z M12.3833333,7 L9.75833333,7 C9.51722222,7 9.31111111,7.14777778 9.22166667,7.35388889 L8.34277778,9.41111111 C8.31555556,9.47722222 8.3,9.55111111 8.3,9.625 L8.3,10.1111111 C8.3,10.325 8.475,10.5 8.68888889,10.5 L10.7033333,10.5 L10.4466667,11.7366667 L10.4388889,11.83 C10.4388889,11.9505556 10.4894444,12.0594444 10.5672222,12.1411111 L10.8744444,12.4444444 L12.7955556,10.5233333 C12.9005556,10.4183333 12.9666667,10.2705556 12.9666667,10.1111111 L12.9666667,7.58333333 C12.9666667,7.26055556 12.7061111,7 12.3833333,7 Z" id="ec-rounded-thumb-up-down_Colour" /></g></symbol><symbol viewBox="0 0 16 16" id="ec-rounded-trade"><!--Generator: Sketch 55.2 (78181) - https://sketchapp.com--><title>Graphics / 00 Icon / Rounded / Trade</title><desc>Created with Sketch.</desc><g id="ec-rounded-trade_Graphics-/-00-Icon-/-Rounded-/-Trade" stroke="none" stroke-width="1" fill-rule="evenodd"><path d="M8,15 C4.13400675,15 1,11.8659932 1,8 C1,4.13400675 4.13400675,1 8,1 C11.8659932,1 15,4.13400675 15,8 C15,11.8659932 11.8659932,15 8,15 Z M5.29055548,7.44444433 L3,9.74074056 L5.29055548,12.0370368 L5.29055548,10.3148146 L9.31481461,10.3148146 L9.31481461,9.1666665 L5.29055548,9.1666665 L5.29055548,7.44444433 Z M13.333333,6.29629622 L11.0427775,4 L11.0427775,5.72222217 L7.01851839,5.72222217 L7.01851839,6.87037028 L11.0427775,6.87037028 L11.0427775,8.59259244 L13.333333,6.29629622 Z" id="ec-rounded-trade_Colour" /></g></symbol><symbol viewBox="0 0 16 16" id="ec-rounded-unknown"><title>Graphics / 00 Icon / Rounded / Unknown</title><g id="ec-rounded-unknown_Graphics-/-00-Icon-/-Rounded-/-Unknown" stroke="none" stroke-width="1" fill-rule="evenodd"><path d="M8,1 C11.8659932,1 15,4.13400675 15,8 C15,11.8659932 11.8659932,15 8,15 C4.13400675,15 1,11.8659932 1,8 C1,4.13400675 4.13400675,1 8,1 Z M8.46875,11.046875 L7.53125,11.046875 L7.53125,11.984375 L8.46875,11.984375 L8.46875,11.046875 Z M8,4.015625 C6.70765625,4.015625 5.65625,5.06703125 5.65625,6.359375 L6.59375,6.359375 C6.59375,5.58396875 7.22459375,4.953125 8,4.953125 C8.77540625,4.953125 9.40625,5.58396875 9.40625,6.359375 C9.40625,6.70565625 9.2790625,7.0385 9.04790625,7.29671875 L7.53125,8.99284375 L7.53125,10.109375 L8.46875,10.109375 L8.46875,9.35090625 L9.746625,7.92184375 C10.1316875,7.4915625 10.34375,6.93671875 10.34375,6.359375 C10.34375,5.06703125 9.29234375,4.015625 8,4.015625 Z" id="ec-rounded-unknown_Combined-Shape" /></g></symbol><symbol viewBox="0 0 16 16" id="ec-rounded-verified"><!--Generator: Sketch 55.2 (78181) - https://sketchapp.com--><title>Graphics / 00 Icon / Rounded / Verified</title><desc>Created with Sketch.</desc><g id="ec-rounded-verified_Graphics-/-00-Icon-/-Rounded-/-Verified" stroke="none" stroke-width="1" fill-rule="evenodd"><path d="M8,15 C4.13400675,15 1,11.8659932 1,8 C1,4.13400675 4.13400675,1 8,1 C11.8659932,1 15,4.13400675 15,8 C15,11.8659932 11.8659932,15 8,15 Z M8,3.72222222 L4.5,5.27777778 L4.5,7.61111111 C4.5,9.76944444 5.99333333,11.7877778 8,12.2777778 C10.0066667,11.7877778 11.5,9.76944444 11.5,7.61111111 L11.5,5.27777778 L8,3.72222222 Z M7.22222222,9.94444444 L5.66666667,8.38888889 L6.215,7.84055556 L7.22222222,8.84388889 L9.785,6.28111111 L10.3333333,6.83333333 L7.22222222,9.94444444 Z" id="ec-rounded-verified_Colour" /></g></symbol></defs></svg>