<svg xmlns="http://www.w3.org/2000/svg" xmlns:xlink="http://www.w3.org/1999/xlink"><defs><symbol viewBox="0 0 16 16" id="ec-rounded-books"><defs><path d="M8 1a7 7 0 110 14A7 7 0 018 1zm2.5 2.833h-5a.836.836 0 00-.833.834v6.666c0 .459.375.834.833.834h5a.836.836 0 00.833-.834V4.667a.836.836 0 00-.833-.834zm-4.583.834v3.75l1.25-.938 1.25.938v-3.75H10.5v6.666h-5V4.667h.417zm1.666 0V6.75l-.416-.313-.417.313V4.667h.833z" id="ec-rounded-books_a" /></defs><use xlink:href="#ec-rounded-books_a" fill-rule="evenodd" /></symbol><symbol viewBox="0 0 16 16" id="ec-rounded-cancelled"><path d="M8 1c3.864 0 7 3.136 7 7s-3.136 7-7 7-7-3.136-7-7 3.136-7 7-7zm0 2C5.24 3 3 5.24 3 8s2.24 5 5 5 5-2.24 5-5-2.24-5-5-5zm3.155 2.55c.53.675.845 1.525.845 2.45 0 2.21-1.79 4-4 4a3.951 3.951 0 01-2.45-.845l5.605-5.605zM8 4c.925 0 1.775.315 2.45.845L4.845 10.45A3.951 3.951 0 014 8c0-2.21 1.79-4 4-4z" fill-rule="nonzero" /></symbol><symbol viewBox="0 0 16 16" id="ec-rounded-check"><defs><path d="M8 1a7 7 0 110 14A7 7 0 018 1zm3.373 4.151L6.667 9.853 4.813 8l-.63.627 2.484 2.484L12 5.778l-.627-.627z" id="ec-rounded-check_a" /></defs><use xlink:href="#ec-rounded-check_a" fill-rule="evenodd" /></symbol><symbol viewBox="0 0 16 16" id="ec-rounded-documents"><defs><path d="M8 1a7 7 0 110 14A7 7 0 018 1zm.833 2.833H5.5a.836.836 0 00-.833.834v6.666c0 .459.37.834.829.834H10.5a.836.836 0 00.833-.834v-5l-2.5-2.5zm-.416.834V6.75H10.5v4.583h-5V4.667h2.917zm1.25 5H6.333v.833h3.334v-.833zm0-1.667H6.333v.833h3.334V8z" id="ec-rounded-documents_a" /></defs><use xlink:href="#ec-rounded-documents_a" fill-rule="evenodd" /></symbol><symbol viewBox="0 0 16 16" id="ec-rounded-hourglass"><path d="M8 1a7 7 0 110 14A7 7 0 018 1zm2.667 2.556H5.333v2.666h.005l-.005.005L7.111 8 5.333 9.778l.005.004h-.005v2.662h5.334V9.782h-.005l.005-.004L8.889 8l1.778-1.773-.005-.005h.005V3.556zM8 8.222L9.778 10v1.556H6.222V10L8 8.222zm1.778-3.778V6L8 7.778 6.222 6V4.444h3.556z" fill-rule="evenodd" /></symbol><symbol viewBox="0 0 16 16" id="ec-rounded-notification"><circle class="ec-icon-rounded-notification__outer-circle" stroke="transparent" stroke-width="3" fill-rule="nonzero" cx="8" cy="8" r="6" /></symbol><symbol viewBox="0 0 16 16" id="ec-rounded-open"><path d="M8 1a7 7 0 110 14A7 7 0 018 1zm.578 4H7.465l.066 2.437-2.196-.794L5 7.713l2.196.638-1.461 1.955.909.644 1.309-1.99L9.305 11l.902-.666-1.44-1.92L11 7.77l-.335-1.077-2.16.78L8.578 5z" fill-rule="evenodd" /></symbol></defs></svg>