<svg xmlns="http://www.w3.org/2000/svg" xmlns:xlink="http://www.w3.org/1999/xlink"><defs><symbol viewBox="0 0 16 16" id="ec-simple-add"><!--Generator: Sketch 58 (84663) - https://sketch.com--><title>Graphics / 00 Icon / Simple / Add</title><desc>Created with Sketch.</desc><g id="ec-simple-add_Graphics-/-00-Icon-/-Simple-/-Add" stroke="none" stroke-width="1" fill-rule="evenodd"><polygon id="ec-simple-add_Colour" points="13 8.71428571 8.71428571 8.71428571 8.71428571 13 7.28571429 13 7.28571429 8.71428571 3 8.71428571 3 7.28571429 7.28571429 7.28571429 7.28571429 3 8.71428571 3 8.71428571 7.28571429 13 7.28571429" /></g></symbol><symbol viewBox="0 0 16 16" id="ec-simple-amount"><title>03 Graphics / 00 Icon / Simple / Amount</title><g id="ec-simple-amount_03-Graphics-/-00-Icon-/-Simple-/-Amount" stroke="none" stroke-width="1" fill-rule="evenodd"><path d="M8.77507113,1 L8.775,3.227 L9.68560982,3.22716028 C10.9490105,3.22716028 11.9908746,4.19059346 12.0755032,5.41791482 L12.0810527,5.57943925 L10.5810527,5.57943925 C10.5810527,5.14944865 10.2429505,4.78708465 9.79873905,4.73388066 L9.68560982,4.72716028 L6.39544289,4.72716028 C5.93515761,4.72716028 5.56164885,5.05644808 5.50690954,5.47349027 L5.5,5.57943925 L5.5,6.38127842 C5.5,6.81045554 5.83795468,7.17231551 6.28227963,7.22544677 L6.39544289,7.23215803 L9.68560982,7.23215803 C10.949085,7.23215803 11.9908808,8.19435959 12.0755036,9.42152699 L12.0810527,9.58303763 L12.0810527,10.3834774 C12.0810527,11.6324232 11.0918303,12.6478958 9.8490844,12.7303502 L9.68560982,12.7357564 L8.775,12.735 L8.77507113,15 L7.27507113,15 L7.275,12.735 L6.39544289,12.7357564 C5.13204222,12.7357564 4.0901781,11.7723232 4.00554949,10.5450019 L4,10.3834774 L5.5,10.3834774 C5.5,10.813468 5.8381022,11.175832 6.28231367,11.229036 L6.39544289,11.2357564 L9.68560982,11.2357564 C10.1458951,11.2357564 10.5194039,10.9064686 10.5741432,10.4894264 L10.5810527,10.3834774 L10.5810527,9.58303763 C10.5810527,9.15348587 10.2433515,8.79194291 9.79883158,8.73886264 L9.68560982,8.73215803 L6.39544289,8.73215803 C5.13215868,8.73215803 4.0901878,7.76948787 4.0055501,6.5427305 L4,6.38127842 L4,5.57943925 C4,4.33049349 4.98922242,3.31502089 6.23196832,3.23256649 L6.39544289,3.22716028 L7.275,3.227 L7.27507113,1 L8.77507113,1 Z" id="ec-simple-amount_Amount" /></g></symbol><symbol viewBox="0 0 16 16" id="ec-simple-arrow-drop-down"><!--Generator: Sketch 58 (84663) - https://sketch.com--><title>Graphics / 00 Icon / Simple / Arrow Drop Down</title><desc>Created with Sketch.</desc><g id="ec-simple-arrow-drop-down_Graphics-/-00-Icon-/-Simple-/-Arrow-Drop-Down" stroke="none" stroke-width="1" fill-rule="evenodd"><polygon id="ec-simple-arrow-drop-down_Colour" points="4.66666667 6.66666667 8 10 11.3333333 6.66666667" /></g></symbol><symbol viewBox="0 0 16 16" id="ec-simple-arrow-left"><!--Generator: Sketch 55.2 (78181) - https://sketchapp.com--><title>Graphics / 00 Icon / Simple / Arrow Left</title><desc>Created with Sketch.</desc><g id="ec-simple-arrow-left_Graphics-/-00-Icon-/-Simple-/-Arrow-Left" stroke="none" stroke-width="1" fill-rule="evenodd"><polygon id="ec-simple-arrow-left_Colour" points="13.3333333 7.33333333 5.22 7.33333333 8.94666667 3.60666667 8 2.66666667 2.66666667 8 8 13.3333333 8.94 12.3933333 5.22 8.66666667 13.3333333 8.66666667" /></g></symbol><symbol viewBox="0 0 16 16" id="ec-simple-arrow-right"><title>03 Graphics / 00 Icon / Simple / Arrow Right</title><g id="ec-simple-arrow-right_03-Graphics-/-00-Icon-/-Simple-/-Arrow-Right" stroke="none" stroke-width="1" fill-rule="evenodd"><polygon id="ec-simple-arrow-right_Arrow-right-Colour" transform="translate(8.000000, 8.000000) rotate(-180.000000) translate(-8.000000, -8.000000) " points="13.3333333 7.33333333 5.22 7.33333333 8.94666667 3.60666667 8 2.66666667 2.66666667 8 8 13.3333333 8.94 12.3933333 5.22 8.66666667 13.3333333 8.66666667" /></g></symbol><symbol viewBox="0 0 16 16" id="ec-simple-arrow-up-down"><!--Generator: Sketch 58 (84663) - https://sketch.com--><title>Graphics / 00 Icon / Simple / Arrow Up-Down</title><desc>Created with Sketch.</desc><g id="ec-simple-arrow-up-down_Graphics-/-00-Icon-/-Simple-/-Arrow-Up-Down" stroke="none" stroke-width="1" fill-rule="evenodd"><path d="M11.3333333,9.33333333 L8,12.6666667 L4.66666667,9.33333333 L11.3333333,9.33333333 Z M11.3333333,6.66666667 L8,3.33333333 L4.66666667,6.66666667 L11.3333333,6.66666667 Z" id="ec-simple-arrow-up-down_Colour" /></g></symbol><symbol viewBox="0 0 16 16" id="ec-simple-attachment"><!--Generator: Sketch 55.2 (78181) - https://sketchapp.com--><title>Graphics / 00 Icon / Simple / Attachment</title><desc>Created with Sketch.</desc><g id="ec-simple-attachment_Graphics-/-00-Icon-/-Simple-/-Attachment" stroke="none" stroke-width="1" fill-rule="evenodd"><path d="M11,4 L11,11.6666667 C11,13.14 9.80666667,14.3333333 8.33333333,14.3333333 C6.86,14.3333333 5.66666667,13.14 5.66666667,11.6666667 L5.66666667,3.33333333 C5.66666667,2.41333333 6.41333333,1.66666667 7.33333333,1.66666667 C8.25333333,1.66666667 9,2.41333333 9,3.33333333 L9,10.3333333 C9,10.7 8.7,11 8.33333333,11 C7.96666667,11 7.66666667,10.7 7.66666667,10.3333333 L7.66666667,4 L6.66666667,4 L6.66666667,10.3333333 C6.66666667,11.2533333 7.41333333,12 8.33333333,12 C9.25333333,12 10,11.2533333 10,10.3333333 L10,3.33333333 C10,1.86 8.80666667,0.666666667 7.33333333,0.666666667 C5.86,0.666666667 4.66666667,1.86 4.66666667,3.33333333 L4.66666667,11.6666667 C4.66666667,13.6933333 6.30666667,15.3333333 8.33333333,15.3333333 C10.36,15.3333333 12,13.6933333 12,11.6666667 L12,4 L11,4 Z" id="ec-simple-attachment_Colour" /></g></symbol><symbol viewBox="0 0 32 32" id="ec-simple-batch-payment"><!--Generator: Sketch 63.1 (92452) - https://sketch.com--><title>batchpayment</title><desc>Created with Sketch.</desc><g id="ec-simple-batch-payment_batchpayment" stroke="none" stroke-width="1" fill-rule="evenodd"><path d="M24.4323262,-7.01660952e-13 C26.4062884,-7.01660952e-13 28.1385409,1.78432817 28.1385409,3.81626136 L28.1385409,3.81626136 L28.1385409,28.1847212 C28.1385409,30.2166544 26.4062884,32 24.4323262,32 L24.4323262,32 L7.70621469,32 C5.73225252,32 4,30.2166544 4,28.1847212 L4,28.1847212 L4,7.87816261 C4,7.6767379 4.07958732,7.48022599 4.21812822,7.33677229 L4.21812822,7.33677229 L11.1048882,0.229918939 C11.2453943,0.0835175633 11.4409236,-7.01660952e-13 11.6423483,-7.01660952e-13 L11.6423483,-7.01660952e-13 Z M24.4323262,1.5406534 L12.3969541,1.5406534 L12.3969541,4.83124539 C12.3969541,6.8651437 10.6647015,8.64750676 8.69073938,8.64750676 L8.69073938,8.64750676 L5.51019406,8.64750676 L5.51019406,28.1847212 C5.51019406,29.3539671 6.57725375,30.4603292 7.70621469,30.4603292 L7.70621469,30.4603292 L24.4323262,30.4603292 C25.5612872,30.4603292 26.6293294,29.3539671 26.6293294,28.1847212 L26.6293294,28.1847212 L26.6293294,3.81626136 C26.6293294,2.64701548 25.5612872,1.5406534 24.4323262,1.5406534 L24.4323262,1.5406534 Z M20.0047163,24.8762466 C20.4213215,24.8762466 20.7603046,25.2221076 20.7603046,25.6455908 C20.7603046,26.0700565 20.4213215,26.4149349 20.0047163,26.4149349 L20.0047163,26.4149349 L12.1334316,26.4149349 C11.7168263,26.4149349 11.3788258,26.0700565 11.3788258,25.6455908 C11.3788258,25.2221076 11.7168263,24.8762466 12.1334316,24.8762466 L12.1334316,24.8762466 Z M16.0925571,12.700565 C16.1387374,12.700565 16.2340457,12.7084254 16.2684353,12.7231638 L16.2684353,12.7231638 L16.3735691,12.7654139 C16.4551216,12.7948907 16.4836158,12.8135593 16.5474822,12.8695652 L16.5474822,12.8695652 L21.0328666,17.4895603 C21.3237042,17.789241 21.3237042,18.2746254 21.0328666,18.5733235 C20.8903955,18.7197249 20.7007615,18.8002948 20.4973717,18.8002948 C20.2929993,18.8002948 20.1023827,18.7187423 19.9599116,18.5723409 L19.9599116,18.5723409 L16.824564,15.3367723 L16.824564,22.0928519 C16.824564,22.5163351 16.4855809,22.862196 16.0689757,22.862196 C15.6523704,22.862196 15.3143699,22.5163351 15.3143699,22.0928519 L15.3143699,22.0928519 L15.3143699,15.3367723 L12.1790224,18.5723409 C12.0365512,18.7197249 11.8449521,18.8002948 11.6425448,18.8002948 C11.439155,18.8002948 11.2475559,18.7197249 11.1050847,18.5723409 C10.8152297,18.2746254 10.8152297,17.789241 11.1050847,17.4895603 L11.1050847,17.4895603 L15.5324982,12.9216409 C15.7250798,12.7280766 15.8950626,12.7074429 16.081749,12.700565 L16.081749,12.700565 Z M10.88676,2.64505036 L6.56251535,7.10783591 L8.69073938,7.10783591 C9.81970032,7.10783591 10.88676,6.0024564 10.88676,4.83124539 L10.88676,4.83124539 L10.88676,2.64505036 Z" id="ec-simple-batch-payment_Combined-Shape" /></g></symbol><symbol viewBox="0 0 16 16" id="ec-simple-block"><!--Generator: Sketch 58 (84663) - https://sketch.com--><title>Graphics / 00 Icon / Simple / Block</title><desc>Created with Sketch.</desc><g id="ec-simple-block_Graphics-/-00-Icon-/-Simple-/-Block" stroke="none" stroke-width="1" fill-rule="evenodd"><path d="M8,1.33333333 C4.32,1.33333333 1.33333333,4.32 1.33333333,8 C1.33333333,11.68 4.32,14.6666667 8,14.6666667 C11.68,14.6666667 14.6666667,11.68 14.6666667,8 C14.6666667,4.32 11.68,1.33333333 8,1.33333333 Z M2.66666667,8 C2.66666667,5.05333333 5.05333333,2.66666667 8,2.66666667 C9.23333333,2.66666667 10.3666667,3.08666667 11.2666667,3.79333333 L3.79333333,11.2666667 C3.08666667,10.3666667 2.66666667,9.23333333 2.66666667,8 Z M8,13.3333333 C6.76666667,13.3333333 5.63333333,12.9133333 4.73333333,12.2066667 L12.2066667,4.73333333 C12.9133333,5.63333333 13.3333333,6.76666667 13.3333333,8 C13.3333333,10.9466667 10.9466667,13.3333333 8,13.3333333 Z" id="ec-simple-block_Colour" /></g></symbol><symbol viewBox="0 0 16 16" id="ec-simple-buy"><title>03 Graphics / 00 Icon / Simple / Buy</title><g id="ec-simple-buy_03-Graphics-/-00-Icon-/-Simple-/-Buy" stroke="none" stroke-width="1" fill-rule="evenodd"><polygon id="ec-simple-buy_Sell" transform="translate(8.000000, 8.000000) scale(-1, 1) translate(-8.000000, -8.000000) " points="14 8 11.4736842 5.5 11.4736842 7.375 2 7.375 2 8.625 11.4736842 8.625 11.4736842 10.5" /></g></symbol><symbol viewBox="0 0 16 16" id="ec-simple-calendar"><!--Generator: Sketch 58 (84663) - https://sketch.com--><title>Graphics / 00 Icon / Simple / Calendar</title><desc>Created with Sketch.</desc><defs><path d="M12.6666667,2 L12,2 L12,0.666666667 L10.6666667,0.666666667 L10.6666667,2 L5.33333333,2 L5.33333333,0.666666667 L4,0.666666667 L4,2 L3.33333333,2 C2.59333333,2 2.00666667,2.6 2.00666667,3.33333333 L2,12.6666667 C2,13.4 2.59333333,14 3.33333333,14 L12.6666667,14 C13.4,14 14,13.4 14,12.6666667 L14,3.33333333 C14,2.6 13.4,2 12.6666667,2 Z M12.6666667,12.6666667 L3.33333333,12.6666667 L3.33333333,5.33333333 L12.6666667,5.33333333 L12.6666667,12.6666667 Z M4.66666667,6.66666667 L8,6.66666667 L8,10 L4.66666667,10 L4.66666667,6.66666667 Z" id="ec-simple-calendar_path-1" /></defs><g id="ec-simple-calendar_Graphics-/-00-Icon-/-Simple-/-Calendar" stroke="none" stroke-width="1" fill-rule="evenodd"><use id="ec-simple-calendar_Shape" xlink:href="#ec-simple-calendar_path-1" /></g></symbol><mask id="ec-simple-calendar_mask-2"><use xlink:href="#ec-simple-calendar_path-1" /></mask><symbol viewBox="0 0 16 16" id="ec-simple-check"><!--Generator: Sketch 58 (84663) - https://sketch.com--><title>Graphics / 00 Icon / Simple / Check</title><desc>Created with Sketch.</desc><defs><polygon id="ec-simple-check_path-1" points="6.05112305 10.8718511 3.24743604 8.06816406 2.29270329 9.01617334 6.05112305 12.7745931 14.1192871 4.70642904 13.1712778 3.75841976" /></defs><g id="ec-simple-check_Graphics-/-00-Icon-/-Simple-/-Check" stroke="none" stroke-width="1" fill-rule="evenodd"><use id="ec-simple-check_Shape" xlink:href="#ec-simple-check_path-1" /></g></symbol><mask id="ec-simple-check_mask-2"><use xlink:href="#ec-simple-check_path-1" /></mask><symbol viewBox="0 0 16 16" id="ec-simple-chevron-down"><!--Generator: Sketch 58 (84663) - https://sketch.com--><title>Graphics / 00 Icon / Simple / Chevron Down</title><desc>Created with Sketch.</desc><g id="ec-simple-chevron-down_Graphics-/-00-Icon-/-Simple-/-Chevron-Down" stroke="none" stroke-width="1" fill-rule="evenodd"><polygon id="ec-simple-chevron-down_Colour" transform="translate(8.196667, 8.000000) rotate(-270.000000) translate(-8.196667, -8.000000) " points="6.66666667 4 5.72666667 4.94 8.78 8 5.72666667 11.06 6.66666667 12 10.6666667 8" /></g></symbol><symbol viewBox="0 0 16 16" id="ec-simple-chevron-left"><!--Generator: Sketch 58 (84663) - https://sketch.com--><title>Graphics / 00 Icon / Simple / Chevron Left</title><desc>Created with Sketch.</desc><g id="ec-simple-chevron-left_Graphics-/-00-Icon-/-Simple-/-Chevron-Left" stroke="none" stroke-width="1" fill-rule="evenodd"><polygon id="ec-simple-chevron-left_Colour" points="10.2733333 4.94 9.33333333 4 5.33333333 8 9.33333333 12 10.2733333 11.06 7.22 8" /></g></symbol><symbol viewBox="0 0 16 16" id="ec-simple-chevron-right"><!--Generator: Sketch 58 (84663) - https://sketch.com--><title>Graphics / 00 Icon / Simple / Chevron Right</title><desc>Created with Sketch.</desc><g id="ec-simple-chevron-right_Graphics-/-00-Icon-/-Simple-/-Chevron-Right" stroke="none" stroke-width="1" fill-rule="evenodd"><polygon id="ec-simple-chevron-right_Colour" points="6.66666667 4 5.72666667 4.94 8.78 8 5.72666667 11.06 6.66666667 12 10.6666667 8" /></g></symbol><symbol viewBox="0 0 16 16" id="ec-simple-chevron-up"><!--Generator: Sketch 58 (84663) - https://sketch.com--><title>Graphics / 00 Icon / Simple / Chevron Up</title><desc>Created with Sketch.</desc><g id="ec-simple-chevron-up_Graphics-/-00-Icon-/-Simple-/-Chevron-Up" stroke="none" stroke-width="1" fill-rule="evenodd"><polygon id="ec-simple-chevron-up_Colour" transform="translate(8.196667, 8.000000) rotate(-90.000000) translate(-8.196667, -8.000000) " points="6.66666667 4 5.72666667 4.94 8.78 8 5.72666667 11.06 6.66666667 12 10.6666667 8" /></g></symbol><symbol viewBox="0 0 16 16" id="ec-simple-close"><!--Generator: Sketch 58 (84663) - https://sketch.com--><title>Graphics / 00 Icon / Simple / Close</title><desc>Created with Sketch.</desc><g id="ec-simple-close_Graphics-/-00-Icon-/-Simple-/-Close" stroke="none" stroke-width="1" fill-rule="evenodd"><polygon id="ec-simple-close_Colour" points="13 4.00714286 11.9928571 3 8 6.99285714 4.00714286 3 3 4.00714286 6.99285714 8 3 11.9928571 4.00714286 13 8 9.00714286 11.9928571 13 13 11.9928571 9.00714286 8" /></g></symbol><symbol viewBox="0 0 16 16" id="ec-simple-cloud-upload"><title>03 Graphics / 00 Icon / Simple / Cloud Upload</title><g id="ec-simple-cloud-upload_03-Graphics-/-00-Icon-/-Simple-/-Cloud-Upload" stroke="none" stroke-width="1" fill-rule="evenodd"><path d="M12.9,6.69333333 C12.4466667,4.39333333 10.4266667,2.66666667 8,2.66666667 C6.07333333,2.66666667 4.4,3.76 3.56666667,5.36 C1.56,5.57333333 0,7.27333333 0,9.33333333 C0,11.54 1.79333333,13.3333333 4,13.3333333 L12.6666667,13.3333333 C14.5066667,13.3333333 16,11.84 16,10 C16,8.24 14.6333333,6.81333333 12.9,6.69333333 Z M9.33333333,8.66666667 L9.33333333,11.3333333 L6.66666667,11.3333333 L6.66666667,8.66666667 L4.66666667,8.66666667 L8,5.33333333 L11.3333333,8.66666667 L9.33333333,8.66666667 Z" id="ec-simple-cloud-upload_Cloud-upload-Colour" /></g></symbol><symbol viewBox="0 0 32 32" id="ec-simple-collect"><!--Generator: Sketch 63.1 (92452) - https://sketch.com--><title>collect</title><desc>Created with Sketch.</desc><g id="ec-simple-collect_collect" stroke="none" stroke-width="1" fill-rule="evenodd"><path d="M15.919746,1.60358833 C17.0179048,0.74302818 18.7205079,0.798580772 19.7241905,1.79650734 L19.7241905,1.79650734 L20.0848254,2.15507407 L25.8590476,2.15507407 C28.2565079,2.15507407 30.2069841,4.09436456 30.2069841,6.47706574 L30.2069841,6.47706574 L30.2069841,12.3828113 C31.2421587,12.7080465 31.9989841,13.6595109 32,14.7937938 L32,14.7937938 L32,21.9247265 C32,23.0600195 31.2421587,24.0114839 30.2069841,24.3367191 L30.2069841,24.3367191 L30.2069841,26.6780083 C30.2069841,29.0607095 28.2565079,31 25.8590476,31 L25.8590476,31 L4.34590476,31 C1.94946032,31 0,29.0607095 0,26.6780083 L0,26.6780083 L0,6.47706574 C0,4.09436456 1.94946032,2.15507407 4.34590476,2.15507407 L4.34590476,2.15507407 L15.3183492,2.15507407 L15.6779683,1.79751738 C15.752127,1.72378394 15.8384762,1.6672213 15.919746,1.60358833 Z M1.52380952,9.761739 L1.52380952,26.6780083 C1.52380952,28.2254005 2.7895873,29.4849293 4.34590476,29.4849293 L4.34590476,29.4849293 L25.8590476,29.4849293 C27.416381,29.4849293 28.6831746,28.2254005 28.6831746,26.6780083 L28.6831746,26.6780083 L28.6831746,24.4649951 L24.6633651,24.4649951 C22.2669206,24.4649951 20.3174603,22.5257046 20.3174603,20.1419934 C20.3174603,17.7592922 22.2669206,15.8200017 24.6633651,15.8200017 L24.6633651,15.8200017 L28.6831746,15.8200017 L28.6831746,13.6069884 C28.6831746,13.4322503 28.6628571,13.2635724 28.632381,13.0979247 C28.6232381,13.0494424 28.6100317,13.0029802 28.5988571,12.955508 C28.5693968,12.8332923 28.5328254,12.7151168 28.488127,12.5999714 C28.4708571,12.5565394 28.455619,12.5131074 28.4363175,12.4706854 C28.3692698,12.3201884 28.2930794,12.1747416 28.2016508,12.0393953 C28.199619,12.0373752 28.1975873,12.0353551 28.1965714,12.033335 C28.1071746,11.9030389 28.0035556,11.7828433 27.8938413,11.669718 C27.8542222,11.6283061 27.8105397,11.5899243 27.767873,11.5505325 C27.6926984,11.4818493 27.6144762,11.4182163 27.5321905,11.3576135 C27.4753016,11.3162015 27.4184127,11.2747896 27.3594921,11.2374179 C27.2782222,11.1869155 27.1928889,11.1434835 27.1055238,11.1000514 C27.0435556,11.06975 26.9846349,11.0354084 26.9206349,11.0091472 C26.9033651,11.0030869 26.8860952,11.0000568 26.8688254,10.9929865 C26.7184762,10.9344037 26.5640635,10.8859215 26.4066032,10.85461 C26.2288254,10.8192583 26.0469841,10.7990574 25.8590476,10.7990574 L25.8590476,10.7990574 L4.34590476,10.7990574 C4.06044444,10.7990574 3.78311111,10.768756 3.51187302,10.7152235 C3.42247619,10.6980527 3.3391746,10.6667412 3.25180952,10.6435101 C3.07403175,10.597048 2.89930159,10.5495758 2.73168254,10.4829127 C2.63415873,10.4435208 2.54374603,10.3930185 2.44926984,10.3475663 L2.3035485,10.2749926 C2.20692769,10.2256873 2.11166138,10.1738382 2.01955556,10.1152555 C1.92711111,10.0566728 1.84177778,9.99202975 1.75542857,9.92637668 C1.67822222,9.86981404 1.59492063,9.82335188 1.52380952,9.761739 L1.52380952,9.761739 Z M30.4761905,17.1189223 L30.4568889,17.1249826 C30.3563175,17.1684146 30.2466032,17.1966959 30.1399365,17.2280074 C30.0820317,17.2441681 30.0292063,17.2684093 29.9692698,17.2805298 C29.8006349,17.3158815 29.6248889,17.3350724 29.4450794,17.3350724 L29.4450794,17.3350724 L24.664381,17.3350724 C23.1080635,17.3350724 21.8412698,18.5946012 21.8412698,20.1419934 C21.8412698,21.6903956 23.1080635,22.9499244 24.664381,22.9499244 L24.664381,22.9499244 L29.4450794,22.9499244 C30.0139683,22.9499244 30.4761905,22.4903529 30.4761905,21.9247265 L30.4761905,21.9247265 L30.4761905,17.1189223 L30.4761905,17.1189223 Z M24.6645841,18.7909543 C25.4132825,18.7909543 26.0238222,19.3979926 26.0238222,20.1423974 C26.0238222,20.8868021 25.4132825,21.4938404 24.6645841,21.4938404 C23.9148698,21.4938404 23.3043302,20.8868021 23.3043302,20.1423974 C23.3043302,19.3979926 23.9148698,18.7909543 24.6645841,18.7909543 Z M30.2069841,14.1049417 L30.2069841,15.4695153 C30.2567619,15.4149728 30.2943492,15.3523499 30.3309206,15.2877068 C30.352254,15.2513452 30.3806984,15.2210437 30.3979683,15.1826619 C30.4467302,15.0624663 30.4761905,14.9321703 30.4761905,14.7948038 C30.4761905,14.5301715 30.3735873,14.2877602 30.2069841,14.1049417 L30.2069841,14.1049417 Z M25.8590476,3.67014476 L21.6086349,3.67014476 L24.1188571,6.16698127 L27.639873,9.66679457 C27.8491429,9.761739 28.0462222,9.87284419 28.2351746,9.99404984 C28.2951111,10.0334417 28.3469206,10.0778838 28.4048254,10.1192957 C28.4982857,10.1859588 28.5958095,10.2485817 28.6831746,10.3233252 L28.6831746,10.3233252 L28.6831746,6.47706574 C28.6831746,4.92866349 27.416381,3.67014476 25.8590476,3.67014476 L25.8590476,3.67014476 Z M13.7935238,3.67014476 L4.34590476,3.67014476 C2.7895873,3.67014476 1.52380952,4.92866349 1.52380952,6.47706574 C1.52380952,8.02546799 2.7895873,9.28398671 4.34590476,9.28398671 L4.34590476,9.28398671 L8.14730159,9.28398671 L8.27530159,9.15672077 L13.7935238,3.67014476 Z M22.895746,7.09319449 L20.6913016,9.28398671 L25.0991746,9.28398671 L22.895746,7.09319449 Z M20.6699683,4.88018122 L16.2387302,9.28398671 L18.5366349,9.28398671 L21.8189206,6.02254453 L20.6699683,4.88018122 Z M18.6453333,2.86816734 C18.1800635,2.40556576 17.3907302,2.39041505 16.8756825,2.79039371 C16.8380952,2.81968508 16.7903492,2.83382574 16.7558095,2.86816734 L16.7558095,2.86816734 L16.1726984,3.44793439 L10.3324444,9.25469534 L10.3019683,9.28398671 L14.0840635,9.28398671 L19.592127,3.80852122 Z" id="ec-simple-collect_Combined-Shape" /></g></symbol><symbol viewBox="0 0 32 32" id="ec-simple-convert-and-pay"><!--Generator: Sketch 63.1 (92452) - https://sketch.com--><title>Convertandpay</title><desc>Created with Sketch.</desc><g id="ec-simple-convert-and-pay_Convertandpay" stroke="none" stroke-width="1" fill-rule="evenodd"><path d="M31.2044658,14.7048207 C31.4823646,14.7048207 31.7680915,14.862437 31.8923631,15.1110988 L31.8923631,15.1110988 L31.9226972,15.1717958 C31.97358,15.2736101 32,15.3861932 32,15.4997553 C32,19.6418342 30.3874043,23.5362303 27.459682,26.4643697 C24.5388092,29.3885933 20.6462693,31 16.5002936,31 C12.3533393,31 8.46079935,29.3885933 5.53992664,26.4643697 L5.53992664,26.4643697 L3.90971762,24.8333833 L3.9263524,27.0576337 C3.92830944,27.336644 3.77174675,27.5931376 3.52222496,27.7184475 C3.42045921,27.7703336 3.24628321,27.8280937 3.13179675,27.8280937 C2.85194094,27.8280937 2.56621402,27.6694983 2.4429209,27.4178996 C2.39301655,27.3170643 2.33626257,27.1437842 2.33626257,27.0312011 L2.33626257,27.0312011 L2.33626257,23.0154111 C2.32843444,22.9331765 2.33528405,22.8499629 2.35583291,22.7687073 C2.36953214,22.7080103 2.390081,22.6492713 2.41650095,22.5924902 C2.50554598,22.3908197 2.68070049,22.2400562 2.89010309,22.1803382 C2.97034147,22.1539057 3.05840798,22.135305 3.13179675,22.135305 L3.13179675,22.135305 L7.26113773,22.135305 C7.53610096,22.135305 7.78757978,22.2890054 7.91380845,22.5337512 C7.96762688,22.6375235 8.02633789,22.8127615 8.02633789,22.9302395 C8.02633789,23.2092498 7.86781816,23.495113 7.61927489,23.6194439 C7.51750914,23.670351 7.34431166,23.7261531 7.23080371,23.7261531 L7.23080371,23.7261531 L5.05066823,23.7261531 L6.66424247,25.3414757 C9.28764607,27.9641724 12.7809511,29.4091519 16.5002936,29.4091519 C20.219636,29.4091519 23.712941,27.9641724 26.3363446,25.3414757 C28.9636623,22.7109472 30.4099102,19.2159764 30.4099102,15.4997553 C30.4099102,15.2227029 30.5664729,14.9387977 30.8140376,14.8134879 C30.9158034,14.7625807 31.0899794,14.7048207 31.2044658,14.7048207 Z M16.5002936,7.39475139 C20.9672228,7.39475139 24.6014343,11.0306959 24.6014343,15.4997553 C24.6014343,19.9688146 20.9672228,23.6047591 16.5002936,23.6047591 C12.0323858,23.6047591 8.39817428,19.9688146 8.39817428,15.4997553 C8.39817428,11.0306959 12.0323858,7.39475139 16.5002936,7.39475139 Z M16.5002936,8.86322654 C12.8416192,8.86322654 9.86594951,11.8403152 9.86594951,15.4997553 C9.86594951,19.1591953 12.8416192,22.136284 16.5002936,22.136284 C20.1579894,22.136284 23.1336591,19.1591953 23.1336591,15.4997553 C23.1336591,11.8403152 20.1579894,8.86322654 16.5002936,8.86322654 Z M16.4694703,10.3423726 C16.6641951,10.3423726 16.8814259,10.4197123 17.0193967,10.557749 C17.1573676,10.6957856 17.2650045,10.8827715 17.2650045,11.0766102 L17.2650045,11.0766102 L17.2640259,11.5132368 C18.4059551,11.796163 19.2014892,12.6792061 19.2014892,13.7335712 C19.2014892,14.1388704 18.8736861,14.4678088 18.4676016,14.4678088 C18.0624957,14.4678088 17.6720674,14.1388704 17.6720674,13.7335712 C17.6720674,13.3145663 17.124098,12.9474475 16.4998043,12.9474475 C15.8755106,12.9474475 15.3275411,13.3145663 15.3275411,13.7335712 C15.3275411,14.0801314 15.7130768,14.4080908 16.222884,14.4961993 L16.222884,14.4961993 L17.1162699,14.6978699 C18.4206328,14.9191202 19.3962141,15.937263 19.3962141,17.1110641 C19.3962141,18.240811 18.4901075,19.2041307 17.2650045,19.4929308 L17.2650045,19.4929308 L17.2650045,19.9227045 C17.2650045,20.1165432 17.1877016,20.3035291 17.0497308,20.4415657 C16.9127384,20.5796024 16.7258417,20.6569421 16.5311168,20.6569421 C16.1260109,20.6569421 15.7355827,20.3280037 15.7355827,19.9227045 L15.7355827,19.9227045 L15.7355827,19.4909728 C14.4948233,19.1962988 13.604373,18.2320001 13.604373,17.1110641 C13.604373,16.7057649 13.9331547,16.3768265 14.3382606,16.3768265 C14.7433666,16.3768265 15.1337948,16.7057649 15.1337948,17.1110641 L15.1419807,17.2117422 C15.2176776,17.6757809 15.8084495,18.0518672 16.4998043,18.0518672 C17.2405415,18.0518672 17.8667923,17.6201355 17.8667923,17.1110641 C17.8667923,16.6920592 17.415696,16.2994868 16.8178223,16.1976725 L16.8178223,16.1976725 L15.9244364,15.996002 C14.7091185,15.7884575 13.7990979,14.8339486 13.7990979,13.7335712 C13.7990979,12.6694162 14.6063742,11.7883311 15.7355827,11.5093209 L15.7355827,11.5093209 L15.7355827,11.0766102 C15.7355827,10.671311 16.0643643,10.3423726 16.4694703,10.3423726 Z M16.4997064,2.13162821e-13 C20.6456822,2.13162821e-13 24.5382221,1.61042775 27.4600734,4.53465128 L27.4600734,4.53465128 L29.0912609,6.16563768 L29.0736476,3.94334528 C29.0716906,3.66531399 29.2262962,3.40979931 29.473861,3.28351045 C29.5775838,3.23064534 29.7527383,3.17190633 29.8682033,3.17190633 C30.1451235,3.17190633 30.4288934,3.3275647 30.5541435,3.57426853 C30.6060049,3.67706179 30.6637374,3.85229982 30.6637374,3.96781987 L30.6637374,3.96781987 L30.6637374,7.98850484 C30.670587,8.06290758 30.6656945,8.13926829 30.6480812,8.21367103 C30.6324249,8.29296869 30.6040479,8.37128736 30.5668643,8.44373214 C30.5355517,8.50442911 30.4954325,8.56121015 30.4494422,8.61015932 C30.4151942,8.64833968 30.3760535,8.6826041 30.3349558,8.71099462 C30.2684166,8.75798582 30.1940494,8.79420821 30.1147895,8.81770381 C30.0335726,8.84511535 29.943549,8.86469502 29.8682033,8.86469502 L29.8682033,8.86469502 L25.7388623,8.86469502 C25.4609635,8.86469502 25.2065491,8.70707868 25.0822775,8.45841689 C25.0313946,8.35660261 24.9736621,8.18234356 24.9736621,8.06878148 C24.9736621,7.7897712 25.1331604,7.50292906 25.3836607,7.37957714 C25.4844479,7.32964899 25.6566669,7.27384693 25.7691963,7.27384693 L25.7691963,7.27384693 L27.9493318,7.27384693 L26.3357575,5.65950324 C23.7123539,3.03582764 20.2200274,1.59084808 16.4997064,1.59084808 C12.780364,1.59084808 9.28705896,3.03582764 6.66463388,5.65950324 C4.03731621,8.28905275 2.59008983,11.7840236 2.59008983,15.5002447 C2.59008983,15.779255 2.43157011,16.0651182 2.18204832,16.1884701 C2.08028257,16.2383983 1.90904213,16.2951793 1.79553418,16.2951793 C1.51959243,16.2951793 1.23680107,16.1414789 1.11155092,15.8957541 C1.05871101,15.7919818 1,15.6167438 1,15.5002447 C1,11.3571868 2.61259572,7.46279073 5.54031805,4.53465128 C8.46216928,1.61042775 12.3547092,2.13162821e-13 16.4997064,2.13162821e-13 Z" id="ec-simple-convert-and-pay_Combined-Shape" /></g></symbol><symbol viewBox="0 0 16 16" id="ec-simple-copy"><!--Generator: Sketch 55.2 (78181) - https://sketchapp.com--><title>Graphics / 00 Icon / Simple / Copy</title><desc>Created with Sketch.</desc><g id="ec-simple-copy_Graphics-/-00-Icon-/-Simple-/-Copy" stroke="none" stroke-width="1" fill-rule="evenodd"><path d="M11.3333333,0.666666667 L3.33333333,0.666666667 C2.6,0.666666667 2,1.26666667 2,2 L2,11.3333333 L3.33333333,11.3333333 L3.33333333,2 L11.3333333,2 L11.3333333,0.666666667 Z M13.3333333,3.33333333 L6,3.33333333 C5.26666667,3.33333333 4.66666667,3.93333333 4.66666667,4.66666667 L4.66666667,14 C4.66666667,14.7333333 5.26666667,15.3333333 6,15.3333333 L13.3333333,15.3333333 C14.0666667,15.3333333 14.6666667,14.7333333 14.6666667,14 L14.6666667,4.66666667 C14.6666667,3.93333333 14.0666667,3.33333333 13.3333333,3.33333333 Z M13.3333333,14 L6,14 L6,4.66666667 L13.3333333,4.66666667 L13.3333333,14 Z" id="ec-simple-copy_Colour" /></g></symbol><symbol viewBox="0 0 16 16" id="ec-simple-dashboard"><!--Generator: Sketch 58 (84663) - https://sketch.com--><title>Graphics / 00 Icon / Simple / Dashboard</title><desc>Created with Sketch.</desc><g id="ec-simple-dashboard_Graphics-/-00-Icon-/-Simple-/-Dashboard" stroke="none" stroke-width="1" fill-rule="evenodd"><path d="M2,8.66666667 L7.33333333,8.66666667 L7.33333333,2 L2,2 L2,8.66666667 Z M2,14 L7.33333333,14 L7.33333333,10 L2,10 L2,14 Z M8.66666667,14 L14,14 L14,7.33333333 L8.66666667,7.33333333 L8.66666667,14 Z M8.66666667,2 L8.66666667,6 L14,6 L14,2 L8.66666667,2 Z" id="ec-simple-dashboard_Colour" /></g></symbol><symbol viewBox="0 0 10 12" id="ec-simple-delete"><title>03 Graphics / 00 Icon / Simple / Delete</title><g id="ec-simple-delete_Colour" stroke="none" stroke-width="1" fill-rule="evenodd"><g id="ec-simple-delete_Colour" transform="translate(-3.000000, -2.000000)"><path d="M4,12.6666667 C4,13.4 4.6,14 5.33333333,14 L10.6666667,14 C11.4,14 12,13.4 12,12.6666667 L12,4.66666667 L4,4.66666667 L4,12.6666667 Z M12.6666667,2.66666667 L10.3333333,2.66666667 L9.66666667,2 L6.33333333,2 L5.66666667,2.66666667 L3.33333333,2.66666667 L3.33333333,4 L12.6666667,4 L12.6666667,2.66666667 Z" /></g></g></symbol><symbol viewBox="0 0 16 16" id="ec-simple-document"><path fill-rule="evenodd" clip-rule="evenodd" d="M9.25 2H4.25C3.5625 2 3.00625 2.54 3.00625 3.2L3 12.8C3 13.46 3.55625 14 4.24375 14H11.75C12.4375 14 13 13.46 13 12.8V5.6L9.25 2ZM4.25 12.8V3.2H8.625V6.2H11.75V12.8H4.25Z" /></symbol><symbol viewBox="0 0 16 16" id="ec-simple-download"><!--Generator: Sketch 55.2 (78181) - https://sketchapp.com--><title>Graphics / 00 Icon / Simple / Download</title><desc>Created with Sketch.</desc><g id="ec-simple-download_Graphics-/-00-Icon-/-Simple-/-Download" stroke="none" stroke-width="1" fill-rule="evenodd"><path d="M12.6666667,6 L10,6 L10,2 L6,2 L6,6 L3.33333333,6 L8,10.6666667 L12.6666667,6 Z M3.33333333,12 L3.33333333,13.3333333 L12.6666667,13.3333333 L12.6666667,12 L3.33333333,12 Z" id="ec-simple-download_Colour" /></g></symbol><symbol viewBox="0 0 16 16" id="ec-simple-drawdown"><title>03 Graphics / 00 Icon / Simple / Drawdown</title><g id="ec-simple-drawdown_03-Graphics-/-00-Icon-/-Simple-/-Drawdown" stroke="none" stroke-width="1" fill-rule="evenodd"><path d="M6.52,7.412 L5.57333333,8.406 C5.12,7.923 4.68,7.3 4.38,6.348 L5.67333333,6.005 C5.88666667,6.628 6.18666667,7.055 6.52,7.412 Z M7.33333333,3.8 L4.66666667,1 L2,3.8 L4.01333333,3.8 C4.02666667,4.367 4.06666667,4.878 4.14,5.319 L5.43333333,4.976 C5.38666667,4.64 5.35333333,4.241 5.34666667,3.8 L7.33333333,3.8 Z M14,3.8 L11.3333333,1 L8.66666667,3.8 L10.66,3.8 C10.5933333,6.376 9.80666667,7.125 8.96666667,7.916 C8.63333333,8.224 8.29333333,8.56 8,9.001 C7.77333333,8.658 7.51333333,8.385 7.24666667,8.133 L6.30666667,9.12 C6.92666667,9.715 7.33333333,10.198 7.33333333,11.5 C7.33333333,11.5 7.33333333,11.5 7.33333333,11.5 L7.33333333,11.5 L7.33333333,15 L8.66666667,15 L8.66666667,11.5 C8.66666667,11.5 8.66666667,11.5 8.66666667,11.5 C8.66666667,10.086 9.14,9.638 9.86,8.959 C10.78,8.091 11.9133333,7.013 11.9933333,3.8 L14,3.8 Z" id="ec-simple-drawdown_Drawdown---Colour" transform="translate(8.000000, 8.000000) scale(-1, 1) rotate(270.000000) translate(-8.000000, -8.000000) " /></g></symbol><symbol viewBox="0 0 16 16" id="ec-simple-edit"><!--Generator: Sketch 55.2 (78181) - https://sketchapp.com--><title>Graphics / 00 Icon / Simple / Edit</title><desc>Created with Sketch.</desc><g id="ec-simple-edit_Graphics-/-00-Icon-/-Simple-/-Edit" stroke="none" stroke-width="1" fill-rule="evenodd"><path d="M2,11.5 L2,14 L4.5,14 L11.8733333,6.62666667 L9.37333333,4.12666667 L2,11.5 Z M13.8066667,4.69333333 C14.0666667,4.43333333 14.0666667,4.01333333 13.8066667,3.75333333 L12.2466667,2.19333333 C11.9866667,1.93333333 11.5666667,1.93333333 11.3066667,2.19333333 L10.0866667,3.41333333 L12.5866667,5.91333333 L13.8066667,4.69333333 Z" id="ec-simple-edit_Colour" /></g></symbol><symbol viewBox="0 0 16 16" id="ec-simple-error"><!--Generator: Sketch 58 (84663) - https://sketch.com--><title>Graphics / 00 Icon / Simple / Error</title><desc>Created with Sketch.</desc><defs><path d="M7.3,10.1 L8.7,10.1 L8.7,11.5 L7.3,11.5 L7.3,10.1 Z M7.3,4.5 L8.7,4.5 L8.7,8.7 L7.3,8.7 L7.3,4.5 Z M7.993,1 C4.129,1 1,4.136 1,8 C1,11.864 4.129,15 7.993,15 C11.864,15 15,11.864 15,8 C15,4.136 11.864,1 7.993,1 Z M8,13.6 C4.906,13.6 2.4,11.094 2.4,8 C2.4,4.906 4.906,2.4 8,2.4 C11.094,2.4 13.6,4.906 13.6,8 C13.6,11.094 11.094,13.6 8,13.6 Z" id="ec-simple-error_path-1" /></defs><g id="ec-simple-error_Graphics-/-00-Icon-/-Simple-/-Error" stroke="none" stroke-width="1" fill-rule="evenodd"><use id="ec-simple-error_Colour" xlink:href="#ec-simple-error_path-1" /></g></symbol><mask id="ec-simple-error_mask-2"><use xlink:href="#ec-simple-error_path-1" /></mask><symbol viewBox="0 0 16 16" id="ec-simple-fee"><title>03 Graphics / 00 Icon / Simple / Fee</title><g id="ec-simple-fee_03-Graphics-/-00-Icon-/-Simple-/-Fee" stroke="none" stroke-width="1" fill-rule="evenodd"><path d="M5.17412379,7.42685371 C5.98347005,7.42685371 6.62602535,7.20774883 7.10178971,6.76953908 C7.57755406,6.33132933 7.81543624,5.75150301 7.81543624,5.03006012 L7.81543624,5.03006012 L7.81543624,4.45290581 C7.81543624,3.6993988 7.57755406,3.10220441 7.10178971,2.66132265 C6.62602535,2.22044088 5.97800149,2 5.15771812,2 C4.34837186,2 3.70308228,2.22177689 3.22184937,2.66533066 C2.74061646,3.10888444 2.5,3.69138277 2.5,4.41282565 L2.5,4.41282565 L2.5,4.98196393 C2.5,5.74081496 2.74471787,6.33800935 3.23415362,6.77354709 C3.72358936,7.20908484 4.37024609,7.42685371 5.17412379,7.42685371 Z M5.69910515,12.9659319 L11.5313199,3.84368737 L10.243475,3.21042084 L4.41126025,12.3326653 L5.69910515,12.9659319 Z M10.834079,10.0320641 C11.1075068,10.0320641 11.3235148,10.1189045 11.4821029,10.2925852 C11.6142597,10.4373191 11.6913511,10.620092 11.7133772,10.840904 L11.7199851,10.9779559 L11.7117823,11.8036072 C11.6680338,12.2952572 11.3809346,12.5410822 10.8504847,12.5410822 C10.5989311,12.5410822 10.3856575,12.4462258 10.2106637,12.256513 C10.0648355,12.0984191 9.97976911,11.9189861 9.95546441,11.7182142 L9.94817301,11.5951904 L9.94817301,10.9378758 C9.95911012,10.6599866 10.0438727,10.4395458 10.2024609,10.2765531 C10.361049,10.1135605 10.5715884,10.0320641 10.834079,10.0320641 Z M5.15771812,3.45891784 C5.43661447,3.45891784 5.65262242,3.54843019 5.80574198,3.72745491 C5.93334162,3.87664217 6.00777474,4.06015735 6.02904135,4.27800045 L6.03542133,4.41282565 L6.03542133,4.89378758 C6.03542133,5.60988644 5.74832215,5.96793587 5.17412379,5.96793587 C4.89522744,5.96793587 4.67648521,5.88109552 4.51789709,5.70741483 C4.38574033,5.56268092 4.30864888,5.38176353 4.28662275,5.16466266 L4.28001491,5.03006012 L4.28001491,4.42885772 C4.28001491,4.12959252 4.35930897,3.89311957 4.51789709,3.71943888 C4.67648521,3.54575818 4.88975889,3.45891784 5.15771812,3.45891784 Z M10.8504847,14 C11.6652995,14 12.3105891,13.7808951 12.7863535,13.3426854 C13.2621178,12.9044756 13.5,12.3219773 13.5,11.5951904 L13.5,11.5951904 L13.5,11.0340681 C13.5,10.259185 13.2593835,9.65531062 12.7781506,9.22244489 C12.2969177,8.78957916 11.6488939,8.57314629 10.834079,8.57314629 C10.0302013,8.57314629 9.3862789,8.79225117 8.90231171,9.23046092 C8.41834452,9.66867067 8.17636092,10.251169 8.17636092,10.9779559 L8.17636092,10.9779559 L8.17636092,11.5551102 C8.17636092,12.3139613 8.4210788,12.9111556 8.91051454,13.3466934 C9.39995029,13.7822311 10.046607,14 10.8504847,14 Z" id="ec-simple-fee_Icon-Fee" /></g></symbol><symbol viewBox="0 0 16 16" id="ec-simple-hedging"><title>03 Graphics / 00 Icon / Simple / Hedging</title><g id="ec-simple-hedging_03-Graphics-/-00-Icon-/-Simple-/-Hedging" stroke="none" stroke-width="1" fill-rule="evenodd"><path d="M11.272727,9.24025968 L8.99743785,7 L8.99743785,8.68019472 L5,8.68019472 L5,9.80032456 L8.99743785,9.80032456 L8.99743785,11.4805193 L11.272727,9.24025968 Z M12.6666667,2.33333333 L12,2.33333333 L12,1 L10.6666667,1 L10.6666667,2.33333333 L5.33333333,2.33333333 L5.33333333,1 L4,1 L4,2.33333333 L3.33333333,2.33333333 C2.59333333,2.33333333 2.00666667,2.93333333 2.00666667,3.66666667 L2,13 C2,13.7333333 2.59333333,14.3333333 3.33333333,14.3333333 L12.6666667,14.3333333 C13.4,14.3333333 14,13.7333333 14,13 L14,3.66666667 C14,2.93333333 13.4,2.33333333 12.6666667,2.33333333 Z M12.6666667,13 L3.33333333,13 L3.33333333,5.66666667 L12.6666667,5.66666667 L12.6666667,13 Z" id="ec-simple-hedging_Hedging-Colour" /></g></symbol><symbol viewBox="0 0 16 16" id="ec-simple-help"><!--Generator: Sketch 58 (84663) - https://sketch.com--><title>Graphics / 00 Icon / Simple / Help</title><desc>Created with Sketch.</desc><g id="ec-simple-help_Graphics-/-00-Icon-/-Simple-/-Help" stroke="none" stroke-width="1" fill-rule="evenodd"><path d="M12.6666667,1.33333333 L3.33333333,1.33333333 C2.59333333,1.33333333 2,1.93333333 2,2.66666667 L2,12 C2,12.7333333 2.59333333,13.3333333 3.33333333,13.3333333 L6,13.3333333 L8,15.3333333 L10,13.3333333 L12.6666667,13.3333333 C13.4,13.3333333 14,12.7333333 14,12 L14,2.66666667 C14,1.93333333 13.4,1.33333333 12.6666667,1.33333333 Z M8.66666667,12 L7.33333333,12 L7.33333333,10.6666667 L8.66666667,10.6666667 L8.66666667,12 Z M10.0466667,6.83333333 L9.44666667,7.44666667 C8.96666667,7.93333333 8.66666667,8.33333333 8.66666667,9.33333333 L7.33333333,9.33333333 L7.33333333,9 C7.33333333,8.26666667 7.63333333,7.6 8.11333333,7.11333333 L8.94,6.27333333 C9.18666667,6.03333333 9.33333333,5.7 9.33333333,5.33333333 C9.33333333,4.6 8.73333333,4 8,4 C7.26666667,4 6.66666667,4.6 6.66666667,5.33333333 L5.33333333,5.33333333 C5.33333333,3.86 6.52666667,2.66666667 8,2.66666667 C9.47333333,2.66666667 10.6666667,3.86 10.6666667,5.33333333 C10.6666667,5.92 10.4266667,6.45333333 10.0466667,6.83333333 Z" id="ec-simple-help_Colour" /></g></symbol><symbol viewBox="0 0 16 16" id="ec-simple-info"><!--Generator: Sketch 58 (84663) - https://sketch.com--><title>Graphics / 00 Icon / Simple / Info</title><desc>Created with Sketch.</desc><g id="ec-simple-info_Graphics-/-00-Icon-/-Simple-/-Info" stroke="none" stroke-width="1" fill-rule="evenodd"><path d="M7.3,10.1 L8.7,10.1 L8.7,11.5 L7.3,11.5 L7.3,10.1 Z M7.3,4.5 L8.7,4.5 L8.7,8.7 L7.3,8.7 L7.3,4.5 Z M7.993,1 C4.129,1 1,4.136 1,8 C1,11.864 4.129,15 7.993,15 C11.864,15 15,11.864 15,8 C15,4.136 11.864,1 7.993,1 Z M8,13.6 C4.906,13.6 2.4,11.094 2.4,8 C2.4,4.906 4.906,2.4 8,2.4 C11.094,2.4 13.6,4.906 13.6,8 C13.6,11.094 11.094,13.6 8,13.6 Z" id="ec-simple-info_Colour" transform="translate(8.000000, 8.000000) rotate(-180.000000) translate(-8.000000, -8.000000) " /></g></symbol><symbol viewBox="0 0 16 16" id="ec-simple-loading"><!--Generator: Sketch 58 (84663) - https://sketch.com--><title>Graphics / 00 Icon / Simple / Loading</title><desc>Created with Sketch.</desc><g id="ec-simple-loading_Graphics-/-00-Icon-/-Simple-/-Loading..." stroke="none" stroke-width="1" fill-rule="evenodd"><path d="M8,2.66666667 C5.05466667,2.66666667 2.66666667,5.05466667 2.66666667,8 L4,8 C4,5.794 5.794,4 8,4 C10.206,4 12,5.794 12,8 C12,10.206 10.206,12 8,12 L8,13.3333333 C10.9453333,13.3333333 13.3333333,10.9453333 13.3333333,8 C13.3333333,5.05466667 10.9453333,2.66666667 8,2.66666667" id="ec-simple-loading_Colour" /></g></symbol><symbol viewBox="0 0 16 16" id="ec-simple-more"><!--Generator: Sketch 58 (84663) - https://sketch.com--><title>Graphics / 00 Icon / Simple / More</title><desc>Created with Sketch.</desc><g id="ec-simple-more_Graphics-/-00-Icon-/-Simple-/-More" stroke="none" stroke-width="1" fill-rule="evenodd"><path d="M4,6.66666667 C3.26666667,6.66666667 2.66666667,7.26666667 2.66666667,8 C2.66666667,8.73333333 3.26666667,9.33333333 4,9.33333333 C4.73333333,9.33333333 5.33333333,8.73333333 5.33333333,8 C5.33333333,7.26666667 4.73333333,6.66666667 4,6.66666667 Z M12,6.66666667 C11.2666667,6.66666667 10.6666667,7.26666667 10.6666667,8 C10.6666667,8.73333333 11.2666667,9.33333333 12,9.33333333 C12.7333333,9.33333333 13.3333333,8.73333333 13.3333333,8 C13.3333333,7.26666667 12.7333333,6.66666667 12,6.66666667 Z M8,6.66666667 C7.26666667,6.66666667 6.66666667,7.26666667 6.66666667,8 C6.66666667,8.73333333 7.26666667,9.33333333 8,9.33333333 C8.73333333,9.33333333 9.33333333,8.73333333 9.33333333,8 C9.33333333,7.26666667 8.73333333,6.66666667 8,6.66666667 Z" id="ec-simple-more_Colour" /></g></symbol><symbol viewBox="0 0 16 16" id="ec-simple-outline-delete"><path fill-rule="evenodd" clip-rule="evenodd" d="M10.8571 6V12.6667H5.14286V6H10.8571ZM9.78571 2H6.21429L5.5 2.66667H3V4H13V2.66667H10.5L9.78571 2ZM12.2857 4.66667H3.71429V12.6667C3.71429 13.4 4.35714 14 5.14286 14H10.8571C11.6429 14 12.2857 13.4 12.2857 12.6667V4.66667Z" /></symbol><symbol viewBox="0 0 16 16" id="ec-simple-payment"><!--Generator: Sketch 58 (84663) - https://sketch.com--><title>Graphics / 00 Icon / Simple / Payment</title><desc>Created with Sketch.</desc><g id="ec-simple-payment_Graphics-/-00-Icon-/-Simple-/-Payment" stroke="none" stroke-width="1" fill-rule="evenodd"><path d="M13.3333333,2.66666667 L2.66666667,2.66666667 C1.92666667,2.66666667 1.34,3.26 1.34,4 L1.33333333,12 C1.33333333,12.74 1.92666667,13.3333333 2.66666667,13.3333333 L13.3333333,13.3333333 C14.0733333,13.3333333 14.6666667,12.74 14.6666667,12 L14.6666667,4 C14.6666667,3.26 14.0733333,2.66666667 13.3333333,2.66666667 Z M13.3333333,12 L2.66666667,12 L2.66666667,8 L13.3333333,8 L13.3333333,12 Z M13.3333333,5.33333333 L2.66666667,5.33333333 L2.66666667,4 L13.3333333,4 L13.3333333,5.33333333 Z" id="ec-simple-payment_Colour" /></g></symbol><symbol viewBox="0 0 16 16" id="ec-simple-person"><!--Generator: Sketch 58 (84663) - https://sketch.com--><title>Graphics / 00 Icon / Simple / Person</title><desc>Created with Sketch.</desc><g id="ec-simple-person_Graphics-/-00-Icon-/-Simple-/-Person" stroke="none" stroke-width="1" fill-rule="evenodd"><path d="M8,8 C9.47333333,8 10.6666667,6.80666667 10.6666667,5.33333333 C10.6666667,3.86 9.47333333,2.66666667 8,2.66666667 C6.52666667,2.66666667 5.33333333,3.86 5.33333333,5.33333333 C5.33333333,6.80666667 6.52666667,8 8,8 Z M8,9.33333333 C6.22,9.33333333 2.66666667,10.2266667 2.66666667,12 L2.66666667,13.3333333 L13.3333333,13.3333333 L13.3333333,12 C13.3333333,10.2266667 9.78,9.33333333 8,9.33333333 Z" id="ec-simple-person_Colour" /></g></symbol><symbol viewBox="0 0 16 16" id="ec-simple-reason"><title>03 Graphics / 00 Icon / Simple / Reason</title><g id="ec-simple-reason_03-Graphics-/-00-Icon-/-Simple-/-Reason" stroke="none" stroke-width="1" fill-rule="evenodd"><path d="M9.5,11.75 L2,11.75 L2,13.25 L9.5,13.25 L9.5,11.75 Z M14,5.75 L2,5.75 L2,7.25 L14,7.25 L14,5.75 Z M2,10.25 L14,10.25 L14,8.75 L2,8.75 L2,10.25 Z M2,2.75 L2,4.25 L14,4.25 L14,2.75 L2,2.75 Z" id="ec-simple-reason_Reason" /></g></symbol><symbol viewBox="0 0 16 16" id="ec-simple-refresh"><path fill-rule="evenodd" clip-rule="evenodd" d="M11.7667 4.23334C10.8 3.26667 9.47333 2.66667 8 2.66667C5.05333 2.66667 2.67333 5.05334 2.67333 8C2.67333 10.9467 5.05333 13.3333 8 13.3333C10.4867 13.3333 12.56 11.6333 13.1533 9.33334H11.7667C11.22 10.8867 9.74 12 8 12C5.79333 12 4 10.2067 4 8C4 5.79334 5.79333 4.00001 8 4.00001C9.10667 4.00001 10.0933 4.46 10.8133 5.18667L8.66667 7.33334H13.3333V2.66667L11.7667 4.23334Z" /></symbol><symbol viewBox="0 0 16 16" id="ec-simple-request"><!--Generator: Sketch 58 (84663) - https://sketch.com--><title>Graphics / 00 Icon / Simple / Request</title><desc>Created with Sketch.</desc><g id="ec-simple-request_Graphics-/-00-Icon-/-Simple-/-Request" stroke="none" stroke-width="1" fill-rule="evenodd"><polygon id="ec-simple-request_Colour" points="12.6666667 10 8.66666667 14 7.72 13.0533333 10.1133333 10.6666667 2.66666667 10.6666667 2.66666667 2.66666667 4 2.66666667 4 9.33333333 10.1133333 9.33333333 7.72 6.94666667 8.66666667 6" /></g></symbol><symbol viewBox="0 0 16 16" id="ec-simple-search"><!--Generator: Sketch 58 (84663) - https://sketch.com--><title>Graphics / 00 Icon / Simple / Search</title><desc>Created with Sketch.</desc><g id="ec-simple-search_Graphics-/-00-Icon-/-Simple-/-Search" stroke="none" stroke-width="1" fill-rule="evenodd"><path d="M10.3333333,9.33333333 L9.80666667,9.33333333 L9.62,9.15333333 C10.2733333,8.39333333 10.6666667,7.40666667 10.6666667,6.33333333 C10.6666667,3.94 8.72666667,2 6.33333333,2 C3.94,2 2,3.94 2,6.33333333 C2,8.72666667 3.94,10.6666667 6.33333333,10.6666667 C7.40666667,10.6666667 8.39333333,10.2733333 9.15333333,9.62 L9.33333333,9.80666667 L9.33333333,10.3333333 L12.6666667,13.66 L13.66,12.6666667 L10.3333333,9.33333333 Z M6.33333333,9.33333333 C4.67333333,9.33333333 3.33333333,7.99333333 3.33333333,6.33333333 C3.33333333,4.67333333 4.67333333,3.33333333 6.33333333,3.33333333 C7.99333333,3.33333333 9.33333333,4.67333333 9.33333333,6.33333333 C9.33333333,7.99333333 7.99333333,9.33333333 6.33333333,9.33333333 Z" id="ec-simple-search_Colour" /></g></symbol><symbol viewBox="0 0 16 16" id="ec-simple-sell"><title>03 Graphics / 00 Icon / Simple / Sell</title><g id="ec-simple-sell_03-Graphics-/-00-Icon-/-Simple-/-Sell" stroke="none" stroke-width="1" fill-rule="evenodd"><polygon id="ec-simple-sell_Sell" points="14 8 11.4736842 5.5 11.4736842 7.375 2 7.375 2 8.625 11.4736842 8.625 11.4736842 10.5" /></g></symbol><symbol viewBox="0 0 16 16" id="ec-simple-sign-out"><!--Generator: Sketch 58 (84663) - https://sketch.com--><title>Graphics / 00 Icon / Simple / Sign out</title><desc>Created with Sketch.</desc><g id="ec-simple-sign-out_Graphics-/-00-Icon-/-Simple-/-Sign-out" stroke="none" stroke-width="1" fill-rule="evenodd"><path d="M8.66666667,2 L7.33333333,2 L7.33333333,8.66666667 L8.66666667,8.66666667 L8.66666667,2 Z M11.8866667,3.44666667 L10.94,4.39333333 C11.9933333,5.24 12.6666667,6.54 12.6666667,8 C12.6666667,10.58 10.58,12.6666667 8,12.6666667 C5.42,12.6666667 3.33333333,10.58 3.33333333,8 C3.33333333,6.54 4.00666667,5.24 5.05333333,4.38666667 L4.11333333,3.44666667 C2.82,4.54666667 2,6.17333333 2,8 C2,11.3133333 4.68666667,14 8,14 C11.3133333,14 14,11.3133333 14,8 C14,6.17333333 13.18,4.54666667 11.8866667,3.44666667 Z" id="ec-simple-sign-out_Colour" /></g></symbol><symbol viewBox="0 0 16 16" id="ec-simple-thumb-down"><title>Graphics / 00 Icon / Simple / Thumb Down</title><g id="ec-simple-thumb-down_Graphics-/-00-Icon-/-Simple-/-Thumb-Down" stroke="none" stroke-width="1" fill-rule="evenodd"><path d="M10,2 L4,2 C3.44666667,2 2.97333333,2.33333333 2.77333333,2.81333333 L0.76,7.51333333 C0.7,7.66666667 0.666666667,7.82666667 0.666666667,8 L0.666666667,9.27333333 L0.673333333,9.28 L0.666666667,9.33333333 C0.666666667,10.0666667 1.26666667,10.6666667 2,10.6666667 L6.20666667,10.6666667 L5.57333333,13.7133333 L5.55333333,13.9266667 C5.55333333,14.2 5.66666667,14.4533333 5.84666667,14.6333333 L6.55333333,15.3333333 L10.9466667,10.94 C11.1866667,10.7 11.3333333,10.3666667 11.3333333,10 L11.3333333,3.33333333 C11.3333333,2.6 10.7333333,2 10,2 Z M12.6666667,2 L12.6666667,10 L15.3333333,10 L15.3333333,2 L12.6666667,2 Z" id="ec-simple-thumb-down_Colour" /></g></symbol><symbol viewBox="0 0 16 16" id="ec-simple-thumb-up"><title>Graphics / 00 Icon / Simple / Thumb Up</title><g id="ec-simple-thumb-up_Graphics-/-00-Icon-/-Simple-/-Thumb-Up" stroke="none" stroke-width="1" fill-rule="evenodd"><path d="M0.666666667,14 L3.33333333,14 L3.33333333,6 L0.666666667,6 L0.666666667,14 Z M15.3333333,6.66666667 C15.3333333,5.93333333 14.7333333,5.33333333 14,5.33333333 L9.79333333,5.33333333 L10.4266667,2.28666667 L10.4466667,2.07333333 C10.4466667,1.8 10.3333333,1.54666667 10.1533333,1.36666667 L9.44666667,0.666666667 L5.06,5.06 C4.81333333,5.3 4.66666667,5.63333333 4.66666667,6 L4.66666667,12.6666667 C4.66666667,13.4 5.26666667,14 6,14 L12,14 C12.5533333,14 13.0266667,13.6666667 13.2266667,13.1866667 L15.24,8.48666667 C15.3,8.33333333 15.3333333,8.17333333 15.3333333,8 L15.3333333,6.72666667 L15.3266667,6.72 L15.3333333,6.66666667 Z" id="ec-simple-thumb-up_Colour" /></g></symbol><symbol viewBox="0 0 16 16" id="ec-simple-trade"><!--Generator: Sketch 58 (84663) - https://sketch.com--><title>Graphics / 00 Icon / Simple / Trade</title><desc>Created with Sketch.</desc><g id="ec-simple-trade_Graphics-/-00-Icon-/-Simple-/-Trade" stroke="none" stroke-width="1" fill-rule="evenodd"><path d="M4.66,7.33333333 L2,10 L4.66,12.6666667 L4.66,10.6666667 L9.33333333,10.6666667 L9.33333333,9.33333333 L4.66,9.33333333 L4.66,7.33333333 Z M14,6 L11.34,3.33333333 L11.34,5.33333333 L6.66666667,5.33333333 L6.66666667,6.66666667 L11.34,6.66666667 L11.34,8.66666667 L14,6 Z" id="ec-simple-trade_Colour" /></g></symbol><symbol viewBox="0 0 16 16" id="ec-simple-trade-finance"><!--Generator: Sketch 58 (84663) - https://sketch.com--><title>Graphics / 00 Icon / Simple / TradeFinance</title><desc>Created with Sketch.</desc><g id="ec-simple-trade-finance_Graphics-/-00-Icon-/-Simple-/-TradeFinance" stroke="none" stroke-width="1" fill-rule="evenodd"><polygon id="ec-simple-trade-finance_Colour" points="10.6666667 4 12.1933333 5.52666667 8.94 8.78 6.27333333 6.11333333 1.33333333 11.06 2.27333333 12 6.27333333 8 8.94 10.6666667 13.14 6.47333333 14.6666667 8 14.6666667 4" /></g></symbol><symbol viewBox="0 0 16 16" id="ec-simple-wallet"><title>03 Graphics / 00 Icon / Simple / Wallet</title><g id="ec-simple-wallet_03-Graphics-/-00-Icon-/-Simple-/-Wallet" stroke="none" stroke-width="1" fill-rule="evenodd"><path d="M14,12 L14,12.6666667 C14,13.4 13.4,14 12.6666667,14 L3.33333333,14 C2.59333333,14 2,13.4 2,12.6666667 L2,3.33333333 C2,2.6 2.59333333,2 3.33333333,2 L12.6666667,2 C13.4,2 14,2.6 14,3.33333333 L14,4 L8,4 C7.26,4 6.66666667,4.6 6.66666667,5.33333333 L6.66666667,10.6666667 C6.66666667,11.4 7.26,12 8,12 L14,12 Z M8,10.6666667 L14.6666667,10.6666667 L14.6666667,5.33333333 L8,5.33333333 L8,10.6666667 Z M10.6666667,9 C10.1133333,9 9.66666667,8.55333333 9.66666667,8 C9.66666667,7.44666667 10.1133333,7 10.6666667,7 C11.22,7 11.6666667,7.44666667 11.6666667,8 C11.6666667,8.55333333 11.22,9 10.6666667,9 Z" id="ec-simple-wallet_Wallet-Colour" /></g></symbol></defs></svg>