<svg xmlns="http://www.w3.org/2000/svg" xmlns:xlink="http://www.w3.org/1999/xlink"><defs><symbol viewBox="0 0 16 16" id="ec-simple-add"><path d="M13 8.714H8.714V13H7.286V8.714H3V7.286h4.286V3h1.428v4.286H13z" fill-rule="evenodd" /></symbol><symbol viewBox="0 0 16 16" id="ec-simple-arrow-drop-down"><path d="M4.667 6.667L8 10l3.333-3.333z" fill-rule="evenodd" /></symbol><symbol viewBox="0 0 16 16" id="ec-simple-block"><path d="M8 1.333A6.67 6.67 0 001.333 8 6.67 6.67 0 008 14.667 6.67 6.67 0 0014.667 8 6.67 6.67 0 008 1.333zM2.667 8A5.332 5.332 0 018 2.667c1.233 0 2.367.42 3.267 1.126l-7.474 7.474A5.268 5.268 0 012.667 8zM8 13.333a5.268 5.268 0 01-3.267-1.126l7.474-7.474A5.268 5.268 0 0113.333 8 5.332 5.332 0 018 13.333z" fill-rule="evenodd" /></symbol><symbol viewBox="0 0 16 16" id="ec-simple-calendar"><defs><path d="M12.667 2H12V.667h-1.333V2H5.333V.667H4V2h-.667c-.74 0-1.326.6-1.326 1.333L2 12.667C2 13.4 2.593 14 3.333 14h9.334C13.4 14 14 13.4 14 12.667V3.333C14 2.6 13.4 2 12.667 2zm0 10.667H3.333V5.333h9.334v7.334zm-8-6H8V10H4.667V6.667z" id="ec-simple-calendar_a" /></defs><use xlink:href="#ec-simple-calendar_a" fill-rule="evenodd" /></symbol><symbol viewBox="0 0 16 16" id="ec-simple-check"><defs><path id="ec-simple-check_a" d="M6.051 10.872L3.247 8.068l-.954.948 3.758 3.759 8.068-8.069-.948-.948z" /></defs><use xlink:href="#ec-simple-check_a" fill-rule="evenodd" /></symbol><symbol viewBox="0 0 16 16" id="ec-simple-chevron-down"><path d="M12.197 6.47l-.94-.94-3.06 3.053-3.06-3.053-.94.94 4 4z" fill-rule="evenodd" /></symbol><symbol viewBox="0 0 16 16" id="ec-simple-chevron-left"><path d="M10.273 4.94L9.333 4l-4 4 4 4 .94-.94L7.22 8z" fill-rule="evenodd" /></symbol><symbol viewBox="0 0 16 16" id="ec-simple-chevron-right"><path d="M6.667 4l-.94.94L8.78 8l-3.053 3.06.94.94 4-4z" fill-rule="evenodd" /></symbol><symbol viewBox="0 0 16 16" id="ec-simple-chevron-up"><path d="M4.197 9.53l.94.94 3.06-3.053 3.06 3.053.94-.94-4-4z" fill-rule="evenodd" /></symbol><symbol viewBox="0 0 16 16" id="ec-simple-close"><path d="M13 4.007L11.993 3 8 6.993 4.007 3 3 4.007 6.993 8 3 11.993 4.007 13 8 9.007 11.993 13 13 11.993 9.007 8z" fill-rule="evenodd" /></symbol><symbol viewBox="0 0 16 16" id="ec-simple-dashboard"><path d="M2 8.667h5.333V2H2v6.667zM2 14h5.333v-4H2v4zm6.667 0H14V7.333H8.667V14zm0-12v4H14V2H8.667z" fill-rule="evenodd" /></symbol><symbol viewBox="0 0 16 16" id="ec-simple-error"><defs><path d="M7.3 10.1h1.4v1.4H7.3v-1.4zm0-5.6h1.4v4.2H7.3V4.5zM7.993 1A6.997 6.997 0 001 8c0 3.864 3.129 7 6.993 7A7.004 7.004 0 0015 8c0-3.864-3.136-7-7.007-7zM8 13.6A5.598 5.598 0 012.4 8c0-3.094 2.506-5.6 5.6-5.6s5.6 2.506 5.6 5.6-2.506 5.6-5.6 5.6z" id="ec-simple-error_a" /></defs><use xlink:href="#ec-simple-error_a" fill-rule="evenodd" /></symbol><symbol viewBox="0 0 16 16" id="ec-simple-help"><path d="M12.667 1.333H3.333c-.74 0-1.333.6-1.333 1.334V12c0 .733.593 1.333 1.333 1.333H6l2 2 2-2h2.667c.733 0 1.333-.6 1.333-1.333V2.667c0-.734-.6-1.334-1.333-1.334zM8.667 12H7.333v-1.333h1.334V12zm1.38-5.167l-.6.614c-.48.486-.78.886-.78 1.886H7.333V9c0-.733.3-1.4.78-1.887l.827-.84c.247-.24.393-.573.393-.94C9.333 4.6 8.733 4 8 4s-1.333.6-1.333 1.333H5.333a2.666 2.666 0 115.334 0c0 .587-.24 1.12-.62 1.5z" fill-rule="evenodd" /></symbol><symbol viewBox="0 0 16 16" id="ec-simple-info"><path d="M8.7 5.9H7.3V4.5h1.4v1.4zm0 5.6H7.3V7.3h1.4v4.2zM8.007 15A6.997 6.997 0 0015 8c0-3.864-3.129-7-6.993-7A7.004 7.004 0 001 8c0 3.864 3.136 7 7.007 7zM8 2.4c3.094 0 5.6 2.506 5.6 5.6s-2.506 5.6-5.6 5.6A5.598 5.598 0 012.4 8c0-3.094 2.506-5.6 5.6-5.6z" fill-rule="evenodd" /></symbol><symbol viewBox="0 0 16 16" id="ec-simple-lending"><path d="M10.667 4l1.526 1.527L8.94 8.78 6.273 6.113l-4.94 4.947.94.94 4-4 2.667 2.667 4.2-4.194L14.667 8V4z" fill-rule="evenodd" /></symbol><symbol viewBox="0 0 16 16" id="ec-simple-loading"><path d="M8 2.667A5.334 5.334 0 002.667 8H4c0-2.206 1.794-4 4-4s4 1.794 4 4-1.794 4-4 4v1.333A5.334 5.334 0 008 2.667" fill-rule="evenodd" /></symbol><symbol viewBox="0 0 16 16" id="ec-simple-more"><path d="M4 6.667c-.733 0-1.333.6-1.333 1.333S3.267 9.333 4 9.333 5.333 8.733 5.333 8 4.733 6.667 4 6.667zm8 0c-.733 0-1.333.6-1.333 1.333s.6 1.333 1.333 1.333 1.333-.6 1.333-1.333-.6-1.333-1.333-1.333zm-4 0c-.733 0-1.333.6-1.333 1.333S7.267 9.333 8 9.333 9.333 8.733 9.333 8 8.733 6.667 8 6.667z" fill-rule="evenodd" /></symbol><symbol viewBox="0 0 16 16" id="ec-simple-payment"><path d="M13.333 2.667H2.667c-.74 0-1.327.593-1.327 1.333l-.007 8c0 .74.594 1.333 1.334 1.333h10.666c.74 0 1.334-.593 1.334-1.333V4c0-.74-.594-1.333-1.334-1.333zm0 9.333H2.667V8h10.666v4zm0-6.667H2.667V4h10.666v1.333z" fill-rule="evenodd" /></symbol><symbol viewBox="0 0 16 16" id="ec-simple-person"><path d="M8 8a2.666 2.666 0 100-5.333A2.666 2.666 0 108 8zm0 1.333c-1.78 0-5.333.894-5.333 2.667v1.333h10.666V12c0-1.773-3.553-2.667-5.333-2.667z" fill-rule="evenodd" /></symbol><symbol viewBox="0 0 16 16" id="ec-simple-request"><path d="M12.667 10l-4 4-.947-.947 2.393-2.386H2.667v-8H4v6.666h6.113L7.72 6.947 8.667 6z" fill-rule="evenodd" /></symbol><symbol viewBox="0 0 16 16" id="ec-simple-sign-out"><path d="M8.667 2H7.333v6.667h1.334V2zm3.22 1.447l-.947.946A4.613 4.613 0 0112.667 8 4.663 4.663 0 018 12.667a4.663 4.663 0 01-2.947-8.28l-.94-.94A5.955 5.955 0 002 8a6 6 0 0012 0c0-1.827-.82-3.453-2.113-4.553z" fill-rule="evenodd" /></symbol><symbol viewBox="0 0 16 16" id="ec-simple-trade"><path d="M4.66 7.333L2 10l2.66 2.667v-2h4.673V9.333H4.66v-2zM14 6l-2.66-2.667v2H6.667v1.334h4.673v2L14 6z" fill-rule="evenodd" /></symbol></defs></svg>