<svg xmlns="http://www.w3.org/2000/svg" xmlns:xlink="http://www.w3.org/1999/xlink"><defs><symbol viewBox="0 0 16 16" id="ec-simple-add"><path d="M13 8.714H8.714V13H7.286V8.714H3V7.286h4.286V3h1.428v4.286H13z" fill-rule="evenodd" /></symbol><symbol viewBox="0 0 16 16" id="ec-simple-arrow-drop-down"><path d="M4.667 6.667L8 10l3.333-3.333z" fill-rule="evenodd" /></symbol><symbol viewBox="0 0 16 16" id="ec-simple-arrow-left"><path d="M13.333 7.333H5.22l3.727-3.726L8 2.667 2.667 8 8 13.333l.94-.94-3.72-3.726h8.113z" fill-rule="evenodd" /></symbol><symbol viewBox="0 0 16 16" id="ec-simple-arrow-up-down"><path d="M11.333 9.333L8 12.667 4.667 9.333h6.666zm0-2.666L8 3.333 4.667 6.667h6.666z" fill-rule="evenodd" /></symbol><symbol viewBox="0 0 16 16" id="ec-simple-attachment"><path d="M11 4v7.667a2.666 2.666 0 11-5.333 0V3.333a1.667 1.667 0 013.333 0v7c0 .367-.3.667-.667.667a.669.669 0 01-.666-.667V4h-1v6.333a1.667 1.667 0 003.333 0v-7a2.666 2.666 0 10-5.333 0v8.334a3.665 3.665 0 003.666 3.666A3.665 3.665 0 0012 11.667V4h-1z" fill-rule="evenodd" /></symbol><symbol viewBox="0 0 32 32" id="ec-simple-batch-payment"><path d="M24.432 0c1.974 0 3.707 1.784 3.707 3.816v24.369c0 2.032-1.733 3.815-3.707 3.815H7.706C5.732 32 4 30.217 4 28.185V7.878c0-.201.08-.398.218-.541L11.105.23a.748.748 0 01.537-.23zm0 1.54H12.397v3.291c0 2.034-1.732 3.817-3.706 3.817H5.51v19.537c0 1.169 1.066 2.275 2.195 2.275h16.726c1.13 0 2.197-1.106 2.197-2.275V3.816c0-1.169-1.068-2.275-2.197-2.275zm-4.427 23.336c.416 0 .755.346.755.77 0 .424-.339.769-.755.769h-7.872a.762.762 0 01-.754-.77c0-.423.338-.769.754-.769zm-3.912-12.175c.046 0 .141.007.175.022l.106.042c.081.03.11.049.173.105l4.486 4.62c.29.3.29.785 0 1.083a.745.745 0 01-1.073-.001l-3.135-3.235v6.756c0 .423-.34.77-.756.77a.763.763 0 01-.755-.77v-6.756l-3.135 3.235a.742.742 0 01-.536.228.742.742 0 01-.538-.228.783.783 0 010-1.082l4.427-4.568c.193-.194.363-.215.55-.221zM10.887 2.645L6.563 7.108H8.69c1.129 0 2.196-1.106 2.196-2.277V2.645z" fill-rule="evenodd" /></symbol><symbol viewBox="0 0 16 16" id="ec-simple-block"><path d="M8 1.333A6.67 6.67 0 001.333 8 6.67 6.67 0 008 14.667 6.67 6.67 0 0014.667 8 6.67 6.67 0 008 1.333zM2.667 8A5.332 5.332 0 018 2.667c1.233 0 2.367.42 3.267 1.126l-7.474 7.474A5.268 5.268 0 012.667 8zM8 13.333a5.268 5.268 0 01-3.267-1.126l7.474-7.474A5.268 5.268 0 0113.333 8 5.332 5.332 0 018 13.333z" fill-rule="evenodd" /></symbol><symbol viewBox="0 0 16 16" id="ec-simple-calendar"><defs><path d="M12.667 2H12V.667h-1.333V2H5.333V.667H4V2h-.667c-.74 0-1.326.6-1.326 1.333L2 12.667C2 13.4 2.593 14 3.333 14h9.334C13.4 14 14 13.4 14 12.667V3.333C14 2.6 13.4 2 12.667 2zm0 10.667H3.333V5.333h9.334v7.334zm-8-6H8V10H4.667V6.667z" id="ec-simple-calendar_a" /></defs><use xlink:href="#ec-simple-calendar_a" fill-rule="evenodd" /></symbol><symbol viewBox="0 0 16 16" id="ec-simple-check"><defs><path id="ec-simple-check_a" d="M6.051 10.872L3.247 8.068l-.954.948 3.758 3.759 8.068-8.069-.948-.948z" /></defs><use xlink:href="#ec-simple-check_a" fill-rule="evenodd" /></symbol><symbol viewBox="0 0 16 16" id="ec-simple-chevron-down"><path d="M12.197 6.47l-.94-.94-3.06 3.053-3.06-3.053-.94.94 4 4z" fill-rule="evenodd" /></symbol><symbol viewBox="0 0 16 16" id="ec-simple-chevron-left"><path d="M10.273 4.94L9.333 4l-4 4 4 4 .94-.94L7.22 8z" fill-rule="evenodd" /></symbol><symbol viewBox="0 0 16 16" id="ec-simple-chevron-right"><path d="M6.667 4l-.94.94L8.78 8l-3.053 3.06.94.94 4-4z" fill-rule="evenodd" /></symbol><symbol viewBox="0 0 16 16" id="ec-simple-chevron-up"><path d="M4.197 9.53l.94.94 3.06-3.053 3.06 3.053.94-.94-4-4z" fill-rule="evenodd" /></symbol><symbol viewBox="0 0 16 16" id="ec-simple-close"><path d="M13 4.007L11.993 3 8 6.993 4.007 3 3 4.007 6.993 8 3 11.993 4.007 13 8 9.007 11.993 13 13 11.993 9.007 8z" fill-rule="evenodd" /></symbol><symbol viewBox="0 0 32 32" id="ec-simple-collect"><path d="M15.92 1.604c1.098-.861 2.8-.805 3.804.193l.36.358h5.775c2.398 0 4.348 1.94 4.348 4.322v5.906c1.035.325 1.792 1.277 1.793 2.41v7.132c0 1.135-.758 2.086-1.793 2.412v2.341c0 2.383-1.95 4.322-4.348 4.322H4.346C1.949 31 0 29.06 0 26.678v-20.2c0-2.384 1.95-4.323 4.346-4.323h10.972l.36-.357c.074-.074.16-.13.242-.194zM1.524 9.762v16.916a2.818 2.818 0 002.822 2.807h21.513a2.819 2.819 0 002.824-2.807v-2.213h-4.02c-2.396 0-4.346-1.94-4.346-4.323 0-2.383 1.95-4.322 4.346-4.322h4.02v-2.213a2.8 2.8 0 00-.05-.51c-.01-.048-.023-.094-.034-.141a2.779 2.779 0 00-.11-.356c-.018-.043-.033-.087-.053-.13a2.81 2.81 0 00-.24-.437 2.81 2.81 0 00-.302-.363c-.04-.042-.083-.08-.126-.12a2.877 2.877 0 00-.662-.45c-.062-.03-.121-.065-.185-.09-.018-.007-.035-.01-.052-.017a2.76 2.76 0 00-1.01-.194H4.346c-.286 0-.563-.03-.834-.084-.09-.017-.173-.048-.26-.071a4.434 4.434 0 01-.52-.161c-.098-.04-.188-.09-.283-.135l-.145-.073a3.438 3.438 0 01-.284-.16 3.782 3.782 0 01-.265-.189c-.077-.056-.16-.103-.231-.164zm28.952 7.357l-.02.006c-.1.043-.21.072-.316.103-.058.016-.11.04-.17.053a2.556 2.556 0 01-.525.054h-4.78a2.819 2.819 0 00-2.824 2.807 2.819 2.819 0 002.823 2.808h4.781c.569 0 1.031-.46 1.031-1.025v-4.806zm-5.811 1.672c.748 0 1.359.607 1.359 1.351 0 .745-.61 1.352-1.36 1.352-.75 0-1.36-.607-1.36-1.352 0-.744.61-1.351 1.36-1.351zm5.542-4.686v1.365a.975.975 0 00.124-.182c.021-.037.05-.067.067-.105a1.023 1.023 0 00-.191-1.078zM25.859 3.67h-4.25l2.51 2.497 3.52 3.5c.21.095.407.206.596.327.06.04.112.084.17.125.093.067.19.13.278.204V6.477A2.818 2.818 0 0025.86 3.67zm-12.065 0H4.346a2.817 2.817 0 00-2.822 2.807 2.817 2.817 0 002.822 2.807h3.801l.128-.127 5.519-5.487zm9.102 3.423L20.69 9.284H25.1l-2.203-2.19zM20.67 4.88l-4.431 4.404h2.298l3.282-3.261L20.67 4.88zm-2.025-2.012c-.465-.462-1.254-.478-1.77-.078-.037.03-.085.044-.12.078l-.582.58-5.84 5.807-.031.029h3.782l5.508-5.475z" fill-rule="evenodd" /></symbol><symbol viewBox="0 0 32 32" id="ec-simple-convert-and-pay"><path d="M31.204 14.705c.278 0 .564.157.688.406l.03.06c.052.103.078.215.078.329 0 4.142-1.613 8.036-4.54 10.964A15.385 15.385 0 0116.5 31c-4.147 0-8.04-1.611-10.96-4.536l-1.63-1.63.016 2.224a.734.734 0 01-.404.66c-.102.052-.276.11-.39.11a.779.779 0 01-.69-.41c-.049-.1-.106-.274-.106-.387v-4.016a.873.873 0 01.08-.423.74.74 0 01.474-.412.818.818 0 01.242-.045h4.13c.274 0 .526.154.652.399.054.104.112.279.112.396a.785.785 0 01-.407.69c-.101.05-.275.106-.388.106H5.05l1.613 1.615A13.819 13.819 0 0016.5 29.41c3.72 0 7.213-1.445 9.836-4.068A13.836 13.836 0 0030.41 15.5c0-.277.156-.561.404-.687.102-.05.276-.108.39-.108zM16.5 7.395c4.467 0 8.101 3.636 8.101 8.105s-3.634 8.105-8.1 8.105c-4.469 0-8.103-3.636-8.103-8.105 0-4.47 3.634-8.105 8.102-8.105zm0 1.468A6.643 6.643 0 009.866 15.5a6.643 6.643 0 006.634 6.636c3.658 0 6.634-2.977 6.634-6.636 0-3.66-2.976-6.637-6.634-6.637zm-.03 1.48c.194 0 .411.077.55.215.137.138.245.325.245.519l-.001.436c1.142.283 1.937 1.166 1.937 2.22a.734.734 0 01-.733.735c-.406 0-.796-.33-.796-.734 0-.42-.548-.787-1.172-.787-.624 0-1.172.368-1.172.787 0 .346.385.674.895.762l.893.202c1.305.221 2.28 1.24 2.28 2.413 0 1.13-.906 2.093-2.131 2.382v.43a.735.735 0 01-.734.734c-.405 0-.795-.329-.795-.734v-.432c-1.241-.295-2.132-1.259-2.132-2.38 0-.405.33-.734.734-.734.405 0 .796.329.796.734l.008.1c.076.465.666.84 1.358.84.74 0 1.367-.43 1.367-.94 0-.419-.451-.812-1.05-.913l-.893-.202c-1.215-.208-2.125-1.162-2.125-2.262 0-1.065.807-1.946 1.937-2.225v-.432c0-.406.328-.735.733-.735zM16.5 0c4.146 0 8.038 1.61 10.96 4.535l1.631 1.63-.017-2.222a.735.735 0 01.4-.66c.104-.052.279-.111.394-.111.277 0 .56.156.686.402.052.103.11.278.11.394v4.02a.883.883 0 01-.097.455.74.74 0 01-.452.375.817.817 0 01-.247.047h-4.13a.735.735 0 01-.656-.407 1.055 1.055 0 01-.108-.39c0-.278.16-.565.41-.688.1-.05.273-.106.385-.106h2.18L26.336 5.66A13.814 13.814 0 0016.5 1.59c-3.72 0-7.213 1.446-9.835 4.07A13.833 13.833 0 002.59 15.5c0 .28-.158.565-.408.688-.102.05-.273.107-.386.107a.78.78 0 01-.684-.4A1.047 1.047 0 011 15.5c0-4.143 1.613-8.037 4.54-10.965A15.388 15.388 0 0116.5 0z" fill-rule="evenodd" /></symbol><symbol viewBox="0 0 16 16" id="ec-simple-copy"><path d="M11.333.667h-8C2.6.667 2 1.267 2 2v9.333h1.333V2h8V.667zm2 2.666H6c-.733 0-1.333.6-1.333 1.334V14c0 .733.6 1.333 1.333 1.333h7.333c.734 0 1.334-.6 1.334-1.333V4.667c0-.734-.6-1.334-1.334-1.334zm0 10.667H6V4.667h7.333V14z" fill-rule="evenodd" /></symbol><symbol viewBox="0 0 16 16" id="ec-simple-dashboard"><path d="M2 8.667h5.333V2H2v6.667zM2 14h5.333v-4H2v4zm6.667 0H14V7.333H8.667V14zm0-12v4H14V2H8.667z" fill-rule="evenodd" /></symbol><symbol viewBox="0 0 16 16" id="ec-simple-download"><path d="M12.667 6H10V2H6v4H3.333L8 10.667 12.667 6zm-9.334 6v1.333h9.334V12H3.333z" fill-rule="evenodd" /></symbol><symbol viewBox="0 0 16 16" id="ec-simple-edit"><path d="M2 11.5V14h2.5l7.373-7.373-2.5-2.5L2 11.5zm11.807-6.807c.26-.26.26-.68 0-.94l-1.56-1.56a.664.664 0 00-.94 0l-1.22 1.22 2.5 2.5 1.22-1.22z" fill-rule="evenodd" /></symbol><symbol viewBox="0 0 16 16" id="ec-simple-error"><defs><path d="M7.3 10.1h1.4v1.4H7.3v-1.4zm0-5.6h1.4v4.2H7.3V4.5zM7.993 1A6.997 6.997 0 001 8c0 3.864 3.129 7 6.993 7A7.004 7.004 0 0015 8c0-3.864-3.136-7-7.007-7zM8 13.6A5.598 5.598 0 012.4 8c0-3.094 2.506-5.6 5.6-5.6s5.6 2.506 5.6 5.6-2.506 5.6-5.6 5.6z" id="ec-simple-error_a" /></defs><use xlink:href="#ec-simple-error_a" fill-rule="evenodd" /></symbol><symbol viewBox="0 0 16 16" id="ec-simple-help"><path d="M12.667 1.333H3.333c-.74 0-1.333.6-1.333 1.334V12c0 .733.593 1.333 1.333 1.333H6l2 2 2-2h2.667c.733 0 1.333-.6 1.333-1.333V2.667c0-.734-.6-1.334-1.333-1.334zM8.667 12H7.333v-1.333h1.334V12zm1.38-5.167l-.6.614c-.48.486-.78.886-.78 1.886H7.333V9c0-.733.3-1.4.78-1.887l.827-.84c.247-.24.393-.573.393-.94C9.333 4.6 8.733 4 8 4s-1.333.6-1.333 1.333H5.333a2.666 2.666 0 115.334 0c0 .587-.24 1.12-.62 1.5z" fill-rule="evenodd" /></symbol><symbol viewBox="0 0 16 16" id="ec-simple-info"><path d="M8.7 5.9H7.3V4.5h1.4v1.4zm0 5.6H7.3V7.3h1.4v4.2zM8.007 15A6.997 6.997 0 0015 8c0-3.864-3.129-7-6.993-7A7.004 7.004 0 001 8c0 3.864 3.136 7 7.007 7zM8 2.4c3.094 0 5.6 2.506 5.6 5.6s-2.506 5.6-5.6 5.6A5.598 5.598 0 012.4 8c0-3.094 2.506-5.6 5.6-5.6z" fill-rule="evenodd" /></symbol><symbol viewBox="0 0 16 16" id="ec-simple-loading"><path d="M8 2.667A5.334 5.334 0 002.667 8H4c0-2.206 1.794-4 4-4s4 1.794 4 4-1.794 4-4 4v1.333A5.334 5.334 0 008 2.667" fill-rule="evenodd" /></symbol><symbol viewBox="0 0 16 16" id="ec-simple-more"><path d="M4 6.667c-.733 0-1.333.6-1.333 1.333S3.267 9.333 4 9.333 5.333 8.733 5.333 8 4.733 6.667 4 6.667zm8 0c-.733 0-1.333.6-1.333 1.333s.6 1.333 1.333 1.333 1.333-.6 1.333-1.333-.6-1.333-1.333-1.333zm-4 0c-.733 0-1.333.6-1.333 1.333S7.267 9.333 8 9.333 9.333 8.733 9.333 8 8.733 6.667 8 6.667z" fill-rule="evenodd" /></symbol><symbol viewBox="0 0 16 16" id="ec-simple-payment"><path d="M13.333 2.667H2.667c-.74 0-1.327.593-1.327 1.333l-.007 8c0 .74.594 1.333 1.334 1.333h10.666c.74 0 1.334-.593 1.334-1.333V4c0-.74-.594-1.333-1.334-1.333zm0 9.333H2.667V8h10.666v4zm0-6.667H2.667V4h10.666v1.333z" fill-rule="evenodd" /></symbol><symbol viewBox="0 0 16 16" id="ec-simple-person"><path d="M8 8a2.666 2.666 0 100-5.333A2.666 2.666 0 108 8zm0 1.333c-1.78 0-5.333.894-5.333 2.667v1.333h10.666V12c0-1.773-3.553-2.667-5.333-2.667z" fill-rule="evenodd" /></symbol><symbol viewBox="0 0 16 16" id="ec-simple-request"><path d="M12.667 10l-4 4-.947-.947 2.393-2.386H2.667v-8H4v6.666h6.113L7.72 6.947 8.667 6z" fill-rule="evenodd" /></symbol><symbol viewBox="0 0 16 16" id="ec-simple-search"><path d="M10.333 9.333h-.526l-.187-.18a4.314 4.314 0 001.047-2.82 4.333 4.333 0 10-4.334 4.334c1.074 0 2.06-.394 2.82-1.047l.18.187v.526l3.334 3.327.993-.993-3.327-3.334zm-4 0c-1.66 0-3-1.34-3-3s1.34-3 3-3 3 1.34 3 3-1.34 3-3 3z" fill-rule="evenodd" /></symbol><symbol viewBox="0 0 16 16" id="ec-simple-sign-out"><path d="M8.667 2H7.333v6.667h1.334V2zm3.22 1.447l-.947.946A4.613 4.613 0 0112.667 8 4.663 4.663 0 018 12.667a4.663 4.663 0 01-2.947-8.28l-.94-.94A5.955 5.955 0 002 8a6 6 0 0012 0c0-1.827-.82-3.453-2.113-4.553z" fill-rule="evenodd" /></symbol><symbol viewBox="0 0 16 16" id="ec-simple-thumb-down"><path d="M10 2H4c-.553 0-1.027.333-1.227.813L.76 7.513C.7 7.667.667 7.827.667 8v1.273l.006.007-.006.053c0 .734.6 1.334 1.333 1.334h4.207l-.634 3.046-.02.214c0 .273.114.526.294.706l.706.7 4.394-4.393c.24-.24.386-.573.386-.94V3.333C11.333 2.6 10.733 2 10 2zm2.667 0v8h2.666V2h-2.666z" fill-rule="evenodd" /></symbol><symbol viewBox="0 0 16 16" id="ec-simple-thumb-up"><path d="M.667 14h2.666V6H.667v8zm14.666-7.333c0-.734-.6-1.334-1.333-1.334H9.793l.634-3.046.02-.214c0-.273-.114-.526-.294-.706l-.706-.7L5.06 5.06c-.247.24-.393.573-.393.94v6.667C4.667 13.4 5.267 14 6 14h6c.553 0 1.027-.333 1.227-.813l2.013-4.7c.06-.154.093-.314.093-.487V6.727l-.006-.007.006-.053z" fill-rule="evenodd" /></symbol><symbol viewBox="0 0 16 16" id="ec-simple-trade"><path d="M4.66 7.333L2 10l2.66 2.667v-2h4.673V9.333H4.66v-2zM14 6l-2.66-2.667v2H6.667v1.334h4.673v2L14 6z" fill-rule="evenodd" /></symbol><symbol viewBox="0 0 16 16" id="ec-simple-trade-finance"><path d="M10.667 4l1.526 1.527L8.94 8.78 6.273 6.113l-4.94 4.947.94.94 4-4 2.667 2.667 4.2-4.194L14.667 8V4z" fill-rule="evenodd" /></symbol></defs></svg>