<svg xmlns="http://www.w3.org/2000/svg" xmlns:xlink="http://www.w3.org/1999/xlink"><defs><symbol viewBox="0 0 16 16" id="ec-simple-accounts"><path fill-rule="evenodd" clip-rule="evenodd" d="M14 3.333v9.333h1.333V3.333H14Zm-2.667 9.333h1.334V3.333h-1.334v9.333Zm-2-9.333h-8c-.366 0-.666.3-.666.667v8c0 .366.3.666.666.666h8c.367 0 .667-.3.667-.666V4c0-.367-.3-.667-.667-.667Zm-3.666 2A1.67 1.67 0 0 1 7.333 7a1.67 1.67 0 0 1-1.666 1.666A1.67 1.67 0 0 1 4 7a1.67 1.67 0 0 1 1.667-1.667Zm3 6h-6v-.5c0-1 2-1.5 3-1.5s3 .5 3 1.5v.5Z" /></symbol><symbol viewBox="0 0 16 16" id="ec-simple-add"><path d="M13 8.714H8.714V13H7.286V8.714H3V7.286h4.286V3h1.428v4.286H13z" fill-rule="evenodd" /></symbol><symbol viewBox="0 0 16 16" id="ec-simple-address"><path d="M8 8c.367 0 .68-.131.942-.392.261-.261.391-.575.391-.942 0-.366-.13-.68-.39-.942A1.286 1.286 0 0 0 8 5.333c-.367 0-.68.13-.941.391a1.284 1.284 0 0 0-.392.942c0 .367.13.68.392.942.26.261.574.392.941.392Zm0 4.9c1.356-1.245 2.361-2.375 3.017-3.392C11.672 8.49 12 7.588 12 6.8c0-1.211-.386-2.203-1.159-2.976-.772-.772-1.719-1.158-2.84-1.158-1.123 0-2.07.386-2.843 1.158C4.386 4.597 4 5.59 4 6.8c0 .789.328 1.691.983 2.708C5.64 10.525 6.645 11.655 8 12.9Zm0 1.766c-1.789-1.522-3.125-2.936-4.008-4.242C3.11 9.12 2.667 7.911 2.667 6.8c0-1.667.536-2.995 1.608-3.984C5.347 1.827 6.59 1.333 8 1.333s2.653.494 3.725 1.483c1.072.99 1.608 2.317 1.608 3.984 0 1.11-.441 2.319-1.324 3.624-.884 1.306-2.22 2.72-4.009 4.242Z" /></symbol><symbol viewBox="0 0 16 16" id="ec-simple-alias"><path fill-rule="evenodd" clip-rule="evenodd" d="M2.8 12.8c-.333 0-.616-.117-.85-.35a1.155 1.155 0 0 1-.35-.85V4.4c0-.333.117-.616.35-.85.234-.233.517-.35.85-.35h10.4c.333 0 .617.117.85.35.233.234.35.517.35.85v7.2c0 .334-.117.617-.35.85-.233.233-.517.35-.85.35H2.8Zm0-1.2h10.4V4.4H2.8v7.2ZM4 9.8V8.6h8v1.2H4Zm0-3.6v1.2h8V6.2H4Z" /></symbol><symbol viewBox="0 0 16 16" id="ec-simple-amount"><path d="M8.775 1v2.227h.91c1.264 0 2.306.964 2.39 2.19l.006.162h-1.5c0-.43-.338-.792-.782-.845l-.113-.007h-3.29c-.46 0-.834.33-.89.746L5.5 5.58v.802c0 .43.338.791.782.844l.113.007h3.29c1.264 0 2.306.962 2.39 2.19l.006.161v.8c0 1.25-.99 2.265-2.232 2.347l-.163.006-.911-.001V15h-1.5v-2.265h-.88c-1.263 0-2.305-.963-2.39-2.19L4 10.383h1.5c0 .43.338.793.782.846l.113.007h3.29c.46 0 .834-.33.89-.747l.006-.106v-.8c0-.43-.338-.791-.782-.844l-.113-.007h-3.29c-1.264 0-2.306-.963-2.39-2.19L4 6.383v-.803c0-1.249.99-2.264 2.232-2.346l.163-.006h.88V1h1.5Z" fill-rule="evenodd" /></symbol><symbol viewBox="0 0 16 16" id="ec-simple-arrow-drop-down"><path d="M4.667 6.667 8 10l3.333-3.333z" fill-rule="evenodd" /></symbol><symbol viewBox="0 0 16 16" id="ec-simple-arrow-left"><path d="M13.333 7.333H5.22l3.727-3.726L8 2.667 2.667 8 8 13.333l.94-.94-3.72-3.726h8.113z" fill-rule="evenodd" /></symbol><symbol viewBox="0 0 16 16" id="ec-simple-arrow-right"><path d="M2.667 8.667h8.113l-3.727 3.726.947.94L13.333 8 8 2.667l-.94.94 3.72 3.726H2.667z" fill-rule="evenodd" /></symbol><symbol viewBox="0 0 16 16" id="ec-simple-arrow-up-down"><path d="M11.333 9.333 8 12.667 4.667 9.333h6.666Zm0-2.666L8 3.333 4.667 6.667h6.666Z" fill-rule="evenodd" /></symbol><symbol viewBox="0 0 16 16" id="ec-simple-attachment"><path d="M11 4v7.667a2.666 2.666 0 1 1-5.333 0V3.333a1.667 1.667 0 0 1 3.333 0v7c0 .367-.3.667-.667.667a.669.669 0 0 1-.666-.667V4h-1v6.333a1.667 1.667 0 0 0 3.333 0v-7a2.666 2.666 0 1 0-5.333 0v8.334a3.665 3.665 0 0 0 3.666 3.666A3.665 3.665 0 0 0 12 11.667V4h-1Z" fill-rule="evenodd" /></symbol><symbol viewBox="0 0 16 16" id="ec-simple-bank"><path d="M3.333 12V7.333h1.334V12H3.333Zm4 0V7.333h1.334V12H7.333Zm-6 2.666v-1.333h13.334v1.333H1.333Zm10-2.666V7.333h1.334V12h-1.334Zm-10-6V4.666L8 1.333l6.667 3.333V6H1.333ZM4.3 4.666h7.4L8 2.833 4.3 4.666Z" /></symbol><symbol viewBox="0 0 32 32" id="ec-simple-batch-payment"><path d="M24.432 0c1.974 0 3.707 1.784 3.707 3.816v24.369c0 2.032-1.733 3.815-3.707 3.815H7.706C5.732 32 4 30.217 4 28.185V7.878c0-.201.08-.398.218-.541L11.105.23a.748.748 0 0 1 .537-.23Zm0 1.54H12.397v3.291c0 2.034-1.732 3.817-3.706 3.817H5.51v19.537c0 1.169 1.066 2.275 2.195 2.275h16.726c1.13 0 2.197-1.106 2.197-2.275V3.816c0-1.169-1.068-2.275-2.197-2.275Zm-4.427 23.336c.416 0 .755.346.755.77 0 .424-.339.769-.755.769h-7.872a.762.762 0 0 1-.754-.77c0-.423.338-.769.754-.769Zm-3.912-12.175c.046 0 .141.007.175.022l.106.042c.081.03.11.049.173.105l4.486 4.62c.29.3.29.785 0 1.083a.745.745 0 0 1-1.073-.001l-3.135-3.235v6.756c0 .423-.34.77-.756.77a.763.763 0 0 1-.755-.77v-6.756l-3.135 3.235a.742.742 0 0 1-.536.228.742.742 0 0 1-.538-.228.783.783 0 0 1 0-1.082l4.427-4.568c.193-.194.363-.215.55-.221ZM10.887 2.645 6.563 7.108H8.69c1.129 0 2.196-1.106 2.196-2.277V2.645Z" fill-rule="evenodd" /></symbol><symbol viewBox="0 0 24 25" id="ec-simple-beneficiaries"><path fill-rule="evenodd" clip-rule="evenodd" d="M11.897 10.96a2.098 2.098 0 1 1-4.195 0 2.098 2.098 0 0 1 4.195 0Zm.446 2.954a3.898 3.898 0 1 0-5.087 0 7.397 7.397 0 0 0-2.618 1.547 6.625 6.625 0 0 0-1.872 2.954 6.225 6.225 0 0 0-.266 1.8h1.72c.136-1.183.512-2.281 1.339-3.146.202-.213.422-.408.656-.585a5.655 5.655 0 0 1 1.487-.819 5.984 5.984 0 0 1 2.108-.392c.736 0 1.472.145 2.16.42a5.57 5.57 0 0 1 1.771 1.092 4.9 4.9 0 0 1 1.175 1.63h-.001c.25.56.403 1.168.483 1.8h1.7c0-.614-.09-1.219-.266-1.8a6.625 6.625 0 0 0-1.871-2.954 7.396 7.396 0 0 0-2.618-1.547Z" /><path fill-rule="evenodd" clip-rule="evenodd" d="M14.2 10.48a2.098 2.098 0 1 0-2.032-2.616 3.88 3.88 0 0 0-1.659-.737 3.9 3.9 0 0 1 7.59 1.255c0 1.18-.525 2.239-1.355 2.954a7.398 7.398 0 0 1 2.618 1.547 6.625 6.625 0 0 1 1.872 2.954c.175.581.266 1.186.266 1.8h-1.7a6.347 6.347 0 0 0-.484-1.8h.002a4.902 4.902 0 0 0-1.175-1.63 5.57 5.57 0 0 0-1.771-1.092 5.842 5.842 0 0 0-2.16-.42c-.32 0-.643.028-.963.082a3.88 3.88 0 0 0 .41-2.368 2.1 2.1 0 0 0 .542.07Z" /></symbol><symbol viewBox="0 0 16 16" id="ec-simple-block"><path d="M8 1.333A6.67 6.67 0 0 0 1.333 8 6.67 6.67 0 0 0 8 14.667 6.67 6.67 0 0 0 14.667 8 6.67 6.67 0 0 0 8 1.333ZM2.667 8A5.332 5.332 0 0 1 8 2.667c1.233 0 2.367.42 3.267 1.126l-7.474 7.474A5.268 5.268 0 0 1 2.667 8ZM8 13.333a5.268 5.268 0 0 1-3.267-1.126l7.474-7.474A5.268 5.268 0 0 1 13.333 8 5.332 5.332 0 0 1 8 13.333Z" fill-rule="evenodd" /></symbol><symbol viewBox="0 0 16 16" id="ec-simple-buy"><path d="m2 8 2.526-2.5v1.875H14v1.25H4.526V10.5z" fill-rule="evenodd" /></symbol><symbol viewBox="0 0 16 16" id="ec-simple-calendar"><defs><path d="M12.667 2H12V.667h-1.333V2H5.333V.667H4V2h-.667c-.74 0-1.326.6-1.326 1.333L2 12.667C2 13.4 2.593 14 3.333 14h9.334C13.4 14 14 13.4 14 12.667V3.333C14 2.6 13.4 2 12.667 2Zm0 10.667H3.333V5.333h9.334v7.334Zm-8-6H8V10H4.667V6.667Z" id="ec-simple-calendar_a" /></defs><use xlink:href="#ec-simple-calendar_a" fill-rule="evenodd" /></symbol><symbol viewBox="0 0 16 16" id="ec-simple-check"><defs><path id="ec-simple-check_a" d="M6.051 10.872 3.247 8.068l-.954.948 3.758 3.759 8.068-8.069-.948-.948z" /></defs><use xlink:href="#ec-simple-check_a" fill-rule="evenodd" /></symbol><symbol viewBox="0 0 16 16" id="ec-simple-chevron-down"><path d="m12.197 6.47-.94-.94-3.06 3.053-3.06-3.053-.94.94 4 4z" fill-rule="evenodd" /></symbol><symbol viewBox="0 0 16 16" id="ec-simple-chevron-left"><path d="M10.273 4.94 9.333 4l-4 4 4 4 .94-.94L7.22 8z" fill-rule="evenodd" /></symbol><symbol viewBox="0 0 16 16" id="ec-simple-chevron-right"><path d="m6.667 4-.94.94L8.78 8l-3.053 3.06.94.94 4-4z" fill-rule="evenodd" /></symbol><symbol viewBox="0 0 16 16" id="ec-simple-chevron-up"><path d="m4.197 9.53.94.94 3.06-3.053 3.06 3.053.94-.94-4-4z" fill-rule="evenodd" /></symbol><symbol viewBox="0 0 16 16" id="ec-simple-city"><path d="M2 14V4.667h2.667V2h6.666v5.333H14V14H8.667v-2.667H7.333V14H2Zm1.333-1.333h1.334v-1.334H3.333v1.334Zm0-2.667h1.334V8.667H3.333V10Zm0-2.667h1.334V6H3.333v1.333ZM6 10h1.333V8.667H6V10Zm0-2.667h1.333V6H6v1.333Zm0-2.666h1.333V3.333H6v1.334ZM8.667 10H10V8.667H8.667V10Zm0-2.667H10V6H8.667v1.333Zm0-2.666H10V3.333H8.667v1.334Zm2.666 8h1.334v-1.334h-1.334v1.334Zm0-2.667h1.334V8.667h-1.334V10Z" /></symbol><symbol viewBox="0 0 16 16" id="ec-simple-close"><path d="M13 4.007 11.993 3 8 6.993 4.007 3 3 4.007 6.993 8 3 11.993 4.007 13 8 9.007 11.993 13 13 11.993 9.007 8z" fill-rule="evenodd" /></symbol><symbol viewBox="0 0 16 16" id="ec-simple-cloud-upload"><path d="M12.9 6.693A4.993 4.993 0 0 0 3.567 5.36 3.996 3.996 0 0 0 0 9.333c0 2.207 1.793 4 4 4h8.667A3.335 3.335 0 0 0 16 10a3.317 3.317 0 0 0-3.1-3.307ZM9.333 8.667v2.666H6.667V8.667h-2L8 5.333l3.333 3.334h-2Z" fill-rule="evenodd" /></symbol><symbol viewBox="0 0 32 32" id="ec-simple-collect"><path d="M15.92 1.604c1.098-.861 2.8-.805 3.804.193l.36.358h5.775c2.398 0 4.348 1.94 4.348 4.322v5.906c1.035.325 1.792 1.277 1.793 2.41v7.132c0 1.135-.758 2.086-1.793 2.412v2.341c0 2.383-1.95 4.322-4.348 4.322H4.346C1.949 31 0 29.06 0 26.678v-20.2c0-2.384 1.95-4.323 4.346-4.323h10.972l.36-.357c.074-.074.16-.13.242-.194ZM1.524 9.762v16.916a2.818 2.818 0 0 0 2.822 2.807h21.513a2.819 2.819 0 0 0 2.824-2.807v-2.213h-4.02c-2.396 0-4.346-1.94-4.346-4.323 0-2.383 1.95-4.322 4.346-4.322h4.02v-2.213a2.8 2.8 0 0 0-.05-.51c-.01-.048-.023-.094-.034-.141a2.779 2.779 0 0 0-.11-.356c-.018-.043-.033-.087-.053-.13a2.81 2.81 0 0 0-.24-.437 2.81 2.81 0 0 0-.302-.363c-.04-.042-.083-.08-.126-.12a2.877 2.877 0 0 0-.662-.45c-.062-.03-.121-.065-.185-.09-.018-.007-.035-.01-.052-.017a2.76 2.76 0 0 0-1.01-.194H4.346c-.286 0-.563-.03-.834-.084-.09-.017-.173-.048-.26-.071a4.434 4.434 0 0 1-.52-.161c-.098-.04-.188-.09-.283-.135l-.145-.073a3.438 3.438 0 0 1-.284-.16 3.782 3.782 0 0 1-.265-.189c-.077-.056-.16-.103-.231-.164Zm28.952 7.357-.02.006c-.1.043-.21.072-.316.103-.058.016-.11.04-.17.053a2.556 2.556 0 0 1-.525.054h-4.78a2.819 2.819 0 0 0-2.824 2.807 2.819 2.819 0 0 0 2.823 2.808h4.781c.569 0 1.031-.46 1.031-1.025v-4.806Zm-5.811 1.672c.748 0 1.359.607 1.359 1.351 0 .745-.61 1.352-1.36 1.352-.75 0-1.36-.607-1.36-1.352 0-.744.61-1.351 1.36-1.351Zm5.542-4.686v1.365a.975.975 0 0 0 .124-.182c.021-.037.05-.067.067-.105a1.023 1.023 0 0 0-.191-1.078ZM25.859 3.67h-4.25l2.51 2.497 3.52 3.5c.21.095.407.206.596.327.06.04.112.084.17.125.093.067.19.13.278.204V6.477A2.818 2.818 0 0 0 25.86 3.67Zm-12.065 0H4.346a2.817 2.817 0 0 0-2.822 2.807 2.817 2.817 0 0 0 2.822 2.807h3.801l.128-.127 5.519-5.487Zm9.102 3.423L20.69 9.284H25.1l-2.203-2.19ZM20.67 4.88l-4.431 4.404h2.298l3.282-3.261L20.67 4.88Zm-2.025-2.012c-.465-.462-1.254-.478-1.77-.078-.037.03-.085.044-.12.078l-.582.58-5.84 5.807-.031.029h3.782l5.508-5.475Z" fill-rule="evenodd" /></symbol><symbol viewBox="0 0 32 32" id="ec-simple-convert-and-pay"><path d="M31.204 14.705c.278 0 .564.157.688.406l.03.06c.052.103.078.215.078.329 0 4.142-1.613 8.036-4.54 10.964A15.385 15.385 0 0 1 16.5 31c-4.147 0-8.04-1.611-10.96-4.536l-1.63-1.63.016 2.224a.734.734 0 0 1-.404.66c-.102.052-.276.11-.39.11a.779.779 0 0 1-.69-.41c-.049-.1-.106-.274-.106-.387v-4.016a.873.873 0 0 1 .08-.423.74.74 0 0 1 .474-.412.818.818 0 0 1 .242-.045h4.13c.274 0 .526.154.652.399.054.104.112.279.112.396a.785.785 0 0 1-.407.69c-.101.05-.275.106-.388.106H5.05l1.613 1.615A13.819 13.819 0 0 0 16.5 29.41c3.72 0 7.213-1.445 9.836-4.068A13.836 13.836 0 0 0 30.41 15.5c0-.277.156-.561.404-.687.102-.05.276-.108.39-.108ZM16.5 7.395c4.467 0 8.101 3.636 8.101 8.105s-3.634 8.105-8.1 8.105c-4.469 0-8.103-3.636-8.103-8.105 0-4.47 3.634-8.105 8.102-8.105Zm0 1.468A6.643 6.643 0 0 0 9.866 15.5a6.643 6.643 0 0 0 6.634 6.636c3.658 0 6.634-2.977 6.634-6.636 0-3.66-2.976-6.637-6.634-6.637Zm-.03 1.48c.194 0 .411.077.55.215.137.138.245.325.245.519l-.001.436c1.142.283 1.937 1.166 1.937 2.22a.734.734 0 0 1-.733.735c-.406 0-.796-.33-.796-.734 0-.42-.548-.787-1.172-.787-.624 0-1.172.368-1.172.787 0 .346.385.674.895.762l.893.202c1.305.221 2.28 1.24 2.28 2.413 0 1.13-.906 2.093-2.131 2.382v.43a.735.735 0 0 1-.734.734c-.405 0-.795-.329-.795-.734v-.432c-1.241-.295-2.132-1.259-2.132-2.38 0-.405.33-.734.734-.734.405 0 .796.329.796.734l.008.1c.076.465.666.84 1.358.84.74 0 1.367-.43 1.367-.94 0-.419-.451-.812-1.05-.913l-.893-.202c-1.215-.208-2.125-1.162-2.125-2.262 0-1.065.807-1.946 1.937-2.225v-.432c0-.406.328-.735.733-.735ZM16.5 0c4.146 0 8.038 1.61 10.96 4.535l1.631 1.63-.017-2.222a.735.735 0 0 1 .4-.66c.104-.052.279-.111.394-.111.277 0 .56.156.686.402.052.103.11.278.11.394v4.02a.883.883 0 0 1-.097.455.74.74 0 0 1-.452.375.817.817 0 0 1-.247.047h-4.13a.735.735 0 0 1-.656-.407 1.055 1.055 0 0 1-.108-.39c0-.278.16-.565.41-.688.1-.05.273-.106.385-.106h2.18L26.336 5.66A13.814 13.814 0 0 0 16.5 1.59c-3.72 0-7.213 1.446-9.835 4.07A13.833 13.833 0 0 0 2.59 15.5c0 .28-.158.565-.408.688-.102.05-.273.107-.386.107a.78.78 0 0 1-.684-.4A1.047 1.047 0 0 1 1 15.5c0-4.143 1.613-8.037 4.54-10.965A15.388 15.388 0 0 1 16.5 0Z" fill-rule="evenodd" /></symbol><symbol viewBox="0 0 16 16" id="ec-simple-copy"><path d="M11.333.667h-8C2.6.667 2 1.267 2 2v9.333h1.333V2h8V.667Zm2 2.666H6c-.733 0-1.333.6-1.333 1.334V14c0 .733.6 1.333 1.333 1.333h7.333c.734 0 1.334-.6 1.334-1.333V4.667c0-.734-.6-1.334-1.334-1.334Zm0 10.667H6V4.667h7.333V14Z" fill-rule="evenodd" /></symbol><symbol viewBox="0 0 16 16" id="ec-simple-country"><path d="M8 14.666a6.489 6.489 0 0 1-2.6-.525 6.728 6.728 0 0 1-2.117-1.425A6.727 6.727 0 0 1 1.86 10.6 6.488 6.488 0 0 1 1.333 8c0-.923.175-1.79.526-2.6a6.728 6.728 0 0 1 1.424-2.117c.6-.6 1.306-1.075 2.117-1.425A6.495 6.495 0 0 1 8 1.333c.922 0 1.789.175 2.6.525.811.35 1.517.825 2.117 1.425.6.6 1.074 1.306 1.424 2.117.35.81.526 1.677.526 2.6 0 .922-.175 1.789-.526 2.6a6.728 6.728 0 0 1-1.424 2.116c-.6.6-1.306 1.075-2.117 1.425a6.488 6.488 0 0 1-2.6.525ZM7.333 13.3V12c-.366 0-.68-.13-.941-.392A1.284 1.284 0 0 1 6 10.666V10L2.8 6.8c-.033.2-.064.4-.092.6a5.204 5.204 0 0 0 1.284 4.133c.883 1.011 1.997 1.6 3.341 1.767Zm4.6-1.7c.223-.245.422-.509.6-.792.178-.283.325-.578.442-.884A5.283 5.283 0 0 0 13.333 8a5.231 5.231 0 0 0-.908-2.983A5.137 5.137 0 0 0 10 3.066v.267c0 .367-.13.68-.391.941a1.284 1.284 0 0 1-.942.392H7.333V6a.645.645 0 0 1-.191.474.646.646 0 0 1-.475.192H5.333V8h4c.19 0 .348.063.476.191a.647.647 0 0 1 .19.475v2h.668c.289 0 .55.086.783.258.233.173.394.398.483.676Z" /></symbol><symbol viewBox="0 0 16 16" id="ec-simple-currency"><path d="M7.4 12.666h1.167v-.833a3.034 3.034 0 0 0 1.433-.65c.4-.333.6-.828.6-1.483a2.22 2.22 0 0 0-.4-1.284c-.267-.389-.8-.727-1.6-1.016-.667-.223-1.128-.417-1.383-.584-.256-.166-.384-.394-.384-.683 0-.289.103-.517.309-.683.205-.167.502-.25.891-.25.356 0 .634.086.834.258.2.172.344.386.433.642l1.067-.434a2.234 2.234 0 0 0-.675-1.016A1.857 1.857 0 0 0 8.6 4.166v-.833H7.433v.833c-.555.123-.989.367-1.3.734a1.858 1.858 0 0 0-.466 1.233c0 .522.152.944.458 1.267.306.322.786.6 1.442.833.7.256 1.186.483 1.458.683a.93.93 0 0 1 .408.784c0 .366-.13.636-.392.808-.26.172-.574.258-.941.258a1.51 1.51 0 0 1-.975-.342c-.283-.227-.492-.569-.625-1.024l-1.1.433c.155.533.397.964.725 1.292.328.328.753.553 1.275.675v.866Zm.6 2a6.489 6.489 0 0 1-2.6-.525 6.728 6.728 0 0 1-2.117-1.425A6.727 6.727 0 0 1 1.86 10.6 6.488 6.488 0 0 1 1.333 8c0-.923.175-1.79.526-2.6a6.728 6.728 0 0 1 1.424-2.117c.6-.6 1.306-1.075 2.117-1.425A6.495 6.495 0 0 1 8 1.333c.922 0 1.789.175 2.6.525.811.35 1.517.825 2.117 1.425.6.6 1.074 1.306 1.424 2.117.35.81.526 1.677.526 2.6 0 .922-.175 1.789-.526 2.6a6.728 6.728 0 0 1-1.424 2.116c-.6.6-1.306 1.075-2.117 1.425a6.488 6.488 0 0 1-2.6.525Zm0-1.333c1.489 0 2.75-.517 3.783-1.55 1.034-1.033 1.55-2.294 1.55-3.783 0-1.49-.516-2.75-1.55-3.784C10.75 3.183 9.49 2.666 8 2.666c-1.489 0-2.75.517-3.783 1.55C3.183 5.25 2.667 6.511 2.667 8c0 1.489.516 2.75 1.55 3.783C5.25 12.816 6.51 13.333 8 13.333Z" /></symbol><symbol viewBox="0 0 16 16" id="ec-simple-dashboard"><path d="M2 8.667h5.333V2H2v6.667ZM2 14h5.333v-4H2v4Zm6.667 0H14V7.333H8.667V14Zm0-12v4H14V2H8.667Z" fill-rule="evenodd" /></symbol><symbol viewBox="0 0 25 25" id="ec-simple-dashboard-light"><path d="M5.449 21.352c-.518 0-.982-.206-1.393-.617-.41-.41-.616-.875-.616-1.392V5.28c0-.53.192-.984.576-1.362a1.867 1.867 0 0 1 1.353-.566h14.143c.53 0 .984.188 1.362.566.377.378.566.832.566 1.362v14.143c0 .518-.189.969-.566 1.353a1.842 1.842 0 0 1-1.362.576H5.449Zm-.08-1.929h6.107V5.28H5.369v14.143Zm8.035 0h6.108v-7.071h-6.108v7.071Zm0-9h6.108V5.28h-6.108v5.143Z" /></symbol><symbol viewBox="0 0 10 12" id="ec-simple-delete"><path d="M1 10.667C1 11.4 1.6 12 2.333 12h5.334C8.4 12 9 11.4 9 10.667v-8H1v8Zm8.667-10H7.333L6.667 0H3.333l-.666.667H.333V2h9.334V.667Z" fill-rule="evenodd" /></symbol><symbol viewBox="0 0 16 16" id="ec-simple-document"><path fill-rule="evenodd" clip-rule="evenodd" d="M9.25 2h-5c-.688 0-1.244.54-1.244 1.2L3 12.8c0 .66.556 1.2 1.244 1.2h7.506c.688 0 1.25-.54 1.25-1.2V5.6L9.25 2Zm-5 10.8V3.2h4.375v3h3.125v6.6h-7.5Z" /></symbol><symbol viewBox="0 0 16 16" id="ec-simple-download"><path d="M12.667 6H10V2H6v4H3.333L8 10.667 12.667 6Zm-9.334 6v1.333h9.334V12H3.333Z" fill-rule="evenodd" /></symbol><symbol viewBox="0 0 16 16" id="ec-simple-drawdown"><path d="m8.588 9.48-.994.947a5.143 5.143 0 0 0 2.058 1.193l.343-1.293a3.77 3.77 0 0 1-1.407-.847Zm3.612-.813 2.8 2.666L12.2 14v-2.013a10.997 10.997 0 0 1-1.519-.127l.343-1.293c.336.046.735.08 1.176.086V8.667ZM12.2 2 15 4.667l-2.8 2.666V5.34c-2.576.067-3.325.853-4.116 1.693-.308.334-.644.674-1.085.967.343.227.616.487.868.753l-.987.94c-.595-.62-1.078-1.026-2.38-1.026H1V7.333h3.5c1.414 0 1.862-.473 2.541-1.193.868-.92 1.946-2.053 5.159-2.133V2Z" fill-rule="evenodd" /></symbol><symbol viewBox="0 0 16 16" id="ec-simple-edit"><path d="M2 11.5V14h2.5l7.373-7.373-2.5-2.5L2 11.5Zm11.807-6.807c.26-.26.26-.68 0-.94l-1.56-1.56a.664.664 0 0 0-.94 0l-1.22 1.22 2.5 2.5 1.22-1.22Z" fill-rule="evenodd" /></symbol><symbol viewBox="0 0 16 16" id="ec-simple-error"><defs><path d="M7.3 10.1h1.4v1.4H7.3v-1.4Zm0-5.6h1.4v4.2H7.3V4.5ZM7.993 1A6.997 6.997 0 0 0 1 8c0 3.864 3.129 7 6.993 7A7.004 7.004 0 0 0 15 8c0-3.864-3.136-7-7.007-7ZM8 13.6A5.598 5.598 0 0 1 2.4 8c0-3.094 2.506-5.6 5.6-5.6s5.6 2.506 5.6 5.6-2.506 5.6-5.6 5.6Z" id="ec-simple-error_a" /></defs><use xlink:href="#ec-simple-error_a" fill-rule="evenodd" /></symbol><symbol viewBox="0 0 24 24" id="ec-simple-eye"><path d="M12 7.8c3.618 0 6.844 1.917 8.42 4.95-1.576 3.033-4.802 4.95-8.42 4.95-3.618 0-6.844-1.917-8.42-4.95C5.157 9.717 8.383 7.8 12 7.8ZM12 6C7.227 6 3.151 8.799 1.5 12.75 3.151 16.701 7.227 19.5 12 19.5s8.849-2.799 10.5-6.75C20.849 8.799 16.773 6 12 6Zm0 4.5c1.317 0 2.386 1.008 2.386 2.25S13.317 15 12 15c-1.317 0-2.386-1.008-2.386-2.25S10.683 10.5 12 10.5Zm0-1.8c-2.367 0-4.295 1.818-4.295 4.05 0 2.232 1.928 4.05 4.295 4.05s4.296-1.818 4.296-4.05c0-2.232-1.929-4.05-4.296-4.05Z" /></symbol><symbol viewBox="0 0 16 16" id="ec-simple-fee"><path d="M5.174 7.427c.81 0 1.452-.22 1.928-.657.476-.439.713-1.018.713-1.74v-.577c0-.754-.237-1.35-.713-1.792C6.626 2.221 5.978 2 5.158 2c-.81 0-1.455.222-1.936.665C2.74 3.11 2.5 3.691 2.5 4.413v.569c0 .759.245 1.356.734 1.792.49.435 1.136.653 1.94.653Zm.525 5.539 5.832-9.122-1.288-.634-5.832 9.123 1.288.633Zm5.135-2.934c.274 0 .49.087.648.26.132.145.21.328.231.549l.007.137-.008.826c-.044.491-.331.737-.862.737a.838.838 0 0 1-.64-.284.947.947 0 0 1-.255-.539l-.007-.123v-.657c.011-.278.096-.498.254-.661.159-.163.37-.245.632-.245ZM5.158 3.46c.279 0 .495.09.648.268.127.15.202.333.223.551l.006.135v.48c0 .717-.287 1.075-.86 1.075-.28 0-.499-.087-.657-.26a.918.918 0 0 1-.231-.543L4.28 5.03V4.43c0-.3.08-.536.238-.71.158-.173.372-.26.64-.26ZM10.85 14c.815 0 1.46-.22 1.936-.657.476-.439.714-1.021.714-1.748v-.56c0-.776-.24-1.38-.722-1.813-.481-.432-1.13-.649-1.944-.649-.804 0-1.448.22-1.932.657-.484.439-.726 1.021-.726 1.748v.577c0 .759.245 1.356.735 1.792.489.435 1.136.653 1.94.653Z" fill-rule="evenodd" /></symbol><symbol viewBox="0 0 16 16" id="ec-simple-hedging"><path d="M11.273 9.24 8.997 7v1.68H5V9.8h3.997v1.68l2.276-2.24Zm1.394-6.907H12V1h-1.333v1.333H5.333V1H4v1.333h-.667c-.74 0-1.326.6-1.326 1.334L2 13c0 .733.593 1.333 1.333 1.333h9.334c.733 0 1.333-.6 1.333-1.333V3.667c0-.734-.6-1.334-1.333-1.334Zm0 10.667H3.333V5.667h9.334V13Z" fill-rule="evenodd" /></symbol><symbol viewBox="0 0 16 16" id="ec-simple-help"><path d="M12.667 1.333H3.333c-.74 0-1.333.6-1.333 1.334V12c0 .733.593 1.333 1.333 1.333H6l2 2 2-2h2.667c.733 0 1.333-.6 1.333-1.333V2.667c0-.734-.6-1.334-1.333-1.334ZM8.667 12H7.333v-1.333h1.334V12Zm1.38-5.167-.6.614c-.48.486-.78.886-.78 1.886H7.333V9c0-.733.3-1.4.78-1.887l.827-.84c.247-.24.393-.573.393-.94C9.333 4.6 8.733 4 8 4s-1.333.6-1.333 1.333H5.333a2.666 2.666 0 1 1 5.334 0c0 .587-.24 1.12-.62 1.5Z" fill-rule="evenodd" /></symbol><symbol viewBox="0 0 24 25" id="ec-simple-incoming-funds"><path d="M20.327 3.8v5.238a7.138 7.138 0 0 1-7.139 7.138H6.851l3.413 3.414-1.315 1.316-5.003-5.003a.931.931 0 0 1 0-1.316l5.003-5.003 1.316 1.316-3.414 3.414h6.337a5.276 5.276 0 0 0 5.277-5.276V3.8h1.862Z" /></symbol><symbol viewBox="0 0 16 16" id="ec-simple-info"><path d="M8.7 5.9H7.3V4.5h1.4v1.4Zm0 5.6H7.3V7.3h1.4v4.2ZM8.007 15A6.997 6.997 0 0 0 15 8c0-3.864-3.129-7-6.993-7A7.004 7.004 0 0 0 1 8c0 3.864 3.136 7 7.007 7ZM8 2.4c3.094 0 5.6 2.506 5.6 5.6s-2.506 5.6-5.6 5.6A5.598 5.598 0 0 1 2.4 8c0-3.094 2.506-5.6 5.6-5.6Z" fill-rule="evenodd" /></symbol><symbol viewBox="0 0 16 16" id="ec-simple-loading"><path d="M8 2.667A5.334 5.334 0 0 0 2.667 8H4c0-2.206 1.794-4 4-4s4 1.794 4 4-1.794 4-4 4v1.333A5.334 5.334 0 0 0 8 2.667" fill-rule="evenodd" /></symbol><symbol viewBox="0 0 22 28" id="ec-simple-locker"><path d="M18.95 9.333h-1.325V6.667C17.625 2.987 14.657 0 11 0S4.375 2.987 4.375 6.667v2.666H3.05C1.592 9.333.4 10.533.4 12v13.333C.4 26.8 1.592 28 3.05 28h15.9c1.457 0 2.65-1.2 2.65-2.667V12c0-1.467-1.193-2.667-2.65-2.667ZM7.025 6.667c0-2.214 1.775-4 3.975-4s3.975 1.786 3.975 4v2.666h-7.95V6.667ZM18.95 25.333H3.05V12h15.9v13.333Zm-7.95-4c1.457 0 2.65-1.2 2.65-2.666C13.65 17.2 12.457 16 11 16c-1.458 0-2.65 1.2-2.65 2.667 0 1.466 1.192 2.666 2.65 2.666Z" /></symbol><symbol viewBox="0 0 16 16" id="ec-simple-mail"><path d="M2.667 13.334c-.367 0-.68-.13-.942-.392A1.284 1.284 0 0 1 1.333 12V4c0-.366.13-.68.392-.941.261-.261.575-.392.942-.392h10.666c.367 0 .68.13.942.392.261.26.392.575.392.941v8c0 .367-.13.681-.392.942-.261.261-.575.392-.942.392H2.667ZM8 8.667 2.667 5.334V12h10.666V5.334L8 8.667Zm0-1.333L13.333 4H2.667L8 7.334Zm-5.333-2V4v8-6.666Z" /></symbol><symbol viewBox="0 0 16 16" id="ec-simple-menu"><path fill-rule="evenodd" clip-rule="evenodd" d="M2 12h12v-1.333H2V12Zm0-3.333h12V7.333H2v1.334ZM2 4v1.333h12V4H2Z" /></symbol><symbol viewBox="0 0 16 16" id="ec-simple-more"><path d="M4 6.667c-.733 0-1.333.6-1.333 1.333S3.267 9.333 4 9.333 5.333 8.733 5.333 8 4.733 6.667 4 6.667Zm8 0c-.733 0-1.333.6-1.333 1.333s.6 1.333 1.333 1.333 1.333-.6 1.333-1.333-.6-1.333-1.333-1.333Zm-4 0c-.733 0-1.333.6-1.333 1.333S7.267 9.333 8 9.333 9.333 8.733 9.333 8 8.733 6.667 8 6.667Z" fill-rule="evenodd" /></symbol><symbol viewBox="0 0 16 16" id="ec-simple-numbers"><path fill-rule="evenodd" clip-rule="evenodd" d="M3 4h10a1 1 0 0 1 1 1v6a1 1 0 0 1-1 1H3a1 1 0 0 1-1-1V5a1 1 0 0 1 1-1ZM1 5a2 2 0 0 1 2-2h10a2 2 0 0 1 2 2v6a2 2 0 0 1-2 2H3a2 2 0 0 1-2-2V5Zm2.833 2v3h1V6h-2v1h1Zm2.334 1.333V10h3V9h-2v-.667H8.5a.646.646 0 0 0 .475-.192.644.644 0 0 0 .192-.474v-1a.647.647 0 0 0-.192-.476A.647.647 0 0 0 8.5 6H6.167v1h2v.667H6.833a.644.644 0 0 0-.474.191.646.646 0 0 0-.192.475Zm4 .667v1H12.5a.644.644 0 0 0 .475-.192.643.643 0 0 0 .192-.475V6.667a.646.646 0 0 0-.192-.476A.645.645 0 0 0 12.5 6h-2.333v1h2v.667h-1.334v.666h1.334V9h-2Z" /></symbol><symbol viewBox="0 0 16 16" id="ec-simple-outline-delete"><path fill-rule="evenodd" clip-rule="evenodd" d="M10.857 6v6.667H5.143V6h5.714ZM9.786 2H6.214l-.714.667H3V4h10V2.667h-2.5L9.786 2Zm2.5 2.667H3.714v8c0 .733.643 1.333 1.429 1.333h5.714c.786 0 1.429-.6 1.429-1.333v-8Z" /></symbol><symbol viewBox="0 0 16 16" id="ec-simple-payment"><path d="M13.333 2.667H2.667c-.74 0-1.327.593-1.327 1.333l-.007 8c0 .74.594 1.333 1.334 1.333h10.666c.74 0 1.334-.593 1.334-1.333V4c0-.74-.594-1.333-1.334-1.333Zm0 9.333H2.667V8h10.666v4Zm0-6.667H2.667V4h10.666v1.333Z" fill-rule="evenodd" /></symbol><symbol viewBox="0 0 24 25" id="ec-simple-payment-light"><path fill-rule="evenodd" clip-rule="evenodd" d="M19.422 5.234H4.578A2.078 2.078 0 0 0 2.5 7.313v10.093a2.078 2.078 0 0 0 2.078 2.078h14.844a2.078 2.078 0 0 0 2.078-2.078V7.313a2.078 2.078 0 0 0-2.078-2.079Zm.297 12.172a.297.297 0 0 1-.297.297H4.578a.297.297 0 0 1-.297-.297V7.313a.297.297 0 0 1 .297-.297h14.844a.297.297 0 0 1 .297.296v10.094ZM7.25 12.36a.89.89 0 1 1-1.781 0 .89.89 0 0 1 1.781 0Zm11.281 0a.89.89 0 1 1-1.78 0 .89.89 0 0 1 1.78 0Zm-8.345-2.715a3.266 3.266 0 1 1 3.628 5.43 3.266 3.266 0 0 1-3.628-5.43Zm.99 3.95a1.484 1.484 0 1 0 1.649-2.469 1.484 1.484 0 0 0-1.65 2.469Z" /></symbol><symbol viewBox="0 0 16 16" id="ec-simple-person"><path d="M8 8a2.666 2.666 0 1 0 0-5.333A2.666 2.666 0 1 0 8 8Zm0 1.333c-1.78 0-5.333.894-5.333 2.667v1.333h10.666V12c0-1.773-3.553-2.667-5.333-2.667Z" fill-rule="evenodd" /></symbol><symbol viewBox="0 0 16 16" id="ec-simple-postal-code"><path d="m10 14-4-1.4-3.1 1.2a.602.602 0 0 1-.617-.075.658.658 0 0 1-.283-.558V3.833a.62.62 0 0 1 .125-.383.75.75 0 0 1 .342-.25L6 2l4 1.4 3.1-1.2a.603.603 0 0 1 .617.075.66.66 0 0 1 .283.558v9.334a.621.621 0 0 1-.125.383.75.75 0 0 1-.342.25L10 14Zm-.667-1.633v-7.8l-2.666-.934v7.8l2.666.934Zm1.334 0 2-.667V3.8l-2 .767v7.8ZM3.333 12.2l2-.767v-7.8l-2 .667v7.9Z" /></symbol><symbol viewBox="0 0 16 16" id="ec-simple-reason"><path d="M9.5 11.75H2v1.5h7.5v-1.5Zm4.5-6H2v1.5h12v-1.5Zm-12 4.5h12v-1.5H2v1.5Zm0-7.5v1.5h12v-1.5H2Z" fill-rule="evenodd" /></symbol><symbol viewBox="0 0 16 16" id="ec-simple-refresh"><path fill-rule="evenodd" clip-rule="evenodd" d="M11.767 4.233A5.305 5.305 0 0 0 8 2.667 5.326 5.326 0 0 0 2.673 8 5.326 5.326 0 0 0 8 13.333c2.487 0 4.56-1.7 5.153-4h-1.386A3.994 3.994 0 0 1 8 12c-2.207 0-4-1.793-4-4s1.793-4 4-4c1.107 0 2.093.46 2.813 1.187L8.667 7.333h4.666V2.667l-1.566 1.566Z" /></symbol><symbol viewBox="0 0 16 16" id="ec-simple-relationship"><path d="M8.258 13.225a.38.38 0 0 0 .158-.033.404.404 0 0 0 .126-.084l5.116-5.133a1.182 1.182 0 0 0 .258-1.291 1.16 1.16 0 0 0-.258-.392l-3.1-3.117a1.429 1.429 0 0 0-.4-.259 1.15 1.15 0 0 0-.45-.09 1.04 1.04 0 0 0-.608.19 3.76 3.76 0 0 0-.508.426l1.25 1.2c.178.178.32.375.425.591.105.217.158.454.158.709 0 .444-.155.822-.466 1.133-.312.311-.69.467-1.134.467-.211 0-.414-.039-.609-.117a1.558 1.558 0 0 1-.524-.35L6.325 5.708 3.742 8.292a.903.903 0 0 0-.084.133.372.372 0 0 0 .092.433.394.394 0 0 0 .275.117c.056 0 .105-.011.15-.033a.852.852 0 0 0 .133-.084l1.984-1.966.833.833-1.983 1.983a.374.374 0 0 0-.092.134.425.425 0 0 0-.025.15c0 .111.04.205.117.283a.384.384 0 0 0 .283.117.417.417 0 0 0 .283-.117l1.984-1.983.85.85-1.983 1.966a.358.358 0 0 0-.092.142.502.502 0 0 0-.025.158c0 .111.039.206.117.284a.384.384 0 0 0 .283.116.406.406 0 0 0 .283-.117l1.983-1.983.85.85-1.983 1.967a.743.743 0 0 0-.083.142.384.384 0 0 0-.034.158c0 .111.039.206.117.283a.386.386 0 0 0 .283.117Zm-.016 1.167c-.411 0-.767-.136-1.067-.408a1.556 1.556 0 0 1-.517-1.01 1.465 1.465 0 0 1-.942-.449 1.69 1.69 0 0 1-.474-.95 1.66 1.66 0 0 1-.958-.475 1.482 1.482 0 0 1-.442-.941 1.386 1.386 0 0 1-1.017-.501c-.267-.31-.4-.672-.4-1.083 0-.211.04-.414.117-.608.077-.195.194-.37.35-.525l3.433-3.417 2.2 2.2a.38.38 0 0 0 .133.091.42.42 0 0 0 .15.026c.111 0 .206-.039.284-.117a.386.386 0 0 0 .116-.283.38.38 0 0 0-.033-.158.403.403 0 0 0-.083-.126L6.608 3.175a1.146 1.146 0 0 0-.4-.267 1.244 1.244 0 0 0-.45-.083c-.155 0-.305.03-.45.091a1.414 1.414 0 0 0-.4.259l-2.55 2.55c-.11.111-.197.242-.258.391-.061.15-.092.304-.092.459 0 .089.012.175.034.258.022.084.05.17.083.259l-.883.867a2.249 2.249 0 0 1-.326-.65 2.471 2.471 0 0 1-.108-.734c0-.322.059-.63.176-.925.116-.294.291-.553.524-.775l2.55-2.55a2.392 2.392 0 0 1 1.7-.7 2.39 2.39 0 0 1 1.7.7l.267.267.267-.284a2.39 2.39 0 0 1 1.7-.7 2.381 2.381 0 0 1 1.683.7l3.117 3.117c.222.223.394.478.516.767a2.389 2.389 0 0 1-.517 2.617l-5.116 5.116c-.155.156-.33.272-.525.35a1.618 1.618 0 0 1-.608.117Z" /></symbol><symbol viewBox="0 0 16 16" id="ec-simple-request"><path d="m12.667 10-4 4-.947-.947 2.393-2.386H2.667v-8H4v6.666h6.113L7.72 6.947 8.667 6z" fill-rule="evenodd" /></symbol><symbol viewBox="0 0 24 24" id="ec-simple-reuse"><path d="M9.95 19.01c-1.617 0-3.013-.526-4.188-1.576C4.587 16.384 4 15.076 4 13.51c0-1.566.587-2.87 1.762-3.912 1.175-1.042 2.57-1.563 4.188-1.563H16L14.175 6.21a.946.946 0 0 1-.288-.725c.008-.283.112-.525.313-.725.2-.2.445-.3.737-.3s.538.1.738.3l3.575 3.575c.116.117.2.238.25.363a1.034 1.034 0 0 1 0 .775c-.05.125-.134.246-.25.362l-3.6 3.6c-.2.2-.442.296-.726.288a1.034 1.034 0 0 1-.724-.313c-.2-.2-.3-.445-.3-.737s.1-.538.3-.738l1.8-1.8H9.95c-1.034 0-1.934.317-2.7.95-.767.634-1.15 1.442-1.15 2.425 0 1 .383 1.817 1.15 2.45.766.634 1.666.95 2.7.95h5.975c.283 0 .529.105.737.313.208.208.313.454.313.737 0 .284-.105.53-.313.738a1.009 1.009 0 0 1-.737.313H9.95Z" /></symbol><symbol viewBox="0 0 16 16" id="ec-simple-search"><path d="M10.333 9.333h-.526l-.187-.18a4.314 4.314 0 0 0 1.047-2.82 4.333 4.333 0 1 0-4.334 4.334c1.074 0 2.06-.394 2.82-1.047l.18.187v.526l3.334 3.327.993-.993-3.327-3.334Zm-4 0c-1.66 0-3-1.34-3-3s1.34-3 3-3 3 1.34 3 3-1.34 3-3 3Z" fill-rule="evenodd" /></symbol><symbol viewBox="0 0 16 16" id="ec-simple-sell"><path d="m14 8-2.526-2.5v1.875H2v1.25h9.474V10.5z" fill-rule="evenodd" /></symbol><symbol viewBox="0 0 16 16" id="ec-simple-sign-out"><path d="M8.667 2H7.333v6.667h1.334V2Zm3.22 1.447-.947.946A4.613 4.613 0 0 1 12.667 8 4.663 4.663 0 0 1 8 12.667a4.663 4.663 0 0 1-2.947-8.28l-.94-.94A5.955 5.955 0 0 0 2 8a6 6 0 0 0 12 0c0-1.827-.82-3.453-2.113-4.553Z" fill-rule="evenodd" /></symbol><symbol viewBox="0 0 25 24" id="ec-simple-snowflake"><path d="M11.675 22v-4.625L8.1 20.925 6.925 19.75l4.75-4.75v-2.175H9.5l-4.675 4.7-1.2-1.15 3.5-3.55H2.5v-1.65h4.625l-3.55-3.6L4.75 6.4l4.75 4.775h2.175v-2.2L6.975 4.3 8.15 3.1l3.525 3.525V2h1.65v4.625l3.6-3.575 1.15 1.175-4.75 4.75v2.2h2.2l4.7-4.7 1.175 1.15-3.525 3.55H22.5v1.65h-4.625l3.55 3.575-1.15 1.175-4.75-4.75h-2.2V15l4.75 4.775-1.15 1.175-3.6-3.575V22h-1.65Z" /></symbol><symbol viewBox="0 0 16 16" id="ec-simple-thumb-down"><path d="M10 2H4c-.553 0-1.027.333-1.227.813L.76 7.513C.7 7.667.667 7.827.667 8v1.273l.006.007-.006.053c0 .734.6 1.334 1.333 1.334h4.207l-.634 3.046-.02.214c0 .273.114.526.294.706l.706.7 4.394-4.393c.24-.24.386-.573.386-.94V3.333C11.333 2.6 10.733 2 10 2Zm2.667 0v8h2.666V2h-2.666Z" fill-rule="evenodd" /></symbol><symbol viewBox="0 0 16 16" id="ec-simple-thumb-up"><path d="M.667 14h2.666V6H.667v8Zm14.666-7.333c0-.734-.6-1.334-1.333-1.334H9.793l.634-3.046.02-.214c0-.273-.114-.526-.294-.706l-.706-.7L5.06 5.06c-.247.24-.393.573-.393.94v6.667C4.667 13.4 5.267 14 6 14h6c.553 0 1.027-.333 1.227-.813l2.013-4.7c.06-.154.093-.314.093-.487V6.727l-.006-.007.006-.053Z" fill-rule="evenodd" /></symbol><symbol viewBox="0 0 16 16" id="ec-simple-trade"><path d="M4.66 7.333 2 10l2.66 2.667v-2h4.673V9.333H4.66v-2ZM14 6l-2.66-2.667v2H6.667v1.334h4.673v2L14 6Z" fill-rule="evenodd" /></symbol><symbol viewBox="0 0 16 16" id="ec-simple-trade-finance"><path d="m10.667 4 1.526 1.527L8.94 8.78 6.273 6.113l-4.94 4.947.94.94 4-4 2.667 2.667 4.2-4.194L14.667 8V4z" fill-rule="evenodd" /></symbol><symbol viewBox="0 0 25 25" id="ec-simple-trade-finance-with-underline"><path fill-rule="evenodd" clip-rule="evenodd" d="m12.93 14.12-4.015-4.013-4.338 4.338-1.226-1.226 4.951-4.952a.868.868 0 0 1 1.227 0l4.014 4.014 4.847-4.847h-3.401V5.7h5.495a.867.867 0 0 1 .867.868v5.495h-1.735V8.66l-5.46 5.46a.868.868 0 0 1-1.226 0Zm-7.196 3.15h13.303v1.734H5.735V17.27Z" /></symbol><symbol viewBox="0 0 24 25" id="ec-simple-transaction"><path d="M3.514 7.324a3.253 3.253 0 1 0 6.507 0 3.253 3.253 0 0 0-6.507 0Zm4.733 0a1.479 1.479 0 1 1-2.958 0 1.479 1.479 0 0 1 2.958 0ZM20.486 17.378a3.253 3.253 0 1 0-6.507 0 3.253 3.253 0 0 0 6.507 0Zm-4.733 0a1.479 1.479 0 1 1 2.958 0 1.479 1.479 0 0 1-2.958 0ZM4.993 15.38v3.182a2.366 2.366 0 0 0 2.366 2.366H11.5v-1.775H7.36a.591.591 0 0 1-.592-.591v-3.183l1.739 1.74 1.254-1.255-3.254-3.253a.887.887 0 0 0-1.254 0L2 15.864l1.254 1.255 1.74-1.74ZM19.007 9.322V6.14a2.366 2.366 0 0 0-2.366-2.367H12.5v1.775h4.14a.591.591 0 0 1 .592.592v3.182l-1.739-1.74-1.254 1.255 3.253 3.253a.888.888 0 0 0 1.255 0L22 8.837l-1.254-1.254-1.74 1.739Z" /></symbol><symbol viewBox="0 0 16 16" id="ec-simple-wallet"><path d="M14 12v.667C14 13.4 13.4 14 12.667 14H3.333C2.593 14 2 13.4 2 12.667V3.333C2 2.6 2.593 2 3.333 2h9.334C13.4 2 14 2.6 14 3.333V4H8c-.74 0-1.333.6-1.333 1.333v5.334C6.667 11.4 7.26 12 8 12h6Zm-6-1.333h6.667V5.333H8v5.334ZM10.667 9c-.554 0-1-.447-1-1 0-.553.446-1 1-1 .553 0 1 .447 1 1 0 .553-.447 1-1 1Z" fill-rule="evenodd" /></symbol><symbol viewBox="0 0 16 16" id="ec-simple-wand"><path d="M13.333 4.667 12.7 3.3l-1.367-.633 1.367-.634.633-1.366.634 1.366 1.366.634-1.366.633-.634 1.367Zm-7.666 0L5.033 3.3l-1.366-.633 1.366-.634.634-1.366.633 1.366 1.367.634L6.3 3.3l-.633 1.367Zm7.666 7.666-.633-1.366-1.367-.634L12.7 9.7l.633-1.367.634 1.367 1.366.633-1.366.634-.634 1.366ZM3.4 14.467 1.533 12.6a.658.658 0 0 1-.2-.483c0-.19.067-.35.2-.484L8.967 4.2A.658.658 0 0 1 9.45 4c.189 0 .35.067.483.2L11.8 6.067c.133.133.2.294.2.483s-.067.35-.2.483l-7.433 7.434a.659.659 0 0 1-.484.2.659.659 0 0 1-.483-.2Zm.5-1.4 4.767-4.8-.934-.934-4.8 4.767.967.967Z" /></symbol><symbol viewBox="0 0 16 16" id="ec-simple-withdraw"><path d="M10.5 14V8.562c0-.194-.038-.385-.115-.572a1.45 1.45 0 0 0-.323-.49l-4-4H7.75V2H3.5v4.25H5V4.562l4 4V14h1.5Z" /></symbol></defs></svg>