<?xml version="1.0" encoding="UTF-8"?>
<svg width="16px" height="16px" viewBox="0 0 16 16" version="1.1" xmlns="http://www.w3.org/2000/svg" xmlns:xlink="http://www.w3.org/1999/xlink">
    <!-- Generator: Sketch 58 (84663) - https://sketch.com -->
    <title>Graphics / 00 Icon / Rounded / Books</title>
    <desc>Created with Sketch.</desc>
    <defs>
        <path d="M8,1 C11.8659932,1 15,4.13400675 15,8 C15,11.8659932 11.8659932,15 8,15 C4.13400675,15 1,11.8659932 1,8 C1,4.13400675 4.13400675,1 8,1 Z M10.5,3.83333333 L5.5,3.83333333 C5.04166667,3.83333333 4.66666667,4.20833333 4.66666667,4.66666667 L4.66666667,11.3333333 C4.66666667,11.7916667 5.04166667,12.1666667 5.5,12.1666667 L10.5,12.1666667 C10.9583333,12.1666667 11.3333333,11.7916667 11.3333333,11.3333333 L11.3333333,4.66666667 C11.3333333,4.20833333 10.9583333,3.83333333 10.5,3.83333333 Z M5.91666667,4.66666667 L5.91666667,8.41666667 L7.16666667,7.47916667 L8.41666667,8.41666667 L8.41666667,4.66666667 L10.5,4.66666667 L10.5,11.3333333 L5.5,11.3333333 L5.5,4.66666667 L5.91666667,4.66666667 Z M7.58333333,4.66666667 L7.58333333,6.75 L7.16666667,6.4375 L6.75,6.75 L6.75,4.66666667 L7.58333333,4.66666667 Z" id="path-1"></path>
    </defs>
    <g id="Graphics-/-00-Icon-/-Rounded-/-Books" stroke="none" stroke-width="1" fill="none" fill-rule="evenodd">
        <mask id="mask-2" fill="white">
            <use xlink:href="#path-1"></use>
        </mask>
        <use id="Combined-Shape" fill="#6C7F84" xlink:href="#path-1"></use>
    </g>
</svg>