<?xml version="1.0" encoding="UTF-8"?>
<svg width="14px" height="14px" viewBox="0 0 14 14" version="1.1" xmlns="http://www.w3.org/2000/svg" xmlns:xlink="http://www.w3.org/1999/xlink">
    <!-- Generator: Sketch 61.2 (89653) - https://sketch.com -->
    <title>Graphics / 00 Icon / Rounded / Calendar</title>
    <desc>Created with Sketch.</desc>
    <g id="New-Balances---Account-Panel" stroke="none" stroke-width="1" fill="none" fill-rule="evenodd">
        <g id="Graphics-/-00-Icon-/-Rounded-/-Calendar" transform="translate(-1.000000, -1.000000)" fill="#6C7F84">
            <path d="M8,1 C11.8659932,1 15,4.13400675 15,8 C15,11.8659932 11.8659932,15 8,15 C4.13400675,15 1,11.8659932 1,8 C1,4.13400675 4.13400675,1 8,1 Z M6.22222222,4 L5.33333333,4 L5.33333333,4.8 L4.88888889,4.8 C4.39555556,4.8 4.00444444,5.16 4.00444444,5.6 L4,11.2 C4,11.64 4.39555556,12 4.88888889,12 L11.1111111,12 C11.6,12 12,11.64 12,11.2 L12,5.6 C12,5.16 11.6,4.8 11.1111111,4.8 L10.6666667,4.8 L10.6666667,4 L9.77777778,4 L9.77777778,4.8 L6.22222222,4.8 L6.22222222,4 Z M11,6.5 L11,11 L5,11 L5,6.5 L11,6.5 Z M8,7.5 L6,7.5 L6,9.5 L8,9.5 L8,7.5 Z" id="Combined-Shape"></path>
        </g>
    </g>
</svg>