<?xml version="1.0" encoding="UTF-8"?>
<svg width="16px" height="16px" viewBox="0 0 16 16" version="1.1" xmlns="http://www.w3.org/2000/svg" xmlns:xlink="http://www.w3.org/1999/xlink">
    <!-- Generator: Sketch 55.2 (78181) - https://sketchapp.com -->
    <title>Graphics / 00 Icon / Rounded / Euro</title>
    <desc>Created with Sketch.</desc>
    <g id="Graphics-/-00-Icon-/-Rounded-/-Euro" stroke="none" stroke-width="1" fill="none" fill-rule="evenodd">
        <path d="M8,15 C4.13400675,15 1,11.8659932 1,8 C1,4.13400675 4.13400675,1 8,1 C11.8659932,1 15,4.13400675 15,8 C15,11.8659932 11.8659932,15 8,15 Z M8.66666667,10.8888889 C7.55111111,10.8888889 6.58666667,10.2577778 6.10666667,9.33333333 L8.66666667,9.33333333 L8.66666667,8.44444444 L5.81333333,8.44444444 C5.79111111,8.29777778 5.77777778,8.15111111 5.77777778,8 C5.77777778,7.84888889 5.79111111,7.70222222 5.81333333,7.55555556 L8.66666667,7.55555556 L8.66666667,6.66666667 L6.10666667,6.66666667 C6.58666667,5.74222222 7.55555556,5.11111111 8.66666667,5.11111111 C9.38222222,5.11111111 10.04,5.37333333 10.5466667,5.80888889 L11.3333333,5.02222222 C10.6266667,4.38666667 9.68888889,4 8.66666667,4 C6.92444444,4 5.44888889,5.11555556 4.89777778,6.66666667 L3.33333333,6.66666667 L3.33333333,7.55555556 L4.69333333,7.55555556 C4.67555556,7.70222222 4.66666667,7.84888889 4.66666667,8 C4.66666667,8.15111111 4.67555556,8.29777778 4.69333333,8.44444444 L3.33333333,8.44444444 L3.33333333,9.33333333 L4.89777778,9.33333333 C5.44888889,10.8844444 6.92444444,12 8.66666667,12 C9.69333333,12 10.6266667,11.6133333 11.3333333,10.9777778 L10.5422222,10.1911111 C10.04,10.6266667 9.38666667,10.8888889 8.66666667,10.8888889 Z" id="Colour" fill="#6C7F84"></path>
    </g>
</svg>