<?xml version="1.0" encoding="UTF-8"?>
<svg width="16px" height="16px" viewBox="0 0 16 16" version="1.1" xmlns="http://www.w3.org/2000/svg" xmlns:xlink="http://www.w3.org/1999/xlink">
    <!-- Generator: Sketch 58 (84663) - https://sketch.com -->
    <title>Graphics / 00 Icon / Rounded / Hourglass</title>
    <desc>Created with Sketch.</desc>
    <g id="Graphics-/-00-Icon-/-Rounded-/-Hourglass" stroke="none" stroke-width="1" fill="none" fill-rule="evenodd">
        <path d="M8,1 C11.8659932,1 15,4.13400675 15,8 C15,11.8659932 11.8659932,15 8,15 C4.13400675,15 1,11.8659932 1,8 C1,4.13400675 4.13400675,1 8,1 Z M10.6666667,3.55555556 L5.33333333,3.55555556 L5.33333333,6.22222222 L5.33777778,6.22222222 L5.33333333,6.22666667 L7.11111111,8 L5.33333333,9.77777778 L5.33777778,9.78222222 L5.33333333,9.78222222 L5.33333333,12.4444444 L10.6666667,12.4444444 L10.6666667,9.78222222 L10.6622222,9.78222222 L10.6666667,9.77777778 L8.88888889,8 L10.6666667,6.22666667 L10.6622222,6.22222222 L10.6666667,6.22222222 L10.6666667,3.55555556 Z M8,8.22222222 L9.77777778,10 L9.77777778,11.5555556 L6.22222222,11.5555556 L6.22222222,10 L8,8.22222222 Z M9.77777778,4.44444444 L9.77777778,6 L8,7.77777778 L6.22222222,6 L6.22222222,4.44444444 L9.77777778,4.44444444 Z" id="Colour" fill="#6C7F84"></path>
    </g>
</svg>