<?xml version="1.0" encoding="UTF-8"?>
<svg width="16px" height="16px" viewBox="0 0 16 16" version="1.1" xmlns="http://www.w3.org/2000/svg" xmlns:xlink="http://www.w3.org/1999/xlink">
    <title>Graphics/00 Icon/Rounded/Info</title>
    <g id="Graphics/00-Icon/Rounded/Info" stroke="none" stroke-width="1" fill="none" fill-rule="evenodd">
        <path d="M8,15 C11.8659932,15 15,11.8659932 15,8 C15,4.13400675 11.8659932,1 8,1 C4.13400675,1 1,4.13400675 1,8 C1,11.8659932 4.13400675,15 8,15 Z M7.4,9.8 L8.6,9.8 L8.6,11 L7.4,11 L7.4,9.8 Z M7.4,5 L8.6,5 L8.6,8.6 L7.4,8.6 L7.4,5 Z M7.994,2 C4.682,2 2,4.688 2,8 C2,11.312 4.682,14 7.994,14 C11.312,14 14,11.312 14,8 C14,4.688 11.312,2 7.994,2 Z M8,12.8 C5.348,12.8 3.2,10.652 3.2,8 C3.2,5.348 5.348,3.2 8,3.2 C10.652,3.2 12.8,5.348 12.8,8 C12.8,10.652 10.652,12.8 8,12.8 Z" id="Colour" fill="#FFA41C" transform="translate(8.000000, 8.000000) rotate(-180.000000) translate(-8.000000, -8.000000) "></path>
    </g>
</svg>