<?xml version="1.0" encoding="UTF-8"?>
<svg width="16px" height="16px" viewBox="0 0 16 16" version="1.1" xmlns="http://www.w3.org/2000/svg" xmlns:xlink="http://www.w3.org/1999/xlink">
    <!-- Generator: Sketch 58 (84663) - https://sketch.com -->
    <title>Graphics / 00 Icon / Rounded / Open</title>
    <desc>Created with Sketch.</desc>
    <g id="Graphics-/-00-Icon-/-Rounded-/-Open" stroke="none" stroke-width="1" fill="none" fill-rule="evenodd">
        <path d="M8,1 C11.8659932,1 15,4.13400675 15,8 C15,11.8659932 11.8659932,15 8,15 C4.13400675,15 1,11.8659932 1,8 C1,4.13400675 4.13400675,1 8,1 Z M8.57818182,5 L7.46545455,5 L7.53090909,7.43683589 L5.33454545,6.64344746 L5,7.71310508 L7.19636364,8.35064935 L5.73454545,10.3057851 L6.64363636,10.9504132 L7.95272727,8.95985832 L9.30545455,11 L10.2072727,10.3341204 L8.76727273,8.41440378 L11,7.76977568 L10.6654545,6.69303424 L8.50545455,7.47225502 L8.57818182,5 Z" id="Combined-Shape" fill="#6C7F84"></path>
    </g>
</svg>