<?xml version="1.0" encoding="UTF-8"?>
<svg width="16px" height="16px" viewBox="0 0 16 16" version="1.1" xmlns="http://www.w3.org/2000/svg" xmlns:xlink="http://www.w3.org/1999/xlink">
    <!-- Generator: Sketch 59.1 (86144) - https://sketch.com -->
    <title>Graphics / 00 Icon / Rounded / Settings</title>
    <desc>Created with Sketch.</desc>
    <defs>
        <path d="M8,1 C11.8659932,1 15,4.13400675 15,8 C15,11.8659932 11.8659932,15 8,15 C4.13400675,15 1,11.8659932 1,8 C1,4.13400675 4.13400675,1 8,1 Z M8.82287645,4 L7.17712355,4 C7.074264,4 6.99197635,4.07 6.97654742,4.17 L6.82225809,5.23 C6.57025217,5.33 6.33881817,5.465 6.12795609,5.62 L5.10450351,5.22 C5.0119299,5.185 4.90392737,5.22 4.85249759,5.31 L4.02962115,6.695 C3.97819137,6.785 3.99876328,6.89 4.08105093,6.95 L4.95021417,7.61 C4.92964226,7.735 4.91421333,7.87 4.91421333,8 C4.91421333,8.13 4.92449928,8.265 4.94507119,8.39 L4.07590795,9.05 C3.99876328,9.11 3.97819137,9.22 4.02447817,9.305 L4.84735462,10.69 C4.89878439,10.78 5.00678693,10.81 5.09936053,10.78 L6.12281311,10.38 C6.33881817,10.54 6.5651092,10.67 6.81711511,10.77 L6.97140444,11.83 C6.99197635,11.93 7.074264,12 7.17712355,12 L8.82287645,12 C8.925736,12 9.01316662,11.93 9.02345258,11.83 L9.17774191,10.77 C9.42974783,10.67 9.66118183,10.535 9.87204391,10.38 L10.8954965,10.78 C10.9880701,10.815 11.0960726,10.78 11.1475024,10.69 L11.9703789,9.305 C12.0218086,9.215 12.0012367,9.11 11.9189491,9.05 L11.0600718,8.39 C11.0755007,8.265 11.0857867,8.135 11.0857867,8 C11.0857867,7.865 11.0755007,7.735 11.0549288,7.61 L11.9240921,6.95 C12.0012367,6.89 12.0218086,6.78 11.9755218,6.695 L11.1526454,5.31 C11.1012156,5.22 10.9932131,5.19 10.9006395,5.22 L9.87718689,5.62 C9.66118183,5.46 9.4348908,5.33 9.18288489,5.23 L9.02859556,4.17 C9.01316662,4.07 8.925736,4 8.82287645,4 Z M8,6.5 C8.825,6.5 9.5,7.175 9.5,8 C9.5,8.825 8.825,9.5 8,9.5 C7.175,9.5 6.5,8.825 6.5,8 C6.5,7.175 7.175,6.5 8,6.5 Z" id="path-1"></path>
    </defs>
    <g id="Graphics-/-00-Icon-/-Rounded-/-Settings" stroke="none" stroke-width="1" fill="none" fill-rule="evenodd">
        <mask id="mask-2" fill="white">
            <use xlink:href="#path-1"></use>
        </mask>
        <use id="Combined-Shape" fill="#6C7F84" xlink:href="#path-1"></use>
    </g>
</svg>