<?xml version="1.0" encoding="UTF-8"?>
<svg width="16px" height="16px" viewBox="0 0 16 16" version="1.1" xmlns="http://www.w3.org/2000/svg" xmlns:xlink="http://www.w3.org/1999/xlink">
    <!-- Generator: Sketch 55.2 (78181) - https://sketchapp.com -->
    <title>Graphics / 00 Icon / Rounded / Thumb Up-Down</title>
    <desc>Created with Sketch.</desc>
    <g id="Graphics-/-00-Icon-/-Rounded-/-Thumb-Up-Down" stroke="none" stroke-width="1" fill="none" fill-rule="evenodd">
        <path d="M8,15 C4.13400675,15 1,11.8659932 1,8 C1,4.13400675 4.13400675,1 8,1 C11.8659932,1 15,4.13400675 15,8 C15,11.8659932 11.8659932,15 8,15 Z M7.66666667,6.33333333 C7.66666667,6.11944444 7.49166667,5.94444444 7.27777778,5.94444444 L5.26333333,5.94444444 L5.52,4.70777778 L5.52777778,4.61833333 C5.52777778,4.49777778 5.47722222,4.38888889 5.39944444,4.30722222 L5.09222222,4 L3.17111111,5.92111111 C3.06611111,6.02611111 3,6.17388889 3,6.33333333 L3,8.86111111 C3,9.18388889 3.26055556,9.44444444 3.58333333,9.44444444 L6.20833333,9.44444444 C6.44944444,9.44444444 6.65555556,9.29666667 6.745,9.09055556 L7.62388889,7.03333333 C7.65111111,6.96722222 7.66666667,6.89333333 7.66666667,6.81944444 L7.66666667,6.33333333 Z M12.3833333,7 L9.75833333,7 C9.51722222,7 9.31111111,7.14777778 9.22166667,7.35388889 L8.34277778,9.41111111 C8.31555556,9.47722222 8.3,9.55111111 8.3,9.625 L8.3,10.1111111 C8.3,10.325 8.475,10.5 8.68888889,10.5 L10.7033333,10.5 L10.4466667,11.7366667 L10.4388889,11.83 C10.4388889,11.9505556 10.4894444,12.0594444 10.5672222,12.1411111 L10.8744444,12.4444444 L12.7955556,10.5233333 C12.9005556,10.4183333 12.9666667,10.2705556 12.9666667,10.1111111 L12.9666667,7.58333333 C12.9666667,7.26055556 12.7061111,7 12.3833333,7 Z" id="Colour" fill="#6C7F84"></path>
    </g>
</svg>