<?xml version="1.0" encoding="UTF-8"?>
<svg width="16px" height="16px" viewBox="0 0 16 16" version="1.1" xmlns="http://www.w3.org/2000/svg" xmlns:xlink="http://www.w3.org/1999/xlink">
    <!-- Generator: Sketch 55.2 (78181) - https://sketchapp.com -->
    <title>Graphics / 00 Icon / Rounded / Thumb Up</title>
    <desc>Created with Sketch.</desc>
    <g id="Graphics-/-00-Icon-/-Rounded-/-Thumb-Up" stroke="none" stroke-width="1" fill="none" fill-rule="evenodd">
        <path d="M8,15 C4.13400675,15 1,11.8659932 1,8 C1,4.13400675 4.13400675,1 8,1 C11.8659932,1 15,4.13400675 15,8 C15,11.8659932 11.8659932,15 8,15 Z M4,11.7777782 L5.55555564,11.7777782 L5.55555564,7.11111127 L4,7.11111127 L4,11.7777782 Z M12.555556,7.5 C12.555556,7.07222238 12.205556,6.72222236 11.7777782,6.72222236 L9.32388917,6.72222236 L9.69333363,4.94500005 L9.7050003,4.8205556 C9.7050003,4.66111115 9.63888918,4.51333336 9.53388918,4.40833335 L9.12166693,4 L6.56277791,6.56277791 C6.41888901,6.70277792 6.33333345,6.89722237 6.33333345,7.11111127 L6.33333345,11 C6.33333345,11.4277782 6.68333347,11.7777782 7.11111127,11.7777782 L10.6111115,11.7777782 C10.9338892,11.7777782 11.2100004,11.5833337 11.326667,11.3033337 L12.5011116,8.5616669 C12.5361116,8.47222245 12.555556,8.37888912 12.555556,8.277778 L12.555556,7.53500018 L12.5516671,7.53111129 L12.555556,7.5 Z" id="Colour" fill="#6C7F84"></path>
    </g>
</svg>