<?xml version="1.0" encoding="UTF-8"?>
<svg width="16px" height="16px" viewBox="0 0 16 16" version="1.1" xmlns="http://www.w3.org/2000/svg" xmlns:xlink="http://www.w3.org/1999/xlink">
    <!-- Generator: Sketch 55.2 (78181) - https://sketchapp.com -->
    <title>Graphics / 00 Icon / Rounded / Thumb Down</title>
    <desc>Created with Sketch.</desc>
    <g id="Graphics-/-00-Icon-/-Rounded-/-Thumb-Down" stroke="none" stroke-width="1" fill="none" fill-rule="evenodd">
        <path d="M8,15 C4.13400675,15 1,11.8659932 1,8 C1,4.13400675 4.13400675,1 8,1 C11.8659932,1 15,4.13400675 15,8 C15,11.8659932 11.8659932,15 8,15 Z M9.16666667,4.5 L5.66666667,4.5 C5.34388889,4.5 5.06777778,4.69444444 4.95111111,4.97444444 L3.77666667,7.71611111 C3.74166667,7.80555556 3.72222222,7.89888889 3.72222222,8 L3.72222222,8.74277778 L3.72611111,8.74666667 L3.72222222,8.77777778 C3.72222222,9.20555556 4.07222222,9.55555556 4.5,9.55555556 L6.95388889,9.55555556 L6.58444444,11.3327778 L6.57277778,11.4572222 C6.57277778,11.6166667 6.63888889,11.7644444 6.74388889,11.8694444 L7.15611111,12.2777778 L9.71888889,9.715 C9.85888889,9.575 9.94444444,9.38055556 9.94444444,9.16666667 L9.94444444,5.27777778 C9.94444444,4.85 9.59444444,4.5 9.16666667,4.5 Z M10.7222222,4.5 L10.7222222,9.16666667 L12.2777778,9.16666667 L12.2777778,4.5 L10.7222222,4.5 Z" id="Colour" fill="#6C7F84"></path>
    </g>
</svg>