<?xml version="1.0" encoding="UTF-8"?>
<svg width="16px" height="16px" viewBox="0 0 16 16" version="1.1" xmlns="http://www.w3.org/2000/svg" xmlns:xlink="http://www.w3.org/1999/xlink">
    <!-- Generator: Sketch 55.2 (78181) - https://sketchapp.com -->
    <title>Graphics / 00 Icon / Rounded / Trade</title>
    <desc>Created with Sketch.</desc>
    <g id="Graphics-/-00-Icon-/-Rounded-/-Trade" stroke="none" stroke-width="1" fill="none" fill-rule="evenodd">
        <path d="M8,15 C4.13400675,15 1,11.8659932 1,8 C1,4.13400675 4.13400675,1 8,1 C11.8659932,1 15,4.13400675 15,8 C15,11.8659932 11.8659932,15 8,15 Z M5.29055548,7.44444433 L3,9.74074056 L5.29055548,12.0370368 L5.29055548,10.3148146 L9.31481461,10.3148146 L9.31481461,9.1666665 L5.29055548,9.1666665 L5.29055548,7.44444433 Z M13.333333,6.29629622 L11.0427775,4 L11.0427775,5.72222217 L7.01851839,5.72222217 L7.01851839,6.87037028 L11.0427775,6.87037028 L11.0427775,8.59259244 L13.333333,6.29629622 Z" id="Colour" fill="#6C7F84"></path>
    </g>
</svg>