<?xml version="1.0" encoding="UTF-8"?>
<svg width="16px" height="16px" viewBox="0 0 16 16" version="1.1" xmlns="http://www.w3.org/2000/svg" xmlns:xlink="http://www.w3.org/1999/xlink">
    <title>Graphics / 00 Icon / Rounded / Unknown</title>
    <g id="Graphics-/-00-Icon-/-Rounded-/-Unknown" stroke="none" stroke-width="1" fill="none" fill-rule="evenodd">
        <path d="M8,1 C11.8659932,1 15,4.13400675 15,8 C15,11.8659932 11.8659932,15 8,15 C4.13400675,15 1,11.8659932 1,8 C1,4.13400675 4.13400675,1 8,1 Z M8.46875,11.046875 L7.53125,11.046875 L7.53125,11.984375 L8.46875,11.984375 L8.46875,11.046875 Z M8,4.015625 C6.70765625,4.015625 5.65625,5.06703125 5.65625,6.359375 L6.59375,6.359375 C6.59375,5.58396875 7.22459375,4.953125 8,4.953125 C8.77540625,4.953125 9.40625,5.58396875 9.40625,6.359375 C9.40625,6.70565625 9.2790625,7.0385 9.04790625,7.29671875 L7.53125,8.99284375 L7.53125,10.109375 L8.46875,10.109375 L8.46875,9.35090625 L9.746625,7.92184375 C10.1316875,7.4915625 10.34375,6.93671875 10.34375,6.359375 C10.34375,5.06703125 9.29234375,4.015625 8,4.015625 Z" id="Combined-Shape" fill="#6C7F84"></path>
    </g>
</svg>