<?xml version="1.0" encoding="UTF-8"?>
<svg width="16px" height="16px" viewBox="0 0 16 16" version="1.1" xmlns="http://www.w3.org/2000/svg" xmlns:xlink="http://www.w3.org/1999/xlink">
    <!-- Generator: Sketch 55.2 (78181) - https://sketchapp.com -->
    <title>Graphics / 00 Icon / Rounded / Verified</title>
    <desc>Created with Sketch.</desc>
    <g id="Graphics-/-00-Icon-/-Rounded-/-Verified" stroke="none" stroke-width="1" fill="none" fill-rule="evenodd">
        <path d="M8,15 C4.13400675,15 1,11.8659932 1,8 C1,4.13400675 4.13400675,1 8,1 C11.8659932,1 15,4.13400675 15,8 C15,11.8659932 11.8659932,15 8,15 Z M8,3.72222222 L4.5,5.27777778 L4.5,7.61111111 C4.5,9.76944444 5.99333333,11.7877778 8,12.2777778 C10.0066667,11.7877778 11.5,9.76944444 11.5,7.61111111 L11.5,5.27777778 L8,3.72222222 Z M7.22222222,9.94444444 L5.66666667,8.38888889 L6.215,7.84055556 L7.22222222,8.84388889 L9.785,6.28111111 L10.3333333,6.83333333 L7.22222222,9.94444444 Z" id="Colour" fill="#6C7F84"></path>
    </g>
</svg>