<svg width="16" height="16" viewBox="0 0 16 16" fill="none" xmlns="http://www.w3.org/2000/svg">
<path fill-rule="evenodd" clip-rule="evenodd" d="M14.0001 3.33301V12.6663H15.3334V3.33301H14.0001ZM11.3334 12.6663H12.6667V3.33301H11.3334V12.6663ZM9.33341 3.33301H1.33341C0.966748 3.33301 0.666748 3.63301 0.666748 3.99967V11.9997C0.666748 12.3663 0.966748 12.6663 1.33341 12.6663H9.33341C9.70008 12.6663 10.0001 12.3663 10.0001 11.9997V3.99967C10.0001 3.63301 9.70008 3.33301 9.33341 3.33301ZM5.66675 5.33301C6.58527 5.33301 7.33342 6.08116 7.33342 6.99967C7.33342 7.91819 6.58527 8.66634 5.66675 8.66634C4.74823 8.66634 4.00008 7.91819 4.00008 6.99967C4.00008 6.08116 4.74823 5.33301 5.66675 5.33301ZM8.66675 11.333H2.66675V10.833C2.66675 9.83301 4.66675 9.33301 5.66675 9.33301C6.66675 9.33301 8.66675 9.83301 8.66675 10.833V11.333Z" fill="#6C7F84"/>
</svg>
