<svg width="16" height="16" viewBox="0 0 16 16" fill="none" xmlns="http://www.w3.org/2000/svg">
<path d="M8.00008 7.99967C8.36675 7.99967 8.68075 7.86901 8.94208 7.60767C9.20297 7.34679 9.33342 7.03301 9.33342 6.66634C9.33342 6.29967 9.20297 5.98567 8.94208 5.72434C8.68075 5.46345 8.36675 5.33301 8.00008 5.33301C7.63341 5.33301 7.31964 5.46345 7.05875 5.72434C6.79742 5.98567 6.66675 6.29967 6.66675 6.66634C6.66675 7.03301 6.79742 7.34679 7.05875 7.60767C7.31964 7.86901 7.63341 7.99967 8.00008 7.99967ZM8.00008 12.8997C9.35564 11.6552 10.3612 10.5246 11.0167 9.50767C11.6723 8.49123 12.0001 7.58856 12.0001 6.79967C12.0001 5.58856 11.6139 4.59679 10.8414 3.82434C10.0694 3.05234 9.1223 2.66634 8.00008 2.66634C6.87786 2.66634 5.93053 3.05234 5.15808 3.82434C4.38608 4.59679 4.00008 5.58856 4.00008 6.79967C4.00008 7.58856 4.32786 8.49123 4.98341 9.50767C5.63897 10.5246 6.64453 11.6552 8.00008 12.8997ZM8.00008 14.6663C6.21119 13.1441 4.87519 11.7301 3.99208 10.4243C3.10853 9.11901 2.66675 7.91079 2.66675 6.79967C2.66675 5.13301 3.20297 3.80523 4.27541 2.81634C5.34741 1.82745 6.58897 1.33301 8.00008 1.33301C9.41119 1.33301 10.6527 1.82745 11.7247 2.81634C12.7972 3.80523 13.3334 5.13301 13.3334 6.79967C13.3334 7.91079 12.8919 9.11901 12.0087 10.4243C11.1252 11.7301 9.78897 13.1441 8.00008 14.6663Z" fill="#6C7F84"/>
</svg>
