<svg width="16" height="16" viewBox="0 0 16 16" fill="none" xmlns="http://www.w3.org/2000/svg">
<path fill-rule="evenodd" clip-rule="evenodd" d="M2.8001 12.8002C2.46676 12.8002 2.18356 12.6834 1.9505 12.4498C1.7169 12.2167 1.6001 11.9335 1.6001 11.6002V4.4002C1.6001 4.06686 1.7169 3.78366 1.9505 3.5506C2.18356 3.317 2.46676 3.2002 2.8001 3.2002H13.2001C13.5334 3.2002 13.8166 3.317 14.0497 3.5506C14.2833 3.78366 14.4001 4.06686 14.4001 4.4002V11.6002C14.4001 11.9335 14.2833 12.2167 14.0497 12.4498C13.8166 12.6834 13.5334 12.8002 13.2001 12.8002H2.8001ZM2.8001 11.6002H13.2001V4.4002H2.8001V11.6002ZM4.00012 9.80019V8.60019H12.0001V9.80019H4.00012ZM4.00012 6.2002V7.4002H12.0001V6.2002H4.00012Z" fill="#6C7F84"/>
</svg>
