<?xml version="1.0" encoding="UTF-8"?>
<svg width="16px" height="16px" viewBox="0 0 16 16" version="1.1" xmlns="http://www.w3.org/2000/svg" xmlns:xlink="http://www.w3.org/1999/xlink">
    <title>03 Graphics / 00 Icon / Simple / Amount</title>
    <g id="03-Graphics-/-00-Icon-/-Simple-/-Amount" stroke="none" stroke-width="1" fill="none" fill-rule="evenodd">
        <path d="M8.77507113,1 L8.775,3.227 L9.68560982,3.22716028 C10.9490105,3.22716028 11.9908746,4.19059346 12.0755032,5.41791482 L12.0810527,5.57943925 L10.5810527,5.57943925 C10.5810527,5.14944865 10.2429505,4.78708465 9.79873905,4.73388066 L9.68560982,4.72716028 L6.39544289,4.72716028 C5.93515761,4.72716028 5.56164885,5.05644808 5.50690954,5.47349027 L5.5,5.57943925 L5.5,6.38127842 C5.5,6.81045554 5.83795468,7.17231551 6.28227963,7.22544677 L6.39544289,7.23215803 L9.68560982,7.23215803 C10.949085,7.23215803 11.9908808,8.19435959 12.0755036,9.42152699 L12.0810527,9.58303763 L12.0810527,10.3834774 C12.0810527,11.6324232 11.0918303,12.6478958 9.8490844,12.7303502 L9.68560982,12.7357564 L8.775,12.735 L8.77507113,15 L7.27507113,15 L7.275,12.735 L6.39544289,12.7357564 C5.13204222,12.7357564 4.0901781,11.7723232 4.00554949,10.5450019 L4,10.3834774 L5.5,10.3834774 C5.5,10.813468 5.8381022,11.175832 6.28231367,11.229036 L6.39544289,11.2357564 L9.68560982,11.2357564 C10.1458951,11.2357564 10.5194039,10.9064686 10.5741432,10.4894264 L10.5810527,10.3834774 L10.5810527,9.58303763 C10.5810527,9.15348587 10.2433515,8.79194291 9.79883158,8.73886264 L9.68560982,8.73215803 L6.39544289,8.73215803 C5.13215868,8.73215803 4.0901878,7.76948787 4.0055501,6.5427305 L4,6.38127842 L4,5.57943925 C4,4.33049349 4.98922242,3.31502089 6.23196832,3.23256649 L6.39544289,3.22716028 L7.275,3.227 L7.27507113,1 L8.77507113,1 Z" id="Amount" fill="#6C7F84"></path>
    </g>
</svg>