<?xml version="1.0" encoding="UTF-8"?>
<svg width="16px" height="16px" viewBox="0 0 16 16" version="1.1" xmlns="http://www.w3.org/2000/svg" xmlns:xlink="http://www.w3.org/1999/xlink">
    <!-- Generator: Sketch 55.2 (78181) - https://sketchapp.com -->
    <title>Graphics / 00 Icon / Simple / Attachment</title>
    <desc>Created with Sketch.</desc>
    <g id="Graphics-/-00-Icon-/-Simple-/-Attachment" stroke="none" stroke-width="1" fill="none" fill-rule="evenodd">
        <path d="M11,4 L11,11.6666667 C11,13.14 9.80666667,14.3333333 8.33333333,14.3333333 C6.86,14.3333333 5.66666667,13.14 5.66666667,11.6666667 L5.66666667,3.33333333 C5.66666667,2.41333333 6.41333333,1.66666667 7.33333333,1.66666667 C8.25333333,1.66666667 9,2.41333333 9,3.33333333 L9,10.3333333 C9,10.7 8.7,11 8.33333333,11 C7.96666667,11 7.66666667,10.7 7.66666667,10.3333333 L7.66666667,4 L6.66666667,4 L6.66666667,10.3333333 C6.66666667,11.2533333 7.41333333,12 8.33333333,12 C9.25333333,12 10,11.2533333 10,10.3333333 L10,3.33333333 C10,1.86 8.80666667,0.666666667 7.33333333,0.666666667 C5.86,0.666666667 4.66666667,1.86 4.66666667,3.33333333 L4.66666667,11.6666667 C4.66666667,13.6933333 6.30666667,15.3333333 8.33333333,15.3333333 C10.36,15.3333333 12,13.6933333 12,11.6666667 L12,4 L11,4 Z" id="Colour" fill="#6C7F84"></path>
    </g>
</svg>