<?xml version="1.0" encoding="UTF-8"?>
<svg width="32px" height="32px" viewBox="0 0 32 32" version="1.1" xmlns="http://www.w3.org/2000/svg" xmlns:xlink="http://www.w3.org/1999/xlink">
    <!-- Generator: Sketch 63.1 (92452) - https://sketch.com -->
    <title>batchpayment</title>
    <desc>Created with Sketch.</desc>
    <g id="batchpayment" stroke="none" stroke-width="1" fill="none" fill-rule="evenodd">
        <path d="M24.4323262,-7.01660952e-13 C26.4062884,-7.01660952e-13 28.1385409,1.78432817 28.1385409,3.81626136 L28.1385409,3.81626136 L28.1385409,28.1847212 C28.1385409,30.2166544 26.4062884,32 24.4323262,32 L24.4323262,32 L7.70621469,32 C5.73225252,32 4,30.2166544 4,28.1847212 L4,28.1847212 L4,7.87816261 C4,7.6767379 4.07958732,7.48022599 4.21812822,7.33677229 L4.21812822,7.33677229 L11.1048882,0.229918939 C11.2453943,0.0835175633 11.4409236,-7.01660952e-13 11.6423483,-7.01660952e-13 L11.6423483,-7.01660952e-13 Z M24.4323262,1.5406534 L12.3969541,1.5406534 L12.3969541,4.83124539 C12.3969541,6.8651437 10.6647015,8.64750676 8.69073938,8.64750676 L8.69073938,8.64750676 L5.51019406,8.64750676 L5.51019406,28.1847212 C5.51019406,29.3539671 6.57725375,30.4603292 7.70621469,30.4603292 L7.70621469,30.4603292 L24.4323262,30.4603292 C25.5612872,30.4603292 26.6293294,29.3539671 26.6293294,28.1847212 L26.6293294,28.1847212 L26.6293294,3.81626136 C26.6293294,2.64701548 25.5612872,1.5406534 24.4323262,1.5406534 L24.4323262,1.5406534 Z M20.0047163,24.8762466 C20.4213215,24.8762466 20.7603046,25.2221076 20.7603046,25.6455908 C20.7603046,26.0700565 20.4213215,26.4149349 20.0047163,26.4149349 L20.0047163,26.4149349 L12.1334316,26.4149349 C11.7168263,26.4149349 11.3788258,26.0700565 11.3788258,25.6455908 C11.3788258,25.2221076 11.7168263,24.8762466 12.1334316,24.8762466 L12.1334316,24.8762466 Z M16.0925571,12.700565 C16.1387374,12.700565 16.2340457,12.7084254 16.2684353,12.7231638 L16.2684353,12.7231638 L16.3735691,12.7654139 C16.4551216,12.7948907 16.4836158,12.8135593 16.5474822,12.8695652 L16.5474822,12.8695652 L21.0328666,17.4895603 C21.3237042,17.789241 21.3237042,18.2746254 21.0328666,18.5733235 C20.8903955,18.7197249 20.7007615,18.8002948 20.4973717,18.8002948 C20.2929993,18.8002948 20.1023827,18.7187423 19.9599116,18.5723409 L19.9599116,18.5723409 L16.824564,15.3367723 L16.824564,22.0928519 C16.824564,22.5163351 16.4855809,22.862196 16.0689757,22.862196 C15.6523704,22.862196 15.3143699,22.5163351 15.3143699,22.0928519 L15.3143699,22.0928519 L15.3143699,15.3367723 L12.1790224,18.5723409 C12.0365512,18.7197249 11.8449521,18.8002948 11.6425448,18.8002948 C11.439155,18.8002948 11.2475559,18.7197249 11.1050847,18.5723409 C10.8152297,18.2746254 10.8152297,17.789241 11.1050847,17.4895603 L11.1050847,17.4895603 L15.5324982,12.9216409 C15.7250798,12.7280766 15.8950626,12.7074429 16.081749,12.700565 L16.081749,12.700565 Z M10.88676,2.64505036 L6.56251535,7.10783591 L8.69073938,7.10783591 C9.81970032,7.10783591 10.88676,6.0024564 10.88676,4.83124539 L10.88676,4.83124539 L10.88676,2.64505036 Z" id="Combined-Shape" fill="#1DBBED"></path>
    </g>
</svg>
