<svg xmlns="http://www.w3.org/2000/svg" width="24" height="25" viewBox="0 0 24 25" fill="none">
  <path fill-rule="evenodd" clip-rule="evenodd" d="M11.897 10.9602C11.897 12.1188 10.9578 13.0579 9.79927 13.0579C8.64073 13.0579 7.70155 12.1188 7.70155 10.9602C7.70155 9.80168 8.64073 8.8625 9.79927 8.8625C10.9578 8.8625 11.897 9.80168 11.897 10.9602ZM12.3429 13.9136C13.1721 13.1988 13.697 12.1408 13.697 10.9602C13.697 8.80757 11.9519 7.0625 9.79927 7.0625C7.64662 7.0625 5.90155 8.80757 5.90155 10.9602C5.90155 12.1408 6.42644 13.1988 7.2556 13.9136C6.28164 14.2471 5.38678 14.7715 4.6379 15.4613C3.74024 16.288 3.10053 17.308 2.76648 18.415C2.59113 18.9961 2.5 19.6012 2.5 20.215H4.21995C4.35565 19.0316 4.73234 17.934 5.55852 17.0686C5.76119 16.8563 5.98111 16.6612 6.21477 16.4841C6.65916 16.1418 7.16156 15.8654 7.70217 15.6652C8.38005 15.4085 9.10053 15.2734 9.81034 15.2734C10.5455 15.2734 11.2819 15.4184 11.9702 15.6931C12.6323 15.9485 13.235 16.3191 13.7411 16.7853C14.2597 17.2629 14.6543 17.8186 14.9165 18.415H14.9147C15.1655 18.9757 15.3183 19.5831 15.3982 20.215H17.0985C17.0985 19.6012 17.0074 18.9961 16.832 18.415C16.498 17.308 15.8582 16.288 14.9606 15.4613C14.2117 14.7715 13.3169 14.2471 12.3429 13.9136Z" fill="#6C7F84"/>
  <path fill-rule="evenodd" clip-rule="evenodd" d="M14.2008 10.4798C15.3593 10.4798 16.2985 9.54063 16.2985 8.38209C16.2985 7.22356 15.3593 6.28437 14.2008 6.28437C13.221 6.28437 12.3981 6.95612 12.1675 7.86418C11.6898 7.49825 11.125 7.24036 10.5095 7.12706C11.0319 5.59015 12.4872 4.48438 14.2008 4.48438C16.3534 4.48438 18.0985 6.22944 18.0985 8.38209C18.0985 9.5627 17.5736 10.6207 16.7444 11.3355C17.7184 11.669 18.6132 12.1934 19.3621 12.8831C20.2598 13.7099 20.8995 14.7299 21.2335 15.8369C21.4089 16.418 21.5 17.0231 21.5 17.6369H19.7998C19.7198 17.005 19.567 16.3976 19.3162 15.8369H19.318C19.0558 15.2405 18.6612 14.6847 18.1427 14.2071C17.6365 13.7409 17.0338 13.3703 16.3717 13.115C15.6835 12.8402 14.947 12.6953 14.2119 12.6953C13.8914 12.6953 13.5687 12.7229 13.2487 12.7767C13.535 12.2343 13.697 11.6162 13.697 10.9602C13.697 10.7731 13.6838 10.5891 13.6583 10.409C13.8314 10.4552 14.0132 10.4798 14.2008 10.4798Z" fill="#6C7F84"/>
  </svg>
