<?xml version="1.0" encoding="UTF-8"?>
<svg width="16px" height="16px" viewBox="0 0 16 16" version="1.1" xmlns="http://www.w3.org/2000/svg" xmlns:xlink="http://www.w3.org/1999/xlink">
    <!-- Generator: Sketch 58 (84663) - https://sketch.com -->
    <title>Graphics / 00 Icon / Simple / Block</title>
    <desc>Created with Sketch.</desc>
    <g id="Graphics-/-00-Icon-/-Simple-/-Block" stroke="none" stroke-width="1" fill="none" fill-rule="evenodd">
        <path d="M8,1.33333333 C4.32,1.33333333 1.33333333,4.32 1.33333333,8 C1.33333333,11.68 4.32,14.6666667 8,14.6666667 C11.68,14.6666667 14.6666667,11.68 14.6666667,8 C14.6666667,4.32 11.68,1.33333333 8,1.33333333 Z M2.66666667,8 C2.66666667,5.05333333 5.05333333,2.66666667 8,2.66666667 C9.23333333,2.66666667 10.3666667,3.08666667 11.2666667,3.79333333 L3.79333333,11.2666667 C3.08666667,10.3666667 2.66666667,9.23333333 2.66666667,8 Z M8,13.3333333 C6.76666667,13.3333333 5.63333333,12.9133333 4.73333333,12.2066667 L12.2066667,4.73333333 C12.9133333,5.63333333 13.3333333,6.76666667 13.3333333,8 C13.3333333,10.9466667 10.9466667,13.3333333 8,13.3333333 Z" id="Colour" fill="#6C7F84"></path>
    </g>
</svg>