<svg xmlns="http://www.w3.org/2000/svg" width="24" height="24" viewBox="0 0 24 24" fill="none">
    <path d="M3.00015 19.1998V17.3998H4.85015C4.10015 16.7331 3.50431 15.9359 3.06265 15.008C2.62098 14.0801 2.40015 13.0774 2.40015 11.9998C2.40015 10.3244 2.90848 8.84725 3.92515 7.56828C4.94181 6.2893 6.23348 5.4498 7.80015 5.0498V6.9248C6.75015 7.30814 5.88765 7.95397 5.21265 8.86231C4.53765 9.77064 4.20015 10.8165 4.20015 11.9998C4.20015 12.8067 4.36265 13.5501 4.68765 14.23C5.01265 14.9099 5.45015 15.4915 6.00015 15.9748V14.3998H7.80015V19.1998H3.00015ZM13.5001 19.1998C12.7501 19.1998 12.1126 18.9373 11.5876 18.4123C11.0626 17.8873 10.8001 17.2498 10.8001 16.4998C10.8001 15.7498 11.0626 15.1123 11.5876 14.5873C12.1126 14.0623 12.7501 13.7998 13.5001 13.7998C13.7335 13.2831 14.1035 12.854 14.6101 12.5123C15.1167 12.1706 15.6876 11.9998 16.3228 11.9998C17.1244 11.9998 17.8168 12.2581 18.4001 12.7748C18.9835 13.2915 19.3251 13.9331 19.4251 14.6998C20.0251 14.7165 20.5376 14.9456 20.9626 15.3873C21.3876 15.829 21.6001 16.353 21.6001 16.9593C21.6001 17.5804 21.3826 18.1091 20.9476 18.5454C20.5126 18.9817 19.9801 19.1998 19.3501 19.1998H13.5001ZM14.8751 10.7998C14.7418 10.2498 14.5326 9.74027 14.2476 9.27121C13.9626 8.80212 13.6134 8.38666 13.2001 8.02481V9.59981H11.4001V4.7998H16.2001V6.5998H14.3501C14.9501 7.13314 15.4543 7.75397 15.8626 8.46231C16.271 9.17064 16.5501 9.94981 16.7001 10.7998H14.8751ZM13.5001 17.3998H19.3501C19.4835 17.3998 19.5918 17.3581 19.6751 17.2748C19.7585 17.1915 19.8001 17.0831 19.8001 16.9498C19.8001 16.8165 19.7526 16.7081 19.6576 16.6248C19.5626 16.5415 19.4518 16.4998 19.3251 16.4998H17.6251V15.1248C17.6251 14.7589 17.4957 14.4465 17.2369 14.1878C16.978 13.9291 16.6655 13.7998 16.2994 13.7998C15.9332 13.7998 15.6251 13.9291 15.3751 14.1878C15.1251 14.4465 15.0001 14.7589 15.0001 15.1248V15.5998H13.5001C13.2451 15.5998 13.0314 15.6855 12.8589 15.857C12.6864 16.0285 12.6001 16.241 12.6001 16.4945C12.6001 16.748 12.6864 16.9623 12.8589 17.1373C13.0314 17.3123 13.2451 17.3998 13.5001 17.3998Z" fill="#556468"/>
</svg>