<?xml version="1.0" encoding="UTF-8"?>
<svg width="32px" height="32px" viewBox="0 0 32 32" version="1.1" xmlns="http://www.w3.org/2000/svg" xmlns:xlink="http://www.w3.org/1999/xlink">
    <!-- Generator: Sketch 63.1 (92452) - https://sketch.com -->
    <title>collect</title>
    <desc>Created with Sketch.</desc>
    <g id="collect" stroke="none" stroke-width="1" fill="none" fill-rule="evenodd">
        <path d="M15.919746,1.60358833 C17.0179048,0.74302818 18.7205079,0.798580772 19.7241905,1.79650734 L19.7241905,1.79650734 L20.0848254,2.15507407 L25.8590476,2.15507407 C28.2565079,2.15507407 30.2069841,4.09436456 30.2069841,6.47706574 L30.2069841,6.47706574 L30.2069841,12.3828113 C31.2421587,12.7080465 31.9989841,13.6595109 32,14.7937938 L32,14.7937938 L32,21.9247265 C32,23.0600195 31.2421587,24.0114839 30.2069841,24.3367191 L30.2069841,24.3367191 L30.2069841,26.6780083 C30.2069841,29.0607095 28.2565079,31 25.8590476,31 L25.8590476,31 L4.34590476,31 C1.94946032,31 0,29.0607095 0,26.6780083 L0,26.6780083 L0,6.47706574 C0,4.09436456 1.94946032,2.15507407 4.34590476,2.15507407 L4.34590476,2.15507407 L15.3183492,2.15507407 L15.6779683,1.79751738 C15.752127,1.72378394 15.8384762,1.6672213 15.919746,1.60358833 Z M1.52380952,9.761739 L1.52380952,26.6780083 C1.52380952,28.2254005 2.7895873,29.4849293 4.34590476,29.4849293 L4.34590476,29.4849293 L25.8590476,29.4849293 C27.416381,29.4849293 28.6831746,28.2254005 28.6831746,26.6780083 L28.6831746,26.6780083 L28.6831746,24.4649951 L24.6633651,24.4649951 C22.2669206,24.4649951 20.3174603,22.5257046 20.3174603,20.1419934 C20.3174603,17.7592922 22.2669206,15.8200017 24.6633651,15.8200017 L24.6633651,15.8200017 L28.6831746,15.8200017 L28.6831746,13.6069884 C28.6831746,13.4322503 28.6628571,13.2635724 28.632381,13.0979247 C28.6232381,13.0494424 28.6100317,13.0029802 28.5988571,12.955508 C28.5693968,12.8332923 28.5328254,12.7151168 28.488127,12.5999714 C28.4708571,12.5565394 28.455619,12.5131074 28.4363175,12.4706854 C28.3692698,12.3201884 28.2930794,12.1747416 28.2016508,12.0393953 C28.199619,12.0373752 28.1975873,12.0353551 28.1965714,12.033335 C28.1071746,11.9030389 28.0035556,11.7828433 27.8938413,11.669718 C27.8542222,11.6283061 27.8105397,11.5899243 27.767873,11.5505325 C27.6926984,11.4818493 27.6144762,11.4182163 27.5321905,11.3576135 C27.4753016,11.3162015 27.4184127,11.2747896 27.3594921,11.2374179 C27.2782222,11.1869155 27.1928889,11.1434835 27.1055238,11.1000514 C27.0435556,11.06975 26.9846349,11.0354084 26.9206349,11.0091472 C26.9033651,11.0030869 26.8860952,11.0000568 26.8688254,10.9929865 C26.7184762,10.9344037 26.5640635,10.8859215 26.4066032,10.85461 C26.2288254,10.8192583 26.0469841,10.7990574 25.8590476,10.7990574 L25.8590476,10.7990574 L4.34590476,10.7990574 C4.06044444,10.7990574 3.78311111,10.768756 3.51187302,10.7152235 C3.42247619,10.6980527 3.3391746,10.6667412 3.25180952,10.6435101 C3.07403175,10.597048 2.89930159,10.5495758 2.73168254,10.4829127 C2.63415873,10.4435208 2.54374603,10.3930185 2.44926984,10.3475663 L2.3035485,10.2749926 C2.20692769,10.2256873 2.11166138,10.1738382 2.01955556,10.1152555 C1.92711111,10.0566728 1.84177778,9.99202975 1.75542857,9.92637668 C1.67822222,9.86981404 1.59492063,9.82335188 1.52380952,9.761739 L1.52380952,9.761739 Z M30.4761905,17.1189223 L30.4568889,17.1249826 C30.3563175,17.1684146 30.2466032,17.1966959 30.1399365,17.2280074 C30.0820317,17.2441681 30.0292063,17.2684093 29.9692698,17.2805298 C29.8006349,17.3158815 29.6248889,17.3350724 29.4450794,17.3350724 L29.4450794,17.3350724 L24.664381,17.3350724 C23.1080635,17.3350724 21.8412698,18.5946012 21.8412698,20.1419934 C21.8412698,21.6903956 23.1080635,22.9499244 24.664381,22.9499244 L24.664381,22.9499244 L29.4450794,22.9499244 C30.0139683,22.9499244 30.4761905,22.4903529 30.4761905,21.9247265 L30.4761905,21.9247265 L30.4761905,17.1189223 L30.4761905,17.1189223 Z M24.6645841,18.7909543 C25.4132825,18.7909543 26.0238222,19.3979926 26.0238222,20.1423974 C26.0238222,20.8868021 25.4132825,21.4938404 24.6645841,21.4938404 C23.9148698,21.4938404 23.3043302,20.8868021 23.3043302,20.1423974 C23.3043302,19.3979926 23.9148698,18.7909543 24.6645841,18.7909543 Z M30.2069841,14.1049417 L30.2069841,15.4695153 C30.2567619,15.4149728 30.2943492,15.3523499 30.3309206,15.2877068 C30.352254,15.2513452 30.3806984,15.2210437 30.3979683,15.1826619 C30.4467302,15.0624663 30.4761905,14.9321703 30.4761905,14.7948038 C30.4761905,14.5301715 30.3735873,14.2877602 30.2069841,14.1049417 L30.2069841,14.1049417 Z M25.8590476,3.67014476 L21.6086349,3.67014476 L24.1188571,6.16698127 L27.639873,9.66679457 C27.8491429,9.761739 28.0462222,9.87284419 28.2351746,9.99404984 C28.2951111,10.0334417 28.3469206,10.0778838 28.4048254,10.1192957 C28.4982857,10.1859588 28.5958095,10.2485817 28.6831746,10.3233252 L28.6831746,10.3233252 L28.6831746,6.47706574 C28.6831746,4.92866349 27.416381,3.67014476 25.8590476,3.67014476 L25.8590476,3.67014476 Z M13.7935238,3.67014476 L4.34590476,3.67014476 C2.7895873,3.67014476 1.52380952,4.92866349 1.52380952,6.47706574 C1.52380952,8.02546799 2.7895873,9.28398671 4.34590476,9.28398671 L4.34590476,9.28398671 L8.14730159,9.28398671 L8.27530159,9.15672077 L13.7935238,3.67014476 Z M22.895746,7.09319449 L20.6913016,9.28398671 L25.0991746,9.28398671 L22.895746,7.09319449 Z M20.6699683,4.88018122 L16.2387302,9.28398671 L18.5366349,9.28398671 L21.8189206,6.02254453 L20.6699683,4.88018122 Z M18.6453333,2.86816734 C18.1800635,2.40556576 17.3907302,2.39041505 16.8756825,2.79039371 C16.8380952,2.81968508 16.7903492,2.83382574 16.7558095,2.86816734 L16.7558095,2.86816734 L16.1726984,3.44793439 L10.3324444,9.25469534 L10.3019683,9.28398671 L14.0840635,9.28398671 L19.592127,3.80852122 Z" id="Combined-Shape" fill="#1DBBED"></path>
    </g>
</svg>
