<?xml version="1.0" encoding="UTF-8"?>
<svg width="32px" height="32px" viewBox="0 0 32 32" version="1.1" xmlns="http://www.w3.org/2000/svg" xmlns:xlink="http://www.w3.org/1999/xlink">
    <!-- Generator: Sketch 63.1 (92452) - https://sketch.com -->
    <title>Convertandpay</title>
    <desc>Created with Sketch.</desc>
    <g id="Convertandpay" stroke="none" stroke-width="1" fill="none" fill-rule="evenodd">
        <path d="M31.2044658,14.7048207 C31.4823646,14.7048207 31.7680915,14.862437 31.8923631,15.1110988 L31.8923631,15.1110988 L31.9226972,15.1717958 C31.97358,15.2736101 32,15.3861932 32,15.4997553 C32,19.6418342 30.3874043,23.5362303 27.459682,26.4643697 C24.5388092,29.3885933 20.6462693,31 16.5002936,31 C12.3533393,31 8.46079935,29.3885933 5.53992664,26.4643697 L5.53992664,26.4643697 L3.90971762,24.8333833 L3.9263524,27.0576337 C3.92830944,27.336644 3.77174675,27.5931376 3.52222496,27.7184475 C3.42045921,27.7703336 3.24628321,27.8280937 3.13179675,27.8280937 C2.85194094,27.8280937 2.56621402,27.6694983 2.4429209,27.4178996 C2.39301655,27.3170643 2.33626257,27.1437842 2.33626257,27.0312011 L2.33626257,27.0312011 L2.33626257,23.0154111 C2.32843444,22.9331765 2.33528405,22.8499629 2.35583291,22.7687073 C2.36953214,22.7080103 2.390081,22.6492713 2.41650095,22.5924902 C2.50554598,22.3908197 2.68070049,22.2400562 2.89010309,22.1803382 C2.97034147,22.1539057 3.05840798,22.135305 3.13179675,22.135305 L3.13179675,22.135305 L7.26113773,22.135305 C7.53610096,22.135305 7.78757978,22.2890054 7.91380845,22.5337512 C7.96762688,22.6375235 8.02633789,22.8127615 8.02633789,22.9302395 C8.02633789,23.2092498 7.86781816,23.495113 7.61927489,23.6194439 C7.51750914,23.670351 7.34431166,23.7261531 7.23080371,23.7261531 L7.23080371,23.7261531 L5.05066823,23.7261531 L6.66424247,25.3414757 C9.28764607,27.9641724 12.7809511,29.4091519 16.5002936,29.4091519 C20.219636,29.4091519 23.712941,27.9641724 26.3363446,25.3414757 C28.9636623,22.7109472 30.4099102,19.2159764 30.4099102,15.4997553 C30.4099102,15.2227029 30.5664729,14.9387977 30.8140376,14.8134879 C30.9158034,14.7625807 31.0899794,14.7048207 31.2044658,14.7048207 Z M16.5002936,7.39475139 C20.9672228,7.39475139 24.6014343,11.0306959 24.6014343,15.4997553 C24.6014343,19.9688146 20.9672228,23.6047591 16.5002936,23.6047591 C12.0323858,23.6047591 8.39817428,19.9688146 8.39817428,15.4997553 C8.39817428,11.0306959 12.0323858,7.39475139 16.5002936,7.39475139 Z M16.5002936,8.86322654 C12.8416192,8.86322654 9.86594951,11.8403152 9.86594951,15.4997553 C9.86594951,19.1591953 12.8416192,22.136284 16.5002936,22.136284 C20.1579894,22.136284 23.1336591,19.1591953 23.1336591,15.4997553 C23.1336591,11.8403152 20.1579894,8.86322654 16.5002936,8.86322654 Z M16.4694703,10.3423726 C16.6641951,10.3423726 16.8814259,10.4197123 17.0193967,10.557749 C17.1573676,10.6957856 17.2650045,10.8827715 17.2650045,11.0766102 L17.2650045,11.0766102 L17.2640259,11.5132368 C18.4059551,11.796163 19.2014892,12.6792061 19.2014892,13.7335712 C19.2014892,14.1388704 18.8736861,14.4678088 18.4676016,14.4678088 C18.0624957,14.4678088 17.6720674,14.1388704 17.6720674,13.7335712 C17.6720674,13.3145663 17.124098,12.9474475 16.4998043,12.9474475 C15.8755106,12.9474475 15.3275411,13.3145663 15.3275411,13.7335712 C15.3275411,14.0801314 15.7130768,14.4080908 16.222884,14.4961993 L16.222884,14.4961993 L17.1162699,14.6978699 C18.4206328,14.9191202 19.3962141,15.937263 19.3962141,17.1110641 C19.3962141,18.240811 18.4901075,19.2041307 17.2650045,19.4929308 L17.2650045,19.4929308 L17.2650045,19.9227045 C17.2650045,20.1165432 17.1877016,20.3035291 17.0497308,20.4415657 C16.9127384,20.5796024 16.7258417,20.6569421 16.5311168,20.6569421 C16.1260109,20.6569421 15.7355827,20.3280037 15.7355827,19.9227045 L15.7355827,19.9227045 L15.7355827,19.4909728 C14.4948233,19.1962988 13.604373,18.2320001 13.604373,17.1110641 C13.604373,16.7057649 13.9331547,16.3768265 14.3382606,16.3768265 C14.7433666,16.3768265 15.1337948,16.7057649 15.1337948,17.1110641 L15.1419807,17.2117422 C15.2176776,17.6757809 15.8084495,18.0518672 16.4998043,18.0518672 C17.2405415,18.0518672 17.8667923,17.6201355 17.8667923,17.1110641 C17.8667923,16.6920592 17.415696,16.2994868 16.8178223,16.1976725 L16.8178223,16.1976725 L15.9244364,15.996002 C14.7091185,15.7884575 13.7990979,14.8339486 13.7990979,13.7335712 C13.7990979,12.6694162 14.6063742,11.7883311 15.7355827,11.5093209 L15.7355827,11.5093209 L15.7355827,11.0766102 C15.7355827,10.671311 16.0643643,10.3423726 16.4694703,10.3423726 Z M16.4997064,2.13162821e-13 C20.6456822,2.13162821e-13 24.5382221,1.61042775 27.4600734,4.53465128 L27.4600734,4.53465128 L29.0912609,6.16563768 L29.0736476,3.94334528 C29.0716906,3.66531399 29.2262962,3.40979931 29.473861,3.28351045 C29.5775838,3.23064534 29.7527383,3.17190633 29.8682033,3.17190633 C30.1451235,3.17190633 30.4288934,3.3275647 30.5541435,3.57426853 C30.6060049,3.67706179 30.6637374,3.85229982 30.6637374,3.96781987 L30.6637374,3.96781987 L30.6637374,7.98850484 C30.670587,8.06290758 30.6656945,8.13926829 30.6480812,8.21367103 C30.6324249,8.29296869 30.6040479,8.37128736 30.5668643,8.44373214 C30.5355517,8.50442911 30.4954325,8.56121015 30.4494422,8.61015932 C30.4151942,8.64833968 30.3760535,8.6826041 30.3349558,8.71099462 C30.2684166,8.75798582 30.1940494,8.79420821 30.1147895,8.81770381 C30.0335726,8.84511535 29.943549,8.86469502 29.8682033,8.86469502 L29.8682033,8.86469502 L25.7388623,8.86469502 C25.4609635,8.86469502 25.2065491,8.70707868 25.0822775,8.45841689 C25.0313946,8.35660261 24.9736621,8.18234356 24.9736621,8.06878148 C24.9736621,7.7897712 25.1331604,7.50292906 25.3836607,7.37957714 C25.4844479,7.32964899 25.6566669,7.27384693 25.7691963,7.27384693 L25.7691963,7.27384693 L27.9493318,7.27384693 L26.3357575,5.65950324 C23.7123539,3.03582764 20.2200274,1.59084808 16.4997064,1.59084808 C12.780364,1.59084808 9.28705896,3.03582764 6.66463388,5.65950324 C4.03731621,8.28905275 2.59008983,11.7840236 2.59008983,15.5002447 C2.59008983,15.779255 2.43157011,16.0651182 2.18204832,16.1884701 C2.08028257,16.2383983 1.90904213,16.2951793 1.79553418,16.2951793 C1.51959243,16.2951793 1.23680107,16.1414789 1.11155092,15.8957541 C1.05871101,15.7919818 1,15.6167438 1,15.5002447 C1,11.3571868 2.61259572,7.46279073 5.54031805,4.53465128 C8.46216928,1.61042775 12.3547092,2.13162821e-13 16.4997064,2.13162821e-13 Z" id="Combined-Shape" fill="#1DBBED"></path>
    </g>
</svg>
