<?xml version="1.0" encoding="UTF-8"?>
<svg width="16px" height="16px" viewBox="0 0 16 16" version="1.1" xmlns="http://www.w3.org/2000/svg" xmlns:xlink="http://www.w3.org/1999/xlink">
    <!-- Generator: Sketch 55.2 (78181) - https://sketchapp.com -->
    <title>Graphics / 00 Icon / Simple / Copy</title>
    <desc>Created with Sketch.</desc>
    <g id="Graphics-/-00-Icon-/-Simple-/-Copy" stroke="none" stroke-width="1" fill="none" fill-rule="evenodd">
        <path d="M11.3333333,0.666666667 L3.33333333,0.666666667 C2.6,0.666666667 2,1.26666667 2,2 L2,11.3333333 L3.33333333,11.3333333 L3.33333333,2 L11.3333333,2 L11.3333333,0.666666667 Z M13.3333333,3.33333333 L6,3.33333333 C5.26666667,3.33333333 4.66666667,3.93333333 4.66666667,4.66666667 L4.66666667,14 C4.66666667,14.7333333 5.26666667,15.3333333 6,15.3333333 L13.3333333,15.3333333 C14.0666667,15.3333333 14.6666667,14.7333333 14.6666667,14 L14.6666667,4.66666667 C14.6666667,3.93333333 14.0666667,3.33333333 13.3333333,3.33333333 Z M13.3333333,14 L6,14 L6,4.66666667 L13.3333333,4.66666667 L13.3333333,14 Z" id="Colour" fill="#6C7F84"></path>
    </g>
</svg>