<svg width="16" height="16" viewBox="0 0 16 16" fill="none" xmlns="http://www.w3.org/2000/svg">
<path d="M7.99992 14.6663C7.0777 14.6663 6.21103 14.4912 5.39992 14.141C4.58881 13.7912 3.88325 13.3163 3.28325 12.7163C2.68325 12.1163 2.20836 11.4108 1.85859 10.5997C1.50836 9.78856 1.33325 8.9219 1.33325 7.99967C1.33325 7.07745 1.50836 6.21079 1.85859 5.39967C2.20836 4.58856 2.68325 3.88301 3.28325 3.28301C3.88325 2.68301 4.58881 2.2079 5.39992 1.85767C6.21103 1.5079 7.0777 1.33301 7.99992 1.33301C8.92214 1.33301 9.78881 1.5079 10.5999 1.85767C11.411 2.2079 12.1166 2.68301 12.7166 3.28301C13.3166 3.88301 13.7915 4.58856 14.1413 5.39967C14.4915 6.21079 14.6666 7.07745 14.6666 7.99967C14.6666 8.9219 14.4915 9.78856 14.1413 10.5997C13.7915 11.4108 13.3166 12.1163 12.7166 12.7163C12.1166 13.3163 11.411 13.7912 10.5999 14.141C9.78881 14.4912 8.92214 14.6663 7.99992 14.6663ZM7.33325 13.2997V11.9997C6.96659 11.9997 6.65281 11.8692 6.39192 11.6083C6.13059 11.347 5.99992 11.033 5.99992 10.6663V9.99967L2.79992 6.79967C2.76659 6.99967 2.73592 7.19967 2.70792 7.39967C2.68036 7.59967 2.66659 7.79967 2.66659 7.99967C2.66659 9.34412 3.10836 10.5219 3.99192 11.533C4.87503 12.5441 5.98881 13.133 7.33325 13.2997ZM11.9333 11.5997C12.1555 11.3552 12.3555 11.0912 12.5333 10.8077C12.711 10.5246 12.8584 10.2301 12.9753 9.92434C13.0917 9.61901 13.1806 9.30523 13.2419 8.98301C13.3028 8.66079 13.3333 8.33301 13.3333 7.99967C13.3333 6.91079 13.0306 5.91634 12.4253 5.01634C11.8195 4.11634 11.011 3.46634 9.99992 3.06634V3.33301C9.99992 3.69967 9.86947 4.01345 9.60858 4.27434C9.34725 4.53567 9.03325 4.66634 8.66658 4.66634H7.33325V5.99967C7.33325 6.18856 7.26947 6.34679 7.14192 6.47434C7.01392 6.60234 6.85547 6.66634 6.66658 6.66634H5.33325V7.99967H9.33325C9.52214 7.99967 9.68058 8.06345 9.80859 8.19101C9.93614 8.31901 9.99992 8.47745 9.99992 8.66634V10.6663H10.6666C10.9555 10.6663 11.2166 10.7523 11.4499 10.9243C11.6833 11.0968 11.8444 11.3219 11.9333 11.5997Z" fill="#6C7F84"/>
</svg>
