<svg width="16" height="16" viewBox="0 0 16 16" fill="none" xmlns="http://www.w3.org/2000/svg">
<path d="M7.39992 12.6663H8.56659V11.833C9.12214 11.733 9.59992 11.5163 9.99992 11.183C10.3999 10.8497 10.5999 10.3552 10.5999 9.69967C10.5999 9.23301 10.4666 8.80523 10.1999 8.41634C9.93325 8.02745 9.39992 7.68856 8.59992 7.39967C7.93325 7.17745 7.47214 6.98301 7.21658 6.81634C6.96103 6.64967 6.83325 6.4219 6.83325 6.13301C6.83325 5.84412 6.93614 5.61634 7.14192 5.44967C7.34725 5.28301 7.64436 5.19967 8.03325 5.19967C8.38881 5.19967 8.66658 5.2859 8.86658 5.45834C9.06659 5.63034 9.21103 5.84412 9.29992 6.09967L10.3666 5.66634C10.2444 5.27745 10.0195 4.93856 9.69192 4.64967C9.36392 4.36079 8.99992 4.19967 8.59992 4.16634V3.33301H7.43325V4.16634C6.8777 4.28856 6.44436 4.53301 6.13325 4.89967C5.82214 5.26634 5.66658 5.67745 5.66658 6.13301C5.66658 6.65523 5.81947 7.07745 6.12525 7.39967C6.43058 7.7219 6.91103 7.99967 7.56659 8.23301C8.26658 8.48856 8.75281 8.71634 9.02525 8.91634C9.29725 9.11634 9.43325 9.37745 9.43325 9.69967C9.43325 10.0663 9.30259 10.3357 9.04125 10.5077C8.78036 10.6801 8.46658 10.7663 8.09992 10.7663C7.73325 10.7663 7.40836 10.6523 7.12525 10.4243C6.8417 10.1968 6.63325 9.85523 6.49992 9.39967L5.39992 9.83301C5.55547 10.3663 5.79725 10.797 6.12525 11.125C6.45281 11.4526 6.8777 11.6775 7.39992 11.7997V12.6663ZM7.99992 14.6663C7.0777 14.6663 6.21103 14.4912 5.39992 14.141C4.58881 13.7912 3.88325 13.3163 3.28325 12.7163C2.68325 12.1163 2.20836 11.4108 1.85859 10.5997C1.50836 9.78856 1.33325 8.9219 1.33325 7.99967C1.33325 7.07745 1.50836 6.21079 1.85859 5.39967C2.20836 4.58856 2.68325 3.88301 3.28325 3.28301C3.88325 2.68301 4.58881 2.2079 5.39992 1.85767C6.21103 1.5079 7.0777 1.33301 7.99992 1.33301C8.92214 1.33301 9.78881 1.5079 10.5999 1.85767C11.411 2.2079 12.1166 2.68301 12.7166 3.28301C13.3166 3.88301 13.7915 4.58856 14.1413 5.39967C14.4915 6.21079 14.6666 7.07745 14.6666 7.99967C14.6666 8.9219 14.4915 9.78856 14.1413 10.5997C13.7915 11.4108 13.3166 12.1163 12.7166 12.7163C12.1166 13.3163 11.411 13.7912 10.5999 14.141C9.78881 14.4912 8.92214 14.6663 7.99992 14.6663ZM7.99992 13.333C9.48881 13.333 10.7499 12.8163 11.7833 11.783C12.8166 10.7497 13.3333 9.48856 13.3333 7.99967C13.3333 6.51079 12.8166 5.24967 11.7833 4.21634C10.7499 3.18301 9.48881 2.66634 7.99992 2.66634C6.51103 2.66634 5.24992 3.18301 4.21658 4.21634C3.18325 5.24967 2.66659 6.51079 2.66659 7.99967C2.66659 9.48856 3.18325 10.7497 4.21658 11.783C5.24992 12.8163 6.51103 13.333 7.99992 13.333Z" fill="#6C7F84"/>
</svg>
