<svg xmlns="http://www.w3.org/2000/svg" width="25" height="25" viewBox="0 0 25 25" fill="none">
  <path d="M5.44902 21.3516C4.93117 21.3516 4.46688 21.1462 4.05617 20.7355C3.64545 20.3248 3.44009 19.8605 3.44009 19.3426V5.28013C3.44009 4.74978 3.63206 4.29576 4.01599 3.91808C4.39992 3.5404 4.85081 3.35156 5.36867 3.35156H19.5115C20.0419 3.35156 20.4959 3.5404 20.8736 3.91808C21.2513 4.29576 21.4401 4.74978 21.4401 5.28013V19.423C21.4401 19.9408 21.2513 20.3917 20.8736 20.7757C20.4959 21.1596 20.0419 21.3516 19.5115 21.3516H5.44902ZM5.36867 19.423H11.4758V5.28013H5.36867V19.423ZM13.4044 19.423H19.5115V12.3516H13.4044V19.423ZM13.4044 10.423H19.5115V5.28013H13.4044V10.423Z" fill="#556468"/>
  </svg>
