<?xml version="1.0" encoding="UTF-8"?>
<svg width="16px" height="16px" viewBox="0 0 16 16" version="1.1" xmlns="http://www.w3.org/2000/svg" xmlns:xlink="http://www.w3.org/1999/xlink">
    <title>03 Graphics / 00 Icon / Simple / Drawdown</title>
    <g id="03-Graphics-/-00-Icon-/-Simple-/-Drawdown" stroke="none" stroke-width="1" fill="none" fill-rule="evenodd">
        <path d="M6.52,7.412 L5.57333333,8.406 C5.12,7.923 4.68,7.3 4.38,6.348 L5.67333333,6.005 C5.88666667,6.628 6.18666667,7.055 6.52,7.412 Z M7.33333333,3.8 L4.66666667,1 L2,3.8 L4.01333333,3.8 C4.02666667,4.367 4.06666667,4.878 4.14,5.319 L5.43333333,4.976 C5.38666667,4.64 5.35333333,4.241 5.34666667,3.8 L7.33333333,3.8 Z M14,3.8 L11.3333333,1 L8.66666667,3.8 L10.66,3.8 C10.5933333,6.376 9.80666667,7.125 8.96666667,7.916 C8.63333333,8.224 8.29333333,8.56 8,9.001 C7.77333333,8.658 7.51333333,8.385 7.24666667,8.133 L6.30666667,9.12 C6.92666667,9.715 7.33333333,10.198 7.33333333,11.5 C7.33333333,11.5 7.33333333,11.5 7.33333333,11.5 L7.33333333,11.5 L7.33333333,15 L8.66666667,15 L8.66666667,11.5 C8.66666667,11.5 8.66666667,11.5 8.66666667,11.5 C8.66666667,10.086 9.14,9.638 9.86,8.959 C10.78,8.091 11.9133333,7.013 11.9933333,3.8 L14,3.8 Z" id="Drawdown---Colour" fill="#6C7F84" transform="translate(8.000000, 8.000000) scale(-1, 1) rotate(270.000000) translate(-8.000000, -8.000000) "></path>
    </g>
</svg>