<svg width="24" height="24" viewBox="0 0 24 24" fill="none" xmlns="http://www.w3.org/2000/svg">
<path d="M12 7.8C15.6177 7.8 18.8441 9.717 20.4191 12.75C18.8441 15.783 15.6177 17.7 12 17.7C8.38227 17.7 5.15591 15.783 3.58091 12.75C5.15591 9.717 8.38227 7.8 12 7.8ZM12 6C7.22727 6 3.15136 8.799 1.5 12.75C3.15136 16.701 7.22727 19.5 12 19.5C16.7727 19.5 20.8486 16.701 22.5 12.75C20.8486 8.799 16.7727 6 12 6ZM12 10.5C13.3173 10.5 14.3864 11.508 14.3864 12.75C14.3864 13.992 13.3173 15 12 15C10.6827 15 9.61364 13.992 9.61364 12.75C9.61364 11.508 10.6827 10.5 12 10.5ZM12 8.7C9.63273 8.7 7.70455 10.518 7.70455 12.75C7.70455 14.982 9.63273 16.8 12 16.8C14.3673 16.8 16.2955 14.982 16.2955 12.75C16.2955 10.518 14.3673 8.7 12 8.7Z" fill="#00BEF0"/>
</svg>
