<?xml version="1.0" encoding="UTF-8"?>
<svg width="16px" height="16px" viewBox="0 0 16 16" version="1.1" xmlns="http://www.w3.org/2000/svg" xmlns:xlink="http://www.w3.org/1999/xlink">
    <title>03 Graphics / 00 Icon / Simple / Fee</title>
    <g id="03-Graphics-/-00-Icon-/-Simple-/-Fee" stroke="none" stroke-width="1" fill="none" fill-rule="evenodd">
        <path d="M5.17412379,7.42685371 C5.98347005,7.42685371 6.62602535,7.20774883 7.10178971,6.76953908 C7.57755406,6.33132933 7.81543624,5.75150301 7.81543624,5.03006012 L7.81543624,5.03006012 L7.81543624,4.45290581 C7.81543624,3.6993988 7.57755406,3.10220441 7.10178971,2.66132265 C6.62602535,2.22044088 5.97800149,2 5.15771812,2 C4.34837186,2 3.70308228,2.22177689 3.22184937,2.66533066 C2.74061646,3.10888444 2.5,3.69138277 2.5,4.41282565 L2.5,4.41282565 L2.5,4.98196393 C2.5,5.74081496 2.74471787,6.33800935 3.23415362,6.77354709 C3.72358936,7.20908484 4.37024609,7.42685371 5.17412379,7.42685371 Z M5.69910515,12.9659319 L11.5313199,3.84368737 L10.243475,3.21042084 L4.41126025,12.3326653 L5.69910515,12.9659319 Z M10.834079,10.0320641 C11.1075068,10.0320641 11.3235148,10.1189045 11.4821029,10.2925852 C11.6142597,10.4373191 11.6913511,10.620092 11.7133772,10.840904 L11.7199851,10.9779559 L11.7117823,11.8036072 C11.6680338,12.2952572 11.3809346,12.5410822 10.8504847,12.5410822 C10.5989311,12.5410822 10.3856575,12.4462258 10.2106637,12.256513 C10.0648355,12.0984191 9.97976911,11.9189861 9.95546441,11.7182142 L9.94817301,11.5951904 L9.94817301,10.9378758 C9.95911012,10.6599866 10.0438727,10.4395458 10.2024609,10.2765531 C10.361049,10.1135605 10.5715884,10.0320641 10.834079,10.0320641 Z M5.15771812,3.45891784 C5.43661447,3.45891784 5.65262242,3.54843019 5.80574198,3.72745491 C5.93334162,3.87664217 6.00777474,4.06015735 6.02904135,4.27800045 L6.03542133,4.41282565 L6.03542133,4.89378758 C6.03542133,5.60988644 5.74832215,5.96793587 5.17412379,5.96793587 C4.89522744,5.96793587 4.67648521,5.88109552 4.51789709,5.70741483 C4.38574033,5.56268092 4.30864888,5.38176353 4.28662275,5.16466266 L4.28001491,5.03006012 L4.28001491,4.42885772 C4.28001491,4.12959252 4.35930897,3.89311957 4.51789709,3.71943888 C4.67648521,3.54575818 4.88975889,3.45891784 5.15771812,3.45891784 Z M10.8504847,14 C11.6652995,14 12.3105891,13.7808951 12.7863535,13.3426854 C13.2621178,12.9044756 13.5,12.3219773 13.5,11.5951904 L13.5,11.5951904 L13.5,11.0340681 C13.5,10.259185 13.2593835,9.65531062 12.7781506,9.22244489 C12.2969177,8.78957916 11.6488939,8.57314629 10.834079,8.57314629 C10.0302013,8.57314629 9.3862789,8.79225117 8.90231171,9.23046092 C8.41834452,9.66867067 8.17636092,10.251169 8.17636092,10.9779559 L8.17636092,10.9779559 L8.17636092,11.5551102 C8.17636092,12.3139613 8.4210788,12.9111556 8.91051454,13.3466934 C9.39995029,13.7822311 10.046607,14 10.8504847,14 Z" id="Icon-Fee" fill="#6C7F84"></path>
    </g>
</svg>