<?xml version="1.0" encoding="UTF-8"?>
<svg width="16px" height="16px" viewBox="0 0 16 16" version="1.1" xmlns="http://www.w3.org/2000/svg" xmlns:xlink="http://www.w3.org/1999/xlink">
    <title>03 Graphics / 00 Icon / Simple / Hedging</title>
    <g id="03-Graphics-/-00-Icon-/-Simple-/-Hedging" stroke="none" stroke-width="1" fill="none" fill-rule="evenodd">
        <path d="M11.272727,9.24025968 L8.99743785,7 L8.99743785,8.68019472 L5,8.68019472 L5,9.80032456 L8.99743785,9.80032456 L8.99743785,11.4805193 L11.272727,9.24025968 Z M12.6666667,2.33333333 L12,2.33333333 L12,1 L10.6666667,1 L10.6666667,2.33333333 L5.33333333,2.33333333 L5.33333333,1 L4,1 L4,2.33333333 L3.33333333,2.33333333 C2.59333333,2.33333333 2.00666667,2.93333333 2.00666667,3.66666667 L2,13 C2,13.7333333 2.59333333,14.3333333 3.33333333,14.3333333 L12.6666667,14.3333333 C13.4,14.3333333 14,13.7333333 14,13 L14,3.66666667 C14,2.93333333 13.4,2.33333333 12.6666667,2.33333333 Z M12.6666667,13 L3.33333333,13 L3.33333333,5.66666667 L12.6666667,5.66666667 L12.6666667,13 Z" id="Hedging-Colour" fill="#6C7F84"></path>
    </g>
</svg>