<?xml version="1.0" encoding="UTF-8"?>
<svg width="16px" height="16px" viewBox="0 0 16 16" version="1.1" xmlns="http://www.w3.org/2000/svg" xmlns:xlink="http://www.w3.org/1999/xlink">
    <!-- Generator: Sketch 58 (84663) - https://sketch.com -->
    <title>Graphics / 00 Icon / Simple / Help</title>
    <desc>Created with Sketch.</desc>
    <g id="Graphics-/-00-Icon-/-Simple-/-Help" stroke="none" stroke-width="1" fill="none" fill-rule="evenodd">
        <path d="M12.6666667,1.33333333 L3.33333333,1.33333333 C2.59333333,1.33333333 2,1.93333333 2,2.66666667 L2,12 C2,12.7333333 2.59333333,13.3333333 3.33333333,13.3333333 L6,13.3333333 L8,15.3333333 L10,13.3333333 L12.6666667,13.3333333 C13.4,13.3333333 14,12.7333333 14,12 L14,2.66666667 C14,1.93333333 13.4,1.33333333 12.6666667,1.33333333 Z M8.66666667,12 L7.33333333,12 L7.33333333,10.6666667 L8.66666667,10.6666667 L8.66666667,12 Z M10.0466667,6.83333333 L9.44666667,7.44666667 C8.96666667,7.93333333 8.66666667,8.33333333 8.66666667,9.33333333 L7.33333333,9.33333333 L7.33333333,9 C7.33333333,8.26666667 7.63333333,7.6 8.11333333,7.11333333 L8.94,6.27333333 C9.18666667,6.03333333 9.33333333,5.7 9.33333333,5.33333333 C9.33333333,4.6 8.73333333,4 8,4 C7.26666667,4 6.66666667,4.6 6.66666667,5.33333333 L5.33333333,5.33333333 C5.33333333,3.86 6.52666667,2.66666667 8,2.66666667 C9.47333333,2.66666667 10.6666667,3.86 10.6666667,5.33333333 C10.6666667,5.92 10.4266667,6.45333333 10.0466667,6.83333333 Z" id="Colour" fill="#6C7F84"></path>
    </g>
</svg>