<?xml version="1.0" encoding="UTF-8"?>
<svg width="16px" height="16px" viewBox="0 0 16 16" version="1.1" xmlns="http://www.w3.org/2000/svg" xmlns:xlink="http://www.w3.org/1999/xlink">
    <!-- Generator: Sketch 58 (84663) - https://sketch.com -->
    <title>Graphics / 00 Icon / Simple / Info</title>
    <desc>Created with Sketch.</desc>
    <g id="Graphics-/-00-Icon-/-Simple-/-Info" stroke="none" stroke-width="1" fill="none" fill-rule="evenodd">
        <path d="M7.3,10.1 L8.7,10.1 L8.7,11.5 L7.3,11.5 L7.3,10.1 Z M7.3,4.5 L8.7,4.5 L8.7,8.7 L7.3,8.7 L7.3,4.5 Z M7.993,1 C4.129,1 1,4.136 1,8 C1,11.864 4.129,15 7.993,15 C11.864,15 15,11.864 15,8 C15,4.136 11.864,1 7.993,1 Z M8,13.6 C4.906,13.6 2.4,11.094 2.4,8 C2.4,4.906 4.906,2.4 8,2.4 C11.094,2.4 13.6,4.906 13.6,8 C13.6,11.094 11.094,13.6 8,13.6 Z" id="Colour" fill="#6C7F84" transform="translate(8.000000, 8.000000) rotate(-180.000000) translate(-8.000000, -8.000000) "></path>
    </g>
</svg>