<svg width="22" height="28" viewBox="0 0 22 28" fill="none" xmlns="http://www.w3.org/2000/svg">
<path d="M18.95 9.33333H17.625V6.66667C17.625 2.98667 14.657 0 11 0C7.34299 0 4.37499 2.98667 4.37499 6.66667V9.33333H3.04999C1.59249 9.33333 0.399994 10.5333 0.399994 12V25.3333C0.399994 26.8 1.59249 28 3.04999 28H18.95C20.4075 28 21.6 26.8 21.6 25.3333V12C21.6 10.5333 20.4075 9.33333 18.95 9.33333ZM7.02499 6.66667C7.02499 4.45333 8.80049 2.66667 11 2.66667C13.1995 2.66667 14.975 4.45333 14.975 6.66667V9.33333H7.02499V6.66667ZM18.95 25.3333H3.04999V12H18.95V25.3333ZM11 21.3333C12.4575 21.3333 13.65 20.1333 13.65 18.6667C13.65 17.2 12.4575 16 11 16C9.54249 16 8.34999 17.2 8.34999 18.6667C8.34999 20.1333 9.54249 21.3333 11 21.3333Z" fill="#556468"/>
</svg>
