<svg width="16" height="16" viewBox="0 0 16 16" fill="none" xmlns="http://www.w3.org/2000/svg">
<path d="M2.66659 13.3337C2.29992 13.3337 1.98614 13.2032 1.72525 12.9423C1.46392 12.681 1.33325 12.367 1.33325 12.0003V4.00033C1.33325 3.63366 1.46392 3.31988 1.72525 3.05899C1.98614 2.79766 2.29992 2.66699 2.66659 2.66699H13.3333C13.6999 2.66699 14.0139 2.79766 14.2753 3.05899C14.5361 3.31988 14.6666 3.63366 14.6666 4.00033V12.0003C14.6666 12.367 14.5361 12.681 14.2753 12.9423C14.0139 13.2032 13.6999 13.3337 13.3333 13.3337H2.66659ZM7.99992 8.66699L2.66659 5.33366V12.0003H13.3333V5.33366L7.99992 8.66699ZM7.99992 7.33366L13.3333 4.00033H2.66659L7.99992 7.33366ZM2.66659 5.33366V4.00033V12.0003V5.33366Z" fill="#6C7F84"/>
</svg>
