<svg width="23" height="15" viewBox="0 0 24 15" fill="none" xmlns="http://www.w3.org/2000/svg">
    <path d="M13.1 8.9C12.2664 8.9 11.558 8.6084 10.9748 8.0252C10.3916 7.442 10.1 6.7336 10.1 5.9C10.1 5.0664 10.3916 4.358 10.9748 3.7748C11.558 3.1916 12.2664 2.9 13.1 2.9C13.9336 2.9 14.642 3.1916 15.2252 3.7748C15.8084 4.358 16.1 5.0664 16.1 5.9C16.1 6.7336 15.8084 7.442 15.2252 8.0252C14.642 8.6084 13.9336 8.9 13.1 8.9ZM5.9 11.3C5.4 11.3 4.9752 11.1248 4.6256 10.7744C4.2752 10.4248 4.1 10 4.1 9.5V2.3C4.1 1.8 4.2752 1.3752 4.6256 1.0256C4.9752 0.6752 5.4 0.5 5.9 0.5H20.3C20.8 0.5 21.2248 0.6752 21.5744 1.0256C21.9248 1.3752 22.1 1.8 22.1 2.3V9.5C22.1 10 21.9248 10.4248 21.5744 10.7744C21.2248 11.1248 20.8 11.3 20.3 11.3H5.9ZM7.7 9.5H18.5C18.5 9 18.6752 8.5752 19.0256 8.2256C19.3752 7.8752 19.8 7.7 20.3 7.7V4.1C19.8 4.1 19.3752 3.9248 19.0256 3.5744C18.6752 3.2248 18.5 2.8 18.5 2.3H7.7C7.7 2.8 7.5248 3.2248 7.1744 3.5744C6.8248 3.9248 6.4 4.1 5.9 4.1V7.7C6.4 7.7 6.8248 7.8752 7.1744 8.2256C7.5248 8.5752 7.7 9 7.7 9.5ZM19.1 14.9H2.3C1.8 14.9 1.3752 14.7248 1.0256 14.3744C0.6752 14.0248 0.5 13.6 0.5 13.1V2.9H2.3V13.1H19.1V14.9Z"
          fill="#00BEF0" />
</svg>