<svg width="16" height="16" viewBox="0 0 16 16" fill="none" xmlns="http://www.w3.org/2000/svg">
<path fill-rule="evenodd" clip-rule="evenodd" d="M3 4H13C13.5523 4 14 4.44772 14 5V11C14 11.5523 13.5523 12 13 12H3C2.44772 12 2 11.5523 2 11V5C2 4.44772 2.44772 4 3 4ZM1 5C1 3.89543 1.89543 3 3 3H13C14.1046 3 15 3.89543 15 5V11C15 12.1046 14.1046 13 13 13H3C1.89543 13 1 12.1046 1 11V5ZM3.83334 7V10H4.83334V6H2.83334V7H3.83334ZM6.16668 8.33333V10H9.16668V9H7.16668V8.33333H8.50001C8.6889 8.33333 8.84734 8.26933 8.97534 8.14133C9.1029 8.01378 9.16668 7.85556 9.16668 7.66667V6.66667C9.16668 6.47778 9.1029 6.31933 8.97534 6.19133C8.84734 6.06378 8.6889 6 8.50001 6H6.16668V7H8.16668V7.66667H6.83334C6.64445 7.66667 6.48623 7.73044 6.35868 7.858C6.23068 7.986 6.16668 8.14444 6.16668 8.33333ZM10.1667 9V10H12.5C12.6889 10 12.8471 9.936 12.9747 9.808C13.1027 9.68044 13.1667 9.52222 13.1667 9.33333V6.66667C13.1667 6.47778 13.1027 6.31933 12.9747 6.19133C12.8471 6.06378 12.6889 6 12.5 6H10.1667V7H12.1667V7.66667H10.8333V8.33333H12.1667V9H10.1667Z" fill="#6C7F84"/>
</svg>
