<svg xmlns="http://www.w3.org/2000/svg" width="24" height="25" viewBox="0 0 24 25" fill="none">
  <path fill-rule="evenodd" clip-rule="evenodd" d="M19.4219 5.23438H4.57812C4.02697 5.23438 3.49839 5.45332 3.10867 5.84304C2.71894 6.23277 2.5 6.76135 2.5 7.3125V17.4062C2.5 17.9574 2.71894 18.486 3.10867 18.8757C3.49839 19.2654 4.02697 19.4844 4.57812 19.4844H19.4219C19.973 19.4844 20.5016 19.2654 20.8913 18.8757C21.2811 18.486 21.5 17.9574 21.5 17.4062V7.3125C21.5 6.76135 21.2811 6.23277 20.8913 5.84304C20.5016 5.45332 19.973 5.23438 19.4219 5.23438ZM19.7187 17.4062C19.7187 17.485 19.6875 17.5605 19.6318 17.6162C19.5761 17.6718 19.5006 17.7031 19.4219 17.7031H4.57812C4.49939 17.7031 4.42388 17.6718 4.3682 17.6162C4.31253 17.5605 4.28125 17.485 4.28125 17.4062V7.3125C4.28125 7.23376 4.31253 7.15825 4.3682 7.10258C4.42388 7.0469 4.49939 7.01562 4.57812 7.01562H19.4219C19.5006 7.01562 19.5761 7.0469 19.6318 7.10258C19.6875 7.15825 19.7187 7.23376 19.7187 7.3125V17.4062ZM7.25 12.3594C7.25 12.8513 6.85125 13.25 6.35938 13.25C5.8675 13.25 5.46875 12.8513 5.46875 12.3594C5.46875 11.8675 5.8675 11.4688 6.35938 11.4688C6.85125 11.4688 7.25 11.8675 7.25 12.3594ZM18.5312 12.3594C18.5312 12.8513 18.1325 13.25 17.6406 13.25C17.1487 13.25 16.75 12.8513 16.75 12.3594C16.75 11.8675 17.1487 11.4688 17.6406 11.4688C18.1325 11.4688 18.5312 11.8675 18.5312 12.3594ZM10.1857 9.64411C10.7227 9.28528 11.3541 9.09375 12 9.09375C12.8661 9.09375 13.6967 9.43781 14.3091 10.0502C14.9215 10.6627 15.2656 11.4933 15.2656 12.3594C15.2656 13.0053 15.0741 13.6366 14.7152 14.1737C14.3564 14.7107 13.8464 15.1293 13.2497 15.3764C12.653 15.6236 11.9963 15.6883 11.3629 15.5623C10.7294 15.4362 10.1475 15.1252 9.69082 14.6685C9.23412 14.2118 8.9231 13.6299 8.79709 12.9965C8.67109 12.363 8.73576 11.7064 8.98293 11.1097C9.23009 10.513 9.64866 10.0029 10.1857 9.64411ZM11.1753 13.5936C11.4194 13.7567 11.7064 13.8438 12 13.8438C12.3937 13.8438 12.7712 13.6874 13.0496 13.409C13.328 13.1306 13.4843 12.7531 13.4843 12.3594C13.4843 12.0658 13.3973 11.7788 13.2342 11.5347C13.0711 11.2906 12.8392 11.1003 12.568 10.988C12.2968 10.8756 11.9983 10.8462 11.7104 10.9035C11.4224 10.9608 11.158 11.1022 10.9504 11.3098C10.7428 11.5174 10.6014 11.7818 10.5441 12.0698C10.4868 12.3577 10.5162 12.6562 10.6286 12.9274C10.7409 13.1987 10.9312 13.4305 11.1753 13.5936Z" fill="#556468"/>
  </svg>
