<svg width="16" height="16" viewBox="0 0 16 16" fill="none" xmlns="http://www.w3.org/2000/svg">
<path d="M10 14L6 12.6L2.9 13.8C2.67778 13.8889 2.47222 13.8638 2.28333 13.7247C2.09444 13.586 2 13.4 2 13.1667V3.83333C2 3.68889 2.04178 3.56111 2.12533 3.45C2.20844 3.33889 2.32222 3.25556 2.46667 3.2L6 2L10 3.4L13.1 2.2C13.3222 2.11111 13.5278 2.136 13.7167 2.27467C13.9056 2.41378 14 2.6 14 2.83333V12.1667C14 12.3111 13.9582 12.4389 13.8747 12.55C13.7916 12.6611 13.6778 12.7444 13.5333 12.8L10 14ZM9.33333 12.3667V4.56667L6.66667 3.63333V11.4333L9.33333 12.3667ZM10.6667 12.3667L12.6667 11.7V3.8L10.6667 4.56667V12.3667ZM3.33333 12.2L5.33333 11.4333V3.63333L3.33333 4.3V12.2Z" fill="#6C7F84"/>
</svg>
