<svg width="16" height="16" viewBox="0 0 16 16" fill="none" xmlns="http://www.w3.org/2000/svg">
    <path d="M8.25795 13.2252C8.31395 13.2252 8.36675 13.214 8.41635 13.1916C8.46648 13.1697 8.50835 13.142 8.54195 13.1084L13.6579 7.9748C13.7694 7.86387 13.8555 7.73613 13.9163 7.5916C13.9777 7.44707 14.0083 7.2972 14.0083 7.142C14.0083 6.98627 13.9777 6.83347 13.9163 6.6836C13.8555 6.5332 13.7694 6.40253 13.6579 6.2916L10.5587 3.1748C10.4361 3.06387 10.3027 2.97773 10.1587 2.9164C10.0142 2.8556 9.86408 2.8252 9.70835 2.8252C9.48595 2.8252 9.28328 2.88893 9.10035 3.0164C8.91688 3.1444 8.74728 3.28626 8.59155 3.442L9.84195 4.642C10.0195 4.8196 10.1611 5.01667 10.2667 5.2332C10.3723 5.45027 10.4251 5.68653 10.4251 5.942C10.4251 6.38627 10.2697 6.76387 9.95875 7.0748C9.64728 7.38627 9.26942 7.542 8.82515 7.542C8.61395 7.542 8.41102 7.50307 8.21635 7.4252C8.02222 7.34733 7.84728 7.23053 7.69155 7.0748L6.32515 5.7084L3.74195 8.2916C3.70835 8.3364 3.68035 8.38093 3.65795 8.4252C3.63608 8.46947 3.62515 8.51933 3.62515 8.5748C3.62515 8.68627 3.66675 8.78067 3.74995 8.858C3.83315 8.93587 3.92488 8.9748 4.02515 8.9748C4.08062 8.9748 4.13048 8.96387 4.17475 8.942C4.21955 8.9196 4.26408 8.8916 4.30835 8.858L6.29155 6.8916L7.12515 7.7252L5.14195 9.7084C5.09715 9.75267 5.06648 9.7972 5.04995 9.842C5.03342 9.88627 5.02515 9.93613 5.02515 9.9916C5.02515 10.1031 5.06408 10.1975 5.14195 10.2748C5.21928 10.3527 5.31368 10.3916 5.42515 10.3916C5.48062 10.3916 5.53342 10.3807 5.58355 10.3588C5.63315 10.3364 5.67475 10.3084 5.70835 10.2748L7.69155 8.2916L8.54195 9.142L6.55875 11.1084C6.51395 11.1527 6.48328 11.1999 6.46675 11.25C6.45022 11.3001 6.44195 11.3529 6.44195 11.4084C6.44195 11.5193 6.48088 11.6137 6.55875 11.6916C6.63608 11.7695 6.73048 11.8084 6.84195 11.8084C6.89742 11.8084 6.95022 11.7972 7.00035 11.7748C7.04995 11.7529 7.09155 11.7252 7.12515 11.6916L9.10835 9.7084L9.95875 10.5588L7.97475 12.5252C7.94168 12.5695 7.91395 12.6167 7.89155 12.6668C7.86915 12.7169 7.85795 12.7697 7.85795 12.8252C7.85795 12.9361 7.89688 13.0305 7.97475 13.1084C8.05262 13.1863 8.14702 13.2252 8.25795 13.2252ZM8.24195 14.3916C7.83075 14.3916 7.47502 14.2556 7.17475 13.9836C6.87502 13.7111 6.70275 13.3748 6.65795 12.9748C6.29155 12.9417 5.97768 12.7919 5.71635 12.5252C5.45555 12.2585 5.29742 11.9417 5.24195 11.5748C4.86382 11.5193 4.54435 11.3612 4.28355 11.1004C4.02222 10.8391 3.87502 10.5252 3.84195 10.1588C3.43075 10.1364 3.09182 9.96947 2.82515 9.658C2.55848 9.34707 2.42515 8.986 2.42515 8.5748C2.42515 8.3636 2.46408 8.16093 2.54195 7.9668C2.61928 7.77213 2.73582 7.5972 2.89155 7.442L6.32515 4.0252L8.52515 6.2252C8.56942 6.26947 8.61368 6.29987 8.65795 6.3164C8.70275 6.33347 8.75288 6.342 8.80835 6.342C8.91928 6.342 9.01368 6.30307 9.09155 6.2252C9.16942 6.14733 9.20835 6.05293 9.20835 5.942C9.20835 5.886 9.19715 5.8332 9.17475 5.7836C9.15288 5.73347 9.12515 5.6916 9.09155 5.658L6.60835 3.1748C6.48622 3.05267 6.35288 2.96387 6.20835 2.9084C6.06382 2.85293 5.91395 2.8252 5.75875 2.8252C5.60302 2.8252 5.45288 2.8556 5.30835 2.9164C5.16382 2.97773 5.03048 3.06387 4.90835 3.1748L2.35875 5.7252C2.24728 5.83613 2.16115 5.96653 2.10035 6.1164C2.03902 6.2668 2.00835 6.4196 2.00835 6.5748C2.00835 6.66387 2.01955 6.75 2.04195 6.8332C2.06382 6.91693 2.09155 7.00307 2.12515 7.0916L1.24195 7.9588C1.09742 7.75826 0.988883 7.54147 0.91635 7.3084C0.84435 7.07533 0.80835 6.8308 0.80835 6.5748C0.80835 6.25267 0.86675 5.9444 0.98355 5.65C1.10035 5.3556 1.27528 5.0972 1.50835 4.8748L4.05795 2.3252C4.28035 2.1028 4.53875 1.93053 4.83315 1.8084C5.12755 1.68627 5.43608 1.6252 5.75875 1.6252C6.08088 1.6252 6.38915 1.68627 6.68355 1.8084C6.97795 1.93053 7.23608 2.1028 7.45795 2.3252L7.72515 2.5916L7.99155 2.3084C8.21395 2.086 8.47235 1.91373 8.76675 1.7916C9.06115 1.66947 9.36942 1.6084 9.69155 1.6084C10.0137 1.6084 10.3193 1.66947 10.6083 1.7916C10.8974 1.91373 11.1529 2.086 11.3747 2.3084L14.4915 5.4252C14.7139 5.6476 14.8862 5.90307 15.0083 6.1916C15.1305 6.48067 15.1915 6.78627 15.1915 7.1084C15.1915 7.43053 15.1305 7.7388 15.0083 8.0332C14.8862 8.3276 14.7139 8.586 14.4915 8.8084L9.37475 13.9252C9.21955 14.0809 9.04462 14.1975 8.84995 14.2748C8.65582 14.3527 8.45315 14.3916 8.24195 14.3916Z" fill="#6C7F84"/>
</svg>
