<svg width="24" height="24" viewBox="0 0 24 24" fill="none" xmlns="http://www.w3.org/2000/svg">
<g id="Simple/Reuse">
<path id="Vector" d="M9.94951 19.0095C8.33285 19.0095 6.93701 18.4845 5.76201 17.4345C4.58701 16.3845 3.99951 15.0761 3.99951 13.5095C3.99951 11.9428 4.58701 10.6386 5.76201 9.59697C6.93701 8.55531 8.33285 8.03447 9.94951 8.03447H15.9995L14.1745 6.20947C13.9745 6.00947 13.8787 5.76781 13.887 5.48447C13.8953 5.20114 13.9995 4.95947 14.1995 4.75947C14.3995 4.55947 14.6453 4.45947 14.937 4.45947C15.2287 4.45947 15.4745 4.55947 15.6745 4.75947L19.2495 8.33447C19.3662 8.45114 19.4495 8.57197 19.4995 8.69697C19.5495 8.82197 19.5745 8.95114 19.5745 9.08447C19.5745 9.21781 19.5495 9.34697 19.4995 9.47197C19.4495 9.59697 19.3662 9.71781 19.2495 9.83447L15.6495 13.4345C15.4495 13.6345 15.2078 13.7303 14.9245 13.722C14.6412 13.7136 14.3995 13.6095 14.1995 13.4095C13.9995 13.2095 13.8995 12.9636 13.8995 12.672C13.8995 12.3803 13.9995 12.1345 14.1995 11.9345L15.9995 10.1345H9.94951C8.91618 10.1345 8.01618 10.4511 7.24951 11.0845C6.48285 11.7178 6.09951 12.5261 6.09951 13.5095C6.09951 14.5095 6.48285 15.3261 7.24951 15.9595C8.01618 16.5928 8.91618 16.9095 9.94951 16.9095H15.9245C16.2078 16.9095 16.4537 17.0136 16.662 17.222C16.8703 17.4303 16.9745 17.6761 16.9745 17.9595C16.9745 18.2428 16.8703 18.4886 16.662 18.697C16.4537 18.9053 16.2078 19.0095 15.9245 19.0095H9.94951Z" fill="#00BEF0"/>
</g>
</svg>
