<?xml version="1.0" encoding="UTF-8"?>
<svg width="16px" height="16px" viewBox="0 0 16 16" version="1.1" xmlns="http://www.w3.org/2000/svg" xmlns:xlink="http://www.w3.org/1999/xlink">
    <!-- Generator: Sketch 58 (84663) - https://sketch.com -->
    <title>Graphics / 00 Icon / Simple / Sign out</title>
    <desc>Created with Sketch.</desc>
    <g id="Graphics-/-00-Icon-/-Simple-/-Sign-out" stroke="none" stroke-width="1" fill="none" fill-rule="evenodd">
        <path d="M8.66666667,2 L7.33333333,2 L7.33333333,8.66666667 L8.66666667,8.66666667 L8.66666667,2 Z M11.8866667,3.44666667 L10.94,4.39333333 C11.9933333,5.24 12.6666667,6.54 12.6666667,8 C12.6666667,10.58 10.58,12.6666667 8,12.6666667 C5.42,12.6666667 3.33333333,10.58 3.33333333,8 C3.33333333,6.54 4.00666667,5.24 5.05333333,4.38666667 L4.11333333,3.44666667 C2.82,4.54666667 2,6.17333333 2,8 C2,11.3133333 4.68666667,14 8,14 C11.3133333,14 14,11.3133333 14,8 C14,6.17333333 13.18,4.54666667 11.8866667,3.44666667 Z" id="Colour" fill="#6C7F84"></path>
    </g>
</svg>