<svg width="25" height="24" viewBox="0 0 25 24" fill="none" xmlns="http://www.w3.org/2000/svg">
<path d="M11.675 22.0004V17.375L8.1002 20.9252L6.9248 19.7504L11.675 15.0002V12.8252H9.5L4.8248 17.525L3.6248 16.3754L7.1252 12.8252H2.4998V11.1752H7.1252L3.575 7.5752L4.7498 6.4004L9.5 11.1752H11.675V8.975L6.9752 4.3004L8.15 3.1004L11.675 6.6254V2H13.325V6.6254L16.925 3.05L18.0752 4.2254L13.325 8.975V11.1752H15.5252L20.225 6.4754L21.3998 7.625L17.8748 11.1752H22.5002V12.8252H17.8748L21.425 16.4L20.2748 17.5754L15.5252 12.8252H13.325V15.0002L18.0752 19.775L16.925 20.9504L13.325 17.375V22.0004H11.675Z" fill="white"/>
</svg>
