<svg width="23" height="15" viewBox="0 0 24 24" fill="none" xmlns="http://www.w3.org/2000/svg">
    <path d="M15.9286 2.57031C14.5198 2.57031 13.243 2.83431 12.2452 3.33167C11.2481 3.82903 10.4286 4.6391 10.4286 5.71317V8.85603C10.4286 8.95738 10.4624 9.0556 10.4781 9.15067C9.69161 8.95082 8.8829 8.85181 8.07144 8.85603C6.66266 8.85603 5.38587 9.12003 4.38801 9.61738C3.39094 10.1147 2.57144 10.9248 2.57144 11.9989V18.2846C2.57144 19.3587 3.39094 20.1687 4.3888 20.6661C5.38587 21.1635 6.66266 21.4275 8.07144 21.4275C9.48023 21.4275 10.757 21.1635 11.7549 20.6661C12.7512 20.1687 13.5714 19.3587 13.5714 18.2846V17.9656C14.3401 18.1734 15.1324 18.2806 15.9286 18.2846C17.3374 18.2846 18.6142 18.0206 19.612 17.5232C20.6083 17.0259 21.4286 16.2158 21.4286 15.1417V5.71317C21.4286 4.6391 20.6091 3.82903 19.6112 3.33167C18.6149 2.83431 17.3382 2.57031 15.9286 2.57031ZM15.9286 4.14174C17.1252 4.14174 18.1907 4.39946 18.8994 4.75538C19.6089 5.11131 19.8572 5.4861 19.8572 5.71317C19.8572 5.94103 19.6089 6.31503 18.8994 6.67096C18.1914 7.02688 17.1252 7.2846 15.9286 7.2846C14.7319 7.2846 13.6665 7.02688 12.9578 6.67096C12.2483 6.31503 12 5.94024 12 5.71317C12 5.48531 12.2483 5.11131 12.9578 4.75538C13.6657 4.39946 14.7319 4.14174 15.9286 4.14174ZM12 7.94774C12.0825 7.99331 12.1595 8.05224 12.2459 8.09467C13.243 8.59203 14.5198 8.85603 15.9286 8.85603C17.3374 8.85603 18.6142 8.59203 19.612 8.09467C19.6977 8.05224 19.7747 7.99331 19.8572 7.94774V8.85603C19.8572 9.08388 19.6089 9.45788 18.8994 9.81381C18.1907 10.1697 17.1252 10.4275 15.9286 10.4275C14.7319 10.4275 13.6665 10.1697 12.9578 9.81381C12.2483 9.45788 12 9.0831 12 8.85603V7.94774ZM8.07144 10.4275C9.26809 10.4275 10.3335 10.6852 11.0422 11.0411C11.7517 11.397 12 11.7718 12 11.9989C12 12.2267 11.7517 12.6007 11.0422 12.9567C10.3335 13.3126 9.26809 13.5703 8.07144 13.5703C6.8748 13.5703 5.80937 13.3126 5.10066 12.9567C4.39116 12.6007 4.14287 12.226 4.14287 11.9989C4.14287 11.771 4.39116 11.397 5.10066 11.0411C5.80858 10.6852 6.8748 10.4275 8.07144 10.4275ZM19.8572 11.0906V11.9989C19.8572 12.2267 19.6089 12.6007 18.8994 12.9567C18.1907 13.3126 17.1252 13.5703 15.9286 13.5703C15.1282 13.5747 14.3323 13.4502 13.5714 13.2018V11.9989C13.5714 11.8975 13.5377 11.7993 13.5219 11.7042C14.2527 11.8944 15.0627 11.9989 15.9286 11.9989C17.3374 11.9989 18.6142 11.7349 19.612 11.2375C19.6977 11.1951 19.7747 11.1362 19.8572 11.0906ZM4.14287 14.2335C4.22537 14.279 4.30237 14.338 4.3888 14.3804C5.38587 14.8777 6.66266 15.1417 8.07144 15.1417C9.48023 15.1417 10.757 14.8777 11.7549 14.3804C11.8405 14.338 11.9175 14.279 12 14.2335V15.1417C12 15.3696 11.7517 15.7436 11.0422 16.0995C10.3335 16.4555 9.26809 16.7132 8.07144 16.7132C6.8748 16.7132 5.80937 16.4555 5.10066 16.0995C4.39116 15.7436 4.14287 15.3688 4.14287 15.1417V14.2335ZM19.8572 14.2335V15.1417C19.8572 15.3696 19.6089 15.7436 18.8994 16.0995C18.1907 16.4555 17.1252 16.7132 15.9286 16.7132C15.0352 16.7132 14.2283 16.5875 13.5714 16.369V14.8471C14.2927 15.0372 15.0784 15.1417 15.9286 15.1417C17.3374 15.1417 18.6142 14.8777 19.612 14.3804C19.6977 14.338 19.7747 14.279 19.8572 14.2335ZM4.14287 17.3763C4.22537 17.4219 4.30237 17.4808 4.3888 17.5232C5.38587 18.0206 6.66266 18.2846 8.07144 18.2846C9.48023 18.2846 10.757 18.0206 11.7549 17.5232C11.8405 17.4808 11.9175 17.4219 12 17.3763V18.2846C12 18.5125 11.7517 18.8865 11.0422 19.2424C10.3335 19.5983 9.26809 19.856 8.07144 19.856C6.8748 19.856 5.80937 19.5983 5.10066 19.2424C4.39116 18.8865 4.14287 18.5117 4.14287 18.2846V17.3763Z"
          fill="#00BEF0" />
</svg>