<?xml version="1.0" encoding="UTF-8"?>
<svg width="16px" height="16px" viewBox="0 0 16 16" version="1.1" xmlns="http://www.w3.org/2000/svg" xmlns:xlink="http://www.w3.org/1999/xlink">
    <title>Graphics / 00 Icon / Simple / Thumb Down</title>
    <g id="Graphics-/-00-Icon-/-Simple-/-Thumb-Down" stroke="none" stroke-width="1" fill="none" fill-rule="evenodd">
        <path d="M10,2 L4,2 C3.44666667,2 2.97333333,2.33333333 2.77333333,2.81333333 L0.76,7.51333333 C0.7,7.66666667 0.666666667,7.82666667 0.666666667,8 L0.666666667,9.27333333 L0.673333333,9.28 L0.666666667,9.33333333 C0.666666667,10.0666667 1.26666667,10.6666667 2,10.6666667 L6.20666667,10.6666667 L5.57333333,13.7133333 L5.55333333,13.9266667 C5.55333333,14.2 5.66666667,14.4533333 5.84666667,14.6333333 L6.55333333,15.3333333 L10.9466667,10.94 C11.1866667,10.7 11.3333333,10.3666667 11.3333333,10 L11.3333333,3.33333333 C11.3333333,2.6 10.7333333,2 10,2 Z M12.6666667,2 L12.6666667,10 L15.3333333,10 L15.3333333,2 L12.6666667,2 Z" id="Colour" fill="#6C7F84"></path>
    </g>
</svg>