<svg xmlns="http://www.w3.org/2000/svg" width="25" height="25" viewBox="0 0 25 25" fill="none">
  <path fill-rule="evenodd" clip-rule="evenodd" d="M12.9296 14.1208L8.91543 10.1067L4.57739 14.4447L3.35117 13.2185L8.30232 8.26734C8.465 8.10487 8.68552 8.01361 8.91543 8.01361C9.14535 8.01361 9.36587 8.10487 9.52854 8.26734L13.5427 12.2815L18.3897 7.43444H14.9887V5.69922H20.4836C20.7137 5.69922 20.9343 5.79063 21.097 5.95334C21.2598 6.11604 21.3512 6.33672 21.3512 6.56683V12.0617H19.6159V8.66066L14.1558 14.1208C13.9931 14.2833 13.7726 14.3745 13.5427 14.3745C13.3128 14.3745 13.0923 14.2833 12.9296 14.1208ZM5.7342 17.2692H19.0375V19.0044H5.7342V17.2692Z" fill="#556468"/>
  </svg>
