<svg xmlns="http://www.w3.org/2000/svg" width="24" height="25" viewBox="0 0 24 25" fill="none">
  <path d="M3.51434 7.32374C3.51434 7.9672 3.70515 8.59622 4.06264 9.13124C4.42013 9.66626 4.92825 10.0833 5.52274 10.3295C6.11722 10.5758 6.77138 10.6402 7.40248 10.5146C8.03358 10.3891 8.61329 10.0793 9.06829 9.62425C9.52329 9.16926 9.83314 8.58955 9.95868 7.95845C10.0842 7.32735 10.0198 6.67319 9.77354 6.0787C9.52729 5.48422 9.1103 4.9761 8.57527 4.61861C8.04025 4.26112 7.41123 4.07031 6.76777 4.07031C5.90491 4.07031 5.07738 4.41308 4.46725 5.02322C3.85711 5.63335 3.51434 6.46087 3.51434 7.32374ZM8.2466 7.32374C8.2466 7.61622 8.15986 7.90214 7.99737 8.14533C7.83487 8.38852 7.60391 8.57807 7.33369 8.69C7.06347 8.80193 6.76613 8.83121 6.47926 8.77415C6.1924 8.71709 5.9289 8.57624 5.72208 8.36943C5.51526 8.16261 5.37441 7.89911 5.31735 7.61224C5.26029 7.32538 5.28958 7.02803 5.40151 6.75781C5.51344 6.48759 5.70298 6.25663 5.94617 6.09413C6.18937 5.93164 6.47528 5.84491 6.76777 5.84491C7.15998 5.84491 7.53612 6.00071 7.81346 6.27805C8.09079 6.55538 8.2466 6.93153 8.2466 7.32374Z" fill="#556468"/>
  <path d="M20.4857 17.3784C20.4857 16.735 20.2949 16.1059 19.9374 15.5709C19.5799 15.0359 19.0718 14.6189 18.4773 14.3727C17.8828 14.1264 17.2286 14.062 16.5975 14.1875C15.9664 14.313 15.3867 14.6229 14.9317 15.0779C14.4767 15.5329 14.1669 16.1126 14.0413 16.7437C13.9158 17.3748 13.9802 18.029 14.2265 18.6235C14.4727 19.2179 14.8897 19.7261 15.4247 20.0835C15.9598 20.441 16.5888 20.6318 17.2322 20.6318C18.0951 20.6318 18.9226 20.2891 19.5328 19.6789C20.1429 19.0688 20.4857 18.2413 20.4857 17.3784ZM15.7534 17.3784C15.7534 17.0859 15.8401 16.8 16.0026 16.5568C16.1651 16.3136 16.3961 16.1241 16.6663 16.0122C16.9365 15.9002 17.2339 15.871 17.5208 15.928C17.8076 15.9851 18.0711 16.1259 18.2779 16.3327C18.4848 16.5396 18.6256 16.8031 18.6827 17.0899C18.7397 17.3768 18.7104 17.6741 18.5985 17.9443C18.4866 18.2146 18.297 18.4455 18.0538 18.608C17.8106 18.7705 17.5247 18.8573 17.2322 18.8573C16.84 18.8573 16.4639 18.7015 16.1866 18.4241C15.9092 18.1468 15.7534 17.7706 15.7534 17.3784Z" fill="#556468"/>
  <path d="M4.99315 15.3794V18.5619C4.99315 19.1894 5.24244 19.7912 5.68617 20.235C6.12991 20.6787 6.73174 20.928 7.35928 20.928H11.5V19.1534H7.35928C7.20239 19.1534 7.05193 19.0911 6.941 18.9801C6.83007 18.8692 6.76775 18.7187 6.76775 18.5619V15.3794L8.50685 17.1185L9.7609 15.8645L6.50747 12.6111C6.3411 12.4449 6.11558 12.3516 5.88045 12.3516C5.64531 12.3516 5.41979 12.4449 5.25342 12.6111L2 15.8645L3.25405 17.1185L4.99315 15.3794Z" fill="#556468"/>
  <path d="M19.0068 9.322V6.13956C19.0068 5.51203 18.7576 4.91019 18.3138 4.46646C17.8701 4.02273 17.2683 3.77344 16.6407 3.77344H12.5V5.54803H16.6407C16.7976 5.54803 16.9481 5.61035 17.059 5.72129C17.1699 5.83222 17.2323 5.98268 17.2323 6.13956V9.322L15.4931 7.5829L14.2391 8.83695L17.4925 12.0904C17.6589 12.2565 17.8844 12.3499 18.1196 12.3499C18.3547 12.3499 18.5802 12.2565 18.7466 12.0904L22 8.83695L20.746 7.5829L19.0068 9.322Z" fill="#556468"/>
  </svg>
