<?xml version="1.0" encoding="UTF-8"?>
<svg width="16px" height="16px" viewBox="0 0 16 16" version="1.1" xmlns="http://www.w3.org/2000/svg" xmlns:xlink="http://www.w3.org/1999/xlink">
    <title>03 Graphics / 00 Icon / Simple / Wallet</title>
    <g id="03-Graphics-/-00-Icon-/-Simple-/-Wallet" stroke="none" stroke-width="1" fill="none" fill-rule="evenodd">
        <path d="M14,12 L14,12.6666667 C14,13.4 13.4,14 12.6666667,14 L3.33333333,14 C2.59333333,14 2,13.4 2,12.6666667 L2,3.33333333 C2,2.6 2.59333333,2 3.33333333,2 L12.6666667,2 C13.4,2 14,2.6 14,3.33333333 L14,4 L8,4 C7.26,4 6.66666667,4.6 6.66666667,5.33333333 L6.66666667,10.6666667 C6.66666667,11.4 7.26,12 8,12 L14,12 Z M8,10.6666667 L14.6666667,10.6666667 L14.6666667,5.33333333 L8,5.33333333 L8,10.6666667 Z M10.6666667,9 C10.1133333,9 9.66666667,8.55333333 9.66666667,8 C9.66666667,7.44666667 10.1133333,7 10.6666667,7 C11.22,7 11.6666667,7.44666667 11.6666667,8 C11.6666667,8.55333333 11.22,9 10.6666667,9 Z" id="Wallet-Colour" fill="#6C7F84"></path>
    </g>
</svg>