<?xml version="1.0" encoding="UTF-8"?>
<svg width="16" height="16" viewBox="0 0 16 16" fill="none" xmlns="http://www.w3.org/2000/svg">
  <path d="M13.3333 4.66667L12.7 3.3L11.3333 2.66667L12.7 2.03334L13.3333 0.666672L13.9667 2.03334L15.3333 2.66667L13.9667 3.3L13.3333 4.66667ZM5.66666 4.66667L5.03333 3.3L3.66666 2.66667L5.03333 2.03334L5.66666 0.666672L6.29999 2.03334L7.66666 2.66667L6.29999 3.3L5.66666 4.66667ZM13.3333 12.3333L12.7 10.9667L11.3333 10.3333L12.7 9.70001L13.3333 8.33334L13.9667 9.70001L15.3333 10.3333L13.9667 10.9667L13.3333 12.3333ZM3.39999 14.4667L1.53333 12.6C1.39999 12.4667 1.33333 12.3056 1.33333 12.1167C1.33333 11.9278 1.39999 11.7667 1.53333 11.6333L8.96666 4.20001C9.1 4.06667 9.26111 4.00001 9.45 4.00001C9.63888 4.00001 9.79999 4.06667 9.93333 4.20001L11.8 6.06667C11.9333 6.20001 12 6.36112 12 6.55C12 6.73889 11.9333 6.90001 11.8 7.03334L4.36666 14.4667C4.23333 14.6 4.07222 14.6667 3.88333 14.6667C3.69444 14.6667 3.53333 14.6 3.39999 14.4667ZM3.89999 13.0667L8.66666 8.26667L7.73333 7.33334L2.93333 12.1L3.89999 13.0667Z" fill="#6C7F84"/>
</svg>
