<?xml version="1.0" encoding="UTF-8"?>
<svg width="48px" height="48px" viewBox="0 0 48 48" version="1.1" xmlns="http://www.w3.org/2000/svg" xmlns:xlink="http://www.w3.org/1999/xlink">
    <!-- Generator: Sketch 64 (93537) - https://sketch.com -->
    <title>Graphics / 01 Flags/ANG</title>
    <desc>Created with Sketch.</desc>
    <defs>
        <rect id="path-1" x="0" y="0" width="48" height="48"></rect>
    </defs>
    <g id="Graphics-/-01-Flags/ANG" stroke="none" stroke-width="1" fill="none" fill-rule="evenodd">
        <g id="Flag">
            <mask id="mask-2" fill="white">
                <use xlink:href="#path-1"></use>
            </mask>
            <g id="Mask" fill-rule="nonzero"></g>
            <g id="iStock-478394321" mask="url(#mask-2)">
                <g transform="translate(0.000000, -0.500000)">
                    <polygon id="Fill-1" fill="#FFFFFE" points="2.22222119e-05 0.5 48 0.500033333 48 48.5 0 48.5"></polygon>
                    <polygon id="Fill-2" fill="#C52533" points="16 48.5 32 48.5 32 0.5 16 0.5"></polygon>
                    <polyline id="Fill-3" fill="#2B3068" points="0 33.5 0 16.5 48 16.5000353 48 33.5 0 33.5"></polyline>
                    <path d="M20.1683706,30.0208499 L19.6877683,28.4886496 L19.2071993,30.0208499 L17.651988,30.0208499 L18.9101793,30.9678341 L18.4295771,32.5 L19.6877683,31.5530502 L20.9459596,32.5 L20.4653905,30.9678341 L21.7235818,30.0208499 L20.1683706,30.0208499 Z M13.5163494,24.572317 L13.0357803,23.0401167 L12.5551781,24.572317 L11,24.572317 L12.2581581,25.5192668 L11.777589,27.0514671 L13.0357803,26.1044829 L14.2939384,27.0514671 L13.8133693,25.5192668 L15.0715606,24.572317 L13.5163494,24.572317 Z M19.6877683,17.5 L19.2071993,19.0322003 L17.651988,19.0322003 L18.9101793,19.9791501 L18.4295771,21.5113161 L19.6877683,20.5643662 L20.9459596,21.5113161 L20.4653905,19.9791501 L21.7235818,19.0322003 L20.1683706,19.0322003 L19.6877683,17.5 Z M36,24.572317 L34.4447888,24.572317 L33.9642197,23.0401167 L33.4836175,24.572317 L31.9284062,24.572317 L33.1865975,25.5192668 L32.7060284,27.0514671 L33.9642197,26.1044829 L35.222411,27.0514671 L34.7417756,25.5192668 L36,24.572317 Z M27.7928007,30.0208499 L27.3121985,28.4886496 L26.8315963,30.0208499 L25.2764182,30.0208499 L26.5345763,30.9678341 L26.0540073,32.5 L27.3121985,31.5530502 L28.5704229,32.5 L28.0897876,30.9678341 L29.348012,30.0208499 L27.7928007,30.0208499 Z M27.3121985,17.5 L26.8315963,19.0322003 L25.2764182,19.0322003 L26.5345763,19.9791501 L26.0540073,21.5113161 L27.3121985,20.5643662 L28.5704229,21.5113161 L28.0897876,19.9791501 L29.348012,19.0322003 L27.7928007,19.0322003 L27.3121985,17.5 L27.3121985,17.5 Z" id="Fill-4" fill="#FFFFFE"></path>
                </g>
            </g>
        </g>
        <rect id="Rectangle" stroke="#DDE2E3" stroke-width="3" opacity="0" fill-rule="nonzero" x="1.5" y="1.5" width="45" height="45"></rect>
    </g>
</svg>