<?xml version="1.0" encoding="UTF-8"?>
<svg width="48px" height="48px" viewBox="0 0 48 48" version="1.1" xmlns="http://www.w3.org/2000/svg" xmlns:xlink="http://www.w3.org/1999/xlink">
    <!-- Generator: Sketch 64 (93537) - https://sketch.com -->
    <title>Graphics / 01 Flags/AUD</title>
    <desc>Created with Sketch.</desc>
    <defs>
        <rect id="path-1" x="0" y="0" width="48" height="48"></rect>
    </defs>
    <g id="Graphics-/-01-Flags/AUD" stroke="none" stroke-width="1" fill="none" fill-rule="evenodd">
        <g id="Flag">
            <mask id="mask-2" fill="white">
                <use xlink:href="#path-1"></use>
            </mask>
            <use id="Mask" fill="#00319F" fill-rule="nonzero" xlink:href="#path-1"></use>
            <polyline id="Fill-766" fill="#FFFFFF" mask="url(#mask-2)" points="40.0409953 29.4329453 40.5315312 31.0592524 42.0324874 30.454468 41.143653 31.8775426 42.5230233 32.7498793 40.925637 32.8981721 41.1478456 34.5905856 40.0409953 33.3519837 38.9383376 34.5905856 39.1563536 32.8981721 37.5589673 32.7498793 38.9383376 31.8775426 38.0495032 30.454468 39.5504594 31.0592524 40.0409953 29.4329453"></polyline>
            <polyline id="Fill-767" fill="#FFFFFF" mask="url(#mask-2)" points="31.1274961 14.3973092 31.618032 16.0245097 33.1189881 15.418832 32.2301538 16.8427999 33.6095241 17.7142432 32.0121378 17.862536 32.2343464 19.5549496 31.1274961 18.317241 30.0248384 19.5549496 30.2428543 17.862536 28.6454681 17.7142432 30.0248384 16.8427999 29.136004 15.418832 30.6369601 16.0245097 31.1274961 14.3973092"></polyline>
            <polyline id="Fill-768" fill="#FFFFFF" mask="url(#mask-2)" points="40.0409953 4.11016841 40.5315312 5.73736888 42.0324874 5.13169119 41.143653 6.5556591 42.5230233 7.42710244 40.925637 7.57539521 41.1478456 9.26780876 40.0409953 8.02876015 38.9383376 9.26780876 39.1563536 7.57539521 37.5589673 7.42710244 38.9383376 6.5556591 38.0495032 5.13169119 39.5504594 5.73736888 40.0409953 4.11016841"></polyline>
            <polyline id="Fill-769" fill="#FFFFFF" mask="url(#mask-2)" points="46.0450374 11.8647189 46.5355733 13.4919193 48.0365295 12.8862416 47.1476951 14.3102096 48.5270654 15.1825462 46.9296791 15.3299457 47.1518877 17.0223592 46.0450374 15.7846506 44.9381871 17.0223592 45.1603957 15.3299457 43.5630094 15.1825462 44.9423797 14.3102096 44.0535453 12.8862416 45.5545015 13.4919193 46.0450374 11.8647189"></polyline>
            <polyline id="Fill-770" fill="#FFFFFF" mask="url(#mask-2)" points="41.6889106 19.4843765 42.0746311 20.4978593 43.1018218 20.578259 42.3136102 21.284883 42.5609744 22.3474989 41.6889106 21.7708545 40.812654 22.3474989 41.0600183 21.284883 40.2759993 20.578259 41.2989974 20.4978593 41.6889106 19.4843765"></polyline>
            <polyline id="Fill-771" fill="#FFFFFF" mask="url(#mask-2)" points="11.1069984 28.3131562 12.1383817 31.7292499 15.2870355 30.4580414 13.4255145 33.4471233 16.3226113 35.278003 12.9643268 35.5897751 13.4255145 39.1438883 11.1069984 36.5429582 8.78848241 39.1438883 9.24967005 35.5897751 5.89138553 35.278003 8.78848241 33.4471233 6.92276879 30.4580414 10.0756152 31.7292499 11.1069984 28.3131562"></polyline>
            <polyline id="Fill-543" fill="#F0F0F0" mask="url(#mask-2)" points="26.8888889 16.7801871 16.0180597 9.5742992 26.8888889 2.36874904 26.8888889 8.8817842e-15 23.3151038 8.8817842e-15 12.4442746 7.20555016 1.57344539 8.8817842e-15 -2 8.8817842e-15 -2 2.36874904 8.8708292 9.5742992 -2 16.7801871 -2 19.1489362 1.57344539 19.1489362 12.4442746 11.943386 23.3151038 19.1489362 26.8888889 19.1489362 26.8888889 16.7801871"></polyline>
            <polyline id="Fill-544" fill="#FF1612" mask="url(#mask-2)" points="26.8888889 18.2606131 13.784444 9.5742992 26.8888889 0.887985345 26.8888889 8.8817842e-15 25.5490592 8.8817842e-15 12.4442746 8.68597609 -0.659830588 8.8817842e-15 -2 8.8817842e-15 -2 0.887985345 11.1044449 9.5742992 -2 18.2606131 -2 19.1489362 -0.659830588 19.1489362 12.4442746 10.4626223 25.5490592 19.1489362 26.8888889 19.1489362 26.8888889 18.2606131"></polyline>
            <polyline id="Fill-545" fill="#F0F0F0" mask="url(#mask-2)" points="10.0581276 8.8817842e-15 14.8307613 8.8817842e-15 14.8307613 6.41112584 26.8888889 6.41112584 26.8888889 12.7378103 14.8307613 12.7378103 14.8307613 19.1489362 10.0581276 19.1489362 10.0581276 12.7378103 -2 12.7378103 -2 6.41112584 10.0581276 6.41112584 10.0581276 8.8817842e-15"></polyline>
            <polyline id="Fill-546" fill="#FF1612" mask="url(#mask-2)" points="13.9339179 8.8817842e-15 13.9339179 7.59972243 26.8888889 7.59972243 26.8888889 11.5492137 13.9339179 11.5492137 13.9339179 19.1489362 10.954971 19.1489362 10.954971 11.5492137 -2 11.5492137 -2 7.59972243 10.954971 7.59972243 10.954971 8.8817842e-15 13.9339179 8.8817842e-15"></polyline>
        </g>
        <rect id="Rectangle" stroke="#DDE2E3" stroke-width="3" opacity="0" fill-rule="nonzero" x="1.5" y="1.5" width="45" height="45"></rect>
    </g>
</svg>