<?xml version="1.0" encoding="UTF-8"?>
<svg width="48px" height="48px" viewBox="0 0 48 48" version="1.1" xmlns="http://www.w3.org/2000/svg" xmlns:xlink="http://www.w3.org/1999/xlink">
    <!-- Generator: Sketch 64 (93537) - https://sketch.com -->
    <title>Graphics / 01 Flags/BBD</title>
    <desc>Created with Sketch.</desc>
    <defs>
        <rect id="path-1" x="0" y="0" width="48" height="48"></rect>
    </defs>
    <g id="Graphics-/-01-Flags/BBD" stroke="none" stroke-width="1" fill="none" fill-rule="evenodd">
        <g id="Flag">
            <mask id="mask-2" fill="white">
                <use xlink:href="#path-1"></use>
            </mask>
            <g id="Mask" fill-rule="nonzero"></g>
            <g id="iStock-538467354" mask="url(#mask-2)">
                <g id="Group-5">
                    <polygon id="Fill-1" fill="#002488" points="0 48 16 48 16 0 0 0"></polygon>
                    <polygon id="Fill-3" fill="#FFC721" points="16 48 32 48 32 0 16 0"></polygon>
                    <polygon id="Fill-4" fill="#002488" points="32 48 48 48 48 0 32 0"></polygon>
                </g>
                <path d="M24,30.9018036 L24.7172414,31 L24.7172414,27.1924489 C25.6048828,27.2598397 26.2117793,27.3711102 27.2,27.5911824 C27.5201931,24.0215471 28.2574621,22.0968697 30,19.2304609 C28.4709793,19.495002 27.6066759,20.0113747 26.8321931,20.8904569 C27.1324414,20.7909419 27.3574621,20.7466693 27.5494345,20.7782325 C26.7114483,22.750521 26.4346759,24.0547375 26.2689655,26.1743487 C25.739669,26.0183848 25.3011034,25.9291663 24.7172414,25.8929459 L24.7172414,20.8156313 L25.8896552,20.8156313 C24.9599724,19.8693547 24.2815448,18.3475912 24,17 C23.7184552,18.3475912 23.0400276,19.8693547 22.1103448,20.8156313 L23.2827586,20.8156313 L23.2827586,25.8929459 C22.6988966,25.9291663 22.260331,26.0183848 21.7310345,26.1743487 C21.5653241,24.0547375 21.2885517,22.750521 20.4505655,20.7782325 C20.6425379,20.7466693 20.8675586,20.7909419 21.1678069,20.8904569 C20.3933241,20.0113747 19.5290207,19.495002 18,19.2304609 C19.7425379,22.0968697 20.4798069,24.0215471 20.8,27.5911824 C21.7882207,27.3711102 22.3951172,27.2598397 23.2827586,27.1924489 L23.2827586,31 L24,30.9018036" id="Fill-6" fill="#040204"></path>
            </g>
        </g>
        <rect id="Rectangle" stroke="#DDE2E3" stroke-width="3" opacity="0" fill-rule="nonzero" x="1.5" y="1.5" width="45" height="45"></rect>
    </g>
</svg>