<?xml version="1.0" encoding="UTF-8"?>
<svg width="48px" height="48px" viewBox="0 0 48 48" version="1.1" xmlns="http://www.w3.org/2000/svg" xmlns:xlink="http://www.w3.org/1999/xlink">
    <!-- Generator: Sketch 64 (93537) - https://sketch.com -->
    <title>Graphics / 01 Flags/BHD</title>
    <desc>Created with Sketch.</desc>
    <defs>
        <rect id="path-1" x="0" y="0" width="48" height="48" rx="5"></rect>
    </defs>
    <g id="Graphics-/-01-Flags/BHD" stroke="none" stroke-width="1" fill="none" fill-rule="evenodd">
        <g id="Flag">
            <mask id="mask-2" fill="white">
                <use xlink:href="#path-1"></use>
            </mask>
            <g id="Mask" fill-rule="nonzero"></g>
            <g id="iStock-537287135" mask="url(#mask-2)">
                <polyline id="Fill-1" fill="#CA2121" points="10 0 17.6001682 4.79898749 10 9.59930286 17.6001682 14.3996182 10 19.1997676 17.6001682 24.000083 10 28.7989045 17.6001682 33.6003818 10 38.3995352 17.6001682 43.1996846 10 48 48 48 48 0 10 0"></polyline>
                <polyline id="Fill-3" fill="#FFFFFF" points="21 4.79898749 13.1249728 0 0 0 0 48 13.1249728 48 21 43.1996846 13.1249728 38.3995352 21 33.6003818 13.1249728 28.7989045 21 24.000083 13.1249728 19.1997676 21 14.3996182 13.1249728 9.59930286 21 4.79898749"></polyline>
            </g>
        </g>
        <rect id="Rectangle" stroke="#DDE2E3" stroke-width="3" opacity="0" fill-rule="nonzero" x="1.5" y="1.5" width="45" height="45" rx="5"></rect>
    </g>
</svg>