<svg width="48" height="48" viewBox="0 0 48 48" fill="none" xmlns="http://www.w3.org/2000/svg">
    <rect width="48" height="48" rx="5" fill="#009C37"/>
    <path d="M23.529 11.6036L4.43495 23.226C3.85502 23.5789 3.85502 24.4207 4.43495 24.7737L23.529 36.3963C23.8183 36.5724 24.1816 36.5724 24.471 36.3963L43.565 24.7738C44.145 24.4209 44.145 23.5791 43.565 23.2261L24.471 11.6036C24.1817 11.4276 23.8183 11.4276 23.529 11.6036Z" fill="#FEE000"/>
    <path d="M24 31.2473C28.0026 31.2473 31.2474 28.0025 31.2474 23.9999C31.2474 19.9973 28.0026 16.7525 24 16.7525C19.9974 16.7525 16.7526 19.9973 16.7526 23.9999C16.7526 28.0025 19.9974 31.2473 24 31.2473Z" fill="#002277"/>
    <path d="M17.7809 20.2924C17.439 20.8648 17.1749 21.4869 17.0005 22.1475C21.0181 21.8452 26.9614 22.9691 30.7442 26.6397C30.9911 26.0095 31.1542 25.3381 31.2153 24.6363C27.3093 21.3489 21.9093 20.1799 17.7809 20.2924Z" fill="#F5F5F5"/>
    <path d="M24.3002 26.4732L24.4931 27.0518L25.103 27.0565C25.1819 27.0571 25.2147 27.1579 25.1512 27.2048L24.6605 27.5672L24.8445 28.1487C24.8683 28.224 24.7825 28.2863 24.7184 28.2403L24.2222 27.8856L23.726 28.2403C23.6618 28.2862 23.5761 28.224 23.5999 28.1487L23.7839 27.5672L23.2932 27.2048C23.2297 27.1579 23.2624 27.0571 23.3414 27.0565L23.9513 27.0518L24.1442 26.4732C24.1692 26.3982 24.2751 26.3982 24.3002 26.4732Z" fill="#F5F5F5"/>
    <path d="M26.6707 27.9699L26.7537 28.2188L27.0162 28.2209C27.0502 28.2211 27.0643 28.2645 27.037 28.2847L26.8258 28.4406L26.9049 28.6909C26.9151 28.7233 26.8783 28.7501 26.8505 28.7303L26.6369 28.5777L26.4234 28.7303C26.3958 28.7501 26.3588 28.7233 26.3691 28.6909L26.4482 28.4406L26.237 28.2847C26.2096 28.2646 26.2238 28.2212 26.2577 28.2209L26.5203 28.2188L26.6033 27.9699C26.6143 27.9375 26.6599 27.9375 26.6707 27.9699Z" fill="#F5F5F5"/>
    <path d="M23.2753 25.3739L23.3583 25.6229L23.6208 25.625C23.6548 25.6252 23.6689 25.6686 23.6415 25.6888L23.4303 25.8447L23.5095 26.095C23.5196 26.1274 23.4829 26.1542 23.4552 26.1344L23.2416 25.9818L23.0281 26.1344C23.0004 26.1542 22.9635 26.1274 22.9737 26.095L23.0528 25.8447L22.8416 25.6888C22.8143 25.6687 22.8283 25.6253 22.8623 25.625L23.1248 25.6229L23.2079 25.3739C23.2188 25.3419 23.2645 25.3419 23.2753 25.3739Z" fill="#F5F5F5"/>
    <path d="M18.6768 25.072L18.7599 25.321L19.0224 25.323C19.0563 25.3232 19.0705 25.3666 19.0431 25.3869L18.8319 25.5427L18.911 25.793C18.9212 25.8255 18.8845 25.8523 18.8566 25.8325L18.6431 25.6798L18.4295 25.8325C18.4019 25.8522 18.365 25.8255 18.3752 25.793L18.4544 25.5427L18.2431 25.3869C18.2157 25.3667 18.2299 25.3233 18.2639 25.323L18.5264 25.321L18.6094 25.072C18.6205 25.0399 18.6661 25.0399 18.6768 25.072Z" fill="#F5F5F5"/>
    <path d="M22.5236 27.884L22.6067 28.1329L22.8692 28.135C22.9031 28.1352 22.9173 28.1786 22.8899 28.1988L22.6787 28.3547L22.7578 28.605C22.768 28.6374 22.7312 28.6642 22.7035 28.6444L22.49 28.4918L22.2764 28.6444C22.2488 28.6642 22.2119 28.6374 22.222 28.605L22.3011 28.3547L22.0899 28.1988C22.0626 28.1787 22.0767 28.1353 22.1107 28.135L22.3732 28.1329L22.4562 27.884C22.4673 27.8517 22.513 27.8517 22.5236 27.884Z" fill="#F5F5F5"/>
    <path d="M20.4071 24.8983L20.475 25.1019L20.6897 25.1037C20.7174 25.1039 20.729 25.1394 20.7068 25.1559L20.534 25.2834L20.5988 25.488C20.6072 25.5145 20.577 25.5364 20.5544 25.5202L20.3797 25.3954L20.205 25.5202C20.1823 25.5364 20.1523 25.5145 20.1606 25.488L20.2253 25.2834L20.0526 25.1559C20.0304 25.1394 20.0417 25.1039 20.0697 25.1037L20.2844 25.1019L20.3523 24.8983C20.361 24.872 20.3983 24.872 20.4071 24.8983Z" fill="#F5F5F5"/>
    <path d="M26.8549 20.6949L26.9399 20.9496L27.2084 20.9516C27.2432 20.9518 27.2575 20.9963 27.2295 21.017L27.0136 21.1765L27.0946 21.4325C27.1051 21.4657 27.0673 21.4931 27.0391 21.4729L26.8206 21.3167L26.6021 21.4729C26.5737 21.4932 26.5361 21.4656 26.5466 21.4325L26.6275 21.1765L26.4116 21.017C26.3836 20.9964 26.3981 20.952 26.4327 20.9516L26.7012 20.9496L26.7862 20.6949C26.7973 20.6616 26.844 20.6616 26.8549 20.6949Z" fill="#F5F5F5"/>
    <path d="M18.9726 23.6526L19.0405 23.8562L19.2552 23.8579C19.2829 23.8582 19.2945 23.8937 19.2723 23.9102L19.0995 24.0376L19.1643 24.2423C19.1727 24.2688 19.1425 24.2907 19.1199 24.2745L18.9452 24.1497L18.7705 24.2745C18.7479 24.2907 18.7178 24.2688 18.7261 24.2423L18.7909 24.0376L18.6181 23.9102C18.5958 23.8937 18.6073 23.8583 18.6352 23.8579L18.8499 23.8562L18.9178 23.6526C18.9265 23.6262 18.9638 23.6262 18.9726 23.6526Z" fill="#F5F5F5"/>
    <path d="M20.0091 26.5226L20.112 26.831L20.4371 26.8335C20.4791 26.8338 20.4966 26.8875 20.4627 26.9125L20.2011 27.1056L20.2992 27.4156C20.312 27.4557 20.2663 27.4889 20.232 27.4644L19.9675 27.2753L19.7029 27.4644C19.6687 27.4888 19.6229 27.4557 19.6357 27.4156L19.7338 27.1056L19.4722 26.9125C19.4383 26.8875 19.4558 26.8338 19.4978 26.8335L19.823 26.831L19.9258 26.5226C19.9394 26.4826 19.9959 26.4826 20.0091 26.5226Z" fill="#F5F5F5"/>
    <path d="M27.9924 28.0345L28.0572 28.2285L28.2617 28.2301C28.2882 28.2303 28.2992 28.2641 28.2779 28.2798L28.1134 28.4013L28.1751 28.5963C28.183 28.6215 28.1544 28.6423 28.1327 28.6269L27.9664 28.508L27.7999 28.6269C27.7784 28.6423 27.7496 28.6215 27.7575 28.5963L27.8192 28.4013L27.6547 28.2798C27.6334 28.2641 27.6444 28.2303 27.6709 28.2301L27.8754 28.2285L27.9401 28.0345C27.9485 28.0093 27.9841 28.0093 27.9924 28.0345Z" fill="#F5F5F5"/>
    <path d="M28.7081 26.5536L28.7912 26.8026L29.0537 26.8046C29.0876 26.8048 29.1018 26.8482 29.0744 26.8685L28.8632 27.0243L28.9423 27.2746C28.9525 27.3071 28.9157 27.3339 28.888 27.3141L28.6745 27.1615L28.4609 27.3141C28.4333 27.3339 28.3964 27.3071 28.4066 27.2746L28.4857 27.0243L28.2745 26.8685C28.2472 26.8483 28.2613 26.8049 28.2953 26.8046L28.5578 26.8026L28.6408 26.5536C28.6517 26.5213 28.6974 26.5213 28.7081 26.5536Z" fill="#F5F5F5"/>
</svg>
