<?xml version="1.0" encoding="UTF-8"?>
<svg width="48px" height="48px" viewBox="0 0 48 48" version="1.1" xmlns="http://www.w3.org/2000/svg" xmlns:xlink="http://www.w3.org/1999/xlink">
    <!-- Generator: Sketch 64 (93537) - https://sketch.com -->
    <title>Graphics / 01 Flags/BZD</title>
    <desc>Created with Sketch.</desc>
    <defs>
        <rect id="path-1" x="0" y="0" width="48" height="48" rx="5"></rect>
        <radialGradient cx="29.0443385%" cy="283.01455%" fx="29.0443385%" fy="283.01455%" r="447.137286%" gradientTransform="translate(0.290443,2.830146),scale(0.352148,1.000000),translate(-0.290443,-2.830146)" id="radialGradient-3">
            <stop stop-color="#FCDF58" offset="0%"></stop>
            <stop stop-color="#F37320" offset="100%"></stop>
        </radialGradient>
    </defs>
    <g id="Graphics-/-01-Flags/BZD" stroke="none" stroke-width="1" fill="none" fill-rule="evenodd">
        <g id="Flag">
            <mask id="mask-2" fill="white">
                <use xlink:href="#path-1"></use>
            </mask>
            <g id="Mask" fill-rule="nonzero"></g>
            <g id="Group-5" mask="url(#mask-2)">
                <g transform="translate(0.000000, -1.000000)">
                    <polygon id="Clip-3" fill="#1C1B41" points="0 6.9916 48 6.9916 48 42.9916 0 42.9916"></polygon>
                    <polyline id="Fill-2" fill="#CA2121" points="0.0634670926 6.9155 47.9995733 6.9155 47.9995733 0.9155 -0.000426666666 0.9155 -0.000426666666 6.9155 0.0634670926 6.9155"></polyline>
                    <polygon id="Fill-4" fill="#CA2121" points="-0.000426666666 48.91566 47.9995733 48.91566 47.9995733 42.91566 -0.000426666666 42.91566"></polygon>
                </g>
            </g>
            <g id="Group" mask="url(#mask-2)">
                <g transform="translate(7.000000, 7.000000)">
                    <path d="M34,16.5005525 C34,7.41274923 26.3630633,0 16.9997154,0 C7.63693665,0 0,7.41274923 0,16.5005525 C0,25.5872508 7.63693665,33 16.9997154,33 C26.3630633,33 34,25.5872508 34,16.5005525 Z" id="Fill-6" fill="#FFFFFF"></path>
                    <path d="M17,29.6378063 C16.1123658,29.0475564 14.8901374,30.0360203 14.4193692,30.4250046 C14.451577,30.4272376 14.4817823,30.4272376 14.5128219,30.4250046 C14.4587529,30.4352763 14.4050175,30.4387002 14.3502809,30.4328944 C15.0526784,30.4985439 15.144963,31.8966843 16.612338,31.6861892 C15.3378762,32.1372502 14.926851,32.38124 14,30.4007396 C14.1426823,29.6470359 15.8543695,28.1418616 17,29.6378063 Z M19.863962,29.386898 C19.1557335,29.0176522 18.5278125,30.2273717 18.2883902,30.7007976 C18.3097363,30.6962553 18.3298131,30.6895151 18.3503515,30.6804304 C18.3165439,30.7029955 18.2807748,30.7177946 18.2433903,30.7245348 C18.7259272,30.6339817 19.0571954,31.9455369 20,31.4246365 C19.2333871,32.1347021 19.0045802,32.4553012 18.0020065,30.7698114 C17.9529682,30.0200373 18.8092346,28.2111725 19.863962,29.386898 Z M23.079962,28.120791 L23.2441066,28.1890632 C22.1635539,28.0527264 21.633968,29.4392379 21.4349621,29.9804314 C21.4635795,29.9690082 21.4903877,29.9563981 21.5150579,29.9414144 C21.4749277,29.9736071 21.4298636,29.9986789 21.3803588,30.0184099 C22.020467,29.7739233 22.8449435,30.9564489 24,30.1433235 C23.1404919,31.0837361 22.9135265,31.4724222 21.0606337,30.1399114 C20.7902539,29.443313 21.4172597,27.4993866 23.079962,28.120791 Z M14,28.9456107 C13.3316029,28.1469662 11.9272143,28.8594672 11.3854964,29.142952 C11.4134332,29.1536233 11.4420123,29.1607375 11.4710731,29.1655318 C11.4188922,29.163212 11.3681563,29.1536233 11.3177415,29.1369204 C11.954509,29.3628731 11.6659888,30.7915869 13.0890019,30.9170131 C11.7807867,31.0795567 11.3321916,31.2291092 11,29.0232481 C11.3352422,28.297756 13.334814,27.1774266 14,28.9456107 Z M11,28.2793287 C10.5569652,27.3297271 9.00658522,27.6897798 8.40609501,27.8366951 C8.43107514,27.8538405 8.45782806,27.8672107 8.48458098,27.8793226 C8.43429839,27.8648513 8.38627206,27.8428297 8.34259712,27.8137298 C8.90247447,28.19313 8.25170166,29.5293675 9.60336871,30 C8.28973593,29.8393998 7.8149522,29.8784095 8.06346425,27.6240297 C8.57741039,26.9916959 10.8111179,26.3739908 11,28.2793287 Z M25.7636747,26.0489353 C24.7086302,26.1642288 24.5812697,27.6793391 24.5391895,28.2687194 L24.5733496,28.2404533 L24.5733496,28.2404533 L24.601,28.213 L24.5555696,28.2686041 C24.5377895,28.2865899 24.5184694,28.3032306 24.4977493,28.31868 C25.0358316,27.9252985 26.1291163,28.918821 27,27.8349084 C26.4415976,28.9793885 26.3326372,29.4215007 24.2287882,28.5146789 C23.7735862,27.857506 23.8620666,25.6447932 25.7636747,26.0489353 Z M7.97389062,26.6559577 C7.7935919,25.6160046 6.25747795,25.5878246 5.6609379,25.5852773 C5.67958949,25.6074073 5.70057253,25.6271492 5.72279901,25.6456175 C5.67896777,25.6185519 5.63995486,25.5865509 5.60700371,25.5459526 C6.03583488,26.0566951 5.10045758,27.206184 6.247375,28 C5.05895779,27.5199849 4.60541327,27.4413357 5.39235498,25.2924919 C6.02728623,24.7976704 8.26578802,24.7422657 7.97389062,26.6559577 Z M28.3663661,24 C27.3896515,24.3772824 27.6546248,25.9356923 27.7642688,26.5404962 C27.7830155,26.5169761 27.7982963,26.4921759 27.8116868,26.4662557 C27.7940429,26.515696 27.769625,26.5601763 27.7373304,26.6022566 C28.1322765,26.0947612 29.3361012,26.7403825 29.9238105,25.6523539 L30,25.493 L29.9766843,25.6193633 C29.7575574,26.8147908 29.6939943,27.2447514 27.5309601,26.8668983 C26.9301231,26.3177748 26.4502727,24.0656004 28.3663661,24 Z M5.91142435,23.9501337 L5.852,24.116 L5.85297426,23.9674842 C5.7936313,22.9976541 4.47628274,22.6015994 3.94723738,22.4502768 C3.96038526,22.4778458 3.97547543,22.503131 3.99220909,22.5271111 C3.95814414,22.4892649 3.92811321,22.4463617 3.90674791,22.3985646 C4.1879331,23.0163382 3.04750454,23.9130643 3.93095195,25 C2.93604644,24.2143655 2.53354224,24.0176307 3.76645413,22.0895962 C4.45164694,21.7755861 6.44098479,22.261644 5.91142435,23.9501337 Z M13.1907034,21 C13.6890236,22.2664247 14.739742,23.642751 16.8936787,24.3929843 C18.9166522,23.6844997 19.9590509,22.4267842 20.5016949,21.2276827 C20.7030885,21.4275791 20.9043388,21.6273371 21.1061628,21.8272335 C21.1061628,21.8272335 21.5785198,21.6925868 21.6660199,21.6424054 C21.7625569,21.5995507 22.7777014,21.9885606 22.7777014,21.9885606 C22.7777014,21.9885606 22.9617385,22.054778 23.0582755,22.1232072 C23.1546691,22.1895628 23.0848124,21.8272335 23.0848124,21.8272335 C23.0848124,21.8272335 23.6009195,21.9202696 23.5571695,22.1895628 C23.5571695,22.1895628 23.6703458,21.9372732 23.7673132,21.8945568 C24.3317605,22.7003629 24.9543022,22.2727838 25.4577863,22.528253 C25.4577863,22.528253 25.5797127,22.6628996 25.5797127,22.7557975 C25.5797127,22.7557975 25.8163932,22.7302229 26,22.7302229 C26,22.7302229 25.8602867,22.7975462 25.8602867,22.9418697 C25.8602867,23.0763781 25.7902867,23.1865561 25.6501431,23.2537411 C25.509856,23.3210645 25.6501431,23.3713841 25.8336064,23.388526 C26.0266804,23.4141006 25.8336064,23.6417833 25.4577863,23.7764299 L25.4464633,23.8091909 C25.429035,23.8694228 25.408944,23.9961984 25.5270692,24.0466909 C25.5270692,24.0466909 25.2033188,24.0712977 25.1506753,23.9793675 C25.1506753,23.9793675 25.037499,24.1899084 25.037499,24.3000864 C25.037499,24.3000864 24.6870683,24.1899084 24.5906747,24.139727 C24.5906747,24.139727 24.4802238,24.1856229 24.5057566,24.3620183 C24.5057566,24.3620183 23.9070264,24.2743736 23.7849566,24.0466909 C23.7849566,24.0466909 23.5577433,24.1140142 23.6009195,24.1899084 C23.6009195,24.1899084 23.1540953,23.8949024 23.014382,23.8949024 C22.9828246,23.945222 22.9506934,23.9965094 22.9179885,24.0466909 C22.9179885,24.0466909 22.6118816,23.8693278 22.515488,23.8693278 C22.4278445,23.8693278 22.4977011,24.0050804 22.4977011,24.0050804 C22.3552625,23.9195092 22.21225,23.83615 22.0685204,23.7507171 C22.0137252,23.83615 21.9577825,23.9195092 21.9028439,24.0050804 C21.9028439,24.0050804 21.5524132,23.8437532 21.4560197,23.7764299 C21.3689499,23.7089684 21.3422696,23.9121825 21.2724129,23.9366511 C21.2724129,23.9366511 21.1321259,23.7507171 20.9391954,23.7764299 C20.9391954,23.7764299 20.8694822,24.0050804 20.8960191,24.0712977 C20.8960191,24.0712977 20.3526578,23.9623639 20.2572684,23.9366511 C20.1601576,23.9121825 20.2123708,24.0466909 20.2572684,24.139727 C20.2572684,24.139727 19.8541942,24.0296872 19.7661203,23.9623639 C19.7572269,24.0222222 19.7489072,24.0809746 19.7400137,24.139727 C19.7400137,24.139727 19.4079437,24.1140142 19.337083,24.0466909 C19.2676567,24.139727 19.1972263,24.2326248 19.1273696,24.325661 L18.8208324,24.325661 L18.8208324,24.325661 L18.7502586,24.5693796 L18.7502586,24.5693796 C18.7502586,24.5693796 18.1642948,24.4101261 18.1116513,24.5019181 C18.0673275,24.5949542 18.1377579,24.7305685 18.1377579,24.7305685 C18.1377579,24.7305685 17.6642533,24.7305685 17.621077,24.6633834 L17.5771835,24.8653534 L17.5771835,24.8653534 C17.5771835,24.8653534 16.9823263,24.6879903 16.8420393,24.7723173 C16.8420393,24.7723173 16.6357686,24.8931398 16.5355021,25 C16.4993545,24.7445308 16.4511577,24.8204251 16.3518953,24.688958 C16.3518953,24.688958 16.1413213,24.7978918 16.0188212,24.7553136 C15.9050711,24.704994 15.5285338,24.9337826 15.4066074,24.8653534 C15.4066074,24.8653534 15.4066074,24.704994 15.3096401,24.6633834 C15.2225703,24.6205288 15.0557464,24.6205288 14.9858898,24.7305685 C14.9858898,24.7305685 14.9160331,24.6376706 14.793533,24.4603076 C14.6793525,24.2743736 14.5129589,24.4774495 14.5129589,24.4774495 C14.5040655,24.4047348 14.4957458,24.3310524 14.486422,24.2583377 C14.486422,24.2583377 14.3465653,24.2583377 14.1625282,24.2326248 C13.9701715,24.2070503 13.9264214,24.0466909 13.9264214,24.0466909 C13.9264214,24.0466909 13.427384,24.0979782 13.3569536,24.0712977 C13.3975479,24.0349404 13.4390028,23.9998272 13.4806013,23.9623639 C13.4806013,23.9623639 12.7970964,24.0979782 12.6572397,24.0466909 C12.5076289,24.0050804 12.8147399,23.8191464 12.8147399,23.8191464 C12.8147399,23.8191464 12.1843089,23.6673579 12.0618087,23.642751 C11.8262757,23.581925 11.2646972,23.8202523 11.1681602,23.8202523 C11.1869512,23.6621047 11.0278732,23.6000346 11.0278732,23.6000346 C11.0278732,23.6000346 10.8621968,23.7346812 10.7217663,23.7773976 C10.7217663,23.7773976 10.6083031,23.5071367 10.6780163,23.4814239 C10.6780163,23.4814239 10.2317658,23.6000346 10.2052289,23.7089684 C10.2052289,23.7089684 10.0914787,23.5327112 10.1086919,23.4558493 C10.1086919,23.4558493 9.89897854,23.7773976 9.80258499,23.8437532 C9.85035143,23.5936755 9.68453158,23.5316053 9.68453158,23.5316053 C9.68453158,23.5316053 9.52258469,24.0050804 9.42561737,24.0296872 L9.42561737,23.8020045 L9.42561737,23.8020045 C9.42561737,23.8020045 8.67282967,24.1899084 8.46311633,24.139727 C8.46311633,24.139727 8.46311633,23.9793675 8.53297296,23.9366511 C8.14051353,23.9987213 8.03737817,23.9590461 7.68364828,23.8191464 C7.5700416,23.8020045 7.84946813,23.6833938 8.04239867,23.7346812 C8.04239867,23.7346812 7.5173981,23.5487472 7.35989793,23.6417833 C7.35989793,23.6417833 7.28946753,23.4558493 7.5700416,23.388526 C7.5700416,23.388526 7.21129121,23.0508035 7,23.0763781 C7,23.0763781 7.2373978,22.9418697 7.42961112,23.0080871 C7.42961112,23.0080871 7.21129121,22.4342492 7.07100417,22.3678936 C7.07100417,22.3678936 7.5700416,22.2824607 7.70961142,22.3507517 C7.78950905,21.8218421 7.70903765,21.9298082 7.75293114,21.7534128 C8.13549303,22.3208917 8.18139472,22.2162433 8.36557524,22.2994643 C8.55850578,22.3925004 9.73172426,21.852808 9.73172426,21.852808 L10.0117246,21.3462934 L10.0117246,21.3462934 C10.0609254,21.4841196 10.110987,21.6231899 10.1601878,21.7599101 C10.1601878,21.7599101 10.4852292,21.3975808 10.5810489,21.2619665 C10.6774425,21.1273199 10.5810489,21.5322274 10.4852292,21.66798 C10.3881184,21.8016589 10.6143277,21.8731294 10.721336,22.1221013 C10.9214387,21.8186625 11.0971561,21.9372732 11.0971561,21.9372732 C11.4592056,21.9682392 11.821829,21.9982374 12.1833048,22.0301711 C12.1833048,22.0301711 12.3667681,21.3975808 12.6562356,21.0342837 C12.6850676,21.1689304 12.7143299,21.3046829 12.7437357,21.4393295 C12.8924859,21.2929324 13.0415229,21.1463971 13.1907034,21 Z M29.0319633,21 C28.1863822,21.6145856 28.8186537,23.0638252 29.0711872,23.6237952 L29.0867752,23.5815485 L29.097,23.543 L29.085232,23.6163458 C29.0788835,23.6415051 29.0705621,23.666042 29.0602483,23.6896552 C29.3162197,23.098252 30.6240054,23.4186889 30.9282979,22.2188956 L30.964,22.037 L30.9727801,22.1617311 C31.0530242,23.3836871 31.0982809,23.8185873 28.926168,24 C28.2152923,23.6188156 27.2071897,21.5488863 29.0319633,21 Z M4.66690257,20.7682359 C4.98038917,20.0546614 3.72233724,19.4963155 3.22982017,19.2839692 C3.23539196,19.3049767 3.24448278,19.3251893 3.2541601,19.3444935 C3.23040667,19.312017 3.21281154,19.2777237 3.20313422,19.2409321 C3.33231181,19.7105922 2.04816043,20.1003102 2.64375565,21 C1.87411525,20.2819969 1.53467583,20.0730572 3.13744573,19.0065563 C3.88274619,18.9213906 5.75794737,19.674482 4.66690257,20.7682359 Z M29.7096204,18 C29.0647027,18.8305493 29.9896149,20.1007722 30.354388,20.5895723 L30.3595085,20.5439578 L30.36,20.501 L30.3663545,20.5780711 C30.3662795,20.6046059 30.3640663,20.6309765 30.3596398,20.6569363 C30.4646752,19.9736021 31.8769519,19.9786954 31.747008,18.5233036 C32.1303874,19.8060135 32.3518622,20.2276138 30.3080223,21 C29.5570189,20.8080946 28.1396405,19.0211403 29.7096204,18 Z M3.506391,15 C4.26206037,15.0606198 5.84957249,16.1505279 4.43008551,17 C4.96640517,16.3689409 3.91846672,15.5871268 3.506391,15.2869792 C3.50579936,15.308094 3.50698263,15.3281871 3.51097619,15.3493019 C3.49766434,15.3133159 3.49145214,15.27733 3.49307915,15.2405494 C3.46808245,15.7196049 2.08690401,15.848564 2.3778419,16.8349415 C1.85823601,15.9915995 1.59466137,15.7239187 3.506391,15 Z M31.491585,15 C32.139871,15.8161451 32.4425903,16.0655555 30.6776325,16.9998733 C29.9245761,17.0127028 28.1850039,16.0490772 29.4447447,15.0346044 C29.018766,15.7369317 30.1779916,16.4376112 30.6317037,16.7051477 C30.6295027,16.6841968 30.6249538,16.6623042 30.6168832,16.6413533 C30.6358124,16.6768992 30.6475514,16.7132691 30.6515133,16.7524639 C30.5994215,16.256468 31.9379603,15.9854005 31.491585,15 Z M3.88082049,12 C4.6175585,12.2878324 5.84321152,14.2175665 4.13675128,15 C4.88603342,14.2786463 4.0971302,12.9182917 3.78612763,12.3937147 C3.77740793,12.4224013 3.77205373,12.4510878 3.76899419,12.4810637 C3.76777037,12.4286865 3.77373648,12.3764706 3.78857526,12.3265109 C3.60163717,12.9780822 2.17436026,12.7824335 2.13535108,14.2175665 C1.89823648,12.9157131 1.72323061,12.4760677 3.88082049,12 Z M30.2153555,11 C31.1008718,11.9321373 31.4737829,12.1875947 30.0471915,13.9620106 C29.3174482,14.1930518 27.323082,13.3648914 28.2336754,11.6238609 C28.037484,12.7038247 29.3847138,13.3354922 29.9092675,13.5743399 C29.9013019,13.5434458 29.8892058,13.5165381 29.8756347,13.4896303 C29.9046946,13.5333139 29.9281491,13.5806516 29.9440804,13.6308129 C29.7387433,12.9682513 30.9571949,12.2209802 30.2153555,11 Z M20.2571239,11.7607571 L20.5434568,11.7995138 L20.7696322,12.517833 C20.3322863,12.4287897 20.3854231,12.3621115 20.4812344,12.7380101 L20.4812344,12.7380101 L20.0847735,12.675777 C20.040034,12.6746657 19.9495914,12.9022052 19.8990702,13 C19.5746055,12.6724431 19.6527964,12.6478555 19.5350971,12.9934711 C19.0925201,12.4685188 19.2036117,12.5006077 19.018459,12.6842507 C18.8141715,12.4792151 18.885617,12.4631012 18.7121654,12.635909 L18.7121654,12.635909 L18.706246,12.1581872 L18.8748795,12.0774787 C19.1027069,12.3073798 19.0137785,12.3148811 19.2360995,11.957319 C19.4856771,12.2 19.4618619,12.262233 19.5090793,11.954124 C19.7766904,12.06581 19.729473,12.1044279 19.7980277,11.9198125 C20.0901423,12.0774787 20.0635739,12.1398507 20.0979889,11.8585518 C20.2491396,11.9068936 20.2294542,11.9132836 20.2571239,11.7607571 L20.2571239,11.7607571 Z M15.5553456,10.6011113 C15.9480897,10.7212711 15.9043138,10.7568328 15.9501546,10.6172252 C16.1549927,10.7525265 16.0916691,10.7739191 16.2406172,10.6451467 C16.4358191,10.8158708 16.3570776,10.8212884 16.590136,10.7546102 C16.5949541,10.7578052 16.6003229,10.7589165 16.6066552,10.7578052 C16.6566258,10.7976732 16.845633,10.9629797 16.8896843,10.9779823 C17.1191635,11.0499392 17.0621723,11.0424379 17.3095473,11.2701163 L17.3095473,11.2701163 L17.2090555,11.3023442 C17.1600486,11.3173468 17.1025067,11.6792151 17.1025067,11.8068762 C16.9349744,11.7329745 17.0083472,11.7339469 16.7834107,11.9357875 L16.7834107,11.9357875 L16.7834107,11.7372808 C16.7834107,11.6449036 16.6668127,11.8542455 16.6657114,11.8564681 C16.5007947,11.6899114 16.5509029,11.6674075 16.3971367,11.8456329 C16.1724755,11.6942177 16.1778442,11.639486 16.1783949,11.8907796 C15.837824,11.8370203 15.947539,11.7789547 15.7404983,12.2633443 L15.7404983,12.2633443 L15.5185904,11.954124 L15.4974939,11.9519581 C15.4446276,11.979718 15.3299371,12.1806712 15.312238,12.20639 C15.1387863,12.0583087 15.1865544,12.1237368 15.1865544,12.3523876 L15.1865544,12.3523876 L15.0647252,12.3523876 C15.0353578,12.3523876 15.0300349,12.4612336 15.0292599,12.5449519 L15.0290713,12.6349366 L14.7391593,12.4662962 C14.7135545,12.4501823 14.3896405,12.7273138 14.3458646,12.7627366 L14.3458646,12.7627366 L14.3458646,12.5522834 C14.3443503,12.5028304 14.0962869,12.5725647 14.0607706,12.5790936 C13.9233859,12.2429241 14.039984,12.3266887 13.6143392,12.2880708 C13.7781546,12.0389998 13.7857259,12.1291544 13.5186654,11.9380101 L13.5186654,11.9380101 L13.8182137,11.6599062 C13.8182137,11.6094808 13.8160111,11.6265671 13.7361683,11.5557215 L13.7361683,11.5557215 L14.0282829,11.5975343 C14.1129438,11.6094808 13.936739,11.4515367 13.9309572,11.4461191 L13.9309572,11.4461191 L14.30966,11.2476124 C14.3512333,11.2260809 14.2618919,11.1648203 14.2474376,11.1519014 C14.5087164,11.0542455 14.4806337,11.1230075 14.4806337,10.9211669 C14.6784512,11.0027088 14.7640757,11.0767494 14.6518828,10.8792151 C15.0311362,10.8082306 14.9913524,10.8619899 15.0153053,10.7105748 C15.2727295,10.7534989 15.2961318,10.8082306 15.2381769,10.6225039 L15.2381769,10.6225039 L15.5638805,10.7064074 C15.6175679,10.7202987 15.561678,10.6151415 15.5553456,10.6011113 Z M19.2154505,11.1895468 C19.4101017,11.4397291 19.3553131,11.4623719 19.4904952,11.2915089 C19.6314591,11.53419 19.5584993,11.53419 19.777241,11.4033339 C19.8810367,11.6437923 19.7948615,11.5943393 20.1581463,11.5321063 L20.2188544,11.7393645 L20.199169,11.8467442 C20.0177331,11.7886786 20.0635739,11.8015975 20.0389328,12.0013544 L19.7963758,11.8713318 C19.7571427,11.8531342 19.7341535,11.9734329 19.7241043,11.9981594 C19.4425895,11.8799444 19.4867784,11.8274353 19.4441038,12.1012329 C19.1701603,11.8338253 19.2723041,11.819934 19.0435131,12.1870811 L18.8945649,12.0367772 C18.823257,11.9648203 18.2752325,12.4662962 18.221545,12.511443 C18.1693719,12.1720785 18.2390279,12.2183365 17.891161,12.3975343 C17.8820754,11.947734 17.8076013,11.8499392 18.1023315,11.6501823 C18.3634725,11.4740406 18.6807789,11.3699948 18.9839063,11.2185796 C19.1649292,11.4279215 19.1329921,11.4697343 19.2154505,11.1895468 Z M6.27672275,9.0137824 C6.94004594,9.48800878 7.69271406,11.6883285 5.80262835,12 C6.7236047,11.4956589 6.26901518,9.96369232 6.0852918,9.37175936 C6.07066314,9.39798834 6.05855124,9.42421732 6.04816961,9.45303681 C6.05980962,9.40057886 6.07789882,9.35168286 6.10463938,9.30667264 C5.76062994,9.89245313 4.38726623,9.32545388 4,10.7121896 C4.07959249,9.38422622 4.0121119,8.90999984 6.27672275,9.0137824 Z M19.2787741,9.04514673 C19.4032187,9.28574405 19.3090593,9.2136482 19.7740749,9.26949123 C19.5612525,9.56259767 19.5920883,9.48647335 19.943259,9.51981247 C19.9714793,9.52300747 20.1209781,9.57232158 20.1549802,9.56162528 C20.3950593,9.48425074 20.3885892,9.49286334 20.6157283,9.47897204 C20.7120903,9.63566591 20.676987,9.58843549 20.9015105,9.58843549 C20.7977148,9.71415176 20.8127198,9.66900504 21.1537037,9.82792151 C21.0483938,9.93530127 21.1080006,9.90307345 21.4426521,9.9783643 L21.4426521,9.9783643 L21.4862903,9.9783643 L21.4639894,10.1833999 L21.7704206,10.4765063 L21.9709913,10.5592985 C21.7384835,10.8361521 21.7570676,10.7202987 21.7570676,11.0499392 C21.6794273,11.1089773 21.6198205,11.1766279 21.5761823,11.2540024 C21.3856608,11.1207849 21.4473325,11.1305088 21.3187581,11.3795798 C20.8456205,10.901719 20.9423955,10.901719 20.8205664,11.1949644 C20.4795825,10.9039417 20.5126209,10.8501823 20.454666,11.1057823 C20.1742526,10.8662962 20.2576745,10.849071 20.041686,10.9972912 C19.7300237,10.6741795 19.8596994,10.6944608 19.5224323,10.7353013 C19.5335828,10.7212711 19.6457757,10.596805 19.5852053,10.596805 L19.5852053,10.596805 L19.2659717,10.596805 C19.1883314,10.2542455 19.1925989,10.164091 19.1174365,10.5323494 C18.8678589,10.3648203 18.9839063,10.3402327 18.6754102,10.6816808 C18.5753313,10.4583087 18.5970816,10.5173468 18.4406998,10.6741795 C18.319972,10.3970481 18.3433742,10.4496961 18.2278774,10.6741795 C17.9901385,10.4013544 18.0815448,10.3873242 17.8596368,10.8179545 C17.8208167,10.4603924 17.8640419,10.4088557 17.7160574,10.5592985 C17.7682306,10.176871 17.821918,10.2478555 17.5766078,10.2027088 C17.6538351,9.79361 17.6941695,9.87737454 17.5086038,9.78388609 C17.5478369,9.5831568 17.5212685,9.66581004 17.6670504,9.53898246 L17.6670504,9.53898246 L17.9043763,9.30824796 C17.966048,9.28352144 18.4631384,9.34797708 18.4784187,9.30283035 L18.4784187,9.30283035 L18.540641,9.13321757 L18.9265021,9.19753429 C18.9673871,9.2050356 19.1547424,9.06014933 19.2122843,9.04514673 L19.2122843,9.04514673 Z M28.9154431,8 C30.0112089,8.63569993 30.4421229,8.77378361 29.421497,10.8265311 C28.7453895,11.2396556 26.5655699,11.0056536 27.0769476,9.1233381 C27.1275986,10.1895437 28.6161,10.4172691 29.1951645,10.4980593 L29.1699151,10.4619894 L29.144,10.431 L29.1970848,10.4820662 C29.2139115,10.5008757 29.2293121,10.5210733 29.2427734,10.5427997 C28.8865431,9.97678537 29.9336352,8.94550306 28.9154431,8 Z M14.5268875,7.6072582 L14.7278712,7.85424553 L14.7657277,7.80382011 L14.9471636,7.73186317 L15.0599071,7.76728599 L15.2716283,7.6104532 L15.4101143,7.75756208 C15.4435656,7.79298489 15.7841366,7.76297968 15.8548938,7.78978989 L15.8548938,7.78978989 L15.9644712,7.87244313 L15.8203411,8.00788331 L16.4619745,8.1893037 L16.3459271,8.42448342 L16.5593002,8.51463796 L16.5061634,8.57909359 L16.6518077,8.57909359 L16.5514536,8.78204549 L16.6757606,8.78204549 L16.5604015,8.92693176 L16.7108639,9.24698732 L16.3890147,9.11488106 L16.2965072,9.33505817 L16.0346778,9.22128842 C16.0288961,9.20072929 15.8899971,9.06223303 15.8703117,9.07306824 C15.795287,9.11057475 15.6702917,9.14391387 15.6756605,9.2072582 L15.6756605,9.2072582 L15.5377251,9.11918736 L15.3003992,9.1933669 L15.2445092,9.36075708 L15.076977,9.29532905 L14.8470847,9.50355965 L14.7412242,9.3972912 L14.4932985,9.51647856 C14.4758156,9.34367078 14.5332199,9.48327835 14.0325503,9.56259767 C13.9266898,9.3952075 13.8953033,9.25671123 13.8866307,9.2093419 C13.9127861,9.1933669 14.0570538,9.13849627 14.0420489,9.09987845 C13.8308784,8.57367599 13.9601412,8.61451641 13.6537099,8.76162528 C13.6420088,8.75190137 13.6345752,8.74648376 13.6325103,8.74440007 C13.6074562,8.72509116 12.9013979,9.08376454 12.8204538,9.12460497 L12.8204538,9.12460497 L12.7938854,9.17711408 L12.1755165,9.47674944 C12.1873553,9.43493662 12.2122718,9.3995138 12.2027732,9.35436708 C12.2575619,9.27713145 12.2777979,9.18683799 12.2874341,9.05903803 C12.289499,9.0150026 12.2921146,8.96235458 12.2921146,8.90651155 L12.2921146,8.90651155 L12.5628919,8.77023789 L12.4304629,8.49532905 L12.8274744,8.38892169 L12.892863,8.22375412 L13.2152627,8.24834173 C13.4531393,8.00788331 13.3717822,8.04427852 13.6557748,7.9927418 C13.6958339,7.9863518 13.8271616,7.87563813 13.8724517,7.84452162 C14.1948515,7.98732419 14.0968376,7.99163049 14.2724918,7.92411877 C14.3064938,7.91119986 14.4895816,7.65337732 14.5268875,7.6072582 L14.5268875,7.6072582 Z M16.1022689,8.22472652 L16.0602826,8.22792151 L16.0831341,8.47490884 L15.7756016,8.45768363 L15.8994957,8.68425074 L15.6563881,8.5845112 L15.6563881,8.89692655 L15.3776265,8.76912658 L15.2663972,8.91415176 L14.8843906,8.81857961 L14.8843906,9.18364299 L14.5507027,8.91415176 L14.5252356,9.21587081 L14.2873591,9.05792672 L14.2039371,9.38326098 L14.2448221,9.3940962 L14.3129638,9.12571627 L14.5619908,9.28991144 L14.5863566,8.996805 L14.9259639,9.27171384 L14.9259639,8.87220003 L15.2829164,8.96235458 L15.3897406,8.82177461 L15.698925,8.96346588 L15.698925,8.64785553 L15.9932421,8.76912658 L15.8489744,8.50380274 L16.1295256,8.52005557 L16.1022689,8.22472652 Z M8.63544105,6.30058031 C9.16772693,6.91149299 9.36612583,9.16632474 7.44599841,8.99022983 C8.46699214,8.74375978 8.39647495,7.1918939 8.36224639,6.58962102 L8.33195965,6.62164721 L8.307,6.653 L8.34580558,6.59130971 C8.36089943,6.57080981 8.37761755,6.55137025 8.39599956,6.53259832 C7.91822584,6.99883356 6.71594749,6.12448539 6,7.33154455 C6.40107638,6.10265025 6.45067611,5.64128472 8.63544105,6.30058031 Z M21.1362209,6.28327835 C21.1442051,6.31981247 21.1839889,6.55276958 21.2095937,6.55929849 C21.5017082,6.64195173 21.5330947,6.70307345 21.4756905,6.51623546 C21.6905778,6.6043063 21.630971,6.63333912 21.7715219,6.51415176 C21.8974808,6.77822539 21.8012565,6.70210106 22.1747281,6.75349887 C22.0140789,6.81795451 22.1838137,6.83406841 22.4200383,6.91797187 C22.2439711,7.03271401 22.2635188,6.97367599 22.516951,7.22927592 L22.4924475,7.22927592 L22.4753776,7.26358743 C22.7047192,7.57183539 22.6163415,7.48265324 22.9606292,7.67921514 L22.9149261,7.71894426 C22.6844832,7.91439486 22.6961843,7.83382532 23,8.09692655 L22.7461549,8.30849106 C22.6313464,8.41795451 22.5678852,8.61132141 22.5413168,8.80246571 L22.4898319,8.85942004 C22.1056228,8.55228338 22.2098314,8.55228338 22.046016,8.76273659 C21.8475102,8.55658969 21.7448158,8.3911443 21.7635376,8.57367599 C21.4097513,8.50380274 21.5321311,8.55117208 21.195277,8.28598715 C21.1791708,8.27404063 21.1557686,8.29015454 21.161688,8.30960236 C21.2489644,8.59937489 21.2696134,8.55339469 21.2175779,8.71856225 L20.4647152,8.30849106 C20.7663284,8.30737975 20.7583441,8.24514673 20.6673508,8.01107831 C20.8764564,8.02066331 20.8675085,8.04330613 20.8041849,7.86285814 L21.0500457,7.71894426 C21.1425532,7.66421254 20.6790519,7.47195694 20.6606055,7.46556694 C20.8573216,7.30442785 20.9808027,7.27220003 20.6329358,7.17232158 L20.6637716,7.09828095 C20.6946075,7.02201771 20.3991891,7.03702032 20.3848724,7.03924292 C20.4162589,6.95756208 20.4556297,6.85351624 20.4104772,6.84809863 C20.3291201,6.84156972 20.2167895,6.86101754 20.1726006,6.86949123 L20.1395622,6.73863518 L20.2912636,6.73863518 C20.3215488,6.73863518 20.5588747,6.34120507 20.5924637,6.28855704 L20.580625,6.42719222 C20.580625,6.43469352 20.5837912,6.44219483 20.5908118,6.44636222 C20.6244009,6.46900504 20.6801532,6.34870637 20.6950205,6.32620247 L20.732877,6.45942004 L20.7334276,6.45942004 C20.7471936,6.51081785 20.9211959,6.35940267 20.9451487,6.34342768 C20.9977349,6.47539503 21.0047555,6.4088557 21.1362209,6.28327835 Z M18.9489406,6.76113909 L18.9945061,6.89421775 C19.0169447,6.95756208 19.0414482,6.85240493 19.0435131,6.84156972 C19.1255585,6.94144817 19.1627267,7.04674423 19.1894327,6.87699253 L19.1894327,6.87699253 L19.2771222,6.95339469 C19.3090593,6.9813162 19.4000526,6.88352144 19.4325403,6.87379753 L19.4325403,6.87379753 L19.6299448,6.86518493 C19.6964346,6.88574405 19.9527576,7.16912658 19.8554319,6.93075187 C19.9842817,6.95339469 20.0533871,7.00812641 20.0220006,6.88032645 L20.0220006,6.88032645 L20.1194639,6.83198472 L20.1363961,6.89949644 C20.1471335,6.94255947 20.2678614,6.88671644 20.3833582,6.89005036 C20.3748232,6.93075187 20.3551378,7.01243271 20.331185,7.05424553 L20.331185,7.05424553 L20.3312536,7.07350584 C20.3572196,7.09952833 20.5315983,7.05878997 20.6173802,7.09939226 C20.5371244,7.29359264 20.6244009,7.14551137 20.8047355,7.29262025 L20.8047355,7.29262025 L20.6056791,7.45473172 C20.5477242,7.50196215 20.9046767,7.5879493 21.0073711,7.69532905 C20.7196616,7.86396944 20.7343912,7.7920125 20.7988161,7.97454419 C20.676987,7.96912658 20.5976948,7.95412398 20.6162789,7.9970481 C20.7477443,8.30418475 20.6892387,8.26445563 20.3843218,8.26445563 L20.3843218,8.26445563 L19.6123243,7.84243792 C19.4325403,7.74575447 19.1100029,7.56961278 18.8871313,7.94551137 C18.7078979,8.24625803 19.0854994,8.47490884 19.3632973,8.61243271 L19.3632973,8.61243271 L19.1164729,8.76815419 C18.9003467,8.5802049 18.9764726,8.56617468 18.7955874,8.71967355 C18.8178883,8.48241014 18.8642797,8.47699253 18.7189107,8.47699253 C18.6449873,8.17749609 18.7014279,8.19472131 18.5327944,8.22042021 L18.5327944,8.22042021 L18.2609158,7.9927418 C18.0873265,7.96912658 18.0869135,7.93912138 17.9166281,7.82743532 C17.8852416,7.80687619 17.8276997,7.90467095 17.8113182,7.92411877 C17.7166081,7.8122938 17.745379,7.84993923 17.6074437,7.98412919 C17.5420551,7.91439486 17.5405409,7.90467095 17.4952507,7.99593679 L17.4952507,7.99593679 L17.3292327,8.03788852 L17.476116,7.84993923 C17.503235,7.81451641 17.4154079,7.7995138 17.3972368,7.79298489 C17.5138348,7.67490884 17.5048869,7.69532905 17.3494688,7.63406841 C17.5628418,7.45473172 17.5654573,7.52682757 17.4584955,7.33985067 C17.7426258,7.3924987 17.7782798,7.44500781 17.738909,7.29803785 L17.738909,7.29803785 L17.9383784,7.29803785 C17.9782998,7.29803785 17.9469133,7.24650113 17.9394796,7.23135961 C18.0512596,7.23677722 18.1842392,7.28303525 18.0889784,7.15954159 L18.0889784,7.15954159 L18.3012502,7.14551137 C18.3550753,7.14120507 18.2698637,7.04354923 18.2598145,7.02840771 C18.4886055,6.9833999 18.4289987,7.00701511 18.5981829,6.83629102 L18.5981829,6.83629102 L18.5981829,7.0059038 C18.5981829,7.06605313 18.7370819,6.94686578 18.7536011,6.93616947 L18.7536011,6.93616947 L18.7764526,6.98867859 L18.8078391,6.9972912 C18.9311825,6.91033165 18.9030999,6.91574926 18.9489406,6.76113909 L18.9489406,6.76113909 Z M25.5819957,5 C26.84608,5.32101839 27.3144591,5.34186169 26.7859459,7.5558306 C26.2050732,8.12349469 23.9440966,8.46282992 24.0010573,6.54287784 C24.3133101,7.54382991 25.8739393,7.37534658 26.4779771,7.30207922 C26.4559227,7.28249915 26.4327576,7.26544555 26.4068952,7.25076049 L26.4753393,7.2866836 L26.4753393,7.2866836 L26.536,7.331 L26.4790723,7.26999322 C26.1044289,6.77936368 26.7886915,5.60702333 25.5819957,5 Z M22.3929193,7.24538982 C22.427059,7.1874631 22.1902837,7.12842507 22.1306769,7.23247092 C22.0955736,7.29039764 22.5067641,7.5954506 21.9226726,7.30012155 C21.9049145,7.29039764 21.8848161,7.31192915 21.8954159,7.33026567 C22.1555934,7.7995138 21.6575394,7.45806564 21.5734291,7.38819239 C21.5538814,7.36999479 21.5267624,7.4011113 21.5463101,7.41930891 C21.6293191,7.49557215 21.5730161,7.82521271 21.5730161,7.82521271 C21.5687487,7.85216183 21.610735,7.85744053 21.6144518,7.83174162 L21.6144518,7.83174162 C21.6144518,7.83063032 21.6528589,7.61378712 21.6188569,7.47626324 C21.7958877,7.6061469 22.1332925,7.75645077 21.9592902,7.36568849 C22.1407261,7.45584303 22.4397237,7.6029519 22.1741775,7.24219483 C22.2445218,7.16495919 22.3722703,7.28081264 22.3929193,7.24538982 Z M13.5946538,5.92252127 C13.7356177,6.16520229 13.6461386,6.12436187 13.9692267,6.02114951 C13.9527075,6.2059038 13.9473388,6.15436708 14.1623637,6.14575447 L14.1059231,6.34120507 C14.1038582,6.34870637 14.1059231,6.35843028 14.1118425,6.36370898 C14.2953433,6.51845807 14.2810267,6.48289634 14.5273005,6.56235458 L14.3901911,6.57749609 C14.3358154,6.58388609 14.4236425,6.67084563 14.4347929,6.68376454 C14.1586469,6.81795451 14.2065526,6.73432888 14.4097388,7.16162528 L14.0728847,7.03271401 C14.0176831,7.01132141 14.0565032,7.30331655 14.0587057,7.33665567 C13.8819503,7.21427331 13.9320585,7.24427852 13.8893839,7.50196215 C13.4563055,7.17232158 13.6702291,7.27108873 13.3562266,7.25191874 C13.2999237,7.24858482 13.4152828,7.47195694 13.4271215,7.49890606 C13.2109953,7.39027609 13.2843681,7.38277479 13.140238,7.65546102 L12.9721551,7.57183539 C12.747494,7.52252127 12.7348292,7.47292933 12.747494,7.62545581 C12.5427935,7.48376454 12.6061171,7.49029345 12.4975033,7.76186838 C12.4852516,7.74047578 12.4139437,7.56752908 12.3815936,7.60948081 L12.2351233,7.7909012 C12.2868835,7.46014933 12.2230092,7.60406321 12.0393708,7.79631881 C12.1755165,7.28831394 12.2122718,7.36027088 12.0192724,7.33026567 C12.1102657,7.24538982 12.1203149,7.24427852 12,7.2056607 C12.1713867,7.13273138 12.2947301,7.12189616 12.089892,7.06063553 C12.1080631,7.05091162 12.2246612,7.0027088 12.186254,6.97159229 L12.1282991,6.92533426 C12.3223998,6.82656711 12.4315642,6.82128842 12.3341009,6.73530127 C12.6098339,6.65584303 12.5628919,6.71071367 12.4874542,6.43580483 C12.8071008,6.46150373 12.8152227,6.51192915 12.7582314,6.34120507 L12.987986,6.35190137 C13.0323126,6.35301268 13.0100116,6.15436708 13.0100116,6.12213926 L13.1312901,6.17687098 C13.1599234,6.1888175 13.541517,5.95363778 13.5946538,5.92252127 Z M16.3528101,5.14933148 C16.5949541,5.43285293 16.4742263,5.3738149 16.8408149,5.40493141 C16.8300775,5.75165827 16.7641383,5.64761243 17.2324577,5.8138913 C17.1420151,6.16728599 17.0945224,6.10074666 17.5000688,6.03740233 L17.530354,6.31231117 C17.5340709,6.34120507 17.9177294,6.50442785 17.9686636,6.52818198 L17.849037,6.64195173 C17.8038845,6.68376454 17.9283292,6.94478208 17.8724392,7.02840771 C17.6074437,6.86949123 17.669666,6.83087342 17.5596756,7.07577704 C17.2409927,6.86101754 17.5000688,7.11008856 17.2101568,6.90922035 C17.1966661,6.76752908 17.1813859,6.81156451 17.0653385,6.88574405 L16.9009724,6.74919257 C16.915289,6.51845807 16.8961543,6.5924987 16.7082483,6.72460497 L16.68168,6.61083521 C16.6679139,6.55276958 16.5992216,6.66334433 16.590136,6.67626324 C16.515662,6.50651155 16.4944623,6.37454419 16.4539903,6.60861261 L16.2543832,6.42927592 C16.2231344,6.3981594 16.1247075,6.52818198 16.0948352,6.55596458 C15.968188,6.49262025 16.0043926,6.51845807 15.8543432,6.68487585 C15.8006558,6.52165306 15.7808327,6.63431151 15.7107638,6.75030387 L15.5841165,6.70529606 C15.5516288,6.69334954 15.5132216,6.79003299 15.5000063,6.81156451 L15.387125,6.7890606 C15.3589047,6.78572669 15.2557974,6.87602014 15.2286783,6.89630144 L15.2286783,6.7847543 C15.2286783,6.70529606 15.0477931,6.90824796 15.0365049,6.92005557 L15.007321,6.86837993 C14.9833682,6.82448342 14.8864555,6.95228338 14.8689727,6.96936968 C14.8119814,6.85448863 14.807301,6.90491405 14.7072221,6.9802049 L14.7072221,6.93714186 C14.7066715,6.91574926 14.6725318,6.90824796 14.6567009,6.90171905 C14.7460423,6.71918736 14.7625615,6.770863 14.6854719,6.59361 C14.7880286,6.47650634 14.7226401,6.50123285 14.5917254,6.49484285 C14.7954622,6.22104532 14.771647,6.32828616 14.7822469,6.00086821 C15.0545384,5.86862302 15.0232896,5.95461018 14.9785501,5.69262025 C15.2897994,5.50675464 15.2307432,5.60677201 15.2749321,5.34908838 C15.754815,5.38756729 15.6537725,5.44243792 15.7650018,5.2072582 C16.1496239,5.30713666 16.0049432,5.33075187 16.3528101,5.14933148 Z M10.8725652,4.67312914 C11.2425499,5.36608514 10.8613879,7.50688073 9.00547072,6.88956376 C10.0799491,6.90237117 10.4073305,5.44413498 10.5275269,4.8757875 C10.5012846,4.88964964 10.4774721,4.90727866 10.4543075,4.92581173 C10.4899453,4.88844424 10.5301188,4.85589836 10.5757999,4.83269435 C9.98405113,5.15061937 9.01681001,4.05460676 8,5.00627237 C8.71129723,3.96013331 8.87847071,3.54321458 10.8725652,4.67312914 Z M18.3428235,5 C18.7088616,5.21906581 18.5476617,5.15794409 19.08605,5.09668345 C19.0217628,5.33616947 18.9499043,5.26407362 19.514448,5.34367078 C19.4457557,5.52731377 19.384084,5.45424553 20.061922,5.63899983 L20.061922,5.63899983 L20.0778905,5.8138913 C19.9592276,5.76457718 19.694232,5.70234416 19.6905152,5.74846327 C19.6687649,5.9943393 19.5313802,5.88598715 19.2584004,5.76999479 C19.2340346,5.76027088 19.2117336,5.7849974 19.2340346,5.8075013 C19.2425695,5.8150026 19.3553131,6.0200382 19.3244772,6.07602014 C19.2360995,6.07602014 19.1371219,5.94183018 19.1062861,5.98364299 C19.0680166,6.03517972 19.5584993,6.32939746 19.2893739,5.81722521 C19.3027269,5.82694912 19.3207604,5.83861782 19.3441626,5.84834173 C19.529866,5.92877236 19.689001,6.03406841 19.7289224,5.77430109 C19.8006432,5.78708109 20.0251668,5.82792151 20.0784412,5.86126064 C20.082158,5.86334433 20.0858748,5.86445563 20.0901423,5.86445563 L20.0901423,5.86445563 L20.3646364,6.2059038 L19.9757468,6.32828616 L19.8496502,6.24132662 C19.8054613,6.21132141 19.7660906,6.44636222 19.7586569,6.47650634 C19.4240054,6.2004862 19.4984795,6.17048099 19.3979877,6.48081264 C18.969039,6.1972912 19.0680166,6.16089599 18.8238077,6.34870637 C18.5177894,5.9879493 18.6471899,6.03406841 18.3459897,6.12533426 C18.1773562,5.9922556 18.1825873,5.96752908 18.153954,6.10185796 L18.153954,6.10185796 L18.0469921,5.974058 C17.8553694,5.74526828 17.9346615,5.77110609 17.696372,5.95363778 C17.6863229,5.92349366 17.6553493,5.77957979 17.6191448,5.77957979 L17.6191448,5.77957979 L17.3596556,5.77957979 L17.566008,5.38659489 C17.9192436,5.29199514 17.9123606,5.37159229 17.8564706,5.12140997 C18.3385561,5.17822539 18.2364123,5.24809863 18.3428235,5 Z M25,5.17263391 C24.5710137,5.86442288 22.432213,6.75093996 22,4.88164457 C22.5617639,5.7706824 24.0547459,5.22257632 24.6321592,5.00327087 C24.6058618,4.98987937 24.5771444,4.97900863 24.5492337,4.97050109 C24.6008604,4.97900863 24.6515192,4.99476333 24.698306,5.01918312 C24.09395,4.70991832 24.5684324,3.30318098 23.1654746,3.00116334 C24.4905082,2.99864259 24.9569239,2.90253891 25,5.17263391 Z M18,3.41354924 C17.9747498,4.16923662 16.9380963,5.83501652 16,4.4946797 C16.6713987,4.97599986 17.4198278,3.87102419 17.7067722,3.43754166 C17.6851292,3.43754166 17.6639516,3.44210463 17.6428904,3.4466676 C17.6788457,3.43077079 17.7157319,3.42164484 17.7540144,3.4204673 C17.2628578,3.43415622 17.0613219,2.07321242 16.0669071,2.44193016 C16.9038864,1.85831107 17.1652316,1.57378756 18,3.41354924 Z M14.9787023,3.04535368 C15.1535094,3.76048546 14.2412963,5.60042582 12.6448619,4.80380303 L12.4882458,4.71835356 C13.564369,4.97402015 14.2982497,3.66894506 14.5759752,3.16010977 C14.5455649,3.16804426 14.5170026,3.17700728 14.4891125,3.18964367 C14.535148,3.16348928 14.5845439,3.1429184 14.6371319,3.1294004 C13.9539911,3.29749383 13.2858034,2.04355207 12,2.71372179 C13.0052217,1.88456859 13.2896677,1.52913326 14.9787023,3.04535368 Z M22,3.78631585 C21.7601624,4.5310535 19.9012179,5.85513251 19,4.21601296 C19.7763464,4.91273722 21.0917997,4.05455469 21.5976184,3.71482588 C21.5688769,3.70907033 21.5386739,3.70558671 21.5086333,3.70331478 C21.5618945,3.69983116 21.6140189,3.70210309 21.6666306,3.71376565 C20.9976184,3.56866525 21.0999188,2.14613606 19.6545602,2.19278629 C20.9461434,1.8815323 21.3772666,1.68236004 22,3.78631585 Z" id="Combined-Shape" fill="#47A341"></path>
                    <path d="M11.4558571,10.8101429 C11.4652857,10.7837143 11.506,10.7991429 11.4967143,10.8245714 C11.4574286,10.9284286 11.4431429,11.221 11.4022857,11.2142857 C11.3477143,11.2034286 11.4387143,10.8554286 11.4558571,10.8101429 Z M11.4237143,11.4507143 C11.3961429,11.4507143 11.3961429,11.4064286 11.4237143,11.4064286 C11.6877143,11.4064286 11.8445714,11.3081429 12.204,11.3811429 C12.231,11.3855714 12.2232857,11.4285714 12.1951429,11.4231429 C11.85,11.3545714 11.6867143,11.4507143 11.4237143,11.4507143 Z M9.97942857,11.5014286 C9.933,11.5081429 9.82471429,11.4064286 10.743,11.4064286 C10.7717143,11.4064286 10.7717143,11.4507143 10.743,11.4507143 C10.3471429,11.4507143 10.2128571,11.4717143 9.97942857,11.5014286 Z M8.08214286,11.613 L8.09757143,11.6694286 C8.112,11.7178571 8.102,11.8482857 8.043,11.8702857 C8.00214286,11.8847143 7.96285714,11.5058571 7.64485714,11.5037143 C7.69728571,11.4054286 7.93528571,11.412 8.08214286,11.613 Z M8.92085714,11.9454286 C8.88614286,12.036 8.83685714,12.227 8.89985714,12.4621429 C8.93914286,12.6422857 8.73528571,12.5671429 8.56857143,13.0718571 C8.33385714,12.9547143 8.29028571,12.8255714 8.41285714,12.5958571 C8.48742857,12.4545714 8.50285714,12.2967143 8.53328571,12.141 L8.92085714,11.9454286 Z M7.09871429,12.0702857 C7.01542857,11.8492857 7.30528571,11.8404286 7.41514286,11.8935714 C7.44885714,11.9101429 7.64642857,12.0801429 7.55528571,12.1518571 C7.41014286,12.2678571 7.36757143,11.941 7.10814286,12.0878571 C7.10485714,12.0845714 7.10214286,12.078 7.09871429,12.0702857 Z M7.32685714,11.6937143 C7.79014286,11.6682857 7.86185714,11.9984286 7.71442857,12.0591429 C7.56142857,12.1231429 7.59071429,11.7752857 7.181,11.8284286 C7.19757143,11.7841429 7.23842857,11.7047143 7.32685714,11.6937143 Z M7.61285714,11.549 C7.69071429,11.5555714 7.74971429,11.56 7.81771429,11.6097143 C8.06671429,11.793 7.91214286,12.0117143 7.85242857,11.9841429 L7.826,11.919 C7.816,11.7212857 7.552,11.6505714 7.37542857,11.6494286 C7.42071429,11.6052857 7.508,11.538 7.61285714,11.549 Z M7.80985714,13.1435714 C7.806,13.1304286 7.84028571,13.0475714 7.87514286,13.243 C7.91314286,13.4538571 7.985,13.8548571 8.36157143,14.2732857 C8.38028571,14.2942857 8.34885714,14.3241429 8.329,14.3031429 C7.87514286,13.7984286 7.89928571,13.4484286 7.80985714,13.1435714 Z M11.192,12.3661429 C11.199,12.4125714 11.097,12.4952857 11.1234286,11.7764286 C11.1234286,11.7477143 11.167,11.75 11.1664286,11.7775714 C11.1594286,11.9774286 11.1627143,12.1805714 11.192,12.3661429 Z M11.167,12.9801429 C11.167,12.9481429 11.2107143,12.9392857 11.209,13.0254286 C11.2057143,13.1512857 11.3072857,13.1712857 11.2847143,13.2021429 C11.2427143,13.2595714 11.167,13.1304286 11.167,12.9801429 Z M10.3321429,13.0144286 C10.3344286,13.01 10.4398571,12.9371429 10.2752857,13.1944286 C10.2157143,13.2871429 10.1511429,13.4517143 10.1284286,13.4462857 C10.06,13.4318571 10.3012857,13.0741429 10.3321429,13.0144286 Z M11.0052857,14.153 C11.0334286,14.153 11.0334286,14.1971429 11.0052857,14.1971429 C10.7925714,14.1971429 10.7755714,14.4378571 10.7401429,14.4322857 C10.6635714,14.4201429 10.8098571,14.153 11.0052857,14.153 Z M11.2201429,13.4318571 C11.2101429,13.3987143 11.3067143,13.3048571 11.2714286,13.8282857 C11.2394286,14.2997143 11.1544286,14.2237143 11.1675714,14.1861429 C11.2234286,14.0225714 11.2575714,13.5565714 11.2201429,13.4318571 Z M11.4591429,13.2032857 C11.4365714,13.1744286 11.4735714,13.1524286 11.5131429,13.2 C12.1344286,13.9597143 11.817,14.068 11.8484286,13.9762857 C11.918,13.7641429 11.6065714,13.3844286 11.4795714,13.2275714 L11.4591429,13.2032857 Z M13.0835714,14.7184286 L13.0835714,14.1495714 C13.0835714,14.1264286 13.1022857,14.1087143 13.1244286,14.1087143 L14.327,14.1087143 C14.2181429,14.0348571 13.9228571,13.9342857 13.9415714,13.8955714 C13.9664286,13.8448571 14.3027143,14.0535714 14.3424286,14.0657143 C14.5534286,14.1164286 14.5671429,14.1087143 14.7494286,14.1087143 C14.6047143,13.9961429 14.2591429,13.91 14.2917143,13.858 C14.3065714,13.8348571 14.6792857,13.984 14.8134286,14.1087143 L14.9095714,14.1087143 C14.8702857,14.026 14.4634286,13.7862857 14.0967143,13.7477143 C13.7858571,13.7155714 13.1608571,13.8492857 12.9217143,13.9928571 C12.9201429,13.9938571 12.7362857,14.1451429 12.7147143,14.1187143 C12.6717143,14.0668571 12.9924286,13.9078571 13.0327143,13.8922857 C13.0255714,13.8702857 13.0858571,13.3942857 12.9351429,12.8542857 C12.7831429,12.3064286 12.909,12.0602857 12.8505714,11.6925714 C12.818,11.4882857 12.5214286,11.3634286 12.3028571,11.3368571 C12.0168571,11.2884286 11.6882857,11.0708571 11.6557143,10.7858571 C11.6281429,10.5485714 11.6744286,10.268 11.7164286,10.0382857 C11.712,10.0404286 11.7087143,10.0415714 11.7037143,10.0438571 C11.6468571,10.3154286 11.7108571,10.4591429 11.3857143,10.6522857 C11.1521429,10.7914286 10.8297143,10.8632857 10.5994286,10.7151429 C10.6127143,10.8047143 10.6248571,10.9338571 10.5292857,11.0552857 L10.7568571,10.9404286 C10.7407143,10.8257143 10.791,10.8544286 10.802,10.9504286 C10.8241429,11.1437143 10.806,11.3711429 11.1035714,11.4064286 C11.1311429,11.4087143 11.1262857,11.453 11.0981429,11.4495714 C10.7811429,11.412 10.7805714,11.1845714 10.7617143,10.987 C10.4045714,11.1668571 9.01914286,11.8758571 8.98114286,11.9145714 C8.96285714,11.951 8.86457143,12.1641429 8.94242857,12.4512857 C8.98928571,12.6752857 8.77557143,12.5704286 8.60671429,13.0938571 C8.94742857,13.3567143 8.81928571,13.5047143 8.97557143,13.7984286 C8.99042857,13.8271429 8.93085714,13.9132857 8.85414286,13.5665714 C8.72657143,12.9944286 8.29757143,13.1281429 8.29757143,12.8234286 C8.29757143,12.6577143 8.40457143,12.5847143 8.42942857,12.4445714 L8.48414286,12.1674286 L7.93028571,12.4534286 C7.88728571,12.5031429 7.88114286,12.6432857 7.948,12.693 C8.023,12.7471429 7.78228571,12.7648571 7.87457143,12.4832857 L7.45385714,12.7008571 C7.56428571,12.8498571 7.58571429,12.8674286 7.62385714,13.085 C7.672,13.3621429 7.75971429,13.8624286 7.928,14.1374286 C8.16114286,14.5184286 8.20471429,14.3794286 8.29314286,14.4665714 C8.409,14.5824286 8.46585714,14.6752857 8.652,14.6565714 C8.72271429,14.6487143 8.79057143,14.6244286 8.81371429,14.5604286 C8.94071429,14.2424286 9.218,14.1231429 9.45371429,13.8381429 C9.64085714,13.6128571 9.58171429,13.5721429 9.55142857,13.3334286 C9.45857143,13.4594286 9.26485714,13.4727143 9.19428571,13.635 C9.16828571,13.6902857 9.06728571,13.5841429 9.37914286,13.4075714 C9.64642857,13.2574286 9.49671429,13.1822857 9.55357143,12.8531429 C9.55971429,12.8155714 9.56642857,12.7394286 9.56971429,12.65 C9.50457143,12.8741429 9.26328571,13.0431429 9.24,12.9702857 C9.23671429,12.958 9.24328571,12.946 9.255,12.9425714 C9.69785714,12.8022857 9.49728571,12.1331429 9.57357143,12.1387143 C9.642,12.1431429 9.552,12.619 9.944,12.7914286 C9.87057143,12.6644286 10.1421429,12.6157143 10.1421429,12.7504286 C10.1421429,12.777 10.1295714,12.799 10.109,12.8155714 C10.1002857,12.8245714 10.0887143,12.83 10.077,12.8342857 C10.6441429,12.9668571 10.9567143,12.544 10.9952857,12.5914286 C11.0455714,12.6532857 10.568,12.9061429 10.3504286,12.9061429 C9.86842857,12.9061429 9.69,12.7072857 9.61714286,12.5052857 C9.61542857,12.6588571 9.55857143,13.1435714 9.58228571,13.2021429 L9.631,13.593 C9.63814286,13.6128571 9.81257143,14.112 9.81042857,14.5681429 C9.95171429,14.3041429 9.96671429,13.9894286 9.859,13.7122857 C9.72757143,13.3677143 9.91042857,13.0795714 9.885,12.914 C9.88171429,12.8928571 9.96114286,12.8178571 9.90314286,13.0938571 C9.77,13.7332857 10.0145714,13.72 9.96728571,14.1982857 C9.95228571,14.3484286 9.906,14.4985714 9.82142857,14.6365714 C10.0517143,14.6818571 10.2847143,14.7205714 10.5187143,14.746 C10.5518571,14.2997143 10.2371429,14.2522857 10.2831429,14.2037143 C10.4144286,14.068 10.6784286,13.3987143 10.6784286,13.2861429 C10.6784286,13.254 10.8251429,13.1624286 10.5371429,13.8327143 C10.4724286,13.984 10.399,14.1287143 10.3338571,14.2114286 C10.404,14.2501429 10.5894286,14.3902857 10.5612857,14.7504286 C10.9594286,14.7922857 11.3624286,14.7967143 11.7588571,14.7425714 C11.7572857,14.5384286 11.6655714,14.1252857 11.4994286,14.1705714 C11.4624286,14.1794286 11.4674286,14.1252857 11.5142857,14.1252857 C11.7345714,14.1252857 11.7998571,14.5482857 11.8025714,14.736 C11.9135714,14.7205714 12.0245714,14.6995714 12.1344286,14.673 C12.1448571,14.6067143 12.1885714,14.3262857 12.1945714,14.1574286 C12.1967143,14.0921429 12.1874286,14.0358571 12.1897143,13.9662857 C12.2084286,13.3975714 12.3805714,13.444 12.252,12.9217143 C12.2377143,12.862 12.2254286,12.8145714 12.2292857,12.7725714 C11.7137143,13.0894286 11.1852857,12.6455714 11.3034286,12.6025714 C11.3055714,12.6014286 11.5242857,12.8961429 11.9521429,12.8278571 C11.7468571,12.7018571 12.1924286,12.5837143 12.1107143,12.7835714 C12.5462857,12.6058571 12.2382857,11.9587143 12.2972857,11.9387143 C12.3392857,11.9255714 12.5005714,12.3562857 12.2872857,12.7305714 C12.2442857,12.8067143 12.3568571,13.0917143 12.3348571,13.338 C12.3608571,13.3567143 12.4435714,13.6814286 12.6418571,13.8724286 C12.6771429,13.9044286 12.5794286,14.0435714 12.3254286,13.4164286 C12.321,13.4462857 12.315,13.476 12.3084286,13.508 C12.3084286,13.508 12.2011429,13.8955714 12.2321429,14.0348571 C12.257,14.0888571 12.2872857,14.1628571 12.321,14.249 C12.436,14.5438571 12.596,14.9645714 12.7827143,14.9645714 C12.9642857,14.9645714 13.0482857,14.8562857 13.0835714,14.7184286 L13.0835714,14.7184286 Z" id="Fill-69" fill="#F7B500"></path>
                    <path d="M24.2161,12.7422059 C24.10075,12.7422059 24.09145,12.5888235 24.2161,12.5888235 C24.34075,12.5888235 24.33085,12.7422059 24.2161,12.7422059 Z M24.29155,11.3542647 C24.3106,11.3564706 24.35875,11.4076471 24.21025,11.3905882 C24.0172,11.3667647 23.8462,11.3463235 23.47465,11.3463235 C23.4445,11.3463235 23.4445,11.3007353 23.47465,11.3007353 C23.90245,11.3007353 24.0289,11.3225 24.29155,11.3542647 Z M23.4241,10.7666176 C23.4235,10.7370588 23.4694,10.7370588 23.47,10.7666176 C23.47585,11.2439706 23.0908,11.4133824 23.07685,11.3269118 C23.06935,11.2826471 23.4316,11.285 23.4241,10.7666176 Z M22.78585,10.9472059 C22.7917,10.9825 22.8316,11.0917647 22.79335,11.1017647 C22.7482,11.1132353 22.71685,10.7892647 22.6843,10.7017647 C22.67395,10.6767647 22.73245,10.5813235 22.78585,10.9472059 Z M22.75975,11.3007353 C22.76785,11.3007353 22.8601,11.3497059 22.64665,11.3429412 C22.48435,11.3372059 22.24315,11.3302941 21.98575,11.3725 C21.94,11.3792647 21.84025,11.2723529 22.64785,11.2973529 C22.69015,11.2997059 22.72675,11.3007353 22.75975,11.3007353 Z M25.3906,11.8613235 L25.80805,12.0930882 L25.8592,12.3763235 C25.9021,12.6126471 26.20405,12.7923529 25.76755,13.0151471 C25.72405,12.8967647 25.67245,12.7969118 25.62145,12.7161765 C25.55125,12.6092647 25.48225,12.5354412 25.429,12.4989706 C25.3558,12.4477941 25.5217,12.2033824 25.3906,11.8613235 Z M23.0485,12.2966176 C23.04385,12.3239706 22.99855,12.3170588 23.0032,12.2886765 C23.03275,12.0976471 23.0299,11.8875 23.0299,11.6816176 C23.0299,11.6532353 23.07565,11.6532353 23.07565,11.6816176 C23.07565,11.8827941 23.07865,12.1045588 23.0485,12.2966176 Z M26.5201,13.0754412 C26.52985,13.0480882 26.57335,13.0627941 26.56285,13.0901471 C26.46025,13.3766176 26.4985,13.7495588 26.0092,14.2826471 C25.98955,14.3042647 25.95535,14.2735294 25.9756,14.2519118 C26.4574,13.7277941 26.4151,13.3664706 26.5201,13.0754412 Z M26.29345,11.7647059 C26.42035,11.6361765 26.5357,11.6167647 26.65855,11.7282353 C26.5717,11.7339706 26.48185,11.7758824 26.4193,11.8329412 C26.37805,11.81 26.3356,11.7873529 26.29345,11.7647059 Z M26.46145,11.8567647 C26.60125,11.7385294 26.8372,11.7498529 26.9554,11.8714706 C26.8366,11.8647059 26.7166,11.8817647 26.6221,11.9464706 C26.5693,11.9169118 26.51545,11.8863235 26.46145,11.8567647 Z M26.665,11.9726471 C26.8024,11.8897059 27.0859,11.8635294 27.16705,12.05 C27.07375,12.0454412 26.97295,12.0761765 26.89045,12.1158824 L26.665,11.9726471 Z M26.93395,12.1444118 C27.29575,11.9886765 27.2704,12.2295588 27.17755,12.3148529 L26.93395,12.1444118 Z M23.87515,12.9752941 C23.8624,12.9502941 23.90305,12.9298529 23.9158,12.9560294 C23.9488,13.0197059 24.1924,13.3857353 24.1198,13.4005882 L23.87515,12.9752941 Z M23.1997,14.1735294 C23.12545,14.1735294 23.22235,14.0517647 23.398,14.2064706 C23.56795,14.3564706 23.46295,14.4701471 23.45185,14.3975 C23.4316,14.2679412 23.31865,14.1735294 23.1997,14.1735294 Z M22.92955,13.3742647 C22.936,13.3458824 22.9807,13.355 22.97545,13.3833824 C22.94935,13.5083824 22.97605,13.9916176 23.0293,14.1622059 C23.0398,14.1963235 22.9603,14.2872059 22.9273,13.8075 C22.91455,13.6152941 22.9192,13.4289706 22.92955,13.3742647 Z M22.98415,12.9207353 C22.98415,12.8479412 23.1088,12.94 22.9528,13.1492647 C22.9354,13.1730882 22.8982,13.1470588 22.91635,13.1230882 C22.9696,13.0514706 22.98415,13.0208824 22.98415,12.9207353 Z M22.6879,13.1219118 C22.71385,13.0911765 22.73305,13.1379412 22.7116,13.1651471 C22.5847,13.3175 22.2466,13.7233824 22.315,13.9473529 C22.34275,14.0405882 22.0129,13.9347059 22.6879,13.1219118 Z M19.12345,14.0825 C19.26205,14.0825 19.23415,14.0075 19.51255,13.9086765 C19.5514,13.895 19.73275,13.8017647 19.7485,13.8244118 C19.78435,13.8779412 19.4104,13.9802941 19.2562,14.0825 L19.5031,14.0825 C19.68865,14.0144118 19.94905,14.0267647 20.07715,13.8597059 C20.09515,13.8358824 20.1316,13.8630882 20.11375,13.8870588 C20.01175,14.02 19.9003,14.0110294 19.73095,14.0825 L20.974,14.0825 C20.9983,14.0825 21.01705,14.1019118 21.01705,14.1245588 L21.01705,14.7623529 C21.07555,14.8623529 21.2419,14.9716176 21.35665,14.9635294 C21.59965,14.9476471 21.8965,14.1144118 21.9127,14.0041176 C21.93475,13.6994118 21.8455,13.4880882 21.8251,13.3857353 C21.58225,13.9608824 21.43615,13.8904412 21.4894,13.8392647 C21.6148,13.7154412 21.79735,13.3948529 21.81295,13.3027941 C21.7915,13.0992647 21.8239,12.9572059 21.84835,12.8526471 C21.9046,12.6069118 21.78625,12.6525 21.748,12.3920588 C21.7405,12.3398529 21.75145,11.8202941 21.84265,11.8486765 C21.90235,11.8680882 21.62455,12.6058824 22.0849,12.7513235 C21.9319,12.6558824 22.2385,12.5388235 22.2385,12.6877941 C22.2385,12.7286765 22.19965,12.7627941 22.15795,12.7672059 C22.5493,12.8219118 22.8652,12.6729412 22.85725,12.5547059 C22.85425,12.5263235 22.8994,12.5229412 22.90225,12.5513235 C22.92385,12.7808824 22.1719,12.9502941 21.91435,12.7047059 C21.93415,12.8935294 21.7783,13.08 21.8848,13.4539706 C21.8848,13.4539706 21.9985,13.9108824 21.9562,14.0176471 C21.9289,14.1098529 21.9874,14.535 22.00555,14.6611765 C22.042,14.6702941 22.18975,14.7032353 22.37065,14.7339706 C22.37935,13.8825 22.87225,14.1439706 22.66585,14.1439706 C22.471,14.1439706 22.4182,14.5804412 22.417,14.7407353 C22.831,14.8089706 23.1523,14.7929412 23.641,14.7452941 C23.61895,14.3804412 23.8282,14.2314706 23.9053,14.1882353 C23.81425,14.0747059 23.401,13.2129412 23.52025,13.2129412 C23.5471,13.2129412 23.60395,13.4869118 23.7331,13.7813235 C23.8636,14.0757353 23.99695,14.1973529 23.95,14.2166176 C23.95,14.2166176 23.66245,14.3292647 23.68615,14.7407353 L24.45085,14.6395588 C24.26935,14.3394118 24.23755,13.9814706 24.35935,13.6585294 C24.4816,13.3232353 24.26485,12.8047059 24.3673,12.8275 C24.3778,12.8298529 24.5077,13.4141176 24.4021,13.6744118 C24.2944,13.9597059 24.3118,14.2769118 24.45385,14.5508824 C24.46135,13.7154412 24.7645,13.6880882 24.6781,12.7969118 C24.67405,12.7411765 24.66355,12.6025 24.6607,12.4547059 C24.5269,12.7729412 24.03055,12.9661765 23.56855,12.7683824 C23.13895,12.5830882 23.18875,12.4751471 23.24215,12.5172059 C23.88205,13.0286765 24.5866,12.7808824 24.65725,12.3047059 C24.66415,12.2307353 24.64285,12.0442647 24.7042,12.0545588 C24.7507,12.1194118 24.7066,12.2989706 24.7054,12.3819118 C24.7222,12.8445588 25.0765,12.8548529 25.06195,12.9094118 C25.0405,12.9867647 24.7855,12.8127941 24.7129,12.6332353 L24.74245,13.1605882 C24.7402,13.3436765 25.0561,13.3833824 25.1437,13.5766176 C25.15525,13.6027941 25.1131,13.6210294 25.1014,13.5948529 C25.02535,13.4254412 24.82135,13.4141176 24.7297,13.2776471 C24.6949,13.5210294 24.63055,13.5698529 24.82825,13.8051471 C24.9466,13.9439706 25.1089,14.0916176 25.20925,14.1689706 C25.37905,14.3360294 25.40695,14.3372059 25.50025,14.5463235 C25.54885,14.6522059 25.78315,14.6885294 25.8679,14.6191176 C25.93855,14.56 26.02375,14.4405882 26.116,14.4225 C26.167,14.4122059 26.2528,14.3951471 26.4301,14.1120588 C26.6662,13.7347059 26.7346,12.9332353 26.8054,12.8195588 C26.83375,12.7705882 26.905,12.6751471 26.93695,12.6332353 L26.47135,12.3989706 C26.5798,12.7286765 26.34085,12.6729412 26.4094,12.6251471 C26.5357,12.5342647 26.39425,12.4319118 26.41975,12.3739706 C25.8556,12.0920588 26.25865,12.3126471 26.0365,11.9180882 C26.00755,11.8669118 26.17165,11.8930882 26.17975,11.8147059 C26.1745,11.7736765 26.16295,11.6816176 26.09455,11.7202941 C26.0134,11.7601471 25.8823,11.7942647 25.8487,11.8794118 C25.80805,11.9805882 25.88935,12.3694118 25.9618,12.5035294 C26.27245,13.0764706 25.5136,12.9673529 25.46545,13.5061765 C25.4383,13.8211765 25.3102,13.8255882 25.33975,13.7642647 C25.4845,13.4664706 25.36345,13.2901471 25.7269,13.0377941 C25.684,12.9197059 25.633,12.8195588 25.5826,12.7411765 C25.46965,12.5194118 25.3159,12.5751471 25.37515,12.3763235 C25.44745,12.0807353 25.3438,11.8613235 25.3246,11.8238235 L23.92045,11.1007353 C23.6317,10.9370588 23.6392,10.7164706 23.6428,10.5779412 C23.3476,10.8017647 22.9801,10.5925 22.73245,10.4811765 C22.5313,10.3914706 22.52725,10.2504412 22.4641,10.0389706 L22.43455,10.6392647 C22.45945,10.9370588 22.06585,11.0473529 21.79675,11.1292647 C20.6152,11.4951471 21.2749,12.2295588 21.1654,12.84 C21.0889,13.2595588 20.94385,13.2026471 21.0703,13.7597059 C21.0808,13.8029412 21.07375,13.8313235 21.0529,13.8495588 C21.2935,13.9255882 21.22345,13.9654412 21.41125,14.0654412 C21.4483,14.0858824 21.4165,14.1632353 21.2425,14.0007353 C21.12715,13.8926471 20.89975,13.8688235 20.7097,13.8130882 C20.43775,13.7357353 20.1589,13.6847059 19.89625,13.7154412 C19.7386,13.7335294 19.2022,13.9063235 19.12345,14.0825 L19.12345,14.0825 Z" id="Fill-72" fill="#B8561A"></path>
                    <path d="M23.5066667,9.74714286 C23.5453333,9.661 23.9363333,9.566 23.9125,9.73271429 C23.9066667,9.77357143 23.8673333,9.80785714 23.8191667,9.82985714 C23.7825,9.84542857 23.7373333,9.85428571 23.6851667,9.84871429 L23.5215,9.78585714 C23.5923333,9.96128571 23.7688333,10.2727143 23.452,10.1722857 C23.3236667,10.1325714 23.1478333,10.2992857 23.1131667,10.1325714 C23.0873333,10.0067143 23.1968333,9.99785714 23.1755,10.0441429 C23.081,10.2474286 23.3346667,10.1237143 23.3836667,10.116 C23.506,10.0982857 23.698,10.2805714 23.5196667,9.915 C23.4306667,9.73385714 23.392,9.60357143 23.6431667,9.55271429 C23.7116667,9.53842857 23.7856667,9.53628571 23.8443333,9.545 C24.0136667,9.60142857 23.9111667,9.61571429 23.8996667,9.608 C23.8848333,9.59814286 23.8621667,9.59142857 23.8358333,9.58814286 C23.7141667,9.56942857 23.4558333,9.59585714 23.5066667,9.74714286 Z M23.5988333,10.466 C23.5203333,10.3644286 23.4101667,10.4538571 23.3578333,10.4351429 C23.119,10.349 23.0533333,10.5168571 23.0178333,10.456 C22.9996667,10.424 23.1891667,10.3147143 23.3708333,10.392 C23.468,10.3578571 23.5853333,10.37 23.6406667,10.4418571 C23.6593333,10.465 23.6161667,10.4891429 23.5988333,10.466 Z M23.5898333,10.5134286 C23.5228333,10.4825714 23.0286667,10.5411429 23.0306606,10.5002857 C23.0325,10.4694286 23.5543333,10.4605714 23.6078333,10.4847143 C23.6291667,10.4947143 23.611,10.5234286 23.5898333,10.5134286 Z M23.0533333,10.571 C23.0216667,10.5632857 23.0358333,10.5212857 23.0673333,10.529 C23.2361667,10.5721429 23.4023333,10.5974286 23.5685,10.5312857 C23.6685,10.4902857 23.5885,10.7067143 23.0533333,10.571 Z M22.7343333,9.82442857 C22.6931667,9.80342857 22.6486667,9.78028571 22.599,9.77257143 C22.5198333,9.75828571 22.8665,9.55714286 23.0835,9.74485714 C23.1163333,9.77357143 22.9785,9.94814286 22.7343333,9.82442857 Z M22.8555,9.54942857 C22.9938333,9.544 23.1253333,9.56828571 23.1833333,9.63885714 C23.2096667,9.67085714 23.1556667,9.67642857 23.1336667,9.65542857 C22.9985,9.53285714 22.6248333,9.60028571 22.487,9.70285714 C22.4135,9.75828571 22.409,9.56828571 22.8555,9.54942857 Z M23.3405,9.90728571 C23.338,9.93485714 23.287,9.93042857 23.2896667,9.90285714 C23.298,9.82771429 23.298,9.78028571 23.2521667,9.71514286 C23.2168333,9.66328571 23.3675,9.65657143 23.3405,9.90728571 Z M23.937,9.68857143 C23.9846667,9.51742857 23.8855,9.31428571 23.8223333,9.14414286 C23.5543333,9.30985714 22.3916667,9.11871429 22.2338333,9.07128571 C22.1545,9.33414286 22.2221667,9.52185714 22.2221667,9.73828571 C22.2266667,9.81557143 22.145,9.66328571 22.0341667,9.80342857 L22.0101667,9.81785714 C22.0006667,9.89285714 22.1056667,10.0518571 22.1571667,10.1104286 C22.286,10.1071429 22.2853333,10.0365714 22.3098333,10.0365714 C22.3786667,10.0365714 22.3181667,10.1435714 22.1778333,10.1524286 C22.313,10.5677143 22.2711667,10.6184286 22.6023333,10.7531429 C23.0306667,10.9275714 23.3913333,11.016 23.6381667,10.5985714 C23.6586667,10.5654286 23.6786667,10.5345714 23.7,10.5035714 C24.1413333,9.88185714 23.8655,9.94371429 23.937,9.68857143 L23.937,9.68857143 Z" id="Fill-92" fill="#B8561A"></path>
                    <path d="M10.3246667,9.07525 C10.0676667,9.1855 10.1848333,9.3575 10.2015,9.259 C10.21,9.207 10.306,9.1585 10.3343333,9.15075 C10.5385,9.091 10.6898333,9.0485 10.8535,9.22225 C10.9315,9.3035 10.9288333,8.90325 10.3246667,9.07525" id="Fill-95" fill="url(#radialGradient-3)"></path>
                    <path d="M11.8873333,9.90842857 C11.9008333,9.86414286 11.9008333,9.83428571 11.8931667,9.81671429 L11.8846667,9.80671429 L11.8486667,9.82328571 C11.7913333,9.88185714 11.7933333,9.71842857 11.9118333,9.77028571 C11.924,9.77585714 11.9336667,9.787 11.9401667,9.80114286 C11.9936667,9.92042857 11.868,9.968 11.8873333,9.90842857 Z M11.5201667,9.63557143 C11.3565,9.53628571 11.2051667,9.56057143 11.001,9.59471429 C10.9726667,9.59914286 10.8766667,9.62685714 10.8681667,9.65657143 C10.8515,9.71285714 10.7343333,9.61457143 10.9913333,9.55157143 C11.5955,9.45328571 11.5981667,9.682 11.5201667,9.63557143 Z M11.4158333,9.77257143 C11.2445,9.80014286 11.0751667,9.96685714 10.9301667,9.76585714 C10.9301667,9.76585714 11.0118333,9.54828571 11.4223333,9.74271429 L11.4158333,9.77257143 Z M10.9855,10.5112857 C10.961,10.5112857 10.7355,10.3997143 10.6808333,10.4671429 C10.6628333,10.4891429 10.5861667,10.4384286 10.4985,10.4814286 C10.4863333,10.487 10.4733333,10.4937143 10.4573333,10.5002857 C10.4083333,10.5212857 10.4225,10.4428571 10.4733333,10.4428571 C10.5315,10.4152857 10.5706667,10.3964286 10.6536667,10.4284286 C10.7781667,10.339 11.1201667,10.5112857 10.9855,10.5112857 Z M10.7026667,10.6228571 C10.3916667,10.6272857 10.3946667,10.5035714 10.4573333,10.5312857 C10.4321667,10.5168571 10.5358333,10.4505714 10.9585,10.5091429 C10.9823333,10.5134286 10.9758333,10.5455714 10.952,10.5422857 C10.7993333,10.5201429 10.6118333,10.5112857 10.4818333,10.5334286 C10.4733333,10.5345714 10.4675,10.5345714 10.4638333,10.5334286 C10.6196667,10.6051429 10.7928333,10.5797143 10.9598333,10.5465714 C11.0176667,10.5345714 11.03,10.6195714 10.7026667,10.6228571 Z M10.3851667,10.0011429 C10.396,9.979 10.407,9.95914286 10.4121667,9.94257143 L10.4643333,9.78242857 C10.3618333,9.90057143 10.114,9.90285714 10.1086667,9.69642857 C10.1081667,9.68971429 10.1126667,9.68314286 10.1196667,9.68085714 L10.1815,9.65985714 C10.277,9.64771429 10.2865,9.60585714 10.4508333,9.71071429 C10.4618333,9.71728571 10.4695,9.724 10.474,9.73171429 C10.496,9.523 10.0888333,9.56157143 10.1165,9.48871429 C10.134,9.44342857 10.3858333,9.54828571 10.4251667,9.56271429 L10.4258333,9.56271429 L10.4251667,9.56271429 C10.5945,9.62342857 10.512,9.82228571 10.4606667,9.95471429 C10.3826667,10.19 10.32,10.1668571 10.5675,10.1788571 C10.6673333,10.074 10.8213333,10.2252857 10.8418333,10.1248571 C10.8476667,10.0961429 10.8096667,10.0275714 10.8445,10.0154286 C10.898,9.99671429 10.9553333,10.2628571 10.7388333,10.1932857 C10.6176667,10.1557143 10.6208333,10.2264286 10.5758333,10.2231429 C10.4708333,10.2131429 10.2435,10.275 10.3851667,10.0011429 Z M10.7073333,9.69742857 C10.7156667,9.67085714 10.7645,9.68314286 10.7555,9.70957143 C10.7388333,9.76042857 10.6756667,10.0034286 10.6345,9.99671429 C10.579,9.98671429 10.6891667,9.74928571 10.7073333,9.69742857 Z M11.9705,9.80114286 C11.8565,9.63014286 11.7436667,9.85971429 11.7436667,9.76471429 L11.7585,9.12542857 C11.5093333,9.18057143 10.4045,9.36057143 10.179,9.15528571 C9.99733333,9.641 10.1041667,10.1932857 10.3748333,10.6295714 C10.5958333,10.9817143 11.0306667,10.9585714 11.4241667,10.7587143 C11.7758333,10.5785714 11.7088333,10.4418571 11.7676667,10.1888571 C11.5658333,10.1645714 11.662,9.99228571 11.6851667,10.0772857 C11.7173333,10.1955714 11.8751667,10.1778571 11.9291667,9.96914286 C11.9195,9.91614286 12.0046667,9.85428571 11.9705,9.80114286 L11.9705,9.80114286 Z" id="Fill-98" fill="#F7B500"></path>
                </g>
            </g>
        </g>
        <rect id="Rectangle" stroke="#DDE2E3" stroke-width="3" opacity="0" fill-rule="nonzero" x="1.5" y="1.5" width="45" height="45" rx="5"></rect>
        <g id="Group" transform="translate(19.900000, 21.000000)">
            <path d="M4.02059055,0 L4.02059055,3.68492126 L7.65425197,6.90685039 C7.90786545,6.15324115 8.03579357,5.36304758 8.03291339,4.56791339 L8.03291339,0 L4.02059055,0" id="Path" fill="#FFD83C" fill-rule="nonzero"></path>
            <path d="M0.378661417,6.89031496 L4.01976378,3.68492126 L7.66251969,6.88122047 C7.53005959,7.28145162 7.35254255,7.66533222 7.13338583,8.02547244 L7.10362205,8.07259843 C6.58935547,9.22999549 4,10.4991732 4,10.4991732 C4,10.4991732 1.7956543,9.73553467 0.900354331,8.00893701 L0.892086614,8.00893701 C0.682602157,7.65456697 0.510837436,7.27973203 0.378661417,6.89031496 Z" id="Path" fill="#9DD7FF" fill-rule="nonzero"></path>
            <path d="M4.02059055,0 L4.02059055,3.68492126 L0.378661417,6.90685039 C0.125018682,6.15324839 -0.00291022883,5.36304994 1.40989583e-14,4.56791339 L1.40989583e-14,0 L4.02059055,0" id="Path" fill="#FFFFFF" fill-rule="nonzero"></path>
            <path d="M8.03291339,0 L8.03291339,4.56791339 C8.03291339,5.47653543 7.90724409,9.09366142 4.02059055,10.4991732 C0.126496063,9.09366142 0,5.47653543 0,4.56791339 L0,0 L8.03291339,0" id="Path" stroke="#000000" stroke-width="0.1"></path>
        </g>
    </g>
</svg>