<?xml version="1.0" encoding="UTF-8"?>
<svg width="48px" height="48px" viewBox="0 0 48 48" version="1.1" xmlns="http://www.w3.org/2000/svg" xmlns:xlink="http://www.w3.org/1999/xlink">
    <!-- Generator: Sketch 64 (93537) - https://sketch.com -->
    <title>Graphics / 01 Flags/CAD</title>
    <desc>Created with Sketch.</desc>
    <defs>
        <rect id="path-1" x="0" y="0" width="48" height="48"></rect>
    </defs>
    <g id="Graphics-/-01-Flags/CAD" stroke="none" stroke-width="1" fill="none" fill-rule="evenodd">
        <g id="Flag">
            <mask id="mask-2" fill="white">
                <use xlink:href="#path-1"></use>
            </mask>
            <g id="Mask" fill-rule="nonzero"></g>
            <rect id="Rectangle" fill="#FFFFFF" mask="url(#mask-2)" x="6" y="0" width="36" height="48"></rect>
            <path d="M11.52,23.6790841 L17.2228813,28.6873498 C18.2669647,29.6063151 17.4565751,30.5440037 16.9552643,31.4327827 L23.4986892,30.6162218 L23.2951495,37.2480565 L24.7048505,37.2480565 L24.4033102,30.6162218 L30.9429659,31.4327827 C30.4755784,30.4805741 29.9101903,29.3231745 30.8939656,28.4775735 L36.48,23.6790841 C35.9447659,23.4612836 35.3153005,23.3825698 35.1871459,22.771582 C34.9722984,21.7303427 35.7751495,19.5829059 36.1709212,18.427799 C35.040145,18.8916759 33.5588281,19.2481809 32.5976684,19.1495975 C32.0737421,19.0953385 31.7722018,17.7228131 31.553585,17.250912 L28.6135669,20.4078732 C27.8295621,21.2477426 27.531791,20.8579943 27.754177,19.7816012 L29.133724,13.0687599 L27.1624041,14.1967373 C26.581939,14.5295518 26.3934763,14.5643234 26.0655512,13.8845565 L24,9.6 L21.87791,13.900605 C21.5499849,14.5658519 21.5198309,14.5815182 20.897904,14.2380048 L18.9680459,13.170018 L20.1515917,19.8102591 C20.3400544,20.8599048 20.1402839,21.2416289 19.3223558,20.3287772 L16.5519541,17.250912 C16.2843371,17.9727105 15.9488735,18.8836516 15.4475627,19.1897187 C14.8407128,19.3933813 13.1294715,18.8160188 11.9233102,18.4755622 C12.3153126,19.6161492 13.2312413,21.5801749 13.0691634,22.649308 C12.9636243,23.3420665 12.1381577,23.437593 11.52,23.6790841" id="Fill-2253" fill="#F30004" mask="url(#mask-2)"></path>
            <polygon id="Fill-2251" fill="#F30004" mask="url(#mask-2)" points="-0.212765957 48 7.78723404 48 7.78723404 0 -0.212765957 0"></polygon>
            <polygon id="Fill-2252" fill="#F30004" mask="url(#mask-2)" points="40.212766 48 48.212766 48 48.212766 0 40.212766 0"></polygon>
        </g>
        <rect id="Rectangle" stroke="#DDE2E3" stroke-width="3" opacity="0" fill-rule="nonzero" x="1.5" y="1.5" width="45" height="45"></rect>
    </g>
</svg>