<?xml version="1.0" encoding="UTF-8"?>
<svg width="48px" height="48px" viewBox="0 0 48 48" version="1.1" xmlns="http://www.w3.org/2000/svg" xmlns:xlink="http://www.w3.org/1999/xlink">
    <!-- Generator: Sketch 64 (93537) - https://sketch.com -->
    <title>Graphics / 01 Flags/CNY</title>
    <desc>Created with Sketch.</desc>
    <defs>
        <rect id="path-1" x="0" y="0" width="48" height="48"></rect>
    </defs>
    <g id="Graphics-/-01-Flags/CNY" stroke="none" stroke-width="1" fill="none" fill-rule="evenodd">
        <g id="Flag">
            <mask id="mask-2" fill="white">
                <use xlink:href="#path-1"></use>
            </mask>
            <g id="Mask" fill-rule="nonzero"></g>
            <polygon id="Fill-8442" fill="#F30004" mask="url(#mask-2)" points="0 48 48 48 48 0 0 0"></polygon>
            <path d="M29.3775811,4 L27.7079646,6.15124698 L25.0521141,5.28962188 L26.6784661,7.47090373 L25,9.61558058 L27.6745329,8.81214803 L29.2930187,11 L29.3195674,8.32220434 L32,7.52909627 L29.3402163,6.67779566 L29.3775811,4 Z M11.885906,13.8900256 L5,13.8746803 L10.5781271,18.1184996 L8.43768299,25 L14.0004054,20.7340153 L19.5631278,25 L17.4226837,18.1184996 L23,13.8746803 L16.1157155,13.8900256 L14.0004054,7 L11.885906,13.8900256 Z M34.654224,12.6768571 L32,13.5375436 L34.6797642,14.3222043 L34.7151277,17 L36.3251473,14.8083937 L39,15.6033789 L37.3163065,13.4624564 L38.9341847,11.2774202 L36.2829077,12.1456154 L34.608055,10 L34.654224,12.6768571 Z M34.677216,22.6480651 L32,22.5931015 L34.1421483,24.2743971 L33.2644495,26.9195177 L35.455411,25.3108525 L37.5909883,27 L36.8034062,24.3234717 L39,22.7236399 L36.3237227,22.6784913 L35.5455277,20 L34.677216,22.6480651 Z M28.675835,28.1909615 L26,27.3949309 L27.6836935,29.5361405 L26.0638507,31.7214698 L28.7151277,30.8531581 L30.3899804,33 L30.3447937,30.322784 L33,29.4638595 L30.3202358,28.677216 L30.2858546,26 L28.675835,28.1909615 Z" id="Fill-1" fill="#FFF200" mask="url(#mask-2)"></path>
        </g>
        <rect id="Rectangle" stroke="#DDE2E3" stroke-width="3" opacity="0" fill-rule="nonzero" x="1.5" y="1.5" width="45" height="45"></rect>
    </g>
</svg>