<?xml version="1.0" encoding="UTF-8"?>
<svg width="48px" height="48px" viewBox="0 0 48 48" version="1.1" xmlns="http://www.w3.org/2000/svg" xmlns:xlink="http://www.w3.org/1999/xlink">
    <!-- Generator: Sketch 64 (93537) - https://sketch.com -->
    <title>Graphics / 01 Flags/EGP</title>
    <desc>Created with Sketch.</desc>
    <defs>
        <rect id="path-1" x="0" y="0" width="48" height="48" rx="5"></rect>
        <linearGradient x1="0%" y1="50.0295162%" x2="100%" y2="50.0295162%" id="linearGradient-3">
            <stop stop-color="#131313" offset="0%"></stop>
            <stop stop-color="#000000" offset="100%"></stop>
        </linearGradient>
        <linearGradient x1="49.9998889%" y1="146.591398%" x2="49.9998889%" y2="74.6210386%" id="linearGradient-4">
            <stop stop-color="#CF222A" offset="0%"></stop>
            <stop stop-color="#EB1C23" offset="100%"></stop>
        </linearGradient>
    </defs>
    <g id="Graphics-/-01-Flags/EGP" stroke="none" stroke-width="1" fill="none" fill-rule="evenodd">
        <g id="Flag">
            <mask id="mask-2" fill="white">
                <use xlink:href="#path-1"></use>
            </mask>
            <g id="Mask" fill-rule="nonzero"></g>
            <g id="EGP" mask="url(#mask-2)">
                <polygon id="Fill-1" fill="url(#linearGradient-3)" points="0 48 48 48 48 33 0 33"></polygon>
                <polygon id="Fill-3" fill="url(#linearGradient-4)" points="0 14 48 14 48 0 0 0"></polygon>
                <polygon id="Fill-5" fill="#FFFFFF" points="0 33 48 33 48 14 0 14"></polygon>
                <path d="M23.6647038,20.7716553 L23.6647038,24.4844438 C23.9101709,24.7854595 24.1889535,25.062192 24.4982231,25.3121185 C24.7880062,25.0781179 25.0509168,24.8195188 25.2847548,24.542944 L25.2847548,20.7642442 C24.9792568,20.6642736 24.6962311,20.5376547 24.5145666,20.3913254 C24.3127871,20.5351317 23.9983316,20.6667965 23.6647038,20.7716553 Z M26.8105163,21.9660991 C26.7662002,22.1988382 26.7078979,22.4293698 26.6349806,22.6559593 L26.7218841,24.8561011 L26.9915521,25.8141791 L26.8105163,21.9660991 Z M22.1068839,20.7509989 C22.1081411,20.7180433 22.1098698,20.6972292 22.1104984,20.6910796 C22.6801642,20.8118643 24.1331656,20.4291692 24.5266671,19.9928621 C24.8906247,20.4693782 26.3197394,20.8069761 26.8900338,20.692341 C26.891291,20.7107899 26.8925481,20.7301848 26.8938053,20.7509989 C27.0170103,20.708267 27.1639448,20.6289527 27.2510054,20.5900052 L27.4939581,26.3274351 L27.743511,26.560332 L27.4986726,20.4657515 C27.5667182,20.3974751 27.8145424,20.2169288 27.9385331,20.0926751 L28.2493742,27.0306984 L28.5008129,27.2659605 L28.1862003,19.8999872 C28.2536173,19.8329722 28.6260608,19.525807 28.7498944,19.4015533 L29.1289382,27.8498582 L29.3093455,28.0179476 L28.941145,19.2675233 C29.0524066,19.2675233 29.3201888,19.4222097 29.503739,19.5442559 C29.4891242,19.3064709 29.4399365,19.123717 29.3627762,18.9884256 L29.3621476,18.9884256 C28.991747,18.3375128 27.9523623,18.7738199 27.4700714,19.0663207 C27.003024,19.3662325 26.4971608,19.5136655 25.9438385,19.5247032 C26.0403281,19.6514799 26.1721763,19.6819126 26.3136105,19.7429356 C26.0470855,19.7257482 25.6983715,19.7136067 25.4628048,19.6014946 C25.4876344,19.6915312 25.5215786,19.763592 25.5622803,19.8465329 C25.2105804,19.8501596 25.0496596,19.7844061 24.8030926,19.5332181 C24.6901023,19.6404421 24.5885839,19.7453009 24.4950801,19.870816 L24.1738672,19.5332181 C23.9691018,19.7112415 23.7643364,19.8367566 23.5202837,19.9524955 L23.6235308,19.525807 C23.3617202,19.6659866 23.1200248,19.7281135 22.832756,19.7795179 C22.9008016,19.6953156 22.9701044,19.6125323 23.035007,19.5247032 C22.4920566,19.5113003 21.9883935,19.3600829 21.5298321,19.0663207 C21.0475413,18.7738199 20.0095709,18.3375128 19.6383845,18.9884256 C19.5605957,19.123717 19.5109365,19.3064709 19.4963216,19.5442559 C19.6803433,19.4222097 19.9476541,19.2675233 20.0587586,19.2675233 L19.6899294,28.0338735 L19.8709653,27.8692531 L20.2506377,19.4015533 C20.3744713,19.525807 20.7462863,19.8329722 20.8137033,19.8999872 L20.4990906,27.2976546 L20.7492721,27.0698036 L21.0621561,20.0926751 C21.1861469,20.2169288 21.433814,20.3974751 21.501231,20.4657515 L21.2552925,26.6101596 L21.5048454,26.3835701 L21.7496838,20.5900052 C21.8359587,20.6289527 21.9835218,20.708267 22.1068839,20.7509989 Z M22.2192456,21.3360004 C22.2951487,22.270899 22.6833072,24.1492112 24.4982231,25.5667755 C26.3154963,24.1468459 26.7042834,22.2660109 26.7806579,21.3336352 L26.7558284,20.8167524 C26.1970058,20.8629533 24.8972249,20.5400199 24.5199097,20.1462871 C24.1240509,20.5034376 22.8101266,20.8642148 22.2442323,20.8167524 L22.2192456,21.3360004 Z M22.0085086,25.8141791 L22.2781766,24.8561011 L22.3655515,22.6401911 C22.2872912,22.3817497 22.2313461,22.1392343 22.1919017,21.91501 L22.0085086,25.8141791 Z M25.4232032,19.7574424 C25.1698788,19.7453009 25.0150868,19.6270391 24.8437942,19.4490157 C24.7630195,19.1894706 24.7630195,17.7974508 24.7630195,17.7927203 C24.7617623,17.7364277 24.6743874,17.7364277 24.6743874,17.7927203 C24.6743874,17.7974508 24.675016,19.1418505 24.7551621,19.4575306 C24.7059744,19.5051506 24.577112,19.6270391 24.4872227,19.7355246 L24.2298123,19.4636802 C24.4501355,19.0078205 24.5158238,17.7463617 24.5158238,17.7425773 C24.5188097,17.6866001 24.4314347,17.681712 24.4282917,17.7389506 C24.4282917,17.7425773 24.3615033,19.0261117 24.141023,19.4442853 C24.1069217,19.4759794 23.9078136,19.6525836 23.6502461,19.790398 L23.7297636,19.4575306 C24.0644914,19.0699474 24.2382984,17.7840478 24.2382984,17.7804211 C24.2453701,17.7244439 24.1598809,17.7121447 24.1513949,17.7681219 C24.1507663,17.7719063 23.9788451,19.0407761 23.660618,19.4040763 C23.6235308,19.4270979 23.3907928,19.5672775 23.0494648,19.6478532 C23.5440133,18.9945752 23.8883271,18.2764898 23.9291859,17.451338 C23.935629,17.3111584 23.9296574,17.1854856 23.9107995,17.0818883 C24.0036746,16.9710376 24.1476233,16.9699338 24.2071828,17.0027318 C24.0231611,16.6857902 23.4212797,16.009333 23.1473687,16.6028493 L23.1454829,16.6028493 C23.1005383,16.3615953 23.158212,16.2324535 23.363606,16.2056475 C23.8378822,16.1422592 23.8513971,16.459043 24.2188119,16.5419839 C24.3596175,16.5736781 24.337931,16.6821635 24.4418066,16.6760139 C24.580255,16.6711258 24.4488783,16.4396481 25.049031,16.4543126 C25.1937654,16.4566778 25.2611824,16.4517896 25.3150846,16.5932307 C25.5429509,17.2039344 25.2944981,18.1692658 25.6692989,19.1784328 C25.7403303,19.3687554 25.8234622,19.5234418 25.9128801,19.6234124 C25.7535308,19.602756 25.5154498,19.5600241 25.4305893,19.4772409 C25.143792,19.049291 25.0740178,17.8657273 25.0733892,17.8621006 C25.0691461,17.8059656 24.9828712,17.8095923 24.9860142,17.8669887 C24.9864857,17.8706154 25.0570456,19.0699474 25.3540576,19.5221803 C25.3589292,19.5502478 25.3782586,19.6478532 25.4232032,19.7574424 Z M23.2851886,27.063654 L22.8934156,27.6754615 L22.68205,27.0295946 C22.6680637,26.9868627 22.6055183,26.9781902 22.5806887,27.0185569 L22.1974019,27.6511785 L21.9137476,26.6052714 L22.4658127,26.0361958 L22.6413483,26.6626678 C22.6529774,26.705242 22.7123798,26.7175413 22.7397237,26.6796975 L23.1217534,26.1604495 L23.2851886,27.063654 Z M23.0757087,24.1649794 L23.1352682,24.7269593 L23.336262,24.5331677 C23.2427583,24.4112792 23.1558548,24.288287 23.0757087,24.1649794 Z M22.3600513,24.9488184 C22.4026387,25.0170948 22.4779132,25.2328043 22.5139003,25.3218948 L23.0331213,24.824407 L22.9396175,23.9456433 C22.8685861,23.8250163 22.8028977,23.7043893 22.7433382,23.584866 L22.3600513,24.9488184 Z M21.9506777,26.4054879 C22.0180947,26.3372114 22.4329685,25.8860822 22.4785418,25.8739407 C22.5084001,25.8654259 22.5387299,25.8824556 22.547216,25.9128882 L22.71788,26.5212267 L23.1090243,25.9896796 C23.1369969,25.9519935 23.2001708,25.9653965 23.2086569,26.0128589 L23.3757065,26.9394003 L23.7960806,26.2981062 L23.5440133,25.4229692 C23.4959256,25.485096 23.2499871,25.8422466 23.1978136,25.8471347 C23.1673267,25.8520229 23.1401399,25.8288436 23.1369969,25.7984109 L23.0482076,24.9647443 C22.9784333,25.0328631 22.5594736,25.4522981 22.5150004,25.4704316 C22.4865564,25.4827308 22.4537122,25.4693278 22.4420832,25.4399989 L22.3121208,25.1217959 L21.9506777,26.4054879 Z M23.8378822,26.443174 L23.8372536,26.4408088 L23.4060363,27.0977134 L23.5469991,27.770544 L23.8378822,26.443174 Z M23.8062953,25.0793794 L23.6277738,25.3121185 L23.8768552,26.1763755 L23.9052992,26.1311206 L24.0791062,25.3425512 C23.9830881,25.2547221 23.8931988,25.1670507 23.8062953,25.0793794 Z M23.728035,24.9962808 C23.6126875,24.8720271 23.5056689,24.7488771 23.4055648,24.6221005 L23.1503545,24.8671389 L23.233015,25.6460897 C23.3988074,25.4291188 23.5620854,25.2134093 23.728035,24.9962808 Z M25.861178,26.1604495 L26.2438363,26.6796975 C26.2718089,26.7175413 26.3307398,26.705242 26.3428403,26.6626678 L26.5177473,26.0361958 L27.070441,26.6052714 L26.7855296,27.6511785 L26.4028713,27.0185569 C26.3786703,26.9781902 26.3161249,26.9868627 26.3015101,27.0295946 L26.090773,27.6754615 L25.6983715,27.063654 L25.861178,26.1604495 Z M26.6877828,25.1217959 L26.5578204,25.4399989 C26.5425769,25.4765812 26.4959036,25.4863575 26.4673024,25.4595515 L25.9625393,24.9745206 L25.8751643,25.7984109 C25.8696641,25.8483962 25.8047615,25.8643221 25.7755317,25.8264783 L25.4420611,25.3889098 L25.1815078,26.2908528 L25.6080107,26.9394003 L25.7749031,26.0128589 C25.7840178,25.9653965 25.8471918,25.9519935 25.8751643,25.9896796 L26.2663086,26.5212267 L26.4363441,25.9128882 C26.4484445,25.8692102 26.5031325,25.8581725 26.5317336,25.8898666 L27.0558262,26.4285095 L26.6877828,25.1217959 Z M26.0780439,23.8932927 L25.9777827,24.8354448 L26.4855318,25.3218948 C26.5202617,25.2376924 26.598522,25.0111029 26.6398523,24.9475569 L26.2535796,23.5727245 C26.198263,23.6810523 26.1393321,23.788434 26.0780439,23.8932927 Z M25.654684,24.5259143 L25.8757929,24.7379971 L25.9413241,24.1138903 C25.8514348,24.2553314 25.7554166,24.3918843 25.654684,24.5259143 Z M25.2731258,24.981774 L25.7786747,25.6460897 L25.861178,24.8769152 L25.5853812,24.6148472 C25.4857486,24.7416238 25.3812444,24.8647737 25.2731258,24.981774 Z M25.1012046,26.1653377 L25.357672,25.2779014 L25.1954941,25.0658187 C25.1067048,25.1596397 25.0144582,25.2499917 24.9196973,25.337663 L25.1012046,26.1653377 Z M25.5781523,27.0977134 L25.1686216,26.4748681 L25.4444184,27.7315965 L25.5781523,27.0977134 Z M23.8914701,28.9870633 C23.5949296,29.0712657 22.9468464,29.0187575 22.614633,28.9809137 C22.6437056,28.7128537 22.416625,28.3995389 22.1596861,28.6579803 C22.0922691,28.7249953 22.0735683,28.8017866 22.0606821,28.8896156 C21.7884997,28.8394726 20.9758812,28.699293 20.8126032,28.5933305 C20.831304,28.5214273 20.8234465,28.4752264 20.8166891,28.4348597 C20.799717,28.3337853 20.87452,28.297203 20.8696484,28.2423296 C20.9054784,28.2289266 20.9436657,28.2252999 20.9796528,28.2325533 C21.1842611,28.2984645 21.4204563,28.3654795 21.670795,28.4227182 C22.1494714,28.5324651 22.6529774,28.6018453 23.1467401,28.6311743 C23.4072935,28.6469425 23.6593608,28.6469425 23.8817269,28.6190327 C23.9491439,28.6202942 24.0104321,28.6627107 24.0437477,28.7201071 C24.1160363,28.8407341 23.9411293,28.8345845 23.8914701,28.9870633 Z M25.112205,29.1040636 C25.4518044,29.1808549 26.0538429,29.1333925 26.4174862,29.0893992 C26.4838031,29.2125491 26.6307376,29.2382513 26.6307376,29.402714 L26.7424707,29.402714 C26.7424707,29.2259521 26.9022914,29.1625638 26.9368642,29.004093 C27.3019218,28.937078 27.8041706,28.8358459 28.1450272,28.7407635 C28.2658749,28.7067041 28.5215566,28.7822339 28.5215566,29.0614894 C28.5215566,29.1259815 28.583002,29.1772282 28.647276,29.1638252 C28.8020679,29.1308696 28.9188298,29.3867881 29.0250626,29.4771401 C29.008562,29.5184528 28.9972472,29.5673344 28.984361,29.6196849 C28.8987147,29.973051 28.7129643,29.8464321 28.7129643,29.9987533 C28.7129643,30.3144333 28.6934778,30.3278363 28.4172096,30.4071506 C26.6822825,30.8970696 22.3231212,30.914257 20.596366,30.4071506 C20.5919658,30.4058891 20.5883513,30.4058891 20.5841083,30.4047853 C20.287725,30.3522771 20.287725,30.1986945 20.287725,29.9987533 L20.2870964,29.9987533 C20.2870964,29.9549176 20.2592809,29.9134471 20.2154363,29.8987827 C20.0138139,29.8317677 20.0350291,29.6256768 19.9748409,29.4771401 C20.0769879,29.3905724 20.1995643,29.1308696 20.3477559,29.1625638 C20.4134443,29.1772282 20.4796041,29.1308696 20.4796041,29.0614894 C20.4796041,28.7396597 20.80286,28.7164804 20.8452903,28.7371368 C20.9868817,28.8041518 21.8262155,28.9602573 22.0631965,29.004093 C22.0977693,29.1625638 22.2568043,29.2259521 22.2568043,29.402714 L22.3691659,29.402714 C22.3691659,29.2382513 22.5162576,29.2112876 22.5824174,29.0893992 C22.9468464,29.1333925 23.5482563,29.1808549 23.8876985,29.1040636 C23.9273001,29.2235868 24.1957109,29.3027434 24.1957109,29.4344081 L24.1963395,29.4344081 C24.1963395,29.4503341 24.204197,29.4673638 24.2188119,29.4784015 C24.3341594,29.5622885 24.4282917,29.1650867 24.4363063,29.0942873 L24.5643829,29.0980717 C24.5796264,29.2308402 24.6305427,29.3673931 24.7028314,29.4661023 C24.7344184,29.5111994 24.8037211,29.4856549 24.8043497,29.4344081 C24.8043497,29.3027434 25.0727606,29.2235868 25.112205,29.1040636 Z M24.9343121,28.7786073 C24.9537986,28.6945626 25.0381877,28.6141446 25.1293343,28.6190327 C25.8332055,28.6847863 26.6349806,28.5824504 27.3297372,28.4227182 C27.5794472,28.3654795 27.8157996,28.2984645 28.0204079,28.2325533 C28.0562379,28.2252999 28.0945823,28.2289266 28.1310409,28.2423296 C28.1291551,28.2532097 28.1322981,28.2667703 28.1407841,28.2778081 C28.2415168,28.4250834 28.1486416,28.4386441 28.1874575,28.5933305 C28.0240223,28.699293 27.2114038,28.8394726 26.9393786,28.8896156 C26.9264924,28.8017866 26.9084202,28.7249953 26.8410032,28.6579803 L26.8403746,28.6579803 C26.5832785,28.3995389 26.356198,28.7128537 26.3854277,28.9809137 C26.0538429,29.0187575 25.4049739,29.0712657 25.107962,28.9870633 C25.0744892,28.8847275 24.9550558,28.8445185 24.9343121,28.7786073 Z M22.6286192,28.4701806 L22.7944116,28.1887176 L22.8965586,28.4995095 C22.8065121,28.4909946 22.7172514,28.4812183 22.6286192,28.4701806 Z M22.6133758,27.1806543 L22.2319747,27.8096492 L22.4233824,28.4458975 C22.451355,28.4495242 22.4791704,28.4531509 22.5077715,28.4567776 L22.761096,28.0266201 C22.785297,27.9838882 22.8478424,27.9924031 22.8624572,28.0363964 L23.0172492,28.5105473 L23.3812067,28.5286807 L23.4893253,28.0363964 L23.3174041,27.2208633 C23.2669592,27.3000199 22.9366317,27.8437086 22.8940442,27.8583731 C22.8649716,27.8681494 22.8333846,27.8522235 22.8236414,27.8217908 L22.6133758,27.1806543 Z M21.8365873,28.3448231 L22.1452283,27.9094621 L22.3012775,28.4287101 C22.1445998,28.4056885 21.9883935,28.3765173 21.8365873,28.3448231 Z M21.845702,26.7807719 L22.1123842,27.7632906 L21.7180969,28.3178594 L21.4331854,28.2483215 L21.845702,26.7807719 Z M21.9101332,26.1640762 L21.3324527,28.2215155 C21.2194625,28.1898214 21.1119724,28.1570234 21.0123399,28.1253293 C20.8853633,28.0838588 20.7942168,28.1667997 20.7403146,28.1838294 C20.6741548,28.203382 20.5141769,28.1704264 20.3721141,28.3825092 C20.2184222,28.6141446 20.3059543,28.7945332 20.3053257,28.8481452 L20.2786103,28.950481 C20.1249184,28.9640417 20.0325147,29.0834072 19.9445111,29.1967808 C19.8431499,29.3271841 19.8480215,29.3295494 19.7435173,29.3295494 C19.6966869,29.3295494 19.654728,29.3599821 19.6421561,29.4076021 C19.6152836,29.5111994 19.6960583,29.5209758 19.761118,29.5441551 C19.8247634,29.5673344 19.8018197,29.9329997 20.0780879,30.069395 C20.0812309,30.3327245 20.1158037,30.5339272 20.5421495,30.6107185 C22.3710517,31.1323317 26.6392237,31.1276012 28.4711117,30.609457 C28.8240688,30.5265161 28.9182012,30.3754564 28.9218156,30.069395 C29.1988696,29.9329997 29.1757687,29.5673344 29.2395713,29.5441551 C29.2989737,29.523341 29.361519,29.5220795 29.361519,29.4344081 C29.361519,29.3246612 29.2724154,29.335699 29.2012269,29.3333338 C29.099237,29.3295494 28.9607886,28.9723989 28.722079,28.950481 C28.7172074,28.9200483 28.7098214,28.8932423 28.7007067,28.8664363 C28.6813773,28.8066747 28.7888674,28.6250246 28.6277895,28.3825092 C28.4857266,28.1704264 28.3259059,28.203382 28.2597461,28.1838294 C28.1825858,28.1302174 28.084839,28.1034114 27.9936925,28.1240678 L27.6676079,28.2215155 L27.073584,26.1055761 L27.2114038,26.2176882 L29.9021122,28.7238915 C29.9307134,28.7506975 30.0036306,28.7675695 29.999859,28.6688603 L29.6173579,19.5819419 C29.5978714,19.123717 29.49211,19.056702 29.459423,18.9322907 C29.0445491,18.2045866 27.9779776,18.6459395 27.4142835,18.9699767 C26.9143919,19.284553 26.4632166,19.4160601 25.8702927,19.4113296 C25.8289624,19.3370613 25.789518,19.2479707 25.7518022,19.1480001 C25.3812444,18.1509746 25.6340975,17.1916352 25.3971165,16.5626403 C25.2148234,16.0799747 24.1034644,15.8302058 24.0286614,16.12996 C23.7924661,16.0716175 23.3782209,15.9946685 23.1607264,16.1435206 C22.9869194,16.2616247 23.0010628,16.4615659 23.1017955,16.7479171 L23.149726,16.7089695 C23.5798433,16.3639606 23.8616118,17.0320607 23.8414967,17.4477114 C23.8062953,18.1594895 23.5232696,18.8372082 23.1145245,19.4149563 C22.5934178,19.4136949 22.088026,19.2784034 21.5857772,18.9699767 C21.5857772,18.95547 19.4615917,17.6878616 19.3827028,19.5808382 L19,28.6847863 C18.9981587,28.7335101 19.0566182,28.7639428 19.0948055,28.7262567 L21.9101332,26.1640762 Z M27.1458726,26.7516007 L26.8791905,27.7352232 C26.9192635,27.7584025 27.2423622,28.2387029 27.2964216,28.3154942 L27.5667182,28.2483215 L27.1458726,26.7516007 Z M26.7163839,28.4263449 L26.871333,27.9094621 L27.1780882,28.3423002 C27.0273822,28.3727329 26.8719616,28.4020618 26.7163839,28.4263449 Z M26.1212599,28.498248 L26.2219926,28.1887176 L26.3871564,28.4701806 C26.2985242,28.4801146 26.2097349,28.4897332 26.1212599,28.498248 Z M26.3701842,27.1793929 L26.1600758,27.8217908 C26.1454609,27.8681494 26.0841727,27.8728798 26.0598146,27.8339323 L25.6667845,27.2208633 L25.5028779,27.9972912 L25.6186968,28.5286807 L25.9996265,28.5092858 L26.1545756,28.0363964 C26.1684047,27.9924031 26.2315787,27.9838882 26.2554653,28.0266201 L26.5080041,28.4544123 L26.594279,28.4435323 L26.7759435,27.837559 C26.7383848,27.8145374 26.4206291,27.2635952 26.3701842,27.1793929 Z M24.6354144,25.5875896 L24.9962289,28.1789413 L25.2556822,28.3703677 L25.4378181,28.1887176 L25.5118354,28.5299422 L25.1316915,28.5067629 C25.0320589,28.5067629 24.941541,28.5580096 24.8844958,28.6311743 C24.7223179,28.6371662 24.611842,28.7371368 24.5747548,28.8870927 L24.4240487,28.8847275 C24.3869615,28.7371368 24.2775857,28.6384276 24.1191793,28.6311743 C24.0633913,28.5580096 23.9763307,28.5067629 23.8804697,28.5067629 L23.4880682,28.5299422 L23.562714,28.1887176 L23.7443785,28.3703677 L24.0036746,28.1789413 L24.3644892,25.588851 L24.402205,25.6203875 L24.2521275,28.1789413 L24.4993232,28.4946213 L24.7479332,28.1789413 L24.5976986,25.6180223 L24.6354144,25.5875896 Z M24.4982231,25.4157158 C23.093938,24.2919137 22.3394647,22.7084676 22.3212354,20.9118349 C22.8399849,21.0007677 24.0960784,20.6082964 24.5175525,20.2877281 C25.0028292,20.7070055 26.0415853,20.9216112 26.6786681,20.9252379 C26.68904,22.6852882 25.861178,24.3272345 24.4982231,25.4157158 Z" id="Fill-7" fill="#C6920E"></path>
            </g>
        </g>
        <rect id="Rectangle" stroke="#DDE2E3" stroke-width="3" opacity="0" fill-rule="nonzero" x="1.5" y="1.5" width="45" height="45" rx="5"></rect>
    </g>
</svg>