<?xml version="1.0" encoding="UTF-8"?>
<svg width="48px" height="48px" viewBox="0 0 48 48" version="1.1" xmlns="http://www.w3.org/2000/svg" xmlns:xlink="http://www.w3.org/1999/xlink">
    <!-- Generator: Sketch 64 (93537) - https://sketch.com -->
    <title>Graphics / 01 Flags/EUR</title>
    <desc>Created with Sketch.</desc>
    <defs>
        <rect id="path-1" x="0" y="0" width="48" height="48"></rect>
    </defs>
    <g id="Graphics-/-01-Flags/EUR" stroke="none" stroke-width="1" fill="none" fill-rule="evenodd">
        <g id="Flag">
            <mask id="mask-2" fill="white">
                <use xlink:href="#path-1"></use>
            </mask>
            <g id="Mask" fill-rule="nonzero"></g>
            <polygon id="Fill-9455" fill="#0132BF" mask="url(#mask-2)" points="0 48 48 48 48 0 0 0"></polygon>
            <path d="M23.7634095,7.68 L24.3379392,9.28983934 L26.0478488,9.34110811 L24.6970202,10.386991 L25.1757949,12.0275916 L23.7634095,11.0637387 L22.3510242,12.0275916 L22.8297989,10.386991 L21.4755505,9.34110811 L23.1854601,9.28983934 L23.7634095,7.68 Z M23.7634095,35.5189415 L24.3379392,37.1253629 L26.0478488,37.1766317 L24.6970202,38.2225146 L25.1757949,39.8631152 L23.7634095,38.9026803 L22.3510242,39.8631152 L22.8297989,38.2225146 L21.4755505,37.1766317 L23.1854601,37.1253629 L23.7634095,35.5189415 Z M11.8282407,14.6422988 L12.4061901,16.2487202 L14.1160997,16.3034069 L12.7618513,17.3492898 L13.240626,18.9898904 L11.8282407,18.0260376 L10.4158553,18.9898904 L10.89463,17.3492898 L9.54380145,16.3034069 L11.2502912,16.2487202 L11.8282407,14.6422988 Z M9.9644392,21.6695381 L10.5423886,23.2793774 L12.2522982,23.3306462 L10.9014697,24.3765291 L11.3802443,26.0171297 L9.9644392,25.0566947 L8.55205389,26.0171297 L9.03082857,24.3765291 L7.68,23.3306462 L9.38648976,23.2793774 L9.9644392,21.6695381 Z M37.6718141,21.6695381 L38.2497635,23.2793774 L39.9562533,23.3306462 L38.6054247,24.3765291 L39.0841994,26.0171297 L37.6718141,25.0566947 L36.2594288,26.0171297 L36.7382035,24.3765291 L35.3839551,23.3306462 L37.0938647,23.2793774 L37.6718141,21.6695381 Z M11.8282407,28.5771502 L12.4061901,30.1869895 L14.1160997,30.2382583 L12.7618513,31.2841412 L13.240626,32.9247418 L11.8282407,31.9608889 L10.4158553,32.9247418 L10.89463,31.2841412 L9.54380145,30.2382583 L11.2502912,30.1869895 L11.8282407,28.5771502 Z M35.7464559,14.6422988 L36.3278252,16.2487202 L38.0343149,16.3034069 L36.6834864,17.3492898 L37.162261,18.9898904 L35.7464559,18.0260376 L34.3340706,18.9898904 L34.8128453,17.3492898 L33.4620167,16.3034069 L35.1719263,16.2487202 L35.7464559,14.6422988 Z M35.7464559,28.5771502 L36.3278252,30.1869895 L38.0343149,30.2382583 L36.6834864,31.2841412 L37.162261,32.9247418 L35.7464559,31.9608889 L34.3340706,32.9247418 L34.8128453,31.2841412 L33.4620167,30.2382583 L35.1719263,30.1869895 L35.7464559,28.5771502 Z M30.6406659,9.53592943 L31.2186153,11.1457688 L32.9251051,11.1970375 L31.5742765,12.2429204 L32.0530512,13.883521 L30.6406659,12.9196682 L29.2282806,13.883521 L29.7036354,12.2429204 L28.3528069,11.1970375 L30.0627165,11.1457688 L30.6406659,9.53592943 Z M16.8758937,33.625415 L17.4538432,35.2318364 L19.1637528,35.2831052 L17.8095044,36.3289881 L18.2882791,37.9695887 L16.8758937,37.0091537 L15.4635084,37.9695887 L15.9422831,36.3289881 L14.5914545,35.2831052 L16.2979443,35.2318364 L16.8758937,33.625415 Z M30.6406659,33.625415 L31.2186153,35.2318364 L32.9251051,35.2831052 L31.5742765,36.3289881 L32.0530512,37.9695887 L30.6406659,37.0091537 L29.2282806,37.9695887 L29.7036354,36.3289881 L28.3528069,35.2831052 L30.0627165,35.2318364 L30.6406659,33.625415 Z M16.8758937,9.53592943 L17.4538432,11.1457688 L19.1637528,11.1970375 L17.8095044,12.2429204 L18.2882791,13.883521 L16.8758937,12.9196682 L15.4635084,13.883521 L15.9422831,12.2429204 L14.5914545,11.1970375 L16.2979443,11.1457688 L16.8758937,9.53592943 L16.8758937,9.53592943 Z" id="Fill-9457" fill="#FFDB00" mask="url(#mask-2)"></path>
        </g>
        <rect id="Rectangle" stroke="#DDE2E3" stroke-width="3" opacity="0" fill-rule="nonzero" x="1.5" y="1.5" width="45" height="45"></rect>
    </g>
</svg>