<?xml version="1.0" encoding="UTF-8"?>
<svg width="48px" height="48px" viewBox="0 0 48 48" version="1.1" xmlns="http://www.w3.org/2000/svg" xmlns:xlink="http://www.w3.org/1999/xlink">
    <!-- Generator: Sketch 64 (93537) - https://sketch.com -->
    <title>Graphics / 01 Flags/FJD</title>
    <desc>Created with Sketch.</desc>
    <defs>
        <rect id="path-1" x="0" y="0" width="48" height="48" rx="5"></rect>
    </defs>
    <g id="Graphics-/-01-Flags/FJD" stroke="none" stroke-width="1" fill="none" fill-rule="evenodd">
        <g id="Flag">
            <mask id="mask-2" fill="white">
                <use xlink:href="#path-1"></use>
            </mask>
            <g id="Mask" fill-rule="nonzero"></g>
            <polygon id="Fill-1" fill="#4EC0E3" mask="url(#mask-2)" points="0 48 48 48 48 0 0 0"></polygon>
            <path d="M24,36.5 C25.5693126,35.8785788 26.8835122,35.1928424 28.1400798,34.4198337 C30.4351397,33.0080544 33,30.8730362 33,27.6762044 L33,11 L15,11 L15,27.6762044 C15,28.3948869 15.1289933,29.0876332 15.3829889,29.7493609 C16.6513703,33.0516906 20.8289667,35.129053 24,36.5" id="Fill-10" fill="#C52038" mask="url(#mask-2)"></path>
            <polygon id="Fill-11" fill="#FFFFFE" mask="url(#mask-2)" points="15 25 23 25 23 18 15 18"></polygon>
            <polygon id="Fill-12" fill="#FFFFFE" mask="url(#mask-2)" points="25 25 33 25 33 18 25 18"></polygon>
            <path d="M15,28 L15,28.4087685 C15,29.0697937 15.1336062,29.7069632 15.3966846,30.3156028 C16.5401087,32.9590587 19.9655857,34.7490329 23,36 L23,28 L15,28" id="Fill-13" fill="#FFFFFE" mask="url(#mask-2)"></path>
            <path d="M25,36 C26.0696982,35.5662776 27.0332369,35.0994516 27.9661844,34.5913264 C30.343365,33.2967479 33,31.3389711 33,28.4075287 L33,28 L25,28 L25,36" id="Fill-14" fill="#FFFFFE" mask="url(#mask-2)"></path>
            <g id="Group-2" mask="url(#mask-2)">
                <g transform="translate(15.000000, 12.000000)">
                    <g id="Group" stroke-width="1" fill="none" fill-rule="evenodd">
                        <path d="M0.999824561,2 C1.5522807,2 2,2.22373984 2,2.4998374 C2,2.77609756 1.5522807,3 0.999824561,3 C0.447719298,3 0,2.77609756 0,2.4998374 C0,2.22373984 0.447719298,2 0.999824561,2 Z" id="Stroke-18"></path>
                        <path d="M0.999824561,3 C1.5522807,3 2,3.22386604 2,3.50008129 C2,3.77613396 1.5522807,4 0.999824561,4 C0.447719298,4 0,3.77613396 0,3.50008129 C0,3.22386604 0.447719298,3 0.999824561,3 Z" id="Stroke-22"></path>
                        <path d="M0.34980677,2.87177129 C0.221313647,2.76389835 0.185931483,2.64046681 0.159352536,2.51513367 C-0.265402728,2.19773828 0.264652566,1.8628827 0.524347494,1.64869268 C0.701089023,1.50278761 0.885618014,1.603227 1.16562806,1.55897143 C1.21743161,1.49673705 1.23977824,1.41306637 1.40128343,1.33596488 C1.7131205,1.18729384 2.35964914,1.56415763 2.61951336,1.73720381 C2.83857805,1.88310888 3.40350763,2.05494494 3.53047712,1.96729817 C3.58668228,1.83314849 3.77764439,1.22221424 4.25725048,0.894446463 C4.40758235,0.81993807 4.27434903,0 4.20663197,0.0127926243 C4.38235775,-0.0203990496 4.5701033,0.0197075564 4.84774325,0.602809203 C5.06223704,0.329150766 5.34935737,0.151437012 5.70791921,0.0679392076 C5.85181797,0.332089613 5.93104693,0.633580651 5.93968085,0.975524042 C6.3278689,0.909140694 6.64343041,0.959792571 6.82846728,1.2218685 C6.36375895,1.23656273 6.04142574,1.40597856 5.84758565,1.71473028 C5.83167214,1.7534539 5.81575863,1.79235039 5.80001441,1.83124688 C6.14621789,2.06600883 5.82947134,2.4145214 5.8602826,2.46344455 C5.86299128,2.42351082 6.73603349,2.78049418 6.90786553,2.88318093 C6.95103516,2.93002959 7.30333317,2.95077439 7.63734757,2.9260535 C8.11492214,2.89061448 8.77567136,2.79173095 9.29370688,2.65740839 C9.85491202,2.51184907 10.4308456,2.29402871 10.9866334,2.12634161 C12.2251784,1.75258953 12.765222,1.65042141 13.9958103,1.89935897 C14.6687486,2.03558313 14.6306577,1.95122096 14.7640603,1.87342797 C14.8972937,1.79563498 14.9480815,1.81516967 15.0179993,1.7048765 C15.0877479,1.59475621 15.0750509,1.59475621 14.9607784,1.47789386 C14.8465059,1.36137725 14.8275451,1.22515309 14.7957181,1.12142911 C14.7640603,1.01770513 14.6687486,0.868688341 14.3894157,0.855722843 C14.1102521,0.842757346 12.9546605,1.12799829 12.605579,1.21218759 C12.2563283,1.29654976 11.5261691,1.50399772 11.3231872,1.56882521 C11.120036,1.6336527 11.0374212,1.54272134 10.8913216,1.59475621 C10.7453914,1.6466182 10.4279676,1.82813517 10.3074313,1.83453148 C10.1867256,1.84110066 9.98035787,1.78923867 9.83747488,1.6466182 C9.69459188,1.50399772 9.29472263,1.20250669 9.29472263,1.20250669 C9.29472263,1.20250669 9.26611218,1.34512716 9.35177426,1.50399772 C9.43760563,1.66286829 9.38038472,1.70816109 9.23123789,1.67911838 C9.08192177,1.64990279 8.72014337,1.36466184 8.54864992,1.34841175 C8.37732575,1.33216166 8.14878067,1.39059284 8.1296506,1.48774763 C8.11068982,1.5850753 8.32653796,1.86374707 8.3646288,2.00308295 C8.40271965,2.1425917 8.28218328,2.18459991 8.20600159,2.11977243 C8.1296506,2.05494494 7.77735259,1.90264356 7.76465564,1.76659227 C7.75195869,1.63036811 7.67899356,1.31919617 7.67899356,1.31919617 C7.6573241,1.26612406 7.48041328,1.55689696 7.48853933,1.59147162 C7.3485343,1.50520784 7.18821416,1.19611037 7.14572171,1.043809 C6.99335832,0.823395536 6.99640559,0.836361034 6.99640559,0.674205877 C6.90549543,0.386890449 6.96881089,0.183591446 7.31078204,0.0325001807 C7.31078204,0.0325001807 7.21242301,0.505654407 7.31704587,0.619059293 C7.41811358,0.769113319 8.17874547,0.951148906 8.42168043,0.76496436 C8.6597059,0.628913072 8.90433378,0.531585403 9.30420302,0.69374056 C10.412562,1.14269252 10.3594041,1.35480807 11.5954098,0.976734155 C11.9233296,0.876294766 12.2761355,0.750615876 12.5891576,0.633062031 C12.9957986,0.480414905 13.5355036,0.281610608 13.9829441,0.412821444 C14.3884,0.531758276 14.6078032,0.992984245 15.208115,0.580162801 C15.41753,0.424576829 15.4430932,0 15.4430932,0 C15.8099504,0.267607871 15.9372584,0.667982438 15.8048716,1.21236046 C16.1414254,0.731945559 17.0786295,1.42464888 16.2841391,2.10369521 C16.1918746,2.05753804 16.18578,1.99461216 16.1867958,1.93704535 C16.1883194,1.86391994 16.282954,1.76797526 16.2746587,1.67254919 C16.2746587,1.67254919 16.2683949,1.48463592 15.9888927,1.61429089 C15.8465176,1.65284164 15.626945,1.7761003 15.4876171,1.98043654 C15.1646068,2.45359077 14.9579004,2.4281784 14.4970858,2.53484122 C14.4970858,2.53484122 14.6433547,2.82353964 14.8422736,3.04170574 C15.0907952,3.31432694 15.6652051,3.33766484 15.9995581,3.23117488 C16.5624562,3.05207814 16.9167857,2.7227545 17.2624813,3.43689411 C17.4072265,3.73596492 17.3862342,3.77814601 17.3792932,4.12302825 C17.5702554,4.24317519 17.7679892,4.37317591 17.883616,4.57457331 C18.0148179,4.80311181 18.06696,5.09837941 17.8680411,5.15387174 C17.5887082,5.23166473 17.3603325,5.50394018 17.2140636,5.55580217 C17.1207834,5.5912412 16.6799453,5.61492484 16.4414119,5.6261616 C16.3393285,5.63100206 16.1964455,5.65416708 16.1414254,5.53298289 C15.9961723,5.55390056 15.8969668,5.54162656 15.8240016,5.51033649 C15.8240016,5.51033649 15.4080496,5.34178502 15.5444995,5.21869923 C15.5321411,5.03510779 16.1812091,4.76801853 16.5223338,4.86223448 C16.7031384,4.8912772 17.0681333,4.78755322 16.9032423,4.59307075 C16.8021746,4.47396105 16.6762209,4.35744444 16.593606,4.26927906 C16.460542,4.12735008 16.5060817,4.05301456 16.5032038,3.85732198 C16.223363,4.13253628 15.6362561,4.55382851 15.2445129,4.2832818 C14.9985307,4.11352021 14.9143922,3.85282728 14.8651281,3.67580501 C14.8317774,3.67148318 14.8080764,3.7769359 14.8187419,3.88982216 C14.8422736,4.14031558 15.1977881,4.59116915 14.553291,4.04800123 C14.2509343,3.79335886 13.9106561,3.29271778 13.9446839,3.24794359 C14.0225585,4.36021042 13.8170373,4.40463885 13.3447108,3.44242606 C13.3398013,3.94272139 13.1657684,4.22467775 12.6526424,4.06788166 C12.6526424,4.06788166 13.071811,4.37594189 13.17017,4.54449336 C13.2685291,4.71304482 13.2273909,4.89784638 13.0653779,5.04046686 C12.952629,5.13969613 12.5530983,5.39174541 12.24634,5.56167986 C11.973271,5.71277113 11.3504433,5.99697484 11.0846538,5.99991368 C10.7956713,6.00319828 10.2085644,5.91243979 10.0687286,5.77950022 C9.91044001,5.68009807 9.71067468,5.560124 9.70051712,5.36771602 C9.67512322,5.20244914 9.64651276,5.06639785 9.64651276,5.06639785 C9.64651276,5.06639785 9.56406724,5.12465616 9.55458685,5.00796668 C9.5259764,4.65876261 9.99762573,4.1557013 10.4426961,4.31578198 C10.5578151,4.35727157 10.6631151,4.43177996 10.7365882,4.52582304 C10.8969083,4.73119652 11.0211691,5.41491043 11.6431503,5.11169066 C11.8114272,4.98203568 11.9383967,4.8330189 11.8877782,4.68054464 C11.8368211,4.52824326 11.6590638,4.22364051 11.4623458,4.16520933 C11.2654584,4.10677816 11.0973508,4.07773544 11.1322251,3.87668379 C11.3096438,3.09979117 11.7261037,3.11552264 12.4112311,3.06971122 C12.6812528,3.08907303 12.9541526,3.06971122 12.7985727,2.97566814 C12.2691945,2.65567966 11.9323022,2.73744873 11.4279793,3.0562271 C11.1545717,3.22927328 10.7772184,3.76500764 10.5766066,3.8021754 C10.4369402,3.82810639 10.4242432,3.89621847 10.3544946,3.97072687 C10.2845768,4.04523526 10.0719452,4.03244264 9.94819227,4.15241671 C9.82427005,4.27221791 9.82122278,4.3111144 9.58624458,4.39219198 C9.35126638,4.47326955 8.5928353,4.8297343 8.24680112,4.90113098 C7.8853613,5.20815396 7.06852426,5.08437668 6.94849577,4.93345828 C6.94003113,4.99724853 6.93139721,5.06103878 6.92310187,5.12482903 C6.88755041,5.17461654 6.51950819,4.96578559 6.53576028,4.94313919 C6.52001606,4.96595846 6.52306333,5.12154444 6.50410255,5.10529435 C6.46702746,5.11670398 6.04379583,4.86707494 6.05970934,4.8426998 C6.05970934,4.8426998 6.13267448,5.03407055 6.06918973,5.02421677 C6.00570499,5.01453586 5.8787355,4.96924306 5.88178277,5.04375145 C5.88516862,5.11825984 5.89143245,5.47489747 5.79307342,5.41975088 C5.61413108,5.47576183 5.12013512,4.77164887 5.18345058,4.68400211 C4.9801301,4.94071896 4.70976973,5.09492195 4.37084584,5.14419084 C4.38049553,5.01782046 4.38997591,4.89145007 4.3994563,4.76490681 C4.3994563,4.76490681 4.2152659,5.06968245 4.05037485,5.13122534 C3.92611405,5.17755539 3.57754048,5.38344749 3.33409764,5.47437885 C3.10589115,5.55960538 2.70517544,5.51241097 2.57109566,5.76325013 C2.45513019,5.980379 2.45292939,6.03829156 2.29193208,5.86870285 C2.19289587,5.76446025 2.07642253,5.61527059 2.04408763,5.57533685 C1.9457286,5.54940586 1.69805345,5.61751794 1.6093441,5.52347486 C1.52029617,5.42943179 1.30461733,5.48457837 1.28548726,5.47800918 C1.26635719,5.47161287 0.618812794,5.58501776 0.460185579,5.44239728 C0.262621054,5.22959025 0.0708124792,5.26053457 0.0628557246,4.90908315 C0.0598084568,4.78132978 0.131588541,4.65858973 0.187116531,4.62885553 C0.187116531,4.62885553 0.349468185,4.75418867 0.403472541,4.73793858 C0.457307604,4.72186136 0.460693457,4.54345612 0.460693457,4.54345612 C0.460693457,4.54345612 0.536705858,4.42348204 0.6255845,4.43333582 C0.714632435,4.44301673 0.701766194,4.42348204 0.701766194,4.42348204 C0.701766194,4.42348204 0.720896264,4.33600815 0.844649192,4.34897365 C0.968571414,4.36211202 1.01292609,4.35225824 1.03510343,4.30039625 C1.05728076,4.24853426 1.25315236,4.22139315 1.27262102,4.18802861 C1.27262102,4.18802861 1.37114934,4.15881302 1.37758246,4.2755025 C1.38384629,4.39219198 1.348972,4.55417426 1.42176784,4.63853643 C1.49490227,4.72272573 1.72361664,4.67103661 1.84093645,4.72601032 C1.95825626,4.78115691 2.17427368,4.95938928 2.26315233,4.96924306 C2.35186167,4.97892396 2.34238129,5.11497525 2.34238129,5.11497525 C2.79490055,4.66446743 2.79066823,4.69212715 3.37726727,4.49902768 C3.37726727,4.49902768 3.45344896,4.13927834 3.50423676,4.01290795 C3.55502455,3.88653757 3.62155657,3.6694087 3.60581235,3.66612411 C3.58989884,3.66283952 3.11367861,3.71158979 3.03444965,3.6694087 C2.95505139,3.62722762 3.08202088,3.33559036 3.08202088,3.33559036 C3.10843054,3.22097536 3.13484019,3.10653323 3.16141914,2.99191823 C3.16141914,2.99191823 2.7359867,3.03409932 2.66302157,2.96598724 C2.59005644,2.89804803 2.27263271,2.69042719 2.19645102,2.6288843 C2.12010003,2.5673414 1.9044212,2.29178136 1.9044212,2.29178136 C1.78845573,2.36767274 1.62813559,2.34450772 1.56160357,2.38910903 C1.46138232,2.48246061 1.27363677,2.69595914 1.26957375,2.76182387 C1.17460057,2.69837937 1.12313561,2.62006776 1.09164717,2.53484122 C1.0171584,2.61609167 0.964339097,2.70339269 0.936236517,2.79743577 C0.84769646,2.7564648 0.788613324,2.69146443 0.742565723,2.6159188 C0.694994488,2.71220923 0.672647858,2.8147231 0.675864418,2.92397903 C0.577166802,2.84013547 0.529256981,2.73744873 0.523670324,2.61920339 C0.440886217,2.69699638 0.381803081,2.78083993 0.34980677,2.87177129 Z" id="Stroke-145"></path>
                    </g>
                    <path d="M2.03818444,17.0162182 C2.03885682,17.0162182 2.30696584,16.9991372 2.40899855,16.8271771 C2.50430752,16.6667139 2.63575659,16.5611071 2.77476985,16.5031302 C2.87108739,16.4630554 2.97127107,16.4456459 3.06607577,16.449095 C3.16188902,16.4523798 3.2521552,16.4768516 3.32779724,16.5197185 C3.40764162,16.5648847 3.47118094,16.6307452 3.50748912,16.714508 C3.54413348,16.798435 3.59540198,16.975815 3.64919188,17.1632137 C3.71878256,17.4048118 3.79341604,17.6633267 3.84249932,17.7444617 C3.89326354,17.8285529 3.99580053,17.9147793 4.07127448,17.9712781 C4.04740521,17.8730622 4.01832505,17.7254097 4.02034217,17.5982874 C4.02202311,17.4898885 4.0477414,17.3573462 4.08673908,17.2386002 C4.12523247,17.1208396 4.17750953,17.0147401 4.23298036,16.9556134 C4.28038271,16.9050273 4.41149558,16.8271771 4.55824115,16.7504767 C4.7564233,16.6470051 4.98620702,16.5436976 5.06991755,16.5164337 C5.13043119,16.4967248 5.22052927,16.4597706 5.311804,16.4195316 C5.42593944,16.3694382 5.54108344,16.3144176 5.60210135,16.2818979 L5.60479085,16.2807482 C5.70715975,16.2242494 5.86567185,16.0169776 5.86600804,16.0164849 C5.87962361,15.9984184 5.90567809,15.9946408 5.92400027,16.0079443 C5.93912868,16.0189485 5.94467576,16.0380004 5.93845631,16.0545887 C5.93795203,16.0554099 5.79406405,16.4398975 5.70127648,16.5499388 C5.6649683,16.5931341 5.61403599,16.6714769 5.56159084,16.7521191 C5.52561884,16.8074683 5.48914257,16.8636386 5.45485151,16.9115969 C5.48729354,16.8867965 5.51822273,16.8634743 5.54427721,16.8454079 C5.64765467,16.7726492 5.66345545,16.7650941 5.66345545,16.7650941 C5.68396285,16.7549112 5.70884068,16.7631233 5.71909438,16.7831606 C5.72161578,16.7882521 5.72312862,16.7938363 5.72329672,16.7992562 L5.72346481,16.7992562 C5.72346481,16.8000774 5.74111462,17.0843781 5.58226633,17.2583091 C6.09310226,17.0937399 6.59334831,16.9081478 6.92314762,16.4006439 C6.93541844,16.381592 6.96113674,16.3760078 6.98046748,16.3881616 C6.99610017,16.3976876 7.002992,16.4159183 6.99878967,16.4323424 C6.9056659,17.0039002 6.56678955,17.3079098 6.18286415,17.5631399 C6.22236611,17.5463873 6.26136379,17.5286493 6.30019337,17.5100901 C6.44593037,17.4397951 6.58578411,17.3563608 6.7189141,17.2584733 C6.73723629,17.2448413 6.76345886,17.2484546 6.77724252,17.2661926 C6.78749622,17.2796604 6.7881686,17.2969057 6.7804363,17.3105376 C6.65756,17.5713519 6.47467435,17.7643348 6.25010153,17.9098521 C6.13344469,17.9855671 6.0051894,18.0484713 5.86852944,18.1011926 C5.89374345,18.0965938 5.91862128,18.0915024 5.9436672,18.0859182 C6.10066647,18.0504422 6.25564861,17.9937791 6.40710079,17.9027897 C6.42676772,17.8911287 6.45231792,17.8972056 6.46425256,17.9162575 C6.47383388,17.9313676 6.47181676,17.9502553 6.46122687,17.9632303 C6.31380894,18.1565417 6.13714274,18.2785726 5.94433958,18.3577366 C5.80885627,18.4134142 5.66597686,18.4479048 5.51990366,18.4712269 C5.59705855,18.492414 5.67219631,18.5083453 5.74615742,18.5162289 C5.87222749,18.5295324 5.99510379,18.5195137 6.11730772,18.4723766 C6.13865558,18.4641646 6.16286104,18.4745118 6.17126571,18.4953703 C6.17765326,18.5109732 6.17345092,18.5280542 6.16185248,18.5392226 C6.02536061,18.6993573 5.86886563,18.8235233 5.70094029,18.9268308 C5.54646243,19.0217619 5.38257133,19.098955 5.21548646,19.169907 C5.32121723,19.3458089 5.42056045,19.5230246 5.49687486,19.7053319 C5.57722352,19.8973293 5.63084533,20.0937612 5.63773716,20.2977482 C5.84466017,20.5041988 6.05477696,20.7032586 6.27279414,20.8845804 C6.49400509,21.0683657 6.72362072,21.2337562 6.96634763,21.3697475 C6.98635075,21.3809159 6.99324258,21.4058805 6.98181223,21.4252609 C6.97760989,21.4324875 6.97155853,21.4379074 6.96449861,21.4413565 C6.94382311,21.4530176 6.92163478,21.4705913 6.90163166,21.4919426 C6.88330948,21.511323 6.8673406,21.5336598 6.85607834,21.5573104 L6.85591025,21.5576389 L6.85540597,21.5587886 L6.8547336,21.560431 C6.83120052,21.6098675 6.7905219,21.6157801 6.73992578,21.623171 C6.72731878,21.6251419 6.7138713,21.6269485 6.70244095,21.6294121 L6.70193667,21.6295764 C6.63016077,21.644358 6.55704013,21.6461647 6.48307902,21.6363102 C6.41920352,21.6276055 6.35465564,21.6100317 6.28960348,21.5839174 C6.21883615,21.6637384 6.13613418,21.7146531 6.04267423,21.7399461 C5.94904619,21.765075 5.84550064,21.7640895 5.73355041,21.7402746 L5.54814336,21.9835151 C5.53452779,22.0015816 5.50847331,22.0053592 5.48998303,21.9920557 C5.48393167,21.9876212 5.47939315,21.9817085 5.47653556,21.9753031 L4.88081244,20.6111195 C4.42477497,20.5560989 3.92587366,20.4577187 3.52093659,20.2479833 C3.10322442,20.031514 2.78603211,19.6977768 2.7172819,19.1736846 C2.64231223,18.6021268 2.66197916,18.5191852 2.70433871,18.3418052 C2.71274338,18.3066577 2.72215661,18.2677327 2.73173794,18.2191174 C2.73947023,18.1801924 2.74518541,18.1525999 2.75090059,18.1250075 C2.77376129,18.012831 2.79628581,17.9032825 2.80973329,17.809501 C2.82906403,17.6749878 2.80536286,17.5391607 2.73829358,17.4325685 C2.6787885,17.3378016 2.58432,17.2656999 2.45505615,17.2382717 C2.30713393,17.2067375 2.02658599,17.0945611 2.02574553,17.0945611 C2.00456576,17.0858563 1.99448015,17.0620414 2.00305291,17.0413471 C2.00927237,17.0267296 2.02305603,17.0176964 2.03818444,17.0163825 L2.03818444,17.0162182 Z M4.36459752,19.1878093 C4.35820997,19.2093248 4.33518117,19.2219714 4.31299283,19.2158945 C4.2909726,19.2096533 4.2780294,19.1871523 4.28458504,19.1656368 C4.3370302,18.9856289 4.4034271,18.9158266 4.48747382,18.9071219 C4.56782248,18.8987456 4.6517011,18.9498245 4.75356572,19.0124002 C4.88854474,19.0953417 5.0099082,19.1129155 5.081516,19.1143937 C5.16926077,19.1163646 5.2477604,19.0679135 5.32558766,19.0322733 C5.43955501,18.9800448 5.55066476,18.9232175 5.65673172,18.8580139 C5.78028039,18.7819704 5.89710532,18.6944301 6.00367656,18.5889876 C5.91576369,18.6052474 5.82717846,18.6065613 5.73724847,18.5970353 C5.6007566,18.5824179 5.46224762,18.5430001 5.31819155,18.4932352 C5.30356742,18.4881437 5.29247325,18.475333 5.29062423,18.4592374 C5.28810282,18.4369006 5.30474407,18.4168633 5.32760478,18.4145639 C5.53066164,18.3927199 5.72968427,18.3579008 5.91206564,18.2830071 C6.03158007,18.2338991 6.14437076,18.1672173 6.24707584,18.074914 C6.15294352,18.1144961 6.05780264,18.1434024 5.96215748,18.1650822 C5.79910685,18.2022006 5.6342072,18.2173108 5.46846708,18.2243731 C5.44829586,18.226344 5.42913321,18.2135332 5.42409041,18.1938243 C5.41854333,18.1719803 5.4319908,18.1498078 5.45434723,18.1443879 C5.73338232,18.075571 5.98938862,17.9814611 6.20404393,17.8420207 C6.37213736,17.7331291 6.51552105,17.5963165 6.62528606,17.4220571 C6.5321623,17.4816765 6.43584477,17.535219 6.33683774,17.5828488 C6.18723458,17.6549505 6.03107579,17.7135844 5.869538,17.7602288 C5.851552,17.7666342 5.83070842,17.7602288 5.81995044,17.7438047 C5.80767962,17.7247528 5.81339479,17.6996239 5.83272554,17.6876344 L5.87676602,17.6603704 C6.29615913,17.4002131 6.71572033,17.1397273 6.87406434,16.6070946 C6.50946969,17.0482452 6.00535749,17.2092011 5.50124529,17.3696643 C5.44039547,17.389209 5.41501336,17.405633 5.38223515,17.4256704 C5.2734787,17.4920237 5.23414483,17.560512 5.15883898,17.6615201 C5.14455103,17.6807363 5.13143975,17.6981458 5.12337126,17.7089857 C5.12084986,17.7124347 5.11782418,17.7158838 5.11395803,17.7185116 C4.98755177,17.8119646 4.88165291,17.8159064 4.78281397,17.8196839 C4.62581471,17.8255966 4.49016331,17.8308523 4.30862241,18.3401628 C4.3010582,18.3611856 4.27735703,18.3725183 4.25584107,18.3651274 C4.23398892,18.3577366 4.22255857,18.3344144 4.23012277,18.3133916 C4.43049014,17.7516883 4.59253221,17.7454471 4.77995638,17.7383848 C4.86467547,17.7352642 4.95561402,17.7318151 5.05915957,17.6570856 C5.07227086,17.6400046 5.08218837,17.6267011 5.0917697,17.6138903 C5.15698995,17.52635 5.23565767,17.4209074 5.30508026,17.3670365 C5.37668806,17.3113588 5.40610441,17.3038038 5.4908235,17.232359 C5.60411847,17.1369352 5.63252626,16.9740084 5.63908191,16.8787487 L5.59285621,16.9111042 C5.55385854,16.9383681 5.49754724,16.9823846 5.44325306,17.0245945 C5.35853397,17.0902908 5.2785215,17.152538 5.25196274,17.1558229 C5.24170904,17.1569725 5.23229581,17.1556586 5.22372304,17.1515526 L5.22355495,17.1513884 C5.20304755,17.1418624 5.19447478,17.1256026 5.19783665,17.1032658 L5.19834093,17.0994883 C5.20002187,17.091112 5.20405611,17.0814218 5.21027557,17.0712389 C5.22557207,17.04611 5.2605355,17.0058711 5.31281256,16.9567631 C5.35651685,16.9155387 5.42509897,16.8102603 5.49115969,16.7084311 C5.54444531,16.6268034 5.59621808,16.5471467 5.63706479,16.4983672 C5.67555818,16.4527083 5.72565002,16.3498936 5.76868194,16.2520061 C5.72716286,16.2930663 5.68362667,16.3303489 5.64530136,16.3513717 L5.6419395,16.3536711 C5.58008111,16.386355 5.4625838,16.4425253 5.34592696,16.4937684 C5.25364367,16.5343359 5.16119228,16.5722755 5.09614013,16.5934626 C5.01579147,16.6195769 4.79205911,16.7202564 4.59740692,16.8220857 C4.45772128,16.8950086 4.3343407,16.9674387 4.29416637,17.0103056 C4.24710021,17.0607275 4.20104261,17.1558229 4.16574299,17.2634005 C4.12926672,17.3750842 4.10489317,17.4989218 4.10338033,17.5992729 C4.10052274,17.7878212 4.17129007,18.0277769 4.17969474,18.0555336 C4.18423327,18.0671947 4.18305661,18.0809909 4.17549241,18.0923236 C4.1628854,18.111047 4.13699901,18.1163027 4.11783636,18.1041489 C4.11699589,18.1036562 3.86720906,17.9449996 3.77072343,17.7858503 C3.71626116,17.6956822 3.63994674,17.4317473 3.56917941,17.1850577 C3.51572569,17.0001226 3.46529767,16.8248778 3.43100661,16.7462065 C3.40209454,16.6795247 3.35065795,16.6266392 3.28611007,16.5898493 C3.22206647,16.5537163 3.14507968,16.5331862 3.06321818,16.5302299 C2.98034812,16.5272736 2.89226716,16.5425479 2.80737998,16.5778597 C2.68366321,16.6294313 2.56650209,16.724034 2.48111063,16.8679088 C2.41252851,16.9830416 2.28830747,17.0408543 2.18980472,17.0695965 C2.27956661,17.1024446 2.39538298,17.1423551 2.47253787,17.158615 C2.62600717,17.1911346 2.73829358,17.2771968 2.8093971,17.3901944 C2.88638389,17.5130465 2.91411931,17.6679255 2.89209907,17.8205051 C2.87781113,17.9203635 2.85562279,18.0294194 2.83276209,18.1411031 C2.82553407,18.1757579 2.81830605,18.2109054 2.81359944,18.2347203 C2.80385002,18.283664 2.7941006,18.3240672 2.78552783,18.3603644 C2.7453535,18.5283827 2.72652704,18.6068898 2.79981577,19.1635017 C2.86436365,19.6563881 3.16424233,19.9710734 3.55959808,20.1758816 C3.96050091,20.3836461 4.46007459,20.4797269 4.91443113,20.5332694 C4.92871907,20.5349118 4.94183036,20.5439451 4.94788172,20.5577413 L5.52461028,21.8785653 L5.6674897,21.6908381 L4.9636825,20.367222 C4.95292452,20.3473489 4.96099301,20.3227128 4.98133231,20.3123656 C5.00167162,20.3020185 5.02688563,20.309902 5.03747552,20.3297751 L5.74464458,21.6594682 C5.84634111,21.6818049 5.9386244,21.6836116 6.02065399,21.6614391 C6.09646413,21.6410732 6.16437388,21.5996845 6.22320658,21.5349737 L5.1045448,20.2704842 C5.08975258,20.2534032 5.09143351,20.2277816 5.10891523,20.2131642 C5.12622885,20.1985468 5.15245143,20.2003534 5.16741174,20.2172702 L6.30271477,21.5009759 C6.36776693,21.5288968 6.43181052,21.5472917 6.49434128,21.5558323 C6.55905725,21.5643728 6.62259657,21.5628946 6.68512732,21.5500838 C6.70160048,21.5464705 6.71504795,21.5444996 6.72799115,21.5425288 C6.73471489,21.5417076 6.74093434,21.5407221 6.74681761,21.5397367 C6.48207046,21.3367351 6.22841747,21.1235506 5.98249679,20.9033038 L5.98014348,20.9013329 C5.7211115,20.6692607 5.47115657,20.4296335 5.22607635,20.1860645 C5.21010747,20.1699689 5.21027557,20.1443473 5.22674872,20.1285802 C5.24305378,20.1129774 5.26944445,20.1129774 5.28558142,20.129073 C5.52898071,20.371328 5.77775899,20.6098056 6.03645478,20.8415493 L6.0384719,20.8435202 C6.28338403,21.0627816 6.53754129,21.275966 6.80497794,21.4809385 C6.81556783,21.4653356 6.82733437,21.4507182 6.84010947,21.4372504 C6.8495227,21.4269033 6.85944021,21.4175416 6.86952582,21.4086726 C6.64276778,21.2764588 6.427272,21.1194446 6.21900424,20.9466634 C5.99476761,20.7604144 5.77910373,20.5556062 5.56680173,20.3432429 C5.55974181,20.3361805 5.55537138,20.3263261 5.55520329,20.3158147 C5.55100095,20.1167549 5.49889199,19.924429 5.41988807,19.7358806 C5.34374175,19.5537377 5.24187713,19.3737298 5.13328877,19.1942147 C5.06773234,19.1989777 4.89812607,19.1970068 4.70935714,19.0810528 C4.62094,19.0268534 4.54832364,18.9825084 4.49621467,18.9879283 C4.44797186,18.9930198 4.40578041,19.0467265 4.36459752,19.1878093 Z M2.78014884,16.807961 C2.71139863,16.807961 2.65559161,16.8537841 2.65559161,16.910283 C2.65559161,16.9667818 2.71139863,17.0126049 2.78014884,17.0126049 C2.84889906,17.0126049 2.90470607,16.9667818 2.90470607,16.910283 C2.90470607,16.8537841 2.84889906,16.807961 2.78014884,16.807961 L2.78014884,16.807961 Z" id="Fill-23" fill-opacity="0.85" fill="#000000" fill-rule="evenodd"></path>
                    <path d="M12.4944455,17.0013376 L12.5331259,17.0031684 C12.6231094,17.0309185 12.6703284,17.0777238 12.6860681,17.1380341 C12.8860808,17.0808688 12.9964071,17.123604 13.0145225,17.2699398 C13.0988635,17.2808549 13.2088927,17.2523648 13.2151292,17.3809405 C13.426724,17.3913005 13.515668,17.469741 13.4935434,17.6097867 C13.652425,17.5996117 13.7278567,17.6824921 13.7495359,17.8249429 C13.939303,17.7674076 14.0074587,17.833638 14.0334441,17.9427886 C14.1699041,17.9681337 14.2778546,18.021414 14.273103,18.1855099 C14.4342119,18.20216 14.5332531,18.2963255 14.5124649,18.5394169 C14.7237627,18.4694865 14.7782576,18.5492219 14.7518268,18.7059178 C14.8002337,18.6853827 14.8476013,18.6742826 14.8884353,18.7234929 C15.1942669,19.0237372 14.8223077,19.3500674 14.3648514,19.6797418 C14.4228983,19.7120784 14.467605,19.7518514 14.5015553,19.7973658 C14.5945828,19.8421173 14.6616088,19.8997933 14.6966626,19.9729789 C14.8241661,20.0178918 14.9054448,20.0888156 14.9462767,20.1821958 C15.1712375,20.4456962 14.6685425,20.7205055 13.8337991,21 C13.8308715,20.9940547 13.8272069,20.9884702 13.8228862,20.9832063 C13.5685558,21.0307471 13.0773914,20.9629847 12.5520328,20.8791125 C12.1644322,20.4964385 11.8557834,20.1464383 12.0705322,20.0134347 L12.0352652,20.0429667 C11.9493051,19.4427309 11.9918185,18.9791158 12.4905826,19.0007257 C12.6392725,19.0110654 12.7049502,19.0424075 12.7428931,19.0810198 C12.8992871,19.0482236 13.036806,19.0474158 13.1257888,19.1278715 C13.1308803,19.126306 13.1358999,19.1248046 13.1408482,19.1233667 C13.1018003,19.0779471 13.0487528,19.0416244 12.9781431,19.0180145 C12.9334483,18.925884 12.8737563,18.8511436 12.7470965,18.8516986 C12.722893,18.7595681 12.6535493,18.7273779 12.5105558,18.7926833 C12.4419546,18.7005528 12.3359345,18.7014778 12.2153626,18.739033 C12.1861105,18.6948178 12.1354763,18.6589276 12.0208439,18.6470875 C11.9013114,17.7376224 12.3258373,16.943413 12.5331259,17.0031684 Z M6.01893868,10.0000055 L6.09270484,10.0018358 C6.75556117,10.0397334 7.24381753,10.3436429 6.87071401,11 C6.85741116,10.5788995 6.5271262,10.3434971 5.55747278,10.4835725 C5.38391209,10.4548577 5.1943464,10.3465581 5,10.2156656 C5.0658907,10.0388588 5.87175273,9.98930042 6.09270484,10.0018358 Z M13.8203489,6 L14.0224885,6.62683319 L14.0224885,6.62683319 L14.2449319,6.27801432 L14.2449319,6.27801432 C14.200012,6.47308165 14.1550921,6.66830668 14.1101722,6.86353171 C14.2718839,6.68801842 14.4335955,6.51250513 14.5953072,6.33714953 L14.21798,7.00529851 L14.21798,7.00529851 C14.260564,7.03289494 14.3033278,7.06049137 14.3459119,7.0880878 C14.3177022,7.28709749 14.2485255,7.43517204 14.1572482,7.55533478 C15.7299843,6.11732425 16.9575557,6.36553442 17.9912528,7.56116946 C18.0106582,7.70246318 17.9975416,7.80717192 17.9542388,7.87766108 C17.9283649,7.90525751 17.902491,7.93285394 17.8766171,7.96045037 L17.8900931,8.02841644 L17.8900931,8.02841644 L17.7957613,8.12303277 L17.7957613,8.12303277 C17.7867773,8.05995521 17.7777933,7.99687766 17.768989,7.93380011 L17.6610016,7.93380011 L17.6610016,7.93380011 C17.6575876,7.88948813 17.6543534,7.84501845 17.6509395,7.80070647 C17.5959575,7.81647586 17.5409755,7.83224525 17.4858139,7.84801463 L17.4892278,7.62629703 L17.4892278,7.62629703 C17.408372,7.67455136 17.3276958,7.72280569 17.2466603,7.77121771 C17.2590582,7.71586716 17.2714561,7.66083199 17.2836743,7.60563913 L17.0511688,7.79771028 L17.0511688,7.79771028 C17.0590747,7.62535087 17.0669806,7.45283376 17.0748865,7.28031665 C16.9985227,7.4104141 16.9221588,7.54051156 16.845795,7.67060901 L16.795305,7.50203425 L16.795305,7.50203425 L16.6370072,7.60264295 L16.6370072,7.60264295 C16.6156253,7.56416564 16.5942434,7.52568833 16.5728616,7.48736872 C16.5358475,7.5316807 16.4986539,7.57599268 16.4616398,7.62030466 C16.4348676,7.57315419 16.4077359,7.52568833 16.380784,7.47838017 C16.3110683,7.54540007 16.2417119,7.61241997 16.1719962,7.67943987 C16.1373181,7.61446999 16.1022805,7.54950011 16.0676024,7.48437254 C16.0226824,7.53373072 15.9777625,7.58293121 15.9328426,7.6322894 C15.841745,7.58293121 15.7508271,7.53373072 15.6599092,7.48437254 C15.6408632,7.53656921 15.6216374,7.58892358 15.6025914,7.64112026 C15.5555153,7.61305075 15.5084393,7.58529662 15.4611835,7.55722711 C15.4487856,7.58718895 15.4363877,7.61699309 15.4241695,7.64695493 C15.3657736,7.64112026 15.307198,7.63512789 15.2488022,7.62929322 C15.2477241,7.6529473 15.246646,7.67644369 15.2455679,7.70025546 C15.178188,7.69915161 15.1108082,7.69820544 15.0434283,7.69725928 L15.0297727,7.77705239 L15.0297727,7.77705239 C14.9322066,7.77516006 14.8344609,7.77311004 14.7368948,7.77121771 C14.7503708,7.81647586 14.7636671,7.8618917 14.7771431,7.90714984 C16.0433456,7.73652506 16.4708035,8.07383228 16.7649391,9.12754281 C16.8526228,9.44135364 16.7097775,9.60030908 16.4246258,9.66338663 C16.5956809,9.52161983 16.6044852,9.37969534 16.1551063,9.23777084 C16.1910423,9.15782004 16.2271579,9.07802693 16.2629141,8.99823383 C16.2212285,8.96070268 16.1799021,8.92332923 16.1382165,8.88579809 L16.0203466,8.71738102 L16.0203466,8.71738102 L15.9260148,8.75585833 L15.9260148,8.75585833 C15.9080468,8.71927335 15.8900789,8.68284606 15.8721109,8.64641877 C15.8205428,8.67101902 15.7687951,8.69561926 15.717227,8.72021951 L15.717227,8.44819756 L15.717227,8.44819756 C15.6811114,8.47390166 15.6451755,8.49944807 15.6094192,8.52515217 C15.5722255,8.49172107 15.5352115,8.45813227 15.4981975,8.42454348 C15.4466295,8.45418993 15.3948817,8.48367868 15.3433137,8.51332513 C15.307198,8.4729555 15.2712621,8.43258586 15.2353262,8.39205854 C15.1735164,8.4187088 15.1118863,8.44535907 15.0500765,8.47200934 L14.8042747,8.36256978 L14.8042747,8.36256978 C14.749113,8.38117766 14.6939514,8.39994323 14.6391491,8.4187088 C14.5670975,8.40104709 14.4954054,8.38322768 14.4235335,8.36540827 C15.2779103,8.98577601 16.1464817,9.545747 15.5149077,10.943861 C15.5059237,10.7713439 15.4969398,10.5988268 15.4879558,10.4263096 L15.3632581,10.6245309 L15.3632581,10.6245309 C15.3823041,10.4923834 15.4015299,10.3602359 15.4205759,10.2282461 C15.3948817,10.2470117 15.3688282,10.2656196 15.343134,10.2843852 L15.3632581,10.1306336 L15.3632581,10.1306336 C15.307198,10.1642224 15.2509583,10.1976535 15.1948983,10.2312423 C15.1914843,10.1848803 15.1880704,10.1385183 15.1848362,10.092314 C15.1399163,10.0981487 15.0949964,10.1039833 15.0500765,10.1099757 C15.0445064,10.0420097 15.0387566,9.97404359 15.0331866,9.90591983 C15.0252807,9.83795376 15.0173748,9.7699877 15.0094689,9.70202164 C14.9681425,9.75027596 14.9264568,9.79853029 14.8849508,9.84678462 L14.8747091,9.68420223 L14.8747091,9.68420223 C14.8522492,9.68325606 14.8297892,9.68215221 14.8073292,9.68120604 C14.8096651,9.61229382 14.8120009,9.54322389 14.8141571,9.47431167 C14.7568393,9.52745451 14.6997011,9.58075504 14.6423833,9.63389788 L14.6323213,9.40334942 L14.6323213,9.40334942 C14.6323213,9.40334942 14.5697927,9.3213486 14.4923508,9.27703662 C14.4149089,9.23272463 14.4416811,9.18841265 14.3811291,9.14993535 C14.3203974,9.11145804 14.310515,9.09679251 14.2733213,9.06414987 C14.2363073,9.03166493 14.1824034,8.93105623 14.1554514,8.95471032 C14.1284995,8.9783644 14.1250856,9.06714606 14.1083754,9.0789731 C14.0914855,9.09080014 13.784952,9.0376573 13.784952,9.0376573 L13.7040961,8.8364399 C13.7040961,8.8364399 13.6836127,8.85425931 13.6703164,8.96070268 C13.6568404,9.06683067 13.5104015,9.20985902 13.5096827,9.21080518 L13.4697939,9.21711294 C13.4291863,9.28413284 13.388938,9.35115274 13.3485101,9.41817264 L13.2744821,9.32056013 L13.2744821,9.32056013 L13.1968605,9.46847699 L13.1968605,9.46847699 L13.1226528,9.43883054 L13.1226528,9.43883054 C13.1136688,9.52351216 13.1048645,9.60835147 13.0958805,9.69303308 L13.0351488,9.50979279 L13.0351488,9.50979279 C13.0026268,9.5353392 12.9701047,9.5610433 12.937403,9.58674741 C12.9205132,9.62900937 12.9036233,9.67142902 12.8869131,9.71384868 C12.8554691,9.70202164 12.8240252,9.69019459 12.7925812,9.67836755 C12.7632935,9.73939509 12.7341853,9.80042262 12.7050772,9.86160785 C12.6623135,9.85372315 12.6195497,9.84583846 12.5769656,9.83795376 C12.5872074,9.89913899 12.5970898,9.96016652 12.6073315,10.0213518 L12.499344,9.97987826 L12.499344,9.97987826 C12.4950317,10.0193017 12.4905397,10.0587252 12.4858681,10.0981487 C12.447776,10.1080834 12.4096839,10.1178604 12.3715918,10.1277951 C12.3735683,10.1859842 12.3760838,10.2440155 12.3782399,10.3022046 C12.33332,10.2785505 12.2884001,10.2548964 12.2434802,10.2312423 C12.2424021,10.3022046 12.2411444,10.3731668 12.2400663,10.4441291 C12.2120363,10.4253635 12.1840062,10.4065979 12.1557965,10.38799 C12.1356724,10.5004258 12.1153686,10.6127038 12.0950648,10.7249819 L12.0210368,10.6984893 L12.0210368,10.6984893 L12.0614647,11 L12.0614647,11 C11.6135233,10.4206327 11.9019092,9.69618696 12.3223596,9.19456271 C12.6337444,8.82303592 13.015384,8.53398303 13.5369941,8.40987794 C13.489918,8.35263506 13.4426622,8.29554988 13.3955862,8.23846469 L13.075397,8.43652821 L13.075397,8.43652821 C13.0071187,8.3980509 12.9384811,8.3595736 12.8700232,8.32125398 C12.8610392,8.35468509 12.8520552,8.38811619 12.8430712,8.42170499 C12.8261813,8.38433154 12.8092914,8.34680039 12.7924016,8.30926925 L12.7083115,8.50149809 L12.7083115,8.50149809 C12.6666258,8.43258586 12.6252995,8.36351594 12.5836138,8.29460372 C12.5521699,8.39615858 12.5207259,8.49755574 12.489282,8.59911061 C12.45676,8.53697922 12.4240583,8.47500552 12.3917159,8.41287413 C12.3669201,8.47989403 12.342304,8.54691393 12.3175082,8.61393383 L12.2736664,8.52530987 L12.2736664,8.52530987 C12.2758225,8.60510297 12.2781584,8.68489608 12.2804942,8.76468919 C12.2064662,8.68489608 12.1320788,8.60510297 12.0580508,8.52530987 C12.0625428,8.63064938 12.0670348,8.73614659 12.0717065,8.84148611 C12.0231929,8.78140474 11.9748591,8.72132337 11.926705,8.661242 C11.8963391,8.74292743 11.8659732,8.82492825 11.8356074,8.90661368 L11.7919452,8.71438484 L11.7919452,8.71438484 L11.7277996,8.91844072 L11.7277996,8.91844072 L11.6537716,8.7203772 L11.6537716,8.7203772 C11.6537716,8.7203772 11.4448041,9.04554199 11.4448041,9.02788028 C11.4448041,9.01006087 11.387666,8.73520043 11.387666,8.73520043 C11.3639483,8.75491216 11.3404102,8.7746239 11.3168722,8.79433564 C11.2965684,8.71738102 11.2764443,8.6405841 11.2561405,8.56362948 C11.2618902,8.73803892 11.2674603,8.91260605 11.2730304,9.08701549 C11.2394303,9.02677642 11.2056505,8.96669505 11.1720504,8.90661368 L11.1821125,9.12833128 L11.1821125,9.12833128 C11.1483327,9.11066957 11.1147326,9.09285016 11.0809528,9.07503075 C11.1010769,9.16491626 11.1213807,9.25448639 11.1416845,9.34421421 C11.1337786,9.3934147 11.1258727,9.44277289 11.1179668,9.49197338 C11.0888587,9.4940234 11.0597506,9.49591573 11.0304628,9.49796575 C11.0428607,9.55110859 11.0550789,9.60440912 11.0674768,9.65755196 C11.0013547,9.59053206 10.9350529,9.52366985 10.8687511,9.45649226 C10.876657,9.57870502 10.8843833,9.70107547 10.8922892,9.82328823 C10.8552752,9.77582237 10.8182612,9.72851421 10.7810675,9.68120604 C10.7440535,9.70785631 10.7070395,9.73450658 10.6700254,9.76115684 C10.6657131,8.83281294 10.9433182,8.0911786 12.0936274,7.915823 C12.6378771,7.83287602 13.1318164,7.92323462 13.6077878,8.0758823 C13.5235181,8.00381619 13.4392483,7.93190778 13.3549786,7.85999937 C13.3213785,7.81347967 13.2875987,7.76727537 13.2539986,7.72107106 C13.2437569,7.7456713 13.2336948,7.77027155 13.2236327,7.79487179 C13.204407,7.75055981 13.1855406,7.70624783 13.1663149,7.66193585 L13.112411,7.72390955 L13.112411,7.72390955 C13.0992944,7.67407828 13.0859981,7.62408932 13.0730612,7.57410036 C13.0400001,7.59255054 13.0072984,7.61084303 12.9742374,7.62929322 C12.9686673,7.60075062 12.9630972,7.57220803 12.9573475,7.54350774 C12.9226693,7.56716183 12.8878115,7.59081591 12.8529536,7.61446999 L12.8529536,7.50503043 L12.8529536,7.50503043 C12.8204316,7.50897278 12.7879096,7.51307282 12.7552079,7.51701517 L12.6574621,7.40757561 L12.6574621,7.40757561 C12.6116438,7.44983758 12.5656458,7.49225723 12.5194682,7.53467689 C12.498266,7.50708046 12.4768841,7.47948403 12.4555022,7.4518876 C12.4206443,7.49131107 12.3859662,7.53073454 12.3509286,7.57015801 C12.3308045,7.51591131 12.3106804,7.46166462 12.2903766,7.40757561 C12.2769006,7.43517204 12.2634246,7.46276847 12.2499487,7.4903649 C12.2174267,7.44494906 12.1849046,7.39969092 12.1522029,7.35427508 C11.9793511,7.51196897 11.8063196,7.66966285 11.6334678,7.82735674 C11.6762315,7.71302867 11.7188156,7.5987006 11.7613997,7.48453023 L11.8255453,7.23016999 L11.8255453,7.23016999 C11.7838596,7.276532 11.7423536,7.322894 11.700668,7.36909831 C11.6873717,7.34150188 11.6738957,7.31390545 11.6604197,7.28630902 C11.590704,7.3820292 11.5209883,7.4775917 11.4512726,7.57315419 C11.4413902,7.52489986 11.4311485,7.47664554 11.4212661,7.42823351 C11.4076104,7.4518876 11.3941345,7.47554168 11.3806585,7.49919576 L11.3369963,7.36326363 L11.3369963,7.36326363 C11.3256765,7.43312202 11.3145364,7.50313811 11.3032166,7.57315419 C11.2807566,7.53073454 11.2582966,7.48831488 11.2358367,7.44605292 L11.1652226,7.63812407 L11.1652226,7.63812407 C11.1190449,7.60075062 11.0730469,7.56337717 11.0268692,7.52584603 L10.9965034,7.70325165 L10.9965034,7.70325165 C10.9515835,7.65688965 10.9066636,7.61052764 10.8617436,7.56432334 C10.8550955,7.61557385 10.8484473,7.66682436 10.8416195,7.71791718 C10.7966996,7.68353991 10.7517797,7.64900495 10.7068598,7.61446999 C10.6899699,7.67265903 10.67308,7.73084808 10.6563698,7.78903712 C10.62259,7.74362128 10.5889899,7.69820544 10.5552101,7.6529473 L10.4878303,7.70624783 L10.4878303,7.70624783 C10.4405745,7.68748226 10.3936781,7.66871669 10.3464224,7.64995111 C10.3519924,7.69631312 10.3577422,7.74267512 10.3633123,7.78903712 C10.3295325,7.78604094 10.2959324,7.78304475 10.2621526,7.78020626 C10.2308884,7.85794935 10.1992647,7.93585013 10.1678208,8.01375091 C10.143025,7.95666572 10.1182292,7.89942284 10.0937928,7.84233765 C10.0914569,7.88176113 10.0891211,7.9210269 10.086965,7.96060807 L10,7.90415366 L10,7.90415366 C10.5147822,6.65979121 12.4454401,5.9947961 13.8541287,7.49020721 L13.8203489,6 L13.8203489,6 Z M2,10.2156656 C1.80566227,10.3465581 1.61589719,10.4548577 1.44255209,10.4835725 C0.472734073,10.3434971 0.142671703,10.5788995 0.129369441,11 C-0.243925279,10.3436429 0.244517144,10.0397334 0.907136058,10.0018358 C1.12828616,9.98930042 1.93411223,10.0388588 2,10.2156656 Z M4.78063766,7.13278904 L4.86214103,7.10716202 C5.26232681,7.00330237 5.60538741,7.09510836 6,7.00627451 C5.76499729,7.25378741 5.48509947,7.3076161 5.18244446,7.38423117 C5.15890112,7.39018953 5.13579386,7.39642705 5.11311638,7.4029397 C5.26369645,7.55639992 5.40850081,7.75167313 5.54741793,7.98470892 C6.47517968,6.38978809 7.54853143,7.66530029 6.67918542,8.4196322 C6.83825597,7.25614799 6.02028584,7.51491901 5.98269007,8.61291459 C6.73071109,8.37203167 7.1122108,9.15440848 6.61732465,9.73850029 C6.696111,9.01797385 6.19538328,8.70447739 5.77838477,9.15107341 C5.73180197,9.32813524 5.64028398,9.55385876 5.43478041,9.79686399 L5.31420433,10 L5.31420433,10 L5.03635511,9.91647169 L5.03635511,9.91647169 C5.16651736,9.63359722 5.29652982,9.35057116 5.42654229,9.06769669 C5.43513655,8.41665265 5.25824448,7.88356271 4.83198771,7.50917098 C4.30913916,7.75481163 4.09304869,8.19537866 4.04938463,8.74613003 C4.95456305,8.84008256 4.9208143,9.53902993 4.69958975,10.1950464 C4.68271538,9.79578947 4.50731481,9.4530031 4.25837913,9.13630547 C4.19227494,9.28458204 4.08437186,9.38844169 3.93312176,9.44590299 C3.96346466,9.63810114 3.94256521,9.82864809 3.87491292,10.0089577 L3.87491292,10.0089577 L3.54439198,9.6625387 C3.46296153,9.49642931 3.34128028,9.38068111 3.21340661,9.27236326 C3.32641845,10.3834469 3.14931496,10.7741176 2.90579766,11 C2.91864695,10.6524252 2.8746807,10.3317647 2.78411642,10.0335604 C2.67451041,9.67195046 2.29259231,9.12557276 2.76879015,8.83661507 C2.99295611,8.70072239 3.31527208,8.86270382 3.62551281,8.98769866 C3.09785353,7.60920069 2.60567689,7.74381956 2.26142992,7.43461712 C1.76726934,7.80971117 1.56403438,8.37120552 1.57322813,9.06769669 C1.70338399,9.35057116 1.83339008,9.63359722 1.96339616,9.91647169 L1.96339616,9.91647169 L1.68556057,10 L1.68556057,10 L1.56528997,9.79686399 C1.35979647,9.55385876 1.2681332,9.32813524 1.2214029,9.15107341 C0.804724401,8.70447739 0.30372168,9.01797385 0.382504171,9.73850029 C-0.11235771,9.15440848 0.269273062,8.37203167 1.01710762,8.61291459 C0.979813244,7.51491901 0.161733465,7.25614799 0.320796212,8.4196322 C-0.548507164,7.66530029 0.524791939,6.38978809 1.45265796,7.98470892 C1.65587408,7.6435778 1.87178821,7.38336728 2.09425349,7.2163518 C2.06033648,7.15805311 2.02893738,7.08594571 2,7 C2.06226083,7.04693615 2.14784278,7.08237726 2.24839409,7.11668335 C2.49595689,6.98057612 2.74894247,6.96071884 3,7.07241602 C2.85194825,7.11654258 2.7168035,7.16888967 2.59393896,7.22905638 C3.00987444,7.37460484 3.498338,7.62829602 3.73589287,8.39327141 C3.92312116,7.98297109 4.14444056,7.53289782 4.50055519,7.27801905 C4.35448513,7.19744309 4.18760982,7.12833005 4,7.07241602 C4.2611475,6.95620279 4.52438221,6.98239688 4.78063766,7.13278904 Z" id="Combined-Shape" fill="#009949" fill-rule="evenodd"></path>
                    <path d="M16.9124471,16.2574796 C17.1494999,16.3645269 16.8646497,16.9893338 16.5408433,16.6795005 C16.4815801,16.6226999 16.4159623,16.5515064 16.3481343,16.4943202 C16.0117569,16.2112166 15.6360088,16.7603322 15.4605676,17 C15.3070911,16.8885834 15.1534765,16.7771668 15,16.6656216 C15,16.6656216 15.3163467,16.2998873 15.6382191,16.1042978 C16.0281959,15.8673287 16.5297919,16.0846361 16.9124471,16.2574796 Z M2.45265823,10 C2.51831224,10.0182423 2.59780591,10.3682799 2.56658228,10.4024037 C2.68219409,10.5092821 2.74599156,10.6552205 2.71848101,10.869192 C2.80303797,10.9898058 2.86902954,11.1402511 2.88607595,11.3681726 C2.94413502,11.4881425 2.98413502,11.6173409 3,11.7585578 C2.90126582,11.9122223 2.7750211,11.9967808 2.61704641,12 C2.4978903,11.8429016 2.45772152,11.6596201 2.45265823,11.4649641 C2.37063291,11.3585149 2.35392405,11.2046357 2.33232068,11.054405 C2.27240506,10.9799335 2.25468354,10.8623243 2.23746835,10.7445005 C2.09113924,10.6665951 2.05080169,10.5275244 2,10.3944629 C2.14075949,10.3521837 2.29485232,10.1927245 2.45265823,10 Z M4.54741816,10 C4.70519744,10.1927245 4.85909551,10.3521837 5,10.3944629 C4.94920688,10.5275244 4.90870739,10.6665951 4.76274047,10.7445005 C4.74519069,10.8623243 4.72780965,10.9799335 4.66756666,11.054405 C4.64596693,11.2046357 4.62959838,11.3585149 4.54741816,11.4649641 C4.54218697,11.6596201 4.50219372,11.8429016 4.38288896,12 C4.22494094,11.9967808 4.09888626,11.9122223 4,11.7585578 C4.0158623,11.6173409 4.0560243,11.4881425 4.11407357,11.3681726 C4.13111711,11.1402511 4.19692879,10.9898058 4.28164023,10.869192 C4.25396558,10.6552205 4.31775228,10.5092821 4.43368208,10.4024037 C4.40212622,10.3682799 4.48194398,10.0182423 4.54741816,10 Z M13.701279,9 L13.7988294,9.19904962 C13.7988294,9.19904962 14.1686538,9.25161994 14.189031,9.23992031 C14.2091914,9.22822069 14.2133102,9.1403955 14.245827,9.11699625 C14.2783438,9.093597 14.3433774,9.19312181 14.3880338,9.22525678 C14.432907,9.25754775 14.4448298,9.27205528 14.518101,9.31011806 C14.5911554,9.34818084 14.5588554,9.39201544 14.652287,9.43585003 C14.7457186,9.47968463 14.8211576,9.56080203 14.8211576,9.56080203 C14.8211576,9.56080203 14.7275092,9.63099978 14.6097984,9.66609865 C14.5217863,9.71617305 14.3982224,9.73395648 14.3739432,9.74222421 C14.381964,10.2774431 14.3902016,10.8126619 14.3982224,11.3478808 C14.4873184,11.4252543 14.5480165,11.5055917 14.5608064,11.590609 C14.8142207,11.6932537 14.9204422,11.8289693 15,11.9709248 C14.7689139,11.8640682 14.6011272,11.9489295 14.4146976,11.9854323 C14.3130284,12.0117955 14.1461088,11.994324 14.028398,11.994324 C13.9104704,11.994324 13.8415348,11.965153 13.727726,11.9826244 C13.6137004,12.0000959 13.4795144,11.9679609 13.3375244,11.9826244 C13.1953176,11.9972879 13,11.9679609 13,11.9679609 C13,11.9679609 13.0598309,11.8612603 13.132235,11.7848228 C13.2395404,11.6717264 13.7697811,11.5408466 13.756124,11.3976432 C13.7240408,11.0630339 13.8157381,10.6608788 13.7897247,10.2877387 C13.7736831,10.061234 13.7520052,9.76265956 13.7520052,9.76265956 C13.6418816,9.74144424 13.5285064,9.68731397 13.5324084,9.592937 C13.5365272,9.56080203 13.5569044,9.35910049 13.5569044,9.35910049 L13.4667245,9.37033213 C13.4675916,9.36939616 13.6442662,9.2279087 13.6605246,9.12292406 C13.6765662,9.01762744 13.701279,9 13.701279,9 Z" id="Combined-Shape" fill="#8C3629" fill-rule="evenodd"></path>
                    <path d="M0.999925844,3 C1.55239155,3 2,3.22391753 2,3.50006873 C2,3.77621993 1.55239155,4 0.999925844,4 C0.447756767,4 0,3.77621993 0,3.50006873 C0,3.22391753 0.447756767,3 0.999925844,3 Z" id="Fill-15" fill="#FFFFFE" fill-rule="evenodd"></path>
                    <path d="M0.999925844,3 C1.55239155,3 2,3.22391753 2,3.50006873 C2,3.77621993 1.55239155,4 0.999925844,4 C0.447756767,4 0,3.77621993 0,3.50006873 C0,3.22391753 0.447756767,3 0.999925844,3 Z" id="Stroke-16" fill="none"></path>
                    <path d="M13.0051927,17.3377744 C12.9586618,17.214256 13.2196198,15.7084395 13.9998263,16.0503942 C14.1832823,16.1310119 14.0887387,16.2448777 14.0887387,16.2448777 C14.2246266,16.2320074 14.3086488,16.2756232 14.2887917,16.4325685 C14.4983286,16.3385443 14.6314009,16.3567771 14.6333273,16.5666333 C14.7970744,16.5675271 14.9068812,16.6640538 14.944669,16.8885678 C15.1121208,16.8603248 15.1512422,16.9189558 15.1334597,17.01584 C15.2600118,16.9888483 15.353518,17.013695 15.4058281,17.1028928 C15.5787628,17.1313146 15.6626369,17.2289138 15.6281092,17.4180346 C16.2556827,17.0056511 16.0379955,18.4097571 15.3557408,19 C15.3149893,18.9524517 15.2677175,18.9631769 15.2194084,18.9830185 C15.2457858,18.8316145 15.191401,18.7545719 14.9805304,18.8221406 C15.0012766,18.587259 14.9024356,18.4962736 14.7416523,18.4801858 C14.7463943,18.3216318 14.6386621,18.2701509 14.5024779,18.2456617 C14.4765451,18.1401973 14.4085271,18.0762037 14.2191436,18.1317959 C14.1975083,17.994156 14.1222291,17.9140746 13.9636686,17.923906 C13.9857485,17.7885899 13.8969843,17.7127986 13.6858173,17.7027884 C13.6795934,17.5785549 13.5697866,17.6060829 13.4856161,17.5955365 C13.4675373,17.4541427 13.357434,17.4128508 13.1578256,17.4680855 C13.1421178,17.409812 13.0949942,17.3645874 13.0051927,17.3377744 Z M15.4430932,0 C15.8099504,0.267607871 15.9372584,0.667982438 15.8048716,1.21236046 C16.1414254,0.731945559 17.0786295,1.42464888 16.2841391,2.10369521 C16.1918746,2.05753804 16.18578,1.99461216 16.1867958,1.93704535 C16.1883194,1.86391994 16.282954,1.76797526 16.2746587,1.67254919 C16.2746587,1.67254919 16.2683949,1.48463592 15.9888927,1.61429089 C15.8465176,1.65284164 15.626945,1.7761003 15.4876171,1.98043654 C15.1646068,2.45359077 14.9579004,2.4281784 14.4970858,2.53484122 C14.4970858,2.53484122 14.6433547,2.82353964 14.8422736,3.04170574 C15.0907952,3.31432694 15.6652051,3.33766484 15.9995581,3.23117488 C16.5624562,3.05207814 16.9167857,2.7227545 17.2624813,3.43689411 C17.4072265,3.73596492 17.3862342,3.77814601 17.3792932,4.12302825 C17.5702554,4.24317519 17.7679892,4.37317591 17.883616,4.57457331 C18.0148179,4.80311181 18.06696,5.09837941 17.8680411,5.15387174 C17.5887082,5.23166473 17.3603325,5.50394018 17.2140636,5.55580217 C17.1207834,5.5912412 16.6799453,5.61492484 16.4414119,5.6261616 C16.3393285,5.63100206 16.1964455,5.65416708 16.1414254,5.53298289 C15.9961723,5.55390056 15.8969668,5.54162656 15.8240016,5.51033649 C15.8240016,5.51033649 15.4080496,5.34178502 15.5444995,5.21869923 C15.5321411,5.03510779 16.1812091,4.76801853 16.5223338,4.86223448 C16.7031384,4.8912772 17.0681333,4.78755322 16.9032423,4.59307075 C16.8021746,4.47396105 16.6762209,4.35744444 16.593606,4.26927906 C16.460542,4.12735008 16.5060817,4.05301456 16.5032038,3.85732198 C16.223363,4.13253628 15.6362561,4.55382851 15.2445129,4.2832818 C14.9985307,4.11352021 14.9143922,3.85282728 14.8651281,3.67580501 C14.8317774,3.67148318 14.8080764,3.7769359 14.8187419,3.88982216 C14.8422736,4.14031558 15.1977881,4.59116915 14.553291,4.04800123 C14.3013271,3.83579925 14.0230288,3.45276484 13.9569537,3.30507022 L13.946,3.276 L13.9529434,3.38141971 C14.0049686,4.36216514 13.797357,4.36454665 13.3447108,3.44242606 C13.3398013,3.94272139 13.1657684,4.22467775 12.6526424,4.06788166 C12.6526424,4.06788166 13.071811,4.37594189 13.17017,4.54449336 C13.2685291,4.71304482 13.2273909,4.89784638 13.0653779,5.04046686 C12.952629,5.13969613 12.5530983,5.39174541 12.24634,5.56167986 C11.973271,5.71277113 11.3504433,5.99697484 11.0846538,5.99991368 C10.7956713,6.00319828 10.2085644,5.91243979 10.0687286,5.77950022 C9.91044001,5.68009807 9.71067468,5.560124 9.70051712,5.36771602 C9.67512322,5.20244914 9.64651276,5.06639785 9.64651276,5.06639785 C9.64651276,5.06639785 9.56406724,5.12465616 9.55458685,5.00796668 C9.5259764,4.65876261 9.99762573,4.1557013 10.4426961,4.31578198 C10.5578151,4.35727157 10.6631151,4.43177996 10.7365882,4.52582304 C10.8969083,4.73119652 11.0211691,5.41491043 11.6431503,5.11169066 C11.8114272,4.98203568 11.9383967,4.8330189 11.8877782,4.68054464 C11.8368211,4.52824326 11.6590638,4.22364051 11.4623458,4.16520933 C11.2654584,4.10677816 11.0973508,4.07773544 11.1322251,3.87668379 C11.3096438,3.09979117 11.7261037,3.11552264 12.4112311,3.06971122 C12.6812528,3.08907303 12.9541526,3.06971122 12.7985727,2.97566814 C12.2691945,2.65567966 11.9323022,2.73744873 11.4279793,3.0562271 C11.1545717,3.22927328 10.7772184,3.76500764 10.5766066,3.8021754 C10.4369402,3.82810639 10.4242432,3.89621847 10.3544946,3.97072687 C10.2845768,4.04523526 10.0719452,4.03244264 9.94819227,4.15241671 C9.82427005,4.27221791 9.82122278,4.3111144 9.58624458,4.39219198 C9.35126638,4.47326955 8.5928353,4.8297343 8.24680112,4.90113098 C7.8853613,5.20815396 7.06852426,5.08437668 6.94849577,4.93345828 C6.94003113,4.99724853 6.93139721,5.06103878 6.92310187,5.12482903 C6.88755041,5.17461654 6.51950819,4.96578559 6.53576028,4.94313919 C6.52001606,4.96595846 6.52306333,5.12154444 6.50410255,5.10529435 C6.46702746,5.11670398 6.04379583,4.86707494 6.05970934,4.8426998 C6.05970934,4.8426998 6.13267448,5.03407055 6.06918973,5.02421677 C6.00570499,5.01453586 5.8787355,4.96924306 5.88178277,5.04375145 C5.88516862,5.11825984 5.89143245,5.47489747 5.79307342,5.41975088 C5.61413108,5.47576183 5.12013512,4.77164887 5.18345058,4.68400211 C4.9801301,4.94071896 4.70976973,5.09492195 4.37084584,5.14419084 C4.38049553,5.01782046 4.38997591,4.89145007 4.3994563,4.76490681 C4.3994563,4.76490681 4.2152659,5.06968245 4.05037485,5.13122534 C3.92611405,5.17755539 3.57754048,5.38344749 3.33409764,5.47437885 C3.10589115,5.55960538 2.70517544,5.51241097 2.57109566,5.76325013 C2.45513019,5.980379 2.45292939,6.03829156 2.29193208,5.86870285 C2.19289587,5.76446025 2.07642253,5.61527059 2.04408763,5.57533685 C1.9457286,5.54940586 1.69805345,5.61751794 1.6093441,5.52347486 C1.52029617,5.42943179 1.30461733,5.48457837 1.28548726,5.47800918 C1.26635719,5.47161287 0.618812794,5.58501776 0.460185579,5.44239728 C0.262621054,5.22959025 0.0708124792,5.26053457 0.0628557246,4.90908315 C0.0598084568,4.78132978 0.131588541,4.65858973 0.187116531,4.62885553 C0.187116531,4.62885553 0.349468185,4.75418867 0.403472541,4.73793858 C0.457307604,4.72186136 0.460693457,4.54345612 0.460693457,4.54345612 C0.460693457,4.54345612 0.536705858,4.42348204 0.6255845,4.43333582 C0.714632435,4.44301673 0.701766194,4.42348204 0.701766194,4.42348204 C0.701766194,4.42348204 0.720896264,4.33600815 0.844649192,4.34897365 C0.968571414,4.36211202 1.01292609,4.35225824 1.03510343,4.30039625 C1.05728076,4.24853426 1.25315236,4.22139315 1.27262102,4.18802861 C1.27262102,4.18802861 1.37114934,4.15881302 1.37758246,4.2755025 C1.38384629,4.39219198 1.348972,4.55417426 1.42176784,4.63853643 C1.49490227,4.72272573 1.72361664,4.67103661 1.84093645,4.72601032 C1.95825626,4.78115691 2.17427368,4.95938928 2.26315233,4.96924306 C2.35186167,4.97892396 2.34238129,5.11497525 2.34238129,5.11497525 C2.79490055,4.66446743 2.79066823,4.69212715 3.37726727,4.49902768 C3.37726727,4.49902768 3.45344896,4.13927834 3.50423676,4.01290795 C3.55502455,3.88653757 3.62155657,3.6694087 3.60581235,3.66612411 C3.58989884,3.66283952 3.11367861,3.71158979 3.03444965,3.6694087 C2.95505139,3.62722762 3.08202088,3.33559036 3.08202088,3.33559036 C3.10843054,3.22097536 3.13484019,3.10653323 3.16141914,2.99191823 C3.16141914,2.99191823 2.7359867,3.03409932 2.66302157,2.96598724 C2.59005644,2.89804803 2.27263271,2.69042719 2.19645102,2.6288843 C2.12010003,2.5673414 1.9044212,2.29178136 1.9044212,2.29178136 C1.78845573,2.36767274 1.62813559,2.34450772 1.56160357,2.38910903 C1.46138232,2.48246061 1.27363677,2.69595914 1.26957375,2.76182387 C1.17460057,2.69837937 1.12313561,2.62006776 1.09164717,2.53484122 C1.0171584,2.61609167 0.964339097,2.70339269 0.936236517,2.79743577 C0.84769646,2.7564648 0.788613324,2.69146443 0.742565723,2.6159188 C0.694994488,2.71220923 0.672647858,2.8147231 0.675864418,2.92397903 C0.577166802,2.84013547 0.529256981,2.73744873 0.523670324,2.61920339 C0.440886217,2.69699638 0.381803081,2.78083993 0.34980677,2.87177129 C0.221313647,2.76389835 0.185931483,2.64046681 0.159352536,2.51513367 C-0.265402728,2.19773828 0.264652566,1.8628827 0.524347494,1.64869268 C0.701089023,1.50278761 0.885618014,1.603227 1.16562806,1.55897143 C1.21743161,1.49673705 1.23977824,1.41306637 1.40128343,1.33596488 C1.7131205,1.18729384 2.35964914,1.56415763 2.61951336,1.73720381 C2.83857805,1.88310888 3.40350763,2.05494494 3.53047712,1.96729817 C3.58668228,1.83314849 3.77764439,1.22221424 4.25725048,0.894446463 C4.40758235,0.81993807 4.27434903,0 4.20663197,0.0127926243 C4.38235775,-0.0203990496 4.5701033,0.0197075564 4.84774325,0.602809203 C5.06223704,0.329150766 5.34935737,0.151437012 5.70791921,0.0679392076 C5.85181797,0.332089613 5.93104693,0.633580651 5.93968085,0.975524042 C6.3278689,0.909140694 6.64343041,0.959792571 6.82846728,1.2218685 C6.36375895,1.23656273 6.04142574,1.40597856 5.84758565,1.71473028 C5.83167214,1.7534539 5.81575863,1.79235039 5.80001441,1.83124688 C6.14621789,2.06600883 5.82947134,2.4145214 5.8602826,2.46344455 C5.86299128,2.42351082 6.73603349,2.78049418 6.90786553,2.88318093 C6.95103516,2.93002959 7.30333317,2.95077439 7.63734757,2.9260535 C8.11492214,2.89061448 8.77567136,2.79173095 9.29370688,2.65740839 C9.85491202,2.51184907 10.4308456,2.29402871 10.9866334,2.12634161 C12.2251784,1.75258953 12.765222,1.65042141 13.9958103,1.89935897 C14.6687486,2.03558313 14.6306577,1.95122096 14.7640603,1.87342797 C14.8972937,1.79563498 14.9480815,1.81516967 15.0179993,1.7048765 C15.0877479,1.59475621 15.0750509,1.59475621 14.9607784,1.47789386 C14.8465059,1.36137725 14.8275451,1.22515309 14.7957181,1.12142911 C14.7640603,1.01770513 14.6687486,0.868688341 14.3894157,0.855722843 C14.1102521,0.842757346 12.9546605,1.12799829 12.605579,1.21218759 C12.2563283,1.29654976 11.5261691,1.50399772 11.3231872,1.56882521 C11.120036,1.6336527 11.0374212,1.54272134 10.8913216,1.59475621 C10.7453914,1.6466182 10.4279676,1.82813517 10.3074313,1.83453148 C10.1867256,1.84110066 9.98035787,1.78923867 9.83747488,1.6466182 C9.69459188,1.50399772 9.29472263,1.20250669 9.29472263,1.20250669 C9.29472263,1.20250669 9.26611218,1.34512716 9.35177426,1.50399772 C9.43760563,1.66286829 9.38038472,1.70816109 9.23123789,1.67911838 C9.08192177,1.64990279 8.72014337,1.36466184 8.54864992,1.34841175 C8.37732575,1.33216166 8.14878067,1.39059284 8.1296506,1.48774763 C8.11068982,1.5850753 8.32653796,1.86374707 8.3646288,2.00308295 C8.40271965,2.1425917 8.28218328,2.18459991 8.20600159,2.11977243 C8.1296506,2.05494494 7.77735259,1.90264356 7.76465564,1.76659227 C7.75195869,1.63036811 7.67899356,1.31919617 7.67899356,1.31919617 C7.6573241,1.26612406 7.48041328,1.55689696 7.48853933,1.59147162 C7.3485343,1.50520784 7.18821416,1.19611037 7.14572171,1.043809 C6.99335832,0.823395536 6.99640559,0.836361034 6.99640559,0.674205877 C6.90549543,0.386890449 6.96881089,0.183591446 7.31078204,0.0325001807 C7.31078204,0.0325001807 7.21242301,0.505654407 7.31704587,0.619059293 C7.41811358,0.769113319 8.17874547,0.951148906 8.42168043,0.76496436 C8.6597059,0.628913072 8.90433378,0.531585403 9.30420302,0.69374056 C10.412562,1.14269252 10.3594041,1.35480807 11.5954098,0.976734155 C11.9233296,0.876294766 12.2761355,0.750615876 12.5891576,0.633062031 C12.9957986,0.480414905 13.5355036,0.281610608 13.9829441,0.412821444 C14.3884,0.531758276 14.6078032,0.992984245 15.208115,0.580162801 C15.41753,0.424576829 15.4430932,0 15.4430932,0 Z" id="Combined-Shape" fill="#FFF101" fill-rule="evenodd"></path>
                </g>
            </g>
        </g>
        <rect id="Rectangle" stroke="#DDE2E3" stroke-width="3" opacity="0" fill-rule="nonzero" x="1.5" y="1.5" width="45" height="45" rx="5"></rect>
    </g>
</svg>