<?xml version="1.0" encoding="UTF-8"?>
<svg width="48px" height="48px" viewBox="0 0 48 48" version="1.1" xmlns="http://www.w3.org/2000/svg" xmlns:xlink="http://www.w3.org/1999/xlink">
    <!-- Generator: Sketch 64 (93537) - https://sketch.com -->
    <title>Graphics / 01 Flags/HKD</title>
    <desc>Created with Sketch.</desc>
    <defs>
        <rect id="path-1" x="0" y="0" width="48" height="48"></rect>
    </defs>
    <g id="Graphics-/-01-Flags/HKD" stroke="none" stroke-width="1" fill="none" fill-rule="evenodd">
        <g id="Flag">
            <mask id="mask-2" fill="white">
                <use xlink:href="#path-1"></use>
            </mask>
            <g id="Mask" fill-rule="nonzero"></g>
            <polygon id="Fill-8442" fill="#F30004" mask="url(#mask-2)" points="0 48 48 48 48 0 0 0"></polygon>
            <path d="M32.0435472,30.1910783 C32.9445449,33.6496795 31.5181936,37.2338872 28.528766,39.0239479 C29.1830492,37.7396491 28.9254005,35.9608601 27.1051297,35.253435 C25.1083488,34.4774141 23.843219,31.6352806 25.0241127,29.427622 C25.777504,28.0249895 25.5786087,25.6799862 23.743243,24.644559 C23.8238585,24.5563643 23.8883114,24.4538563 23.9328897,24.3415501 C26.2776182,25.1279181 28.1167167,27.77214 28.4329443,29.9037279 L28.6253143,29.9146951 C28.3654653,27.9254311 26.5225588,25.0089088 23.9864271,24.145075 L23.9967324,24.0846051 L23.9967324,24.0846051 L24.0026722,23.9756583 C24.0026722,23.9695773 24.0026175,23.9635098 24.0025085,23.9574563 C27.6648572,23.9183961 31.0660534,26.439156 32.0435472,30.1910783 Z M23.3552547,24.9112955 L23.272333,24.6832668 C24.6350892,28.2247633 23.3080259,32.4215024 19.9421011,34.5743275 C16.9311995,36.4999938 13.0816486,36.2510342 10.4554158,33.9610787 C11.8790411,34.1864689 13.4911522,33.3917544 13.6014588,31.4419676 C13.7224593,29.3031125 16.0345422,27.221635 18.4990666,27.6625276 C20.0769837,27.9476178 22.2654537,27.0187659 22.6608478,24.9221338 C22.7639462,24.9581804 22.876225,24.9781113 22.9931416,24.9781113 C22.9958634,24.9781113 22.9985827,24.9781005 23.0012995,24.978079 L22.9941106,24.7424969 C23.137782,27.3095475 21.10952,30.0522537 19.0996499,31.051644 L19.1486651,31.2379877 C20.9799864,30.3667604 23.2125852,27.6641958 23.2028674,24.9557575 C23.255011,24.9453134 23.3060545,24.9301671 23.3552547,24.9112955 Z M17.1160764,30.7861036 L17.3214742,31.6106818 L16.6208328,32.0094388 L17.4464526,32.1173368 L17.6485419,32.9424628 L17.9537674,32.1849078 L18.779101,32.2961195 L18.1420811,31.72013 L18.4502716,30.9636273 L17.7513634,31.3652092 L17.1160764,30.7861036 Z M28.1485665,30.4941247 L28.3145192,31.2829215 L27.5674425,31.7081619 L28.4151344,31.7676257 L28.5778647,32.5571979 L28.9356124,31.8053291 L29.7828028,31.8681087 L29.1566451,31.3437247 L29.5174559,30.5931521 L28.7728073,31.0210034 L28.1485665,30.4941247 Z M9.68551799,15.4241182 C9.9110836,16.8477158 11.1650718,18.1353442 13.0535158,17.6377348 C15.1250791,17.0918705 17.8191548,18.6475801 18.1614209,21.1277254 C18.3768492,22.7088927 19.9226249,24.493635 22.0233462,24.2427549 C22.0538603,24.3555795 22.1051735,24.4615422 22.1723528,24.5555466 C19.7939357,25.3841714 16.6619634,24.3148522 15.1237701,22.7462086 L14.9616932,22.8504082 C16.3798815,24.3478914 19.7277116,25.6547829 22.319798,24.7198796 C22.3479343,24.7456488 22.3790559,24.7705404 22.4116068,24.7935569 C19.4660086,27.1375119 15.1014649,27.1555343 12.0338308,24.6359964 C9.27199346,22.3675224 8.31919147,18.6294492 9.68551799,15.4241182 Z M31.6143819,17.5437502 C35.1821307,17.7556169 38.150148,20.2197387 38.9288129,23.6160126 C37.9095569,22.596882 36.1382101,22.2922446 34.9029143,23.8048186 C33.5478353,25.4640664 30.4538592,25.7890089 28.7191673,23.9837081 C27.6529071,22.8702117 25.4704191,22.33284 23.9241696,23.59412 C23.8728644,23.4665985 23.7928267,23.3521872 23.6931669,23.2578813 C25.2191455,21.4029286 28.1703079,20.5426745 30.2253578,20.8888414 L30.2952338,20.7092758 C28.386676,20.3535523 25.1941115,21.1394608 23.5352333,23.1345857 C23.4577882,23.0870886 23.3724357,23.0484197 23.281789,23.0219269 C24.4563843,19.6568946 27.8341205,17.3193423 31.6143819,17.5437502 Z M27.2830452,9.03051571 C25.9988271,9.6849572 25.1617234,11.2754699 26.2185393,12.9177171 C27.3778354,14.7192096 26.7307828,17.7621685 24.4777905,18.8540899 C23.1422207,19.4985385 21.9944659,21.289922 22.5512278,23.081158 C22.4151743,23.1462888 22.2961568,23.2412501 22.2029473,23.3575466 C20.943396,21.3337271 21.0436729,18.297216 21.9998358,16.4652512 L21.8506516,16.3433064 C20.9190978,18.0548924 20.6816732,21.3521956 22.0838771,23.5464334 C22.0436417,23.6294806 22.0145035,23.7204528 21.9990565,23.8161625 C19.078061,21.6783921 17.8472981,17.6844197 19.247697,14.1105208 C20.5516893,10.7828604 23.8123762,8.72156371 27.2830452,9.03051571 Z M13.4468565,20.6846883 L13.59937,21.5032418 L12.8770776,21.9504181 L13.691875,22.0066074 L13.8410671,22.824 L14.1920972,22.0420801 L15.0068101,22.1014145 L14.4089084,21.560809 L14.7633561,20.7776616 L14.042607,21.2278153 L13.4468565,20.6846883 Z M31.2161716,20.0704534 L31.3929734,20.9108697 L30.698981,21.3417434 L31.5004535,21.4276647 L31.6740218,22.2695833 L31.9925263,21.4817557 L32.7937406,21.5709813 L32.189221,20.9984028 L32.5107242,20.2120767 L31.818512,20.6455445 L31.2161716,20.0704534 Z M22.0624114,14.0826068 L22.2607584,14.8748887 L21.5276808,15.2700354 L22.381599,15.3615899 L22.5769288,16.1547632 L22.9063134,15.4190687 L23.7606611,15.5141626 L23.1098159,14.9677946 L23.4422633,14.2333668 L22.7109019,14.6313627 L22.0624114,14.0826068 Z" id="Combined-Shape" fill="#FFFFFF" mask="url(#mask-2)"></path>
        </g>
        <rect id="Rectangle" stroke="#DDE2E3" stroke-width="3" opacity="0" fill-rule="nonzero" x="1.5" y="1.5" width="45" height="45"></rect>
    </g>
</svg>