<?xml version="1.0" encoding="UTF-8"?>
<svg width="48px" height="48px" viewBox="0 0 48 48" version="1.1" xmlns="http://www.w3.org/2000/svg" xmlns:xlink="http://www.w3.org/1999/xlink">
    <!-- Generator: Sketch 64 (93537) - https://sketch.com -->
    <title>Graphics / 01 Flags/HRK</title>
    <desc>Created with Sketch.</desc>
    <defs>
        <rect id="path-1" x="0" y="0" width="48" height="48"></rect>
        <polygon id="path-3" points="0.0005 0.0463 24.003 0.0463 24.003 9.9563 0.0005 9.9563"></polygon>
        <polygon id="path-5" points="0 32.9535 24.003 32.9535 24.003 0.9995 0 0.9995"></polygon>
    </defs>
    <g id="Graphics-/-01-Flags/HRK" stroke="none" stroke-width="1" fill="none" fill-rule="evenodd">
        <g id="Flag">
            <mask id="mask-2" fill="white">
                <use xlink:href="#path-1"></use>
            </mask>
            <g id="Mask" fill-rule="nonzero"></g>
            <polygon id="Fill-1925" fill="#042C71" mask="url(#mask-2)" points="0.04 48 48.04 48 48.04 32 0.04 32"></polygon>
            <path d="M0,16 L0,32 L47.5354334,32 C48.1548555,23.0015467 48.1548555,17.6682134 47.5354334,16 L0,16 Z" id="Fill-4" fill="#FFFFFF" mask="url(#mask-2)"></path>
            <polygon id="Fill-1923" fill="#D0021B" mask="url(#mask-2)" points="0.04 16 48.04 16 48.04 0 0.04 0"></polygon>
        </g>
        <g id="Group-872" transform="translate(12.000000, 5.000000)">
            <path d="M1.8765,2.9638 L4.8025,4.0458 L6.1635,9.3598 L5.54365278,9.52715648 C4.51080556,9.82088333 3.479,10.1888 2.4465,10.6338 C1.7105,8.9588 0.9735,7.2848 0.2375,5.6108 L0.2375,5.6108 L1.8765,2.9638 Z M12.0078,1.2724 L14.4138,3.2504 L13.9798,8.7374 C12.6588,8.6154 11.3388,8.6054 10.0178,8.7124 L10.0178,8.7124 L9.5758,3.2504 L12.0078,1.2724 Z" id="Combined-Shape" fill="#009EE2"></path>
            <path d="M22.9592,7.4434 L23.7662,5.6144 L22.1272,2.9644 L19.1842,4.0484 L18.6892,6.0094 C20.1932,6.3484 21.5842,6.8824 22.9592,7.4434 L22.9592,7.4434 Z M17.8342,9.4084 C19.0722,9.7244 20.3112,10.1354 21.5492,10.6374 L22.0852,9.4234 C20.9272,8.9004 19.6792,8.4214 18.1732,8.0634 L17.8342,9.4084 Z" id="Fill-21" fill="#009EE2"></path>
            <path d="M22.2488,9.0522 L22.7998,7.8032 C21.5058,7.2182 20.1318,6.7132 18.6008,6.3662 L18.2698,7.6772 C19.7468,8.0392 21.0288,8.5252 22.2488,9.0522" id="Fill-25" fill="#E20714"></path>
            <path d="M13.9802,8.7373 C15.2642,8.8563 16.5492,9.0813 17.8342,9.4083 L19.1842,4.0493 L17.1322,1.7083 L14.4132,3.2503 L13.9802,8.7373 Z" id="Fill-29" fill="#312783"></path>
            <path d="M15.4104,4.5625 C15.4084,4.5655 15.4024,4.5645 15.4004,4.5625 C15.3974,4.5585 15.3974,4.5535 15.4014,4.5515 C15.4884,4.4765 15.5774,4.4225 15.6724,4.3895 C15.7684,4.3565 15.8714,4.3435 15.9874,4.3495 C16.0774,4.3535 16.1594,4.3575 16.2404,4.3685 C16.3224,4.3795 16.4034,4.3965 16.4894,4.4255 C16.4934,4.4265 16.4944,4.4315 16.4934,4.4355 C16.4924,4.4395 16.4884,4.4415 16.4844,4.4395 C16.3994,4.4115 16.3194,4.3945 16.2394,4.3835 C16.1584,4.3735 16.0764,4.3685 15.9864,4.3645 C15.8724,4.3585 15.7714,4.3715 15.6774,4.4045 C15.5834,4.4375 15.4964,4.4885 15.4104,4.5625" id="Fill-407" fill="#1D1D1B"></path>
            <g id="Group-831" transform="translate(0.000000, 0.953500)">
                <mask id="mask-4" fill="white">
                    <use xlink:href="#path-3"></use>
                </mask>
                <g id="Clip-830"></g>
                <path d="M0.2375,4.6573 L1.8765,2.0103 L4.8025,3.0923 L6.8565,0.7483 L9.5755,2.2963 L12.0075,0.3183 L14.4135,2.2973 L17.1325,0.7543 L19.1845,3.0953 L22.1275,2.0103 L23.7655,4.6603 L21.5495,9.6843 C15.1745,7.0963 8.8025,6.9413 2.4465,9.6803 C1.7105,8.0053 0.9735,6.3313 0.2375,4.6573 L0.2375,4.6573 Z M0.0005,4.6403 C0.7795,6.4123 1.5595,8.1843 2.3395,9.9563 C8.7795,7.1223 15.2185,7.2943 21.6595,9.9563 L24.0035,4.6443 L22.2165,1.7533 L19.2465,2.8473 L17.1775,0.4873 L14.4355,2.0423 L12.0085,0.0463 L9.5545,2.0423 L6.8125,0.4803 L4.7395,2.8443 L1.7875,1.7533 L0.0005,4.6403 Z" id="Fill-829" fill="#FEFEFE" mask="url(#mask-4)"></path>
            </g>
            <path d="M22.0852,9.4238 L22.2492,9.0518 C21.0292,8.5258 19.7472,8.0388 18.2702,7.6778 L18.1732,8.0628 C19.6792,8.4208 20.9272,8.9008 22.0852,9.4238" id="Fill-832" fill="#FEFEFE"></path>
            <path d="M22.8,7.8037 L22.959,7.4437 C21.585,6.8827 20.194,6.3487 18.69,6.0097 L18.6,6.3667 C20.132,6.7137 21.506,7.2187 22.8,7.8037" id="Fill-834" fill="#FEFEFE"></path>
            <path d="M9.5759,3.25 L6.8569,1.702 L4.8029,4.045 C6.3499,3.658 7.9369,3.381 9.5759,3.25 L9.5759,3.25 Z M9.7959,5.968 L9.6859,4.622 C8.1539,4.727 6.6389,4.975 5.1429,5.374 L5.4759,6.674 C6.8389,6.336 8.3629,6.098 9.7959,5.968 L9.7959,5.968 Z M6.1629,9.36 C7.4479,9.031 8.7319,8.816 10.0179,8.712 L10.0179,8.712 L9.9099,7.373 C8.4139,7.484 7.0689,7.727 5.8299,8.058 L6.1629,9.359 L6.1629,9.36 Z" id="Fill-836" fill="#312783"></path>
            <path d="M9.9099,7.373 L9.7959,5.968 C8.3629,6.098 6.8389,6.336 5.4759,6.674 L5.8299,8.058 C7.0689,7.727 8.4139,7.484 9.9099,7.373" id="Fill-838" fill="#E20714"></path>
            <path d="M9.6863,4.6216 L9.5763,3.2496 C7.9373,3.3816 6.3503,3.6576 4.8023,4.0456 L5.1433,5.3736 C6.6393,4.9746 8.1543,4.7266 9.6863,4.6216" id="Fill-840" fill="#E20714"></path>
            <path d="M2.157,11.2183 C2.159,15.2273 2.16,19.2363 2.162,23.2433 C2.165,23.5713 2.188,23.8973 2.227,24.2213 C2.51,26.5173 3.675,28.6653 5.373,30.2233 C7.197,31.8963 9.535,32.8123 12.014,32.7803 C14.84,32.6533 17.445,31.6313 19.342,29.4863 C20.848,27.7823 21.745,25.5153 21.82,23.2413 C21.834,19.2343 21.847,15.2263 21.86,11.2183 L2.157,11.2183 Z M1.985,11.0473 L22.032,11.0473 C22.019,15.1133 22.006,19.1783 21.992,23.2453 C21.851,27.5513 18.734,32.6503 12.019,32.9523 C6.323,33.0263 2.043,28.2263 1.99,23.2453 C1.989,19.1783 1.987,15.1133 1.985,11.0473 L1.985,11.0473 Z" id="Fill-842" fill="#E20714"></path>
            <mask id="mask-6" fill="white">
                <use xlink:href="#path-5"></use>
            </mask>
            <g id="Clip-847"></g>
            <path d="M10.1054,28.2998 L10.1054,32.2558 C8.7294,31.9838 7.4364,31.3998 6.3074,30.5448 L6.3074,28.2998 L10.1054,28.2998 Z M17.7019,28.2997 L17.702,24.1185 L13.903,24.1185 L13.903,28.2995 L10.106,28.2995 L10.106,24.1175 L13.902,24.1175 L13.903,19.9355 L17.702,19.9355 L17.7019,24.1177 L21.3959,24.1177 C21.2019,25.6047 20.6539,27.0557 19.8149,28.2997 L17.7021,28.2998 L17.7021,30.5188 C16.5741,31.3578 15.2851,31.9038 13.9031,32.1918 L13.9031,28.2998 L17.7019,28.2997 Z M6.3066,24.1177 L6.3066,28.2997 L4.1656,28.2997 C3.3226,27.0747 2.7596,25.6587 2.5776,24.1787 L2.5696,24.1177 L6.3066,24.1177 Z M10.105,19.9355 L10.105,24.1185 L6.307,24.1185 L6.307,19.9355 L10.105,19.9355 Z M6.307,15.7529 L6.307,19.9349 L2.513,19.9349 L2.511,15.7529 L6.307,15.7529 Z M17.702,11.5705 L17.702,15.7525 L13.903,15.7525 L13.903,19.9345 L10.106,19.9345 L10.106,15.7525 L13.903,15.7525 L13.903,11.5705 L17.702,11.5705 Z M21.4929,15.7529 L21.4779,19.9349 L17.7019,19.9349 L17.7019,15.7529 L21.4929,15.7529 Z M10.105,11.5705 L10.105,15.7525 L6.307,15.7525 L6.307,11.5705 L10.105,11.5705 Z" id="Combined-Shape" fill="#FEFEFE" mask="url(#mask-6)"></path>
            <path d="M13.9027,28.2998 L13.9027,32.1918 C13.2857,32.3208 12.6517,32.3988 12.0037,32.4288 C11.3587,32.4368 10.7237,32.3768 10.1057,32.2558 L10.1057,28.2998 L13.9027,28.2998 Z M6.3073,28.2998 L6.3073,30.5448 C6.0683,30.3628 5.8353,30.1698 5.6113,29.9638 C5.0693,29.4668 4.5833,28.9068 4.1653,28.2998 L6.3073,28.2998 Z M19.8149,28.2998 C19.5899,28.6338 19.3439,28.9528 19.0779,29.2538 C18.6539,29.7328 18.1939,30.1538 17.7019,30.5188 L17.7019,28.2998 L19.8149,28.2998 Z M10.105,24.1175 L10.105,28.2995 L6.307,28.2995 L6.307,24.1175 L10.105,24.1175 Z M13.903,19.9355 L13.903,24.1175 L17.702,24.1175 L17.702,28.2995 L13.903,28.2995 L13.903,24.1185 L10.106,24.1185 L10.106,19.9355 L13.903,19.9355 Z M6.3069,19.9351 L6.3069,24.1181 L2.5699,24.1181 C2.5359,23.8271 2.5179,23.5341 2.5149,23.2421 L2.5129,19.9351 L6.3069,19.9351 Z M21.4779,19.9351 L21.4679,23.2361 C21.4579,23.5301 21.4339,23.8241 21.3959,24.1181 L17.7019,24.1181 L17.7019,19.9351 L21.4779,19.9351 Z M10.105,15.7525 L10.105,19.9345 L6.307,19.9345 L6.307,15.7525 L10.105,15.7525 Z M17.702,15.7525 L17.702,19.9345 L13.903,19.9345 L13.903,15.7525 L17.702,15.7525 Z M13.903,11.5705 L13.903,15.7525 L10.106,15.7525 L10.106,11.5705 L13.903,11.5705 Z M21.4999,11.5708 L21.4999,13.6158 L21.4929,15.7528 L17.7019,15.7528 L17.7019,11.5708 L21.4999,11.5708 Z M6.3065,11.5708 L6.3065,15.7528 L2.5105,15.7528 L2.5095,11.5708 L6.3065,11.5708 Z" id="Combined-Shape" fill="#E20714" mask="url(#mask-6)"></path>
            <path d="M2.5095,11.5708 L21.5065,11.5708 C21.4935,15.4588 21.4815,19.3468 21.4675,23.2358 C21.3945,25.4248 20.5295,27.6118 19.0775,29.2538 C17.2455,31.3248 14.7305,32.3038 12.0045,32.4288 C9.6185,32.4568 7.3665,31.5738 5.6115,29.9638 C3.9745,28.4618 2.8485,26.3918 2.5775,24.1788 C2.5395,23.8678 2.5185,23.5548 2.5145,23.2418 C2.5125,19.3508 2.5105,15.4608 2.5095,11.5708 L2.5095,11.5708 Z M2.1565,11.2178 C2.1585,15.2268 2.1605,19.2358 2.1625,23.2438 C2.1655,23.5708 2.1875,23.8968 2.2275,24.2218 C2.5095,26.5178 3.6755,28.6648 5.3735,30.2238 C7.1965,31.8968 9.5355,32.8118 12.0135,32.7808 C14.8405,32.6528 17.4455,31.6318 19.3425,29.4868 C20.8485,27.7818 21.7445,25.5148 21.8205,23.2418 C21.8335,19.2338 21.8465,15.2268 21.8605,11.2178 L2.1565,11.2178 Z" id="Fill-871" fill="#FEFEFE" mask="url(#mask-6)"></path>
        </g>
        <rect id="Rectangle" stroke="#DDE2E3" stroke-width="3" opacity="0" fill-rule="nonzero" x="1.5" y="1.5" width="45" height="45"></rect>
    </g>
</svg>