<?xml version="1.0" encoding="UTF-8"?>
<svg width="48px" height="48px" viewBox="0 0 48 48" version="1.1" xmlns="http://www.w3.org/2000/svg" xmlns:xlink="http://www.w3.org/1999/xlink">
    <!-- Generator: Sketch 64 (93537) - https://sketch.com -->
    <title>Graphics / 01 Flags/INR</title>
    <desc>Created with Sketch.</desc>
    <defs>
        <rect id="path-1" x="0" y="0" width="48" height="48"></rect>
    </defs>
    <g id="Graphics-/-01-Flags/INR" stroke="none" stroke-width="1" fill="none" fill-rule="evenodd">
        <g id="Flag">
            <mask id="mask-2" fill="white">
                <use xlink:href="#path-1"></use>
            </mask>
            <g id="Mask" fill-rule="nonzero"></g>
            <g id="iStock-519611160" mask="url(#mask-2)">
                <polygon id="Fill-1" fill="#117B3F" points="0 48 48 48 48 32 0 32"></polygon>
                <polygon id="Fill-3" fill="#FFFFFE" points="0 32 48 32 48 16 0 16"></polygon>
                <polygon id="Fill-4" fill="#E1602E" points="0 16 48 16 48 -7.10542736e-15 0 -7.10542736e-15"></polygon>
                <path d="M29.3033333,24.9993333 C29.2786667,25.134 29.2333333,25.2606667 29.1973333,25.3913333 L26.3526667,24.468 L25.1766667,24.234 C25.186,24.1833333 25.1886667,24.13 25.192,24.0773333 L26.3966667,24.156 L29.3993333,24 L26.394,23.8433333 L25.192,23.922 C25.1886667,23.8693333 25.186,23.816 25.1766667,23.7653333 L26.3553333,23.53 L29.1973333,22.608 C29.2333333,22.7386667 29.2786667,22.866 29.3033333,23.0013333 C29.146,23.028 29.0353333,23.174 29.056,23.3353333 C29.0766667,23.4946667 29.22,23.606 29.3786667,23.592 C29.3893333,23.7273333 29.4,23.8626667 29.4,24 C29.4,24.1373333 29.3893333,24.2726667 29.3786667,24.408 C29.22,24.3946667 29.0766667,24.506 29.056,24.6666667 C29.0353333,24.826 29.146,24.972 29.3033333,24.9993333 Z M28.7106667,25.9526667 C28.65,26.1006667 28.718,26.2686667 28.8626667,26.3366667 C28.8033333,26.4593333 28.728,26.5713333 28.6613333,26.6893333 L26.1513333,25.0613333 L25.072,24.5286667 C25.0953333,24.482 25.1146667,24.4333333 25.1313333,24.3833333 L26.2746667,24.7706667 L29.1966667,25.3933333 C29.1613333,25.524 29.1353333,25.6593333 29.0906667,25.7866667 C28.9406667,25.732 28.7726667,25.8026667 28.7106667,25.9526667 Z M28.0446667,27.1046667 C27.9473333,27.2333333 27.97,27.414 28.0926667,27.516 C28.0046667,27.6193333 27.9013333,27.708 27.8053333,27.8033333 L25.804,25.582 L24.8986667,24.788 C24.9326667,24.748 24.9686667,24.71 24.9973333,24.666 L25.998,25.3333333 L28.66,26.6906667 C28.5933333,26.8093333 28.5346667,26.9326667 28.4586667,27.0446667 C28.3266667,26.9506667 28.1446667,26.976 28.0446667,27.1046667 Z M27.1033333,28.046 C26.9753333,28.1453333 26.9506667,28.3273333 27.0446667,28.4586667 C26.9333333,28.5346667 26.81,28.5933333 26.6913333,28.6593333 L25.3333333,25.9953333 L24.6666667,24.9973333 C24.71,24.968 24.7486667,24.932 24.7886667,24.898 L25.5846667,25.8053333 L27.804,27.8046667 C27.708,27.9013333 27.6193333,28.004 27.5153333,28.0933333 C27.4133333,27.97 27.2326667,27.948 27.1033333,28.046 Z M25.9513333,28.7113333 C25.802,28.7733333 25.732,28.9413333 25.7866667,29.0906667 C25.6593333,29.1353333 25.5246667,29.1606667 25.394,29.1966667 L24.7713333,26.2726667 L24.384,25.1313333 C24.434,25.1146667 24.4826667,25.0953333 24.5293333,25.0713333 L25.0633333,26.1533333 L26.69,28.6606667 C26.5713333,28.728 26.4586667,28.8033333 26.336,28.8626667 C26.268,28.718 26.0993333,28.6506667 25.9513333,28.7113333 Z M24.6653333,29.056 C24.5053333,29.0773333 24.394,29.2206667 24.408,29.3786667 C24.2726667,29.3893333 24.138,29.4 24,29.4 L24.1566667,26.3953333 L24.078,25.192 C24.1306667,25.1886667 24.184,25.186 24.2346667,25.1766667 L24.4693333,26.3553333 L25.392,29.1973333 C25.2613333,29.2333333 25.134,29.2786667 24.9986667,29.3033333 C24.972,29.146 24.8253333,29.0353333 24.6653333,29.056 Z M23.5913333,29.3786667 C23.6046667,29.2206667 23.4933333,29.0773333 23.3346667,29.0566667 C23.1746667,29.036 23.0293333,29.146 23.0013333,29.304 C22.8666667,29.2786667 22.7393333,29.2333333 22.6086667,29.198 L23.5313333,26.354 L23.766,25.1766667 C23.8166667,25.186 23.8693333,25.1886667 23.922,25.192 L23.844,26.3966667 L24,29.4 L24,29.4 C23.862,29.4 23.7266667,29.3893333 23.5913333,29.3786667 Z M22.0486667,28.712 C21.9006667,28.6506667 21.7326667,28.7186667 21.664,28.8626667 C21.5406667,28.8033333 21.4286667,28.728 21.31,28.6606667 L22.938,26.1526667 L23.4713333,25.072 C23.518,25.0953333 23.566,25.1146667 23.616,25.1313333 L23.2286667,26.2733333 L22.6066667,29.1973333 C22.4753333,29.1613333 22.34,29.1353333 22.2126667,29.0906667 C22.2666667,28.9406667 22.1966667,28.7733333 22.0486667,28.712 Z M20.896,28.0466667 C20.7673333,27.948 20.5866667,27.9713333 20.4846667,28.094 C20.3813333,28.0053333 20.292,27.902 20.196,27.8053333 L22.4166667,25.8046667 L23.212,24.8986667 C23.2513333,24.9326667 23.29,24.968 23.3333333,24.9973333 L22.6666667,25.9966667 L21.3086667,28.66 C21.1906667,28.5933333 21.0666667,28.5346667 20.9546667,28.4586667 C21.0486667,28.3273333 21.024,28.1453333 20.896,28.0466667 Z M19.9546667,27.1053333 C19.8553333,26.976 19.6733333,26.952 19.5413333,27.0453333 C19.4653333,26.934 19.4066667,26.81 19.34,26.692 L22.004,25.3333333 L23.002,24.6666667 C23.0313333,24.71 23.0673333,24.7486667 23.1013333,24.788 L22.1953333,25.5833333 L20.1946667,27.804 C20.0986667,27.708 19.9953333,27.6193333 19.9066667,27.5153333 C20.0286667,27.4133333 20.052,27.2326667 19.9546667,27.1053333 Z M19.2886667,25.9526667 C19.2266667,25.8033333 19.0586667,25.7326667 18.9086667,25.7873333 C18.864,25.6593333 18.838,25.5246667 18.8026667,25.394 L21.7266667,24.7713333 L22.8686667,24.384 C22.8853333,24.434 22.9046667,24.4826667 22.928,24.5293333 L21.8473333,25.0626667 L19.3386667,26.69 C19.272,26.5713333 19.196,26.4593333 19.1366667,26.336 C19.2813333,26.268 19.35,26.1 19.2886667,25.9526667 Z M18.62,24.4086667 C18.61,24.2733333 18.5993333,24.138 18.5993333,24 C18.5993333,23.862 18.61,23.7266667 18.62,23.5913333 C18.7786667,23.6053333 18.9226667,23.494 18.944,23.3346667 C18.9646667,23.1746667 18.854,23.0286667 18.6953333,23.0013333 C18.7206667,22.866 18.766,22.7393333 18.802,22.608 L21.646,23.5313333 L22.8233333,23.766 C22.8133333,23.8166667 22.8113333,23.8693333 22.8073333,23.922 L21.6046667,23.844 L18.5993333,24 L21.6046667,24.1566667 L22.8073333,24.078 C22.8113333,24.1306667 22.8133333,24.1833333 22.8233333,24.2346667 L21.6453333,24.4693333 L18.802,25.392 C18.766,25.2613333 18.7206667,25.134 18.6953333,24.9986667 C18.854,24.972 18.9646667,24.826 18.944,24.6666667 C18.9226667,24.5066667 18.7786667,24.3953333 18.62,24.4086667 Z M19.288,22.0493333 C19.3493333,21.9 19.2813333,21.732 19.1366667,21.664 C19.196,21.5413333 19.272,21.4286667 19.3386667,21.31 L21.8473333,22.938 L22.928,23.4713333 C22.9046667,23.518 22.8853333,23.566 22.868,23.616 L21.7266667,23.2293333 L18.8026667,22.606 C18.838,22.4753333 18.864,22.34 18.9086667,22.2133333 C19.0593333,22.2673333 19.2266667,22.1973333 19.288,22.0493333 Z M19.9533333,20.896 C20.052,20.768 20.0286667,20.5866667 19.9066667,20.484 C19.9953333,20.3806667 20.0986667,20.292 20.1946667,20.196 L22.1953333,22.4173333 L23.1013333,23.212 C23.0666667,23.2513333 23.0313333,23.29 23.002,23.334 L22.0033333,22.6673333 L19.34,21.308 C19.4066667,21.19 19.4653333,21.0666667 19.5413333,20.9546667 C19.6726667,21.0486667 19.8546667,21.0246667 19.9533333,20.896 Z M20.8946667,19.9546667 C21.024,19.8553333 21.0486667,19.6726667 20.9546667,19.5413333 C21.0666667,19.4653333 21.19,19.4066667 21.308,19.34 L22.6666667,22.0046667 L23.3333333,23.002 C23.29,23.0313333 23.2506667,23.0673333 23.2113333,23.1013333 L22.4166667,22.196 L20.196,20.1946667 C20.292,20.0986667 20.3806667,19.9953333 20.484,19.9066667 C20.5866667,20.0293333 20.7673333,20.0526667 20.8946667,19.9546667 Z M22.048,19.2886667 C22.1966667,19.2266667 22.2673333,19.0593333 22.2126667,18.9086667 C22.34,18.864 22.4753333,18.838 22.606,18.8026667 L23.2286667,21.7273333 L23.616,22.8686667 C23.566,22.8853333 23.5173333,22.9046667 23.4706667,22.928 L22.9373333,21.8473333 L21.31,19.3393333 C21.428,19.272 21.5406667,19.196 21.664,19.1373333 C21.732,19.2813333 21.9,19.35 22.048,19.2886667 Z M23.3333333,18.944 C23.4933333,18.9226667 23.6046667,18.7793333 23.5913333,18.6206667 C23.7266667,18.6106667 23.862,18.6 24,18.6 C24.1373333,18.6 24.2726667,18.6106667 24.408,18.6206667 C24.394,18.7793333 24.506,18.9233333 24.666,18.9446667 C24.8266667,18.9653333 24.9726667,18.854 24.9986667,18.696 C25.1333333,18.7213333 25.2606667,18.7666667 25.3913333,18.802 L24.468,21.6466667 L24.234,22.8233333 C24.1833333,22.8133333 24.1306667,22.8113333 24.078,22.8073333 L24.156,21.6046667 L24,18.6 L23.8433333,21.6053333 L23.922,22.8073333 C23.8693333,22.8113333 23.816,22.8133333 23.7653333,22.8233333 L23.5306667,21.646 L22.608,18.802 C22.7393333,18.7666667 22.8666667,18.7213333 23.0013333,18.696 C23.0286667,18.854 23.174,18.9646667 23.3333333,18.944 Z M25.952,19.2893333 C26.1006667,19.3506667 26.2686667,19.282 26.336,19.1373333 C26.4586667,19.196 26.5706667,19.272 26.6893333,19.3386667 L25.0613333,21.848 L24.5286667,22.928 C24.482,22.9046667 24.4333333,22.8853333 24.3833333,22.868 L24.7706667,21.7253333 L25.3926667,18.8026667 C25.524,18.838 25.6586667,18.864 25.7866667,18.9086667 C25.7313333,19.0586667 25.8026667,19.2266667 25.952,19.2893333 Z M27.1046667,19.9546667 C27.2333333,20.0526667 27.4133333,20.03 27.516,19.9066667 C27.6193333,19.9953333 27.708,20.098 27.8033333,20.194 L25.582,22.196 L24.788,23.1013333 C24.7486667,23.0673333 24.7093333,23.0313333 24.666,23.002 L25.3333333,22.0026667 L26.6906667,19.3393333 C26.8093333,19.4066667 26.9326667,19.4646667 27.0446667,19.5413333 C26.9506667,19.672 26.9753333,19.8553333 27.1046667,19.9546667 Z M28.046,20.896 C28.1446667,21.0253333 28.3273333,21.0493333 28.4586667,20.9553333 C28.5346667,21.0666667 28.5926667,21.19 28.6593333,21.308 L25.9946667,22.6673333 L24.9973333,23.334 C24.968,23.29 24.932,23.2506667 24.898,23.2113333 L25.8046667,22.4153333 L27.8046667,20.1953333 C27.9013333,20.292 28.0046667,20.3806667 28.0933333,20.484 C27.97,20.586 27.9473333,20.768 28.046,20.896 Z M28.7113333,22.0493333 C28.7733333,22.198 28.9406667,22.268 29.0913333,22.2133333 C29.1353333,22.3406667 29.1613333,22.4753333 29.1966667,22.606 L26.2713333,23.2286667 L25.1313333,23.616 C25.1146667,23.566 25.0953333,23.5173333 25.0713333,23.4706667 L26.1533333,22.9366667 L28.6606667,21.3093333 C28.728,21.428 28.8033333,21.5406667 28.8626667,21.664 C28.7186667,21.7313333 28.65,21.9 28.7113333,22.0493333 Z M24,18 C20.686,18 18,20.6866667 18,24 C18,27.314 20.686,30 24,30 C27.3133333,30 30,27.314 30,24 C30,20.6866667 27.3133333,18 24,18 L24,18 Z" id="Fill-5" fill="#0F1F2A"></path>
            </g>
        </g>
        <rect id="Rectangle" stroke="#DDE2E3" stroke-width="3" opacity="0" fill-rule="nonzero" x="1.5" y="1.5" width="45" height="45"></rect>
    </g>
</svg>