<?xml version="1.0" encoding="UTF-8"?>
<svg width="48px" height="48px" viewBox="0 0 48 48" version="1.1" xmlns="http://www.w3.org/2000/svg" xmlns:xlink="http://www.w3.org/1999/xlink">
    <!-- Generator: Sketch 64 (93537) - https://sketch.com -->
    <title>Graphics / 01 Flags/JMD</title>
    <desc>Created with Sketch.</desc>
    <defs>
        <rect id="path-1" x="0" y="0" width="48" height="48" rx="5"></rect>
        <polygon id="path-3" points="0 0 48 0 48 48 0 48"></polygon>
    </defs>
    <g id="Graphics-/-01-Flags/JMD" stroke="none" stroke-width="1" fill="none" fill-rule="evenodd">
        <g id="Flag">
            <mask id="mask-2" fill="white">
                <use xlink:href="#path-1"></use>
            </mask>
            <g id="Mask" fill-rule="nonzero"></g>
            <g id="iStock-1063895162" mask="url(#mask-2)">
                <mask id="mask-4" fill="white">
                    <use xlink:href="#path-3"></use>
                </mask>
                <g id="Clip-2"></g>
                <path d="M27,24 L48,48 L48,0 L27,24 Z M0,48 L0,0 L21,24 L0,48 L0,48 Z" id="Fill-1" fill="#0A0B09" mask="url(#mask-4)"></path>
                <path d="M24.0000652,19 L48,0 L0,0 L24.0000652,19 Z M48,48 L0,48 L24.0000652,29 L48,48 L48,48 Z" id="Fill-3" fill="#179045" mask="url(#mask-4)"></path>
                <polyline id="Fill-4" fill="#F4E92A" mask="url(#mask-4)" points="1.24186375e-13 1.42108547e-14 5.12555804 1.42108547e-14 24 19.0184229 43.3867187 1.42108547e-14 48 1.43892834e-14 48 4.18415179 28.9816381 24 48 43.2293527 48 48 43.3867188 48 24 28.9813943 5.12555804 48 1.2490009e-13 48 0 43.2293527 19.0183619 24 1.24186375e-13 4.18415179"></polyline>
            </g>
        </g>
        <rect id="Rectangle" stroke="#DDE2E3" stroke-width="3" opacity="0" fill-rule="nonzero" x="1.5" y="1.5" width="45" height="45" rx="5"></rect>
    </g>
</svg>