<?xml version="1.0" encoding="UTF-8"?>
<svg width="48px" height="48px" viewBox="0 0 48 48" version="1.1" xmlns="http://www.w3.org/2000/svg" xmlns:xlink="http://www.w3.org/1999/xlink">
    <!-- Generator: Sketch 64 (93537) - https://sketch.com -->
    <title>Graphics / 01 Flags/KES</title>
    <desc>Created with Sketch.</desc>
    <defs>
        <rect id="path-1" x="0" y="0" width="48" height="48"></rect>
    </defs>
    <g id="Graphics-/-01-Flags/KES" stroke="none" stroke-width="1" fill="none" fill-rule="evenodd">
        <g id="Flag">
            <mask id="mask-2" fill="white">
                <use xlink:href="#path-1"></use>
            </mask>
            <g id="Mask" fill-rule="nonzero"></g>
            <g id="iStock-483747601" mask="url(#mask-2)">
                <g transform="translate(0.000000, -1.000000)">
                    <polygon id="Fill-2" fill="#286032" points="3.9407631e-13 49.4093142 48 49.4093142 48 31.4093142 0 31.4093142"></polygon>
                    <polygon id="Fill-3" fill="#1A1919" points="0 18.6152374 48 18.6152374 48 0.61523739 0 0.61523739"></polygon>
                    <polygon id="Fill-4-Copy" fill="#FFFFFF" points="0 32.0122758 48 32.0122758 48 18.0122758 0 18.0122758"></polygon>
                    <polygon id="Fill-4" fill="#A4262A" points="0 29.8100546 48 29.8100546 48 20.214497 0 20.214497"></polygon>
                    <path d="M17.5336159,13.8361832 L17.5351485,13.835317 C17.5351485,13.835317 20.7027487,16.5790689 20.3774771,18.256137 L29.774882,34.5177862 L29.3421712,34.7678482 L19.9447885,18.506199 C18.3293142,17.9507006 17.5336159,13.8361832 17.5336159,13.8361832" id="Fill-5" fill="#FFFFFE"></path>
                    <path d="M30.4381083,13.8361832 L30.4365979,13.835317 C30.4365979,13.835317 27.2689977,16.5790689 27.5942471,18.256137 L18.1968644,34.5177862 L18.629553,34.7678482 L28.0269579,18.506199 C29.6424322,17.9507006 30.4381083,13.8361832 30.4381083,13.8361832" id="Fill-6" fill="#FFFFFE"></path>
                    <path d="M19.8993429,18.5607071 C19.4831578,18.4077112 19.1310986,18.0395484 18.8306599,17.5784507 C18.5246904,17.1080241 18.2723628,16.5377547 18.0708117,15.9857214 C17.6678871,14.8818769 17.4686238,13.8508653 17.4682018,13.8488218 L17.5336159,13.8361832 L17.5339269,13.8367163 L17.5336159,13.8361832 L17.4682018,13.8488218 L17.4591837,13.8022434 L17.5428561,13.7538658 L17.5787506,13.7849181 C17.581105,13.7876946 19.1955354,15.1836705 20.0109801,16.607789 C20.2824322,17.0831911 20.4670356,17.5628135 20.4675465,18.0032318 C20.4675465,18.0850606 20.4610606,18.1654678 20.4474447,18.2440315 L29.8659287,34.5420861 L29.3178047,34.858895 L19.8993429,18.5607071 Z M17.6825692,14.2042795 C17.73841,14.4420139 17.8223489,14.7735493 17.9344081,15.1482425 C18.1583045,15.8975178 18.4957927,16.8198464 18.9423637,17.5057733 C19.2397149,17.9636946 19.5853105,18.3129329 19.9664674,18.4431393 L19.9899898,18.4512244 L29.3665155,34.6767793 L29.6837908,34.4934419 L20.3073318,18.2678871 L20.3120407,18.2434317 C20.3270116,18.1660453 20.3342304,18.0859047 20.3342304,18.0032318 C20.3368292,17.2982915 19.797901,16.4119907 19.1833633,15.6497214 C18.5890828,14.9102193 17.9289662,14.2826654 17.6402776,14.0189875 C17.6518945,14.071652 17.6659991,14.1338232 17.6825692,14.2042795 L17.6825692,14.2042795 Z" id="Fill-7" fill="#1A1919"></path>
                    <path d="M18.1058177,34.5420861 L27.5242573,18.2440315 C27.5105525,18.1654012 27.5041333,18.0850162 27.5041333,18.003254 C27.5046664,17.5627913 27.6892031,17.0832133 27.9607219,16.6078334 C28.2326182,16.1325201 28.5931846,15.6614493 28.9531957,15.2436872 C29.6732402,14.4082962 30.3915076,13.7862508 30.3929514,13.7849403 L30.4288015,13.7538214 L30.4699602,13.7776326 L30.4714484,13.7784988 L30.4380861,13.8362055 L30.4714484,13.7784988 L30.5125183,13.8022434 L30.5035224,13.8488218 C30.5019676,13.8525757 30.0568848,16.1684368 29.1410643,17.5784951 C28.8405812,18.0395706 28.4885442,18.4077335 28.0723591,18.5607071 L18.6538973,34.8588505 L18.1058177,34.5420861 Z M30.2176104,14.1241832 C30.0545969,14.2764239 29.8287682,14.4942119 29.5779065,14.7557575 C29.0762277,15.2786266 28.4745729,15.9774364 28.0763795,16.6739584 C27.810547,17.1380768 27.636894,17.6008848 27.6374049,18.003254 C27.6374049,18.0859047 27.6446016,18.1660453 27.6596391,18.2433873 L27.6643702,18.2678871 L18.2879112,34.4934197 L18.6051865,34.6768237 L27.98169,18.4512689 L28.0053012,18.4431837 C28.3387913,18.3290143 28.6450717,18.0479223 28.9155909,17.6721185 C29.1862434,17.2967367 29.4207571,16.8290421 29.6168885,16.3507524 C30.0031763,15.4091217 30.2414216,14.4267543 30.3314466,14.0189875 C30.2981953,14.0493734 30.2600352,14.0845794 30.2176104,14.1241832 L30.2176104,14.1241832 Z" id="Fill-8" fill="#1A1919"></path>
                    <path d="M24.0008885,15.4058343 C25.2309857,15.4058343 28.7850736,20.0512615 28.7850736,24.9754928 L28.7850736,25.039441 C28.7850736,29.9636724 25.2309857,34.6090995 24.0008885,34.6090995 L23.9708801,34.6090995 C22.740783,34.6090995 19.1866728,29.9636724 19.1866728,25.039441 L19.1866728,24.9754928 C19.1866728,20.0512615 22.740783,15.4058343 23.9708801,15.4058343 L24.0008885,15.4058343" id="Fill-9" fill="#A4262A"></path>
                    <path d="M24.0008885,15.4058343 C25.2309857,15.4058343 28.7850736,20.0512615 28.7850736,24.9754928 L28.7850736,25.039441 C28.7850736,29.9636724 25.2309857,34.6090995 24.0008885,34.6090995 L23.9708801,34.6090995 C22.740783,34.6090995 19.1866728,29.9636724 19.1866728,25.039441 L19.1866728,24.9754928 C19.1866728,20.0512615 22.740783,15.4058343 23.9708801,15.4058343 L24.0008885,15.4058343" id="Fill-10" fill="#A4262A"></path>
                    <path d="M27.778584,20.2092106 C27.1852587,21.6502101 26.77205,23.2966256 26.77205,24.9754928 L26.77205,25.039441 C26.77205,26.7183304 27.1852587,28.3647237 27.778584,29.8057233 C28.3718871,28.3647237 28.7850736,26.7183304 28.7850736,25.039441 L28.7850736,24.9754928 C28.7850736,23.2966256 28.3718871,21.6502101 27.778584,20.2092106 Z M19.1866728,24.9754928 L19.1866728,25.039441 C19.1866728,26.7183304 19.5998593,28.3647237 20.1931846,29.8057233 C20.7864877,28.3647237 21.1996964,26.7183304 21.1996964,25.039441 L21.1996964,24.9754928 C21.1996964,23.2966256 20.7864877,21.6502101 20.1931846,20.2092106 C19.5998593,21.6502101 19.1866728,23.2966256 19.1866728,24.9754928 L19.1866728,24.9754928 Z" id="Fill-11" fill="#1A1919"></path>
                    <path d="M23.7872763,15.4349098 C23.7863878,15.4351763 23.7855437,15.4353318 23.7846775,15.4355983 C23.4587395,16.0439389 22.9701212,17.7887978 22.9701212,19.6174623 L22.9701212,19.6468931 C22.9701212,21.4803998 23.4613605,23.2297677 23.7872763,23.8336437 L23.7872763,15.4349098 Z M24.1870689,15.4355983 C24.1861805,15.4353318 24.1853586,15.4351541 24.1844702,15.4349098 L24.1844702,23.8336659 C24.5103859,23.2297899 25.0016252,21.480422 25.0016252,19.6468931 L25.0016252,19.6174623 C25.0016252,17.7887978 24.5130069,16.0439389 24.1870689,15.4355983 Z M24.7881462,25.0172291 C24.7881462,24.3534697 24.428957,23.8153633 23.9858732,23.8153633 C23.5428117,23.8153633 23.1836224,24.3534697 23.1836224,25.0172291 C23.1836224,25.5781472 23.4401259,26.0492624 23.7869875,26.1818232 C23.4610495,26.7862101 22.9701212,28.5350671 22.9701212,30.3680407 L22.9701212,30.3974715 C22.9701212,32.226136 23.4587395,33.9710171 23.7846775,34.5793355 C23.7855659,34.579602 23.7863878,34.5797797 23.7872763,34.5800019 L23.7872763,26.1819121 C23.8508024,26.2061453 23.9173272,26.2190949 23.9858732,26.2190949 C24.0544415,26.2190949 24.1209662,26.2061453 24.1844702,26.1819121 L24.1844702,34.5800019 C24.1853364,34.5797797 24.1861805,34.579602 24.1870689,34.5793355 C24.5129847,33.9710171 25.0016252,32.2261583 25.0016252,30.3974715 L25.0016252,30.3680407 C25.0016252,28.5350671 24.5106969,26.7862101 24.1847811,26.1818232 C24.5316205,26.0492624 24.7881462,25.5781472 24.7881462,25.0172291 L24.7881462,25.0172291 Z" id="Fill-12" fill="#FFFFFE"></path>
                </g>
            </g>
        </g>
        <rect id="Rectangle" stroke="#DDE2E3" stroke-width="3" opacity="0" fill-rule="nonzero" x="1.5" y="1.5" width="45" height="45"></rect>
    </g>
</svg>