<?xml version="1.0" encoding="UTF-8"?>
<svg width="48px" height="48px" viewBox="0 0 48 48" version="1.1" xmlns="http://www.w3.org/2000/svg" xmlns:xlink="http://www.w3.org/1999/xlink">
    <!-- Generator: Sketch 64 (93537) - https://sketch.com -->
    <title>Graphics / 01 Flags/KYD</title>
    <desc>Created with Sketch.</desc>
    <defs>
        <rect id="path-1" x="0" y="0" width="48" height="48"></rect>
    </defs>
    <g id="Graphics-/-01-Flags/KYD" stroke="none" stroke-width="1" fill="none" fill-rule="evenodd">
        <g id="Flag">
            <mask id="mask-2" fill="white">
                <use xlink:href="#path-1"></use>
            </mask>
            <g id="Mask" fill-rule="nonzero"></g>
            <polygon id="Fill-1" fill="#1C1D47" mask="url(#mask-2)" points="0.431954955 48 48.431955 48 48.431955 0 0.431954955 0"></polygon>
            <g id="Group" mask="url(#mask-2)" fill-rule="nonzero">
                <g transform="translate(11.069712, 9.066141)">
                    <path d="M12.2303129,4.1789552 L12.3836401,4.178988 C12.4986561,4.1406492 12.6400301,4.1214798 12.7921871,4.11908364 L12.94739,4.12215701 C13.3676963,4.14487636 13.8277614,4.28119227 14.0322361,4.4856664 L14.1472521,4.562344 L14.3487664,4.5540963 L14.3487664,4.5540963 L14.5400926,4.55966312 C15.3480265,4.61312159 15.8929454,5.0428568 16.5242601,5.674168 C16.6009377,5.7508456 16.7159537,5.9042008 16.9076481,5.94254 C17.0918054,5.97323321 17.153104,6.05306949 17.0718718,6.14270681 L17.1158223,6.1425151 C17.2862793,6.13189636 17.3840825,6.08495097 17.5210065,6.0575664 C17.6743625,6.0192272 17.6743625,6.0959048 17.5593457,6.1725824 C17.4059905,6.24926 17.2526353,6.517632 17.1376185,6.6709872 C16.9842665,6.8243424 16.7158945,6.8243424 16.3325065,6.786004 L16.4062175,6.79246022 C16.3887667,6.81490583 16.3708911,6.8381221 16.3525639,6.86214253 C16.4790434,7.30395685 17.0693374,7.49652334 17.2142985,8.511252 C17.2529277,8.68508381 17.2039826,8.78107163 17.1213863,8.81882404 C17.2950424,9.07842971 17.2482564,9.36348806 17.1376417,9.5847176 C16.9842897,10.0064448 16.2941889,9.9681056 16.0258177,9.7764112 C15.8660723,9.64861787 15.7995117,9.41432606 15.7623487,9.16783075 L15.7672629,9.22270517 C15.7868067,9.38107711 15.8245466,9.5320358 15.9108089,9.6614288 C15.6807761,9.7381064 14.9140009,9.7381064 14.6456249,9.4697344 C14.6019413,9.43796455 14.5631939,9.40002444 14.5285732,9.35732015 C14.4156041,9.5080712 13.3804529,9.5080712 13.0737409,9.2780384 L13.072,9.277 L13.0106552,9.30656132 C12.726575,9.41004033 11.8948325,9.49204307 11.5785385,9.3163232 L11.4652847,9.24479226 C11.5112805,9.28944998 11.5615859,9.32706065 11.6168745,9.3547048 C11.0496653,9.48361533 10.7425296,9.57785013 10.4622742,9.54413253 C10.2072373,9.61716225 9.87688475,9.80135871 9.54653366,9.8914552 C9.48422746,9.9058363 9.42432301,9.9190153 9.36629056,9.9302474 L19.6680481,9.9297792 L19.6680481,17.4058512 C19.6680481,19.0710738 19.4654563,20.4551976 19.0947676,21.622658 L19.0160753,21.6997672 C19.1694369,21.546412 19.2844505,21.4313952 19.4378025,21.3163784 L19.3642555,21.3906595 C19.8239896,21.0111761 20.4353719,21.3554102 20.7031729,21.661468 C20.7448738,21.7008524 20.783775,21.7395369 20.8199608,21.7776145 C21.1718753,22.1216296 21.7960701,22.6282793 22.3134081,22.8499952 C22.8118081,23.1183712 23.2335361,23.5400992 22.8118081,24.3452112 C22.5270928,24.8887637 22.2147091,25.3886299 21.8801188,25.8477592 C22.333132,25.9100979 22.849724,25.7830479 23.4250465,25.3036136 C23.4400234,25.2903011 23.4557947,25.2799499 23.4722321,25.2724095 C23.5414996,25.1126993 23.6025997,24.9695067 23.6550801,24.8435552 C23.8467761,24.3834872 24.2301681,23.846744 24.6518881,24.0000992 C25.0736161,24.1534512 24.9969441,24.4601616 24.9202641,24.8052112 C24.8052481,25.1886032 24.4985361,26.6838168 24.1534881,27.2588992 L24.1534865,27.2588936 C23.8851121,27.87232 22.2365441,28.6774352 20.3579441,27.6422872 L20.2914928,27.6057319 C17.79873,29.8338668 14.7173748,30.5560992 12.4986881,30.5560992 C10.2834434,30.5560992 7.18813832,29.8360883 4.68628295,27.6159939 L4.63919206,27.6422872 C2.72224806,28.6774352 1.07367606,27.87232 0.843648059,27.2588992 L0.843640059,27.2588936 C0.460259259,26.6838168 0.153548859,25.1886032 0.0768712595,24.8052112 C-0.0381455405,24.4601616 -0.0764839405,24.1534512 0.345243259,24.0000992 C0.766970459,23.846744 1.15035526,24.3834872 1.34205126,24.8435552 C1.39453095,24.9695067 1.45563113,25.1126993 1.52377845,25.2715594 C1.54126075,25.2799499 1.55710417,25.2903011 1.57208086,25.3036136 C2.13693722,25.7743284 2.64046325,25.9053601 3.08265804,25.8522768 C2.74620339,25.3908415 2.43257786,24.8899663 2.14723046,24.3452112 C1.72550566,23.5400936 2.14723046,23.1183672 2.64563366,22.8499952 C3.18237766,22.6199632 3.87248006,22.0832208 4.17919366,21.7381712 C3.9840229,21.946352 3.86833615,22.1324536 3.81714683,22.3144594 C3.87927036,22.1083965 4.01976868,21.8975026 4.25580326,21.661468 C4.56251446,21.3547576 5.17593126,21.009708 5.59765926,21.3930968 L5.70969795,21.4951981 L5.70969795,21.4951981 L5.78934486,21.5847504 C5.71266886,21.4697344 5.63599286,21.3930568 5.55931686,21.3163784 C5.64376378,21.4008277 5.74888454,21.4852769 5.85949526,21.5849015 C5.49184984,20.426217 5.29099206,19.0536579 5.29099206,17.4058512 L5.29099206,9.9297792 L8.74967138,9.93076624 C8.5876951,9.88399572 8.42427923,9.78925318 8.24300806,9.6230872 C7.93629766,9.3163768 8.01297526,8.7796312 8.31968566,8.5879352 C8.58712248,8.4096442 8.83152779,8.27741573 9.1243055,8.28050357 C9.12484806,8.20349174 9.16897128,8.15097752 9.26744115,8.11345323 C8.90652934,8.01493807 8.61849039,7.8475031 8.43470886,7.7061328 C7.97464246,7.2844056 8.16633686,6.7476616 8.43470886,6.5176288 C8.62640246,6.3642736 8.58806406,6.3259344 8.47304726,6.2109184 L8.47304726,6.2109184 L8.47,6.201 L8.45028702,6.14801555 C8.44992939,6.14669229 8.44957602,6.14536689 8.44922667,6.14403974 C8.44014842,6.11396404 8.4362381,6.09249233 8.43378421,6.07559564 C8.42583725,6.04192601 8.41771736,6.01027783 8.40402952,5.9902295 C8.39437432,5.98023315 8.37956135,5.96407664 8.35803126,5.9425464 C8.28135286,5.8658688 8.08965926,5.7125136 7.66793206,5.7125136 C7.28454726,5.750852 6.86282006,5.367464 6.86282006,5.1757696 C6.86282006,5.099092 6.90115846,5.0224144 6.82448086,5.0607536 C6.70946486,5.0607536 6.67112566,4.9457368 6.51777046,5.0607536 C6.44109286,4.6773648 6.67112566,4.4856712 6.86282006,4.4856712 C6.97783606,4.447332 7.13119126,4.447332 7.24620806,4.3706544 C7.55292006,4.063944 8.28135606,4.2172992 8.54972806,4.5623488 C8.70308326,4.7540424 8.93311686,4.8690592 9.20148806,4.8690592 L9.097,4.863 L9.14655429,4.83450953 C9.28604932,4.76342059 9.53016635,4.68830754 9.66161366,4.7540312 L9.73829126,4.7156928 C10.1216761,4.3323112 10.5817441,4.1406168 11.0418081,4.2556328 L11.1568001,4.2556568 C11.18455,4.23253186 11.2167634,4.21163865 11.252498,4.19304448 C11.51301,4.05747879 11.960601,4.04409999 12.2303129,4.1789552 Z M7.39866159,24.4589144 L7.32091075,24.6227251 C7.01801793,25.2395426 6.70346697,25.7537735 6.35591293,26.1906443 C8.00512368,27.6398498 10.0224267,28.3707872 12.4986961,28.3707872 C14.9734744,28.3707872 16.9898452,27.6407172 18.6381956,26.1918751 C18.2570457,25.7202159 17.911515,25.1559066 17.571959,24.4685081 C16.2970969,26.0187459 14.5240569,27.0016053 12.4986881,27.8723312 C10.4698304,27.0001117 8.68479166,26.0153578 7.39866159,24.4589144 Z M20.3162331,24.2964489 C20.1583228,23.8444936 19.6291048,23.6963357 19.5530081,24.0768192 C19.7093239,24.2857505 19.8802772,24.4809023 20.0512305,24.6518544 C20.1395256,24.5428393 20.2228394,24.4287812 20.3049852,24.3122309 Z M6.06266773,22.1653805 L6.07010709,22.1997502 C6.17115696,22.8351608 5.82420686,23.554015 5.40596486,24.0768168 C5.32987135,23.6963357 4.83841304,23.8444936 4.68107488,24.2964489 C4.76185429,24.4111185 4.84352372,24.5233627 4.92633588,24.6332026 C5.5906936,23.9928348 6.22378314,23.0233586 6.07567695,22.1940152 C6.07028483,22.184925 6.06646981,22.1751609 6.06266773,22.1653805 Z M14.0652602,7.89233941 L13.9051213,7.90850054 C13.9736657,7.9470326 14.0317762,7.9962552 14.0800471,8.05854486 L14.0322041,8.0895392 C14.1855633,7.9745224 14.3772577,7.9745224 14.8756641,8.0128616 C15.2743873,8.04353232 15.4768163,8.07420355 15.600726,8.26191061 C15.5607145,8.07467325 15.4829299,7.84724533 15.2973569,7.4760992 L15.3445614,7.57151894 C14.9835593,7.71774411 14.548741,7.83306879 14.0652602,7.89233941 Z M13.3037961,2.55351296e-14 C13.1504401,0.0766776 13.1504401,0.383388 13.0354241,0.6134216 C13.3037977,0.3450496 13.6488465,0.1916944 13.8788801,0.2300328 C13.5338305,0.292770982 13.5224239,0.689149369 13.3196973,0.999201302 L13.26,1.077 L13.2654081,1.0735392 L13.257,1.084 L13.3091896,1.0489272 C13.4468179,0.971906011 13.6296886,0.934805111 13.7960979,0.909576898 C14.0216057,0.649601095 14.2645506,0.406112761 14.5305681,0.1533952 C14.3467309,0.539451151 14.1540778,1.11944132 13.9821985,1.69047333 C14.3352952,1.2080059 14.8043586,0.796806427 15.4507681,0.4984592 C15.0188172,0.930410027 14.3852874,2.11107322 14.0992383,2.94234091 L14.1285492,2.90468344 C14.6480318,2.23028591 15.5116518,1.30352273 16.8692961,0.7667792 C16.1298623,1.506213 15.116613,2.72482389 14.5336868,3.5600427 C15.2155247,2.89991867 16.2442273,2.08698611 17.3293361,1.7252832 C16.8359341,2.19812819 16.0448797,2.9906722 15.3758884,3.67137768 C16.0390639,3.4127534 16.8175132,3.21491991 17.4443521,3.3354672 C16.8309313,3.5655 14.9906641,4.4089552 14.1855521,5.1757312 L14.2463239,4.84017963 C14.2210578,4.86758719 14.2006393,4.89016079 14.1855521,4.9074032 L14.2036134,4.40641789 C14.1338988,4.67994338 13.9379928,4.82634763 13.8022041,4.7924008 C13.6878497,4.76381206 13.6161314,4.60731698 13.6188413,4.4023959 C13.5399426,4.59466403 13.4026803,4.70481276 13.2654177,4.67736 C13.1740433,4.67736 13.0826692,4.61638308 13.0162085,4.51519033 C12.9356796,4.69919971 12.7746566,4.8307016 12.6136337,4.8307016 C12.4538184,4.8307016 12.2940032,4.71967003 12.2113272,4.53617632 C12.1424837,4.62631557 12.0522,4.6773416 11.9619161,4.6773416 C11.9206626,4.6773416 11.8738605,4.66069547 11.8274801,4.62964216 C11.7933756,4.71583248 11.7434743,4.77576686 11.6935729,4.7924008 C11.5753889,4.82194649 11.4116653,4.71487398 11.3076881,4.52382567 L11.183,4.402 L11.1567521,4.4856672 C11.13521,4.4293258 11.1120921,4.37291277 11.08751,4.31650241 L10.957,4.514 L10.9460817,4.74750721 C10.9781496,4.774487 11.0100857,4.80220859 11.0417601,4.8307152 L10.944,4.758 L10.9267521,5.0990992 C10.5313821,4.7037292 9.09143058,3.56704186 8.43912776,3.14218824 L8.31971206,3.0671392 C8.98586334,3.15402823 9.69577645,3.50348052 10.3502715,3.93367183 C9.70429698,3.29441658 8.88507076,2.6548823 8.28138406,2.3386672 C8.97330213,2.38808624 9.68114674,2.70827991 10.3535884,3.10418699 C9.76069721,2.32932811 9.02627066,1.67444622 8.51137606,1.3802192 C9.26556255,1.50186333 9.9579978,1.91683307 10.5592903,2.43899136 C10.2584074,1.86466214 9.97978883,1.30823959 9.81493606,0.9968512 C10.1570106,1.27673388 10.7008916,1.53139339 11.4056514,2.5383486 C11.0343119,1.56507011 10.5821664,0.831331613 10.1983361,0.2683792 C10.615186,0.438208009 10.976082,0.757249626 11.2885344,1.1704239 C11.5529466,0.88341383 11.8540767,0.922514895 12.1919729,1.0351472 C12.0002785,0.6134216 12.2686505,0.3450496 12.3453281,0.0383392 C12.4220025,0.1533552 12.5370193,0.4600656 12.5370193,0.65176 C12.6520353,0.4600656 12.9970849,0.0766776 13.3037961,2.55351296e-14 Z M11.3992167,1.18123888 L11.2997261,1.18529104 C11.4112726,1.33414835 11.5166105,1.4950078 11.6160852,1.66533515 C11.704838,1.54461139 11.8482693,1.46662655 12.0769569,1.4952128 C11.9236049,1.26518 11.6168945,1.1501632 11.2718449,1.1885024 Z" id="Combined-Shape" stroke="#FFFFFF" stroke-width="1" fill="#FFFFFF" stroke-linejoin="round"></path>
                    <path d="M19.4378025,21.3163784 C19.3611265,21.3930568 19.2844505,21.4697344 19.2077745,21.5847504 C18.4409961,22.5048784 19.2461129,23.8467424 20.0512305,24.6518544 C20.3345113,24.2854867 20.6017098,23.8881279 20.8565361,23.4634192 C21.2782641,22.7733232 21.3932721,22.3515936 20.7798561,21.7381712 C21.1248961,22.0832184 21.7766641,22.6199624 22.3134081,22.8499952 C22.8118081,23.1183712 23.2335361,23.5400992 22.8118081,24.3452112 C22.5270794,24.8887892 22.2146798,25.3886769 21.8800717,25.8478238 C22.333885,25.9099125 22.8501433,25.7826984 23.4250465,25.3036136 C23.7701025,24.9969032 24.5368705,26.2620856 24.1534865,27.2588936 C23.8851121,27.87232 22.2365441,28.6774352 20.3579441,27.6422872 L20.2924916,27.604839 C17.7995532,29.8336738 14.7176711,30.5560992 12.4986881,30.5560992 C10.2831483,30.5560992 7.18731377,29.8358965 4.6852833,27.6151067 L4.63919206,27.6422872 C2.72224806,28.6774352 1.07367606,27.87232 0.843648059,27.2588992 C0.421912859,26.2620856 1.22702966,24.9969032 1.57208086,25.3036136 C2.1373632,25.7746834 2.64122268,25.9055575 3.08365838,25.8521564 C2.74623794,25.3908967 2.43259357,24.8899963 2.14723046,24.3452112 C1.72550566,23.5400936 2.14723046,23.1183672 2.64563366,22.8499952 C3.18237766,22.6199632 3.87248006,22.0832208 4.17919366,21.7381712 C3.60410486,22.3515952 3.71912886,22.7733192 4.14085606,23.4634192 C4.39058632,23.8796414 4.65219991,24.2695958 4.92633588,24.6332026 C5.76305775,23.8265319 6.55034199,22.4979409 5.78934486,21.5847504 C5.71266886,21.4697344 5.63599286,21.3930568 5.55931686,21.3163784 C5.67433046,21.4313952 5.82769286,21.546412 5.98104406,21.6997672 C6.28775606,22.0064784 6.97785286,22.3515288 7.39958006,22.6582392 C7.93632086,23.0032872 7.82130726,23.5783736 7.59128006,24.0384392 C7.20408534,24.9234595 6.80802226,25.6222688 6.35618317,26.1903046 C8.0051024,27.6398421 10.0224137,28.3707872 12.4986961,28.3707872 C14.9734548,28.3707872 16.9898133,27.6407288 18.6381564,26.1919095 C18.1802023,25.6247145 17.7738572,24.9250086 17.3675121,24.0384392 C17.1758121,23.5783736 17.0607985,23.0032872 17.5975393,22.6582392 C18.0192665,22.3515288 18.7093713,22.0064784 19.0160753,21.6997672 C19.1694369,21.546412 19.2844505,21.4313952 19.4378025,21.3163784 Z" id="Combined-Shape" stroke="none" fill="#FCEA83"></path>
                    <path d="M1.34205126,24.8435552 C1.53374486,25.3036208 1.84045606,25.9937232 2.18550726,26.8371712 C1.34205126,26.3387664 0.651955259,26.6838152 0.843651259,27.2588992 C0.460259259,26.6838168 0.153548859,25.1886032 0.0768712594,24.8052112 C-0.0381455406,24.4601616 -0.0764839406,24.1534512 0.345243259,24.0000992 C0.766970459,23.846744 1.15035526,24.3834872 1.34205126,24.8435552 Z M23.6550801,24.8435552 C23.8467761,24.3834872 24.2301681,23.846744 24.6518881,24.0000992 C25.0736161,24.1534512 24.9969441,24.4601616 24.9202641,24.8052112 C24.8052481,25.1886032 24.4985361,26.6838168 24.1534881,27.2588992 C24.3068401,26.6838152 23.6550801,26.3387664 22.8116241,26.8371712 C23.1566801,25.9937232 23.4633841,25.3036208 23.6550801,24.8435552 Z M5.59765926,21.3930968 C6.47945126,22.1215344 6.01938646,23.3100408 5.40596486,24.0768168 C5.32929046,23.6934312 4.83088566,23.8467864 4.67753046,24.306852 C4.48583686,24.0384808 4.29414246,23.7701088 4.14078726,23.463396 C3.68072086,22.7732976 3.60404326,22.313228 4.25580326,21.661468 C4.56251446,21.3547576 5.17593126,21.009708 5.59765926,21.3930968 Z M19.3613169,21.3930968 C19.8213809,21.009708 20.4348009,21.3547576 20.7031729,21.661468 C21.3932689,22.313228 21.3165969,22.7732976 20.8565249,23.463396 C20.7031729,23.7701088 20.5114769,24.0384808 20.3197841,24.306852 C20.1664289,23.8467864 19.6296857,23.6934312 19.5530081,24.0768192 C18.9395897,23.3100408 18.5178609,22.1215344 19.3613169,21.3930968 Z" id="Combined-Shape" stroke="none" fill="#DB161C"></path>
                    <path d="M9.39317366,8.3195632 C9.81490086,8.43458 10.9267257,9.4697312 10.6583577,9.5080672 C10.3899857,9.5080672 9.96825846,9.7764384 9.54653366,9.8914552 C9.04812326,10.006476 8.70307206,10.0448144 8.24300806,9.6230872 C7.93629766,9.3163768 8.01297526,8.7796312 8.31968566,8.5879352 C8.66473526,8.3579024 8.97144566,8.2045472 9.39317366,8.3195632 Z M14.8756641,8.0128616 C15.3740681,8.0512 15.5657625,8.0895392 15.6807761,8.4345888 C15.7957921,8.8179768 15.6807761,9.3163808 15.9108089,9.6614288 C15.6807761,9.7381064 14.9140009,9.7381064 14.6456249,9.4697344 C14.2238977,9.163024 14.2622369,8.2812304 14.0322041,8.0895344 C14.1855633,7.9745224 14.3772577,7.9745224 14.8756641,8.0128616 Z M12.4986721,8.1278168 C12.6520273,8.549544 12.7670441,9.0479448 13.0737545,9.2779848 C12.8820609,9.3930008 11.9235865,9.5080176 11.5785385,9.3163232 C11.1184721,9.0862904 11.0034553,8.2044992 10.7350825,8.0511392 C10.8884433,7.9361232 11.0801377,7.8594456 11.5785441,7.8211064 C12.0386097,7.782768 12.3836561,7.782768 12.4986721,8.1278168 Z" id="Combined-Shape" stroke="none" fill="#FFFFFF"></path>
                    <path d="M15.6040905,8.3195392 C15.7574457,8.2045232 15.9874785,8.2428616 16.3325281,8.3195392 C17.3293361,8.6262456 17.3293361,9.2013288 17.1376417,9.5847176 C16.9842897,10.0064448 16.2941889,9.9681056 16.0258177,9.7764112 C15.6424289,9.4697072 15.7957841,8.549572 15.6040905,8.3195392 Z M11.0417921,8.4729128 C11.1568089,8.7412848 11.3101641,9.2013504 11.6168745,9.3547048 C10.7734185,9.5463984 10.5050505,9.6614152 10.0449865,9.3930432 C9.69993686,9.2013488 9.31654886,8.7412832 9.23987446,8.5495872 C9.20153526,8.4345712 9.20153526,8.3195544 9.12484806,8.281216 C9.12484806,8.0895248 9.39322006,8.0511856 10.0833201,8.0128472 C10.7734185,7.9361696 10.8117577,7.974508 11.0417921,8.4729128 Z M13.1887601,7.782824 C13.6871649,7.782824 13.9938721,7.8595016 14.1472321,8.166212 C14.3005873,8.5496 14.2622489,9.048004 14.5306209,9.354716 C14.4156041,9.5080712 13.3804529,9.5080712 13.0737409,9.2780384 C12.6520137,9.0096664 12.6136753,8.1278704 12.3836425,7.9361824 C12.4986641,7.8211624 12.7286977,7.782824 13.1887601,7.782824 Z" id="Combined-Shape" stroke="none" fill="#073163"></path>
                    <path d="M13.3037961,-6.66133815e-16 C13.1504401,0.0766776 13.1504401,0.383388 13.0354241,0.6134216 C13.3037977,0.3450496 13.6488465,0.1916944 13.8788801,0.2300328 C13.5338305,0.292770982 13.5224239,0.689149369 13.3196973,0.999201302 L13.2593841,1.077 L13.2654081,1.0735392 L13.2563841,1.084 L13.3091896,1.0489272 C13.4465365,0.972063519 13.6289408,0.93495702 13.7950767,0.909731821 C14.0216057,0.649601095 14.2645506,0.406112761 14.5305681,0.1533952 C14.3468385,0.539225123 14.1543034,1.11876224 13.9825004,1.68947034 C14.3359422,1.20743878 14.8048044,0.79660067 15.4507681,0.4984592 C15.0182784,0.930948843 14.3837066,2.1140199 14.0981694,2.94545005 C14.6123701,2.26895193 15.4834535,1.3146709 16.8692961,0.7667792 C16.1304379,1.50563735 15.1181905,2.72292677 14.535049,3.55809132 C15.2183186,2.89771171 16.2457008,2.08649495 17.3293361,1.7252832 C16.8361722,2.19789998 16.0456432,2.98990727 15.3768571,3.67039202 C16.0398123,3.41256324 16.8178146,3.21497786 17.4443521,3.3354672 C16.8309313,3.5655 14.9906641,4.4089552 14.1855521,5.1757312 L14.2463239,4.84017963 C14.2210578,4.86758719 14.2006393,4.89016079 14.1855521,4.9074032 L14.2036134,4.40641789 C14.1338988,4.67994338 13.9379928,4.82634763 13.8022041,4.7924008 C13.6876604,4.76376473 13.615894,4.60679843 13.6188553,4.40137768 C13.5404159,4.59428379 13.402917,4.70486009 13.2654177,4.67736 C13.1740433,4.67736 13.0826692,4.61638308 13.0162085,4.51519033 C12.9356796,4.69919971 12.7746566,4.8307016 12.6136337,4.8307016 C12.4538184,4.8307016 12.2940032,4.71967003 12.2113272,4.53617632 C12.1424837,4.62631557 12.0522,4.6773416 11.9619161,4.6773416 C11.9204925,4.6773416 11.8734744,4.66055793 11.8269065,4.62925734 C11.7933756,4.71583248 11.7434743,4.77576686 11.6935729,4.7924008 C11.5753889,4.82194649 11.4116653,4.71487398 11.3076881,4.52382567 L11.1833841,4.402 L11.1567521,4.4856672 C11.1353374,4.42965918 11.1123656,4.37358038 11.0879462,4.31750377 L10.9563841,4.515 L10.9450795,4.74666433 C10.9774843,4.77390955 11.0097557,4.80191164 11.0417601,4.8307152 L10.9443841,4.758 L10.9267521,5.0990992 C10.5313821,4.7037292 9.09143058,3.56704186 8.43912776,3.14218824 L8.31971206,3.0671392 C8.98618276,3.1540699 9.69645727,3.5038157 10.351213,3.93429071 C9.70492214,3.29490463 8.88530109,2.65500295 8.28138406,2.3386672 C8.97351485,2.38810143 9.68158198,2.70847682 10.3542086,3.10455216 C9.76133756,2.32989913 9.02649511,1.67457448 8.51137606,1.3802192 C9.26618035,1.50196298 9.9591322,1.91751313 10.5607677,2.44027478 C10.2584074,1.86466214 9.97978883,1.30823959 9.81493606,0.9968512 C10.1570106,1.27673388 10.7008916,1.53139339 11.4056514,2.5383486 C11.0343119,1.56507011 10.5821664,0.831331613 10.1983361,0.2683792 C10.6155184,0.438343439 10.9766575,0.75775856 11.2892818,1.17141254 C11.5521966,0.883316557 11.8536559,0.92237463 12.1919729,1.0351472 C12.0002785,0.6134216 12.2686505,0.3450496 12.3453281,0.0383392 C12.4220025,0.1533552 12.5370193,0.4600656 12.5370193,0.65176 C12.6520353,0.4600656 12.9970849,0.0766776 13.3037961,-6.66133815e-16 Z M11.3992167,1.18123888 L11.2997261,1.18529104 C11.4110501,1.3338514 11.5161902,1.49436607 11.6154898,1.66431594 C11.7056825,1.54415358 11.8489419,1.46671063 12.0769569,1.4952128 C11.9236049,1.26518 11.6168945,1.1501632 11.2718449,1.1885024 Z" id="Combined-Shape" stroke="none" fill="#F9D050"></path>
                    <path d="M12.2303129,4.1789552 L12.3836681,4.1789552 C12.8437337,4.0256 13.7255241,4.1789552 14.0322361,4.4856664 L14.1472521,4.562344 C15.1824041,4.4856664 15.7958201,4.945732 16.5242601,5.674168 C16.6009377,5.7508456 16.7159537,5.9042008 16.9076481,5.94254 C17.0919433,5.9732562 17.1531957,6.05318915 17.0716889,6.14290829 C17.2704756,6.1397408 17.3728351,6.08720042 17.5210065,6.0575664 C17.6743625,6.0192272 17.6743625,6.0959048 17.5593457,6.1725824 C17.4059905,6.24926 17.2526353,6.517632 17.1376185,6.6709872 C16.9842665,6.8243424 16.7158945,6.8243424 16.3325065,6.786004 C16.4091865,7.284412 17.0609433,7.437764 17.2142985,8.511252 C17.2909761,8.8563016 17.0226041,8.89464 16.8309105,8.779624 C16.6775553,8.6646072 16.3708441,8.5495904 16.1024729,8.5495904 C15.8341009,8.5879296 15.6424065,8.4345744 15.6040681,8.2812192 C15.5657289,8.0895208 15.4890513,7.859488 15.2973569,7.4760992 L15.3146115,7.50994858 C14.7982564,7.71636035 14.1119403,7.8594776 13.3421417,7.8594776 C12.5767279,7.8594776 11.9859533,7.78463128 11.5057808,7.63493851 C10.1333149,8.63496416 8.92021377,8.07959782 8.43470886,7.7061328 C7.97464246,7.2844056 8.16633686,6.7476616 8.43470886,6.5176288 C8.62640246,6.3642736 8.58806406,6.3259344 8.47304726,6.2109184 C8.39636966,6.019224 8.47304726,6.0575632 8.35803126,5.9425464 C8.28135286,5.8658688 8.08965926,5.7125136 7.66793206,5.7125136 C7.28454726,5.750852 6.86282006,5.367464 6.86282006,5.1757696 C6.86282006,5.099092 6.90115846,5.0224144 6.82448086,5.0607536 C6.70946486,5.0607536 6.67112566,4.9457368 6.51777046,5.0607536 C6.44109286,4.6773648 6.67112566,4.4856712 6.86282006,4.4856712 C6.97783606,4.447332 7.13119126,4.447332 7.24620806,4.3706544 C7.55292006,4.063944 8.28135606,4.2172992 8.54972806,4.5623488 L8.62003453,4.63969692 C8.76958955,4.78455706 8.9714556,4.8690592 9.20148806,4.8690592 L9.0966364,4.86232829 L9.14655429,4.83450953 C9.28604932,4.76342059 9.53016635,4.68830754 9.66161366,4.7540312 L9.73829126,4.7156928 C10.1216761,4.3323112 10.5817441,4.1406168 11.0418081,4.2556328 L11.1568249,4.2556328 C11.3868577,4.0639392 11.9236009,4.0256 12.2303129,4.1789552 Z" id="Combined-Shape" stroke="none" fill="#059334"></path>
                    <path d="M7.74460806,5.0607392 C7.66793046,5.0607392 7.62959126,4.8307056 7.47623606,4.8307056 C7.43789766,4.8307056 7.32288086,4.8690448 7.28454246,4.8307056 C7.28454246,4.907384 7.32288086,4.9840616 7.36122006,5.0224 C7.39955846,5.1374168 7.59125286,5.0607392 7.74460806,5.0607392 L7.74460806,5.0607392 Z" id="Path" stroke="none" fill="#000000"></path>
                    <path d="M19.6680481,9.9297792 L19.6680481,17.4058512 C19.6680481,23.8851152 16.6009441,26.1087312 12.4986881,27.8723312 C8.39644006,26.1087472 5.29099206,23.8850912 5.29099206,17.4058512 L5.29099206,9.9297792 L19.6680481,9.9297792 L19.6680481,9.9297792 Z" id="shield" stroke="none" fill="#FFFFFF"></path>
                    <path d="M12.4986881,16.2556992 C12.8437401,16.2556992 13.3804801,15.9489888 13.8405441,15.4889232 C14.3389473,14.95218 15.1824001,14.7604856 16.0642081,15.4889232 C16.9460001,16.2173616 17.4827441,15.9106504 17.9428081,15.4889232 C18.4028737,15.0671968 18.7862641,14.9138408 19.6680561,14.9138408 L19.6680561,9.9297928 L5.29101606,9.9297928 L5.29101606,14.9138408 C6.17280806,14.9138408 6.55620006,15.0671968 7.01626406,15.4889232 C7.47632966,15.9106504 8.01308006,16.2173616 8.89487206,15.4889232 C9.81500006,14.7604856 10.6201201,14.95218 11.1568561,15.4889232 C11.5785833,15.9489888 12.1153201,16.2556992 12.4987121,16.2556992 L12.4986881,16.2556992 Z" id="Path" stroke="none" fill="#CF142B"></path>
                    <path d="M14.0705833,25.3803144 C14.7606793,24.9969264 15.5657953,25.073604 15.8341673,25.2652984 C16.1025393,25.456992 16.2942329,25.3803144 16.6009441,25.4953312 C15.4507761,26.4921392 14.0322401,27.2205792 12.4986881,27.8723392 C10.9268065,27.2205792 9.54661446,26.4921392 8.39644646,25.4953312 C8.70315686,25.3803144 8.89485126,25.456992 9.16322326,25.2652984 C9.43159126,25.073604 10.2367089,24.9969264 10.9268073,25.3803144 C11.6552393,25.725364 11.9619521,25.8020416 12.4986953,25.8020416 C13.0354313,25.8020416 13.3421457,25.725364 14.0705833,25.3803144 Z M16.4475841,21.3163728 C17.2527041,21.6997608 17.9044641,21.584744 18.3645281,21.3163728 C18.5945609,21.1630168 18.7862553,20.8563064 19.2846561,20.9713232 C19.0546233,21.9297952 18.7095737,22.7732512 18.2878481,23.4633472 C17.5210713,23.6550416 17.0993441,23.6550416 16.2942321,23.309992 C15.4891201,22.926604 14.4923041,22.6965712 13.9555601,23.0416208 C13.4571553,23.3483312 12.9204081,23.5016864 12.4986801,23.5016864 C12.0769529,23.5016864 11.5402081,23.3483312 11.0418081,23.0416208 C10.5050649,22.6965712 9.50825606,22.926604 8.70313606,23.309992 C7.89802406,23.6550416 7.47629606,23.6550416 6.70952006,23.4633472 C6.28779286,22.7732488 5.94274326,21.9297952 5.71271206,20.9713232 C6.21111686,20.8563064 6.40281046,21.1630168 6.63284006,21.3163728 C7.05456726,21.584744 7.74466406,21.6997608 8.51144006,21.3163728 C9.31655206,20.932984 9.85329606,20.7412904 10.6200721,21.1630168 C11.2334937,21.5080664 11.9235921,21.7380992 12.4986721,21.7380992 C13.0737705,21.7380992 13.7638721,21.5080664 14.3772881,21.1630168 C15.1440641,20.7412904 15.6808081,20.932984 16.4475841,21.3163728 Z M5.29099766,16.9457528 C5.86608566,16.830736 6.13445446,16.9840912 6.67119766,17.482496 C7.24627766,17.9809008 7.93637366,17.865884 8.77982966,17.5591736 C9.58494166,17.214124 10.3517177,16.6007016 11.1951737,17.5591736 C11.4252057,17.8275456 11.9236113,18.2109336 12.4986937,18.2109336 C13.0354369,18.2109336 13.5721801,17.8275456 13.8022137,17.5591736 C14.6073257,16.6007016 15.4124457,17.214124 16.2175577,17.5591736 C17.0610137,17.865884 17.7127713,17.9809008 18.2878537,17.482496 C18.8629417,16.9840912 19.1313105,16.830736 19.6680537,16.9457528 L19.6680537,16.9457528 L19.6680537,17.4058184 C19.6680537,18.0575784 19.6680537,18.632664 19.5913761,19.2077464 C19.1696481,19.2077464 18.8245977,19.169408 18.2111761,19.6678128 C17.5977521,20.1662168 16.6009441,19.8978456 16.0642001,19.6678128 C15.5657921,19.4377792 14.9523761,18.9777136 14.1089201,19.4761184 C13.8788881,19.5911344 12.9587545,20.0895392 12.4986881,20.0895392 C12.0002857,20.0895392 11.1184945,19.5911344 10.8884617,19.4761184 C10.0450137,18.9777136 9.43158966,19.4377792 8.89484566,19.6678128 C8.39643766,19.8978456 7.36129126,20.1662168 6.74786966,19.6678128 C6.13445206,19.169408 5.82774086,19.2077464 5.40601366,19.2077464 C5.32933606,18.6326584 5.29099766,18.0575784 5.29099766,17.4058184 L5.29099766,17.4058184 Z" id="Combined-Shape" stroke="none" fill="#0B50A0"></path>
                    <path d="M11.5018081,11.8084192 C11.5401473,11.8850968 11.4634697,12.0767912 11.5018081,12.1534688 C11.5784865,12.306824 11.5784865,12.3835016 11.6935025,12.4601792 L11.9618745,12.4601792 C12.8053305,12.4601792 13.8021385,12.1151296 14.6455945,12.1151296 C15.4507145,12.1151296 15.9491145,12.3835016 16.4091785,12.3835016 C16.6775505,12.3835016 16.9075833,12.1918072 16.9075833,12.0001136 C16.9075833,11.8084192 16.6008729,11.6934024 15.9491113,11.6934024 C15.0289833,11.6934024 14.5305753,11.9234352 13.7637993,11.9234352 C12.6136313,11.9234352 12.4219433,11.5017088 12.4219433,11.3100144 C12.4219433,11.11832 12.6136377,10.849948 13.2270633,10.849948 C13.4187569,10.849948 13.5721121,10.8116096 13.6487897,10.734932 C13.6871289,10.6582544 13.8021457,10.5048992 14.0321785,10.3898824 C14.3005497,10.2365272 14.8372905,10.3898824 15.1056665,10.198188 C15.1056665,10.351544 14.8756337,10.5815768 14.6839393,10.6582544 C15.0673273,10.5432376 15.4890513,10.5432376 15.5657313,10.849948 C15.3740369,10.734932 15.0673265,10.8116096 14.9523105,10.849948 C14.7989545,10.8882872 14.7222769,10.9266264 14.5689217,10.9649648 C14.7222769,10.9266264 14.7989545,11.2333368 15.0289881,11.2333368 C14.7989545,11.4250304 14.4155665,11.4250304 14.0321801,11.2716752 C13.9171633,11.2333368 13.6104529,11.11832 13.4187585,11.11832 C13.0353705,11.11832 12.8053377,11.1949976 12.8053377,11.3483528 C12.8053377,11.5400472 13.0353705,11.655064 13.7254657,11.655064 C14.4155649,11.655064 14.7989537,11.4633696 15.8341057,11.4633696 C15.7574281,11.3483528 15.8724441,11.2333368 15.7190889,11.11832 C16.1024777,11.11832 16.5242089,11.2333368 16.6775609,11.5017088 C16.6392217,11.2333368 16.8692545,11.003304 16.7925769,10.7732704 C17.0226097,10.8116096 17.2143041,11.0416424 17.2526433,11.2333368 C17.2526433,11.11832 17.4059985,11.11832 17.4059985,11.003304 C17.6360313,11.11832 17.7510481,11.386692 17.7127089,11.6167248 C17.8277257,11.4250304 17.9427417,11.5017088 18.0194193,11.2716752 C18.0960969,11.4250304 18.0577585,11.8850968 17.7893865,12.038452 C18.0194193,11.8850968 18.3644689,11.8850968 18.5944985,12.1534688 C18.3644657,12.1151296 18.2494497,12.2301464 18.1344329,12.2684848 C17.6743673,12.5368568 16.9075929,12.690212 16.3325049,12.6518736 C15.7190833,12.6135344 15.6424057,12.4985176 15.2590169,12.4985176 C15.4890497,12.5368568 15.9491153,12.9969224 16.3708409,12.9969224 C16.6392129,12.9969224 16.8309073,12.9969224 16.9459233,12.958584 C17.0609401,12.9202448 17.2526345,12.958584 17.4059897,13.0352616 C17.5210057,13.1502784 17.7510393,13.2652944 17.9043945,13.226956 C17.8660553,13.3803112 17.7893777,13.4569888 17.6743617,13.4953272 C17.8660553,13.610344 17.7510393,13.6870216 17.9427329,13.8403768 C17.8660553,13.8403768 17.7893777,13.9170544 17.6743617,13.878716 C17.7893777,13.993732 17.7893777,14.1470872 17.9043945,14.2237656 C17.8660553,14.2237656 17.7510393,14.262104 17.6743617,14.2237656 C17.7893777,14.3771208 17.6743617,14.5688144 17.7893777,14.645492 C17.9043945,14.798848 17.6743617,14.9905416 17.4826673,14.8371864 C17.5210057,14.9522032 17.4059897,15.0672192 17.2909729,15.0288808 C17.1759569,14.9905416 17.0992793,14.8755256 17.1376177,14.8371864 C17.1376177,14.798848 17.1376177,14.798848 17.1759569,14.7605088 C17.0992793,14.8755256 16.9459233,14.8755256 16.8692457,14.8371864 C16.8309073,14.798848 16.7925681,14.7605088 16.7925681,14.7221704 C16.5241969,14.798848 16.4091801,14.5688144 16.4475185,14.4537984 C16.4858577,14.3387816 16.7158905,14.3004432 16.7925681,14.3387816 C16.8692457,14.3771208 16.9459233,14.4154592 17.0226009,14.3387816 C17.0992793,14.3004432 17.1376177,14.2237656 17.1376177,14.1470872 C17.1376177,14.0320712 17.0226009,13.6870216 16.5241969,13.7253608 C15.9491137,13.7636992 15.0289809,13.610344 14.5689169,13.4569888 C14.5305785,13.4186496 14.4922393,13.4186496 14.4539009,13.3803112 C14.4539009,13.5336664 14.3005449,13.610344 14.3005449,13.7636992 C14.3005449,13.9553936 14.3772233,14.1087488 14.6072561,14.1854264 C14.4922393,14.3771208 14.3005449,14.3387816 14.2238673,14.2237656 C14.2238673,14.3387816 14.0705121,14.4154592 14.0705121,14.5688144 C14.0321737,14.4921368 13.9938345,14.4537984 13.9554961,14.3771208 C13.8404793,14.645492 13.5337689,14.798848 13.3804137,14.7221704 C13.1887193,14.8755256 12.9586865,14.8371864 12.8820089,14.6838312 C12.7669921,14.7605088 12.6136369,14.7605088 12.5369593,14.6838312 C12.5369593,14.798848 12.4602817,14.7605088 12.4219425,14.913864 C12.4219425,14.9905416 12.2685873,15.0288808 12.1919097,14.9905416 C12.1152321,14.9522032 12.0768929,14.798848 12.1535713,14.7221704 C12.0385545,14.798848 11.9235377,14.798848 11.8468601,14.7221704 C11.8468601,14.645492 11.8468601,14.530476 11.9235377,14.4921368 L12.0002153,14.4921368 C11.9235377,14.4537984 11.8085217,14.4921368 11.7318441,14.4537984 C11.6551665,14.3771208 11.6551665,14.3004432 11.6935049,14.2237656 C11.7318441,14.1854264 11.8468601,14.1087488 11.9235377,14.1854264 L11.9618769,14.2237656 C11.9618769,14.1470872 12.0002153,14.0704096 12.0385545,14.0704096 C12.1152321,14.0320712 12.2302489,14.0320712 12.3452649,14.1470872 C12.4219425,14.262104 12.4986201,14.262104 12.7286537,14.2237656 C12.9203473,14.2237656 13.2270585,14.0320712 13.4570913,13.8403768 C12.8053313,13.7253608 13.1887193,13.3036336 13.3804137,13.1502784 C13.2270585,13.1119392 12.9970249,13.1119392 12.8436697,13.1886168 C12.0385577,13.610344 11.1951017,14.1087448 10.6583577,13.9553936 C10.6583577,14.0320712 10.6966961,14.1087488 10.7350353,14.1854264 C10.6200185,14.1854264 10.3899857,14.1854264 10.3133081,14.0704096 C10.2749689,14.1470872 10.1982913,14.3387816 10.2749689,14.4921368 C10.1982913,14.4154592 9.96825846,14.3387816 9.85324166,14.3004432 C9.92991926,14.3771208 9.85324166,14.530476 9.89158086,14.645492 C9.77656406,14.530476 9.58487046,14.4537984 9.50819873,14.530476 C9.43151526,14.6071536 9.27815926,14.645492 9.16314326,14.6071536 C9.08646566,14.7221704 8.97144886,14.798848 8.85643286,14.8371864 C8.85643286,14.7605088 8.85643286,14.645492 8.81809366,14.6071536 C8.77975446,14.7221704 8.66473846,14.8755256 8.51138326,14.9522032 C8.51138326,14.8755256 8.51138326,14.7605088 8.47304406,14.6838312 C8.47304406,14.8371864 8.16633366,14.913864 8.12799446,15.0288808 C8.16633366,14.913864 8.16633366,14.798848 8.16633366,14.7221704 C8.08965606,14.8371864 7.97463926,14.9522032 7.78294566,14.9905416 C7.82128406,14.913864 7.85962326,14.8371864 7.82128406,14.7605088 C7.78294566,14.913864 7.55291206,14.9905416 7.36121846,14.9522032 C7.36121846,15.0288808 7.20786326,15.1438968 7.01616886,15.0288808 C6.90115206,14.9905416 6.82447446,14.8755256 6.90115206,14.798848 C6.74779686,14.798848 6.59444166,14.645492 6.67111926,14.530476 C6.67111926,14.4921368 6.70945846,14.4537984 6.70945846,14.4154592 C6.59444166,14.3387816 6.55610246,14.1854264 6.67111926,14.0704096 C6.70945846,14.0320712 6.82447446,14.0320712 6.90115206,14.0320712 C6.90115206,13.7253608 7.16952406,13.7253608 7.28454086,13.9553936 C7.36121846,14.0704096 7.59125126,14.262104 7.78294566,14.2237656 C7.85962326,14.2237656 7.89796166,14.1854264 7.97463926,14.1854264 C8.20467206,14.1087488 8.66473846,13.9170544 8.93311126,13.6870216 C8.97144966,13.5720048 8.97144966,13.4953272 8.97144966,13.4186496 C8.81809446,13.4953272 8.66473926,13.5720048 8.58806166,13.6870216 L8.58806166,13.5720048 C8.47304486,13.5720048 8.28135046,13.5336664 8.20467286,13.5336664 C8.24301206,13.4953272 8.28135046,13.3036336 8.35802886,13.2652944 C8.16633446,13.3036336 7.97464006,13.2652944 7.82128486,13.226956 C7.89796246,13.1502784 7.89796246,13.0352616 7.93630166,12.9202448 C7.85962406,12.958584 7.66792966,12.8819064 7.51457446,12.9202448 C7.55291286,12.8052288 7.59125206,12.6518736 7.70626806,12.6135344 C7.55291286,12.6518736 7.36121926,12.6135344 7.16952486,12.5368568 C7.32288006,12.5368568 7.39955766,12.3451624 7.51457446,12.3451624 C7.20786406,12.3451624 7.13118566,12.1918072 6.97783046,12.1151296 C7.09284726,12.1534688 7.16952486,12.038452 7.28454166,12.038452 C7.16952486,12.0001136 6.97783046,11.8084192 7.05450806,11.6934024 C7.01616966,11.7317416 6.97783046,11.8084192 6.90115286,11.8467576 C6.82447526,11.8850968 6.67112006,11.8467576 6.55610326,11.7317416 C6.47942566,11.5783864 6.51776486,11.386692 6.67112006,11.3483528 C6.47942566,11.3100144 6.47942566,11.11832 6.55610326,11.0416424 C6.59444246,10.9649648 6.74779766,10.849948 6.82447526,10.9649648 C6.86281446,11.003304 6.90115286,11.0799816 6.93949206,11.11832 C6.90115286,11.0416424 6.90115286,10.8882872 6.90115286,10.7732704 C6.93949206,10.6582544 7.01616966,10.6582544 7.13118566,10.6199152 C7.24620246,10.6199152 7.32288006,10.734932 7.32288006,10.849948 C7.32288006,10.9649648 7.36121926,11.0416424 7.39955766,11.1949976 C7.39955766,11.1566592 7.43789686,11.0799816 7.43789686,11.0416424 C7.43789686,10.8882872 7.62959046,10.9266264 7.74460726,10.9649648 C7.85962406,11.003304 7.89796246,11.2333368 7.74460726,11.3483528 C7.66792966,11.4250304 7.70626806,11.5400472 7.78294646,11.6167248 C8.05131766,12.038452 8.51138406,12.3835016 8.89477046,12.4218368 C8.89477046,12.2684816 8.97144806,12.1151264 9.08646486,12.0001104 C9.08646486,11.923432 9.12480326,11.808416 9.16314246,11.7317384 C9.20148086,11.5017056 9.31649766,11.3866888 9.46985286,11.4633664 C9.43151446,11.4250272 9.39317526,11.3866888 9.39317526,11.3483496 C9.27815846,11.2333336 9.16314246,11.0416392 9.23982006,10.888284 C9.31649766,10.7349288 9.54653046,10.7732672 9.62320806,10.8499448 C9.58486966,10.619912 9.85324086,10.4282184 9.85324086,10.3132016 C9.89158006,10.4282184 9.96825766,10.5815736 9.92991846,10.6965896 C9.96825766,10.5432344 10.2366297,10.3515408 10.4283233,10.2748624 C10.3516457,10.3898792 10.5816793,10.5815736 10.5433401,10.6965896 C10.6200177,10.504896 10.9267281,10.3898792 11.1567617,10.3898792 C11.0800841,10.4665568 11.0800841,10.619912 11.0800841,10.6965896 C11.1951001,10.6965896 11.3867945,10.6582512 11.4634721,10.5432344 C11.4634721,10.6965896 11.3867945,10.8499448 11.3101169,10.9266232 C11.3484553,10.888284 11.5018105,10.888284 11.6168273,10.888284 C11.5018105,11.0033008 11.5401497,11.1183168 11.4251329,11.1949944 C11.5784889,11.1183168 11.7701825,11.1183168 11.8085217,11.271672 C11.8851993,11.3866888 11.7701825,11.5783832 11.6935049,11.6933992 C11.6168273,11.7317384 11.5401497,11.808416 11.5018105,11.808416 L11.5018081,11.8084192 Z" id="Path" stroke="none" fill="#F9D050"></path>
                    <path d="M13.7638225,5.3674768 C13.9555169,5.6741872 14.4155825,6.4793008 14.6072785,6.8626928 C14.1472121,6.9777088 13.3804385,7.1694032 12.9203665,7.1310648 C12.9970457,6.5943152 13.0353849,5.8275392 13.0353849,5.5591712 C13.2270793,5.520832 13.6104673,5.405816 13.7638225,5.3674768 Z M12.2302881,4.9073512 C12.3836433,5.0223672 12.6903537,5.2907392 12.8053705,5.4440944 C12.8053705,5.789144 12.6903537,6.7859504 12.6520145,7.1310064 C12.3453041,7.1310064 11.8469025,7.0543288 11.5785265,6.9009728 C11.6168649,6.3258904 11.6552041,5.6741328 11.5785265,5.2907408 C11.7702217,5.2140616 12.0385937,5.0607064 12.2302881,4.9073512 Z M14.0705441,4.9457632 C14.6456241,5.2141312 15.4890785,5.7892144 15.8341281,6.2876192 C15.5657577,6.4793144 15.0290145,6.709348 14.8373201,6.7860256 C14.6456265,6.3642976 14.1855609,5.5975232 13.9555281,5.2524736 C13.9938665,5.1374576 14.0705441,4.9841024 14.0705441,4.9457632 Z M11.3868137,5.214076 C11.4251521,5.597464 11.3868137,6.555932 11.3484745,6.785964 C10.8500697,6.4025752 10.0449545,5.865836 9.66156246,5.750812 C9.69990646,5.6741416 9.73824566,5.4057704 9.73824566,5.2907536 C10.0449561,5.0990592 10.8117337,4.9073656 11.3868137,5.214076 Z M14.1472001,4.5623552 C15.1823521,4.4856752 15.7957697,4.9457416 16.5242081,5.6741792 C16.4091889,5.8658744 16.1408169,6.0575688 15.9874617,6.210924 C15.6040777,5.712516 14.7222825,5.0224208 14.1088617,4.792388 C14.1472001,4.7157104 14.1472001,4.6006936 14.1472001,4.5623552 Z M12.3836401,4.178988 C12.8437041,4.0256328 13.7254969,4.178988 14.0322097,4.4856992 C13.9938705,4.6773928 13.8405153,5.0224424 13.7638377,5.1757976 C13.5721433,5.2141368 13.1887553,5.3291528 13.0354001,5.367492 C12.8053673,5.09912 12.5753337,4.830748 12.3069625,4.715732 C12.3836401,4.5623768 12.3836401,4.332344 12.3836401,4.178988 Z M11.1568001,4.2556568 C11.3868321,4.0639632 11.9235769,4.025624 12.2302881,4.1789792 C12.2686257,4.3323352 12.1919481,4.562368 12.1536097,4.7157232 C12.0385929,4.8307392 11.7318825,4.9840952 11.5018489,5.0607728 C11.4251713,4.9840952 11.1951385,4.8690784 11.0417833,4.8690784 C11.0417833,4.7157232 11.0801225,4.4090128 11.1568001,4.2556568 Z M11.0418081,4.2556328 C10.9651305,4.3706496 10.9267913,4.6006824 10.9267913,4.8307152 C10.5050649,4.7923768 9.96831926,4.9073936 9.73828726,5.0607488 L9.73828726,4.7156992 C10.1216761,4.3323112 10.5817441,4.1406168 11.0418081,4.2556328 Z M7.36124806,21.4314592 L11.3484881,18.5177072 L6.44112006,18.5177072 L10.3900161,21.4314592 L8.89480006,16.7541232 L7.36124806,21.4314592 Z M14.5689801,21.4314592 L18.5562201,18.5177072 L13.6488521,18.5177072 L17.5977481,21.4314592 L16.1025321,16.7541232 L14.5689801,21.4314592 Z M10.9650601,25.6104296 L14.9523001,22.6966776 L10.0449321,22.6966776 L13.9938281,25.6104296 L12.4986121,20.9330936 L10.9650601,25.6104296 Z" id="Combined-Shape" stroke="none" fill="#00493D"></path>
                </g>
            </g>
        </g>
        <rect id="Rectangle" stroke="#DDE2E3" stroke-width="3" opacity="0" fill-rule="nonzero" x="1.5" y="1.5" width="45" height="45"></rect>
    </g>
</svg>