<?xml version="1.0" encoding="UTF-8"?>
<svg width="48px" height="48px" viewBox="0 0 48 48" version="1.1" xmlns="http://www.w3.org/2000/svg" xmlns:xlink="http://www.w3.org/1999/xlink">
    <!-- Generator: Sketch 64 (93537) - https://sketch.com -->
    <title>Graphics / 01 Flags/KZT</title>
    <desc>Created with Sketch.</desc>
    <defs>
        <rect id="path-1" x="0" y="0" width="48" height="48" rx="5"></rect>
    </defs>
    <g id="Graphics-/-01-Flags/KZT" stroke="none" stroke-width="1" fill="none" fill-rule="evenodd">
        <g id="Flag">
            <mask id="mask-2" fill="white">
                <use xlink:href="#path-1"></use>
            </mask>
            <g id="Mask" fill-rule="nonzero"></g>
            <rect id="Rectangle" fill="#00AFCA" fill-rule="nonzero" mask="url(#mask-2)" x="0" y="0" width="48" height="48"></rect>
            <path d="M31.9933328,34.4588832 C32.0814512,35.0272992 31.4508848,35.4264192 30.9432848,35.2508832 C30.7007936,35.2901606 30.3371888,34.6933632 30.4084688,35.1275328 C30.3595904,35.3553984 30.3938,35.6563488 30.1855904,35.8085568 C29.8378304,36.0172944 29.5724,35.6470896 29.281712,35.5360704 C29.0741168,35.6488128 29.0547296,36.0260544 28.8607232,36.2047104 C28.6286816,36.4688016 28.3442432,36.130968 28.3654592,35.8703952 C28.0878992,36.104352 27.9475376,36.6346512 27.4987232,36.5638032 C27.2860448,36.3902784 27.128072,36.0261552 26.9656352,36.4407504 C26.8330928,36.6434112 26.4803552,36.9317424 26.2976672,36.6257088 C26.2410992,36.3555312 26.1056288,36.0377088 25.958624,36.4669344 C25.8577088,36.77052 25.5337904,36.9938784 25.220432,36.8609568 C25.0488944,36.72072 25.3579472,36.2020608 25.1395952,36.2389728 C24.8132048,36.4547712 24.6234512,36.9905568 24.1679792,36.9476448 C23.9911136,36.7491216 24.2753072,36.4127328 24.0813056,36.1923648 C23.8522928,36.4862928 23.5982816,36.9166368 23.2021856,36.9476448 C23.0107424,36.7925136 23.2097264,36.3475968 23.0874992,36.2817408 C22.6810496,36.5254896 22.2522032,36.9598848 21.7410992,36.8238528 C21.9402848,36.0619488 22.7726192,35.7946368 23.4725552,35.7352128 C24.6768272,35.5872048 25.9437872,35.8593552 27.1025072,35.4247008 C27.2897264,35.3107776 27.7433072,35.1492192 27.5817728,34.8849888 C27.4387088,34.6763664 27.953912,34.7579328 28.0034768,34.5142464 C27.9728048,34.2055968 28.2399488,34.2480768 28.5009488,34.2210624 C29.6709968,34.1705856 30.8267888,34.4169888 31.9933328,34.4588832 Z M22.7103995,34.1503997 C22.5407995,34.2783997 22.3791995,34.4143997 22.2047995,34.5343997 C22.3039995,34.5583997 22.3999995,34.5791997 22.4991995,34.5951997 C22.3759995,34.7391997 22.2415995,34.8751997 22.1295995,35.0303996 C22.2847995,35.0927996 22.4527995,35.1279996 22.6207995,35.1151996 C22.7167995,35.1087996 22.8143995,35.0863996 22.9055995,35.0543996 C22.9663995,34.9887997 23.0255995,35.0495996 23.0895995,35.0751996 C23.3295995,35.1711996 23.5951995,35.1743996 23.8495995,35.1999996 L23.8495995,35.1999996 L24.7647995,35.1999996 C24.8783995,35.2143996 24.9983995,35.2159996 25.1007995,35.2751996 C25.0687995,35.3071996 24.9839995,35.3103996 24.9295995,35.3247996 C24.7039995,35.3631996 24.4735995,35.3119996 24.2447995,35.3055996 C23.7647995,35.2879996 23.2847995,35.2815996 22.8047995,35.2751996 C22.2943995,35.2815996 21.7839995,35.2927996 21.2751995,35.3455996 C20.9247995,35.3727996 20.5647995,35.4015996 20.2399995,35.5455996 C20.1663995,35.6223996 20.2207995,35.4703996 20.2303995,35.4303996 C20.2703995,35.3535996 20.2831995,35.3007996 20.1855995,35.3503996 C20.0703995,35.3807996 19.9567995,35.4351996 19.8655995,35.5103996 C19.8111995,35.5295996 19.7967995,35.6703996 19.7791995,35.6399996 C19.7311995,35.5359996 19.7023995,35.4175996 19.7103995,35.3055996 C19.7231995,35.2143996 19.7343995,35.1263996 19.7903995,35.0495996 C19.8895995,34.8815997 20.0719995,34.7903997 20.2351995,34.6943997 C20.2751995,34.7199997 20.3167995,34.7423997 20.3599995,34.7599997 C20.4031995,34.7775997 20.4495995,34.7919997 20.4943995,34.8047997 C20.5343995,34.8095997 20.5759995,34.8095997 20.6207995,34.8047997 C20.6639995,34.7999997 20.7103995,34.7919997 20.7551995,34.7807997 C20.7919995,34.8127997 20.8319995,34.8399997 20.8751995,34.8543997 C20.9167995,34.8703997 20.9615995,34.8719997 21.0047995,34.8703997 C21.0479995,34.8671997 21.0911995,34.8591997 21.1295995,34.8399997 C21.1695995,34.8207997 21.2031995,34.7903997 21.2351995,34.7551997 C21.2591995,34.7295997 21.2895995,34.6879997 21.2991995,34.6543997 C21.3103995,34.6191997 21.3151995,34.5775997 21.3151995,34.5343997 C21.3151995,34.4927997 21.3087995,34.4511997 21.2991995,34.4095997 L21.2991995,34.4095997 L21.4495995,34.3951997 L21.5391995,34.3807997 C21.7631995,34.3439997 21.9791995,34.2655997 22.2047995,34.2351997 C22.3695995,34.1823997 22.5375995,34.1599997 22.7103995,34.1503997 Z M36.8346032,21.1234512 C37.1955632,21.0737712 37.2489536,21.4652496 37.2507296,21.7310832 C37.2359456,23.0222352 36.6286496,24.2138832 36.0421376,25.3333392 C36.7121216,24.7793232 37.1077376,23.9854512 37.6287296,23.3053392 C37.7840096,23.0093491 38.1578096,22.7829264 38.4566336,23.03028 C38.6420144,23.351736 38.3004176,23.6999232 38.1733328,23.989464 C37.5805328,24.962904 36.9010928,25.90212 36.0792848,26.69532 C36.9373808,26.29044 37.5439568,25.528152 38.2141808,24.88236 C38.3460272,24.6289728 38.852552,24.6639024 38.8157168,24.986616 C38.1027248,26.105496 37.1100848,27.025944 36.0669008,27.834456 C36.5963408,27.996024 37.0051568,27.473664 37.4698448,27.319176 C37.8231488,27.1465008 37.6731488,27.62652 37.5623744,27.7858128 C37.0947104,28.4974608 36.2517344,28.8163728 35.5859264,29.3072688 C35.1959936,29.4498768 35.3546384,29.6141616 35.6978816,29.554416 C35.8662272,29.547576 36.44396,29.4594768 36.1906976,29.7412848 C35.6346656,30.1486752 34.9035776,30.1758864 34.2838496,30.4470768 C34.6494176,30.576695 35.0803472,30.436944 35.4229856,30.5956608 C35.0021696,30.9218304 34.4355776,30.9479328 33.9353216,31.0803648 C33.5399408,31.1191481 33.5158928,31.2238104 33.9259424,31.2573984 C34.0979072,31.300632 34.5590768,31.2478128 34.5438944,31.4376576 C33.9575264,31.637424 33.2706944,31.517808 32.7256544,31.854096 C32.7522464,31.993968 33.1455584,32.0787504 33.3290144,32.1550896 C33.7186976,32.2872 33.0220256,32.4560112 32.8891616,32.6131008 C31.8827936,33.2535648 30.6697856,33.4721856 29.4920576,33.3816288 C30.4348256,33.2873088 31.3149536,32.8749408 32.0649056,32.3080128 C32.3994416,32.1943008 32.2836896,31.9059216 32.2037168,31.6481568 C32.4672704,31.6706256 32.7902528,31.622136 32.9408048,31.3946928 C32.5428224,31.1670816 32.8575392,31.03692 33.1571264,30.967152 C33.3138224,30.9115584 33.7200176,30.7418496 33.4419104,30.5709312 C33.4795904,30.3032928 33.8693264,30.2552976 34.0719584,30.117936 C34.4463152,29.9847936 34.4043536,29.9065344 34.0362224,29.8404 C34.4352464,29.492016 34.9288592,29.2860336 35.3611184,28.986048 C35.7003104,28.8232944 35.0778704,28.7762131 34.9153664,28.7384112 C35.2070768,28.4222832 35.7554288,28.1565552 35.6583104,27.6488112 C35.3749184,27.6388416 35.1339104,27.8159851 34.8534944,27.8221584 C35.1961712,27.4800144 35.4799856,27.0415344 35.5097504,26.5467984 C35.0943584,26.4550848 34.6566032,26.5705632 34.2896864,26.7710448 C33.5141984,27.2309808 32.8584704,27.9042768 32.3771264,28.6641168 C32.2866992,28.9214112 32.1773072,29.154456 31.8941504,29.2423728 C30.6331424,29.9399088 29.1278144,30.3727728 28.2415424,31.5862608 C27.0775904,31.9097664 25.8450944,31.8672528 24.6856544,32.2177968 C24.0912704,32.3365968 23.7076064,32.8115328 23.2649984,33.1777968 C22.5345344,33.6877968 21.7936064,34.1982288 20.9443904,34.4903088 C20.9437034,34.490601 20.9430168,34.4908945 20.9423307,34.4911894 L20.96,34.48896 C21.0227484,34.48896 21.073616,34.5398276 21.073616,34.602576 C21.073616,34.6653244 21.0227484,34.716192 20.96,34.716192 C20.8972516,34.716192 20.846384,34.6653244 20.846384,34.602576 C20.846384,34.5699468 20.8601386,34.5405302 20.8821659,34.5198081 C20.6592174,34.6430237 20.4788427,34.8720662 20.2302115,34.6446528 C20.2291328,34.5774192 20.2359056,34.507176 20.2674896,34.4465424 C20.6323856,33.9724272 21.2978576,33.9209664 21.8081936,33.6673584 C22.9468976,33.3060144 23.4913616,32.1520944 24.3906896,31.4624784 C24.7618736,31.3300646 25.1818304,31.379976 25.5701456,31.2949296 C27.0136496,31.0848816 28.4324816,30.6215376 29.7027536,29.9028336 C32.4769616,28.3034736 34.5981776,25.5386736 35.2222736,22.3773936 C35.1549776,22.0572336 35.677376,21.9181104 35.7525776,22.2416112 C35.9135744,22.9654512 35.7038624,23.7126192 35.5840016,24.4294512 C36.1167632,23.6570352 36.2386688,22.7017392 36.4984016,21.8196432 C36.616376,21.6030288 36.5484176,21.17472 36.8346032,21.1234512 Z M11.1449422,21.6311021 C11.4255022,22.5789581 11.547883,23.6049101 12.1107502,24.4417901 C11.986411,23.7386381 11.8034446,23.0145101 11.925019,22.2996941 C11.9530616,22.0649837 12.2172622,21.9939341 12.3897454,22.1358317 C12.5291662,22.4771117 12.5582542,22.8985037 12.6853006,23.2633997 C13.4081806,25.7363117 15.0313006,27.9113357 17.1464686,29.3709197 C18.8884846,30.5656877 20.9558446,31.2788717 23.0658286,31.4032877 C23.256379,31.4198957 23.4476974,31.4256307 23.6385646,31.4373456 C23.4703712,31.742592 23.3715584,32.093184 23.15552,32.366256 C22.505552,31.774848 21.563312,31.794384 20.738864,31.755024 C20.058368,31.7187086 19.318352,31.6559232 18.79184,31.170576 C18.237968,30.71688 17.785856,30.127824 17.166944,29.759712 C16.602032,29.6061072 16.03256,29.4139104 15.578384,29.026704 C14.607824,28.235568 14.051984,27.061728 13.1036,26.24592 C12.9227888,26.0679456 12.709568,25.9300224 12.507008,25.7790336 C12.3145472,25.8259272 12.401624,26.2413264 12.1661024,26.0295648 C12.0379712,25.9383888 11.7173984,25.9295136 11.6885408,26.0568946 C11.97848,26.4389746 12.2687168,26.8752466 12.3088928,27.3639346 C12.1111424,27.3842098 11.7595328,27.3221438 11.6615168,27.395796 C11.9241488,27.7894104 12.2607488,28.1385 12.6432128,28.41642 C12.4597712,28.4459179 12.0982688,28.4298542 12.0279488,28.5037704 C12.4075904,28.813188 12.8147168,29.1294024 13.3118048,29.2088904 C13.4135648,29.3430408 13.1630528,29.6020152 13.3737152,29.7165384 C13.4959136,29.7664536 13.8990752,29.8499832 13.6213568,29.9889432 C13.4307728,30.1173672 13.501496,30.416676 13.7451824,30.409932 C13.8992672,30.4886088 14.2452464,30.5079096 14.2723184,30.644124 C14.135744,30.7831128 13.7108144,30.9479064 14.0724608,31.0780872 C14.4103328,31.2654792 14.7956768,31.3871304 15.1815008,31.4004936 C14.987888,31.5633864 14.7493088,31.6558824 14.5500128,31.8091032 C15.4404128,32.3311992 16.4274368,32.6745432 17.4027968,33.0052152 C17.79116,33.134964 18.1839488,33.2559528 18.5865248,33.3321048 C17.4168128,33.264588 16.2862688,32.9182872 15.2209568,32.4443448 C14.6688128,32.2021752 14.1129248,31.9681992 13.5470528,31.7596248 C13.7951744,31.6305192 14.0821568,31.598964 14.3394848,31.48722 C13.8053408,31.3802232 13.2218048,31.345116 12.7522688,31.0515336 C12.8242544,30.9230952 13.097048,30.9170328 13.2479168,30.851652 C13.531664,30.783684 13.707656,30.7012248 13.3076192,30.676572 C12.9041456,30.5670744 12.4414592,30.6162072 12.0859232,30.3728376 C12.1088144,30.2269176 12.4808816,30.2777352 12.6324512,30.2147544 C12.823256,30.1819704 13.0354496,30.154524 13.1879552,30.0261432 C12.5642432,29.7675192 11.7484352,29.9507496 11.2598912,29.3999352 C11.1472064,29.1901176 11.6097344,29.3591323 11.7414752,29.3241816 C12.0761456,29.324183 12.4358912,29.43054 12.7546112,29.2955933 C11.8457792,28.8965981 10.8722912,28.5230333 10.1791712,27.7849853 C10.102184,27.6663485 9.8716304,27.3421901 10.0576496,27.3021053 C10.5971216,27.3734765 10.9876016,27.9622493 11.5646576,27.8706173 C11.641328,27.7672925 11.2294496,27.5979341 11.1266384,27.4502237 C10.2852944,26.7282557 9.4686704,25.9447517 8.8790384,24.9990557 C8.83848224,24.6832541 9.3348992,24.6359357 9.4655984,24.8798621 C10.1090384,25.4995901 10.6902704,26.2227581 11.4916304,26.6458301 C11.776016,26.7837053 11.3283728,26.4826301 11.268752,26.3734253 C10.528256,25.5135533 9.823328,24.6053933 9.305792,23.5926893 C9.2131568,23.4101549 9.0596288,23.0797613 9.33682064,22.9826093 C9.61388624,22.8437981 9.88886864,23.0328941 10.0293646,23.2709261 C10.5737806,23.9575661 10.9743886,24.7736621 11.6525806,25.3457261 C11.0748046,24.2244941 10.4579086,23.0442221 10.4429806,21.7539821 C10.4565291,21.5038589 10.4726101,21.1255661 10.8117742,21.1358381 C11.096563,21.0926659 11.0515918,21.4572461 11.1449422,21.6311021 Z M23.8626368,27.4992 C24.2466368,27.4992 24.3906368,27.744 24.3906368,28.032 C24.3906368,28.416 23.8626368,30.2448 23.8626368,30.2448 C23.8626368,30.2448 23.3346368,28.416 23.3346368,28.032 C23.3346368,27.744 23.4786368,27.504 23.8626368,27.4992 Z M25.2944437,27.3581793 C25.6710652,27.2832646 25.8600564,27.4952679 25.9162424,27.777734 C25.9911571,28.1543556 25.8300837,30.0510234 25.8300837,30.0510234 C25.8300837,30.0510234 24.9554479,28.360371 24.8805332,27.9837494 C24.8243472,27.7012833 24.9187586,27.4378018 25.2944437,27.3581793 Z M22.32319,27.34524 L22.4308299,27.3581793 C22.8074515,27.433094 22.9009264,27.7012833 22.8447404,27.9837494 C22.7698257,28.360371 21.8951899,30.0510234 21.8951899,30.0510234 C21.8951899,30.0510234 21.7341165,28.1543556 21.8090312,27.777734 C21.8652172,27.4952679 22.0532719,27.2879724 22.4308299,27.3581793 Z M20.3623444,27.2307228 C20.4725573,26.9646455 20.6974399,26.7980208 21.0540466,26.9405367 C21.4088163,27.0874871 21.448174,27.3687592 21.3379612,27.6348365 C21.1910108,27.9896063 20.0033509,29.4771403 20.0033509,29.4771403 C20.0033509,29.4771403 20.215394,27.5854926 20.3623444,27.2307228 Z M26.671227,26.9405367 C27.0259968,26.7935862 27.2527163,26.9646455 27.3629292,27.2307228 C27.5098796,27.5854926 27.7219227,29.4771403 27.7219227,29.4771403 C27.7219227,29.4771403 26.5342628,27.9896063 26.3873124,27.6348365 C26.2770996,27.3687592 26.3182942,27.0919217 26.671227,26.9405367 Z M27.9400779,26.2623218 C28.2593622,26.0489828 28.5150974,26.1725245 28.6751016,26.4119877 C28.8884406,26.731272 29.4654515,28.5452047 29.4654515,28.5452047 C29.4654515,28.5452047 28.0104087,27.3179542 27.7970697,26.9986699 C27.6370655,26.7592066 27.6234603,26.4796518 27.9400779,26.2623218 Z M19.050172,26.4119877 C19.2101762,26.1725245 19.4632447,26.0529739 19.7851957,26.2623218 C20.1044801,26.4756607 20.0882081,26.7592066 19.9282039,26.9986699 C19.7148649,27.3179542 18.2598221,28.5452047 18.2598221,28.5452047 C18.2598221,28.5452047 18.836833,26.731272 19.050172,26.4119877 Z M17.9229398,25.3529922 C18.1265866,25.1493454 18.3981156,25.0814632 18.6730387,25.3495981 C18.9445677,25.6211271 18.8732914,25.8960502 18.6696446,26.099697 C18.3981156,26.371226 16.7316063,27.2910305 16.7316063,27.2910305 C16.7316063,27.2910305 17.6514108,25.6245212 17.9229398,25.3529922 Z M29.0522349,25.3495981 C29.3237639,25.0780691 29.598687,25.1493454 29.8023338,25.3529922 C30.0738628,25.6245212 30.9936673,27.2910305 30.9936673,27.2910305 C30.9936673,27.2910305 29.327158,26.371226 29.055629,26.099697 C28.8519822,25.8960502 28.7841,25.6245212 29.0522349,25.3495981 Z M23.8626368,13.7016144 C27.4295047,13.7016144 30.3210224,16.5931321 30.3210224,20.16 C30.3210224,23.7268679 27.4295047,26.6183856 23.8626368,26.6183856 C20.2957689,26.6183856 17.4042512,23.7268679 17.4042512,20.16 C17.4042512,16.5931321 20.2957689,13.7016144 23.8626368,13.7016144 Z M29.9649586,24.2374411 C30.1782975,23.9181567 30.4618434,23.9344287 30.7013067,24.0944329 C31.020591,24.3077719 32.2478415,25.7628147 32.2478415,25.7628147 C32.2478415,25.7628147 30.4339088,25.1858038 30.1146245,24.9724648 C29.8751613,24.8124606 29.7556107,24.5593921 29.9649586,24.2374411 Z M17.0239669,24.0944329 C17.2634302,23.9344287 17.542985,23.9208235 17.760315,24.2374411 C17.973654,24.5567254 17.8501123,24.8124606 17.6106491,24.9724648 C17.2913648,25.1858038 15.4774321,25.7628147 15.4774321,25.7628147 C15.4774321,25.7628147 16.7046826,24.3077719 17.0239669,24.0944329 Z M16.3878003,22.6846756 C16.6538776,22.5744628 16.9307151,22.6156574 17.0821001,22.9685902 C17.2290506,23.32336 17.0579913,23.5500795 16.791914,23.6602924 C16.4371442,23.8072428 14.5454965,24.0192859 14.5454965,24.0192859 C14.5454965,24.0192859 16.0330305,22.831626 16.3878003,22.6846756 Z M30.6431735,22.9685902 C30.7901239,22.6138205 31.071396,22.5744628 31.3374733,22.6846756 C31.6922431,22.831626 33.1797771,24.0192859 33.1797771,24.0192859 C33.1797771,24.0192859 31.2881294,23.8072428 30.9333596,23.6602924 C30.6672823,23.5500795 30.5006576,23.3251969 30.6431735,22.9685902 Z M31.0608161,21.5918069 C31.1357308,21.2151853 31.4039201,21.1217104 31.6863862,21.1778964 C32.0630078,21.2528111 33.7536602,22.1274469 33.7536602,22.1274469 C33.7536602,22.1274469 31.8569924,22.2885203 31.4803708,22.2136056 C31.1979047,22.1574196 30.9906092,21.9693649 31.0608161,21.5918069 Z M16.0388874,21.1778964 C16.3213535,21.1217104 16.584835,21.2161218 16.6644575,21.5918069 C16.7393722,21.9684284 16.5273689,22.1574196 16.2449028,22.2136056 C15.8682812,22.2885203 13.9716134,22.1274469 13.9716134,22.1274469 C13.9716134,22.1274469 15.6622658,21.2528111 16.0388874,21.1778964 Z M15.9906368,19.632 C16.2786368,19.632 16.5186368,19.776 16.5234368,20.16 C16.5234368,20.544 16.2786368,20.688 15.9906368,20.688 C15.6066368,20.688 13.7778368,20.16 13.7778368,20.16 C13.7778368,20.16 15.6066368,19.632 15.9906368,19.632 Z M31.7346368,19.632 C32.1186368,19.632 33.9474368,20.16 33.9474368,20.16 C33.9474368,20.16 32.1186368,20.688 31.7346368,20.688 C31.4466368,20.688 31.2066368,20.544 31.2018368,20.16 C31.2018368,19.776 31.4466368,19.632 31.7346368,19.632 Z M13.9716134,18.1925531 C13.9716134,18.1925531 15.8682812,18.0314797 16.2449028,18.1063944 C16.5273689,18.1625804 16.7346644,18.3506351 16.6644575,18.7281931 C16.5895428,19.1048147 16.3213535,19.1982896 16.0388874,19.1421036 C15.6622658,19.0671889 13.9716134,18.1925531 13.9716134,18.1925531 Z M31.4803708,18.1063944 C31.8569924,18.0314797 33.7536602,18.1925531 33.7536602,18.1925531 C33.7536602,18.1925531 32.0630078,19.0671889 31.6863862,19.1421036 C31.4039201,19.1982896 31.1404386,19.1038782 31.0608161,18.7281931 C30.9859014,18.3515716 31.1979047,18.1625804 31.4803708,18.1063944 Z M33.1797771,16.3007141 C33.1797771,16.3007141 31.6922431,17.488374 31.3374733,17.6353244 C31.071396,17.7455372 30.7945585,17.7043426 30.6431735,17.3514098 C30.496223,16.99664 30.6672823,16.7699205 30.9333596,16.6597076 C31.2881294,16.5127572 33.1797771,16.3007141 33.1797771,16.3007141 Z M14.5454965,16.3007141 C14.5454965,16.3007141 16.4371442,16.5127572 16.791914,16.6597076 C17.0579913,16.7699205 17.224616,16.9948031 17.0821001,17.3514098 C16.9351497,17.7061795 16.6538776,17.7455372 16.3878003,17.6353244 C16.0330305,17.488374 14.5454965,16.3007141 14.5454965,16.3007141 Z M15.4774321,14.5571853 C15.4774321,14.5571853 17.2913648,15.1341962 17.6106491,15.3475352 C17.8501123,15.5075394 17.9696629,15.7606079 17.760315,16.0825589 C17.5469761,16.4018433 17.2634302,16.3855713 17.0239669,16.2255671 C16.7046826,16.0122281 15.4774321,14.5571853 15.4774321,14.5571853 Z M32.2478415,14.5571853 C32.2478415,14.5571853 31.020591,16.0122281 30.7013067,16.2255671 C30.4618434,16.3855713 30.1822886,16.3991765 29.9649586,16.0825589 C29.7516196,15.7632746 29.8751613,15.5075394 30.1146245,15.3475352 C30.4339088,15.1341962 32.2478415,14.5571853 32.2478415,14.5571853 Z M16.7316063,13.0289695 C16.7316063,13.0289695 18.3981156,13.948774 18.6696446,14.220303 C18.8732914,14.4239498 18.9411736,14.6954788 18.6730387,14.9704019 C18.4015097,15.2419309 18.1265866,15.1706546 17.9229398,14.9670078 C17.6514108,14.6954788 16.7316063,13.0289695 16.7316063,13.0289695 Z M30.9936673,13.0289695 C30.9936673,13.0289695 30.0738628,14.6954788 29.8023338,14.9670078 C29.598687,15.1706546 29.327158,15.2385368 29.0522349,14.9704019 C28.7807059,14.6988729 28.8519822,14.4239498 29.055629,14.220303 C29.327158,13.948774 30.9936673,13.0289695 30.9936673,13.0289695 Z M18.2598221,11.7747953 C18.2598221,11.7747953 19.7148649,13.0020458 19.9282039,13.3213301 C20.0882081,13.5607934 20.1018133,13.8403482 19.7851957,14.0576782 C19.4659114,14.2710172 19.2101762,14.1474755 19.050172,13.9080123 C18.836833,13.588728 18.2598221,11.7747953 18.2598221,11.7747953 Z M29.4654515,11.7747953 C29.4654515,11.7747953 28.8884406,13.588728 28.6751016,13.9080123 C28.5150974,14.1474755 28.2620289,14.2670261 27.9400779,14.0576782 C27.6207935,13.8443393 27.6370655,13.5607934 27.7970697,13.3213301 C28.0104087,13.0020458 29.4654515,11.7747953 29.4654515,11.7747953 Z M20.0033509,10.8428597 C20.0033509,10.8428597 21.1910108,12.3303937 21.3379612,12.6851635 C21.448174,12.9512408 21.4069794,13.2280783 21.0540466,13.3794633 C20.6992768,13.5264138 20.4725573,13.3553545 20.3623444,13.0892772 C20.215394,12.7345074 20.0033509,10.8428597 20.0033509,10.8428597 Z M27.7219227,10.8428597 C27.7219227,10.8428597 27.5098796,12.7345074 27.3629292,13.0892772 C27.2527163,13.3553545 27.0278337,13.5219792 26.671227,13.3794633 C26.3164573,13.2325129 26.2770996,12.9512408 26.3873124,12.6851635 C26.5342628,12.3303937 27.7219227,10.8428597 27.7219227,10.8428597 Z M21.8951899,10.2689766 C21.8951899,10.2689766 22.7698257,11.959629 22.8447404,12.3362506 C22.9009264,12.6187167 22.806515,12.8821982 22.4308299,12.9618207 C22.0542084,13.0367354 21.8652172,12.8247321 21.8090312,12.542266 C21.7341165,12.1656444 21.8951899,10.2689766 21.8951899,10.2689766 Z M25.8300837,10.2689766 C25.8300837,10.2689766 25.9911571,12.1656444 25.9162424,12.542266 C25.8600564,12.8247321 25.6720017,13.0320276 25.2944437,12.9618207 C24.9178221,12.886906 24.8243472,12.6187167 24.8805332,12.3362506 C24.9554479,11.959629 25.8300837,10.2689766 25.8300837,10.2689766 Z M23.8626368,10.0752 C23.8626368,10.0752 24.3906368,11.904 24.3906368,12.288 C24.3906368,12.576 24.2466368,12.816 23.8626368,12.8208 C23.4786368,12.8208 23.3346368,12.576 23.3346368,12.288 C23.3346368,11.904 23.8626368,10.0752 23.8626368,10.0752 Z" id="Combined-Shape" fill="#FEC50C" fill-rule="nonzero" mask="url(#mask-2)"></path>
        </g>
        <rect id="Rectangle" stroke="#DDE2E3" stroke-width="3" opacity="0" fill-rule="nonzero" x="1.5" y="1.5" width="45" height="45" rx="5"></rect>
    </g>
</svg>