<?xml version="1.0" encoding="UTF-8"?>
<svg width="48px" height="48px" viewBox="0 0 48 48" version="1.1" xmlns="http://www.w3.org/2000/svg" xmlns:xlink="http://www.w3.org/1999/xlink">
    <!-- Generator: Sketch 64 (93537) - https://sketch.com -->
    <title>Graphics / 01 Flags/LKR</title>
    <desc>Created with Sketch.</desc>
    <defs>
        <rect id="path-1" x="0" y="0" width="48" height="48"></rect>
    </defs>
    <g id="Graphics-/-01-Flags/LKR" stroke="none" stroke-width="1" fill="none" fill-rule="evenodd">
        <g id="Flag">
            <mask id="mask-2" fill="white">
                <use xlink:href="#path-1"></use>
            </mask>
            <g id="Mask" fill-rule="nonzero"></g>
            <polygon id="Fill-3" fill="#861E33" mask="url(#mask-2)" points="0 48 48 48 48 0 0 0"></polygon>
            <path d="M12.9454933,33.2125867 C12.9213867,33.6017067 12.8360533,33.98528 12.7572267,34.33984 C12.7112267,34.54696 12.6672667,34.74448 12.6385767,34.92907 L12.6154667,35.1093333 L12.6024667,35.2675733 L12.6024667,35.2675733 L12.5917867,35.4315733 C12.56128,35.9189333 12.5268267,36.4674133 12.2085333,36.7688533 C12.06304,36.90656 11.8779733,36.9972267 11.6865067,37.0331733 C11.4964267,37.0688 11.3005867,37.05056 11.13152,36.97152 C10.97696,36.8992 10.83616,36.84832 10.6948267,36.82336 C10.5712,36.8016 10.4477867,36.7994667 10.3154133,36.8199467 C10.3757867,36.45312 10.31296,36.3348267 10.2258133,36.17056 C10.1841067,36.09184 10.1362133,36.0018133 10.0955733,35.8622933 C9.96010667,35.3981867 10.11776,35.0814933 10.3917867,34.85952 C10.67488,34.6304 11.08128,34.4983467 11.4258133,34.4094933 C11.8533333,34.2993067 12.1387733,34.1854933 12.3765333,33.98496 C12.584,33.8100267 12.7527467,33.5709867 12.9454933,33.2125867 Z M35.2520533,33.2125867 C35.4448,33.5709867 35.6135467,33.8100267 35.8210133,33.98496 C36.0586667,34.1854933 36.3442133,34.2993067 36.7717333,34.4094933 C37.11616,34.4983467 37.5227733,34.6304 37.80576,34.85952 C38.0798933,35.0814933 38.23744,35.3981867 38.10208,35.8622933 C38.06144,36.0018133 38.0135467,36.09184 37.9717333,36.17056 C37.8845867,36.3348267 37.8218667,36.45312 37.8821333,36.8199467 C37.74976,36.7994667 37.6263467,36.8016 37.50272,36.82336 C37.3613867,36.84832 37.2205867,36.8992 37.0661333,36.97152 C36.8970667,37.05056 36.70112,37.0688 36.51104,37.0331733 C36.31968,36.9972267 36.1345067,36.90656 35.9890133,36.7688533 C35.6708267,36.4674133 35.6362667,35.9189333 35.60576,35.4315733 L35.59504,35.2675733 L35.59504,35.2675733 L35.58208,35.1093333 L35.558985,34.92907 C35.53032,34.74448 35.4864,34.54696 35.44032,34.33984 C35.3614933,33.98528 35.27616,33.6017067 35.2520533,33.2125867 Z M30.1159467,14.94784 C30.3896533,15.0485333 30.66048,15.176 30.9285333,15.3312 C31.53056,15.6798933 32.144,16.2040533 32.67744,16.6818133 C33.0770133,17.03968 33.4801067,17.40448 33.7611733,17.51904 C34.0845867,17.6507733 33.9688533,17.4795733 33.9810133,17.2816 C34.00448,16.8996267 34.42048,16.70592 34.6759467,16.9566933 C34.8657067,17.1432533 34.90752,17.4673067 34.8222933,17.7342933 C34.7890133,17.83808 34.73664,17.9333333 34.6661333,18.0084267 C34.4002133,18.2919467 33.9624533,18.3064533 33.6362667,18.1687467 C32.9917867,17.8965333 32.4218667,17.0615467 31.79424,16.6622933 C31.7834667,16.9933867 31.8503467,17.2686933 31.9825067,17.4974933 C32.1223467,17.7400533 32.1598933,17.7408 31.8413867,17.5911467 C31.4413867,17.4029867 31.1559467,17.09088 30.9287467,16.7156267 C30.7405867,17.2715733 30.48512,17.5735467 30.16256,17.6215467 C29.89568,17.66112 30.0071467,17.5893333 30.0992,17.4036267 C30.4884267,16.6192 30.2839467,16.0344533 29.42336,15.6702933 C29.79584,16.82368 29.45568,17.41472 28.54848,17.5582933 C29.1237333,16.7013333 28.9560533,15.6512 27.7201067,15.5249067 C27.7527467,15.83136 27.7234133,16.0939733 27.63168,16.2904533 C27.5575467,16.44928 27.5178667,16.5322667 27.4327467,16.3480533 C27.33376,16.1335467 27.2529067,16.0608 27.02944,16.0692267 C26.4878933,16.0897067 25.85568,16.8987733 26.75616,17.6864 C27.0439467,17.1306667 27.6743467,16.9121067 28.12512,17.3022933 C27.3735467,17.5188267 27.27424,18.1649067 27.7488,18.68896 C27.8509867,18.51488 27.9584,18.3565867 28.08256,18.24736 C28.2245333,18.1224533 28.33728,18.02912 28.41888,18.2645333 C28.5594667,18.6701867 28.4752,18.7445333 28.93152,18.9098667 C29.3813333,19.0728533 30.7259733,18.8696533 31.8205867,18.76512 C32.5182933,18.6984533 33.0093867,18.6308267 33.62048,19.1339733 C34.54304,19.89344 34.4778667,21.3735467 33.33248,22.1290667 C34.0453333,23.0513067 34.2753067,24.1224533 34.12672,25.28416 C34.04224,25.9450667 33.8475733,26.4573867 33.6625067,27.0757333 C33.50304,27.60736 33.3794133,28.1060267 33.31712,28.5540267 C33.2256,29.2123733 33.2616533,30.1389867 33.81184,30.50304 C33.94688,30.5924267 34.2136533,30.6215467 34.2424533,30.7755733 C34.2708267,30.9271467 34.1168,31.1454933 33.9501867,31.3221333 C33.6557867,31.6340267 33.3540267,31.8167467 33.30912,32.20256 C33.2635733,32.5928533 33.5134933,33.0416 33.7127467,33.4074667 C33.75584,33.4865067 33.8104533,33.576 33.8139733,33.6475733 C33.8234667,33.84032 33.46784,33.76448 33.3706667,33.7371733 C33.2066133,33.6910933 33.0552533,33.60736 32.91744,33.5002667 C32.9066667,33.4917333 32.8944,33.4893867 32.8817067,33.49344 C32.8692267,33.4974933 32.8597333,33.5066667 32.8542933,33.52032 C32.7010133,33.9079467 32.3258667,33.86496 31.96352,33.4967467 C31.9464533,33.4794667 31.9204267,33.4805333 31.9044267,33.4992 C31.57408,33.8849067 31.3005867,33.8868267 31.0861867,33.5083733 C31.07968,33.4968533 31.0702933,33.4896 31.0583467,33.48704 C31.0465067,33.48448 31.03552,33.4871467 31.0256,33.4951467 C30.9533867,33.55328 30.88,33.6104533 30.80384,33.6654933 C30.6158933,33.8011733 30.44096,33.8571733 30.4698667,33.6525867 C30.51008,33.3671467 30.7509333,33.1163733 30.9581867,32.976 C31.0701867,32.9003733 31.20128,32.83232 31.3534933,32.7729067 C31.63296,32.6637867 32.0484267,32.6738133 32.1691733,32.3816533 C32.2053333,32.2936533 32.2439467,32.18144 32.2363733,32.0436267 C32.1938133,31.47552 32.2417067,30.8253867 31.9413333,30.3688533 C31.62624,29.89024 30.95328,29.5412267 30.50176,29.18464 C30.0791467,28.85088 29.83168,28.5650133 29.47008,28.1617067 C29.36032,28.03904 29.2498133,27.9249067 29.1284267,27.8244267 C28.61568,27.4002133 27.8784,27.3358933 27.1754667,27.4077867 C26.44704,27.4823467 26.0301867,27.6416 25.4763733,27.8964267 C25.08064,28.0786133 24.6971733,28.26624 24.3092267,28.46944 C23.9104,28.6784 23.50976,28.8839467 23.12512,28.9959467 C23.1799467,28.8647467 23.2418133,28.7272533 23.3064533,28.5838933 C23.5738667,27.9902933 23.8866133,27.2965333 23.9408,26.5038933 C23.9508267,26.3584 23.9789867,26.0827733 23.8469333,25.93216 C23.9502933,26.9432533 23.55648,27.8171733 23.2308267,28.5400533 C23.0727467,28.8906667 22.9588267,29.1720533 22.7716267,29.50592 C22.7096533,29.6164267 22.65088,29.7264 22.59776,29.8347733 C22.2066133,30.63296 22.3553067,30.9581867 23.0605867,31.0919467 C23.29984,31.13728 23.41952,31.0741333 23.2216533,31.3941333 C23.0437333,31.6818133 22.70848,31.8884267 22.33248,32.0695467 C21.94944,32.25408 22.0269867,32.1271467 22.0551467,32.5931733 C22.0743467,32.90688 22.0654933,33.1860267 22.0014933,33.3969067 C21.8433067,33.9188267 21.4138667,33.8037333 21.07936,33.5787733 C21.0386133,33.5514667 20.99008,33.5546667 20.9524267,33.5870933 C20.66272,33.8369067 20.3597867,33.85088 20.04096,33.5866667 C20,33.5527467 19.9463467,33.5530667 19.9057067,33.5876267 C19.6273067,33.8241067 19.2913067,33.86784 19.0964267,33.6023467 C19.0695467,33.5658667 19.02432,33.5566933 18.9880533,33.58048 C18.2622933,34.05632 18.432,33.5220267 18.6881067,33.0917333 C18.7828267,32.9325867 18.856,32.8112 18.9598933,32.7474133 C19.0765867,32.6756267 19.37792,32.6686933 19.6593067,32.66976 C20.568,32.6734933 20.9650133,32.3512533 20.87264,31.2901333 C20.8337067,30.8432 20.6613333,30.3050667 20.5108267,29.81152 C20.42848,29.5416533 20.392,29.3437867 20.33984,29.0670933 C20.2728533,28.7106133 20.2018133,28.3332267 20.2197333,27.9146667 C20.2283733,27.7131733 20.2613333,27.5563733 20.29408,27.3621333 C20.3096533,27.2696533 20.3194667,27.16928 20.3122133,27.00992 C20.0194133,27.8276267 20.1434667,28.4866133 20.2565333,29.0871467 C20.27616,29.1914667 20.2955733,29.2941867 20.3121067,29.3944533 C20.1061333,29.4368 19.84416,29.29024 19.5632,29.0922667 C19.1301333,28.7870933 18.73824,28.44032 18.4242133,28.02944 C17.68512,27.0619733 17.4638933,25.8078933 17.8525867,24.6059733 C18.0909867,23.8686933 18.53888,23.1586133 19.12864,22.6381867 C19.4058667,22.3934933 19.7911467,22.1710933 20.0613333,21.8821333 C20.2114133,21.7216 20.3458133,21.5224533 20.2126933,21.28352 C20.13632,21.1467733 19.9805867,21.1045333 19.8208,21.2384 C19.7333333,21.3118933 19.6775467,21.42624 19.62816,21.5488 C19.61728,21.5761067 19.5979733,21.5944533 19.57248,21.6021333 C19.5469867,21.6098133 19.5221333,21.6046933 19.5006933,21.5872 C19.3469867,21.4616533 19.3281067,21.1610667 19.1104,20.87712 C19.1032533,20.8679467 19.0932267,20.8641067 19.0827733,20.8667733 C19.07232,20.8693333 19.0645333,20.8776533 19.0615467,20.88928 C19.02048,21.0487467 18.9921067,21.2805333 18.9262933,21.2996267 C18.8813867,21.3125333 18.7575467,21.1578667 18.6688,21.0402133 C18.5704533,20.9098667 18.5722667,20.9189333 18.4757333,20.9629867 C18.2910933,21.0474667 18.0820267,21.0944 17.88672,21.1396267 C17.9431467,20.97728 18.01536,20.78752 18.07968,20.6116267 C17.76256,20.6970667 17.4347733,20.7544533 17.0987733,20.7901867 C17.18048,20.5444267 17.25056,20.29312 17.3074133,20.0353067 C17.3474133,19.8535467 17.3595733,19.7988267 17.4077867,19.7064533 C17.4420267,19.6410667 17.5095467,19.61184 17.5735467,19.63488 C17.7576533,19.7010133 17.94272,19.7623467 18.13728,19.8164267 C18.50528,19.91872 18.9069867,19.9957333 19.4016,20.0333867 C19.3892267,20.0738133 19.37088,20.1172267 19.34752,20.1626667 C19.31936,20.21728 19.2845867,20.2741333 19.2442667,20.3326933 L19.1896533,20.41216 L19.2785067,20.41056 C19.44928,20.40736 19.6184533,20.4126933 19.78592,20.4263467 C20.18304,20.4587733 20.6261333,20.6821333 20.3281067,20.0285867 C20.06528,19.4528 19.5899733,18.9953067 19.33568,18.40352 C19.1738667,18.7541333 19.28896,19.0955733 18.9412267,18.7777067 C18.85632,18.7000533 18.7714133,18.6 18.6865067,18.4941867 C18.6520533,18.6506667 18.6721067,18.8071467 18.7005867,18.9636267 C18.5275733,18.8816 18.3662933,18.7418667 18.21216,18.5684267 C18.0782933,18.4177067 17.9088,18.22176 17.7470933,18.0184533 C17.4340267,17.6250667 17.2286933,17.3109333 17.16896,16.87264 C17.1373867,16.6411733 17.1405867,16.4162133 17.2036267,16.2429867 C17.3755733,15.7701333 18.2276267,15.6544 18.17568,16.7499733 C18.78464,16.6472533 19.3905067,16.5085867 19.9994667,16.3870933 C20.4493867,16.2973867 20.6555733,15.9409067 20.4587733,15.4370133 C20.6394667,15.4244267 20.8184533,15.4087467 21.0055467,15.4084267 C21.4257067,15.4075733 21.4037333,15.4189867 21.7365333,15.6752 C21.97344,15.8577067 22.20256,15.98112 22.2312533,15.4917333 C22.23328,15.4568533 22.2349867,15.42176 22.2369067,15.3879467 C22.2525867,15.1210667 22.2677333,15.0990933 22.5125333,15.1666133 C22.7630933,15.2357333 23.04768,15.4474667 23.37408,15.8356267 C23.4917333,15.69408 23.56544,15.5547733 23.61472,15.37888 C23.6814933,15.14016 23.6142933,15.0731733 23.8891733,15.1829333 C24.0336,15.24064 24.18112,15.3429333 24.3303467,15.4698667 C24.6226133,15.7184 24.7387733,15.9729067 25.1390933,15.8280533 C25.3351467,15.75712 25.4784,15.59616 25.61088,15.41696 C25.6151467,15.93056 25.35264,16.3736533 24.9805867,16.7876267 C25.4456533,17.2775467 25.3530667,18.3207467 25.3121067,19.6023467 C25.3106133,19.6536533 25.3086933,19.70752 25.2970667,19.7458133 C25.29312,19.7586133 25.2843733,19.76768 25.2725333,19.7707733 C25.2608,19.7738667 25.2494933,19.77024 25.2408533,19.76064 C25.1486933,19.6581333 25.0427733,19.57024 24.9415467,19.48096 C24.4952533,19.0874667 24.6088533,19.0005333 24.46208,18.4772267 C24.3636267,18.12672 24.25088,18.0673067 24.088,17.9118933 C24.15072,18.3458133 24.224,18.7362133 24.1445333,18.9668267 C24.14112,18.9768533 24.13408,18.9838933 24.1248,18.98656 C24.1154133,18.98912 24.1064533,18.9867733 24.0990933,18.9796267 C23.86784,18.7550933 23.7082667,18.6429867 23.54464,18.58656 C23.8587733,18.80064 24.0663467,19.0861867 24.1138133,19.3172267 C24.28192,19.0206933 24.25184,18.6242133 24.24576,18.24 C24.24576,18.2373333 24.2471467,18.2349867 24.2493867,18.23392 C24.2516267,18.23296 24.2539733,18.2336 24.25568,18.23552 C24.35456,18.35616 24.3860267,18.5819733 24.4298667,18.8066133 C24.5191467,19.26368 24.76416,19.4592 24.94944,19.63904 C25.1917867,19.87424 25.0802133,19.82208 25.1162667,20.1194667 C25.14176,20.3284267 25.2231467,20.5210667 25.28064,20.72032 C25.3425067,20.9342933 25.3480533,20.9778133 25.1821867,20.8538667 C25.0106667,20.71072 24.8304,20.5714133 24.6628267,20.4251733 C24.42336,20.2161067 24.2238933,20.0020267 24.0887467,19.7069867 C24.0832,19.69504 24.0736,19.6875733 24.06176,19.6862933 C24.04992,19.6850133 24.0392533,19.6901333 24.03168,19.7005867 C23.9607467,19.8010667 23.8347733,20.0811733 23.8109867,20.1815467 C23.6583467,20.0874667 23.4184533,19.82688 23.2747733,19.6215467 C23.3368533,19.9121067 23.2778667,20.1205333 23.1984,20.3146667 C23.1933867,20.3269333 23.1841067,20.33472 23.1723733,20.33664 C23.16064,20.3386667 23.14976,20.3341867 23.1419733,20.3240533 C22.9681067,20.1013333 22.81504,19.94624 22.67968,19.8482133 C22.8878933,20.0900267 23.04704,20.3317333 23.1924267,20.5736533 C23.2676267,20.39808 23.3429333,20.2224 23.41824,20.0468267 C23.42272,20.03648 23.4299733,20.02944 23.4397867,20.0264533 C23.4496,20.02336 23.4589867,20.02496 23.46752,20.03136 C23.5909333,20.1227733 23.7072,20.2616533 23.8274133,20.3735467 C23.9024,20.2360533 23.9637333,20.0983467 24.0036267,19.9608533 C24.00768,19.9469867 24.0174933,19.9374933 24.0301867,19.9349333 C24.04288,19.9323733 24.0549333,19.9376 24.0628267,19.94912 C24.2554667,20.22688 24.51968,20.424 24.7630933,20.6311467 C24.9781333,20.8139733 24.90976,20.76032 24.9521067,21.048 C24.99104,21.3109333 25.06816,21.56032 25.208,21.7688533 C24.3380267,21.8048 24.2193067,21.3534933 23.9650133,21.2298667 C23.95904,21.2270933 23.9525333,21.2288 23.9483733,21.2343467 C23.94432,21.2398933 23.9438933,21.2474667 23.9473067,21.2535467 C24.1108267,21.5383467 24.5083733,21.7845333 24.9083733,21.8906667 C25.1115733,21.94464 25.1102933,21.8939733 25.2773333,22.05792 C25.40928,22.1872 25.58688,22.3816533 25.7374933,22.4781867 C25.5895467,22.5495467 25.0814933,22.56704 24.8906667,22.5101867 C24.9082667,22.7741867 24.90144,23.0337067 24.8437333,23.28352 C24.4635733,23.2341333 24.1623467,23.0952533 23.8827733,22.9316267 C23.8626133,22.9198933 23.83776,22.928 23.8263467,22.9502933 C23.68832,23.2193067 23.5136,23.4177067 23.2772267,23.4968533 C23.1281067,23.04416 22.96128,22.6690133 22.8567467,22.20096 C22.8533333,22.1857067 22.8445867,22.1741867 22.83168,22.1682133 C22.81888,22.1621333 22.80544,22.1632 22.7936,22.1713067 C22.53248,22.3470933 22.56032,22.8952533 22.4,23.13152 C22.2161067,22.9936 22.0805333,22.77536 21.99072,22.4808533 C21.8187733,22.76096 21.7936,23.1058133 21.52032,23.37152 C21.4340267,23.10496 21.3995733,22.6701867 21.2615467,22.57152 C21.1818667,23.2021333 20.9773867,23.5072 20.6594133,23.5156267 C20.5770667,23.2325333 20.52384,22.93632 20.5041067,22.62496 C20.2965333,22.78368 20.1197867,22.8932267 20.00416,22.9149867 C19.9873067,22.9181867 19.9714133,22.9104 19.9618133,22.8944 C19.9522133,22.8782933 19.9517867,22.8586667 19.96064,22.8421333 C20.0853333,22.6085333 20.04128,22.3429333 20.2360533,22.0516267 C19.96128,22.1922133 20.03808,22.7541333 19.6279467,23.05024 C19.9156267,23.1374933 20.1226667,22.90528 20.3538133,22.90272 C20.37056,22.90272 20.38496,22.9125333 20.39232,22.9294933 C20.5089067,23.1941333 20.54688,23.4858667 20.5288533,23.7969067 C20.704,23.6423467 20.8600533,23.58912 21.0011733,23.4573867 C21.1264,23.34048 21.2024533,23.1976533 21.25952,23.0448 C21.26688,23.02528 21.2836267,23.01376 21.3022933,23.0154667 C21.3208533,23.0170667 21.3358933,23.0315733 21.3402667,23.05216 C21.37056,23.1936 21.3410133,23.4433067 21.4309333,23.5982933 C21.6594133,23.4654933 21.8068267,23.08096 21.9723733,22.8232533 C21.9805867,22.8103467 21.99264,22.8034133 22.00672,22.8033067 C22.0206933,22.8032 22.0328533,22.8101333 22.0411733,22.8229333 C22.1818667,23.0386133 22.27552,23.2219733 22.3364267,23.3768533 C22.5860267,23.1111467 22.62848,22.64832 22.7261867,22.3994667 C22.73312,22.3818667 22.7473067,22.3712 22.7643733,22.3707733 C22.7812267,22.3703467 22.7959467,22.38048 22.8034133,22.3976533 C23.0029867,22.8528 23.1870933,23.3904 23.1572267,23.7288533 C23.4304,23.5714133 23.6843733,23.3729067 23.90464,23.1024 C23.9166933,23.0875733 23.9344,23.0827733 23.9511467,23.08992 C24.2782933,23.23072 24.63136,23.3352533 25.0059733,23.4088533 C24.96608,23.1572267 24.9501867,22.90144 24.9917867,22.63552 C25.3709867,22.66688 25.7147733,22.6605867 25.8926933,22.4781867 C25.70976,22.3445333 25.5304533,22.2081067 25.42976,22.0170667 C26.1492267,22.0626133 26.9938133,22.0798933 27.9077333,22.0813867 C28.32576,22.0821333 28.6983467,21.9944533 29.0849067,21.9464533 C29.46176,21.8997333 29.8512,21.91968 30.23168,21.9166933 C31.1650133,21.9092267 32.7178667,22.0194133 33.3275733,21.0712533 C33.6187733,20.61824 33.56288,19.95552 33.12128,19.6517333 C32.9189333,19.5124267 32.6443733,19.4405333 32.30144,19.41728 C31.6946133,19.3762133 31.2817067,19.4978133 30.70208,19.5787733 C29.9838933,19.6791467 29.24416,19.77664 28.5213867,19.66752 C28.0519467,19.59648 27.6388267,19.4488533 27.24928,19.2654933 C26.7422933,19.0269867 26.53568,19.1038933 26.4293333,19.69408 C26.3872,19.9285333 26.35616,19.85696 26.2094933,19.6496 C25.9608533,19.2977067 25.9803733,18.8650667 26.2811733,18.3476267 C25.3568,17.3383467 25.33344,15.912 26.75424,15.12256 C27.81984,14.5306667 28.9994667,14.5370667 30.1159467,14.94784 Z M27.5678933,27.4488533 C29.3930667,27.3688533 29.5294933,28.73952 30.5690667,29.3368533 C30.2679467,29.6709333 30.1605333,30.0069333 30.2302933,30.2658133 C30.3655467,30.7684267 30.7352533,30.5751467 30.9915733,30.65792 C31.0158933,30.6658133 31.03424,30.6834133 31.04512,30.7093333 C31.056,30.73536 31.0565333,30.76256 31.0466133,30.7890133 C30.9904,30.9384533 30.90272,31.088 30.8029867,31.2376533 C30.5800533,31.57216 30.36064,31.78816 30.3147733,32.23712 C30.27968,32.5802667 30.4279467,32.8762667 30.42848,33.2514133 C30.42944,33.8395733 30.1383467,33.9544533 29.4904533,33.4917333 C29.4834133,33.48672 29.47552,33.4853333 29.4673067,33.488 C29.4592,33.4907733 29.4532267,33.49664 29.4494933,33.50528 C29.28,33.91616 28.8250667,33.7995733 28.6448,33.5061333 C28.63968,33.49792 28.6321067,33.49312 28.6232533,33.4923733 C28.6142933,33.4917333 28.6065067,33.4954667 28.6005333,33.5028267 C28.3173333,33.85216 28.0193067,33.87648 27.7018667,33.4728533 C27.6919467,33.46016 27.6752,33.4583467 27.6632533,33.4686933 C27.5006933,33.6104533 27.3288533,33.73152 27.1210667,33.7707733 C27.1029333,33.7741867 27.0859733,33.7682133 27.0725333,33.7538133 C27.0592,33.73952 27.05312,33.7205333 27.0551467,33.69984 C27.0733867,33.5201067 27.1250133,33.3540267 27.22816,33.20896 C27.4926933,32.8370133 27.68512,32.9264 28.0549333,32.9054933 C28.2487467,32.8945067 28.4322133,32.8686933 28.5877333,32.8023467 C28.9972267,32.6274133 28.9525333,32.4021333 28.9538133,31.9874133 C28.95456,31.75776 28.95104,31.5328 28.93952,31.3169067 C28.9034667,30.6379733 28.8369067,30.30528 28.4852267,29.74624 C28.0546133,29.0616533 27.5258667,28.5892267 27.5678933,27.4488533 Z M14.4472533,27.0353067 C14.6938667,27.05408 14.8427733,27.1467733 14.9394133,27.27872 C14.9687467,27.31872 15.0090667,27.3389867 15.0549333,27.3367467 C15.24864,27.32736 15.5867733,27.30656 15.5842133,27.5565867 C15.5809067,27.8733867 15.22944,27.7243733 15.0328533,27.66656 C15.0058667,27.65856 14.9796267,27.66496 14.9578667,27.6849067 C14.9361067,27.7048533 14.9250133,27.73248 14.9261867,27.7640533 C14.9333333,27.96864 15.06144,28.15168 15.2136533,28.3303467 C15.2237867,28.3421867 15.22432,28.36064 15.21504,28.3733333 C14.9048533,28.7963733 14.92384,29.5013333 15.3140267,29.6872533 C15.37312,29.6882133 15.40096,29.6210133 15.4337067,29.5557333 C15.6058667,29.21248 16.0404267,29.59808 15.6914133,29.9495467 C15.5576533,30.0842667 15.3621333,30.1405867 15.1556267,30.1805867 C15.1371733,30.1842133 15.1227733,30.1963733 15.1143467,30.2152533 C15.1060267,30.2341333 15.1060267,30.2546133 15.1144533,30.2734933 C15.1912533,30.44512 15.3133867,30.5653333 15.4528,30.66592 C15.2679467,30.6765867 15.1112533,30.7109333 14.9691733,30.7579733 C14.9438933,30.7661867 14.92736,30.7918933 14.9281067,30.8216533 C14.9338667,31.0474667 14.87104,31.21408 14.73472,31.3168 C14.6974933,31.3448533 14.6477867,31.3357867 14.6202667,31.2958933 C14.5211733,31.1521067 14.4625067,30.99904 14.43936,30.8381867 C14.4336,30.7976533 14.40768,30.7671467 14.37216,30.7588267 L13.9239467,30.65536 L13.9239467,30.65536 C14.0621867,30.5713067 14.1665067,30.44864 14.2475733,30.29984 C14.2573867,30.2817067 14.25888,30.2612267 14.25184,30.2417067 C14.2449067,30.2219733 14.2312533,30.2084267 14.21312,30.2033067 C14.0669867,30.1614933 13.9365333,30.1121067 13.8336,30.0494933 C13.67328,29.952 13.4990933,29.72448 13.63296,29.5218133 C13.7166933,29.3949867 13.9000533,29.3716267 14.0215467,29.6542933 C14.02976,29.67328 14.0440533,29.6856533 14.0624,29.6893867 C14.0807467,29.6932267 14.0980267,29.6874667 14.11168,29.6730667 C14.4552533,29.3069867 14.4455467,28.7860267 14.1380267,28.35392 C14.2744533,28.2122667 14.38368,28.0600533 14.4311467,27.8832 C14.43904,27.85344 14.4347733,27.8241067 14.41888,27.79872 C14.40288,27.77344 14.3797333,27.75936 14.35232,27.7584 C14.2666667,27.7552 14.1828267,27.7509333 14.1083733,27.7415467 C13.9979733,27.7275733 13.9168,27.71264 13.8695467,27.65568 C13.7578667,27.5210667 13.8053333,27.1150933 14.14496,27.32096 C14.1787733,27.34144 14.2109867,27.36352 14.2485333,27.3805867 C14.51456,27.43872 14.3912533,27.1128533 14.4472533,27.0353067 Z M15.78208,24.66464 C15.82208,24.6443733 16.9002667,25.8660267 17.4372267,26.5265067 C17.7739733,26.94048 17.7736533,27.0898133 18.02496,27.5409067 C18.2693333,27.97952 18.57408,28.3869867 18.9419733,28.7620267 C18.9767467,28.7975467 18.97984,28.8583467 18.9488,28.8981333 C18.63136,29.3048533 18.05472,29.8321067 17.59552,29.48864 L17.59552,29.48864 L16.7898667,28.6788267 C16.68768,28.576 16.5767467,28.4253867 16.4279467,28.4535467 C16.3275733,28.47264 16.2440533,28.5681067 16.2167467,28.70496 C16.21248,28.7259733 16.20064,28.7419733 16.1829333,28.7501867 C16.1653333,28.7584 16.1469867,28.7566933 16.13088,28.7450667 C15.96832,28.6289067 15.9984,28.2917333 15.9984,28.09664 L15.9984,28.09664 L15.9984,27.6327467 C15.9984,27.1387733 15.9064533,27.2576 15.7386667,26.9893333 C15.7218133,26.96256 15.72544,26.9261867 15.7469867,26.9041067 C15.87936,26.76864 15.8964267,26.6029867 15.8232533,26.4157867 C15.8107733,26.3837867 15.80992,26.3512533 15.8206933,26.3184 C15.88096,26.1348267 15.88064,26.0072533 15.82752,25.9285333 C15.8212267,25.9191467 15.81184,25.9146667 15.8014933,25.91616 C15.7912533,25.9175467 15.78304,25.92448 15.77888,25.9352533 C15.7605333,25.9828267 15.75616,26.06496 15.7560533,26.1568 C15.7559467,26.18176 15.7505067,26.2033067 15.73888,26.22464 C15.6465067,26.3928533 15.5624533,26.5028267 15.48672,26.5576533 C15.31584,26.6816 15.2474667,26.54656 15.3634133,26.3592533 C15.4145067,26.2766933 15.5006933,26.1844267 15.6318933,26.0794667 C15.65728,26.0593067 15.6727467,26.0317867 15.6784,25.9972267 C15.6978133,25.8760533 15.7301333,25.84512 15.7853867,25.7722667 C15.8484267,25.6893867 15.8484267,25.6904533 15.85216,25.5818667 C15.85376,25.53824 15.8533333,25.4990933 15.85088,25.4663467 C15.8401067,25.3233067 15.7725867,25.3419733 15.7560533,25.4395733 C15.7463467,25.49696 15.75456,25.5778133 15.7525333,25.6565333 C15.6350933,25.86496 15.53472,25.9962667 15.4548267,26.0472533 C15.3146667,26.1368533 15.2762667,25.99008 15.3508267,25.8526933 C15.40864,25.74624 15.52032,25.64672 15.64928,25.54944 C15.66944,25.5344 15.6818133,25.5128533 15.6859733,25.48576 C15.7058133,25.3579733 15.75968,25.2301867 15.8405333,25.1024 C15.8682667,25.0584533 15.8781867,25.00928 15.8698667,24.9560533 C15.8363733,24.7403733 15.67776,24.9220267 15.5854933,24.98016 C15.5195733,25.0216533 15.4584533,25.05344 15.3952,25.0896 C15.34688,25.1172267 15.2929067,25.11264 15.2488533,25.07712 C15.14432,24.99296 15.05312,24.9088 15.0058667,24.82464 C15.2645333,24.8101333 15.5233067,24.7643733 15.78208,24.66464 Z M15.2261333,26.7607467 C15.2730667,26.8024533 15.2917333,26.8689067 15.2747733,26.9336533 C15.2578133,26.9984 15.2101333,27.04256 15.1508267,27.04832 C14.93472,27.0696533 14.7361067,27.0274133 14.54752,26.9381333 C14.4261333,26.8807467 14.23392,26.8098133 14.21888,26.6382933 C14.2132267,26.57216 14.23552,26.5115733 14.2939733,26.50848 C14.62208,26.4910933 14.97632,26.5389867 15.2261333,26.7607467 Z M14.4766933,25.9239467 C14.68736,25.9386667 14.87616,25.9912533 15.04288,26.0890667 C15.1441067,26.1485867 15.3138133,26.2434133 15.2730667,26.3988267 C15.21664,26.6141867 14.8824533,26.49088 14.7530667,26.4493867 C14.6149333,26.4052267 14.3303467,26.3569067 14.2279467,26.2965333 C14.0238933,26.1765333 14.0621867,25.89536 14.4766933,25.9239467 Z M14.1479467,25.3019733 C14.3109333,25.3136 14.4786133,25.3493333 14.6855467,25.43328 C14.7927467,25.4766933 15.32192,25.67552 15.2641067,25.86976 C15.2084267,26.05696 14.7393067,25.9026133 14.6222933,25.8733867 C14.4859733,25.8392533 14.2814933,25.76224 14.0779733,25.6765867 C13.9979733,25.64288 13.95264,25.54944 13.9703467,25.4549333 C13.9880533,25.3604267 14.0628267,25.296 14.1479467,25.3019733 Z M14.2817067,24.8581333 C14.46848,24.8621867 15.3828267,25.0120533 15.2797867,25.35072 C15.2173867,25.55584 14.8884267,25.4045867 14.7422933,25.3604267 C14.5581867,25.3048533 14.3774933,25.2366933 14.22688,25.1693867 C14.16224,25.1405867 14.1258667,25.0650667 14.1394133,24.98784 C14.1530667,24.9105067 14.21248,24.85664 14.2817067,24.8581333 Z M14.19936,23.50656 C14.2341333,23.6350933 14.2107733,23.7754667 14.1160533,23.82752 C14.09344,23.84 14.07808,23.86048 14.0712533,23.8878933 C14.06432,23.9154133 14.06752,23.9419733 14.08096,23.9661867 C14.3013333,24.3633067 15.40992,24.2426667 15.4558933,23.9492267 C15.4957867,23.8138667 15.256,23.76832 15.3460267,23.47296 C15.4065067,23.2746667 15.62368,23.2533333 15.8274133,23.3181867 C15.98624,23.3687467 16.1169067,23.4861867 16.1802667,23.6976 C16.2576,23.95552 16.15552,24.2407467 15.9248,24.4293333 C15.4026667,24.85632 14.2722133,24.8100267 13.7047467,24.4901333 C13.4253867,24.3325867 13.2053333,23.8850133 13.4082133,23.5515733 C13.6023467,23.2325333 14.1028267,23.1488 14.19936,23.50656 Z M16.2119467,13.3930667 C15.6228267,14.4898133 15.5442133,18.76576 15.47872,21.7466667 C15.4699733,22.1461333 15.45472,22.5266133 15.4314667,22.9184 C15.4189867,23.1277867 15.43648,23.1960533 15.3296,23.3768533 C15.2449067,23.5205333 15.1573333,23.6592 15.3536,23.88832 C15.3655467,23.9022933 15.3709867,23.9197867 15.3693867,23.9390933 C15.3677867,23.9585067 15.3597867,23.9746133 15.3457067,23.98592 C15.1666133,24.1300267 14.58528,24.1402667 14.3378133,24.0688 C14.23008,24.0378667 14.1874133,23.98048 14.2376533,23.8541867 C14.25504,23.8107733 14.2826667,23.78368 14.2951467,23.6890667 C14.30464,23.6170667 14.29728,23.5429333 14.2776533,23.4670933 C14.1989333,23.16192 14.16544,23.21856 14.1473067,22.8452267 C14.0669867,21.1962667 14.08864,19.6013867 14.21088,18.0597333 C14.2913067,17.0449067 14.37792,16.1344 14.7547733,15.1901867 C15.0891733,14.3522133 15.5703467,13.7460267 16.2119467,13.3930667 Z M11.13152,11.02848 C11.3005867,10.9493333 11.4964267,10.9312 11.6865067,10.9668267 C11.8779733,11.0026667 12.06304,11.0933333 12.2085333,11.2311467 C12.5268267,11.53248 12.56128,12.0808533 12.5917867,12.5684267 C12.59872,12.67936 12.60544,12.7872 12.6154667,12.89056 L12.6154667,12.89056 L12.6385767,13.07087 C12.6672667,13.25542 12.7112267,13.45296 12.7572267,13.66016 C12.8360533,14.0146133 12.9213867,14.3981867 12.9454933,14.7873067 C12.7527467,14.4289067 12.584,14.1899733 12.3765333,14.01504 C12.1387733,13.8144 11.8533333,13.7006933 11.4258133,13.5905067 C11.08128,13.5015467 10.67488,13.3693867 10.3917867,13.1403733 C10.11776,12.9185067 9.96010667,12.6018133 10.0955733,12.1376 C10.1362133,11.9981867 10.1841067,11.9079467 10.2258133,11.8293333 C10.31296,11.6651733 10.3757867,11.5467733 10.3154133,11.1800533 C10.4477867,11.2004267 10.5712,11.1984 10.6948267,11.1765333 C10.83616,11.1515733 10.97696,11.1006933 11.13152,11.02848 Z M37.0661333,11.02848 C37.2205867,11.1006933 37.3613867,11.1515733 37.50272,11.1765333 C37.6263467,11.1984 37.74976,11.2004267 37.8821333,11.1800533 C37.8218667,11.5467733 37.8845867,11.6651733 37.9717333,11.8293333 C38.0135467,11.9079467 38.06144,11.9981867 38.10208,12.1376 C38.23744,12.6018133 38.0798933,12.9185067 37.80576,13.1403733 C37.5227733,13.3693867 37.11616,13.5015467 36.7717333,13.5905067 C36.3442133,13.7006933 36.0586667,13.8144 35.8210133,14.01504 C35.6135467,14.1899733 35.4448,14.4289067 35.2520533,14.7873067 C35.27616,14.3981867 35.3614933,14.0146133 35.44032,13.66016 C35.4864,13.45296 35.53032,13.25542 35.558985,13.07087 L35.58208,12.89056 C35.592,12.7872 35.5988267,12.67936 35.60576,12.5684267 C35.6362667,12.0808533 35.6708267,11.53248 35.9890133,11.2311467 C36.1345067,11.0933333 36.31968,11.0026667 36.51104,10.9668267 C36.70112,10.9312 36.8970667,10.9493333 37.0661333,11.02848 Z" id="Combined-Shape" fill="#FDE51B" mask="url(#mask-2)"></path>
        </g>
        <rect id="Rectangle" stroke="#DDE2E3" stroke-width="3" opacity="0" fill-rule="nonzero" x="1.5" y="1.5" width="45" height="45"></rect>
    </g>
</svg>