<?xml version="1.0" encoding="UTF-8"?>
<svg width="48px" height="48px" viewBox="0 0 48 48" version="1.1" xmlns="http://www.w3.org/2000/svg" xmlns:xlink="http://www.w3.org/1999/xlink">
    <!-- Generator: Sketch 64 (93537) - https://sketch.com -->
    <title>Graphics / 01 Flags/LRD</title>
    <desc>Created with Sketch.</desc>
    <defs>
        <rect id="path-1" x="0" y="0" width="48" height="48"></rect>
    </defs>
    <g id="Graphics-/-01-Flags/LRD" stroke="none" stroke-width="1" fill="none" fill-rule="evenodd">
        <g id="Flag">
            <mask id="mask-2" fill="white">
                <use xlink:href="#path-1"></use>
            </mask>
            <g id="Mask" fill-rule="nonzero"></g>
            <g id="iStock-657672734" mask="url(#mask-2)">
                <g id="Group-4">
                    <path d="M0,8 L48,8 L48,4 L0,4 L0,8 Z M0,15 L48,15 L48,11 L0,11 L0,15 Z M0,23 L48,23 L48,19 L0,19 L0,23 Z M0,30 L48,30 L48,26 L0,26 L0,30 Z M0,38 L48,38 L48,34 L0,34 L0,38 Z M0,45 L48,45 L48,41 L0,41 L0,45 Z" id="Fill-1" fill="#FFFFFF"></path>
                    <path d="M0,4 L48,4 L48,0 L0,0 L0,4 Z M0,11.5 L48,11.5 L48,7.5 L0,7.5 L0,11.5 Z M0,19 L48,19 L48,15 L0,15 L0,19 Z M0,26.5 L48,26.5 L48,22.5 L0,22.5 L0,26.5 Z M0,34 L48,34 L48,30 L0,30 L0,34 Z M0,41.5 L48,41.5 L48,37.5 L0,37.5 L0,41.5 Z M0,48 L48,48 L48,44.5 L0,44.5 L0,48 Z" id="Fill-3" fill="#CC0000"></path>
                </g>
                <polygon id="Fill-5" fill="#000099" points="0 19 22 19 22 0 0 0"></polygon>
                <polyline id="Fill-6" fill="#FFFFFF" points="11.5 5 12.7925136 9.21018767 17 9.20173682 13.591329 11.7950941 14.8991989 16 11.5 13.3927592 8.10080109 16 9.40867103 11.7950941 6 9.20173682 10.2074864 9.21018767 11.5 5"></polyline>
            </g>
        </g>
        <rect id="Rectangle" stroke="#DDE2E3" stroke-width="3" opacity="0" fill-rule="nonzero" x="1.5" y="1.5" width="45" height="45"></rect>
    </g>
</svg>