<?xml version="1.0" encoding="UTF-8"?>
<svg width="48px" height="48px" viewBox="0 0 48 48" version="1.1" xmlns="http://www.w3.org/2000/svg" xmlns:xlink="http://www.w3.org/1999/xlink">
    <!-- Generator: Sketch 64 (93537) - https://sketch.com -->
    <title>Graphics / 01 Flags/LSL</title>
    <desc>Created with Sketch.</desc>
    <defs>
        <rect id="path-1" x="0" y="0" width="48" height="48" rx="5"></rect>
    </defs>
    <g id="Graphics-/-01-Flags/LSL" stroke="none" stroke-width="1" fill="none" fill-rule="evenodd">
        <g id="Flag">
            <mask id="mask-2" fill="white">
                <use xlink:href="#path-1"></use>
            </mask>
            <g id="Mask" fill-rule="nonzero"></g>
            <g id="iStock-472335249" mask="url(#mask-2)">
                <polygon id="Fill-1" fill="#FFFFFE" points="0 45 48 45 48 3 0 3"></polygon>
                <path d="M29.8196218,27.7307946 C29.5845975,27.8174651 29.3471241,27.8989123 29.1074107,27.9752576 L25.778482,23.3771962 C26.7458778,21.1705604 26.8326418,20.0102872 26.8328508,19.6632104 C26.8328508,19.6232156 26.8316562,19.5940623 26.8305212,19.5754466 C26.8291473,18.8313983 26.6934013,18.2397066 26.4697862,17.7751661 C26.2456335,17.3078317 25.9324171,16.9750887 25.6083291,16.7514278 C25.2159648,16.4816985 24.8171194,16.3632933 24.5127735,16.3113032 C24.4143614,16.1259668 24.2216588,16 23.9999552,16 C23.7782815,16 23.5855789,16.1259668 23.4871966,16.3113032 C23.1828806,16.3632933 22.7840053,16.4817289 22.3916709,16.7514278 C22.067553,16.9750887 21.7543665,17.3078317 21.5302138,17.7751661 C21.3066286,18.2397066 21.1708527,18.8313983 21.1694489,19.5754466 C21.1683438,19.5940623 21.167179,19.6232156 21.167179,19.6632104 C21.1673284,20.0104087 21.2542118,21.1712893 22.2224737,23.379322 L18.8945904,27.9758953 C18.6542199,27.8993678 18.4160595,27.817708 18.1803782,27.7307946 L17,30.2524688 C19.1408149,31.3758145 21.5089783,32 23.9999851,32 C26.4909919,32 28.8591552,31.3758145 31,30.2524688 L29.8196218,27.7307946 Z M24.4435117,29.9527055 L23.2560252,30.3945611 L22.7378009,29.5254874 C23.117621,29.554337 23.5340581,29.5700373 23.9999851,29.5700373 C24.0752502,29.5700373 24.1486636,29.5696729 24.2210316,29.5690352 L24.4435117,29.9527055 Z M28.0678559,29.3627145 L27.2451962,30.0260141 L26.7072895,29.3574 C27.1332841,29.27407 27.497872,29.1701808 27.8552021,29.0529904 L28.0678559,29.3627145 Z M22.2699923,29.9141684 L21.4634907,30.214205 L21.0402737,29.2719139 C21.3365554,29.3403635 21.6491745,29.3994295 21.9911529,29.4465607 L22.2699923,29.9141684 Z M20.5291578,29.5981582 L19.6867857,29.8175372 L19.3043672,28.7547759 C19.6421941,28.8678666 19.9646096,28.9754911 20.2934166,29.073337 L20.5291578,29.5981582 Z M18.9157961,29.4451638 L18.199732,29.6316238 L18.6142876,28.6072174 L18.9157961,29.4451638 Z M19.023915,29.7456256 L19.2431396,30.3549611 C18.8999068,30.2335495 18.5612734,30.0994441 18.2276877,29.9529181 L19.023915,29.7456256 Z M19.7948748,30.1179382 L20.6612899,29.8923641 L21.1030842,30.8759863 C20.7188139,30.7958449 20.3391133,30.6999729 19.9644005,30.5890686 L19.7948748,30.1179382 Z M21.5939203,30.5046454 L22.4353964,30.1915505 L23.0006315,31.1394597 C22.6028911,31.1114603 22.2089141,31.0667585 21.8191781,31.0061742 L21.5939203,30.5046454 Z M26.0212121,29.4652978 L26.329142,29.8480875 L25.3572363,30.3309096 L24.9059741,29.5525757 C25.3260251,29.5352659 25.6926738,29.5055052 26.0212121,29.4652978 Z M25.5167266,30.6059533 L26.5328058,30.1012054 L27.117574,30.8280047 C26.6780496,30.9269743 26.2324323,31.0054454 25.7814389,31.0624766 L25.5167266,30.6059533 Z M27.443484,30.272451 L28.247417,29.6242444 L28.7506181,30.3571476 C28.4248874,30.4722123 28.0950649,30.5758889 27.7613298,30.667479 L27.443484,30.272451 Z M29.1361727,29.8560743 L29.5904216,29.1130888 L29.9062365,29.8935485 C29.7158934,29.9793687 29.5237582,30.0609677 29.3301895,30.1386493 L29.1361727,29.8560743 Z M29.4435949,28.7502814 L28.9412002,29.572072 L28.4450776,28.8495243 C28.7273517,28.7494614 29.0229166,28.6438716 29.3568608,28.5359435 L29.4435949,28.7502814 Z M25.825911,18.0954886 C25.9948394,18.4467562 26.1135612,18.9263289 26.1137702,19.5885657 L26.1137702,19.6054807 L26.1149948,19.6185997 C26.1150247,19.6190856 26.1151143,19.6208469 26.1152935,19.623823 C26.1155921,19.6305647 26.1160105,19.643623 26.1160105,19.6632104 C26.1161297,19.8712621 26.0665503,20.8178655 25.2868694,22.698166 L24.787103,22.0078995 L24.787103,20.3654115 L25.5948291,20.3654115 L24.5823938,19.3360247 L24.5823938,17.0712644 C24.6686201,17.093919 24.7598044,17.123376 24.8524821,17.1621257 C25.2041972,17.3108382 25.5715627,17.5709712 25.825911,18.0954886 Z M21.8839895,19.6632104 C21.8839895,19.643623 21.8844079,19.6305647 21.8847065,19.623823 C21.8848857,19.6208469 21.8850052,19.6190856 21.8850351,19.6185997 L21.8862596,19.6054807 L21.8862596,19.5885657 C21.8864388,18.9263289 22.0051905,18.4467562 22.174089,18.0954886 C22.4284373,17.5709712 22.7958028,17.3108382 23.1475179,17.1621257 C23.2402255,17.123376 23.33135,17.0939493 23.4175465,17.0712644 L23.4175465,19.338606 L22.4076797,20.3654115 L23.2154059,20.3654115 L23.2154059,22.0078995 L22.7140267,22.7003525 C21.9335094,20.8185944 21.8838703,19.8713532 21.8839895,19.6632104 Z M23.7193835,31.1716195 L23.4214292,30.6719735 L24.6051824,30.2315149 L25.1260947,31.1299545 C24.7539206,31.1594723 24.3784611,31.1746867 23.9999851,31.1746867 C23.9062322,31.1746867 23.812778,31.1734416 23.7193835,31.1716195 L23.7193835,31.1716195 Z" id="Fill-2" fill="#1A1919"></path>
                <polygon id="Fill-3" fill="#27337C" points="0 14 48 14 48 0 0 0"></polygon>
                <polygon id="Fill-4" fill="#119046" points="0 48 48 48 48 34 0 34"></polygon>
            </g>
        </g>
        <rect id="Rectangle" stroke="#DDE2E3" stroke-width="3" opacity="0" fill-rule="nonzero" x="1.5" y="1.5" width="45" height="45" rx="5"></rect>
    </g>
</svg>