<?xml version="1.0" encoding="UTF-8"?>
<svg width="48px" height="48px" viewBox="0 0 48 48" version="1.1" xmlns="http://www.w3.org/2000/svg" xmlns:xlink="http://www.w3.org/1999/xlink">
    <!-- Generator: Sketch 64 (93537) - https://sketch.com -->
    <title>Graphics / 01 Flags/MWK</title>
    <desc>Created with Sketch.</desc>
    <defs>
        <rect id="path-1" x="0" y="0" width="48" height="48"></rect>
    </defs>
    <g id="Graphics-/-01-Flags/MWK" stroke="none" stroke-width="1" fill="none" fill-rule="evenodd">
        <g id="Flag">
            <mask id="mask-2" fill="white">
                <use xlink:href="#path-1"></use>
            </mask>
            <g id="Mask" fill-rule="nonzero"></g>
            <g id="iStock-490876366" mask="url(#mask-2)">
                <polygon id="Fill-1" fill="#D8232A" points="0 32 48 32 48 16 0 16"></polygon>
                <polygon id="Fill-2" fill="#1A1919" points="0 17 48 17 48 0 0 0"></polygon>
                <g id="Group" transform="translate(13.551596, 7.278477)" fill="#D8232A">
                    <path d="M10.4793895,3.99194573 C13.4782628,3.99194573 16.0262064,5.92039643 16.9519529,8.60467812 L4.00705152,8.60467812 C4.93268532,5.92039643 7.48074166,3.99194573 10.4793895,3.99194573" id="Fill-3"></path>
                    <path d="M10.4793895,3.14743869 C10.5758403,2.81008658 11.1915022,-0.0385894813 10.4793895,0.000396434174 C9.76738955,-0.0383641292 10.3830515,2.8099739 10.4793895,3.14743869" id="Fill-4"></path>
                    <path d="M11.1496994,3.17662179 C11.2749952,2.84895981 12.136629,0.0648471384 11.4239529,0.0416358708 C10.7180374,-0.0589838475 11.0831079,2.83205841 11.1496994,3.17662179" id="Fill-5"></path>
                    <path d="M11.8147135,3.26417108 C11.9681783,2.94867812 13.0692487,0.250311927 12.361305,0.165016152 C11.6667698,0.00321333558 11.7785445,2.91510066 11.8147135,3.26417108" id="Fill-6"></path>
                    <path d="M12.4695867,3.40952319 C12.6499811,3.10845277 13.9820374,0.516340096 13.2842346,0.369635871 C12.6063755,0.148002068 12.4639529,3.05853728 12.4695867,3.40952319" id="Fill-7"></path>
                    <path d="M13.1094741,3.61121334 C13.3153332,3.32704432 14.8682346,0.860903476 14.1857557,0.653917561 C13.5299811,0.374030237 13.1343755,3.26112883 13.1094741,3.61121334" id="Fill-8"></path>
                    <path d="M13.7291924,3.86788939 C13.9590515,3.60276263 15.720967,1.28129784 15.0592205,1.01572038 C14.4302628,0.679607702 13.7845163,3.52129784 13.7291924,3.86788939" id="Fill-9"></path>
                    <path d="M14.3242346,4.17763587 C14.5764036,3.93357953 16.5339248,1.77459362 15.8977557,1.45222742 C15.3005726,1.06259362 14.4095304,3.83712883 14.3242346,4.17763587" id="Fill-10"></path>
                    <path d="M14.8900938,4.53808658 C15.1624318,4.31690348 17.300798,2.33673446 16.6951642,1.96017108 C16.1340374,1.52005841 15.0046853,4.20636827 14.8900938,4.53808658" id="Fill-11"></path>
                    <path d="M15.4222628,4.9464246 C15.712967,4.74980488 18.0156149,2.96355136 17.445136,2.53572038 C16.9245726,2.04828376 15.5653614,4.6259739 15.4222628,4.9464246" id="Fill-12"></path>
                    <path d="M15.916798,5.39972038 C16.2235022,5.22912883 18.6730797,3.65031193 18.1421501,3.17436827 C17.6660938,2.64355136 16.0872769,5.09290348 15.916798,5.39972038" id="Fill-13"></path>
                    <path d="M16.3700938,5.89425559 C16.6904318,5.751157 19.2682346,4.39183305 18.780798,3.87138235 C18.3527417,3.30101615 16.5667135,5.60355136 16.3700938,5.89425559" id="Fill-14"></path>
                    <path d="M16.7784318,6.4264246 C17.1100374,6.31183305 19.7965726,5.18236827 19.3563473,4.62135418 C18.9796712,4.01583305 16.9996149,6.1539739 16.7784318,6.4264246" id="Fill-15"></path>
                    <path d="M17.1388825,6.99228376 C17.4791642,6.90698798 20.2539248,6.01594573 19.8641783,5.41876263 C19.5416994,4.78270629 17.3829388,6.74000207 17.1388825,6.99228376" id="Fill-16"></path>
                    <path d="M17.448629,7.58732601 C17.7951079,7.53188939 20.6370234,6.88614291 20.300798,6.25729784 C20.0348825,5.59555136 17.7138684,7.35735418 17.448629,7.58732601" id="Fill-17"></path>
                    <path d="M17.705305,8.20704432 C18.0553895,8.18214291 20.9427135,7.78653728 20.6624881,7.13064996 C20.4555022,6.44828376 17.9894741,8.00107249 17.705305,8.20704432" id="Fill-18"></path>
                    <path d="M20.1115022,8.60467812 C20.6418684,8.48017108 21.0335304,8.29707249 20.9468825,8.03228376 C20.8312769,7.48343869 19.2034459,8.19014291 18.3671642,8.60467812 L20.1115022,8.60467812" id="Fill-19"></path>
                    <path d="M9.80930504,3.17662179 C9.87578391,2.83217108 10.240967,-0.0592091996 9.53505152,0.0416358708 C8.82226279,0.0650724905 9.68389659,2.84884714 9.80930504,3.17662179" id="Fill-20"></path>
                    <path d="M9.14417828,3.26417108 C9.18045997,2.91521334 9.29212194,0.00298798347 8.59769941,0.165016152 C7.88975574,0.250537279 8.99071349,2.94867812 9.14417828,3.26417108" id="Fill-21"></path>
                    <path d="M8.48919236,3.40952319 C8.49493884,3.05864996 8.35240363,0.147776716 7.67476983,0.369635871 C6.97685434,0.516565448 8.308798,3.1083401 8.48919236,3.40952319" id="Fill-22"></path>
                    <path d="M7.84941772,3.61121334 C7.82451631,3.2612415 7.42891067,0.373804885 6.77313603,0.653917561 C6.09076983,0.861016152 7.64344589,3.32693165 7.84941772,3.61121334" id="Fill-23"></path>
                    <path d="M7.22969941,3.86788939 C7.17437546,3.52141052 6.52851631,0.679495026 5.89967124,1.01572038 C5.23792476,1.28152319 6.99972758,3.60276263 7.22969941,3.86788939" id="Fill-24"></path>
                    <path d="M6.63465715,4.17763587 C6.54936138,3.8372415 5.65831913,1.06248094 5.06113603,1.45222742 C4.42507969,1.77470629 6.38248814,3.93357953 6.63465715,4.17763587" id="Fill-25"></path>
                    <path d="M6.068798,4.53808658 C5.95420645,4.20648094 4.82474166,1.51983305 4.26384025,1.96017108 C3.65831913,2.33684714 5.79634729,4.31690348 6.068798,4.53808658" id="Fill-26"></path>
                    <path d="M5.53662898,4.9464246 C5.39353039,4.62608658 4.03420645,2.04817108 3.51386842,2.53572038 C2.94350222,2.96366404 5.24592476,4.74980488 5.53662898,4.9464246" id="Fill-27"></path>
                    <path d="M5.04209377,5.39972038 C4.8716149,5.09290348 3.292798,2.64332601 2.81685434,3.17436827 C2.28592476,3.65053728 4.73527687,5.22912883 5.04209377,5.39972038" id="Fill-28"></path>
                    <path d="M4.58891067,5.89425559 C4.39229096,5.60366404 2.60592476,3.30090348 2.17809377,3.87138235 C1.69076983,4.39194573 4.26834729,5.751157 4.58891067,5.89425559" id="Fill-29"></path>
                    <path d="M4.18045997,6.4264246 C3.95938955,6.15408658 1.97910786,4.01572038 1.60254448,4.62135418 C1.1624318,5.18248094 3.84874166,6.31183305 4.18045997,6.4264246" id="Fill-30"></path>
                    <path d="M3.82000927,6.99228376 C3.5760656,6.74011474 1.41696701,4.78259362 1.09460082,5.41876263 C0.705079689,6.01594573 3.4796149,6.90698798 3.82000927,6.99228376" id="Fill-31"></path>
                    <path d="M3.51026279,7.58732601 C3.2452487,7.35746686 0.923671238,5.59543869 0.658093773,6.25729784 C0.322093773,6.88625559 3.16367124,7.53188939 3.51026279,7.58732601" id="Fill-32"></path>
                    <path d="M3.25358673,8.20704432 C2.96953039,8.00107249 0.503276872,6.44828376 0.296290956,7.13064996 C0.0164036322,7.78653728 2.90350222,8.18214291 3.25358673,8.20704432" id="Fill-33"></path>
                    <path d="M2.5916149,8.60467812 C1.75533321,8.19014291 0.127389548,7.48343869 0.012009266,8.03228376 C-0.0745259452,8.29707249 0.317136027,8.48017108 0.847276872,8.60467812 L2.5916149,8.60467812" id="Fill-34"></path>
                </g>
                <polygon id="Fill-35" fill="#1D9A44" points="0 48 48 48 48 31 0 31"></polygon>
            </g>
        </g>
        <rect id="Rectangle" stroke="#DDE2E3" stroke-width="3" opacity="0" fill-rule="nonzero" x="1.5" y="1.5" width="45" height="45"></rect>
    </g>
</svg>