<?xml version="1.0" encoding="UTF-8"?>
<svg width="48px" height="48px" viewBox="0 0 48 48" version="1.1" xmlns="http://www.w3.org/2000/svg" xmlns:xlink="http://www.w3.org/1999/xlink">
    <!-- Generator: Sketch 64 (93537) - https://sketch.com -->
    <title>Graphics / 01 Flags/MXN</title>
    <desc>Created with Sketch.</desc>
    <defs>
        <rect id="path-1" x="0" y="0" width="48" height="48"></rect>
    </defs>
    <g id="Graphics-/-01-Flags/MXN" stroke="none" stroke-width="1" fill="none" fill-rule="evenodd">
        <g id="Flag">
            <mask id="mask-2" fill="white">
                <use xlink:href="#path-1"></use>
            </mask>
            <g id="Mask" fill-rule="nonzero"></g>
            <polygon id="Path" fill="#CE1126" fill-rule="nonzero" mask="url(#mask-2)" points="32 0 48 0 48 48 32 48"></polygon>
            <polygon id="Path" fill="#FFFFFF" fill-rule="nonzero" mask="url(#mask-2)" points="16 0 32 0 32 48 16 48"></polygon>
            <polygon id="Path" fill="#006847" fill-rule="nonzero" mask="url(#mask-2)" points="0 0 16 0 16 48 0 48"></polygon>
            <g id="Illustration" mask="url(#mask-2)">
                <g transform="translate(16.731079, 16.692727)">
                    <path d="M4.57042424,11.4040808 L5.02513131,11.8333737 L5.08351515,11.7124848 L5.13228283,11.4494141 L5.59042424,11.8471111 L5.60622222,11.6218182 L5.67284848,11.6774545 C5.67284848,11.6774545 5.73672727,11.7784242 5.81022222,11.8148283 C5.84868687,11.8340606 5.89470707,11.8017778 5.91531313,11.7976566 C5.97507071,11.7859798 6.14678788,11.7083636 6.46068687,11.6966869 C6.58569697,11.6918788 6.7649697,11.7763636 6.7649697,11.7763636 L6.7649697,11.7763636 L6.75615203,11.8577225 C6.76144554,11.8575201 6.76534797,11.8580811 6.76771717,11.8594747 C6.80206061,11.8800808 6.74848485,12.0140202 6.74848485,12.0140202 L6.51014141,12.0861414 L6.31987879,12.198101 L6.09733333,12.3423434 L5.83426263,12.3430303 C5.83426263,12.3430303 5.87066667,12.2406869 6.11656566,12.1204848 C6.28013402,12.0405282 6.49871185,11.9423365 6.63705218,11.8916124 L6.59187879,11.8848889 L6.51288889,11.847798 L6.36177778,11.8374949 L6.052,11.968 C6.052,11.968 5.9510303,12.0689697 5.91462626,12.0710303 C5.87822222,12.0717172 5.88715152,12.0408081 5.75527273,12.1149899 C5.62408081,12.1891717 5.58561616,12.3485253 5.49082828,12.4151515 C5.39535354,12.4817778 5.25248485,12.58 5.18723232,12.4852121 C5.1219798,12.3911111 5.38092929,12.2757172 5.29987879,12.1541414 C5.25317172,12.0840808 5.04230303,12.4082828 4.95163636,12.459798 C4.8609697,12.5126869 4.67345455,12.5394747 4.61369697,12.4185859 C4.55187879,12.2935758 4.88707071,12.1960404 4.77923232,12.0710303 C4.70092929,11.9810505 4.51135354,12.2173333 4.44816162,12.2516768 C4.38428283,12.2860202 4.13357576,12.3313535 4.09785859,12.224202 C4.06214141,12.1170505 4.4090101,12.0147071 4.25789899,11.9439596 C4.12258586,11.8807677 3.93232323,12.0250101 3.87806061,12.0339394 C3.82379798,12.0428687 3.81074747,11.9528889 3.80044444,11.9329697 C3.79014141,11.9130505 3.76678788,11.9611313 3.73244444,11.9748687 C3.69741414,11.9879192 3.58545455,11.9906667 3.57034343,11.9810505 C3.55591919,11.9714343 3.56828283,11.9508283 3.56828283,11.9508283 C3.56828283,11.9508283 3.59919192,11.9027475 3.65414141,11.8505455 C3.71046465,11.7997172 3.74343434,11.7818586 3.74343434,11.7818586 L3.74343434,11.7818586 L4.15349495,11.7502626 L4.04771717,11.5545051 L4.14319192,11.5229091 L4.46739394,11.748202 C4.47288889,11.7523232 4.59171717,11.7365253 4.59171717,11.7365253 L4.59171717,11.7365253 L4.57042424,11.4040808 Z M13.7133333,5.54715152 C13.7133333,5.54715152 13.7930101,5.6549899 13.8500202,5.83632323 C13.9070303,6.01765657 13.9248889,6.14060606 13.9248889,6.14060606 L14.0423434,5.88646465 C14.0416566,5.88852525 14.0389091,5.90363636 14.0560808,5.97575758 C14.0766869,6.06024242 14.2593939,6.1660202 14.2319192,6.51151515 C14.2044444,6.8570101 13.8630707,7.03353535 13.6851717,7.16266667 C13.5065859,7.29248485 13.4200404,7.45252525 13.4200404,7.45252525 L13.359596,7.65377778 L13.3307475,7.78290909 L13.3245657,7.82755556 C13.3362424,7.8639596 13.3520404,7.92577778 13.354101,8.01987879 C13.3589091,8.17648485 13.343798,8.40040404 13.343798,8.40040404 L13.584202,8.22868687 L13.7579798,8.16343434 L13.8101818,8.15450505 C13.8101818,8.15450505 13.6178586,8.34682828 13.5416162,8.55426263 C13.4660606,8.76238384 13.3245657,9.20335354 13.0614949,9.34622222 C12.7984242,9.48840404 12.6342626,9.42933333 12.5463434,9.50626263 C12.4591111,9.58319192 12.4556768,9.60448485 12.4556768,9.60448485 L12.3437172,9.75765657 L12.2544242,9.87236364 L12.172,9.93006061 L12.119798,9.97264646 C12.1177374,10.0152323 12.1129293,10.0708687 12.0985051,10.121697 C12.0696566,10.2233535 12.0353131,10.336 12.0353131,10.336 C12.0353131,10.336 12.0875152,10.3037172 12.1520808,10.2961616 C12.2152727,10.2879192 12.2743434,10.2886061 12.2743434,10.2886061 C12.2743434,10.2886061 12.2248889,10.3497374 12.2070303,10.4088081 C12.1898586,10.4685657 12.2187071,10.8243636 11.8793939,11.0379798 C11.5400808,11.251596 10.676,11.2179394 10.676,11.2179394 L10.5125253,11.2831919 L10.3579798,11.3985859 L10.2171717,11.5524444 L10.2068687,11.5936566 C10.2068687,11.5936566 10.100404,11.7241616 10.0241616,11.774303 L9.77276768,11.9405253 C9.77276768,11.9405253 9.92181818,11.9343434 9.9719596,11.952202 C10.0214141,11.9700606 10.2879192,12.0888889 10.2879192,12.0888889 L10.2461544,12.0892734 C10.1815527,12.0910757 10.0549726,12.0994863 9.96028283,12.1362828 C9.8270303,12.187798 9.22258586,12.5298586 8.9299798,12.5202424 C8.63806061,12.5106263 8.22044444,12.0827071 8.22044444,12.0827071 L8.03086869,11.9501414 L7.7169697,11.8890101 L7.32888889,11.8670303 L7.33438384,11.816202 L7.34125253,11.753697 C7.34125253,11.753697 7.47313131,11.7385859 7.68468687,11.7633131 C7.86670707,11.7852929 7.92646465,11.8457374 8.07894949,11.8629091 C8.1864319,11.8800557 8.29650047,11.8698992 8.3990303,11.8333737 C8.45466667,11.8079596 8.92448485,11.4102626 8.92448485,11.4102626 L9.45268687,11.2248081 L9.65393939,11.2550303 L9.74323232,11.2783838 L9.82565657,11.3024242 C9.82565657,11.3024242 9.79818182,11.345697 9.73911111,11.3999596 C9.68072727,11.4549091 9.60723232,11.4926869 9.60723232,11.4926869 L9.67179798,11.544202 L10.0056162,11.4906263 L10.1141414,11.5187879 C10.1141414,11.5187879 10.1230707,11.5208485 10.1457374,11.5352727 C10.1505455,11.5112323 10.1642828,11.4617778 10.1938182,11.4226263 C10.2350303,11.3690505 10.4225455,11.2165657 10.5029091,11.1629899 C10.5832727,11.1094141 10.6011313,11.1018586 10.6272323,11.073697 C10.6533333,11.0455354 10.7618586,10.7666667 10.7618586,10.7666667 L10.7762828,10.6244848 L11.1451313,10.2693737 L11.3937778,10.0049293 L11.502303,9.70408081 L11.4906263,9.64294949 C11.4906263,9.64294949 11.5799192,9.7349899 11.5634343,9.92181818 C11.5476364,10.1093333 11.5064242,10.1745859 11.5064242,10.1745859 C11.5064242,10.1745859 11.7578182,10.0008081 11.8924444,9.94105051 C11.959578,9.90893853 12.0338776,9.89474116 12.1081212,9.89983838 C12.1827669,9.85849688 12.2478373,9.80185287 12.2990707,9.73361616 C12.3725657,9.62715152 12.391798,9.59555556 12.391798,9.55228283 C12.391798,9.50969697 12.4034747,9.30157576 12.4034747,9.30157576 L12.3801212,8.66484848 L12.5964848,8.18541414 L12.9110707,7.90379798 L12.9708283,7.86808081 C12.9708283,7.86808081 12.946101,7.93470707 12.9412929,7.98072727 C12.9371717,8.02674747 12.9371717,8.10848485 12.9371717,8.10848485 L12.9706701,8.06425291 C13.0218949,7.99824943 13.1198788,7.87867821 13.1782626,7.85022222 L13.2290909,7.82618182 C13.2462626,7.7959596 13.275798,7.73482828 13.2936566,7.65034343 C13.3190707,7.52945455 13.3231919,7.36735354 13.3231919,7.36735354 L13.328,7.10359596 L13.2764848,6.89890909 L13.1301818,6.50533333 L13.1246869,5.98743434 L13.0147879,5.83975758 C13.0147879,5.83975758 13.1185051,5.83151515 13.2476364,6.01765657 C13.3760808,6.20311111 13.4145455,6.46412121 13.4145455,6.46412121 L13.7133333,5.54715152 Z M7.31927273,11.9206061 C7.31927273,11.9206061 7.53357576,11.9480808 7.82137374,12.0909495 C8.10917172,12.2331313 8.16480808,12.3739394 8.16480808,12.3739394 L8.16480808,12.3732525 L7.99309091,12.407596 L7.76779798,12.2235152 L7.31583838,12.0263838 Z M0.870983538,5.5437432 L0.901171717,5.54921212 C0.957494949,5.60416162 0.917656566,5.61583838 0.92040404,5.71818182 C0.922464646,5.81983838 0.721212121,5.98125253 0.747313131,6.05955556 C0.772727273,6.13854545 1.05709091,5.88440404 1.04678788,6.0410101 C1.03030303,6.29240404 0.739757576,6.29515152 0.66969697,6.47579798 C0.599636364,6.65575758 0.901171717,6.38719192 0.967111111,6.49228283 C1.03236364,6.59668687 0.719151515,6.79587879 0.686181818,6.88379798 C0.653212121,6.97171717 0.752121212,6.86250505 0.758989899,6.92844444 C0.765858586,6.99507071 0.704727273,7.00949495 0.681373737,7.15923232 C0.658020202,7.30828283 0.723959596,7.40581818 0.77959596,7.58921212 C0.824242424,7.73276768 0.813252525,7.91890909 0.806383838,7.99240404 C0.848282828,8.03224242 0.942383838,8.22250505 0.942383838,8.22250505 L0.942383838,8.22250505 L1.04060606,8.03842424 L1.10517172,8.05765657 L1.10036364,8.38391919 C1.10036364,8.3990303 1.19377778,8.53159596 1.19377778,8.53159596 L1.19377778,8.53159596 L1.43418182,8.18816162 L1.46509091,8.35163636 L1.49943434,8.86816162 L1.69862626,8.78642424 L1.65329293,9.01446465 L1.56331313,9.20678788 L1.65947475,9.42452525 C1.65947475,9.42452525 1.70961616,9.51587879 1.91567677,9.69377778 C2.04137374,9.80230303 2.13410101,9.86618182 2.18905051,9.89983838 C2.17668687,9.82290909 2.19385859,9.69309091 2.20416162,9.65943434 C2.21446465,9.62509091 2.23094949,9.63608081 2.23094949,9.63608081 L2.23094949,9.63608081 L2.43494949,10.048202 L2.5489697,9.93143434 L2.63826263,9.83183838 L2.67466667,10.2865455 L2.81753535,10.4939798 L2.94529293,10.1615354 L3.00917172,10.1656566 L3.04008081,10.2638788 L3.19531313,10.812 L3.31345455,10.7659798 L3.35466667,10.8394747 L3.42335354,11.0949899 C3.42335354,11.0949899 3.57721212,11.1945859 3.62254545,11.2172525 C3.66787879,11.2406061 3.70428283,11.2632727 3.80387879,11.3642424 C3.90347475,11.4652121 4.01268687,11.5263434 4.01268687,11.5263434 L4.01268687,11.5263434 L4.04977778,11.5826667 L3.98452525,11.6994343 C3.98452525,11.6994343 3.85470707,11.5661818 3.72832323,11.4507879 C3.60193939,11.3360808 3.3759596,11.2447273 3.23171717,11.2158788 C3.08816162,11.1877172 2.99955556,11.3443232 2.87591919,11.3147879 C2.75228283,11.2852525 2.91026263,11.2399192 2.85119192,11.1286465 C2.79280808,11.0166869 2.65131313,11.2234343 2.52286869,11.2296162 C2.39373737,11.2351111 2.14234343,11.0166869 2.14577778,10.8793131 C2.14921212,10.7412525 2.52149495,10.9363232 2.62177778,10.8195556 C2.72274747,10.7034747 2.2089697,10.7460606 2.1189899,10.6924848 C2.02832323,10.6389091 1.87034343,10.5145859 1.91842424,10.367596 C1.96650505,10.2206061 2.14577778,10.4610101 2.312,10.3971313 C2.47822222,10.3332525 1.89919192,10.1265051 1.9280404,10.0598788 C1.95070707,10.0083636 2.09494949,10.0234747 2.16363636,10.0303434 L2.16363636,10.0303434 C2.02521263,9.93418891 1.88705272,9.83268834 1.75288889,9.72606061 C1.62444444,9.61616162 1.41975758,9.39979798 1.36068687,9.35515152 C1.3029899,9.31050505 1.15050505,9.316 1.10379798,9.316 C1.05640404,9.316 0.837292929,9.29882828 0.863393939,9.17381818 C0.890181818,9.04880808 1.16767677,9.16214141 1.18828283,9.07628283 C1.20888889,8.98973737 0.842787879,9.03163636 0.749373737,8.99591919 C0.614781867,8.95180076 0.521526458,8.82900991 0.515151515,8.68751515 C0.500727273,8.49381818 0.864080808,8.75826263 0.919030303,8.6930101 C0.974666667,8.62775758 0.640848485,8.55082828 0.497979798,8.51511111 C0.354424242,8.47870707 0.315959596,8.36674747 0.331070707,8.28638384 C0.345494949,8.2060202 0.594141414,8.28981818 0.626424242,8.25616162 C0.658707071,8.22387879 0.489050505,8.09337374 0.51789899,8.04323232 C0.545373737,7.99652525 0.619555556,8.07139394 0.665575758,8.06658586 L0.665575758,8.06658586 L0.667636364,7.96905051 L0.672444444,7.93333333 L0.676565657,7.90173737 L0.681373737,7.81931313 L0.679313131,7.71216162 L0.66969697,7.55143434 C0.66969697,7.54387879 0.610626263,7.38040404 0.610626263,7.38040404 L0.610626263,7.38040404 L0.576282828,7.23066667 L0.476,7.13038384 L0.400444444,7.09054545 L0.296727273,6.94973737 L0.129131313,6.77939394 L9.23705556e-14,6.54654545 L0.243838384,6.60836364 L0.187515152,6.33567677 L0.125010101,6.05543434 L0.358545455,6.19280808 L0.416929293,5.96270707 L0.482868687,5.69139394 L0.672444444,5.76282828 C0.672444444,5.76282828 0.845535354,5.49426263 0.901171717,5.54921212 Z" id="Combined-Shape" fill="#9CA168" fill-rule="nonzero"></path>
                    <path d="M6.92569697,11.6073939 C6.92569697,11.6073939 6.91745455,11.6328081 6.9140202,11.7069899 C6.90989899,11.7804848 6.91882828,12.1685657 6.90028283,12.2221414 C6.88105051,12.2743434 6.61179798,12.3856162 6.45725253,12.5202424 C6.30270707,12.6548687 6.29721212,12.7537778 6.29721212,12.7537778 C6.29721212,12.7537778 6.24638384,12.757899 6.15090909,12.7936162 C6.05474747,12.8286465 6.01216162,12.8829091 6.01216162,12.8829091 C6.01216162,12.8829091 6.06917172,12.6425051 6.31850505,12.4213333 C6.56852525,12.1994747 6.68941414,12.1809293 6.71688889,12.1438384 C6.74436364,12.1067475 6.71688889,11.6822626 6.72307071,11.6479192 C6.72856566,11.6135758 6.75878788,11.6108283 6.77939394,11.6080808 C6.8,11.6046465 6.92569697,11.6080808 6.92569697,11.6080808 L6.92569697,11.6073939 Z M7.56242424,13.0250909 C7.56242424,13.0250909 7.60157576,12.9481616 7.6269899,12.9220606 C7.65240404,12.8966465 7.71284848,12.8533737 7.71284848,12.8533737 C7.71284848,12.8533737 7.72246465,12.8430707 7.58577778,12.784 C7.44909091,12.7242424 7.37971717,12.7441616 7.28149495,12.6747879 C7.1839596,12.606101 7.08642424,12.4872727 7.08642424,12.4872727 L6.95591919,12.6040404 C6.95591919,12.6040404 7.03422222,12.7139394 7.10840404,12.7860606 C7.18189899,12.8568081 7.34949495,12.8808485 7.42436364,12.9220606 C7.49785859,12.9632727 7.56242424,13.0250909 7.56242424,13.0250909 L7.56242424,13.0250909 Z" id="Shape" fill="#016848" fill-rule="nonzero"></path>
                    <path d="M7.33850505,11.6183838 C7.35911111,11.6417374 7.35567677,11.6664646 7.35705051,11.6747071 C7.35705051,11.6815758 7.36391919,12.0332525 7.33850505,12.1486465 L7.33052348,12.1723671 C7.37042953,12.22069 7.42890367,12.2853668 7.48824242,12.3292929 C7.59470707,12.407596 7.83030303,12.4838384 7.90585859,12.5490909 C7.98072727,12.6150303 8.15793939,12.8052929 8.15793939,12.8052929 C8.15793939,12.8052929 8.12222222,12.7695758 7.99721212,12.7675152 C7.87220202,12.7654545 7.86189899,12.784 7.86189899,12.784 C7.86189899,12.784 7.79321212,12.6974545 7.68193939,12.6260202 C7.5720404,12.5532121 7.48824242,12.564202 7.36941414,12.485899 C7.31774967,12.4518542 7.27673231,12.4110576 7.24687015,12.375816 C7.23525025,12.3992326 7.22337417,12.4155753 7.21349495,12.4254545 C7.17846465,12.4611717 6.95591919,12.6555556 6.85082828,12.757899 C6.74573737,12.8609293 6.63789899,13.0072323 6.63789899,13.0072323 C6.63789899,13.0072323 6.59943434,12.9639596 6.56577778,12.9220606 C6.53280808,12.8808485 6.49983838,12.8671111 6.50739394,12.8396364 C6.51494949,12.8121616 6.62622222,12.6452525 6.80412121,12.5284848 C6.98133333,12.4117172 7.12969697,12.2791515 7.16266667,12.0888889 C7.19632323,11.8993131 7.17022222,11.6046465 7.17022222,11.6046465 C7.17022222,11.6046465 7.31789899,11.5957172 7.33850505,11.6183838 Z" id="Combined-Shape" fill="#CD202A" fill-rule="nonzero"></path>
                    <path d="M6.10295509,11.0698625 L6.08794613,11.0895458 C6.03757576,11.1387969 5.94965657,11.1705455 5.87547475,11.1705455 C5.76420202,11.1705455 5.64537374,11.0874343 5.64537374,10.9631111 C5.64537374,10.838101 5.80129293,10.7137778 5.80129293,10.7137778 C5.80129293,10.7137778 5.6549899,10.5750303 5.64880808,10.3950707 C5.64331313,10.2151111 5.75458586,10.1120808 5.75458586,10.1120808 C5.75458586,10.0701818 5.64331313,10.0131717 5.64331313,9.90189899 C5.64331313,9.79131313 5.74290909,9.62715152 5.87341414,9.63539394 C5.95372494,9.64004351 6.00984496,9.67330584 6.04113391,9.7230155 L6.11380719,9.724 C6.13543531,9.72449455 6.15583806,9.72531879 6.17179539,9.72663758 L6.20311111,9.73224242 C6.20311111,9.73224242 6.27248485,9.72331313 6.36933333,9.72056566 C6.44626263,9.71781818 6.51571879,9.72386263 6.54569923,9.72990707 L6.56028283,9.73430303 C6.56028283,9.73430303 6.7649697,9.724 6.868,9.72262626 C6.97171717,9.72056566 7.12420202,9.72812121 7.12420202,9.72812121 L7.12031313,9.72809523 L7.11939394,9.71781818 L7.74444444,9.74941414 L8.00231313,9.85609523 C8.0401002,9.78370263 8.13582222,9.74941414 8.20121212,9.74941414 C8.28363636,9.74941414 8.42375758,9.86206061 8.42375758,9.99874747 C8.42375758,10.1354343 8.32416162,10.2274747 8.32416162,10.2274747 C8.32416162,10.2274747 8.3859798,10.2570101 8.3859798,10.4294141 C8.3859798,10.6011313 8.27470707,10.7261414 8.27470707,10.7261414 C8.27470707,10.7261414 8.41894949,10.7824646 8.41894949,10.9603636 C8.41894949,11.1389495 8.29668687,11.1966465 8.21151515,11.1966465 C8.15021732,11.1966465 8.05654415,11.1703193 8.00884656,11.1104955 C7.90582862,11.1491253 7.69921589,11.2203129 7.65858586,11.1822222 C7.65835103,11.1820021 7.65811535,11.1817789 7.65787882,11.1815527 L7.65789899,11.1829091 L7.37353535,11.2014545 L7.37353535,11.2014545 C7.37353535,11.2014545 7.27531313,11.2076364 7.18945455,11.2076364 C7.12021818,11.2076364 7.04482747,11.2093947 7.01744065,11.2100981 L7.00674747,11.2103838 L7.00674747,11.2103838 C7.00674747,11.2103838 6.65575758,11.2296162 6.45725253,11.193899 C6.25806061,11.1588687 6.18731313,11.162303 6.14129293,11.1073535 L6.10295509,11.0698625 L6.10295509,11.0698625 Z" id="Shape" fill="#F9AA51" fill-rule="nonzero"></path>
                    <path d="M2.4150303,6.95591919 C2.56751515,6.81305051 2.856,6.71826263 3.30109091,7.10565657 C3.61901299,7.38285714 3.66779468,7.74276232 3.66971711,7.9257938 L3.72155209,7.87614159 C3.83451963,7.7802551 3.99371873,7.7125843 4.20981818,7.72315152 C4.797414,7.75244515 5.20969232,8.21450883 5.3289659,8.36506116 C5.44917587,8.15614956 5.66094848,7.94721237 5.89264646,7.95119192 C6.04238384,7.95393939 6.33636364,8.03155556 6.5740202,8.1380202 C6.77321212,8.22731313 6.83777778,8.32553535 6.96965657,8.35781818 C7.10084848,8.39010101 7.29935354,8.36674747 7.29935354,8.36674747 L7.74787879,8.31591919 L7.49656568,8.68228419 C7.56358457,8.63975306 7.61462626,8.61745455 7.61462626,8.61745455 L7.61462626,8.61745455 L8.10917172,8.50068687 L8.39010101,8.39765657 L8.64080808,8.39765657 L8.9430303,8.52129293 L9.12161616,8.75963636 L9.19305051,8.98218182 L9.15944876,9.05839776 L9.36888889,9.07010101 C9.60688889,9.08332323 9.62086237,8.96191919 9.75223943,8.80436064 L9.81672727,8.73490909 C10.0124848,8.54464646 10.2233535,8.38460606 10.3428687,8.37292929 C10.4630707,8.36056566 10.7790303,8.60715152 10.8374141,8.70812121 C10.8964848,8.80909091 10.9253333,9.12711111 10.890303,9.20060606 C10.8669495,9.25051852 10.6277666,9.42528844 10.335771,9.54073326 L10.3446395,9.55577095 C10.3492652,9.56921831 10.351798,9.58524069 10.351798,9.60406063 C10.351798,9.67832309 10.3085253,9.73834343 10.2556364,9.73834343 C10.2020606,9.73834343 10.1587879,9.67832309 10.1587879,9.60406063 C10.0669598,9.6261042 9.97141408,9.64330687 9.87854545,9.64638384 C9.76435354,9.6499899 9.64157576,9.63191667 9.52164205,9.60277841 C9.48016162,9.64805859 9.43826263,9.68544415 9.40048485,9.68544415 C9.33668238,9.68544415 9.30128812,9.61000062 9.29182044,9.53384779 C9.09731481,9.4656119 8.93365786,9.38426339 8.86385714,9.34777182 L8.65179798,9.4190303 L8.5751563,9.42629925 C8.57278553,9.45524262 8.56501119,9.48773762 8.54189899,9.49705224 C8.49931313,9.51366146 8.44573737,9.50535685 8.432,9.42023462 L8.44044876,9.44939776 L8.22937374,9.51038384 C8.22937374,9.51038384 8.02235915,9.62152301 7.95335428,9.66135185 L7.93127273,9.67523232 C7.93127273,9.6800404 7.84472727,9.78513131 7.84472727,9.78513131 L7.84472727,9.78513131 L7.7760404,10.0749899 L7.66339394,10.2041212 L7.34262626,10.2233535 C7.34262626,10.2233535 7.24371717,10.2267879 7.19632323,10.2254141 C7.14892929,10.2240404 7.11183838,10.1848889 7.09535354,10.1416162 C7.09535354,10.1416162 7.08092929,9.77688889 7.09947475,9.4959596 C7.11450736,9.27691297 7.11737035,9.19550896 7.17136888,9.06904824 C7.10650399,9.13703615 6.99910896,9.22185585 6.84052525,9.28371717 C6.74407443,9.32154918 6.62749321,9.33950242 6.50505995,9.34448762 C6.51753981,9.3635162 6.52525253,9.39410348 6.52525253,9.43552841 C6.52525253,9.529676 6.49090909,9.58311111 6.43939394,9.58311111 C6.38719192,9.58311111 6.33773737,9.529676 6.33773737,9.43552841 C6.33773737,9.39485666 6.34606948,9.36463205 6.35968798,9.34341857 C6.21653981,9.3401415 6.07244985,9.32184108 5.94975604,9.3004636 L5.95446465,9.25995589 C5.95446465,9.35155895 5.91256566,9.4253503 5.86105051,9.4253503 C5.80945082,9.4253503 5.76791777,9.353252 5.76696618,9.26311957 C5.75625413,9.26084179 5.74805235,9.25886854 5.74016162,9.25692929 C5.50478658,9.1995858 5.2279851,8.97977297 5.21702601,8.69802868 C5.11981289,8.78399923 4.95594167,8.86923798 4.68312708,8.88299695 C4.68169697,8.9263676 4.65147475,8.9669899 4.61438384,8.9669899 C4.57888254,8.9669899 4.5496738,8.9297749 4.5472354,8.88338623 L4.47082828,8.87983838 C3.72214141,8.82488889 3.51127273,8.49793939 3.49066667,8.34820202 C3.48802279,8.32814504 3.48885183,8.30191668 3.49359226,8.27157279 C3.28935452,8.27978019 2.920934,8.24777276 2.60254545,7.97248485 C2.13066667,7.56517172 2.26323232,7.09810101 2.4150303,6.95591919 Z" id="Combined-Shape" fill="#8CBEBF" fill-rule="nonzero"></path>
                    <path d="" id="Combined-Shape" fill="#FCCA3E" fill-rule="nonzero"></path>
                    <path d="M3.95018182,2.82783838 C3.95018182,2.82783838 3.60468687,2.85737374 3.3649697,2.81616162 C3.12456566,2.77494949 3.17745455,2.16294949 3.1719596,2.14509091 C3.16577778,2.12723232 3.02565657,1.97886869 3.04832323,1.84286869 C3.07236364,1.70549495 3.51539394,1.34557576 3.57583838,1.32634343 C3.61705051,1.31260606 3.70428283,1.34969697 3.70428283,1.34969697 C3.70428283,1.34969697 3.81624242,1.24117172 3.84989899,1.24117172 C3.88424242,1.24117172 3.93094949,1.30367677 3.91858586,1.33046465 C3.90484848,1.35725253 3.75236364,1.44585859 3.74068687,1.51454545 C3.7290101,1.58323232 3.74274747,1.65123232 3.69810101,1.71785859 C3.65482828,1.78448485 3.56965657,1.87515152 3.55935354,1.93147475 C3.54905051,1.98779798 3.5250101,2.03725253 3.56622222,2.05785859 C3.60949495,2.07846465 3.75442424,2.06060606 3.87874747,2.00428283 C4.00238384,1.9479596 4.05389899,1.87240404 4.07107071,1.87927273 C4.08892929,1.88682828 3.99963636,2.03519192 3.86226263,2.09357576 C3.72488889,2.15127273 3.63422222,2.21789899 3.56553535,2.20759596 C3.56553535,2.20759596 3.48929293,2.39030303 3.72488889,2.39991919 C3.96048485,2.41090909 4.09030303,2.34840404 4.09030303,2.34840404 L3.95018182,2.82783838 L3.95018182,2.82783838 Z M2.78250505,4.54088889 C2.78250505,4.74214141 2.58331313,4.91179798 2.58949495,5.26759596 C2.59567677,5.62408081 2.65131313,5.62751515 3.12181818,6.00941414 C3.18838676,6.07194902 3.23700495,6.1511611 3.26262626,6.23882828 C3.28872727,6.35422222 3.56817679,7.03761941 3.82723232,7.03353535 C4.9066625,7.05431252 4.65765657,5.70719192 4.65765657,5.70719192 L4.18374686,5.72985859 C4.18374686,5.72985859 4.30961513,6.59314252 4.04428283,6.64383077 C3.77895053,6.69451903 3.73144078,6.39064797 3.69535354,6.29789899 C3.64589899,6.188 3.63216162,5.9269899 3.55523232,5.81090909 C3.3649697,5.52585859 3.02565657,5.47846465 3.02222222,5.1789899 C3.01947475,4.87882828 3.23034343,4.84654545 3.1719596,4.49006061 C3.11357576,4.13426263 2.68909091,3.96117172 2.68909091,3.96117172 L2.51668687,3.89248485 L2.45624242,4.24965657 L2.60117172,4.26751515 C2.60117172,4.26751515 2.78250505,4.33894949 2.78250505,4.54088889 Z" id="Shape" fill="#A8AC71" fill-rule="nonzero"></path>
                    <path d="M4.12808081,5.72985859 C4.12808081,5.72985859 4.05733333,5.67216162 4.05046465,5.66735354 C3.99620202,5.63094949 3.75785859,5.43862626 3.79632323,4.86646465 C3.83959596,4.21943434 4.77991919,3.87874747 4.84173737,3.62185859 C4.91042424,3.33680808 5.12335354,3.21248485 4.37329293,2.62589899 L4.19814141,2.8319596 L4.50517172,3.06274747 C4.50517172,3.06274747 4.57317172,3.0249697 4.57729293,3.11220202 C4.58141414,3.19874747 4.49486869,3.27361616 4.47426263,3.34161616 C4.45434343,3.40343434 3.98727273,3.7290101 3.95224242,3.76060606 C3.91721212,3.79220202 3.68436364,3.97353535 3.68436364,3.97353535 C3.68436364,3.97353535 3.56210101,4.09305051 3.44945455,4.34444444 C3.33612121,4.59583838 3.39450505,4.9179798 3.39450505,4.9179798 C3.39450505,4.9179798 3.39793939,5.60484848 4.12808081,5.72985859 L4.12808081,5.72985859 Z" id="Path" fill="#A8AC71" fill-rule="nonzero"></path>
                    <path d="M4.25583838,5.22432323 L4.05527273,5.12335354 C3.95355925,5.0342878 3.89830555,4.90378275 3.88951163,4.73183838 C3.87632074,4.47392184 4.01612121,4.35783838 4.01612121,4.35783838 C4.01612121,4.35783838 3.62735354,4.556 3.83890909,5.35276768 C3.92820202,5.69139394 4.15830303,5.74084848 4.15830303,5.74084848 L4.54088889,5.71749495 C4.61873401,5.71860706 4.65765657,5.71916312 4.65765657,5.71916312 C4.65765657,5.71916312 4.59988455,5.35276768 4.25583838,5.22432323 Z" id="Path" fill="#A8AC71" fill-rule="nonzero"></path>
                    <path d="M8.45810101,7.47450505 L8.45878788,7.76161616 L8.45875526,7.76738711 L8.62088889,8.01840426 C8.63505365,8.0401218 8.64739273,8.06167708 8.65790612,8.08171062 C8.67835118,8.03086911 8.6977037,7.98726308 8.70331313,7.98129831 C8.71636364,7.96801869 8.76375758,7.9852822 8.80153535,8.06761585 C8.82986869,8.13036206 8.85511111,8.1781687 8.86596149,8.19815038 L8.87159596,8.20837983 L8.87159596,8.21796633 C8.89168687,8.21102189 8.92105051,8.23636911 8.94954482,8.2861955 L8.96179538,8.31222459 C8.99837571,8.26980212 9.02957576,8.21220202 9.02957576,8.21220202 C9.02957576,8.21220202 9.12367677,8.17030303 9.24044444,8.20052525 C9.35721212,8.23006061 9.32492929,8.36949495 9.32492929,8.36949495 C9.35789899,8.37155556 9.36614141,8.39718434 9.36820202,8.40986995 L9.36888889,8.41688889 L9.18755556,8.64149495 C9.18755556,8.64149495 9.19648485,8.59478788 9.13191919,8.63050505 C9.10968937,8.64293463 9.07988994,8.64604776 9.05048147,8.64482342 L9.07147475,8.75500337 L8.97187879,9.02537374 L8.82763636,8.93092929 L8.74658586,8.67722559 L8.75757576,8.57722559 C8.75757576,8.57722559 8.75937003,8.57004494 8.76252201,8.55771366 L8.69919192,8.53638648 L8.63875526,8.47338711 L8.62981818,8.49703674 L8.42513131,8.50558375 L8.42475526,8.37538711 L8.41875526,8.37538711 L8.40109091,8.40246465 C8.3896431,8.4152862 8.37483726,8.42536027 8.35484175,8.42983764 L8.35275526,8.42938711 L8.13252525,8.84574411 L8.04175526,8.82638711 L7.94844444,8.9772699 L7.74513131,8.87634478 L7.7318563,8.77912588 C7.66139201,8.76935487 7.60719619,8.7252445 7.58440404,8.70468687 C7.54937374,8.67309091 7.50610101,8.57830303 7.50610101,8.5109899 C7.50610101,8.48464998 7.50967688,8.46504111 7.51707555,8.44685436 C7.44130412,8.46142241 7.39123295,8.44517929 7.35018182,8.41620202 C7.30347475,8.38323232 7.29385859,8.20945455 7.30347475,8.14969697 C7.31240404,8.08993939 7.40444444,8.01919192 7.4909899,8.00957576 C7.57753535,8.00064646 7.60775758,8.04529293 7.60775758,8.04529293 C7.60775758,8.04529293 7.60775758,8.11466667 7.62218182,8.15038384 C7.63591919,8.18541414 7.65652525,8.23280808 7.73208081,8.22113131 C7.78627148,8.21267956 7.83542424,8.17148139 7.85844156,8.14936902 L7.80832323,8.11466667 L7.82824242,8.02468687 C7.82824242,8.02468687 7.91066667,7.99034343 7.96767677,7.95874747 C8.01328485,7.93347071 8.10109414,7.87742222 8.13439354,7.8560139 L8.13635073,7.81688365 C8.13691358,7.80626263 8.13733333,7.80008081 8.13733333,7.80008081 L8.45810101,7.47450505 Z M6.15711475,6.3478199 C6.16942212,6.39509596 6.14173962,6.45261536 6.09303862,6.51245306 L6.01892109,6.50052525 C6.22495254,6.50670707 6.38619455,6.732 6.38619455,6.732 L6.15955995,6.90234343 L5.61492028,6.92226263 L5.46775526,6.74238711 L5.44618182,6.74573737 C5.38518788,6.74573737 5.34573414,6.67364364 5.3323924,6.64480614 L5.32735354,6.63309091 L5.3322137,6.58769088 C5.33196491,6.58771473 5.33171859,6.58773697 5.33147475,6.58775758 C5.30452036,6.59006795 5.26115996,6.55201092 5.2355204,6.51485333 C5.18820082,6.54350794 5.11224117,6.56577778 5.06222222,6.56577778 C4.97842424,6.56577778 4.97842424,6.35628283 4.97842424,6.35628283 C4.97842424,6.35628283 5.20560606,6.39572412 5.27160448,6.43733467 L5.22432323,6.4490101 C5.26553535,6.43183838 5.31636364,6.43321212 5.35276768,6.4139798 C5.38985859,6.39337374 5.40016162,6.34460606 5.42145455,6.34254545 C5.44274747,6.34048485 5.50387879,6.35628283 5.5189899,6.39406061 L5.5254719,6.41203434 C5.64746398,6.31735497 5.84626776,6.19190575 5.90218132,6.18076902 C5.98418788,6.16333763 6.10541497,6.15462193 6.15711475,6.3478199 Z M2.16020202,3.72763636 C2.23919192,3.73313131 2.2769697,3.82517172 2.2769697,3.82517172 C2.2944001,3.80083907 2.32010505,3.77628283 2.36145455,3.78670707 C2.44387879,3.80731313 2.45761616,3.87325253 2.45761616,3.87325253 C2.45761616,3.87325253 2.45155496,3.90258093 2.4424841,3.94497618 C2.47272727,3.93507071 2.50775758,3.80181818 2.56957576,3.82242424 C2.63139394,3.8430303 2.68909091,3.92064646 2.67741414,3.95636364 C2.67741414,3.95636364 2.54622222,3.99757576 2.52836364,4.08686869 C2.51119192,4.17616162 2.59292929,4.27369697 2.59292929,4.27369697 C2.59292929,4.27369697 2.55515152,4.35680808 2.46105051,4.33894949 C2.40126545,4.32752 2.39184052,4.26741844 2.38884142,4.21932453 L2.38675526,4.18691058 L2.38256925,4.20415101 C2.37788332,4.2214529 2.37372006,4.23533045 2.37038384,4.24416162 C2.37038384,4.24416162 2.23850505,4.31284848 2.1979798,4.24690909 L2.18323896,4.20681218 C2.14372319,4.21814015 2.03664961,4.2428642 2.01046465,4.18715152 C1.97886869,4.11915152 1.99329293,4.06557576 1.98985859,4.05115152 C1.98711111,4.0360404 1.89644444,4.03054545 1.90537374,3.94125253 C1.91430303,3.8519596 2.02832323,3.85814141 2.05167677,3.85814141 C2.0750303,3.85814141 2.08121212,3.72076768 2.16020202,3.72763636 Z M4.37947475,2.04412121 C4.40626263,2.03450505 4.52921212,2.08533333 4.52921212,2.08533333 L4.52921212,2.08533333 L4.69337374,2.15745455 C4.69337374,2.15745455 4.85684848,2.22408081 4.9310303,2.23987879 C5.00521212,2.25567677 5.04642424,2.21858586 5.04642424,2.21858586 L5.04642424,2.21858586 L5.19272727,2.18836364 C5.19272727,2.18836364 5.39535354,2.1869899 5.44480808,2.21240404 C5.49288889,2.23781818 5.50662626,2.27147475 5.50662626,2.27147475 L5.50662626,2.27147475 L5.57119192,2.35870707 C5.61542172,2.45436688 5.23759567,2.61164067 5.04495404,2.68462933 L5.11767172,2.72892929 L5.01592929,2.76380808 L5.03680808,2.79212121 L5.11373737,2.92262626 L5.14121212,3.11975758 L5.10686869,3.27636364 L5.09519192,3.29765657 C5.02454432,3.22680544 4.93817813,3.17362081 4.84311111,3.14242424 C4.72588552,2.90247811 4.43607782,2.68044145 4.37312333,2.63406227 L4.36092929,2.62521212 L4.4234599,2.54963631 C4.36884323,2.59357298 4.33047595,2.6534839 4.30666667,2.72686869 C4.25721212,2.88141414 4.50585859,3.06549495 4.50585859,3.06549495 C4.33688889,3.25232323 3.87668687,2.88416162 3.91789899,2.63482828 C3.92470163,2.5936723 3.93730578,2.55551064 3.95361084,2.52047614 C3.97236258,2.47527199 4.00340822,2.42329641 4.05252525,2.37107071 C4.15426768,2.26288889 4.2028851,2.24163889 4.22705295,2.24292677 L4.24507927,2.23964251 C4.26941091,2.23430141 4.29512727,2.22737778 4.27163636,2.22614141 C4.23317172,2.22408081 4.25034343,2.1650101 4.25034343,2.1650101 C4.25034343,2.1650101 4.352,2.05373737 4.37947475,2.04412121 Z" id="Combined-Shape" fill="#F9C83A" fill-rule="nonzero"></path>
                    <path d="M3.3649697,2.81616162 C3.12456566,2.77494949 3.17745455,2.16294949 3.1719596,2.14509091 C3.16577778,2.12723232 3.02565657,1.97886869 3.04832323,1.84286869 C3.07236364,1.70549495 3.51539394,1.34557576 3.57583838,1.32634343 C3.61705051,1.31260606 3.70428283,1.34969697 3.70428283,1.34969697 C3.70428283,1.34969697 3.81624242,1.24117172 3.84989899,1.24117172 C3.88424242,1.24117172 3.93094949,1.30367677 3.91858586,1.33046465 C3.90484848,1.35725253 3.75236364,1.44585859 3.74068687,1.51454545 C3.7290101,1.58323232 3.74274747,1.65123232 3.69810101,1.71785859 C3.65482828,1.78448485 3.56965657,1.87515152 3.55935354,1.93147475 C3.54905051,1.98779798 3.5250101,2.03725253 3.56622222,2.05785859 C3.60949495,2.07846465 3.75442424,2.06060606 3.87874747,2.00428283 C4.00238384,1.9479596 4.05389899,1.87240404 4.07107071,1.87927273 C4.08892929,1.88682828 3.99963636,2.03519192 3.86226263,2.09357576 C3.72488889,2.15127273 3.63422222,2.21789899 3.56553535,2.20759596 C3.56553535,2.20759596 3.48929293,2.39030303 3.72488889,2.39991919 C3.96048485,2.41090909 4.09030303,2.34840404 4.09030303,2.34840404 L3.95018182,2.82783838 C3.95018182,2.82783838 3.60468687,2.85737374 3.3649697,2.81616162 Z" id="Path" fill="none"></path>
                    <path d="M7.3000404,2.88657986e-13 L7.56654545,0.00412121212 L8.16,0.0844848485 L8.75688889,0.23559596 L9.00416162,0.322828283 L9.42589899,0.523393939 L9.81878788,0.798141414 L10.0193535,0.857212121 L10.2185455,0.829050505 L10.2947879,0.824929293 L10.3105859,0.83179798 L10.2123636,0.991151515 L10.1828283,1.08113131 C10.2422386,1.11651164 10.2995717,1.15526883 10.3545455,1.19721212 C10.4375802,1.26070932 10.7382422,1.51632623 10.8040308,1.57234607 L10.8168081,1.58323232 L11.4109495,2.30719192 L11.7530101,2.93773737 L11.9480808,3.37252525 L12.2379394,3.82173737 L12.3663838,3.92064646 L12.3457778,3.96872727 L12.1699394,4.00787879 L12.1186233,4.46644431 C12.1644591,4.79960562 12.1506597,5.39066388 12.1246061,5.4860202 C12.0916364,5.61171717 12.0147071,5.70307071 12.0147071,5.70307071 L12.0139223,5.653595 C12.0131115,5.60648985 12.011634,5.5293896 12.0093139,5.43829555 L11.884202,6.5520404 L11.8498586,6.3020202 L11.8072727,5.33078788 L11.7591919,4.99078788 C11.7292337,4.96309781 11.7029213,4.93170758 11.6808889,4.89737374 C11.660798,4.86131313 11.6094116,4.81443434 11.5849741,4.79324874 L11.5716768,4.7819798 L11.5393939,4.82662626 L11.6087677,6.36727273 L11.5648081,6.58569697 L11.4858182,6.40230303 L11.3395152,6.06161616 L11.3003636,5.74359596 L11.2708283,5.4509899 L11.2502222,5.29575758 L11.2090101,5.07115152 C11.2090101,5.07115152 11.1616162,4.96468687 11.1135354,4.896 C11.0750707,4.8416 11.0568275,4.83643475 11.0510688,4.83654465 L11.0489697,4.83692929 L11.0304242,4.89737374 L11.1698586,6.33773737 L11.1691882,6.40464388 C11.1686277,6.43880048 11.1678914,6.47766077 11.1674628,6.49977244 L11.1671111,6.51769697 L11.0929293,6.39612121 L10.9789091,6.17907071 L10.869697,5.83494949 L10.8113131,5.49769697 L10.7680404,5.12953535 C10.7680404,5.12953535 10.7151515,4.98391919 10.6567677,4.91935354 C10.6100606,4.86825051 10.5699475,4.85846949 10.5557705,4.85660121 L10.550303,4.85616162 L10.5873939,5.26278788 L10.6732525,5.63850505 L10.6911111,5.76008081 L10.5915152,5.81709091 L10.5338182,5.64949495 L10.4939798,5.49151515 L10.4362828,5.31155556 L10.3566061,5.11785859 C10.3566061,5.11785859 10.2309091,4.93034343 10.1938182,4.91660606 C10.1641455,4.90616566 10.0694125,4.84033616 10.0327063,4.81442198 L10.0179798,4.8039596 L10.1230707,4.9880404 L10.2947879,5.53547475 L10.3497374,5.76076768 L10.3140202,5.83975758 L10.2013737,5.64743434 L10.1079596,5.44549495 L10.0626263,5.29987879 L10.0433939,5.20577778 L9.99737374,5.09862626 L9.91014141,4.99490909 L9.74117172,4.85410101 L9.63127273,4.78610101 L9.45337374,4.78472727 L9.47329293,4.84173737 L9.60242424,5.05466667 L9.70682828,5.35894949 C9.70682828,5.35894949 9.74391919,5.59729293 9.72674747,5.57806061 C9.70888889,5.55814141 9.36682828,5.04917172 9.27341414,4.97361616 C9.17931313,4.89806061 9.12436364,4.91385859 9.01927273,4.87058586 C8.9352,4.83541818 8.83837899,4.6916703 8.78296792,4.61553228 L8.7500202,4.57385859 L8.66072727,4.5340202 L8.54739394,4.7359596 L8.35030044,4.77258985 C8.37639162,4.90606513 8.36424531,4.96010101 8.33583838,4.964 C8.30149495,4.96812121 8.28775758,4.93858586 8.27882828,4.88569697 C8.27710282,4.87433764 8.2694174,4.83844621 8.25834296,4.78879157 L8.21151515,4.7950303 L8.16800102,4.71905105 C8.2060732,4.91917719 8.2371341,5.14115655 8.19090909,5.15494949 C8.153625,5.1661939 8.08727612,5.12479025 8.0216278,5.07099315 C8.02295991,5.10180221 8.02060278,5.15197925 8.02812121,5.19959596 C8.03773737,5.26484848 8.05971717,5.32185859 8.04460606,5.32872727 C8.03018182,5.33628283 8.00339394,5.33353535 7.94088889,5.26965657 C7.87769697,5.20577778 7.82068687,5.08351515 7.82961616,5.05260606 C7.83854545,5.02169697 7.92371717,5.05260606 7.94981818,5.04230303 C7.94981818,5.04230303 7.96592337,5.03729253 7.98260642,5.03512653 C7.94255092,5.00107669 7.90527252,4.96447174 7.87772618,4.93550832 L7.84816162,4.90355556 C7.82480808,4.92416162 7.6510303,4.78678788 7.63042424,4.81975758 C7.61138603,4.8495841 7.79990568,5.18898845 7.80811868,5.25454873 L7.83175919,5.30419232 C7.85582707,5.35496566 7.88236768,5.42008081 7.86464646,5.42832323 C7.82137374,5.44892929 7.6379798,5.22707071 7.48412121,4.97705051 C7.37147475,4.79228283 7.34331313,4.76412121 7.31927273,4.75038384 C7.27668687,4.72428283 7.19769697,4.71191919 7.19769697,4.71191919 L7.18189899,4.68856566 L7.26432323,4.6679596 L7.18808081,4.68169697 C7.18808081,4.68169697 6.96141414,4.56286869 6.9579798,4.55531313 C6.95643434,4.55222222 6.94725821,4.53976199 6.93639173,4.5253941 L6.93644444,4.607 L6.94630303,4.59034343 L7.11321212,4.6590303 L7.32339394,4.91729293 L7.4010101,5.02238384 L7.40044444,5.023 L7.4132758,5.04081258 C7.47088826,5.1230101 7.70039899,5.45296465 7.68537374,5.47159596 C7.67195062,5.48811672 7.58945478,5.43323648 7.51284562,5.35683092 L7.51090909,5.38024242 C7.48480808,5.40977778 7.29111111,5.19616162 7.26775758,5.22294949 C7.24774026,5.24649928 7.42352257,5.52388209 7.45209471,5.61779286 C7.53071735,5.72524277 7.58067532,5.80206702 7.57066667,5.81022222 C7.548,5.82808081 7.22723232,5.59660606 7.09260606,5.4049697 C6.9579798,5.21264646 6.81785859,5.04436364 6.78420202,4.95507071 L6.77744122,4.93961162 C6.74743154,4.9769016 6.72319139,5.00127467 6.71633433,5.00040404 C6.71005201,4.99960639 6.709059,4.9910509 6.70984282,4.97662009 L6.70417881,4.98241128 L6.67911111,5.00109091 C6.63240404,5.00864646 6.54654545,4.90630303 6.44488889,4.7950303 C6.36074747,4.70287542 6.30570258,4.61596745 6.28969155,4.58955799 C6.28484848,4.58141414 6.28482171,4.58208582 6.28476977,4.58337096 C6.28876459,4.59964955 6.29475084,4.61627273 6.30133333,4.63086869 C6.31713131,4.66521212 6.34048485,4.68993939 6.34048485,4.68993939 L6.66193939,5.06909091 L6.75260606,5.00658586 L6.94355556,5.37749495 L7.11870707,5.55882828 L7.22517172,5.71543434 C7.25058586,5.75252525 7.22036364,5.97507071 7.20525253,6.01559596 C7.17434343,6.10145455 7.05894949,5.91531313 6.99644444,5.75115152 C6.99644444,5.75115152 6.87179563,5.5430911 6.82144438,5.44822606 C6.84804078,5.55619177 6.86137504,5.79229717 6.84258586,5.8040404 C6.80274747,5.82945455 6.72787879,5.70925253 6.69216162,5.67765657 C6.65781818,5.64606061 6.53830303,5.49907071 6.42153535,5.38024242 C6.30476768,5.26210101 6.21822222,5.17418182 6.21822222,5.15082828 C6.21822222,5.14268993 6.20971394,5.12821207 6.1986274,5.11280149 C6.18422489,5.13796425 6.1695207,5.15836176 6.15489135,5.17080665 L6.14685972,5.175 L6.87624242,6.03551515 L6.87485972,6.046 L7.51009143,6.65421642 C7.37535352,6.45218161 7.27272398,6.25122101 7.24541131,6.19639862 L7.23822222,6.18181818 L7.27285972,6.133 L7.27256566,6.13236364 C7.27256566,6.13236364 7.276,6.07741414 7.27943434,5.98674747 C7.28286869,5.91061953 7.25386756,5.76723569 7.24410513,5.72155574 L7.2409697,5.70719192 L7.36185859,5.83769697 L7.57616162,6.0059798 L7.68949495,5.96270707 C7.68949495,5.96270707 7.7142943,6.01428612 7.7515884,6.09216679 C7.72197922,6.00977416 7.70460606,5.95652525 7.70460606,5.95652525 C7.70460606,5.95652525 7.70586334,5.9500817 7.70821843,5.94248371 C7.71412811,5.92003359 7.72746983,5.86061449 7.73620202,5.76969697 C7.74787879,5.64812121 7.71559596,5.52036364 7.71559596,5.52036364 C7.77191919,5.59454545 7.93539394,5.68040404 7.99652525,5.68383838 C8.04288889,5.68589899 8.06104798,5.64159596 8.0672298,5.61931566 L8.06985972,5.607 L8.07709994,5.62298031 L8.07709994,5.62298031 L8.0700202,5.60622222 C8.0700202,5.60622222 8.08488903,5.62971247 8.10840903,5.67075794 L8.10711111,5.6659798 L8.04666667,5.15563636 C8.04666667,5.15563636 8.11123232,5.23050505 8.17305051,5.27034343 C8.22044444,5.29970707 8.26706566,5.29854798 8.28741414,5.29613321 L8.29485972,5.295 L8.29806061,5.29438384 L8.31037361,5.33927851 C8.3424093,5.43352296 8.41718733,5.65411408 8.47686361,5.8347869 C8.46997527,5.79721237 8.46565657,5.77587879 8.46565657,5.77587879 L8.30973737,5.01276768 L8.36468687,4.95919192 L8.38391919,4.84654545 L8.50480808,4.83830303 L8.56525253,4.81082828 L8.74315152,5.18860606 L8.79947475,5.5869899 L8.80206354,5.65107844 C9.01269583,5.8102733 9.59931743,6.25303549 10.0921616,6.61935354 C10.6610851,7.04221934 11.1085976,7.39283076 11.1696253,7.44076062 L11.1767273,7.44634343 L11.2351111,7.55349495 L11.1025455,7.69155556 L10.8415354,7.77054545 L10.3934444,7.555 L10.6437172,7.77191919 L10.4335354,7.91616162 L10.0174444,7.798 L10.0825455,7.86121212 L9.88953535,8.01163636 L9.6669899,7.9209697 L8.62744444,6.859 L8.64080808,6.88723232 L8.67044444,6.971 L9.56189899,7.86739394 L9.42109091,7.96218182 L9.29814141,7.9209697 L9.20472727,7.87357576 L8.72444534,7.31898509 C8.72858792,7.34148406 8.73285666,7.36645406 8.73559596,7.38727273 C8.74126263,7.42590909 8.74036111,7.47111364 8.73955619,7.49130114 L8.7390303,7.5019798 L8.59959596,7.59676768 L8.50944444,7.568 C8.51236364,7.57272727 8.5572009,7.7773569 8.55266947,7.85152918 L8.54327273,7.87769697 C8.48488889,7.89555556 8.34476768,7.69773737 8.27814141,7.59676768 C8.22103319,7.51022222 8.1129565,7.28691981 8.08324292,7.22488536 L8.07551515,7.20868687 L8.06682724,7.13514106 C7.99112455,7.14033851 7.91012787,7.10017317 7.82951645,7.03371197 L7.86189899,7.08436364 L8.09612121,7.29523232 L8.30973737,7.73345455 L8.33515152,7.94157576 C8.33515152,7.94157576 8.34545455,8.02949495 8.32828283,8.03292929 C8.29737374,8.04048485 8.11329293,7.82618182 8.00270707,7.72246465 C7.99324889,7.71364869 7.98336888,7.70296678 7.9732071,7.69079983 C7.96591285,7.7524375 7.94452675,7.83866417 7.88593939,7.85777778 C7.78977778,7.88868687 7.60638384,7.46282828 7.60638384,7.46282828 L7.57302769,7.14713074 C7.52687753,7.10417451 7.47440424,7.0485609 7.41922845,6.98611904 L7.43566059,7.00911823 L7.43566059,7.00911823 L7.46282828,7.05070707 C7.51777778,7.14549495 7.53357576,7.31583838 7.49030303,7.32820202 C7.44771717,7.33987879 7.37353535,7.25058586 7.37353535,7.25058586 C7.37353535,7.25058586 6.89689593,6.47484258 6.7691646,6.2175386 C6.70964341,6.18026342 6.62202775,6.12117676 6.55314366,6.06811603 C6.55959756,6.09197209 6.56494623,6.11916361 6.56761184,6.14480251 L6.60973737,6.17220202 L6.61044444,6.245 L6.64820202,6.27179798 L6.74656921,6.4496313 L6.75000118,6.43900054 L6.75000118,6.43900054 L6.75123232,6.43527273 L6.96416162,6.76565657 L6.94905051,7.06787879 L6.92294949,7.24989899 L6.86387879,7.31171717 C6.86387879,7.31171717 6.77563524,7.23158249 6.72435859,7.15120932 L6.6990303,7.10359596 L6.6990303,7.10428283 C6.6990303,7.10428283 6.65215121,7.08787515 6.60047657,6.94096659 L6.57558246,6.93603153 C6.57960717,6.98240112 6.58502943,7.02924029 6.59256566,7.06883685 C6.61493795,7.18329111 6.67717666,7.36009162 6.69450258,7.40827025 L6.6990303,7.42075697 L6.65507071,7.39205426 L6.30957576,7.62916356 C6.30957576,7.62916356 6.12961616,7.7102799 6.04856566,7.71651962 C5.96751515,7.7215114 5.916,7.66909776 5.916,7.66909776 C5.916,7.66909776 5.93660606,7.63415534 5.97919192,7.59047731 C6.02177778,7.54555134 6.07191919,7.50312125 6.18662626,7.41576519 C6.30133333,7.32965708 6.39543434,7.32092147 6.40917172,7.22607775 C6.42153535,7.13123403 6.20791919,7.22607775 6.20860606,7.21734214 C6.2099798,7.20860654 6.47442424,7.15868879 6.47579798,7.04263003 C6.47584568,7.03448373 6.47500233,7.02698138 6.47339376,7.02006991 L6.00254545,7.24715152 C5.97653078,7.27606095 5.95936431,7.29887447 5.9510303,7.30968998 C5.94880679,7.31292183 5.93161159,7.27587463 5.92200005,7.24156032 L5.91806061,7.24165657 C5.91148113,7.22755768 5.90425854,7.19223627 5.91817387,7.14889294 C5.91600701,7.12742693 5.90275325,7.10355642 5.86929293,7.08006834 C5.85949113,7.07298541 5.84717867,7.06130816 5.83342757,7.04671289 C5.77081956,7.03189937 5.66522509,7.00676443 5.57668687,6.98339394 C5.46507071,6.95362963 5.34868462,6.88904489 5.31298971,6.86834343 L5.30193939,6.86181818 C5.30193939,6.86181818 5.35276768,6.77733333 5.47159596,6.76771717 C5.56032108,6.76002424 5.63602634,6.77262697 5.66868949,6.77950607 L5.6549899,6.77183838 C5.6549899,6.77183838 5.60828283,6.72856566 5.60896219,6.69834343 C5.60914924,6.69434386 5.61029341,6.69405997 5.61275461,6.69653491 C5.62339394,6.6749899 5.63507071,6.7539798 5.77175758,6.77252525 C5.81983838,6.77853535 5.85866364,6.77739343 5.88882232,6.77336967 L5.76803494,6.74307231 L5.7890529,6.69290799 C5.70831664,6.64553909 5.66727471,6.60620169 5.66941414,6.57539394 C5.67247113,6.57170139 5.75408543,6.44487908 5.81434343,6.39680808 C5.8506101,6.36754747 5.93336404,6.35213414 5.99376453,6.34448517 L6.04801287,6.34010578 C5.96367572,6.29944024 5.84435539,6.23786456 5.81159596,6.20036364 C5.76047003,6.14259798 5.70934411,5.98855623 5.70599252,5.97835096 C5.70513131,5.97781818 5.69826263,5.96751515 5.71886869,5.95171717 C5.74084848,5.93660606 5.79579798,5.93111111 5.8699798,5.96545455 C5.88202858,5.9639076 5.90231923,5.966397 5.9211881,5.97104139 C5.93099891,5.97353856 5.94181042,5.9770089 5.95318751,5.981152 C5.86797407,5.88236677 5.76703275,5.75312886 5.71749495,5.65086869 C5.62133333,5.45167677 5.6790303,5.1789899 5.6790303,5.1789899 L5.79184562,5.32563369 C5.73219342,5.22939496 5.69963636,5.16731313 5.69963636,5.16731313 L5.65244444,5.009 L5.63044444,4.973 L5.58905051,5.0100202 C5.51871515,5.06002424 5.45453414,5.08497131 5.43167515,5.09294998 C5.42282828,5.09587879 5.41733333,4.78953535 5.34727273,4.60133333 C5.27721212,4.41313131 5.24355556,4.41931313 5.22638384,4.20981818 C5.21050954,4.0229899 5.40303629,3.70211198 5.44601599,3.6331123 L5.45442424,3.61979798 L5.6199596,3.62941414 L5.61944444,3.637 L5.67078788,3.63559596 C5.67078788,3.63559596 5.67640398,3.64000861 5.68493149,3.64761242 L5.67422222,3.61842424 C5.65416566,3.54578695 5.67303846,3.44919312 5.68188698,3.41169517 L5.65911111,3.46593939 C5.65315825,3.47555556 5.63438384,3.48975084 5.62252899,3.4981459 L5.61240404,3.50577778 C5.61240404,3.50577778 5.58286869,3.52363636 5.53890909,3.52638384 C5.50542424,3.52792929 5.45648485,3.52329293 5.43410795,3.52087816 L5.42214141,3.51951515 C5.42214141,3.51951515 5.36513131,3.51745455 5.3369697,3.51333333 C5.30880808,3.50921212 5.42488889,3.32925253 5.50387879,3.20424242 L5.6786355,2.92796307 C5.67208047,2.92692977 5.66594888,2.92559299 5.66025479,2.92403248 C5.65894483,2.92345384 5.65721694,2.92289735 5.65551345,2.92231804 C5.64137414,2.91821347 5.63066113,2.91276791 5.6228986,2.90732673 C5.59914016,2.89317118 5.5834763,2.87627143 5.57806061,2.86905051 C5.56775758,2.856 5.65155556,2.76876768 5.70169697,2.6629899 C5.73846734,2.58642694 5.75713796,2.52020669 5.76448084,2.4903337 L5.7229899,2.49882828 L5.7229899,2.49882828 L5.72485972,2.427 L5.72161616,2.41228283 L5.68285972,2.312 L5.61585972,2.259 L5.50385972,2.216 L5.4640404,2.20484848 L5.46694052,2.20227909 L5.46678788,2.20278788 L5.40783658,2.19163767 C5.40775689,2.19174386 5.40771717,2.19179798 5.40771717,2.19179798 C5.40771717,2.19179798 5.37818182,2.14577778 5.236,2.14371717 C5.09450505,2.14234343 5.02993939,2.20965657 4.94957576,2.20622222 C4.87488485,2.20366869 4.65127026,2.15661604 4.58092106,2.09484205 C4.5731981,2.09521143 4.55569473,2.09408455 4.53882828,2.08945455 C4.50771717,2.08153535 4.4784694,2.05358526 4.46451197,2.04396715 L4.45777778,2.05579798 C4.43991919,2.05305051 4.36092929,2.07846465 4.33894949,1.9829899 C4.31765657,1.88820202 4.40626263,1.88682828 4.60957576,1.66290909 C4.71878788,1.54270707 4.75725253,1.47539394 4.82937374,1.28719192 C4.88039827,1.1527619 4.88165986,1.10384003 4.87821551,1.08685856 L4.87470707,1.07907071 C4.87470707,1.07907071 4.96549159,1.06670707 4.97400264,1.28238384 C4.97652444,1.35931313 4.97214212,1.41036596 4.96299169,1.44715104 C5.00005079,1.40317405 5.08905276,1.28953837 5.11305051,1.14981818 C5.14464646,0.969858586 5.12541414,0.867515152 5.12541414,0.867515152 L5.2009697,0.945818182 L5.22981818,1.08319192 L5.18173737,1.30985859 L5.33353535,1.24117172 C5.38436364,1.17179798 5.4640404,0.863393939 5.43656566,0.673131313 C5.43656566,0.673131313 5.44961616,0.672444444 5.4619798,0.68 C5.47434343,0.686868687 5.52654545,0.77959596 5.52654545,0.83179798 C5.52654545,0.884686869 5.56088889,1.07838384 5.56088889,1.07838384 L5.56944444,1.069 L5.56913131,1.06327273 C5.56913131,1.06327273 5.69208081,0.942383838 5.73260606,0.853777778 C5.77381818,0.764484848 5.78206061,0.693050505 5.78206061,0.693050505 C5.78206061,0.693737374 5.92230708,0.846844875 5.93352962,1.06596102 L5.97077091,1.06810897 C5.97386182,1.06292242 5.97781818,1.05915152 5.97781818,1.05915152 C5.97781818,1.05915152 6.18593939,1.03579798 6.36727273,1.10379798 C6.54860606,1.17248485 6.62690909,1.21850505 6.71826263,1.21644444 C6.85563636,1.21369697 6.87624242,1.16012121 6.87624242,1.16012121 C6.87624242,1.16012121 6.93119192,1.29818182 6.81785859,1.3950303 L6.79725253,1.41082828 L6.79725253,1.41082828 C6.79725253,1.41082828 6.75593051,1.45434828 6.67504485,1.47351467 L6.6069899,1.48226263 C6.6069899,1.48226263 6.63279991,1.50749263 6.65750478,1.54482818 L6.73581858,1.59522352 C6.73808413,1.54055488 6.74436364,1.46852525 6.74436364,1.46852525 L6.86731313,1.42387879 L6.88244444,1.442 L6.89616162,1.43074747 L7.00056566,1.49462626 L7.23410101,1.84286869 L7.29044444,1.923 L7.28012121,1.87240404 C7.28012121,1.87240404 7.31616808,1.8007499 7.33058683,1.70984145 L7.33644444,1.63886869 C7.33644444,1.51660606 7.31927273,1.36755556 7.09260606,1.16355556 C6.86525253,0.960242424 6.59737374,0.946505051 6.46412121,0.909414141 C6.33018182,0.871636364 6.29309091,0.814626263 6.29034343,0.64840404 C6.28164436,0.20359115 6.7307728,0.219543709 6.87082215,0.235290901 L6.87230366,0.22659154 L6.89478788,0.17240404 C6.9255596,0.111410101 7.01084121,0.0666812121 7.04372299,0.0512294141 L7.05688889,0.0453333333 L7.3000404,2.88657986e-13 Z" id="Combined-Shape" fill="#8F4620" fill-rule="nonzero"></path>
                    <path d="M7.13931313,8.62869064 C7.13931313,8.62869064 7.06513131,8.48979241 7.15305051,8.43942273 C7.2409697,8.38905304 7.28767677,8.44171226 7.33987879,8.44400179 C7.39276768,8.44629132 7.37559596,8.29365591 7.36391919,8.26312883 C7.35002877,8.22152617 7.32955886,8.18301638 7.30347475,8.14941545 C7.28149495,8.13186237 6.99163636,8.16467899 6.99438384,8.38065809 C6.99575758,8.58824225 7.13931313,8.62869064 7.13931313,8.62869064 L7.13931313,8.62869064 Z M7.5940202,9.14536151 C7.5940202,9.14536151 7.50060606,8.99806833 7.55143434,8.91030297 C7.60226263,8.82177443 7.64072727,8.87519683 7.66614141,8.87214412 C7.69155556,8.87061777 7.70323232,8.80651089 7.66064646,8.71035058 C7.61737374,8.6134271 7.56448485,8.56534694 7.53357576,8.5600047 C7.5019798,8.55618882 7.32751515,8.69890293 7.36185859,8.88130224 C7.38739363,9.0114308 7.47753218,9.11395386 7.5940202,9.14536151 L7.5940202,9.14536151 Z M9.23082828,8.96754125 C9.23082828,8.96754125 9.54678788,9.11483442 9.56808081,8.76148345 C9.57975758,8.57145236 9.4279596,8.44094908 9.37919192,8.44247544 C9.34553535,8.44247544 9.32080808,8.46384439 9.26379798,8.53863575 C9.20747475,8.6134271 9.16420202,8.66837585 9.18824242,8.69737657 C9.21090909,8.72561412 9.3050101,8.66684949 9.34622222,8.77827334 C9.41628283,8.96983078 9.23082828,8.96754125 9.23082828,8.96754125 Z" id="Shape" fill="#202220" fill-rule="nonzero"></path>
                    <path d="M4.87814141,1.64092929 C4.95612276,1.71201905 4.96800396,1.8298561 4.90590683,1.91630505 C4.84380969,2.002754 4.72699888,2.03099543 4.63292929,1.98230303" id="Path" fill="#F16E16" fill-rule="nonzero"></path>
                    <path d="M4.78541414,1.75632323 C4.82478403,1.76091771 4.85566661,1.79226444 4.8596733,1.83169849 C4.86368,1.87113253 4.83973341,1.90805018 4.8020922,1.92046936 C4.76445098,1.93288854 4.72323674,1.91746978 4.7029899,1.88339394" id="Path" fill="#000000" fill-rule="nonzero"></path>
                </g>
            </g>
        </g>
        <rect id="Rectangle" stroke="#DDE2E3" stroke-width="3" opacity="0" fill-rule="nonzero" x="1.5" y="1.5" width="45" height="45"></rect>
    </g>
</svg>