<?xml version="1.0" encoding="UTF-8"?>
<svg width="48px" height="48px" viewBox="0 0 48 48" version="1.1" xmlns="http://www.w3.org/2000/svg" xmlns:xlink="http://www.w3.org/1999/xlink">
    <!-- Generator: Sketch 64 (93537) - https://sketch.com -->
    <title>Graphics / 01 Flags/MZN</title>
    <desc>Created with Sketch.</desc>
    <defs>
        <rect id="path-1" x="0" y="0" width="48" height="48"></rect>
    </defs>
    <g id="Graphics-/-01-Flags/MZN" stroke="none" stroke-width="1" fill="none" fill-rule="evenodd">
        <g id="Flag">
            <mask id="mask-2" fill="white">
                <use xlink:href="#path-1"></use>
            </mask>
            <g id="Mask" fill-rule="nonzero"></g>
            <g id="iStock-483406126" mask="url(#mask-2)">
                <polygon id="Fill-3" fill="#13675D" points="1 15 48 15 48 0 1 0"></polygon>
                <polygon id="Fill-4" fill="#F9DF1B" points="0 48 48 48 48 33 0 33"></polygon>
                <polygon id="Fill-5-Copy" fill="#FFFFFF" points="3 33 48 33 48 15 3 15"></polygon>
                <polygon id="Fill-5" fill="#0A0B09" points="3 31.5 48 31.5 48 16.5 3 16.5"></polygon>
                <polyline id="Fill-6" fill="#C02537" points="0 0 29 24 0 48 0 0"></polyline>
                <g id="Group" transform="translate(4.000000, 16.000000)">
                    <polyline id="Fill-8" fill="#F9DF1B" points="13.7539183 15.9982934 8.49741314 12.1893588 3.24780624 16 5.28337983 9.87453114 0 6.11195847 6.51558881 6.13599275 8.49913771 0 10.4895849 6.1394059 17 6.11010968 11.7147519 9.87965086 13.7539183 15.9982934"></polyline>
                    <path d="M4,11.7033393 L7.64336416,11.7033393 C7.93637649,12.0304146 8.59098731,12.1632244 9.21379406,11.7000397 C10.3558369,11.0773731 12.5649756,11.7033393 12.5649756,11.7033393 L13,11.2434542 L11.9396798,7.78366075 L11.5589989,7.37849439 C11.5589989,7.37849439 10.7432935,6.89221228 9.19374366,7.05320644 C7.64336416,7.21585042 7.09992932,7 7.09992932,7 C7.09992932,7 5.74065083,7.16113165 5.35914021,7.3503101 C5.31738008,7.38523112 4.92411579,7.78366075 4.92411579,7.78366075 L4,11.7033393" id="Fill-9" fill="#FFFFFE"></path>
                    <path d="M1,11.959082 L1.88984877,12.9570908 C1.99384401,13.0168149 2.08749718,13.0117349 2.18028851,12.9570908 L3.4993331,11.4435334 L4.05263374,10.7884914 C4.13853036,10.6907362 4.16625285,10.5829584 4.1584963,10.4850659 L5.21827099,9.58645981 C5.30416761,9.59153979 5.35616523,9.60156244 5.44292369,9.60650511 C5.34065212,9.58165443 5.26509757,9.53360063 5.34582316,9.42568552 L5.58340344,9.2499459 L5.76812427,9.47703444 C5.76812427,9.47703444 5.50454517,9.803663 5.47754089,9.803663 L5.18796298,9.803663 L4.6338005,10.2844756 L4.87568998,10.4884983 L5.2399606,11.4435334 L5.68826052,11.1416182 L5.39868262,10.1569271 L6.031847,9.50202242 L5.79412308,9.14889561 L5.95284509,8.94665775 C5.95284509,8.94665775 8.14435803,10.2662152 8.98824205,9.91308838 C9.01165535,9.92146347 9.03937783,8.97315599 9.03937783,8.97315599 C9.03937783,8.97315599 6.77073031,8.74606745 6.71772721,8.31660375 C6.66486775,7.88714005 7.21903023,7.83743868 7.21903023,7.83743868 L6.9813063,7.50916256 L7.0343094,7.33342294 L7.42974986,7.812588 L8.32735518,7.08148372 L13.6036772,12.8310526 C13.891675,12.7183321 13.9531529,12.6520178 13.9731188,12.3767382 C13.9653623,12.3702853 8.80179755,6.70350623 8.80179755,6.70350623 L9.19809985,6.29889321 C9.27609628,6.21596608 9.30295693,6.17958248 9.30295693,6.04695399 L9.9101225,5.54293824 C10.0922578,5.60266225 10.2084624,5.70700765 10.305563,5.84457883 L11.9742269,4.49358048 C12.0174625,4.53655431 12.1519094,4.57815518 12.2421152,4.52996408 L15,2 L11.9940492,4.02924345 L11.8891921,3.95469141 C11.8891921,3.87011671 11.9974966,3.84856115 11.8891921,3.70261489 C11.7721257,3.56833883 11.5986087,3.82865315 11.5726099,3.82865315 C11.5457493,3.82865315 11.1372376,3.68943441 11.0478936,3.51534235 L11.0184475,3.97954209 L10.2527035,4.66094501 L9.67254222,4.63444677 L8.8286582,5.41689998 L8.72279564,5.71867786 L8.85465701,5.97226465 C8.85465701,5.97226465 8.40621345,6.35037943 8.40621345,6.32388119 C8.40621345,6.29889321 8.31600763,6.21280825 8.31184208,6.20113805 L8.69593499,5.87121436 L8.74965629,5.64398852 L8.62052408,5.45177331 C8.58145405,5.47827155 8.0897749,5.97226465 8.06291425,5.92091573 C8.01953502,5.87450948 6.63886894,4.38237025 6.63886894,4.38237025 L6.71772721,4.10544305 L5.82098373,3.1721009 C5.49405947,3.06432309 4.97623787,3.04619994 4.87138079,3.72746557 C4.78893152,3.8867296 4.10563684,3.75245354 4.10563684,3.75245354 L3.73619519,3.82865315 L1.65212484,6.65202001 L2.8134529,7.98832762 L5.18796298,5.11347454 L5.25820286,4.29944312 L5.75591488,4.83160466 C5.92253709,4.85329752 6.08025363,4.85480778 6.23121909,4.7819033 L7.63788398,6.28241762 L7.40375105,6.50126837 C7.48275296,6.58584306 7.5373361,6.63883954 7.61619437,6.72341424 C7.69605811,6.67192802 7.77146903,6.6123413 7.85032729,6.56085508 C7.87733158,6.59572842 7.92056717,6.65874755 7.94742782,6.69183602 C7.82964316,6.75320759 7.74633205,6.83613473 7.62840375,6.897369 C7.44023557,6.77970583 7.25810026,6.63375957 7.27188968,6.40008079 L6.48014692,7.03013479 L6.45400447,7.15603576 L4.10563684,9.02285735 L3.8949172,9.04770803 L3.8419141,9.62806068 L5.37268381,8.41779133 L5.37268381,8.24040415 L5.53054398,8.36644241 L6.71772721,7.4594612 C6.71772721,7.4594612 6.79672912,7.56051148 6.77073031,7.56051148 C6.74372602,7.56051148 5.71512117,8.46749269 5.71512117,8.46749269 L5.68826052,8.56854297 L5.50454517,8.71956921 L5.39868262,8.64487987 L3.97377547,9.85514922 L3.76305583,9.85514922 L2.97116943,10.6111042 C2.76734451,10.6293646 2.59052387,10.6491353 2.4171506,10.7621304 L1,11.959082" id="Fill-15" fill="#0A0B09"></path>
                </g>
            </g>
        </g>
        <rect id="Rectangle" stroke="#DDE2E3" stroke-width="3" opacity="0" fill-rule="nonzero" x="1.5" y="1.5" width="45" height="45"></rect>
    </g>
</svg>