<?xml version="1.0" encoding="UTF-8"?>
<svg width="48px" height="48px" viewBox="0 0 48 48" version="1.1" xmlns="http://www.w3.org/2000/svg" xmlns:xlink="http://www.w3.org/1999/xlink">
    <!-- Generator: Sketch 64 (93537) - https://sketch.com -->
    <title>Graphics / 01 Flags/NAD</title>
    <desc>Created with Sketch.</desc>
    <defs>
        <rect id="path-1" x="0" y="0" width="48" height="48"></rect>
    </defs>
    <g id="Graphics-/-01-Flags/NAD" stroke="none" stroke-width="1" fill="none" fill-rule="evenodd">
        <rect id="Rectangle" fill="#FFFFFF" x="0" y="0" width="48" height="48"></rect>
        <g id="Flag">
            <mask id="mask-2" fill="white">
                <use xlink:href="#path-1"></use>
            </mask>
            <g id="Mask" fill-rule="nonzero"></g>
            <g id="iStock-813648762" mask="url(#mask-2)">
                <g id="Group-7">
                    <polyline id="Fill-1" fill="#D90036" points="48 0 48 8.50659459 8.50704 48 0 48 0 39.4934054 39.49296 0 48 0"></polyline>
                    <polygon id="Fill-3" fill="#003687" points="36 0 0 36 0 -6.24500451e-16"></polygon>
                    <polyline id="Fill-4" fill="#00964B" points="12 48 48 12 48 48 12 48"></polyline>
                </g>
                <path d="M12.770656,13.8852 L11.996896,15.993936 L11.22304,13.885296 C11.469904,13.951344 11.729392,13.98648 11.996896,13.986384 C12.264496,13.986528 12.523888,13.95144 12.770656,13.8852 Z M9.882592,13.111344 C10.063264,13.292016 10.270528,13.452144 10.502224,13.585824 C10.73392,13.719696 10.97608,13.819104 11.222896,13.885152 L9.498496,15.32448 L9.882592,13.111344 Z M14.111104,13.11144 L14.495392,15.324528 L12.770896,13.885344 C13.017664,13.819152 13.259968,13.719792 13.491616,13.58592 C13.723408,13.45224 13.930528,13.292208 14.111104,13.11144 Z M11.996992,8.471376 C13.391872,8.471376 14.522656,9.60216 14.522656,10.99704 C14.522656,12.391872 13.391872,13.522656 11.996992,13.522656 C10.60216,13.522656 9.471328,12.391872 9.471328,10.99704 C9.471328,9.60216 10.60216,8.471376 11.996992,8.471376 Z M9.108688,11.770944 C9.174928,12.017712 9.27424,12.259968 9.408016,12.491616 C9.541792,12.723408 9.701824,12.930528 9.882592,13.1112 L7.669456,13.49544 L9.108688,11.770944 Z M14.885056,11.771136 L16.324384,13.495536 L14.111344,13.11144 C14.291968,12.93072 14.452144,12.723504 14.585824,12.491712 C14.719696,12.260112 14.819056,12.017904 14.885056,11.771136 Z M14.885152,10.223328 L16.993936,10.997136 L14.885296,11.77104 C14.951392,11.524128 14.98648,11.26464 14.986336,10.997088 C14.986528,10.729536 14.951488,10.470144 14.885152,10.223328 Z M9.108688,10.223136 C9.04264,10.469952 9.007552,10.729392 9.007552,10.996944 C9.007504,11.264496 9.042544,11.523888 9.108784,11.770752 L7,10.996944 L9.108688,10.223136 Z M16.324528,8.49864 L14.885344,10.223232 C14.819104,9.976272 14.719792,9.734016 14.58592,9.502368 C14.452192,9.270624 14.292208,9.063408 14.11144,8.882928 L16.324528,8.49864 Z M7.669504,8.498448 L9.882592,8.88264 C9.70192,9.063312 9.54184,9.270528 9.408112,9.502224 C9.274288,9.73392 9.174928,9.97608 9.10888,10.222944 L7.669504,8.498448 Z M9.498592,6.669408 L11.22304,8.108736 C10.976224,8.17488 10.734016,8.27424 10.502368,8.408016 C10.270672,8.541792 10.063456,8.701824 9.882832,8.882544 L9.498592,6.669408 Z M14.495536,6.6696 L14.111488,8.882688 C13.93072,8.70192 13.723504,8.54184 13.491712,8.40816 C13.260112,8.274288 13.017952,8.17488 12.771088,8.108976 L14.495536,6.6696 Z M11.99704,6 L12.770896,8.108736 C12.524032,8.042592 12.26464,8.007552 11.99704,8.007552 C11.729536,8.007552 11.470144,8.042592 11.22328,8.108736 L11.99704,6 Z" id="Combined-Shape" fill="#FFD303"></path>
            </g>
        </g>
        <rect id="Rectangle" stroke="#DDE2E3" stroke-width="3" opacity="0" fill-rule="nonzero" x="1.5" y="1.5" width="45" height="45"></rect>
    </g>
</svg>