<?xml version="1.0" encoding="UTF-8"?>
<svg width="48px" height="48px" viewBox="0 0 48 48" version="1.1" xmlns="http://www.w3.org/2000/svg" xmlns:xlink="http://www.w3.org/1999/xlink">
    <!-- Generator: Sketch 64 (93537) - https://sketch.com -->
    <title>Graphics / 01 Flags/NZD</title>
    <desc>Created with Sketch.</desc>
    <defs>
        <rect id="path-1" x="0" y="0" width="48" height="48" rx="5"></rect>
    </defs>
    <g id="Graphics-/-01-Flags/NZD" stroke="none" stroke-width="1" fill="none" fill-rule="evenodd">
        <g id="Flag">
            <mask id="mask-2" fill="white">
                <use xlink:href="#path-1"></use>
            </mask>
            <g id="Mask" fill-rule="nonzero"></g>
            <polygon id="Fill-541" fill="#0540A8" mask="url(#mask-2)" points="0 48 48 48 48 -5.32907052e-14 0 -5.32907052e-14"></polygon>
            <polyline id="Fill-543" fill="#F0F0F0" mask="url(#mask-2)" points="26.9285714 16.7801871 16.0428098 9.5742992 26.9285714 2.36874904 26.9285714 8.8817842e-15 23.3498773 8.8817842e-15 12.4641156 7.20555016 1.57835397 8.8817842e-15 -2 8.8817842e-15 -2 2.36874904 8.88576166 9.5742992 -2 16.7801871 -2 19.1489362 1.57835397 19.1489362 12.4641156 11.943386 23.3498773 19.1489362 26.9285714 19.1489362 26.9285714 16.7801871"></polyline>
            <polyline id="Fill-544" fill="#FF1612" mask="url(#mask-2)" points="26.9285714 18.2606131 13.8061259 9.5742992 26.9285714 0.887985345 26.9285714 8.8817842e-15 25.5869013 8.8817842e-15 12.4641156 8.68597609 -0.657989695 8.8817842e-15 -2 8.8817842e-15 -2 0.887985345 11.1224455 9.5742992 -2 18.2606131 -2 19.1489362 -0.657989695 19.1489362 12.4641156 10.4626223 25.5869013 19.1489362 26.9285714 19.1489362 26.9285714 18.2606131"></polyline>
            <polyline id="Fill-545" fill="#F0F0F0" mask="url(#mask-2)" points="10.0746909 8.8817842e-15 14.8538805 8.8817842e-15 14.8538805 6.41112584 26.9285714 6.41112584 26.9285714 12.7378103 14.8538805 12.7378103 14.8538805 19.1489362 10.0746909 19.1489362 10.0746909 12.7378103 -2 12.7378103 -2 6.41112584 10.0746909 6.41112584 10.0746909 8.8817842e-15"></polyline>
            <polyline id="Fill-546" fill="#FF1612" mask="url(#mask-2)" points="13.9558052 8.8817842e-15 13.9558052 7.59972243 26.9285714 7.59972243 26.9285714 11.5492137 13.9558052 11.5492137 13.9558052 19.1489362 10.9727663 19.1489362 10.9727663 11.5492137 -2 11.5492137 -2 7.59972243 10.9727663 7.59972243 10.9727663 8.8817842e-15 13.9558052 8.8817842e-15"></polyline>
            <path d="M40.2476459,10.56 L40.6157595,11.7493836 L41.8137962,11.7469484 L40.8434965,12.4795725 L41.2156115,13.6675646 L40.2476459,12.930766 L39.2803471,13.6675646 L39.6524621,12.4795725 L38.6821624,11.7469484 L39.8798656,11.7493836 L40.2476459,10.56 Z M33.2454835,17.8653685 L33.6135971,19.054752 L34.8116338,19.0523169 L33.8413341,19.784941 L34.213449,20.9729331 L33.2454835,20.2361345 L32.2778513,20.9729331 L32.6502996,19.784941 L31.68,19.0523169 L32.8777032,19.054752 L33.2454835,17.8653685 Z M46.3328584,15.995542 L46.7009721,17.1849256 L47.8990088,17.1824905 L46.9287091,17.9151146 L47.300824,19.1031066 L46.3328584,18.366308 L45.3655597,19.1031066 L45.7376746,17.9151146 L44.767375,17.1824905 L45.9650782,17.1849256 L46.3328584,15.995542 Z M40.1226072,29.2582646 L40.4907209,30.4476481 L41.6887576,30.445213 L40.7184579,31.1778371 L41.0905728,32.3658292 L40.1226072,31.6290306 L39.1553085,32.3658292 L39.5274234,31.1778371 L38.5571238,30.445213 L39.754827,30.4476481 L40.1226072,29.2582646 L40.1226072,29.2582646 Z" id="Fill-547" fill="#FF1612" mask="url(#mask-2)"></path>
            <path d="M40.1223908,27.5664483 L39.3863101,29.9468978 L37.0611146,29.9421703 L38.9449759,31.3645786 L38.2086062,33.715469 L40.1227116,32.2574807 L42.0370055,33.7146079 L41.3009054,31.3645786 L43.1847656,29.9421712 L40.859139,29.9468983 L40.1223908,27.5664483 Z M33.245267,16.1735522 L32.5091863,18.5540018 L30.1839908,18.5492743 L32.0677758,19.9716248 L31.3307313,22.3225629 L33.2455356,20.8645449 L35.1598817,22.3217119 L34.4237816,19.9716825 L36.3076418,18.5492751 L33.9820152,18.5540022 L33.245267,16.1735522 Z M46.332642,14.3037258 L45.5965613,16.6841753 L43.2713658,16.6794478 L45.1552271,18.101856 L44.4188574,20.4527465 L46.3329628,18.9947582 L48.2472567,20.4518854 L47.5111566,18.101856 L49.3950168,16.6794487 L47.0693902,16.6841757 L46.332642,14.3037258 Z M40.2474294,8.86818376 L39.5113487,11.2486333 L37.1861532,11.2439058 L39.0700145,12.666314 L38.3336448,15.0172044 L40.2477502,13.5592162 L42.1620441,15.0163434 L41.4259441,12.666314 L43.3098042,11.2439066 L40.9841776,11.2486337 L40.2474294,8.86818376 Z" id="Stroke-548" stroke="#F5F5F5" mask="url(#mask-2)"></path>
        </g>
        <rect id="Rectangle" stroke="#DDE2E3" stroke-width="3" opacity="0" fill-rule="nonzero" x="1.5" y="1.5" width="45" height="45" rx="5"></rect>
    </g>
</svg>