<?xml version="1.0" encoding="UTF-8"?>
<svg width="48px" height="48px" viewBox="0 0 48 48" version="1.1" xmlns="http://www.w3.org/2000/svg" xmlns:xlink="http://www.w3.org/1999/xlink">
    <!-- Generator: Sketch 64 (93537) - https://sketch.com -->
    <title>Graphics / 01 Flags/OMR</title>
    <desc>Created with Sketch.</desc>
    <defs>
        <rect id="path-1" x="0" y="0" width="48" height="48"></rect>
    </defs>
    <g id="Graphics-/-01-Flags/OMR" stroke="none" stroke-width="1" fill="none" fill-rule="evenodd">
        <g id="Flag">
            <mask id="mask-2" fill="white">
                <use xlink:href="#path-1"></use>
            </mask>
            <g id="Mask" fill-rule="nonzero"></g>
            <g id="OMR-FLAG" mask="url(#mask-2)">
                <g transform="translate(-0.500000, 0.000000)">
                    <g id="Group-4" stroke-width="1" fill="none" transform="translate(0.500000, 0.000000)">
                        <polygon id="Fill-1" fill="#D9252A" points="19.4963216 0 0 0 0.169667406 48 48 48 47.8303326 16 19.4963216 16"></polygon>
                        <polygon id="Fill-3" fill="#4CAE46" points="20.1696674 48 48.1696674 48 48.1696674 32 20.1696674 32"></polygon>
                    </g>
                    <polygon id="Fill-5" fill="#FFFFFE" points="19.5 16 48.5 16 48.5 0 19.5 0"></polygon>
                    <path d="M8.89229608,10.3249045 C8.99922761,10.3249045 8.97795476,10.8711232 8.92845993,10.9245953 C9.09722453,11.104544 9.46453573,11.0787777 9.58621643,10.8774955 C9.55061986,10.8774955 9.52041241,10.8946731 9.52041241,10.7898068 C9.52041241,10.3762987 9.49304135,10.3871039 9.61146021,10.3871039 C9.54069253,10.1150336 9.0424824,10.0722282 8.89229608,10.3249045 Z M14.1393153,10.3871039 L14.155199,10.3871039 C14.0027436,10.1277782 13.4951734,10.177233 13.4337658,10.4577536 C13.4693623,10.4855978 13.4760278,10.783296 13.4288021,10.8111403 C13.4288021,11.1174272 13.9133976,11.2030379 14.1173333,10.9888726 C14.0773404,10.9459287 14.0570603,10.3871039 14.1393153,10.3871039 Z M14.9855492,10.0186176 L17.2719551,10.0186176 C17.3985994,10.0186176 17.5,10.1107392 17.5,10.2264106 L17.5,11.2801984 C17.5,11.3936534 17.3985994,11.4879915 17.2719551,11.4879915 L14.9855492,11.4879915 C14.7071585,11.4879915 14.7575043,11.1944492 14.7575043,10.9996778 L14.4089132,10.9996778 C14.1869665,11.3807703 13.1756552,11.2908651 13.1756552,10.8859458 L13.1756552,10.8154347 L13.0987893,10.8154347 C12.3172248,11.8369453 12.6646814,11.1303104 12.5644153,12.0897601 C12.552928,12.1818817 12.5397388,12.2738648 12.5188914,12.3573976 C12.7163035,12.5543854 12.9260538,12.7601005 13.1514041,12.9764823 C16.5638528,16.2360625 18.0191993,16.6473542 17.3350645,16.9108358 C16.6520642,17.1743174 14.4555716,15.4909167 12.1697331,13.2570029 C12.135271,13.2248643 12.1018018,13.1906477 12.0671979,13.158509 C11.722436,13.4668739 11.2022439,13.6253507 10.5076144,13.631723 C8.34090383,15.70716 6.31487767,17.2234951 5.66421212,16.9728967 C5.01737568,16.7222982 6.29020116,16.3389893 9.32810586,13.5289347 C7.89247217,13.3276526 5.89948983,12.8671832 5.89948983,12.4067138 C5.89948983,11.7942784 10.1666816,11.9120278 10.3202715,11.7942784 C10.3757228,11.7556289 10.4111775,11.6378795 10.4320249,11.410831 C10.320697,11.277982 10.2139073,11.1495659 10.1136413,11.0253056 C10.0094043,11.0338944 9.91084011,11.0017557 9.83950515,10.9374784 C9.64932588,11.2630209 8.82705935,11.2630209 8.63744735,10.9374784 L8.28885626,10.9374784 C8.28885626,11.1323883 8.34090383,11.4257921 8.06081132,11.4257921 L5.77539821,11.4257921 C5.65003022,11.4257921 5.54806236,11.3336705 5.54806236,11.217999 L5.54806236,10.1664277 C5.54806236,10.0507563 5.65003022,9.95655674 5.77539821,9.95655674 L8.06081132,9.95655674 C8.31792915,9.95655674 8.28885626,10.2006443 8.28885626,10.3249045 L8.61277084,10.3249045 C8.65829474,10.1493887 8.92789265,10.0165397 9.2492545,10.0186176 C7.7411513,7.47426104 6.73962556,5.31113545 7.0154635,5.18687521 C7.2917269,5.06261497 8.74423705,7.03304714 10.2588639,9.58599248 L10.1635616,9.62893637 C10.2516312,9.75305808 10.3526063,9.89227942 10.4688979,10.0443839 L10.4693233,8.54938225 C10.7850124,8.54938225 10.9956136,8.36527761 10.9956136,8.18103444 L11.0717704,8.18103444 L11.0717704,7.81476457 L11.1463672,7.81476457 L11.1463672,7.0801469 L11.2208222,7.0801469 C11.2208222,6.79740983 11.1961457,6.58324446 11.1961457,6.32197934 C11.0235519,6.26629081 10.8345072,6.12928593 10.7434594,5.97067057 C10.408483,6.04783106 10.3690573,5.57226204 10.7176484,5.61091155 C10.8108235,5.37970716 11.0980069,5.2210918 11.3409429,5.1911696 C11.3327174,4.9362768 11.7844109,4.9362768 11.7761854,5.1911696 C12.0195467,5.2210918 12.3072975,5.37970716 12.4010398,5.61091155 C12.7475037,5.57226204 12.7097798,6.04783106 12.3736688,5.97067057 C12.2474499,6.18913033 12.0792525,6.22126898 11.8496476,6.32197934 C11.8496476,6.58324446 11.822702,6.7953319 11.822702,7.0801469 L11.8990006,7.0801469 L11.8990006,7.81476457 L11.9734556,7.81476457 L11.9734556,8.17881798 L12.0491869,8.17881798 C12.0491869,8.36527761 12.2596463,8.54938225 12.5753354,8.54508786 C12.5753354,9.04199029 12.5793063,9.54318711 12.5793063,10.0443839 C12.6757432,9.9158293 12.7606928,9.79807991 12.8378424,9.69099723 L12.7421145,9.64805333 C14.255465,7.095108 15.7075497,5.1225979 15.9838131,5.24685814 C16.2595092,5.37097985 15.2602526,7.53424396 13.7500221,10.0828949 C14.0740785,10.0657174 14.3849458,10.192194 14.4352915,10.3871039 L14.7575043,10.3871039 C14.7575043,10.2606272 14.7291405,10.0186176 14.9855492,10.0186176 L14.9855492,10.0186176 Z" id="Fill-6" fill="#FFFFFE"></path>
                </g>
            </g>
        </g>
        <rect id="Rectangle" stroke="#DDE2E3" stroke-width="3" opacity="0" fill-rule="nonzero" x="1.5" y="1.5" width="45" height="45"></rect>
    </g>
</svg>