<?xml version="1.0" encoding="UTF-8"?>
<svg width="48px" height="48px" viewBox="0 0 48 48" version="1.1" xmlns="http://www.w3.org/2000/svg" xmlns:xlink="http://www.w3.org/1999/xlink">
    <!-- Generator: Sketch 64 (93537) - https://sketch.com -->
    <title>Graphics / 01 Flags/PHP</title>
    <desc>Created with Sketch.</desc>
    <defs>
        <rect id="path-1" x="0" y="0" width="48" height="48"></rect>
    </defs>
    <g id="Graphics-/-01-Flags/PHP" stroke="none" stroke-width="1" fill="none" fill-rule="evenodd">
        <g id="Flag">
            <mask id="mask-2" fill="white">
                <use xlink:href="#path-1"></use>
            </mask>
            <g id="Mask" fill-rule="nonzero"></g>
            <g id="iStock-483426367-(1)" mask="url(#mask-2)">
                <polygon id="Fill-1" fill="#D82333" points="0 48 48 48 48 25 0 25"></polygon>
                <polygon id="Fill-2" fill="#25387C" points="0 25 48 25 48 0 0 0"></polygon>
                <polygon id="Fill-3" fill="#FFFFFE" points="0 48 0 0 37.9153426 24.9958"></polygon>
                <polyline id="Fill-4" fill="#FBD020" points="33 25.0026014 31.4722805 24.5282341 31.473887 23 30.5291475 24.2354022 29.00238 23.7601301 29.945513 24.9979075 29 26.2327442 30.527779 25.7620529 31.4706145 27 31.471507 25.4718224 33 25.0026014"></polyline>
                <polyline id="Fill-5" fill="#FBD020" points="5.06489175 41 6.18610949 39.9332834 7.53759104 40.680878 6.87826917 39.2747595 8 38.2094256 6.47173011 38.4064643 5.81343443 37 5.52821288 38.5281443 4 38.7250101 5.35165258 39.471971 5.06489175 41"></polyline>
                <polyline id="Fill-6" fill="#FBD020" points="5.35165258 9.52816628 4 10.2750227 5.52821288 10.4718913 5.81343443 12 6.47173011 10.5935731 8 10.7907874 6.87826917 9.72526539 7.53759104 8.31918418 6.18610949 9.06667435 5.06489175 8 5.35165258 9.52816628"></polyline>
                <path d="M23.4507875,25.0113933 L24,24.4981564 L23.4530222,23.9886067 L19.5158543,24.2413425 C19.5094856,24.1411197 19.4994298,24.0419583 19.4858546,23.9438584 L23.0511267,23.5289449 L22.5599583,23.1140873 C22.5599583,23.1140873 20.1117143,23.6079947 19.4525588,23.7410106 C19.3480906,23.1939192 19.1336234,22.6858778 18.8318945,22.2415791 C19.3925594,21.8691793 21.4721478,20.4879035 21.4721478,20.4879035 L21.5261138,19.8471814 L18.7119516,22.0746528 C18.6517846,21.9951561 18.5883774,21.918341 18.5226797,21.8436487 L21.4836561,19.2395876 L21.5090748,18.4882518 L20.7620431,18.5147321 L18.1565939,21.4775618 C18.0817902,21.4117521 18.0049194,21.348233 17.9253672,21.2880658 L20.1528312,18.4738944 L19.5121113,18.5278605 C19.5121113,18.5278605 18.13084,20.6073999 17.7584414,21.1681225 C17.3141441,20.8663367 16.8061044,20.6518689 16.258959,20.5474003 C16.3919744,19.8881867 16.8859361,17.4400464 16.8859361,17.4400464 L16.4710798,16.9488206 L16.0561677,20.5141044 C15.9581798,20.5005849 15.8591305,20.4905291 15.7590198,20.4841605 L16.0114195,16.5492143 L15.4981285,16 L14.9885805,16.5469796 L15.2413154,20.4841046 C15.1410929,20.4904733 15.0419319,20.5005291 14.9438323,20.5141044 L14.5289202,16.9488206 L14.1140639,17.4400464 C14.1140639,17.4400464 14.6080256,19.8881867 14.741041,20.5474003 C14.1938956,20.6518689 13.6858559,20.8663367 13.2415586,21.1680666 L11.4878887,18.5278605 L10.8471688,18.4738944 L13.0746328,21.2880658 C12.9950806,21.348233 12.9181539,21.4117521 12.8433502,21.4775618 L10.2380128,18.5147321 L9.49092516,18.4882518 L9.51634391,19.2395876 L12.4773203,21.8436487 C12.4115668,21.9183969 12.3481596,21.9951561 12.2880484,22.0746528 L9.47388623,19.8471814 L9.52790804,20.4879035 L12.1681055,22.2415232 C11.8663207,22.6858778 11.6518536,23.1939192 11.5474412,23.7410106 L8.44004167,23.1140873 L7.94887333,23.5289449 L11.5141454,23.9438584 C11.5005702,24.0419583 11.4905144,24.1411197 11.4841457,24.2413425 L7.54697785,23.9886067 L7,24.4981564 L7.54921246,25.0113933 L11.4841457,24.7589927 C11.4905144,24.8591038 11.5005702,24.9582093 11.5141454,25.0561975 L7.94887333,25.4710551 L8.44004167,25.8859127 L11.5474412,25.2589894 C11.6518536,25.8061367 11.8663207,26.3141222 12.1681055,26.7584209 L9.52785217,28.5120965 L9.47388623,29.1528186 L12.2880484,26.9254031 C12.3482713,27.0048997 12.4117344,27.0817707 12.4774879,27.1565747 L9.51477968,29.7620325 L9.48829949,30.5090667 L10.239577,30.4836478 L12.8435737,27.5226617 C12.9183774,27.5884155 12.9951364,27.6518787 13.0746328,27.7119901 L10.8471688,30.5261615 L11.4878887,30.4721395 L13.2415586,27.8319334 C13.6858559,28.1337191 14.1938956,28.3481311 14.741041,28.4526556 L14.1140639,31.5599536 L14.5289202,32.0511794 L14.9438323,28.4858956 C15.0419319,28.4995268 15.1410929,28.5095267 15.2413154,28.5158954 L14.9885805,32.4530204 L15.4981285,33 L16.0114195,32.4507857 L15.7590198,28.5158954 C15.8591305,28.5095267 15.9581798,28.4995268 16.0561677,28.4858956 L16.4710798,32.0511794 L16.8859361,31.5599536 L16.258959,28.4526556 C16.8061044,28.3481311 17.3141441,28.1337191 17.7584414,27.8319334 C18.13084,28.3926001 19.5121113,30.4721395 19.5121113,30.4721395 L20.1528312,30.5261615 L17.9253672,27.7119901 C18.0048077,27.6518787 18.0816226,27.5884155 18.1563705,27.5226617 L20.7604789,30.4836478 L21.5117005,30.5090667 L21.4852762,29.7620325 L18.5224562,27.1566306 C18.5882656,27.0817707 18.6517287,27.0048997 18.7119516,26.9253472 L21.5261138,29.1528744 L21.4721478,28.5120965 C21.4721478,28.5120965 19.3925594,27.1308207 18.8318945,26.7584209 C19.1336234,26.3141222 19.3480906,25.8061367 19.4525588,25.2589894 C20.1117143,25.3920053 22.5599583,25.8859127 22.5599583,25.8859127 L23.0511267,25.4710551 L19.4858546,25.0561975 C19.499374,24.9582093 19.5094856,24.8591038 19.5157984,24.7589927 L23.4507875,25.0113933" id="Fill-7" fill="#FBD020"></path>
            </g>
        </g>
        <rect id="Rectangle" stroke="#DDE2E3" stroke-width="3" opacity="0" fill-rule="nonzero" x="1.5" y="1.5" width="45" height="45"></rect>
    </g>
</svg>