<?xml version="1.0" encoding="UTF-8"?>
<svg width="48px" height="48px" viewBox="0 0 48 48" version="1.1" xmlns="http://www.w3.org/2000/svg" xmlns:xlink="http://www.w3.org/1999/xlink">
    <!-- Generator: Sketch 64 (93537) - https://sketch.com -->
    <title>Graphics / 01 Flags/RSD</title>
    <desc>Created with Sketch.</desc>
    <defs>
        <rect id="path-1" x="0" y="0" width="48" height="48" rx="5"></rect>
    </defs>
    <g id="Graphics-/-01-Flags/RSD" stroke="none" stroke-width="1" fill="none" fill-rule="evenodd">
        <mask id="mask-2" fill="white">
            <use xlink:href="#path-1"></use>
        </mask>
        <g id="Mask" fill-rule="nonzero"></g>
        <g id="Group" mask="url(#mask-2)" fill-rule="nonzero">
            <g id="Background">
                <polygon id="Path" fill="#FFFFFF" points="0 0 48 0 48 48 0 48"></polygon>
                <polygon id="Path" fill="#0C4076" points="0 0 48 0 48 32 0 32"></polygon>
                <polygon id="Path" fill="#C6363C" points="0 0 48 0 48 17 0 17"></polygon>
                <path d="M16.7776,16.0624 L16.7776,30.5328 C16.7776,33.1226667 17.7813333,35.4736 19.4,37.1770667 C21.0186667,38.8805333 23.2533333,39.9370667 25.7146667,39.9370667 C28.1754667,39.9370667 30.4101333,38.8810667 32.0288,37.1776 C33.648,35.4736 34.6512,33.1226667 34.6512,30.5333333 L34.6512,16.0634667 L16.7770667,16.0634667 L16.7776,16.0624 Z" id="Path" fill="#C6363C"></path>
            </g>
            <path d="M21.9802667,31.1744 C22.0074667,31.44 21.9669333,31.8346667 21.376,32.6106667 C20.9498667,33.1706667 20.4810667,33.4010667 20.6474667,33.4469333 C20.7178667,33.4666667 20.8282667,33.3733333 21.0416,33.1984 C21.1776,33.0874667 21.2650667,33.0416 21.4128,33.0544 C21.4611376,33.0584043 21.4919887,33.0872195 21.5128803,33.1285064 C21.6971742,33.0472121 21.9125867,33.1107043 22.1018667,33.3770667 C22.1584,33.456 22.0949333,33.4906667 22.0309333,33.4426667 C21.9356633,33.3717579 21.776523,33.3789127 21.5977949,33.4678937 L21.6144,33.4944 C21.5818667,33.7477333 21.3824,33.832 21.1210667,33.6928 C20.9792,33.6170667 20.4250667,33.8928 20.3088,34.0304 C20.2416,34.1098667 20.2250667,34.2410667 20.1562667,34.368 C20.0816,34.5050667 19.8570667,34.9904 19.912,35.2592 C19.9637333,35.5130667 19.912,35.6085333 19.5914667,35.6437333 C19.591098,35.6433837 19.5907301,35.6430353 19.5903631,35.6426883 C19.5161057,35.8152984 19.4878816,35.9466644 19.5322667,36.0554667 C19.568,36.1424 19.528,36.2213333 19.4405333,36.1461333 C19.2092497,35.9474933 19.128111,35.7300852 19.1623695,35.5369019 C19.0006276,35.2596682 19.0976938,35.2211341 19.2501333,35.0672 C19.4026667,34.7573333 19.7088,34.4613333 19.8421333,34.144 C19.7333333,34.3045333 19.0085333,34.576 18.9978667,34.7850667 C18.9877333,34.9866667 18.6901333,35.0138667 18.5514667,34.8074667 L18.5890746,34.8534072 C18.5373515,34.9136684 18.5181061,34.9822694 18.5221333,35.0608 C18.5264,35.1408 18.4741333,35.1712 18.4442667,35.0778667 C18.3216533,34.79312 18.3176887,34.6182377 18.3887609,34.515438 C18.3678444,34.3520462 18.4278737,34.2115495 18.6346667,34.2026667 C18.9744,34.1776 19.4602667,34.0725333 19.528,33.9109333 C19.3488,33.976 18.8112,33.8570667 18.6565333,33.9829333 C18.5346156,34.0824738 18.3912071,33.9369638 18.3573427,33.8145301 L18.4096,33.8421333 C18.1957333,33.7168 18.0725333,33.7216 17.9898667,33.8154667 C17.944,33.8661333 17.8858667,33.84 17.92,33.7589333 C18.0429511,33.4677333 18.229997,33.3968593 18.410313,33.4859017 C18.5087361,33.4050993 18.7082033,33.3954636 18.8581333,33.5317333 C18.8773333,33.5642667 19.6490667,33.5898667 19.7536,33.5557333 C19.8544,33.5221333 19.9536,33.4634667 20.08,33.3797333 C20.4517333,32.9061333 20.7205333,32.3573333 20.9882667,31.8112 C21.6,31.2794667 21.8096,31.1818667 21.9802667,31.1744 Z M29.4490667,31.1744 C29.6197333,31.1818667 29.8293333,31.2794667 30.4410667,31.8112 C30.7088,32.3573333 30.9776,32.9061333 31.3493333,33.3797333 C31.4757333,33.4634667 31.5749333,33.5221333 31.6757333,33.5557333 C31.7802667,33.5898667 32.552,33.5642667 32.5712,33.5317333 C32.7211301,33.3954636 32.9205973,33.4050993 33.0192911,33.4875658 C33.1995683,33.3969473 33.3864585,33.467914 33.5093333,33.7589333 C33.5434667,33.84 33.4853333,33.8661333 33.4394667,33.8154667 C33.3568,33.7216 33.2336,33.7168 33.0197333,33.8421333 L33.0719907,33.8145301 C33.0381262,33.9369638 32.8947177,34.0824738 32.7728,33.9829333 C32.6181333,33.8570667 32.0805333,33.976 31.9013333,33.9109333 C31.9690667,34.0725333 32.4549333,34.1776 32.7946667,34.2026667 C33.0014596,34.2115495 33.0614889,34.3520462 33.0406746,34.5151838 C33.1116447,34.6182377 33.10768,34.79312 32.9850667,35.0778667 C32.9552,35.1712 32.9029333,35.1408 32.9072,35.0608 C32.9112054,34.9826939 32.8921892,34.9144103 32.8410947,34.8543851 L32.8778667,34.8074667 C32.7392,35.0138667 32.4416,34.9866667 32.4314667,34.7850667 C32.4208,34.576 31.696,34.3045333 31.5872,34.144 C31.7205333,34.4613333 32.0266667,34.7573333 32.1792,35.0672 C32.3316396,35.2211341 32.4287058,35.2596682 32.2682903,35.5344275 C32.3012223,35.7300852 32.2200836,35.9474933 31.9888,36.1461333 C31.9013333,36.2213333 31.8613333,36.1424 31.8970667,36.0554667 C31.9414517,35.9466644 31.9132276,35.8152984 31.8396646,35.6432596 L31.8378667,35.6437333 C31.5173333,35.6085333 31.4656,35.5130667 31.5173333,35.2592 C31.5722667,34.9904 31.3477333,34.5050667 31.2730667,34.368 C31.2042667,34.2410667 31.1877333,34.1098667 31.1205333,34.0304 C31.0042667,33.8928 30.4501333,33.6170667 30.3082667,33.6928 C30.0469333,33.832 29.8474667,33.7477333 29.8149333,33.4944 L29.8315384,33.4678937 C29.6528103,33.3789127 29.49367,33.3717579 29.3984,33.4426667 C29.3344,33.4906667 29.2709333,33.456 29.3274667,33.3770667 C29.5167467,33.1107043 29.7321591,33.0472121 29.9173817,33.1294396 C29.9373446,33.0872195 29.9681957,33.0584043 30.0165333,33.0544 C30.1642667,33.0416 30.2517333,33.0874667 30.3877333,33.1984 C30.6010667,33.3733333 30.7114667,33.4666667 30.7818667,33.4469333 C30.9482667,33.4010667 30.4794667,33.1706667 30.0533333,32.6106667 C29.4624,31.8346667 29.4218667,31.44 29.4490667,31.1744 Z M29.7808,16.9477333 C30.6672,17.0437333 30.6250667,17.6234667 29.7962667,18.4432 C29.6378667,18.6 29.5829333,18.5952 29.5493333,18.4325333 C29.4906667,18.1472 29.1749333,17.9792 29.0096,18.1957333 C28.8970667,18.3434667 28.9221333,18.4282667 28.5466667,18.376 C28.4212346,18.4812557 28.3019986,18.578225 28.2059335,18.6634912 C28.3344,18.6368 28.6448,18.7328 29.1866667,18.8672 C29.5882667,18.9664 29.9424,18.792 30.2389333,18.4384 C30.1376,18.9445333 29.6794667,19.1834667 28.8896,19.1557333 L28.9602005,19.1571785 C29.0178508,19.1644605 29.0792,19.1679255 29.1456,19.1653333 C29.0405333,19.3690667 29.0218667,19.3930667 28.9648,19.4106667 C28.6202667,19.4784 28.2570667,19.2629333 27.9093333,19.3269333 C27.1477333,19.4677333 29.1301333,17.2666667 29.1056,17.1797333 C29.0426667,16.9584 29.5818667,16.5610667 29.7808,16.9477333 Z M21.6485333,16.9477333 C21.8474667,16.5610667 22.3866667,16.9584 22.3237333,17.1797333 C22.2992,17.2666667 24.2816,19.4677333 23.52,19.3269333 C23.1722667,19.2629333 22.8090667,19.4784 22.4645333,19.4106667 C22.4074667,19.3930667 22.3888,19.3690667 22.2837333,19.1653333 C22.3501333,19.1679255 22.4114826,19.1644605 22.4691328,19.1571785 L22.5397333,19.1557333 C21.7498667,19.1834667 21.2917333,18.9445333 21.1904,18.4384 C21.4869333,18.792 21.8410667,18.9664 22.2426667,18.8672 C22.7845333,18.7328 23.0949333,18.6368 23.2186667,18.6608 C23.1279501,18.5787255 23.0084225,18.4815274 22.8826667,18.376 C22.5072,18.4282667 22.5322667,18.3434667 22.4197333,18.1957333 C22.2544,17.9792 21.9386667,18.1472 21.88,18.4325333 C21.8464,18.5952 21.7914667,18.6 21.6330667,18.4432 C20.8042667,17.6234667 20.7621333,17.0437333 21.6485333,16.9477333 Z M24.9557348,7.06319886 L24.9531604,7.08846317 C24.9530981,7.08904582 24.9530356,7.08963101 24.952973,7.09021875 L25.0037333,7.11637315 C25.3898667,7.35742195 26.0432,7.35474363 26.4245333,7.11637315 C26.4431789,7.10479736 26.4603485,7.0960579 26.476149,7.08988329 C26.4757644,7.08963101 26.4757019,7.08904582 26.4756396,7.08846317 L26.4717348,7.06319886 L26.5241082,7.06413398 C27.1210434,7.06939802 29.3276489,7.15863933 30.4874402,7.7339038 C30.5032345,7.74205375 30.5193539,7.7502434 30.5352592,7.75853037 C30.5632871,7.77282304 30.5901965,7.78748025 30.6164225,7.80243572 C30.6291464,7.80999798 30.6421564,7.81758468 30.6549894,7.82524738 C30.6723859,7.83533782 30.6889955,7.84558101 30.7052853,7.85595818 C30.7266693,7.86986861 30.7476604,7.88382271 30.7680669,7.89801505 C30.7895138,7.91267265 30.8097432,7.92743609 30.829333,7.94245267 C30.8410692,7.95169389 30.8529138,7.96104498 30.8645089,7.9704933 C30.878663,7.98179585 30.8924129,7.99345397 30.9057806,8.00525816 C30.93124,8.02818177 30.949974,8.04597987 30.9678344,8.06410257 L30.9898267,8.08629955 C31.9509783,8.31476389 32.8509315,8.7255357 33.3770667,9.18457186 C33.7610667,9.51936186 33.2938667,10.1964412 32.7221333,11.2254517 C32.6708537,11.2626618 32.6235223,11.2969766 32.5796593,11.3276724 C32.8173002,11.3107297 33.0826074,11.3868926 32.9765333,11.6229144 C32.9429333,11.6963004 32.8517333,11.7632584 32.8378667,11.7311185 C32.7370704,11.7488527 32.6109048,11.7398135 32.4645333,11.7054066 L32.5301991,11.7184868 C32.5213298,11.735433 32.5133449,11.7533602 32.5066667,11.7723646 C32.4453333,11.9469911 32.3781333,12.1451868 32.1733333,12.2303574 L32.2516802,12.1887995 C32.254675,12.2166393 32.2428,12.2509135 32.2128,12.2887447 C32.2004402,12.3001382 32.1882148,12.3127194 32.1761195,12.3265053 C32.1704725,12.3373668 32.1624308,12.3460013 32.1536891,12.354793 C32.0976102,12.4256411 32.0447012,12.5236036 31.9941333,12.6497823 L32.0036316,12.6284879 C31.9950761,12.6556245 31.9844702,12.6808694 31.970016,12.7002712 C31.9185852,12.7945501 31.866914,12.8366358 31.8117333,12.8297654 L31.8473791,12.8269168 C31.8232043,12.9932056 31.7573871,13.1515914 31.6549333,13.2866868 C31.5850954,13.3762664 31.517467,13.4522854 31.4525376,13.5151981 C31.3300536,13.7127229 31.2221522,13.922693 31.1173333,14.1351785 L31.1702922,14.0295992 C31.1789506,14.0305077 31.1876087,14.0314183 31.1962667,14.0323311 C31.5005333,14.1576417 31.2982032,14.3399953 31.0806647,14.3581754 L31.0607883,14.4574392 C31.2854619,14.6706302 31.0760259,15.543883 30.8138667,15.6318238 L30.8138667,15.6318238 L30.7957348,15.7151989 L30.8275072,15.7238937 C30.8964907,15.7517482 30.93216,15.8063431 30.9296,15.8616236 C30.9328,15.9312599 30.8762667,15.9987536 30.7696,16.0148235 C30.7450667,16.0217872 30.7178667,16.0266081 30.688,16.0292864 C27.3781484,16.3098091 24.0506516,16.3098091 20.7408,16.0292864 C20.7132257,16.0269136 20.6859174,16.0220734 20.6592,16.0148235 C20.5525333,15.9987536 20.4954667,15.9312599 20.4992,15.8616236 C20.4958014,15.7982306 20.5427894,15.7366132 20.6317145,15.7139505 L20.6149333,15.6318238 C20.3525683,15.543814 20.1430093,14.6692588 20.3685415,14.4569384 L20.3443606,14.3369876 C20.3250393,14.3389859 20.305719,14.3409955 20.2864,14.3430162 C19.977376,14.3362775 20.0702174,14.0963418 20.2509026,14.0152265 C20.1647193,13.8431203 20.0741524,13.6730517 19.9737996,13.510471 C19.9098988,13.4499432 19.8432284,13.3748883 19.7744,13.2866868 C19.6719462,13.1515914 19.606129,12.9932056 19.5819542,12.8269168 L19.6170667,12.8297654 C19.56544,12.8361933 19.5168853,12.7997682 19.4697643,12.7188444 L19.4644781,12.7073693 C19.4470555,12.687248 19.4348099,12.6590692 19.4251684,12.6284879 L19.4346667,12.6497823 C19.3840988,12.5236036 19.3311898,12.4256411 19.2755061,12.3541528 C19.2650056,12.3446299 19.2558357,12.3346769 19.2484004,12.3248426 C19.2381388,12.310215 19.2271238,12.2989989 19.216,12.2887447 C19.1856471,12.2504684 19.1738481,12.2158334 19.1772317,12.1878196 L19.2554667,12.2303574 C19.0506667,12.1451868 18.9834667,11.9469911 18.9221333,11.7723646 C18.9154551,11.7533602 18.9074702,11.735433 18.8986009,11.7184868 L18.9642667,11.7054066 C18.8178952,11.7398135 18.6917296,11.7488527 18.586753,11.7335119 C18.5770667,11.7632584 18.4858667,11.6963004 18.4522667,11.6229144 C18.3463407,11.3872222 18.6107595,11.3109428 18.8477957,11.3265037 L18.7912466,11.2865921 L18.7912466,11.2865921 L18.7066667,11.2254517 C18.1349333,10.1964412 17.6677333,9.51936186 18.0517333,9.18457186 C18.5778422,8.72555867 19.4777316,8.31480499 20.438829,8.08633384 L20.4392233,8.08663867 L20.5058091,8.02093493 C20.509279,8.01776079 20.5127762,8.01459705 20.5163006,8.01144367 C20.5293355,7.99956957 20.542379,7.98834912 20.5557647,7.97726147 C20.5703764,7.96540157 20.5853405,7.95350727 20.6006954,7.94176793 C20.6226652,7.92469319 20.6459131,7.90786611 20.6699548,7.89136347 C20.6817348,7.88356573 20.6934304,7.87574331 20.7053031,7.86799453 C20.7268084,7.85365688 20.7491634,7.83969274 20.7720866,7.82597197 C20.7879808,7.81677304 20.8036136,7.80768645 20.8194927,7.79870793 C20.8434012,7.78486331 20.8685444,7.77122627 20.8942475,7.75784328 C20.9077336,7.75114408 20.9209454,7.7444093 20.9342973,7.73773947 C22.0916554,7.15902345 24.3064732,7.06940934 24.9046918,7.06413398 L24.9557348,7.06319886 Z M31.2091919,8.62060668 L31.2098534,8.6410931 C31.2067592,8.71011567 31.193981,8.78213515 31.1706667,8.85728115 C31.0090667,9.38062488 30.8197333,9.94307208 30.632,10.5510507 C30.624,10.5756913 30.5477333,10.6131877 30.5264,10.6281863 C30.4474942,10.6823679 30.3248292,10.7914875 30.2439648,10.9099288 L30.2336,10.9340505 C30.2319554,10.9347767 30.2303097,10.9354986 30.2286628,10.9362161 L30.2011388,10.9902357 L30.2011388,10.9902357 L30.2363157,10.9923897 L30.2363157,10.9923897 C30.4194817,11.0159667 30.335009,11.1796828 30.1866667,11.3491901 C30.1066667,11.4407886 29.9578667,11.5222096 29.872,11.5972025 C29.8250259,11.637935 29.7967264,11.6769041 29.7757504,11.7066554 C29.8069192,11.7451511 29.8282086,11.7920702 29.8395621,11.8434275 L29.8581333,11.7943269 C29.8837333,11.768615 29.9392,11.7664723 30.0277333,11.7021927 C30.072,11.6705885 30.1242667,11.62345 30.1770667,11.5779186 C30.2298667,11.5334585 30.2821333,11.4900697 30.328,11.4648935 C30.5072,11.368474 30.6394667,11.3481188 30.5152,11.5934529 C30.5084386,11.6066835 30.5020085,11.6200932 30.4961881,11.6334024 C30.4654491,11.7384452 30.498446,11.7871785 30.5690667,11.8634275 C30.656,11.9566331 30.5674667,12.1612567 30.4997333,12.2448203 C30.4645333,12.2876734 30.4208,12.2742818 30.3696,12.3064216 C30.2901333,12.3557027 30.2832,12.3942705 30.2512,12.4280174 C30.2101333,12.4719418 30.1834667,12.5447921 30.1674667,12.6149641 C30.159952,12.6484359 30.14323,12.6722581 30.1277235,12.6930812 C30.1255224,12.6981009 30.1229901,12.7022996 30.1203771,12.7061549 L30.1024,12.7306675 C30.1013095,12.7300361 30.1002267,12.7293937 30.099152,12.7287403 L30.0752,12.7392382 C30.0272,12.7478088 29.9658667,12.694778 29.8981333,12.6058578 C29.8522667,12.5447921 29.8224,12.4183754 29.7850667,12.3487391 C29.7591362,12.3003197 29.7267033,12.2815405 29.7071204,12.265568 L29.6937382,12.279494 C29.619922,13.4075275 29.9616153,13.5021265 30.624,12.62782 C30.5952,12.5613977 30.6330667,12.4622999 30.5386667,12.4724775 C30.4805333,12.4783698 30.4602667,12.3723083 30.5184,12.3465964 C30.6533333,12.2871377 30.7610667,12.3530244 30.8053333,12.4944397 C30.8986667,12.4060552 30.9941333,12.3937349 31.1008,12.4730132 C31.1424,12.5217586 31.0784,12.6101431 31.0282667,12.5790746 C30.9328,12.5201516 30.9664,12.6679948 30.8821333,12.6985277 C30.9456,13.584516 31.2837333,13.5625537 31.6613333,12.6304984 L31.6317348,12.6981989 L31.5867708,12.6997989 C31.4623347,12.7352371 31.3083429,12.9463106 31.2672,12.9417192 C31.2651542,12.9387029 31.2640479,12.9391507 31.2629333,12.9395765 C31.2064,12.9610031 31.1834667,12.9577891 31.1397333,12.9476115 C31.152,12.913329 31.1472,12.8645835 31.1781333,12.8163738 C31.2170667,12.7547724 31.2517333,12.6835291 31.2549333,12.6213921 C31.2576,12.5731823 31.2805333,12.5405068 31.2618667,12.444623 C31.2496,12.3830216 31.2096,12.3594524 31.2170667,12.302672 C31.2304,12.1923252 31.3168,11.9802023 31.4432,11.9802023 C31.5685333,11.9802023 31.6266667,11.9668107 31.6912,11.7996835 C31.7130667,11.7429031 31.7418667,11.7155843 31.7605333,11.6871941 C31.7632878,11.6911566 31.7637751,11.6875841 31.7642667,11.6839801 C31.7738667,11.6138081 31.9072,11.6620179 31.9098667,11.7814709 C31.9124807,11.9069678 31.9217571,11.9773889 31.8954964,12.0835564 L31.9141333,12.0760861 C31.9262496,12.0724252 31.9385252,12.0695338 31.9508902,12.0674089 C31.9576354,12.0471944 31.9687672,12.0213042 31.9845333,11.9914512 L32.0139861,11.9255088 C32.0479147,11.8333232 32.0578133,11.7261904 32.0117333,11.6293424 C31.9448889,11.4892507 31.9372478,11.3098917 32.0560116,11.3271856 C32.1420101,11.1091559 32.0849747,10.8105014 32.0533333,10.7433541 C32.0368,10.7080003 32.0864,10.630329 32.1077333,10.5997961 C32.1198129,10.5826079 32.1316841,10.5656945 32.143348,10.5490496 L32.1082667,10.5987248 C32.3327719,10.2793732 32.485267,10.0549338 32.5723676,9.88471945 C32.7521314,9.53360173 32.6531088,9.41355412 32.3333333,9.16635928 C32.085981,8.97534006 31.6590416,8.78724185 31.2091919,8.62060668 Z M20.218399,8.61974278 L20.1773604,8.6363458 C19.7431585,8.79904174 19.3350624,8.98133017 19.0954667,9.16635928 C18.8710788,9.33981702 18.7553872,9.45066884 18.768506,9.62284247 C18.7761583,9.72446537 18.8291074,9.84795726 18.9314022,10.0186517 C19.0216142,10.1694026 19.1505974,10.3572315 19.3210667,10.5997961 C19.3424,10.630329 19.392,10.7080003 19.3754667,10.7433541 C19.3438253,10.8105014 19.2867899,11.1091559 19.3702511,11.3295533 C19.4915252,11.3105204 19.4837939,11.4894963 19.4170667,11.6293424 C19.3594667,11.7504024 19.3893333,11.8875324 19.4442667,11.9914512 C19.4600328,12.0213042 19.4711646,12.0471944 19.4783296,12.069762 C19.4902748,12.0695338 19.5025504,12.0724252 19.5146667,12.0760861 L19.5335691,12.0846264 C19.5069806,11.9778609 19.5163105,11.907389 19.5189333,11.7814709 C19.5216,11.6620179 19.6549333,11.6138081 19.6645333,11.6839801 C19.6650249,11.6875841 19.6655122,11.6911566 19.6659957,11.694698 C19.6869333,11.7155843 19.7157333,11.7429031 19.7376,11.7996835 C19.8021333,11.9668107 19.8602667,11.9802023 19.9856,11.9802023 C20.112,11.9802023 20.1984,12.1923252 20.2117333,12.302672 C20.2192,12.3594524 20.1792,12.3830216 20.1669333,12.444623 C20.1482667,12.5405068 20.1712,12.5731823 20.1738667,12.6213921 C20.1770667,12.6835291 20.2117333,12.7547724 20.2506667,12.8163738 C20.2816,12.8645835 20.2768,12.913329 20.2890667,12.9476115 C20.2453333,12.9577891 20.2224,12.9610031 20.1658667,12.9395765 C20.1644178,12.939023 20.1629828,12.9384323 20.1615617,12.9378048 C20.1136,12.9470758 19.912,12.6588886 19.7829333,12.6985277 L19.7973494,12.7001051 C20.1626958,13.5625747 20.4853546,13.5618836 20.5472,12.6985277 C20.4629333,12.6679948 20.4965333,12.5201516 20.4010667,12.5790746 C20.3509333,12.6101431 20.2869333,12.5217586 20.3285333,12.4730132 C20.4357333,12.3937349 20.5306667,12.4060552 20.624,12.4944397 C20.6682667,12.3530244 20.776,12.2871377 20.9109333,12.3465964 C20.9690667,12.3723083 20.9493333,12.4783698 20.8906667,12.4724775 C20.7962667,12.4622999 20.8341333,12.5613977 20.8048,12.62782 C21.4741333,13.5105943 21.816,13.4056042 21.7328,12.2464273 L21.7342848,12.2806272 C21.7295579,12.2762224 21.7249119,12.271713 21.7203507,12.2671024 C21.7023542,12.2813919 21.6697667,12.3001276 21.6437333,12.3487391 C21.6064,12.4183754 21.5765333,12.5447921 21.5306667,12.6058578 C21.4629333,12.694778 21.4016,12.7478088 21.3536,12.7392382 L21.329648,12.7287403 C21.3285733,12.7293937 21.3274905,12.7300361 21.3264,12.7306675 L21.3084229,12.7061549 C21.3058099,12.7022996 21.3032776,12.6981009 21.3008288,12.693551 C21.28557,12.6722581 21.268848,12.6484359 21.2613333,12.6149641 C21.2453333,12.5447921 21.2186667,12.4719418 21.1776,12.4280174 C21.1456,12.3942705 21.1386667,12.3557027 21.0592,12.3064216 C21.008,12.2742818 20.9642667,12.2876734 20.9290667,12.2448203 C20.8613333,12.1612567 20.7728,11.9566331 20.8597333,11.8634275 C20.930354,11.7871785 20.9633509,11.7384452 20.9318193,11.6340353 C20.9267915,11.6200932 20.9203614,11.6066835 20.9136,11.5934529 C20.7893333,11.3481188 20.9216,11.368474 21.1008,11.4648935 C21.1466667,11.4900697 21.1989333,11.5334585 21.2517333,11.5779186 C21.3045333,11.62345 21.3568,11.6705885 21.4010667,11.7021927 C21.4896,11.7664723 21.5450667,11.768615 21.5706667,11.7943269 L21.5892379,11.8434275 C21.6005914,11.7920702 21.6218808,11.7451511 21.6515247,11.7054613 C21.6320736,11.6769041 21.6037741,11.637935 21.5568,11.5972025 C21.4709333,11.5222096 21.3221333,11.4407886 21.2421333,11.3491901 C21.0940081,11.1799308 21.0095656,11.0164458 21.1881465,10.9930184 L21.1924843,10.9923897 L21.2273574,10.9902415 L21.2273574,10.9902415 L21.2011254,10.9366461 C21.1991487,10.9357871 21.1971735,10.9349219 21.1952,10.9340505 L21.1848352,10.9099288 C21.1039708,10.7914875 20.9813058,10.6823679 20.9024,10.6281863 C20.8810667,10.6131877 20.8048,10.5756913 20.7968,10.5510507 C20.6090667,9.94307208 20.4197333,9.38062488 20.2581333,8.85728115 C20.2454864,8.81651799 20.2359398,8.77667482 20.2293575,8.73773096 L20.2581333,8.85728115 C20.2406496,8.80080879 20.2291057,8.74609861 20.2231424,8.69309623 C20.2210989,8.67579169 20.2197201,8.65834874 20.2189465,8.6410931 L20.218399,8.61974278 L20.218399,8.61974278 Z M26.9167724,7.52084547 L26.6448,7.52454912 L26.6448,7.52454912 L26.6442667,7.52454912 L26.6544,7.37670586 C26.6457744,7.50802324 26.6367141,7.63584753 26.628067,7.76013744 C26.6235756,7.83351672 26.6182907,7.90828896 26.6131277,7.98341984 C26.602865,8.13743249 26.594395,8.28478159 26.5892097,8.42624171 C26.5870626,8.46113203 26.5860047,8.4985999 26.5852667,8.53630125 L26.5892097,8.42624171 C26.5872765,8.47898089 26.5857999,8.53090154 26.5848713,8.5819992 L26.5852667,8.53630125 C26.5804289,8.78345207 26.5893392,9.04063678 26.6284025,9.31632386 C26.6567501,9.50492674 26.6990121,9.68275081 26.74712,9.86474869 C26.772892,9.95106245 26.7953194,10.0217011 26.8056206,10.0784116 C26.8091803,10.0932283 26.8136477,10.1094417 26.8181333,10.1257335 C26.8246212,10.1498678 26.8204993,10.1715012 26.7972801,10.1974924 C26.7892321,10.2118559 26.7777778,10.2229477 26.7621333,10.231795 C26.7546447,10.2360266 26.7472564,10.240249 26.7399689,10.2444614 C26.7130825,10.264674 26.6747244,10.2883682 26.6249137,10.3169417 C26.5250345,10.3822448 26.4543455,10.442904 26.4109266,10.4963069 C26.3888537,10.5283384 26.3723864,10.5619707 26.3626667,10.5960465 C26.4923592,10.6311393 26.4476875,10.7713928 26.3482667,10.9254799 C26.2864,11.020828 26.1424,11.1172476 26.0677333,11.1997398 C25.9930667,11.2816964 25.9861333,11.3497257 25.9568,11.3706166 L25.9106639,11.3701171 C25.9805986,11.4085849 26.0383049,11.4669398 26.0763822,11.5376644 L26.0762667,11.4922124 C26.0965333,11.4622152 26.1637333,11.4552516 26.2453333,11.3797229 C26.3264,11.3036586 26.4218667,11.1584937 26.5162667,11.095821 C26.669062,10.9946651 26.8079634,10.9493277 26.8328981,11.084813 C26.8345576,11.0925767 26.8353323,11.0995278 26.8359243,11.1064895 C26.8383617,11.1339692 26.8366952,11.1704099 26.8298667,11.2147384 L26.8372406,11.1503219 L26.8372406,11.1503219 L26.8304,11.2147384 C26.8197333,11.2843747 26.8197333,11.3577607 26.8544,11.4022208 C26.8633636,11.413695 26.871111,11.4198754 26.8804669,11.4248837 C26.8902588,11.4300002 26.9013862,11.4338218 26.9169778,11.4407489 C26.9324391,11.4476943 26.9530118,11.4578511 26.9813333,11.4756068 L26.9757348,11.4721989 C26.9930122,11.4833029 27.0045257,11.4913499 27.0153403,11.4997054 C27.0525724,11.528545 27.0821333,11.5610345 27.1029333,11.5961312 C27.1301333,11.6405913 27.1152,11.6888011 27.1152,11.7370108 C27.1152,11.7852206 27.1296,11.8334303 27.1029333,11.8784261 C27.0721556,11.9273059 27.0305375,11.9683725 26.9813333,11.9984148 C26.8976,12.0514456 26.8810667,12.0369827 26.8544,12.0718008 C26.8197333,12.1162609 26.8197333,12.1896469 26.8304,12.2598189 C26.8389333,12.3139209 26.8389333,12.3562384 26.8336,12.3883782 C26.8332731,12.3882429 26.8329461,12.3881075 26.8326188,12.387972 C26.8079634,12.5241782 26.669062,12.4789243 26.5162667,12.3782006 C26.4213333,12.3155279 26.3264,12.170363 26.2453333,12.0942987 C26.1637333,12.0182344 26.0965333,12.0118064 26.0762667,11.9818093 C26.0759453,11.9655093 26.0756481,11.9495375 26.0753788,11.9340184 L26.0615376,11.961748 L26.0615376,11.961748 L26.0560031,11.9702632 L26.0560031,11.9702632 L26.0509915,12.01255 C25.9336018,13.4174733 27.2266667,13.3173982 27.4896,12.2973154 C27.3946667,12.2399993 27.4512,12.0734078 27.3253333,12.1076903 C27.2602667,12.1253672 27.2218667,12.0080568 27.2837333,11.967882 C27.4261333,11.8752121 27.5610667,11.9303855 27.6368,12.0830498 C27.7306667,11.9410988 27.8714667,11.9036023 28.0016,12.0139491 C28.0570667,12.0616232 28.0048,12.173577 27.9418667,12.1473294 C27.8309333,12.1012623 27.8528,12.245356 27.7765333,12.3021363 C28.1317333,13.4243524 28.5696,13.370786 29.1856,12.1200106 L29.1256589,12.2358681 C29.1100997,12.2091068 29.0978459,12.1796984 29.089414,12.1481596 L29.0832,12.1746483 C29.0602667,12.2003602 29.0010667,12.1998245 28.9173333,12.2619615 C28.8330667,12.3240986 28.7253333,12.4483726 28.6330667,12.4965824 C28.4845867,12.574575 28.355904,12.6045722 28.3524224,12.4829037 C28.3514667,12.4499796 28.3584,12.4108761 28.3744,12.3621307 C28.3952,12.2973154 28.4064,12.2287504 28.3824,12.1832189 C28.3632,12.1478651 28.3461333,12.159114 28.2778667,12.100191 C28.2330667,12.0616232 28.2016,12.0171631 28.1829333,11.9705603 C28.1637333,11.9234219 28.1850667,11.8773548 28.192,11.829145 C28.1994667,11.7809353 28.1925333,11.7305828 28.2256,11.6877297 C28.2619468,11.642244 28.3080785,11.6056169 28.3605333,11.5805969 C28.448,11.5377438 28.4608,11.5538137 28.4922667,11.5216739 C28.5118319,11.5017612 28.5250171,11.4733901 28.5336324,11.4408233 C28.5430837,11.4070421 28.547166,11.3680637 28.5482667,11.3293705 L28.5447348,11.3701989 L28.5477333,11.3299062 C28.548318,11.2979012 28.5508257,11.26992 28.554905,11.2456979 C28.5560949,11.2408403 28.5569801,11.2357611 28.5579288,11.2308529 L28.554905,11.2456979 C28.5582677,11.225731 28.5626983,11.2083184 28.568,11.1933119 L28.5618996,11.2127631 C28.6039737,11.0430892 28.7343694,11.1136261 28.864,11.2506279 C28.9392,11.3288348 28.9968,11.4906054 29.0544,11.5773829 C29.112,11.6630892 29.1696,11.6775521 29.1813333,11.7091563 C29.1776333,11.7290428 29.1739708,11.7483644 29.1703986,11.7668985 C29.2047761,11.7180164 29.2473422,11.6773523 29.2948608,11.6459831 C29.2896027,11.6134413 29.2816889,11.5650372 29.2528,11.5082823 C29.2037333,11.4102558 29.0928,11.2854461 29.0565333,11.170814 C28.9977732,10.9853919 28.9849273,10.8186121 29.1057794,10.8020864 L29.0944,10.8478086 C29.1637333,10.6935373 29.0858667,10.5039123 28.9984,10.370532 L28.966144,10.3314328 C28.9335467,10.2893681 28.9429333,10.2792548 28.9984,10.2012621 C29.2260267,9.88007799 29.4229333,9.57483522 29.5630763,9.29698416 L29.6282968,9.16018097 C29.7889612,8.80237202 29.8409956,8.49674357 29.7226667,8.27019341 C29.4816842,7.80816911 28.6190449,7.54426334 27.1775348,7.52221653 L26.9167724,7.52084547 L26.9167724,7.52084547 Z M24.5116497,7.52084547 C22.9133932,7.51390113 21.9612912,7.78099121 21.7061333,8.27019341 C21.5878044,8.49674357 21.6398388,8.80237202 21.8005032,9.16018097 L21.8657237,9.29698416 C22.0058667,9.57483522 22.2027733,9.88007799 22.4304,10.2012621 C22.4858667,10.2792548 22.4952533,10.2893681 22.462656,10.3314328 L22.4304,10.370532 C22.3429333,10.5039123 22.2650667,10.6935373 22.3344,10.8478086 L22.322407,10.802004 C22.4439159,10.8180487 22.4311261,10.9850787 22.3722667,11.170814 C22.336,11.2854461 22.2250667,11.4102558 22.176,11.5082823 C22.1471111,11.5650372 22.1391973,11.6134413 22.1329121,11.6484109 C22.1821026,11.6777779 22.2251781,11.7191216 22.2601092,11.7671585 L22.2474667,11.7091563 L22.2474667,11.7091563 C22.2592,11.6775521 22.3168,11.6630892 22.3744,11.5773829 C22.432,11.4906054 22.4896,11.3288348 22.5648,11.2506279 C22.6761212,11.1329766 22.7880066,11.0643408 22.8440375,11.1547541 L22.8608,11.1933119 L22.8608,11.1933119 C22.8725333,11.226523 22.88,11.2715188 22.8810667,11.3299062 C22.8820126,11.3631578 22.8851604,11.39662 22.8918584,11.4271176 C22.8935164,11.4365213 22.8958573,11.4453824 22.8985531,11.453896 C22.9074124,11.4808053 22.9195768,11.5044162 22.9365333,11.5216739 C22.968,11.5538137 22.9808,11.5377438 23.0682667,11.5805969 C23.1207215,11.6056169 23.1668532,11.642244 23.2032,11.6877297 C23.2362667,11.7305828 23.2293333,11.7809353 23.2368,11.829145 C23.2437333,11.8773548 23.2650667,11.9234219 23.2458667,11.9705603 C23.2272,12.0171631 23.1957333,12.0616232 23.1509333,12.100191 C23.0826667,12.159114 23.0656,12.1478651 23.0464,12.1832189 C23.0224,12.2287504 23.0336,12.2973154 23.0544,12.3621307 C23.0704,12.4108761 23.0773333,12.4499796 23.0768,12.4799768 C23.074716,12.6049943 22.9452639,12.5751269 22.7957333,12.4965824 C22.7034667,12.4483726 22.5957333,12.3240986 22.5114667,12.2619615 C22.4277333,12.1998245 22.3685333,12.2003602 22.3456,12.1746483 L22.3396667,12.1471035 C22.331227,12.1790421 22.3188739,12.2088083 22.3031411,12.2358681 C22.8874315,13.3730014 23.3088515,13.3887511 23.6522667,12.3021363 C23.5765333,12.245356 23.5984,12.1012623 23.4869333,12.1478651 C23.4245333,12.173577 23.3717333,12.0621589 23.4277333,12.0139491 C23.5578667,11.9036023 23.6981333,11.9410988 23.7925333,12.0830498 C23.8688,11.9303855 24.0032,11.8752121 24.1461333,11.967882 C24.2074667,12.0080568 24.1690667,12.1253672 24.1034667,12.1076903 C23.9781333,12.0739435 24.0346667,12.2399993 23.9397333,12.2973154 C24.2117333,13.3525734 25.5861333,13.4232811 25.3610667,11.8618205 L25.3737274,11.972442 C25.3658675,11.9608226 25.3585731,11.9487807 25.3518845,11.9363572 L25.3525333,11.9818093 L25.3525333,11.9818093 C25.3322667,12.0118064 25.2650667,12.0182344 25.1834667,12.0942987 C25.1024,12.170363 25.0074667,12.3155279 24.9125333,12.3782006 C24.759738,12.4789243 24.6208366,12.5241782 24.5959019,12.3892399 L24.5952,12.3883782 C24.5898667,12.3562384 24.5898667,12.3139209 24.5984,12.2598189 C24.6090667,12.1896469 24.6090667,12.1162609 24.5744,12.0718008 C24.5477333,12.0369827 24.5312,12.0514456 24.4474667,11.9984148 C24.3982625,11.9683725 24.3566444,11.9273059 24.3258667,11.8784261 C24.2992,11.8334303 24.3136,11.7852206 24.3136,11.7370108 C24.3136,11.6888011 24.2986667,11.6405913 24.3258667,11.5961312 L24.3572741,11.5526234 L24.3572741,11.5526234 L24.3982222,11.5120716 C24.4066513,11.5048834 24.4155635,11.4978943 24.4249589,11.4911286 C24.4323374,11.4856751 24.4397714,11.4805808 24.4474667,11.4756068 L24.4988,11.4468902 L24.4988,11.4468902 L24.5324,11.4320841 C24.5502667,11.4247187 24.5610667,11.4196299 24.5744,11.4022208 C24.6049,11.3631045 24.6089787,11.3015977 24.6022543,11.2399534 C24.60081,11.2315321 24.5996821,11.2231082 24.5984,11.2147384 C24.5903529,11.1721676 24.5892721,11.1285636 24.5952,11.0856434 C24.6208366,10.9493277 24.759738,10.9946651 24.9125333,11.095821 C25.0069333,11.1584937 25.1024,11.3036586 25.1834667,11.3797229 C25.2650667,11.4552516 25.3322667,11.4622152 25.3525333,11.4922124 L25.3518845,11.5376644 L25.3518845,11.5376644 L25.3722635,11.5037584 C25.4093026,11.4482565 25.4591867,11.4022491 25.5176027,11.3701171 C25.504221,11.3712328 25.4885437,11.3709366 25.4725333,11.3706166 C25.4426667,11.3502614 25.4362667,11.2816964 25.3616,11.1992042 C25.2869333,11.1172476 25.1429333,11.020828 25.0810667,10.9254799 C24.981859,10.7717232 24.937166,10.6317409 25.0676683,10.6052052 L25.0661333,10.5960465 C25.0567111,10.5630139 25.0409481,10.5303979 25.0191012,10.4987342 C24.9768578,10.4455487 24.9060308,10.3843078 24.8087082,10.31914 C24.7551832,10.2890518 24.7161357,10.2649697 24.6867042,10.2441557 L24.6661333,10.231795 C24.6504889,10.2229477 24.6390346,10.2118652 24.6311109,10.1984908 C24.6083007,10.1715012 24.6041788,10.1498678 24.6106667,10.1257335 C24.6151523,10.1094417 24.6196197,10.0932283 24.6240642,10.0770844 C24.6330112,10.0217165 24.6554109,9.95119668 24.6807822,9.86598845 C24.712793,9.74704445 24.7414609,9.63108597 24.7657355,9.51321969 C24.8277717,9.19478393 24.8458768,8.903947 24.8445128,8.62674167 C24.8423882,8.43388749 24.8315572,8.22631023 24.8173996,8.0067037 C24.8024059,7.79285486 24.7863982,7.58335186 24.7808,7.37081355 L24.7897348,7.60319886 L24.7845333,7.52454912 Z M25.7141333,4.02719886 C25.8058667,4.02719886 25.88,4.10165616 25.8805333,4.19432603 C25.9701333,4.19646869 26.0421333,4.27092598 26.0421333,4.36198886 C26.0427509,4.45285583 25.9709695,4.52756825 25.8805333,4.53018736 L25.8805333,4.5296517 L25.8805333,4.87408365 L26.1733333,4.87408365 C26.1744,4.78194944 26.248,4.70695648 26.3397333,4.70695648 C26.429983,4.70752081 26.5033328,4.78024056 26.5050667,4.87086966 C26.5967584,4.87145953 26.6706958,4.94643863 26.6704009,5.0385325 C26.6704009,5.13120237 26.5962667,5.20619533 26.5050667,5.20619533 C26.5029333,5.29725821 26.4298667,5.37010851 26.3392,5.37010851 C26.2505515,5.36962738 26.1778432,5.29942826 26.1738667,5.21048064 L26.1738667,5.21048064 L25.8805333,5.21048064 L25.8797348,6.33319886 L26.1638667,6.33637941 C26.3132,6.33939252 26.4621333,6.34367783 26.6106667,6.34876664 L26.6112,6.34876664 C26.632487,6.45385862 26.6357337,6.56183171 26.6208,6.66802238 C26.32,6.6573091 26.0181333,6.65034547 25.7141333,6.65034547 C25.4106667,6.65034547 25.1093333,6.65784477 24.808,6.66802238 C24.7929608,6.56183758 24.7962081,6.45384637 24.8176,6.34876664 C25.0606218,6.34003377 25.303998,6.33414831 25.5483064,6.33227082 L25.5482667,5.21048064 L25.2554667,5.21048064 C25.2514704,5.2998413 25.1781282,5.37019861 25.0890667,5.37010851 C24.998817,5.36954418 24.9254672,5.29682444 24.9237333,5.20619533 C24.8320416,5.20560546 24.7581042,5.13062636 24.7583991,5.0385325 C24.7583991,4.94586262 24.8325333,4.87086966 24.9237333,4.87086966 C24.9257521,4.78015449 24.9992587,4.70751362 25.0896,4.70695648 C25.1808,4.70695648 25.2549333,4.78194944 25.2549333,4.87408365 L25.2549333,4.87408365 L25.5482667,4.87408365 L25.5482667,4.5296517 C25.4586667,4.52750904 25.3866667,4.45305174 25.3866667,4.36198886 C25.386347,4.27112702 25.4583627,4.19665527 25.5488,4.19432603 C25.5488,4.10219182 25.6234667,4.02719886 25.7141333,4.02719886 Z" id="Combined-Shape" fill="#EDB92E"></path>
            <path d="M34.7141333,16 L34.7141333,29.0341333 C34.7466667,30.6661333 34.7306667,32.3402667 34.1301333,33.8848 C33.0112,37.0826667 30.0394667,39.616 26.6325333,39.9509333 C26.3642667,39.9088 25.7749333,40.1648 25.7136,39.8746667 C26.7149057,39.8745496 27.7081895,39.6961197 28.6469333,39.3477333 C32.0554667,38.1130667 34.4208,34.6645333 34.5728,31.0730667 C34.6085333,26.0912 34.5776,21.1082667 34.5882667,16.1264 L34.5882667,16.1264 L16.84,16.1264 L16.84,29.8730667 C16.7258667,32.2202667 17.3989333,34.6213333 18.8725333,36.4704 C18.9706667,36.7290667 19.5237333,36.9893333 19.3536,37.2197333 C17.7813333,35.5733333 16.8464,33.3493333 16.7296,31.0789333 C16.6938667,26.0533333 16.7248,21.0261333 16.7141333,16 L16.7141333,16 L34.7141333,16 Z M22.1397028,28.2986667 C22.1391619,28.4356823 22.1459322,28.5719996 22.1598058,28.7070928 C22.0766411,28.8802307 21.9624713,29.0100552 21.8453333,29.1008 C21.6829749,28.8625463 21.5846459,28.5529084 21.556191,28.1909795 C21.545518,28.5821318 21.5347777,28.8834305 21.528,28.9989333 C21.5024,29.4330667 21.3093333,29.7296 21.1045333,29.8992 C21.0305363,29.7972438 20.9682224,29.6812014 20.9182451,29.5526731 C20.8825246,30.5400688 20.6751537,31.3605909 20.2058667,31.5610667 C20.1974833,31.5472667 20.1888833,31.5317094 20.1800896,31.5145066 C20.0997203,31.8202433 19.977772,32.0737938 19.7984,32.2128 C19.7483082,32.1391356 19.688805,32.0123091 19.624743,31.8509244 C19.524305,32.4802842 19.308417,33.0179464 18.9008,33.2618667 C18.7778121,33.001061 18.694978,32.7416116 18.6395072,32.4841978 C18.4199474,32.9774412 18.0642944,33.255899 17.6010667,33.3194667 C17.7914667,32.5408 17.9226667,31.3269333 17.6736,29.7930667 C17.3829333,28.0064 17.1717333,26.6517333 17.3093333,25.5733333 L17.2977686,25.6802379 C17.2132565,25.3637605 17.1727756,24.9667702 17.1637333,24.4890667 C17.1507226,23.8216178 17.1444566,23.0811676 17.203854,22.2669903 L17.0277333,22.3333333 C17.1050667,21.8485333 17.1712,21.256 17.2853333,20.5482667 C17.5930667,18.64 18.5498667,17.0549333 19.7050667,16.9109333 C20.8597333,16.7669333 19.9877333,17.5984 19.7434667,18.3392 C19.5717333,19.0272 20.0570667,19.8794667 21.0304,20.9845333 C21.3738667,21.3744 21.7674667,22.0458667 22.1717333,22.3317333 C22.2336,22.3754667 22.7610667,22.2112 22.8224,22.1269333 C22.7381333,22.1093333 22.6517333,22.0848 22.5637333,22.0538667 C22.9706667,21.7989333 23.3082667,21.4901333 23.7093333,20.8741333 C24.1205333,20.2432 23.5290667,19.1162667 23.2869333,18.5189333 C22.7802667,18.1434667 22.3029333,17.592 22.1509333,16.8650667 C22.0912,16.4741333 23.1696,16.6154667 23.9109333,16.9658667 C24.8176,17.3941333 24.9408,17.2752 25.2645333,17.3477333 C25.3792,17.9034667 25.1386667,17.9504 24.9072,17.9232 C25.4064,18.7248 25.6149333,19.5226667 25.7146667,20.6698667 C25.8144,19.5226667 26.0229333,18.7248 26.5226667,17.9237333 C26.2912,17.9504 26.0506667,17.9034667 26.1653333,17.3477333 C26.4885333,17.2752 26.6117333,17.3941333 27.5184,16.9658667 C28.2597333,16.6149333 29.3381333,16.4741333 29.2784,16.8656 C29.1269333,17.5925333 28.6496,18.1434667 28.1429333,18.5189333 C27.9002667,19.1168 27.3093333,20.2432 27.72,20.8741333 C28.1216,21.4901333 28.4592,21.7984 28.8661333,22.0538667 C28.7776,22.0848 28.6917333,22.1093333 28.6069333,22.1269333 C28.6688,22.2112 29.1962667,22.3754667 29.2581333,22.3317333 C29.6624,22.0458667 30.056,21.3738667 30.3994667,20.9845333 C31.3722667,19.8794667 31.8576,19.0272 31.6864,18.3392 C31.4421333,17.5984 30.5701333,16.7674667 31.7248,16.9104 C32.8794667,17.0544 33.8368,18.64 34.1445333,20.5477333 C34.2581333,21.256 34.3242667,21.848 34.4016,22.3333333 C34.3396165,22.3112039 34.2810309,22.2890796 34.2256145,22.2669102 C34.2848767,23.0811676 34.2786107,23.8216178 34.2656,24.4890667 C34.2565577,24.9667702 34.2160768,25.3637605 34.1315647,25.6802379 L34.12,25.5733333 C34.2576,26.6517333 34.0464,28.0064 33.7557333,29.7930667 C33.5066667,31.3269333 33.6378667,32.5408 33.8282667,33.3194667 C33.3650389,33.255899 33.009386,32.9774412 32.787458,32.4852424 C32.7343553,32.7416116 32.6515213,33.001061 32.5285333,33.2618667 C32.1211326,33.0180758 31.9052574,32.4808545 31.804101,31.852188 C31.7402651,32.01287 31.6809143,32.1392986 31.6309333,32.2128 C31.4515613,32.0737938 31.329613,31.8202433 31.2491693,31.5108485 L31.2234667,31.5610667 L31.2234667,31.5610667 C30.7541796,31.3605909 30.5468087,30.5400688 30.5099737,29.5524283 C30.4611109,29.6812014 30.3987971,29.7972438 30.3248,29.8992 C30.12,29.7296 29.9269333,29.4330667 29.9013333,28.9989333 C29.8945557,28.8834305 29.8838153,28.5821318 29.8718638,28.1929222 C29.8446874,28.5529084 29.7463584,28.8625463 29.584,29.1008 C29.4668621,29.0100552 29.3526922,28.8802307 29.2677127,28.708301 L29.2838474,28.5252378 L29.2838474,28.5252378 L29.2896318,28.2981333 L29.2896,27.552 L26.4597333,27.552 L26.45953,31.9762306 C27.1461912,31.8219781 27.7609544,31.4591332 28.2405333,30.9546667 C28.8072562,30.353924 29.1627202,29.5902103 29.2614813,28.77865 C29.309591,28.8396842 29.3586667,28.9002267 29.4074667,28.9514667 C29.4517333,28.9984 29.5029333,29.0421333 29.5413333,29.0992 C29.6281167,29.2280759 29.6899842,29.3720714 29.7237333,29.5237333 C29.8842667,30.2410667 30.1184,30.6144 30.4101333,30.9962667 L30.2807885,30.989 L30.3149118,31.0605981 C30.5820379,31.5971621 30.8446222,31.9101037 31.1674667,32.1893333 C30.6405333,32.288 30.1941333,32.184 29.9066667,31.7973333 L29.8896,31.7754667 L29.8896,31.7754667 C30.0325333,32.1541333 30.0714667,32.5098667 30.0053333,32.8176 C29.8355653,32.7743605 29.6486038,32.679305 29.4837346,32.5105208 C29.4665669,32.7162456 29.4162622,32.9037587 29.3354667,33.0672 C29.104,32.9413333 28.8624,32.6928 28.7605333,32.2810667 C28.6785563,32.4554161 28.5479527,32.6231032 28.3781333,32.7802667 C28.344,32.3008 28.2293333,31.8570667 27.8746667,31.2133333 L27.9267885,31.313 L27.8308799,31.4404433 C27.4879111,31.9130297 27.3311113,32.2836324 27.232088,32.6875842 C27.3676757,33.0440275 27.5139155,33.3543113 27.6794667,33.6181333 C27.8064,33.8197333 27.9008,34.2592 27.8405333,34.3866667 C27.8027556,34.4666667 27.7331259,34.4885185 27.6831877,34.5102469 L27.6906645,34.5375622 C27.8691681,34.8974027 28.0619612,35.2113437 28.2805333,35.4778667 C28.4458667,35.6794667 28.5685333,36.1189333 28.4901333,36.2464 C28.4322667,36.3410909 28.3157658,36.3543166 28.2522055,36.3822975 C28.4445722,36.9087766 28.6561375,37.3626999 28.9178667,37.7477333 C29.0618667,37.9605333 29.168,38.3866667 29.0698667,38.5226667 C28.9962667,38.6250667 28.8656,38.6453333 28.7946667,38.6794667 L28.6389333,38.7242667 C28.5610667,38.7333333 28.4293333,38.8064 28.3125333,38.7589333 C28.1573333,38.696 28.1328,38.2389333 28.0213333,38.0016 C28.0794667,38.1861333 28.2373333,38.6784 28.0864,38.8490667 C28.0026667,38.944 27.8709333,38.9514667 27.7968,38.9781333 L27.6373333,39.0074667 C27.5584,39.0090667 27.4325333,39.0485333 27.3210667,38.9898667 C27.2481572,38.9515761 27.2126483,38.828812 27.1875233,38.683408 C27.1956413,38.8285831 27.1774644,38.9640407 27.104,39.0336 C27.0122667,39.12 26.88,39.1157333 26.8042667,39.1349333 L26.6426667,39.1498667 C26.5642667,39.1445333 26.4352,39.1722667 26.3296,39.104 C26.2473162,39.0507026 26.2092942,38.8822883 26.1894543,38.6987109 C26.1948356,38.8828311 26.1811155,39.053146 26.1034667,39.1141333 C26.0042667,39.1925333 25.8736,39.176 25.7957333,39.1888 L25.7957333,39.1888 L25.6336,39.1888 C25.5557333,39.176 25.4250667,39.1925333 25.3258667,39.1146667 C25.24765,39.0529167 25.2343005,38.8804224 25.2388189,38.6950898 C25.2205525,38.8800004 25.1825747,39.0503414 25.0997333,39.104 C24.9941333,39.1722667 24.8650667,39.1445333 24.7866667,39.1498667 L24.7866667,39.1498667 L24.6250667,39.1349333 C24.5493333,39.1157333 24.4170667,39.12 24.3253333,39.0336 C24.2511887,38.9633966 24.2333602,38.8260689 24.2403726,38.6802061 C24.2165629,38.8264491 24.1810774,38.9512088 24.1077333,38.9898667 C23.9962667,39.0485333 23.8698667,39.0090667 23.7914667,39.0074667 L23.7914667,39.0074667 L23.632,38.9781333 C23.5578667,38.9514667 23.4261333,38.944 23.3429333,38.8490667 C23.1914667,38.6784 23.3498667,38.1861333 23.4074667,38.0010667 C23.295352,38.2505438 23.2694845,38.6968037 23.1162667,38.7589333 C22.9994667,38.8064 22.8677333,38.7333333 22.7898667,38.7242667 L22.7898667,38.7242667 L22.6341333,38.6794667 C22.5632,38.6453333 22.4325333,38.6250667 22.3589333,38.5226667 C22.2608,38.3866667 22.3669333,37.9605333 22.5114667,37.7477333 C22.7729023,37.3629026 22.9842723,36.9092544 23.1761841,36.3837306 C23.1130342,36.3543166 22.9965333,36.3410909 22.9386667,36.2464 C22.8602667,36.1189333 22.9829333,35.6794667 23.1482667,35.4778667 C23.3670448,35.2110925 23.5599953,34.8968108 23.7386402,34.5365446 C23.7408189,34.5273539 23.7430529,34.5191479 23.7452887,34.5109309 C23.6963225,34.4887205 23.6262202,34.4670388 23.5882667,34.3866667 C23.528,34.2592 23.6224,33.8197333 23.7493333,33.6181333 C23.9151984,33.3538112 24.0616787,33.0428509 24.197354,32.6867336 C24.0849772,32.2306147 23.8996063,31.8177016 23.4570667,31.2533333 L23.5017885,31.312 L23.4451146,31.4208271 C23.1755128,31.9561152 23.0815407,32.3540741 23.0512,32.7802667 C22.8813806,32.6231032 22.750777,32.4554161 22.6681701,32.2784474 C22.5669333,32.6928 22.3253333,32.9413333 22.0938667,33.0672 C22.0130711,32.9037587 21.9627665,32.7162456 21.9437774,32.5095065 C21.7807296,32.679305 21.593768,32.7743605 21.424,32.8176 C21.3578667,32.5098667 21.3968,32.1541333 21.5397333,31.7754667 L21.5397333,31.7754667 L21.5226667,31.7973333 C21.2352,32.184 20.7888,32.288 20.2618667,32.1893333 C20.6250667,31.8752 20.912,31.5184 21.2149333,30.8485333 L21.1477885,30.989 L21.0192,30.9962667 C21.2785185,30.6568296 21.4923259,30.324135 21.6493849,29.7505873 L21.7056,29.5237333 C21.7393492,29.3720714 21.8012166,29.2280759 21.888,29.0992 C21.9264,29.0421333 21.9776,28.9984 22.0218667,28.9514667 C22.0706667,28.9002267 22.1197423,28.8396842 22.1682266,28.7785436 C22.2666927,29.5905066 22.6221444,30.3540608 23.1888,30.9546667 C23.668379,31.4595282 24.2831422,31.8221829 24.9698033,31.9763103 L24.9701333,27.552 L22.1397333,27.552 Z M29.2896,26.0597333 L29.2896318,22.5077333 L22.1397028,22.5077333 L22.1397333,26.0597333 L24.9701333,26.0597333 L24.9701333,22.5082667 L26.4597333,22.5082667 L26.4597333,26.0597333 L29.2896,26.0597333 Z" id="Combined-Shape" fill="#FFFFFF"></path>
            <path d="M23.5605333,14.8138648 C23.5728,15.0174172 23.3386667,15.1963289 23.0378667,15.2156128 C22.7370667,15.2338254 22.4832,15.0843752 22.4709333,14.8813585 C22.4586667,14.6783418 22.6928,14.4988944 22.9936,14.4801462 C23.2944,14.4613979 23.5482667,14.6108482 23.5605333,14.8138648 Z M28.4352,14.4801462 C28.736,14.4988944 28.9701333,14.6783418 28.9578667,14.8813585 C28.9456,15.0843752 28.6917333,15.2338254 28.3909333,15.2156128 C28.0901333,15.1963289 27.856,15.0174172 27.8682667,14.8138648 C27.8805333,14.6108482 28.1344,14.4613979 28.4352,14.4801462 Z" id="Combined-Shape" fill="#C6363C"></path>
        </g>
        <rect id="Rectangle" stroke="#DDE2E3" stroke-width="3" opacity="0" fill-rule="nonzero" x="1.5" y="1.5" width="45" height="45" rx="5"></rect>
    </g>
</svg>