<?xml version="1.0" encoding="UTF-8"?>
<svg width="48px" height="48px" viewBox="0 0 48 48" version="1.1" xmlns="http://www.w3.org/2000/svg" xmlns:xlink="http://www.w3.org/1999/xlink">
    <!-- Generator: Sketch 64 (93537) - https://sketch.com -->
    <title>Graphics / 01 Flags/RWF</title>
    <desc>Created with Sketch.</desc>
    <defs>
        <rect id="path-1" x="0" y="0" width="48" height="48" rx="5"></rect>
    </defs>
    <g id="Graphics-/-01-Flags/RWF" stroke="none" stroke-width="1" fill="none" fill-rule="evenodd">
        <g id="Flag">
            <mask id="mask-2" fill="white">
                <use xlink:href="#path-1"></use>
            </mask>
            <g id="Mask" fill-rule="nonzero"></g>
            <g id="iStock-491887998" mask="url(#mask-2)">
                <polygon id="Fill-1" fill="#0093C6" points="0 25 48 25 48 0 0 0"></polygon>
                <polygon id="Fill-2" fill="#FBD020" points="0 36 48 36 48 25 0 25"></polygon>
                <polygon id="Fill-3" fill="#0C5133" points="0 48 48 48 48 36 0 36"></polygon>
                <path d="M34.0147781,8 L33.7655726,12.7938621 C33.8425743,12.7856175 33.9208205,12.7814174 34,12.7814174 C34.0892909,12.7814174 34.1774928,12.7868619 34.2641392,12.7971288 L34.0147781,8 Z M34,12.9948443 C35.1074246,12.9948443 36.0053112,13.8925754 36.0053112,15 C36.0053112,16.1074246 35.1074246,17.0053112 34,17.0053112 C32.8925754,17.0053112 31.9948443,16.1074246 31.9948443,15 C31.9948443,13.8925754 32.8925754,12.9948443 34,12.9948443 Z M33.6848374,12.8038179 L32.2025156,8.23473855 L33.2024489,12.929354 C33.3558301,12.8702416 33.5173004,12.8276184 33.6848374,12.8038179 Z M33.1270028,12.9599991 L30.5126781,8.93055401 L32.6939265,13.2065601 C32.8277073,13.1090246 32.9728438,13.0259561 33.1270028,12.9599991 Z M32.6290584,13.2557168 L29.0606902,10.0398453 L32.2742283,13.6058801 C32.3790751,13.4762995 32.4980777,13.3586969 32.6290584,13.2557168 Z M32.2241383,13.6699704 L27.9451766,11.4873219 L31.9718216,14.09978 C32.0399564,13.9465544 32.1248917,13.8025067 32.2241383,13.6699704 Z M31.9400876,14.1747594 C31.8791084,14.3273628 31.8341519,14.4882108 31.8081735,14.6554368 L27.2423609,13.1742039 L31.9400876,14.1747594 Z M31.7971288,14.7360164 L27,14.9853775 L31.7938621,15.2344274 C31.785773,15.1574257 31.7815729,15.0791795 31.7815729,15 C31.7815729,14.9107091 31.7868619,14.8226627 31.7971288,14.7360164 Z M31.8038179,15.3151626 L27.2347385,16.7974844 L31.929354,15.7975511 C31.8702416,15.6441699 31.8276184,15.4826996 31.8038179,15.3151626 Z M31.9599991,15.8729972 L27.930554,18.4873219 L32.2067157,16.3060735 C32.1090246,16.1722927 32.0261117,16.0271562 31.9599991,15.8729972 Z M32.2557168,16.3710971 L29.0400009,19.9394653 L32.6058801,16.7257717 C32.4762995,16.6209249 32.3586969,16.5020778 32.2557168,16.3710971 Z M32.6699704,16.7758617 L30.4873219,21.054979 L33.09978,17.0281784 C32.9467099,16.9600436 32.8025067,16.8752639 32.6699704,16.7758617 Z M33.174915,17.0599124 C33.3273628,17.1210471 33.4883664,17.1658481 33.6552812,17.191982 L32.1740483,21.7577946 L33.174915,17.0599124 Z M33.7360164,17.2028712 L33.985533,22 L34.2344274,17.2062935 C34.1574257,17.2143825 34.0793351,17.2185826 34,17.2185826 C33.9107091,17.2185826 33.8226627,17.2131381 33.7360164,17.2028712 Z M34.3153181,17.1961821 L35.7976399,21.765417 L34.7975511,17.0708016 C34.6443254,17.1297584 34.4828552,17.1723816 34.3153181,17.1961821 Z M34.8729972,17.0401564 L37.4873219,21.0696015 L35.306229,16.7934399 C35.1722927,16.8909754 35.0273117,16.9740439 34.8729972,17.0401564 Z M35.3710971,16.7442832 L38.9394653,19.9601547 L35.7257717,16.3941199 C35.6209249,16.5237005 35.5019223,16.6413031 35.3710971,16.7442832 Z M35.7758617,16.3301851 L40.0548234,18.5126781 L36.0281784,15.90022 C35.9601991,16.0534456 35.8752639,16.1976488 35.7758617,16.3301851 Z M36.0599124,15.8252406 C36.1212027,15.6726372 36.1658481,15.5117892 36.191982,15.3447188 L40.7577946,16.8259517 L36.0599124,15.8252406 Z M36.2028712,15.2639836 L41,15.0147781 L36.2062935,14.7655726 C36.2143825,14.8427298 36.2185826,14.9208205 36.2185826,15 C36.2185826,15.0894464 36.2132936,15.1773373 36.2028712,15.2639836 Z M36.1961821,14.6848374 L40.765417,13.2025156 L36.0708016,14.2024489 C36.129914,14.3558301 36.1723816,14.5173004 36.1961821,14.6848374 Z M36.0401564,14.1270028 L40.0696015,11.5126781 L35.7934399,13.6939265 C35.8911309,13.8278628 35.9741994,13.9728438 36.0401564,14.1270028 Z M35.7444388,13.6289029 L38.9601547,10.0606902 L35.3941199,13.2743839 C35.5237005,13.3790751 35.6413031,13.4980777 35.7444388,13.6289029 Z M35.3300296,13.2242939 L37.5126781,8.94517656 L34.90022,12.9718216 C35.0536012,13.0399564 35.1974933,13.1248917 35.3300296,13.2242939 Z M34.8252406,12.9400876 C34.6726372,12.8789529 34.5117892,12.8341519 34.3447188,12.808018 L35.8259517,8.24236094 L34.8252406,12.9400876 L34.8252406,12.9400876 Z" id="Fill-4" fill="#FBD020"></path>
            </g>
        </g>
        <rect id="Rectangle" stroke="#DDE2E3" stroke-width="3" opacity="0" fill-rule="nonzero" x="1.5" y="1.5" width="45" height="45" rx="5"></rect>
    </g>
</svg>