<?xml version="1.0" encoding="UTF-8"?>
<svg width="48px" height="48px" viewBox="0 0 48 48" version="1.1" xmlns="http://www.w3.org/2000/svg" xmlns:xlink="http://www.w3.org/1999/xlink">
    <!-- Generator: Sketch 64 (93537) - https://sketch.com -->
    <title>Graphics / 01 Flags/SAR</title>
    <desc>Created with Sketch.</desc>
    <defs>
        <rect id="path-1" x="0" y="0" width="48" height="48"></rect>
    </defs>
    <g id="Graphics-/-01-Flags/SAR" stroke="none" stroke-width="1" fill="none" fill-rule="evenodd">
        <mask id="mask-2" fill="white">
            <use xlink:href="#path-1"></use>
        </mask>
        <g id="Mask" fill-rule="nonzero"></g>
        <polygon id="Fill-1" fill="#006633" mask="url(#mask-2)" points="0 48 48 48 48 0 0 0"></polygon>
        <path d="M32.5401767,33.8574092 C33.2345198,33.8848548 33.9377221,33.8804464 34.6369101,33.8913962 C34.8558995,33.8956623 34.9323104,34.245629 34.663211,34.2861574 C34.5595302,34.3016578 34.3743166,34.2949742 34.1976855,34.2905658 C33.975097,34.2840244 34.0951121,34.106268 33.7588761,34.111814 C33.4135041,34.1162224 33.5234141,34.2938365 33.3008256,34.3070616 C33.0354637,34.3235574 32.7638725,34.2972494 32.5086156,34.2807536 C32.2645712,34.2663909 32.2219361,33.8441841 32.5401767,33.8574092 Z M31.7644393,32.1057272 C31.6416557,32.3251497 31.7216657,32.6190875 31.9395477,32.7780728 L12.3960596,32.5641964 C13.3761133,34.0361609 15.2679768,33.7981097 16.792597,33.794839 C20.6570261,33.789293 29.1818318,33.7662557 31.8807168,33.7662557 C31.7126681,34.0712856 31.8253466,34.9498285 32.1761172,34.9815402 C32.3820946,35.0013067 32.4049348,34.7501726 32.5459905,34.7469018 C32.949086,34.7348144 34.4357776,34.7336768 34.8259995,34.7424935 C35.0699056,34.7490349 35.1511614,35.0671476 35.6442336,34.9870862 C35.7169071,34.9749988 35.7959481,34.952957 35.8471656,34.8862628 C36.114604,34.5274794 35.9785316,33.3571318 35.8194805,33.013991 C35.739332,32.8417806 35.4627576,32.7736644 35.252489,32.8077936 C34.5996736,32.9130254 33.1556171,32.9009379 32.3873547,32.7814857 C32.4573981,32.688057 32.5822581,32.3130622 32.4295746,32.1781096 C32.2534971,32.0279411 32.2449147,32.2758045 32.1574297,31.9630956 C32.0884937,31.7152321 31.8156568,32.0179867 31.7644393,32.1057272 Z M36.6980681,22.3123491 C36.5251745,22.3188906 36.3212735,22.3068031 36.3089536,22.5339046 C36.3074309,22.7971262 36.842723,22.8090714 36.5502295,23.1250511 C36.4637135,23.2194752 35.942264,23.5802495 36.317536,23.6866188 C36.6227646,23.7743594 37.329566,23.3028074 37.329566,23.2939907 C37.4448746,23.2051125 37.405977,23.0373105 37.3973946,23.0373105 C37.329566,22.9583867 37.179651,23.0054566 37.078185,22.9923737 C36.6442206,22.9528407 37.5297295,22.285899 36.6980681,22.3123491 Z M25.4893273,21.9756076 C25.1652729,22.1906216 24.8012134,22.734556 25.3355364,22.5558042 C25.7332334,22.4219892 25.2751829,23.4541136 25.8655683,23.1634464 C26.2072028,23.0296315 26.4202399,22.8990872 26.8990542,22.7915802 C27.0255753,22.7894471 27.0181003,22.4438888 26.8190442,22.4318014 C26.2798763,22.4286729 25.9446093,22.8869998 25.8384369,22.5174088 C25.8132434,22.3770524 25.8560169,22.2639994 25.8848094,22.1577722 C25.9724329,21.8285675 25.6793858,21.8494717 25.4893273,21.9756076 Z M8.54921061,20.8096683 C8.25076489,20.8196226 7.73942051,22.8518751 8.15843498,23.3729145 C8.70244781,24.050806 9.32162578,22.9923737 9.1091424,22.5283586 C8.86842018,22.0019155 8.54491941,23.2642698 8.47985935,22.3628319 C8.46214087,22.123643 8.54921061,20.8096683 8.54921061,20.8096683 Z M21.9189143,20.2129758 C22.1309825,20.2129758 22.8750204,20.3335657 23.2343734,20.3644242 C23.5899889,20.3874614 23.7655126,20.6737202 23.4324605,20.7943101 C22.3289311,21.1869383 23.043346,21.9043628 22.7251054,21.9525703 C22.2659475,22.0238151 21.0008754,20.2788168 21.9189143,20.2129758 Z M16.4451486,19.4452107 C15.8845246,19.4858814 16.5742997,20.0474491 16.6453121,20.3533322 C16.700267,20.4872894 16.5641946,20.9137624 16.6778421,20.954433 C16.9981591,21.0772982 17.1749286,19.3925948 16.4451486,19.4452107 Z M34.7336696,18.5973841 C34.2066831,18.6643627 34.6705475,19.5055056 34.7735362,19.869835 C34.8308444,20.0507199 34.6994785,20.5628003 34.8194935,20.6178336 C34.9300956,20.6781286 35.2177442,20.3128038 35.2076391,19.8554723 C35.219959,19.645862 35.1526841,18.5447683 34.7336696,18.5973841 Z M13.2004511,18.2508304 C13.4379896,18.2529635 13.4871307,18.5338185 13.3665619,18.7016204 C13.330156,18.751961 12.9666502,18.7674614 12.8924541,18.6171506 C12.8455278,18.521731 13.0019487,18.2475597 13.2004511,18.2508304 Z M10.2463092,17.8845102 C9.4204617,18.0621243 8.36718087,19.0504495 8.33728093,19.6239625 C9.23040327,19.1831268 10.1091293,18.7597823 11.016648,18.3034463 C10.8335108,17.9261762 10.6593713,17.795632 10.2463092,17.8845102 Z M24.7670223,17.5565853 C24.9436534,17.5379564 25.3115888,17.7944944 25.1636118,17.9392591 C24.9559733,18.1411903 24.4210965,17.5949807 24.7670223,17.5565853 Z M35.0502491,17.3776798 C35.023533,17.3734252 33.4097666,18.5547226 33.3456756,18.6171506 C33.1844097,18.7653283 33.2645581,19.2850878 33.3456756,19.2247929 C33.4636142,19.2718627 35.1089416,18.1256899 35.0762731,17.9920172 C35.1489466,17.9964255 35.182584,17.4030038 35.0502491,17.3776798 Z M23.2205308,16.8796892 C23.0229974,16.9149561 23.1441198,17.1453283 23.0491598,17.2187061 C23.0198136,17.2484269 22.9056124,17.2317889 22.9103189,17.069533 C22.912949,16.901731 22.6877305,16.7953616 22.6711194,17.1036622 C22.6637828,17.2440186 22.4811994,17.1891274 22.4811994,17.0914325 C22.4811994,16.8447068 22.2986159,16.8535235 22.2158374,16.9994259 C22.1031589,17.1979441 22.1907823,17.6508673 22.417662,17.7474245 C22.8686528,17.9536218 23.6128291,17.8702897 23.3870569,16.9873384 C23.3507894,16.901731 23.2846219,16.8688816 23.2205308,16.8796892 Z M20.2897828,16.4060042 C19.5732916,17.0476334 20.0709318,17.5224561 20.461569,18.6488624 C20.6222812,19.2390134 20.7717809,19.9136342 20.6617325,20.5519927 C20.4103515,21.3777775 18.6199541,23.1261887 18.00659,22.5558042 C17.7774955,22.3616943 17.8004742,22.1828003 17.8004742,22.095202 C18.319432,21.5883832 20.2327514,20.786631 19.7323427,18.661092 C19.6689437,18.3977282 19.5908716,18.1817187 19.4164553,17.9952879 C19.4718256,17.923901 19.8311786,18.1531355 19.839761,18.0171875 C19.8050161,17.4765238 19.2038335,16.537686 18.6390568,16.9544891 C18.4123156,17.0838957 18.3631745,17.5499017 18.4736382,17.9590256 C18.5745505,18.2673262 19.4959116,18.868427 19.119117,19.5747595 C18.900266,20.0254074 17.726278,20.8995419 17.693748,20.9478916 L17.6851656,20.9446209 C17.6825355,20.7263361 17.7070369,20.1922139 17.7444118,20.0649404 C17.7444118,20.0649404 17.7428891,20.0616696 17.741228,20.0616696 L17.741228,20.0593944 C17.4235411,20.0593944 17.15195,21.3591486 17.1257875,21.3964063 C16.0986691,22.1247807 14.9332635,22.6677196 14.261207,23.4059061 C13.9115437,23.9674738 16.6703671,22.7610061 16.9917915,22.6160991 C17.0510377,22.6621736 17.07457,22.9276704 17.2485711,23.1492259 C17.5358043,23.5495332 18.1459846,23.7952635 18.7388617,23.6426775 C20.1312854,23.2062501 20.9676532,21.3405198 21.225125,21.6772613 C21.625452,22.5996034 22.7822752,23.2555953 24.2769954,23.3235693 C25.0238019,22.3901353 23.6662614,22.6182322 23.4644368,21.9986448 C23.3960545,21.7398316 23.5621653,21.5094594 23.8963249,21.3361114 C24.8561684,21.2166591 25.7994008,21.0838396 26.7117643,20.7833603 C26.7405569,19.8236184 27.4483273,19.5987922 27.0309739,19.481473 C26.7891443,19.413499 23.8327875,19.5757549 23.869055,19.4014115 C23.7238465,19.2511008 26.0487054,19.2885007 26.0851114,17.7057584 C26.1197178,16.2326562 24.1215434,15.9387183 24.0703259,17.7495576 C24.0420871,17.9229055 24.1274957,18.2617802 23.9550174,18.3001756 C22.8292015,18.4054073 21.6008122,19.1305109 21.5602535,19.649275 C21.5591461,19.6481373 21.5576234,19.649275 21.5570697,19.649275 C21.2613925,19.987012 21.3974649,17.7266625 20.5843526,16.6429178 C20.443989,16.4564869 20.3404466,16.4060042 20.2897828,16.4060042 Z M34.146468,15.2202984 C33.4032606,15.1830406 34.1016181,16.2426105 33.5223067,15.9574894 C33.6360926,15.8509778 33.2068346,15.5395487 32.9629286,15.8093117 C32.4962957,16.3248051 33.7887761,17.3853704 34.1313796,17.392054 C34.1367782,17.0509041 34.1693082,16.597981 34.1879957,16.3159883 C34.219003,15.8366151 34.5969051,16.222844 34.5921986,16.0571751 C34.5733727,15.7478791 34.50679,15.2377896 34.146468,15.2202984 Z M17.2409577,15.1928528 C16.879113,15.3936463 16.8299719,15.9047313 17.0232141,16.1867239 C17.5687496,16.9796594 18.3134797,15.4220873 17.8062881,15.7807285 C16.9512328,16.3873753 17.8260829,14.8320785 17.2409577,15.1928528 Z M29.2489682,15.019647 C29.0525422,15.053634 29.1715883,15.2850017 29.0777357,15.357384 C29.0488047,15.3881003 28.9340498,15.3706091 28.9388947,15.2093486 C28.9415248,15.0415466 28.7163063,14.9329019 28.6996952,15.2412025 C28.6922202,15.3815589 28.5097752,15.3310761 28.5097752,15.2312481 C28.5097752,14.8946488 28.1653722,15.0338675 28.2070383,15.3519802 C28.1930573,15.3683338 28.1829522,15.7741871 28.4460994,15.8861024 C29.5004876,16.3687464 29.6184263,14.9538061 29.2489682,15.019647 Z M26.6551482,13.7100806 L26.7891443,14.3724718 C26.2622962,13.6267484 26.2696328,13.8229914 26.6551482,13.7100806 Z M37.9141375,13.4226842 C37.2159185,13.3975139 37.9681236,14.3438886 38.0556086,14.6554599 C38.1127784,14.8374823 37.969231,15.4220873 38.088277,15.4758408 C38.198187,15.5372734 38.3519779,15.0722629 38.409563,14.642377 C38.4372481,14.4371751 38.268092,13.4357671 37.9141375,13.4226842 Z M17.5511696,12.8808829 C17.7300155,12.8621118 17.9290716,13.2580107 17.7225405,13.3096312 C17.5165632,13.362247 17.325951,12.9027825 17.5511696,12.8808829 Z M28.5283242,12.4848418 C27.7478804,12.4596715 28.5998903,13.360114 28.6836378,13.6212024 C28.8102973,13.9831143 28.5871551,14.327535 28.7183827,14.3780178 C28.8390898,14.4339044 29.0065849,14.0040185 29.0701223,13.6069819 C29.1315833,13.2877316 28.8998587,12.4957916 28.5283242,12.4848418 Z M14.4383918,12.4750297 C14.1303947,12.5155581 13.8298726,12.7206178 13.9051762,13.1725455 C14.1634784,14.7871417 14.3316656,16.0199174 14.5910753,17.6343715 C14.6305266,17.8230776 14.4763204,18.0720786 14.2772643,18.0467661 C13.9388136,17.8121278 13.8550661,17.3360252 13.2783848,17.3557917 C12.4061647,17.3766959 12.0484728,18.8133936 12.3244936,19.3355706 C12.6175407,19.6986201 12.9692803,19.6592293 13.2783848,19.5780302 C13.4785483,19.5089186 13.7689653,19.1918013 13.8325027,19.2774087 C13.8874577,19.3772367 13.8277962,20.2163887 12.6378893,20.8656971 C11.9070018,21.2022964 11.324645,21.2834955 11.0112494,20.6703073 C10.8168997,20.2864958 11.0256456,18.8266187 10.5479387,19.1644979 C9.13544327,22.9046332 13.8571425,23.4278056 14.3845442,19.3190748 C14.4255182,19.1249649 14.6557201,19.0020997 14.6684552,19.2576422 C14.5596527,22.978011 11.0160943,23.2325581 10.4144963,22.0633481 C10.1496881,21.5620752 10.3027868,20.5936588 10.0599882,20.4028196 C9.70340374,20.1240977 9.63225296,21.7628688 9.63986637,21.9854197 C9.82881739,24.9239451 14.3881433,23.6613063 15.129828,21.2341504 C15.4991476,19.9969663 15.0865007,18.9100931 15.2765592,18.9056847 C15.9721481,19.6767205 16.4851536,18.4679775 16.8170983,18.7653283 C17.1711911,19.0262746 17.788708,18.9034094 17.9185513,18.4438027 C17.9931627,17.9941503 18.0561464,17.5312728 18.07165,17.0497665 C17.4513647,17.2484269 17.5810695,17.1869943 17.4876322,17.7255249 C17.4635461,17.8603353 17.2239313,17.8472524 17.2035827,17.6946664 C17.0932575,17.1837236 16.643651,17.116745 16.3702603,17.908685 C16.1861542,18.0621243 15.8503335,18.0928406 15.8157271,17.8624684 C15.859608,17.3317591 15.6518311,17.2592345 15.2337856,17.5105109 C15.0992359,16.4574824 14.9664857,15.4528036 14.8323512,14.3999174 C15.0064907,14.3945136 15.1660955,14.5249156 15.3251466,14.3198559 C15.1522529,13.7671048 14.7517875,12.4354967 14.4383918,12.4750297 Z M10.8232673,12.4706213 C10.0022647,12.5693116 11.3939963,16.2272524 10.7458874,16.149324 C10.133077,16.075804 10.9765045,13.265832 9.9297297,13.7264342 C9.37879558,13.9688938 9.29172584,16.0527668 9.00296992,16.08135 C8.68099184,16.1130617 8.43071825,13.5553615 8.21934227,14.0808092 C8.14569982,15.1095206 8.05696897,16.9192222 8.90800991,17.1057953 C9.99008328,17.2120224 9.32328689,14.8946488 9.85871733,14.851845 C10.0347948,14.8374823 9.95312363,16.4169539 9.95312363,16.6210182 C9.93498987,17.6454635 10.8922033,17.1528651 11.0918131,17.661817 C11.1334792,18.5864343 11.1777754,19.5144646 11.2199953,20.4389397 C11.2199953,20.4389397 11.8445718,20.6232374 11.8744718,18.8780969 C11.896343,17.9152265 11.4702688,16.1975315 12.2273188,16.6845839 C12.4969719,16.8796892 12.6164333,17.1200158 13.0344788,17.0234585 C13.9601312,16.7613746 14.2296459,16.2754599 13.9900311,15.3673384 C13.84593,14.8221242 13.5607731,14.2265694 13.5132931,14.2299823 C13.6787118,14.3406179 14.0081649,14.2989518 14.0038737,14.19372 C13.8956248,13.5388657 12.9580678,12.6877684 12.779914,13.5882109 C12.6752642,14.5020206 13.3221273,14.8562534 13.4284382,15.5866186 C13.5485917,16.4037289 12.7941718,15.7655126 12.5881945,15.4934743 C12.3100973,15.127154 12.6100657,14.9274981 12.3560546,14.0916168 C12.3196487,13.850437 11.8920518,12.9926561 11.6412245,13.4150051 C11.0875219,14.3736094 12.2336863,15.6864465 11.7853256,15.7490168 C11.1986777,15.8313535 11.6464847,12.371931 10.8232673,12.4706213 Z M29.9835932,12.3961059 C29.7647422,12.4191431 29.5597338,13.4730248 29.5843736,13.7703756 C29.9286382,16.2195733 30.0337033,18.3637412 30.2589218,20.812939 C30.2777477,21.0498526 30.2441103,21.3942733 30.0899041,21.5313589 C29.5234663,22.1401388 28.7060628,22.8902705 27.8151552,23.2358288 C27.5562993,23.4189889 28.9089948,24.8635079 30.4304312,22.2169295 C30.5878212,21.9602494 30.8643956,21.4140398 30.8735317,20.9885622 C30.9284867,18.5019645 30.7507482,16.5671225 30.3876577,14.7685129 C30.2841153,14.1443749 30.4982598,14.4592169 30.6984233,14.19372 C30.7731731,14.0938921 30.1736516,12.3763393 29.9835932,12.3961059 Z M17.191955,12.6067115 C16.784153,13.2427948 17.6328407,13.4862498 17.4278323,13.6836305 C16.9217481,14.2407899 15.6032437,15.1688201 15.5365225,15.3376175 C15.4944411,15.4483953 16.4765712,15.3959216 16.5390012,15.36293 C16.8219432,15.255423 18.1684096,13.6759514 18.1684096,13.6759514 C17.6365782,13.2076701 18.1751924,13.4061884 18.1816984,12.9235444 C18.1901424,12.2819152 17.420911,12.2513411 17.191955,12.6067115 Z M12.8840101,12.3850139 C12.7376942,12.4113218 12.6848156,12.9751649 12.5812732,12.6581898 C12.5551107,12.575853 12.5951157,12.4147347 12.4366184,12.4147347 C12.3222788,12.4201385 12.3527324,12.5933443 12.3217251,12.6570521 C12.2219202,12.854575 12.1120102,12.4147347 12.0346302,12.4047804 C11.7206809,12.4057758 11.6817832,13.3382144 12.4510146,13.3480265 C13.1331763,13.3558478 13.2480696,12.3203106 12.8840101,12.3850139 Z M31.3198161,12.332398 C30.9183816,12.4036427 30.9594941,14.0950297 30.9695991,14.1466501 C31.4880032,16.9247682 32.0180351,19.4551651 31.9342875,22.0984786 C32.1797162,22.1006058 32.4637657,21.5215468 32.5850266,20.9478916 C32.7440776,19.8654267 32.0981835,15.4495329 31.9090941,14.6334181 C31.789079,13.9698893 32.3873547,14.5458198 32.3222947,14.1607284 C32.2998697,14.0840799 31.3198161,12.332398 31.3198161,12.332398 Z M38.8926685,12.291824 C38.630075,12.3193151 38.5538025,13.3666554 38.597545,13.6672769 C38.7999233,15.048088 39.5056173,20.0638027 39.2705706,21.5632129 C39.1115195,22.5777038 38.2333471,22.7587308 37.5713956,23.2216083 C36.1600076,24.2086536 38.8323149,24.1066926 39.63463,22.8355216 C39.7921584,22.5798369 39.977372,21.887867 39.984847,21.4633849 C40.0398019,18.9747964 39.9534243,16.5420944 39.591026,14.744338 C39.4094115,13.6595978 39.657055,14.2902773 39.8883643,13.984252 C39.9459493,13.9084567 38.9962109,12.2819152 38.8926685,12.291824 Z M9.31318182,13.8525701 C9.47597039,13.9249525 9.95104725,12.4957916 9.21379219,12.2974155 C8.89513633,12.2237533 8.79533143,12.4969292 8.95382881,12.749201 C9.04837353,12.8983741 9.21379219,13.09803 9.25393563,13.2274366 C9.30833692,13.3666554 9.20050333,13.810904 9.31318182,13.8525701 Z M35.2588566,12.261011 C35.0837481,12.2337077 34.899642,12.6318818 34.9050406,12.8315377 C34.9125156,12.9993397 35.0102441,13.912865 35.0474806,14.1246084 C35.0074756,14.0729879 34.9738381,14.0324595 34.9534896,14.0115553 C34.2365831,13.2383864 35.2829426,13.8854195 34.8174172,13.2877316 C34.422904,12.843483 34.3081492,12.7019889 33.9702521,12.434359 C33.6312477,12.1887709 33.57477,12.1557793 33.6200352,13.4369047 C33.6387227,13.978706 35.2001641,15.5219153 35.3576925,15.953081 C35.4616502,17.318534 35.48892,18.5710762 35.5941235,19.9409375 C35.6117036,20.6418663 35.4143086,21.7584604 34.8147871,21.3614239 C34.3621352,21.0608024 34.1730457,19.9595664 33.5970566,20.5157304 C32.9442411,21.1485429 32.6340292,23.3729145 31.9395477,22.5504004 C31.2488037,21.5818417 31.6528682,20.2031637 31.5663522,20.556401 C30.9518807,21.269275 31.2247176,22.4473017 31.3641123,22.700569 C31.6491307,23.2534622 32.3559321,24.1462256 32.9164176,23.5023211 C33.2784007,23.117372 33.2832456,22.1335974 33.4535091,21.9383498 C33.9824336,21.0093242 34.4544651,23.1131058 35.6666586,22.3409324 C35.9368654,22.183938 36.1134966,21.982149 36.271025,21.5818417 C36.4412885,21.1135605 36.357541,18.6622296 36.3201661,17.2987675 C36.5743156,17.6662254 36.8256966,18.0434954 37.0755549,18.4240362 C37.1843575,19.620834 37.234606,20.7998561 37.1983385,21.9306708 C37.1732834,22.155497 37.9627249,21.2604583 37.9569111,20.8348386 C37.9526199,20.4642522 37.9578801,20.1273684 37.9569111,19.8138062 C38.339658,20.4422104 38.7111925,21.0805689 39.060302,21.7266065 C39.278184,21.6081497 39.2039878,20.3457954 39.0666696,20.1724474 C38.69998,19.5396349 38.2291943,18.8561973 37.8666575,18.3276211 C37.7939841,17.6608216 37.696394,16.87329 37.6515441,16.6329634 C37.1145909,13.7243011 37.358497,14.6664096 37.6040641,14.3198559 C37.7225564,14.186041 37.1897561,12.7701052 36.9206566,12.366385 C36.8230665,12.1855002 36.6479581,12.2467905 36.4302145,12.541866 C36.2289436,12.7359759 36.3014786,13.1779493 36.3788586,13.5991607 C36.5790221,14.670818 36.757868,15.7632373 36.899339,16.8523858 C35.7746306,15.1358285 36.1310766,16.1316906 35.8835716,14.2090782 C35.8546406,13.9875227 36.0058014,14.1914447 36.099654,14.2211656 C36.1908765,14.2375192 36.270056,14.0808092 36.2149626,13.9349068 C36.1097591,13.7001263 35.4440701,12.2907319 35.2588566,12.261011 Z M24.9314482,12.7140764 C24.9335483,13.1462375 25.0824943,13.3107688 25.404334,13.7582881 C25.9958268,14.5742608 26.5639257,15.3959216 27.1131987,16.2447436 C27.3785607,16.9598929 27.3875584,21.6958902 27.3385557,22.5437168 C27.5839844,22.5546666 27.9779438,22.1368681 28.1156774,21.5259552 C28.2016397,21.0026405 28.0794098,18.4099579 28.0442497,17.7441538 C28.6826688,18.8168065 29.3029542,19.9531672 29.9110581,21.201301 C30.1325392,21.0926563 30.0839518,19.8103933 29.9536932,19.6306461 C29.4668502,18.5524473 28.7936862,17.4896067 28.5795417,17.0816204 C28.5021618,16.9335849 28.2379072,16.5211902 27.9252036,16.0462253 C27.8680338,15.3673384 27.8050502,14.7936832 27.7650452,14.6203352 C27.6641329,13.9030529 28.0515863,14.7003967 27.9977387,14.2835936 C27.8375802,13.9381775 26.9930453,11.7412515 26.6642843,12.4783004 C26.5291809,12.79428 26.5302883,13.0563639 26.5702933,13.3019521 C26.2585587,12.8359461 24.9249659,11.3528895 24.9314482,12.7140764 Z M21.7284406,12.091076 C21.3862524,12.1217923 21.3286673,13.360114 21.3286673,13.360114 C21.275235,13.5981652 21.5714659,13.6989886 21.7065694,13.3919679 C21.8805704,12.9586691 22.0956839,12.0582266 21.7284406,12.091076 Z M22.2835275,13.3217186 C22.7651104,14.3417555 22.3519098,15.9880635 21.4978235,15.4846576 C20.7515708,15.0436797 21.3206387,13.6605933 21.0536156,13.1266132 C20.8945645,12.8006793 20.6346011,12.9181406 20.52303,13.0156933 C19.9875996,13.5192414 19.722376,14.3680634 19.5605564,15.0436797 C19.3544406,15.7282548 19.0838185,15.1928528 19.0015936,14.8374823 C18.8511249,14.1893117 18.784819,12.9673436 18.5270705,13.2329826 C17.8806226,15.1292871 19.4691955,18.0380916 20.1712904,15.0930248 C20.1946844,14.9954722 20.3511053,14.3056354 20.501574,14.6291519 C20.4862088,15.800495 20.5828299,16.0615835 20.8764307,16.4179494 C21.611471,17.1386446 22.3135659,16.2426105 22.6236394,15.9168187 C22.7363179,15.7939536 22.8867865,15.7862745 23.0470835,15.8949192 C23.3657393,16.1919855 23.2253757,16.603527 23.9977909,16.5024192 C24.6261049,16.4212201 24.5470639,16.1174701 24.8524309,15.6776298 C24.9864269,15.4944697 25.2138603,15.5756688 25.2138603,15.632693 C25.1903279,15.7468837 24.9772908,16.0166467 25.2666005,16.08135 C25.7267273,16.1855863 26.3086688,14.6170645 25.7844508,14.9340396 C24.8208698,15.5165115 24.7728361,14.8396154 24.6083865,13.9952018 C24.6083865,13.9733022 24.3970105,13.5236498 24.5923291,13.4939289 C24.6922724,13.5136954 24.9047558,13.569582 24.9388085,13.3864219 C25.0703129,13.0299138 24.2715968,11.860846 23.8199139,12.4135971 C23.1607309,13.2218906 23.9336998,13.7703756 24.1263883,14.5775315 C24.2241168,14.9855178 24.1990618,15.5635814 23.6223805,15.4923366 C23.0032025,15.3859673 23.1403824,13.1846329 22.9802239,12.6131108 C22.5974769,11.2421118 22.0760275,12.7557425 22.2835275,13.3217186 Z M19.7323427,12.0000648 C19.5284417,11.9935233 19.1164869,12.4838464 19.1030596,12.883016 C19.072606,13.569582 19.6710201,13.394101 19.7836986,12.9718941 C19.8311786,12.7261638 19.5321792,13.0870802 19.494389,12.815042 C19.4383266,12.5374577 20.027743,12.0088815 19.7323427,12.0000648 L19.7323427,12.0000648 Z" id="Fill-4" fill="#FFFFFF" mask="url(#mask-2)"></path>
        <rect id="Rectangle" stroke="#DDE2E3" stroke-width="3" opacity="0" fill-rule="nonzero" x="1.5" y="1.5" width="45" height="45"></rect>
    </g>
</svg>