<?xml version="1.0" encoding="UTF-8"?>
<svg width="48px" height="48px" viewBox="0 0 48 48" version="1.1" xmlns="http://www.w3.org/2000/svg" xmlns:xlink="http://www.w3.org/1999/xlink">
    <!-- Generator: Sketch 64 (93537) - https://sketch.com -->
    <title>Graphics / 01 Flags/SGD</title>
    <desc>Created with Sketch.</desc>
    <defs>
        <rect id="path-1" x="0" y="0" width="48" height="48"></rect>
    </defs>
    <g id="Graphics-/-01-Flags/SGD" stroke="none" stroke-width="1" fill="none" fill-rule="evenodd">
        <g id="Flag">
            <mask id="mask-2" fill="white">
                <use xlink:href="#path-1"></use>
            </mask>
            <g id="Mask" fill-rule="nonzero"></g>
            <polygon id="Fill-5809" fill="#FFFFFF" mask="url(#mask-2)" points="4.54747351e-13 48 48 48 48 24 4.54747351e-13 24"></polygon>
            <polygon id="Fill-5811" fill="#F30004" mask="url(#mask-2)" points="4.54747351e-13 23.9978834 48 23.9978834 48 -0.00211658876 4.54747351e-13 -0.00211658876"></polygon>
            <polygon id="Path" fill="#FFFFFF" mask="url(#mask-2)" points="17.6046532 10.3392 18.1102628 11.8203321 19.6061491 11.8675019 18.4214072 12.829766 18.8402553 14.3392 17.6046532 13.4524075 16.3690511 14.3392 16.7878993 12.829766 15.6061491 11.8675019 17.0990437 11.8203321"></polygon>
            <polygon id="Path" fill="#FFFFFF" mask="url(#mask-2)" points="22.6046532 6.3392 23.1102628 7.82033208 24.6061491 7.86750189 23.4214072 8.82976604 23.8402553 10.3392 22.6046532 9.45240755 21.3690511 10.3392 21.7878993 8.82976604 20.6061491 7.86750189 22.0990437 7.82033208"></polygon>
            <polygon id="Path" fill="#FFFFFF" mask="url(#mask-2)" points="26.6046532 10.3392 27.1102628 11.8203321 28.6061491 11.8675019 27.4214072 12.829766 27.8402553 14.3392 26.6046532 13.4524075 25.3690511 14.3392 25.7878993 12.829766 24.6061491 11.8675019 26.0990437 11.8203321"></polygon>
            <polygon id="Path" fill="#FFFFFF" mask="url(#mask-2)" points="19.6046532 16.3392 20.1102628 17.8203321 21.6061491 17.8675019 20.4214072 18.829766 20.8402553 20.3392 19.6046532 19.4524075 18.3690511 20.3392 18.7878993 18.829766 17.6061491 17.8675019 19.0990437 17.8203321"></polygon>
            <polygon id="Path" fill="#FFFFFF" mask="url(#mask-2)" points="24.6046532 16.3392 25.1102628 17.8203321 26.6061491 17.8675019 25.4214072 18.829766 25.8402553 20.3392 24.6046532 19.4524075 23.3690511 20.3392 23.7878993 18.829766 22.6061491 17.8675019 24.0990437 17.8203321"></polygon>
            <path d="M17.6061491,5.4789195 C17.0941627,5.38577317 16.567026,5.3392 16.0274128,5.3392 C11.3763122,5.3392 7.60614911,8.92109997 7.60614911,13.341317 C7.60614911,17.7573 11.3763122,21.3392 16.0274128,21.3392 C16.567026,21.3392 17.0941627,21.2926268 17.6061491,21.1994805 C13.7094376,20.4966491 10.7636217,17.2449952 10.7636217,13.341317 C10.7636217,9.43340482 13.7094376,6.18175094 17.6061491,5.4789195" id="Fill-5401" fill="#FFFFFF" mask="url(#mask-2)"></path>
        </g>
        <rect id="Rectangle" stroke="#DDE2E3" stroke-width="3" opacity="0" fill-rule="nonzero" x="1.5" y="1.5" width="45" height="45"></rect>
    </g>
</svg>