<?xml version="1.0" encoding="UTF-8"?>
<svg width="48px" height="48px" viewBox="0 0 48 48" version="1.1" xmlns="http://www.w3.org/2000/svg" xmlns:xlink="http://www.w3.org/1999/xlink">
    <!-- Generator: Sketch 64 (93537) - https://sketch.com -->
    <title>Graphics / 01 Flags/SZL</title>
    <desc>Created with Sketch.</desc>
    <defs>
        <rect id="path-1" x="0" y="0" width="48" height="48" rx="5"></rect>
    </defs>
    <g id="Graphics-/-01-Flags/SZL" stroke="none" stroke-width="1" fill="none" fill-rule="evenodd">
        <g id="Flag">
            <mask id="mask-2" fill="white">
                <use xlink:href="#path-1"></use>
            </mask>
            <g id="Mask" fill-rule="nonzero"></g>
            <g id="Group" mask="url(#mask-2)">
                <rect id="Rectangle" fill="#3E5EB9" fill-rule="nonzero" x="0" y="0" width="48" height="48"></rect>
                <rect id="Rectangle" fill="#FFD900" fill-rule="nonzero" x="0" y="9" width="48" height="30"></rect>
                <rect id="Rectangle" fill="#B10C0C" fill-rule="nonzero" x="0" y="12" width="48" height="24"></rect>
                <rect id="Rectangle" fill="#FFD900" fill-rule="nonzero" x="8" y="24" width="31" height="1" rx="0.5"></rect>
                <polygon id="Path" fill="#FFFFFF" fill-rule="nonzero" points="35.5 21 34 21.5 35.5 22 37 21.5 35.5 21"></polygon>
                <polygon id="Path" fill="#FFFFFF" fill-rule="nonzero" points="34.5 22 33 22.5 34.5 23 36 22.5 34.5 22"></polygon>
                <rect id="Rectangle" fill="#FFD900" fill-rule="nonzero" x="12" y="21.25" width="23" height="1" rx="0.5"></rect>
                <rect id="Rectangle" fill="#FFD900" fill-rule="nonzero" x="11" y="22.25" width="23" height="1" rx="0.5"></rect>
                <path d="M33,23.5001604 C31.1000665,25.3333547 28.5666667,29 23.5,29 C19.0666667,29 15.900532,25.3333547 14,23.5001604 C15.8999335,21.6666453 19.0664007,18 23.5,18 C28.5664007,18 31.099468,21.6666453 33,23.5001604 Z" id="Path" fill="#FFFFFF" fill-rule="nonzero"></path>
                <path d="M22.4808673,19.9134756 C22.9659934,20.4620253 22.5609026,20.6832034 23.0744304,20.7192001 C23.6159769,20.7591752 23.3089835,21.2988701 23.7644953,21.3176064 C24.082977,21.3315944 23.732711,22.6106028 24.0392576,23.0326826 C24.3515483,23.4726646 24.613099,23.1615909 24.6185879,23.4794661 C24.6240129,23.8082495 23.7686439,23.775076 23.7536452,24.787798 C23.7285624,25.3714463 23.0317959,25.4087905 22.9985437,25.7843504 C22.9571857,26.1375808 24.3712061,26.3358518 24.3523142,26.6520588 C24.3329117,26.9673032 22.8255168,26.9179601 22.7599058,27.2774786 C22.7262705,27.600423 24.8307388,27.8651051 25,28.7990321 C24.685986,28.9022742 23.792514,28.9994847 23.1172563,29 C18.8629409,29.003078 15.8234513,25.3331395 14,23.5 C15.8235151,21.6665377 18.8626218,18 23.1178945,18 C23.1178945,18 21.8548817,19.1602383 22.4815055,19.9130906 L22.4808673,19.9134756 Z" id="Path" fill="#000000" fill-rule="nonzero"></path>
                <path d="M37.8010892,24 C37.4667645,24.5313486 38.0576262,23.8232855 39.4993627,24.7128123 C39.7665598,24.8780436 40,25.314549 40,25.6172249 C39.9321772,25.5756158 39.8818122,25.4829701 39.8071144,25.4227893 C39.7025221,25.5189793 39.9069947,25.9598795 39.9368893,26.1682793 C39.7114828,26.0525253 39.7331891,25.9977317 39.6583369,25.855467 C39.6732455,26.0274322 39.6196362,26.5010101 39.7093198,26.6833954 C39.5316519,26.6368244 39.5434707,26.5056176 39.4506972,26.4792486 C39.5138079,26.6856637 39.3956973,26.9102959 39.4270596,27.1423711 C39.3232397,27.048095 39.2126221,26.9742336 39.1644201,26.9361687 C39.1563091,27.0466773 38.9647368,27.3370902 38.960411,27.4415736 C38.8723495,27.3927344 38.8484029,27.3166046 38.833726,27.2653553 C38.7242671,27.3916002 38.3351744,27.8578061 38.3102236,28 C38.0104283,27.7570087 37.2424395,27.1653376 37.1424819,26.8512493 C37.0541115,27.0295233 36.9261906,27.0897041 36.6733614,27.2198476 C36.5734811,26.7220982 36.1998378,26.1626085 36.3996756,25.7359561 C36.258082,25.8130073 36.1415164,25.8900585 36,25.9848308 C36.1341007,25.2639376 36.8178131,24.4186426 37.8013209,24 L37.8010892,24 Z" id="Path" fill="#3D5DA7" fill-rule="nonzero"></path>
                <path d="M9.02207921,24.4251787 C9.00727534,24.2573976 9.03584315,24.2373376 8.95368775,24.1108293 C9.07328105,24.1736992 9.07780786,24.3407886 9.22321618,24.2221966 C9.27662025,24.1874568 9.29992718,24.1863808 9.23502258,24 C9.38667055,24.0088387 9.88321215,24.2228115 9.96273711,24.2277304 C10.1715207,24.2397971 10.5526899,23.9521174 10.8172634,24.3058182 C11.0711927,24.6283145 10.9864068,24.9630313 10.9864068,25.4096534 C10.8843702,25.3482438 10.9335533,25.3179617 10.825277,25.1582507 C10.9064537,25.5486127 10.8209337,26.2524787 10.8209337,26.666513 C10.7792749,26.5666744 10.7853922,26.6100223 10.744651,26.5066482 C10.6363747,26.8845592 10.5066266,26.9623396 10.5066266,27.4089616 C10.4675371,27.2338022 10.5052808,27.2708477 10.4617868,27.178695 C10.3565692,27.465606 9.65063224,27.7107832 9.92266876,28 C9.67712017,27.819153 9.56945561,27.838137 9.45812067,27.6754285 C9.410161,27.7143187 9.3720502,27.7879487 9.32745505,27.8888633 C8.89575688,27.6393052 9.05009647,27.1010683 8.71193188,26.7415264 C8.65338928,26.892245 8.68006073,26.8704173 8.6168078,27.1157482 C8.54835516,26.7749596 8.52963621,26.5584505 8.45261935,26.3078933 C8.38618542,26.4467758 8.39211921,26.3935132 8.27148597,26.6034125 C8.22156876,26.1883022 8.14033096,26.0903082 8.17244681,25.8156176 C8.04422811,25.9292906 8.12815753,25.8832526 8,26.0231343 C8.12142849,24.959419 8.645865,24.1733917 9.02220156,24.4251018 L9.02207921,24.4251787 Z" id="Path" fill="#3D5DA7" fill-rule="nonzero"></path>
                <path d="M22,23 C21.813425,22.7401949 21.6531058,22.6627459 21.5326675,22.4955018 C21.3199362,22.2016273 21.2754804,21.9616567 21.1113819,22.0051037 C20.9472835,22.0486182 20.9563338,22.1727525 21.1933317,22.4604204 C21.4303297,22.7480882 21.5374412,22.8067822 22,23 L22,23 Z" id="Path" fill="#A70000" fill-rule="nonzero"></path>
                <rect id="Rectangle" fill="#000000" x="25" y="22" width="5" height="1"></rect>
                <rect id="Rectangle-Copy-2" fill="#FFFFFF" x="17" y="22" width="5" height="1"></rect>
                <rect id="Rectangle-Copy" fill="#000000" x="25" y="25" width="5" height="1"></rect>
                <rect id="Rectangle-Copy-3" fill="#FFFFFF" x="17" y="25" width="5" height="1"></rect>
                <path d="M20.6087818,19 C20.3101718,19.5464247 21.1316132,18.8182629 22.4193025,19.7330157 C22.6579339,19.9029748 23,20.5743884 23,20.8856113 C22.7258341,20.8304335 22.2403478,20.5743884 22.2403478,20.5743884 C22.2403478,20.5743884 22.8101058,21.1143173 22.8101058,21.7367632 C22.6088195,21.617699 22.5081009,21.6355444 22.4411815,21.4893552 C22.4411815,21.690865 22.6202116,21.8192801 22.6202116,22.1305031 C22.4749052,22.0207898 22.351855,21.9476953 22.2289557,21.8835234 C22.4188498,22.1947463 21.882891,22.7984903 22.1510968,23 C21.6819819,22.9358281 21.2020031,22.6522298 21.0121089,22.3410068 C20.9114657,22.4051787 20.9005262,22.5059693 20.8966031,22.6133983 C20.9113903,22.6250335 20.1825195,22.1015222 20.2495143,21.9004408 C20.1517381,22.0302122 20.1380071,22.1015222 20.1156755,22.2477827 C19.8479224,21.9979478 19.602501,21.7481129 19.5131745,21.425112 C19.3941983,21.5713725 19.3867293,21.5713725 19.2677531,21.717633 C19.178502,21.2057569 19.178502,21.2240306 19.3570041,20.7853204 C19.2305589,20.8645538 19.1264452,20.9437871 19,21.0412941 C19.1197307,20.2999982 19.7304551,19.4307154 20.6088572,19.0002141 L20.6087818,19 Z" id="Path" fill="#3D5DA7" fill-rule="nonzero"></path>
            </g>
        </g>
        <rect id="Rectangle" stroke="#DDE2E3" stroke-width="3" opacity="0" fill-rule="nonzero" x="1.5" y="1.5" width="45" height="45" rx="5"></rect>
    </g>
</svg>