<?xml version="1.0" encoding="UTF-8"?>
<svg width="48px" height="48px" viewBox="0 0 48 48" version="1.1" xmlns="http://www.w3.org/2000/svg" xmlns:xlink="http://www.w3.org/1999/xlink">
    <!-- Generator: Sketch 64 (93537) - https://sketch.com -->
    <title>Graphics / 01 Flags/TND</title>
    <desc>Created with Sketch.</desc>
    <defs>
        <rect id="path-1" x="0" y="0" width="48" height="48" rx="5"></rect>
    </defs>
    <g id="Graphics-/-01-Flags/TND" stroke="none" stroke-width="1" fill="none" fill-rule="evenodd">
        <g id="Flag">
            <mask id="mask-2" fill="white">
                <use xlink:href="#path-1"></use>
            </mask>
            <g id="Mask" fill-rule="nonzero"></g>
            <g id="iStock-538932449" mask="url(#mask-2)">
                <g transform="translate(-1.000000, -1.000000)">
                    <polygon id="Fill-1" fill="#CA2121" points="0.969986696 48.9226608 48.9699867 48.9226608 48.9699867 0.922660754 0.969986696 0.922660754"></polygon>
                    <path d="M26.2017191,19 L26.2101834,23.5900159 L22,25 L26.2101834,26.4099841 L26.2017191,31 L28.7952194,27.2814612 L33,28.708262 L30.3928127,25 L33,21.291738 L28.7952194,22.7185388 L26.2017191,19 Z M24.4809873,14 C18.6924203,14 14,18.7008908 14,24.4999071 C14,30.2989234 18.6924203,35 24.4809873,35 C27.9910305,35 31.0977376,33.2709773 33,30.6173445 C31.4930996,32.0467095 29.4588026,32.923575 27.2197779,32.923575 C22.5757579,32.923575 18.8112885,29.1523103 18.8112885,24.4999071 C18.8112885,19.8476897 22.5757579,16.0762392 27.2197779,16.0762392 C29.4588026,16.0762392 31.4930996,16.9532905 33,18.3826555 C31.0977376,15.728837 27.9910305,14 24.4809873,14 Z M25,11 C32.7320383,11 39,17.2680034 39,24.9999069 C39,32.7319966 32.7320383,39 25,39 C17.268148,39 11,32.7319966 11,24.9999069 C11,17.2680034 17.268148,11 25,11 L25,11 Z" id="Fill-3" fill="#FFFFFF"></path>
                </g>
            </g>
        </g>
        <rect id="Rectangle" stroke="#DDE2E3" stroke-width="3" opacity="0" fill-rule="nonzero" x="1.5" y="1.5" width="45" height="45" rx="5"></rect>
    </g>
</svg>