<?xml version="1.0" encoding="UTF-8"?>
<svg width="48px" height="48px" viewBox="0 0 48 48" version="1.1" xmlns="http://www.w3.org/2000/svg" xmlns:xlink="http://www.w3.org/1999/xlink">
    <!-- Generator: Sketch 64 (93537) - https://sketch.com -->
    <title>Graphics / 01 Flags/TZS</title>
    <desc>Created with Sketch.</desc>
    <defs>
        <rect id="path-1" x="0" y="0" width="48" height="48"></rect>
    </defs>
    <g id="Graphics-/-01-Flags/TZS" stroke="none" stroke-width="1" fill="none" fill-rule="evenodd">
        <g id="Flag">
            <mask id="mask-2" fill="white">
                <use xlink:href="#path-1"></use>
            </mask>
            <g id="Mask" fill-rule="nonzero"></g>
            <g id="iStock-500022164" mask="url(#mask-2)">
                <g transform="translate(-1.000000, -1.000000)">
                    <polyline id="Fill-1" fill="#1A1919" points="0 41.0642762 41.8282392 0 50 0 50 7.93572376 8.1716432 49 0 49 0 41.0642762"></polyline>
                    <polyline id="Fill-2" fill="#FBD020" points="10.8562746 49 50 9.85641701 50 6 7 49 10.8562746 49"></polyline>
                    <polyline id="Fill-3" fill="#FBD020" points="1 39.2332671 39.2333957 1 43 1 1 43 1 39.2332671"></polyline>
                    <polyline id="Fill-4" fill="#0093C6" points="50 9 50 49 10 49 50 9"></polyline>
                    <polyline id="Fill-5" fill="#15A748" points="0.5 1 40.5 1 0.5 40 0.5 1"></polyline>
                </g>
            </g>
        </g>
        <path d="M43,1.5 L5,1.5 C4.03350169,1.5 3.15850169,1.89175084 2.52512627,2.52512627 C1.89175084,3.15850169 1.5,4.03350169 1.5,5 L1.5,43 C1.5,43.9664983 1.89175084,44.8414983 2.52512627,45.4748737 C3.15850169,46.1082492 4.03350169,46.5 5,46.5 L43,46.5 C43.9664983,46.5 44.8414983,46.1082492 45.4748737,45.4748737 C46.1082492,44.8414983 46.5,43.9664983 46.5,43 L46.5,5 C46.5,4.03350169 46.1082492,3.15850169 45.4748737,2.52512627 C44.8414983,1.89175084 43.9664983,1.5 43,1.5 Z" id="Rectangle" stroke="#DDE2E3" stroke-width="3" opacity="0" fill-rule="nonzero"></path>
    </g>
</svg>