<?xml version="1.0" encoding="UTF-8"?>
<svg width="48px" height="48px" viewBox="0 0 48 48" version="1.1" xmlns="http://www.w3.org/2000/svg" xmlns:xlink="http://www.w3.org/1999/xlink">
    <!-- Generator: Sketch 64 (93537) - https://sketch.com -->
    <title>Graphics / 01 Flags/UGX</title>
    <desc>Created with Sketch.</desc>
    <defs>
        <rect id="path-1" x="0" y="0" width="48" height="48" rx="5"></rect>
    </defs>
    <g id="Graphics-/-01-Flags/UGX" stroke="none" stroke-width="1" fill="none" fill-rule="evenodd">
        <g id="Flag">
            <mask id="mask-2" fill="white">
                <use xlink:href="#path-1"></use>
            </mask>
            <g id="Mask" fill-rule="nonzero"></g>
            <rect id="Rectangle" fill="#000000" fill-rule="nonzero" mask="url(#mask-2)" x="0" y="0" width="48" height="48"></rect>
            <rect id="Rectangle" fill="#FCDC04" fill-rule="nonzero" mask="url(#mask-2)" x="0" y="8" width="48" height="8"></rect>
            <rect id="Rectangle" fill="#D90000" fill-rule="nonzero" mask="url(#mask-2)" x="0" y="16" width="48" height="8"></rect>
            <rect id="Rectangle" fill="#FCDC04" fill-rule="nonzero" mask="url(#mask-2)" x="0" y="32" width="48" height="8"></rect>
            <rect id="Rectangle" fill="#D90000" fill-rule="nonzero" mask="url(#mask-2)" x="0" y="40" width="48" height="8"></rect>
            <circle id="Oval" fill="#FFFFFF" fill-rule="nonzero" mask="url(#mask-2)" cx="24" cy="24" r="7.48"></circle>
            <path d="M23.1496848,18.0329632 L23.2177848,17.0457024 C23.2177848,17.0457024 24.2220704,16.9861792 24.766744,17.6414504 C24.775256,17.6329384 24.2305832,18.4073848 24.2305832,18.4073848 L23.1496848,18.0329632 Z" id="Path" fill="#FCDC04" fill-rule="nonzero" mask="url(#mask-2)"></path>
            <path d="M22.9284232,31.0458544 C22.9284232,31.0458544 23.856096,29.9819808 25.6603664,30.2118192 C25.3880296,29.769232 24.511432,29.8203072 24.511432,29.8203072 C24.511432,29.8203072 24.239096,27.7522128 24.4518448,27.6500624 C24.6645928,27.547912 25.566728,27.6585752 25.566728,27.6585752 C25.6858392,27.6585752 25.89014,27.3351632 25.7284664,27.1309272 C25.566728,26.9266256 25.0901552,26.1436664 25.2858792,25.9904408 C25.481668,25.83728 26.545476,26.0755656 26.545476,26.0755656 L23.5411968,22.2287392 C23.5411968,22.2287392 23.2348104,20.7819312 23.8475832,20.084032 C24.5880456,19.4712584 24.511432,18.8074096 24.4858944,18.8159224 C24.383744,18.1435608 23.3624984,17.6584112 22.673112,18.2797616 C22.2645744,18.77336 22.5369112,19.1478464 22.5369112,19.1478464 C22.5369112,19.1478464 21.4645904,19.437208 21.4220272,19.6244192 C21.3794648,19.8116952 22.6305488,19.5904344 22.6305488,19.5904344 L22.5113736,20.4500064 C22.5113736,20.4500064 20.0773048,22.6627488 21.9411624,24.5776824 C21.958188,24.5691696 22.0007504,24.4925568 22.0007504,24.4925568 C22.0007504,24.4925568 22.6560864,25.3011192 23.345408,25.4798176 C23.992232,26.1436664 23.9327088,26.041516 23.9327088,26.041516 C23.9327088,26.041516 24.060332,27.088364 23.9412216,27.2926 C23.7794832,27.2415248 22.1284384,27.1820024 21.8815752,27.2755752 C21.6603136,27.343676 20.8092536,27.3011128 21.0220024,28.6883984 C21.183676,28.3139112 21.3283896,27.9819864 21.3283896,27.9819864 C21.3283896,27.9819864 21.302852,28.4840968 21.5071528,28.6628608 C21.4731024,28.135148 21.702876,27.7777504 21.702876,27.7777504 C21.702876,27.7777504 21.7454392,28.3564736 21.8730624,28.4415344 C22.0007504,28.52666 22.0007504,27.5053488 22.7071624,27.5904744 C23.4135088,27.6756 23.9241968,27.6500624 23.9241968,27.6500624 C23.9241968,27.6500624 24.1624832,29.650056 24.0858696,29.837332 C23.5751816,29.7181568 22.3582128,29.8884072 22.2816,30.1947944 C22.9964584,30.1522312 23.328448,30.237292 23.328448,30.237292 C23.328448,30.237292 22.7497248,30.74798 22.9284232,31.0458544 Z" id="Path" fill="#000000" fill-rule="nonzero" mask="url(#mask-2)"></path>
            <path d="M23.215316,20.1328328 C23.215316,20.1328328 21.4441856,22.0850008 22.2083008,23.5788552 C22.2489792,23.3705256 22.2312392,23.2396528 22.2567768,23.2481656 C22.2142144,23.222628 22.4764136,23.427904 22.456464,23.38794 C22.4620528,23.2799416 22.3766024,23.0484784 22.3766024,23.0484784 C22.456464,23.0684272 22.5363912,23.0884416 22.6162536,23.1083904 C22.5696616,23.021836 22.5230048,22.9353456 22.4764136,22.8487904 C22.5896112,22.862112 22.7027432,22.875368 22.8159408,22.8886888 C22.8159408,22.8886888 22.6961152,22.569176 22.7360784,22.569176 C22.7759776,22.569176 23.015628,22.5891256 23.015628,22.5891256 C22.5119584,21.685236 22.9871016,20.934572 23.215316,20.1328328 Z" id="Path" fill="#9CA69C" fill-rule="nonzero" mask="url(#mask-2)"></path>
            <path d="M23.8305584,18.45846 C23.8305584,18.45846 23.9241968,19.1308216 23.5582216,19.3265456 C23.4986344,19.369108 23.26886,19.4457208 23.3029104,19.5819216 C23.3454728,19.7691328 23.4475584,19.7350824 23.592272,19.701032 C23.9752064,19.632932 24.4177944,18.8159224 23.8305584,18.45846 Z" id="Path" fill="#9CA69C" fill-rule="nonzero" mask="url(#mask-2)"></path>
            <path d="M23.6773328,24.4245216 C23.6517952,24.5351848 23.5411968,24.9436568 23.6943576,25.258556 C24.11992,25.0798576 24.315644,25.130868 24.4603568,25.2245064 C24.1114728,24.9436568 23.975272,24.8244816 23.6773328,24.4245216 Z" id="Path" fill="#9CA69C" fill-rule="nonzero" mask="url(#mask-2)"></path>
            <path d="M26.8178128,26.4755904 C26.8178128,26.4755904 26.2050392,24.994732 24.6390552,24.6202456 C23.073072,24.2457584 23.277308,22.5776888 23.404996,22.4755384 C23.4730968,22.3308248 23.524172,22.1095632 23.9752064,22.3223768 C24.4263064,22.5351256 26.5029136,23.5819096 26.800788,23.6329848 C27.0986616,23.68406 26.8433504,26.5096408 26.8178128,26.4755904 Z" id="Path" fill="#9CA69C" fill-rule="nonzero" mask="url(#mask-2)"></path>
            <path d="M24.4092816,26.3564152 L24.4348192,27.3096256 C24.4348192,27.3096256 24.766744,27.3692136 24.9199048,27.3096256 C25.0731304,27.2500376 24.911392,26.6457768 24.4092816,26.3564152 Z" id="Path" fill="#FFFFFF" fill-rule="nonzero" mask="url(#mask-2)"></path>
            <path d="M21.4135144,19.6754944 C21.4135144,19.6754944 22.4007752,19.437208 22.5198864,19.4712584" id="Path" stroke-opacity="0.85" stroke="#000000" stroke-width="0.1" fill="#000000" fill-rule="nonzero" mask="url(#mask-2)"></path>
            <path d="M22.6816248,18.2712496 L22.1964744,17.3776264 C22.3836856,17.190416 22.6986496,17.0457024 23.20076,17.0457024 C23.20076,17.0797528 23.1496848,18.0244504 23.1496848,18.0244504 L22.6816248,18.2712496 Z" id="Path" fill="#D90000" fill-rule="nonzero" mask="url(#mask-2)"></path>
            <path d="M24.247608,18.3988728 L24.7412064,17.6329384 C25.0731304,17.981888 25.2092664,18.2286864 25.2603416,18.6031736 C25.2688544,18.6116864 24.4773824,18.7988976 24.4773824,18.7903848 C24.4773824,18.781872 24.2561208,18.4073848 24.247608,18.3988728 Z" id="Path" fill="#D90000" fill-rule="nonzero" mask="url(#mask-2)"></path>
            <path d="M22.6050112,19.5988816 C22.5113736,19.6754944 22.017776,20.1861824 22.5028608,20.3733936 C23.005036,20.2371928 22.8688352,20.14362 22.9794984,20.0329568 C22.9823576,19.8031832 22.7298408,19.7435952 22.6050112,19.5988816 Z" id="Path" fill="#D90000" fill-rule="nonzero" mask="url(#mask-2)"></path>
            <path d="M25.3284416,24.6117328 C25.302904,24.6287576 27.4220736,25.862752 26.7837624,26.9266256 C27.3880888,26.5266008 27.1923,25.8287672 27.1923,25.8287672 C27.1923,25.8287672 27.6858976,27.1139016 26.4858888,27.7437008 C26.6135768,27.8543632 26.6987024,27.8287608 26.6987024,27.8287608 L26.4944008,28.0330624 C26.4944008,28.0330624 26.4007632,28.1862232 27.2093248,27.7947104 C26.9879992,27.9734744 26.9710384,28.1010976 26.9710384,28.1010976 C26.9710384,28.1010976 27.0305616,28.271348 27.5582744,27.811736 C27.132712,28.271348 27.0390744,28.5096344 27.0390744,28.5011224 C28.188008,28.398972 30.6901776,24.662808 26.2476024,23.556372 C26.4859536,23.8032352 26.4518384,23.7691856 26.4518384,23.7691856 L25.3284416,24.6117328 Z" id="Path" fill="#D90000" fill-rule="nonzero" mask="url(#mask-2)"></path>
            <circle id="Oval" fill="#FFFFFF" fill-rule="nonzero" mask="url(#mask-2)" cx="23.04" cy="19.04" r="1"></circle>
            <path d="M25.42208,24.2457584 C25.7114416,24.4499944 25.8135272,24.5180944 25.8475776,24.6202456 C25.5837536,24.5607224 25.3454672,24.5776824 25.3454672,24.5776824 C25.3454672,24.5776824 24.775256,24.0330096 24.6731056,23.9904464 C24.5964928,23.9904464 24.1539704,23.7095976 24.1539704,23.7095976 C23.9327088,23.5989344 23.7284728,22.833 24.5454824,23.0542616 C25.3879648,23.4542208 25.5071408,23.488336 25.5071408,23.488336 C25.841924,23.5932808 26.1766424,23.6982912 26.5114264,23.8032352 C26.7043552,24.0188432 26.89722,24.2344512 27.0901496,24.4500592 C27.0901496,24.4500592 26.0603912,23.9393712 25.9327032,23.9308592 C26.213552,24.1606328 26.3752904,24.475532 26.3752904,24.475532 C26.0490192,24.3818936 25.765376,24.2968336 25.42208,24.2457584 Z" id="Path" fill="#FFFFFF" fill-rule="nonzero" mask="url(#mask-2)"></path>
        </g>
        <rect id="Rectangle" stroke="#DDE2E3" stroke-width="3" opacity="0" fill-rule="nonzero" x="1.5" y="1.5" width="45" height="45" rx="5"></rect>
    </g>
</svg>