<?xml version="1.0" encoding="UTF-8"?>
<svg width="48px" height="48px" viewBox="0 0 48 48" version="1.1" xmlns="http://www.w3.org/2000/svg" xmlns:xlink="http://www.w3.org/1999/xlink">
    <!-- Generator: Sketch 64 (93537) - https://sketch.com -->
    <title>Graphics / 01 Flags/USD</title>
    <desc>Created with Sketch.</desc>
    <defs>
        <rect id="path-1" x="0" y="0" width="48" height="48"></rect>
    </defs>
    <g id="Graphics-/-01-Flags/USD" stroke="none" stroke-width="1" fill="none" fill-rule="evenodd">
        <mask id="mask-2" fill="white">
            <use xlink:href="#path-1"></use>
        </mask>
        <g id="Mask" fill-rule="nonzero"></g>
        <rect id="Rectangle" fill="#FFFFFF" mask="url(#mask-2)" x="0" y="0" width="48" height="48"></rect>
        <path d="M0,38.6226848 L48,38.6226848 L48,35.3740272 L0,35.3740272 L0,38.6226848 Z M0,32.1253696 L48,32.1253696 L48,28.8729864 L0,28.8729864 L0,32.1253696 Z M0,25.6243288 L48,25.6243288 L48,22.3756712 L0,22.3756712 L0,25.6243288 Z M0,19.1270136 L48,19.1270136 L48,15.878356 L0,15.878356 L0,19.1270136 Z M0,12.6296984 L48,12.6296984 L48,9.37731522 L0,9.37731522 L0,12.6296984 Z M0,6.12865761 L48,6.12865761 L48,2.88 L0,2.88 L0,6.12865761 Z M0,45.12 L48,45.12 L48,41.8713424 L0,41.8713424 L0,45.12 Z" id="Fill-8817" fill="#F30004" mask="url(#mask-2)"></path>
        <polygon id="Fill-8818" fill="#0132BF" mask="url(#mask-2)" points="3.36619621e-12 25.637881 24 25.637881 24 0 6.37712105e-13 0"></polygon>
        <path d="M20.8508803,21.2965715 L21.1982202,22.402772 L22.3245242,22.402772 L21.4142541,23.0838624 L21.761594,24.1854918 L20.8508803,23.5044014 L19.9401666,24.1854918 L20.2879501,23.0838624 L19.3781236,22.402772 L20.5026532,22.402772 L20.8508803,21.2965715 Z M14.5131467,21.2965715 L14.8613738,22.402772 L15.9859035,22.402772 L15.0760769,23.0838624 L15.4238605,24.1854918 L14.5131467,23.5044014 L13.6033202,24.1854918 L13.9506601,23.0838624 L13.04039,22.402772 L14.1658068,22.402772 L14.5131467,21.2965715 Z M8.17630037,21.2965715 L8.52364028,22.402772 L9.6481699,22.402772 L8.73834337,23.0838624 L9.08612689,24.1854918 L8.17541316,23.5044014 L7.26469944,24.1854918 L7.61292656,23.0838624 L6.70265643,22.402772 L7.82807325,22.402772 L8.17630037,21.2965715 Z M1.8376796,21.2965715 L2.18590672,22.402772 L3.31132354,22.402772 L2.40060981,23.0838624 L2.74883693,24.1854918 L1.8385668,23.5044014 L0.927853078,24.1854918 L1.27519299,23.0838624 L0.364479268,22.402772 L1.49033968,22.402772 L1.8376796,21.2965715 Z M17.6817917,18.4990727 L18.0300188,19.6007021 L19.1554356,19.6007021 L18.2447219,20.2863636 L18.592949,21.387993 L17.6822353,20.7069026 L16.7719652,21.387993 L17.1193051,20.2863636 L16.2085914,19.6007021 L17.3340082,19.6007021 L17.6817917,18.4990727 Z M11.3445017,18.4990727 L11.6922853,19.6007021 L12.8177021,19.6007021 L11.9069884,20.2863636 L12.2552155,21.387993 L11.3436145,20.7069026 L10.4342316,21.387993 L10.7815715,20.2863636 L9.87085781,19.6007021 L10.9971618,19.6007021 L11.3445017,18.4990727 Z M5.00765539,18.4990727 L5.3549953,19.6007021 L6.48085572,19.6007021 L5.56925479,20.2863636 L5.91748191,21.387993 L5.00676818,20.7069026 L4.09649806,21.387993 L4.44383797,20.2863636 L3.53401145,19.6007021 L4.65942827,19.6007021 L5.00765539,18.4990727 Z M20.7253411,15.8615615 L21.072681,16.963191 L22.1980978,16.963191 L21.2873841,17.6442813 L21.6351676,18.7504819 L20.7244539,18.0648204 L19.8146274,18.7504819 L20.1619673,17.6442813 L19.2516972,16.963191 L20.377114,16.963191 L20.7253411,15.8615615 Z M14.3876075,15.8615615 L14.7349474,16.963191 L15.8603643,16.963191 L14.9496505,17.6442813 L15.297434,18.7504819 L14.3876075,18.0648204 L13.477781,18.7504819 L13.8251209,17.6442813 L12.91352,16.963191 L14.0393804,16.963191 L14.3876075,15.8615615 Z M8.04987396,15.8615615 L8.39810108,16.963191 L9.52351789,16.963191 L8.61280417,17.6442813 L8.96014408,18.7504819 L8.04987396,18.0648204 L7.13916023,18.7504819 L7.48650015,17.6442813 L6.57578642,16.963191 L7.70120324,16.963191 L8.04987396,15.8615615 Z M1.7121404,15.8615615 L2.05948031,16.963191 L3.18578433,16.963191 L2.27507061,17.6442813 L2.62241052,18.7504819 L1.7121404,18.0648204 L0.802313874,18.7504819 L1.14965379,17.6442813 L0.238052862,16.963191 L1.36435688,16.963191 L1.7121404,15.8615615 Z M17.5566961,13.0640627 L17.904036,14.1656921 L19.0298964,14.1656921 L18.1191827,14.8467825 L18.4665226,15.948412 L17.5558089,15.2673216 L16.6455388,15.948412 L16.9937659,14.8467825 L16.0830522,14.1656921 L17.208469,14.1656921 L17.5566961,13.0640627 Z M11.2189625,13.0640627 L11.5663025,14.1656921 L12.6917193,14.1656921 L11.7814491,14.8467825 L12.1296763,15.948412 L11.2180753,15.2673216 L10.3082488,15.948412 L10.6560323,14.8467825 L9.74531861,14.1656921 L10.8707354,14.1656921 L11.2189625,13.0640627 Z M4.88122898,13.0640627 L5.2285689,14.1656921 L6.35398571,14.1656921 L5.44371559,14.8467825 L5.79194271,15.948412 L4.88122898,15.2673216 L3.97051525,15.948412 L4.31829877,14.8467825 L3.40758504,14.1656921 L4.53300186,14.1656921 L4.88122898,13.0640627 Z M20.7581676,10.453978 L21.1055075,11.5556075 L22.2309243,11.5556075 L21.3206542,12.2366979 L21.6688813,13.3383273 L20.7581676,12.6572369 L19.8474539,13.3383273 L20.1952374,12.2366979 L19.2845237,11.5556075 L20.4099405,11.5556075 L20.7581676,10.453978 Z M8.08270047,10.453978 L8.43092758,11.5556075 L9.5554572,11.5556075 L8.64563067,12.2366979 L8.99341419,13.3383273 L8.08270047,12.6572369 L7.17198674,13.3383273 L7.51932666,12.2366979 L6.60905653,11.5556075 L7.73447335,11.5556075 L8.08270047,10.453978 Z M1.7449669,10.453978 L2.09319402,11.5556075 L3.21861084,11.5556075 L2.30789711,12.2366979 L2.65523703,13.3383273 L1.7449669,12.6572369 L0.834253177,13.3383273 L1.18159309,12.2366979 L0.270879367,11.5556075 L1.39762699,11.5556075 L1.7449669,10.453978 Z M14.420434,10.453978 L14.7677739,11.5556075 L15.8931908,11.5556075 L14.9829206,12.2366979 L15.3311478,13.3383273 L14.420434,12.6572369 L13.5097203,13.3383273 L13.8570602,12.2366979 L12.9467901,11.5556075 L14.0722069,11.5556075 L14.420434,10.453978 Z M17.589079,7.65190812 L17.9364189,8.75810864 L19.0618357,8.75810864 L18.1520092,9.43919903 L18.4993491,10.5408285 L17.589079,9.85973807 L16.6783653,10.5408285 L17.0257052,9.43919903 L16.1149915,8.75810864 L17.2412955,8.75810864 L17.589079,7.65190812 Z M11.251789,7.65190812 L11.5986854,8.75810864 L12.7249894,8.75810864 L11.8142757,9.43919903 L12.1625028,10.5408285 L11.2509018,9.85973807 L10.3406317,10.5408285 L10.6888588,9.43919903 L9.77814511,8.75810864 L10.9035619,8.75810864 L11.251789,7.65190812 Z M4.91316828,7.65190812 L5.2613954,8.75810864 L6.38725582,8.75810864 L5.47654209,9.43919903 L5.82476921,10.5408285 L4.91316828,9.85973807 L4.00378536,10.5408285 L4.35112528,9.43919903 L3.44041155,8.75810864 L4.56582837,8.75810864 L4.91316828,7.65190812 Z M14.3432474,4.63956871 L14.6914745,5.74119815 L15.8168913,5.74119815 L14.9066212,6.42228855 L15.2539611,7.52848906 L14.3441346,6.84282758 L13.4334209,7.52848906 L13.7812044,6.42228855 L12.8704906,5.74119815 L13.9950203,5.74119815 L14.3432474,4.63956871 Z M8.00640102,4.63956871 L8.35374094,5.74119815 L9.48004495,5.74119815 L8.56933123,6.42228855 L8.91711475,7.52848906 L8.00640102,6.84282758 L7.09568729,7.52848906 L7.44302721,6.42228855 L6.53275709,5.74119815 L7.6581739,5.74119815 L8.00640102,4.63956871 Z M1.66866746,4.63956871 L2.01689458,5.74119815 L3.14231139,5.74119815 L2.23159767,6.42228855 L2.57938118,7.52848906 L1.66866746,6.84282758 L0.757953732,7.52848906 L1.10618085,6.42228855 L0.195023523,5.74119815 L1.32132754,5.74119815 L1.66866746,4.63956871 Z M20.6809809,4.63956871 L21.0292081,5.74119815 L22.1546249,5.74119815 L21.2443548,6.42228855 L21.5916947,7.52848906 L20.6809809,6.84282758 L19.7711544,7.52848906 L20.1189379,6.42228855 L19.2082242,5.74119815 L20.333641,5.74119815 L20.6809809,4.63956871 Z M17.5127796,1.84206989 L17.8601195,2.94369933 L18.9855363,2.94369933 L18.0757098,3.62478973 L18.4230497,4.72641916 L17.5127796,4.04532877 L16.6011786,4.72641916 L16.9494058,3.62478973 L16.038692,2.94369933 L17.164996,2.94369933 L17.5127796,1.84206989 Z M11.175046,1.84206989 L11.5232731,2.94369933 L12.6486899,2.94369933 L11.7379762,3.62478973 L12.0862033,4.72641916 L11.175046,4.04532877 L10.2643323,4.72641916 L10.6125594,3.62478973 L9.70184567,2.94369933 L10.8272625,2.94369933 L11.175046,1.84206989 Z M4.83775604,1.84206989 L5.18553956,2.94369933 L6.31095637,2.94369933 L5.40024265,3.62478973 L5.74758256,4.72641916 L4.83686884,4.04532877 L3.92748592,4.72641916 L4.27482583,3.62478973 L3.36411211,2.94369933 L4.48952892,2.94369933 L4.83775604,1.84206989 Z M20.6809809,-0.96 L21.0292081,0.141629436 L22.1546249,0.141629436 L21.2443548,0.827290911 L21.5916947,1.92892035 L20.6809809,1.24782995 L19.7711544,1.92892035 L20.1189379,0.827290911 L19.2082242,0.141629436 L20.333641,0.141629436 L20.6809809,-0.96 Z M14.3432474,-0.96 L14.6914745,0.141629436 L15.8168913,0.141629436 L14.9066212,0.827290911 L15.2539611,1.92892035 L14.3441346,1.24782995 L13.4334209,1.92892035 L13.7812044,0.827290911 L12.8704906,0.141629436 L13.9959075,0.141629436 L14.3432474,-0.96 Z M8.00640102,-0.96 L8.35374094,0.141629436 L9.48004495,0.141629436 L8.56933123,0.827290911 L8.91711475,1.92892035 L8.00640102,1.24782995 L7.09568729,1.92892035 L7.44302721,0.827290911 L6.53275709,0.141629436 L7.6581739,0.141629436 L8.00640102,-0.96 Z M1.66866746,-0.96 L2.01600737,0.141629436 L3.14231139,0.141629436 L2.23159767,0.827290911 L2.57938118,1.92892035 L1.66866746,1.24782995 L0.757953732,1.92892035 L1.10618085,0.827290911 L0.195023523,0.141629436 L1.32132754,0.141629436 L1.66866746,-0.96 Z" id="Combined-Shape" fill="#FFFFFF" mask="url(#mask-2)"></path>
        <rect id="Rectangle" stroke="#DDE2E3" stroke-width="3" opacity="0" fill-rule="nonzero" mask="url(#mask-2)" x="1.5" y="1.5" width="45" height="45"></rect>
    </g>
</svg>