<?xml version="1.0" encoding="UTF-8"?>
<svg width="48px" height="48px" viewBox="0 0 48 48" version="1.1" xmlns="http://www.w3.org/2000/svg" xmlns:xlink="http://www.w3.org/1999/xlink">
    <!-- Generator: Sketch 64 (93537) - https://sketch.com -->
    <title>Graphics / 01 Flags/ZMW</title>
    <desc>Created with Sketch.</desc>
    <defs>
        <rect id="path-1" x="0" y="0" width="48" height="48" rx="5"></rect>
    </defs>
    <g id="Graphics-/-01-Flags/ZMW" stroke="none" stroke-width="1" fill="none" fill-rule="evenodd">
        <g id="Flag">
            <mask id="mask-2" fill="white">
                <use xlink:href="#path-1"></use>
            </mask>
            <g id="Mask" fill-rule="nonzero"></g>
            <rect id="Rectangle" fill="#198A00" fill-rule="nonzero" mask="url(#mask-2)" x="0" y="0" width="48" height="48"></rect>
            <rect id="Rectangle" fill="#EF7D00" fill-rule="nonzero" mask="url(#mask-2)" x="39.4285714" y="17.1428571" width="8.57142857" height="30.8571429"></rect>
            <rect id="Rectangle" fill="#000000" fill-rule="nonzero" mask="url(#mask-2)" x="30.8571429" y="17.1428571" width="8.57142857" height="30.8571429"></rect>
            <rect id="Rectangle" fill="#DE2010" fill-rule="nonzero" mask="url(#mask-2)" x="22.2857143" y="17.1428571" width="8.57142857" height="30.8571429"></rect>
            <path d="M23.0377223,5.119984 C23.0947394,5.04158971 23.6118194,5.45368686 24.1280731,5.63068686 C24.8619074,5.92833486 25.6505611,6.25542743 26.5138583,6.71710857 C26.5656091,6.69830286 25.5699726,5.84871314 25.7501783,5.775352 C25.8849109,5.66950514 27.2865314,6.53018286 28.6361371,6.88733029 C29.1357074,6.96136686 30.5219714,7.13754091 31.035856,7.36599966 C30.9323509,7.29510263 30.9153177,7.27416194 30.8828046,7.24867771 C31.290136,5.43098286 32.9174766,5.67033143 33.3132811,6.08680686 C34.5295291,6.20185943 34.0623451,6.71166057 33.842776,6.78828229 C33.9179298,6.52525363 33.701025,6.49998126 33.4953744,6.46556329 L33.4284869,6.45317914 L33.7055303,6.55096686 C33.6039184,6.59609509 33.5508068,6.58961152 33.4432607,6.5944237 L33.3507863,6.60113371 C33.1363326,6.62985486 32.7699314,6.82408686 33.0465623,7.4222344 C33.056344,7.45510823 33.0689063,7.50681726 33.1189737,7.56090571 C33.1421383,7.57318301 33.1700559,7.58903131 33.202834,7.61018947 C33.1565294,7.54911151 33.1263168,7.51012103 33.1203966,7.51012103 C33.1203966,7.51012103 33.6009897,7.24801874 35.5234171,7.37907006 C35.731264,7.40289177 36.8353291,7.03357257 37.1860549,6.92634743 C37.7445623,6.83103657 39.5241109,6.47361829 40.0047623,6.14002857 C40.2914876,6.10968778 40.0257407,6.54309589 39.6766688,6.76214872 L39.7059829,6.77146514 C39.7059829,6.77146514 42.6546229,5.61583429 42.9403189,5.37754857 C43.0299252,5.47614483 42.4337259,6.19805945 41.2199443,6.81250538 L41.0414869,6.89817914 L41.0826865,6.88143572 C42.5243993,6.2433662 43.613944,5.45072947 43.9015669,5.48477029 C43.9825051,5.50126699 43.9949285,6.23153542 42.236403,7.11422201 L42.1904869,7.13617914 L42.2342039,7.11772921 C43.6865554,6.46240093 44.4759478,5.89976819 44.4600743,6.00897829 C44.4778856,6.03348532 44.3002667,6.62378845 43.152401,7.30356256 L43.0824869,7.34317914 L43.117252,7.32802106 C43.7254878,7.04915399 44.1988758,6.84559657 44.1873314,6.96209029 C44.2280611,7.018138 43.5837933,7.82617367 42.3324417,8.4519884 L42.2194869,8.50617914 L42.271645,8.48295897 C42.9793003,8.15489755 43.420936,7.8413248 43.5508377,7.85562194 C43.6084199,7.86618081 43.0536443,9.2432965 39.8514536,9.63081149 L39.8324869,9.63217914 L39.8166775,9.63299116 C39.6157792,9.63458298 39.2695241,9.65404315 38.687773,9.70713085 L38.4850103,9.72609383 C38.8864938,9.71634571 39.2573836,9.69300999 39.5998752,9.65862874 L39.8324869,9.63217914 L39.8783836,9.63310073 C40.2366595,9.63771218 39.9917474,9.7141552 39.9917474,9.7141552 C39.9917474,9.7141552 39.1936594,10.2860168 38.1029765,10.2036953 L38.0214869,10.1951791 L38.10444,10.2163565 C38.495077,10.3151914 38.5585657,10.3416465 38.5758846,10.4051718 C38.5282661,10.477961 38.1459258,10.5730256 37.642315,10.5299054 L37.5684869,10.5211791 L37.6387586,10.5377244 C37.8739512,10.5920982 38.0242805,10.6291755 38.0303269,10.6792158 C38.0173703,10.7149178 37.5367806,10.9651401 37.1081371,10.786445 C37.0509842,10.7626109 36.9312507,10.7023483 36.7666406,10.6157952 L36.7381499,10.6008564 C37.18857,10.9181581 37.6498678,11.2111187 37.5237623,11.3344717 C37.0691474,11.5369888 36.0948811,11.0127839 35.7052274,10.7745033 C36.2638,11.4178761 36.7703611,11.3821158 36.5885543,11.6203933 C36.1338743,11.8229128 35.4194629,11.2630031 35.2506091,11.1200131 C35.2506091,11.1795986 35.7311989,11.4416982 35.5753669,11.5608105 C35.1597349,11.5846909 34.7310263,11.1438352 34.7180731,11.1318935 L34.7180731,11.1318935 L34.7294899,11.1616727 C34.7557508,11.2283349 34.7830069,11.2910129 34.8143851,11.3492042 C35.0184091,11.6837814 35.1980766,11.6101791 35.2590263,11.7408705 C35.0579166,11.8497037 34.8096537,11.514412 34.6582891,11.4858397 C34.5068594,11.5811272 35.1037737,12.3183037 35.0995017,12.3717095 C35.0917512,12.3846636 34.7927337,12.349209 34.5174652,12.1551314 C34.529269,12.3095829 34.5372366,12.4239847 34.5372366,12.4294521 C34.5372366,12.4443654 34.5589326,12.5090598 34.9063566,12.5190386 C35.188624,12.5588992 35.2103234,12.9372623 35.1451634,12.8327073 C35.0800686,12.7281489 34.8520823,12.6584649 34.8520823,12.6584649 C34.8520823,12.6584649 34.667488,12.6684472 34.7108834,12.7879123 C35.0691897,12.9123702 34.993216,13.2161152 34.928056,13.3853649 C34.862896,13.5546757 34.645792,13.549683 34.645792,13.549683 C34.645792,13.549683 34.8032457,13.3654648 34.667488,13.2957808 C34.3689006,13.3654648 34.3309429,13.0269071 34.3309429,13.0269071 C34.3309429,13.0269071 34.2821063,12.9173598 34.1572309,13.031897 C34.2766686,13.5995258 33.9346823,13.6492487 33.9346823,13.6492487 C33.9346823,13.6492487 33.8749669,13.8085778 33.9997771,13.9181255 C33.6741143,13.9231151 33.7772286,13.6294075 33.7392091,13.5646545 C33.7011863,13.5546757 33.5872583,13.4252282 33.7500914,13.0617784 C33.5112194,13.4302178 33.2669749,13.2957808 33.2669749,13.2957808 C33.2669749,13.2957808 33.2506514,13.4102567 33.2995531,13.5745754 C33.1149589,13.4351488 33.1095177,13.3704547 33.1095177,13.1214805 C33.0996208,13.0711456 33.096508,13.0260758 33.0991416,12.9857242 C33.0598803,13.0310273 33.0126679,13.0703255 32.9629463,13.0965914 C33.2615303,13.4949122 32.9086651,13.728915 32.9086651,13.728915 C32.9086651,13.728915 32.8761554,13.9131331 33.0226617,14.0326597 C32.7512766,14.0126985 32.7512766,13.7786961 32.7512766,13.7786961 C32.7512766,13.7786961 32.5015909,13.6741411 32.4852709,13.2509893 C32.5124046,13.7189941 32.094448,13.7587963 32.094448,13.7587963 C32.094448,13.7587963 32.0401703,13.8633517 32.1324057,13.9828782 C31.8338834,13.9231151 31.9261737,13.6293493 31.9261737,13.6293493 C31.9261737,13.6293493 31.6926811,13.489923 32.0835657,13.1165495 C31.6547269,13.4252282 31.3833417,13.3505546 31.3181851,13.3405727 C31.3181851,13.3405727 31.2692834,13.3903573 31.1716069,13.5497443 C31.139032,13.3156809 31.1878651,13.2808096 31.1878651,13.2808096 C31.1878651,13.2808096 31.204192,12.7978943 31.7958606,12.7978943 C32.2691982,12.7978943 32.3568988,12.3740812 32.3647231,12.2886885 L32.3644869,12.2851791 L32.3787391,12.2491313 C32.3376745,12.2863178 32.2993447,12.3085898 32.2681267,12.3098063 L32.2337646,12.3003633 C32.1872837,12.2683755 32.3131869,11.787603 32.3513648,11.37267 L32.3514869,11.3621791 L32.3361063,11.4671573 C32.2408545,11.9305345 31.925988,12.1385341 31.8853902,12.0982347 L31.8814891,12.0810931 C31.9609566,11.8160193 31.9775406,11.5665119 32.0354423,11.3454013 C32.0932823,11.1242882 32.1923783,10.9315751 32.2144034,10.809255 C32.1453589,10.9502269 31.9657531,11.1450222 31.9487166,11.1520322 C31.8998149,11.1859528 32.0516354,10.8125241 31.9818777,10.8607014 C31.8424309,10.957001 30.9383783,11.0958938 30.6560423,10.6580649 C30.6576564,10.528801 31.0783889,10.3006503 31.3152054,10.1855769 L31.3030063,10.1904662 C30.847077,10.3715907 29.6564149,10.7710398 29.6945406,10.4553698 C29.6008823,10.3675099 30.6524183,9.79025474 30.6285143,9.8030272 C30.604552,9.8158 29.7301634,10.2490504 29.6962206,10.2669935 C29.6622194,10.2849918 28.9504651,10.4910139 28.8167166,10.2952713 C28.7942423,10.2526751 30.8777509,9.21430583 30.8529417,9.09181051 C30.858448,9.18739566 29.2616183,10.0132662 29.2053349,10.0421389 C29.1491166,10.0709505 28.2906571,10.3190934 28.0322251,10.0992866 C27.976264,10.0465333 29.1680937,9.49333943 29.1136823,9.37220903 C28.6583543,9.75817429 28.2999863,9.88156171 27.9599406,9.94399909 C27.7706217,9.97144309 27.5633611,9.97774206 27.4119897,9.94685131 C27.1092263,9.88506709 26.9144217,9.71243166 26.9184366,9.68338103 C26.917192,9.64334251 27.783184,9.49126034 27.9626629,9.26890171 C26.1760686,9.82185966 25.5719714,9.30371474 25.604272,9.23426697 C25.6181851,9.20634469 26.014576,9.1866232 26.053744,9.16630617 C26.0820709,9.14557257 27.1645634,8.80535269 27.1875726,8.78152206 C27.2105749,8.75768834 26.063824,9.12531417 25.4603269,9.09590766 C24.7787166,9.05747303 24.4581143,8.81758309 24.4765463,8.76326697 C24.4916389,8.72344137 24.8998754,8.6842864 24.976744,8.67432469 C25.0652457,8.66749223 26.2273223,8.32115131 26.2643131,8.29046183 C26.3382914,8.22911817 25.4577417,8.5142872 25.2954811,8.52323406 C24.026248,8.59352423 23.8444411,8.25646274 23.8704263,8.19278594 C23.8782057,8.17234377 24.3082823,8.11611486 24.3763086,8.12564491 C24.3839522,8.12618059 24.3986819,8.12509517 24.4190139,8.12270089 L24.4704869,8.11417914 L24.4566746,8.11682554 L24.4566746,8.11682554 L24.4219531,8.11515829 C21.9637429,7.58398686 21.7593417,6.64263314 21.8374891,6.595288 C21.89032,6.547936 22.0536537,6.76801257 22.4004949,6.94457371 C22.7283344,7.07022738 23.2079054,7.24699704 23.6446424,7.40656535 L23.7394869,7.44117914 L23.6137525,7.39050564 C23.2191253,7.23097132 22.8862265,7.08450588 22.7144801,7.01205685 L22.6510309,6.98571657 C22.179136,6.78585143 21.812728,6.14861029 21.9149749,6.08853486 C22.022104,6.02232914 22.5951314,6.61107314 23.0621337,6.77903543 C23.0845353,6.78695706 23.2389152,6.84574728 23.4612266,6.93054948 L23.4974869,6.94417914 L23.4255801,6.9153482 C23.3972326,6.90349056 23.3730814,6.89288486 23.3537222,6.88370947 L23.310616,6.86065257 C22.240552,6.437752 22.0932229,5.49564229 22.16668,5.42945029 C22.3008571,5.39110857 22.7823211,5.98735086 22.979968,6.02818171 C23.0924971,6.13581829 23.4684709,6.30506286 25.7109349,7.23862 C25.732888,7.23071166 24.2440549,6.59727657 24.0546983,6.49516686 C23.8654,6.38842171 22.8477246,5.48098514 23.0377223,5.119984 Z M33.1961783,10.399529 C33.184912,10.9069806 33.178432,11.3563922 33.1319303,11.6811071 C33.2125669,11.9256866 33.18964,11.9142784 33.2091349,12.1631327 C33.1155513,12.1218607 33.0140324,12.0084529 32.9242605,11.886087 C32.924992,11.8867151 32.8760869,12.4592752 32.9304297,12.5638915 C33.0237396,12.6290508 33.2043152,12.7042799 33.2667796,12.7294375 C33.4901106,12.6009141 33.8698904,12.6613611 33.8912251,12.6385655 C33.9238034,12.6036942 33.9618229,12.5439307 33.9618229,12.5439307 L33.9618229,12.5439307 L33.9359662,12.1152868 C33.8716354,12.2236927 33.7993955,12.2933528 33.7411531,12.2710768 C33.877168,11.6160568 33.6829909,11.254864 33.1961783,10.399529 Z" id="Combined-Shape" fill="#EF7D00" fill-rule="nonzero" mask="url(#mask-2)"></path>
        </g>
        <rect id="Rectangle" stroke="#DDE2E3" stroke-width="3" opacity="0" fill-rule="nonzero" x="1.5" y="1.5" width="45" height="45" rx="5"></rect>
    </g>
</svg>